<svg xmlns="http://www.w3.org/2000/svg" xmlns:xlink="http://www.w3.org/1999/xlink" viewBox="0 0 3110.01 3110.01"><defs><style>.cls-1{isolation:isolate;}.cls-2{fill:#f8fbff;}.cls-3{fill:#deebf9;}.cls-4{fill:#444;}.cls-5{fill:#2f386e;}.cls-6{fill:#b3cef6;}.cls-12,.cls-7{fill:#3a7ec1;mix-blend-mode:multiply;}.cls-7{opacity:0.2;}.cls-8{fill:#e5a755;}.cls-9{fill:#d89444;}.cls-10{fill:#f9c067;}.cls-11{fill:#fff;}.cls-12{opacity:0.25;}.cls-13{fill:#ededed;}.cls-14{fill:#cecece;}.cls-15{fill:#2b3872;}.cls-16{fill:#e4ecf9;}.cls-17{fill:#d70d34;}</style></defs><g class="cls-1"><g id="Layer_1" data-name="Layer 1"><circle class="cls-2" cx="1555" cy="1555" r="1555"/><circle class="cls-3" cx="1555" cy="1555" r="1290.6"/><path class="cls-4" d="M2730.18,2685.44a50,50,0,0,1-5.72-.32L1466.15,2544.41a51.09,51.09,0,0,1-45-56.31L1606.4,831.73a51.09,51.09,0,0,1,56.3-45L2921,927.47a51.07,51.07,0,0,1,45,56.3L2780.77,2640.14a51.12,51.12,0,0,1-50.59,45.3ZM1657,798.71a38.85,38.85,0,0,0-38.42,34.38L1433.37,2489.47a38.81,38.81,0,0,0,34.14,42.74l1258.32,140.71a38.81,38.81,0,0,0,42.74-34.14L2953.8,982.41a38.82,38.82,0,0,0-34.15-42.75L1661.34,799A39.41,39.41,0,0,0,1657,798.71Z"/><path class="cls-5" d="M2570.22,2733.62,1351.51,2390.26a45,45,0,0,1-31-55.3l452-1604.24a44.93,44.93,0,0,1,55.29-31l1218.72,343.35a45,45,0,0,1,31,55.3l-452,1604.24A45,45,0,0,1,2570.22,2733.62Z"/><path class="cls-6" d="M2647.92,1256.7,2056.25,1090a33.25,33.25,0,0,1-22.92-40.9h0a33.25,33.25,0,0,1,40.9-22.93l591.67,166.7a33.24,33.24,0,0,1,22.92,40.9h0A33.24,33.24,0,0,1,2647.92,1256.7Z"/><path class="cls-6" d="M2765.8,1490.2l-932-262.58a33.25,33.25,0,0,1-22.92-40.9h0a33.25,33.25,0,0,1,40.91-22.92l932,262.58a33.25,33.25,0,0,1,22.92,40.9h0A33.25,33.25,0,0,1,2765.8,1490.2Z"/><path class="cls-6" d="M2724.41,1637.14l-932-262.58a33.25,33.25,0,0,1-22.92-40.91h0a33.25,33.25,0,0,1,40.9-22.92l932,262.58a33.26,33.26,0,0,1,22.92,40.91h0A33.25,33.25,0,0,1,2724.41,1637.14Z"/><path class="cls-6" d="M2683,1784.07l-932-262.58a33.24,33.24,0,0,1-22.92-40.9h0a33.24,33.24,0,0,1,40.9-22.92l932,262.58a33.24,33.24,0,0,1,22.92,40.9h0A33.24,33.24,0,0,1,2683,1784.07Z"/><path class="cls-6" d="M2641.61,1931l-932-262.58a33.25,33.25,0,0,1-22.92-40.9h0a33.25,33.25,0,0,1,40.91-22.92l932,262.58a33.25,33.25,0,0,1,22.92,40.9h0A33.25,33.25,0,0,1,2641.61,1931Z"/><path class="cls-6" d="M2600.22,2077.94l-932-262.58a33.25,33.25,0,0,1-22.92-40.91h0a33.25,33.25,0,0,1,40.9-22.92l932,262.58a33.26,33.26,0,0,1,22.92,40.91h0A33.26,33.26,0,0,1,2600.22,2077.94Z"/><path class="cls-6" d="M2558.82,2224.87l-932-262.58a33.24,33.24,0,0,1-22.92-40.9h0a33.24,33.24,0,0,1,40.9-22.92l932,262.58a33.24,33.24,0,0,1,22.92,40.9h0A33.24,33.24,0,0,1,2558.82,2224.87Z"/><path class="cls-6" d="M2517.42,2371.8l-932-262.58a33.25,33.25,0,0,1-22.92-40.9h0a33.26,33.26,0,0,1,40.91-22.92l932,262.58a33.25,33.25,0,0,1,22.92,40.9h0A33.25,33.25,0,0,1,2517.42,2371.8Z"/><path class="cls-6" d="M2476,2518.74l-932-262.58a33.25,33.25,0,0,1-22.92-40.91h0a33.25,33.25,0,0,1,40.9-22.92l932,262.58a33.26,33.26,0,0,1,22.92,40.91h0A33.26,33.26,0,0,1,2476,2518.74Z"/><path class="cls-4" d="M846.09,2353.53h-.2c-1.85,0-3.5-.07-5-.2l-.67-.07-.23,0c-1.39-.13-2.82-.33-4.27-.58l-.3-.05-1.15-.2c-1.53-.3-3.07-.67-4.56-1.08l-1.3-.38-.28-.09c-1.2-.37-2.4-.78-3.57-1.21l-.1,0c-.55-.2-1.09-.41-1.63-.63-1.21-.49-2.41-1-3.68-1.65-.61-.3-1.21-.6-1.82-.92-1.41-.75-2.63-1.45-3.74-2.14-.54-.34-1.08-.7-1.61-1.07l-.48-.33c-.8-.54-1.58-1.08-2.35-1.66s-1.24-.95-1.85-1.44c-.81-.66-1.65-1.39-2.56-2.21l-.34-.31c-.36-.32-.71-.63-1-1-1.33-1.28-2.53-2.53-3.65-3.82-.18-.21-.33-.4-.47-.59l-.1-.12c-1-1.15-1.93-2.37-2.84-3.63l-.91-1.33-.07-.1c-.74-1.1-1.47-2.26-2.16-3.43l-.19-.33c-.22-.37-.44-.74-.64-1.11-1-1.82-1.83-3.48-2.52-5.08L786,2308,132.55,806.43c-.76-1.74-1.44-3.55-2.09-5.54-.13-.42-.25-.85-.37-1.28-.05-.17-.09-.34-.14-.51-.33-1.14-.71-2.47-1-3.84-.12-.56-.22-1.1-.32-1.65l-.09-.48c-.25-1.37-.43-2.51-.57-3.57-.09-.74-.16-1.48-.23-2.22-.1-1.18-.17-2.36-.2-3.49,0-.73,0-1.48,0-2.22,0-1.06,0-2.2.14-3.48l0-.38c0-.61.07-1.21.13-1.81.13-1.24.31-2.42.47-3.43l.08-.57c.08-.53.16-1.06.26-1.58.21-1.09.47-2.09.71-3l.07-.26A59.51,59.51,0,0,1,132,759c.11-.29.25-.58.38-.86l.12-.27c.73-1.71,1.44-3.2,2.16-4.56.21-.4.44-.79.67-1.17l.26-.46c.82-1.44,1.56-2.64,2.31-3.76.36-.55.75-1.09,1.14-1.62l.11-.15c.85-1.19,1.68-2.26,2.54-3.3.5-.59,1-1.18,1.52-1.76.85-1,1.78-1.91,2.82-2.93l.15-.14c.52-.51,1-1,1.59-1.51,1.14-1,2.3-2,3.19-2.65l.46-.36c.46-.37.92-.74,1.41-1.09,1.28-.93,2.56-1.74,3.76-2.47l.47-.31c.43-.27.85-.54,1.29-.79a60.63,60.63,0,0,1,6-3L1343,212.9a62.66,62.66,0,0,1,6.27-2.31c.47-.15,1-.27,1.44-.39l.57-.15c1.29-.35,2.79-.75,4.35-1.06.61-.12,1.21-.21,1.81-.3l.58-.09c1.26-.2,2.61-.39,4-.52.72-.06,1.44-.1,2.16-.13l.3,0c1.46-.07,2.76-.09,4-.07.82,0,1.63,0,2.44.1,1.27.07,2.58.19,4,.36l.13,0c.73.09,1.45.18,2.18.29,1.25.21,2.55.47,4.11.84l.51.11c.51.12,1,.23,1.52.37,1.39.37,2.85.84,4.57,1.45l.35.11c.34.12.68.23,1,.36a61,61,0,0,1,7.85,3.69l.33.18c.79.43,1.6.88,2.44,1.4l1.29.86.47.32c.92.62,1.91,1.3,2.92,2.06.48.37.94.75,1.4,1.13l.23.19c1,.83,1.92,1.6,2.72,2.35.52.48,1,1,1.52,1.45.85.84,1.69,1.72,2.5,2.62.48.54,1,1.07,1.41,1.62.72.86,1.44,1.78,2.27,2.91l.29.38c.32.44.65.88,1,1.33.77,1.13,1.48,2.28,2.12,3.36a4.92,4.92,0,0,0,.28.45c.23.38.47.76.68,1.16,1,1.85,1.89,3.58,2.64,5.3l657.21,1510.3c.7,1.6,1.33,3.28,2,5.3.13.41.25.8.37,1.2l.12.4c.39,1.29.74,2.61,1,3.92l.06.3c.11.46.22.93.31,1.39.3,1.51.55,3,.73,4.56l0,.16c0,.24.07.47.1.71.18,1.72.29,3.45.32,5.31,0,.45,0,.93,0,1.41v.48c0,1.23-.06,2.32-.13,3.36-.05.79-.12,1.57-.2,2.35-.1.93-.24,1.87-.38,2.8a61.22,61.22,0,0,1-2.08,9c-.11.35-.23.69-.35,1l-.14.41c-.58,1.7-1.22,3.36-1.92,5-.23.54-.48,1.09-.74,1.64h0c-.74,1.57-1.57,3.14-2.53,4.77l-.19.34c-.17.3-.34.6-.52.89a61.56,61.56,0,0,1-3.93,5.66l-.43.5c-1.23,1.53-2.59,3-4,4.53-.36.37-.75.74-1.14,1.1l-.39.36c-1.19,1.13-2.4,2.19-3.59,3.16-.62.5-1.24,1-1.89,1.47-1.21.91-2.53,1.8-4,2.74l-.48.3c-.45.29-.9.58-1.36.85a62.71,62.71,0,0,1-6.34,3.24L870.39,2348.46c-1.57.68-3.28,1.32-5.24,2l-.16.06-1,.31c-1.72.53-3.46,1-5.14,1.36l-.67.13-.28.05c-1.64.33-3.23.58-4.76.77l-.19,0-.65.08c-1.61.17-3.29.27-5.11.31Zm521.42-2133.4c-.75,0-1.56,0-2.45.06h-.31c-.55,0-1.1.06-1.66.11-1.07.09-2.19.25-3.23.42l-.67.1c-.41.06-.82.12-1.24.2-1.15.23-2.39.56-3.46.85l-.86.23-.75.19a51.13,51.13,0,0,0-5,1.86L169.18,737.06a50.9,50.9,0,0,0-4.77,2.41c-.24.14-.46.29-.68.43l-.73.46c-1,.62-2.06,1.29-3,2-.31.23-.63.48-.94.73l-.54.44c-.79.61-1.7,1.34-2.55,2.1-.43.39-.84.79-1.25,1.19l-.14.14c-.85.83-1.59,1.59-2.26,2.34-.41.46-.81.93-1.21,1.41-.68.82-1.35,1.68-2,2.63l-.12.16c-.29.41-.59.82-.88,1.25-.59.88-1.17,1.83-1.85,3l-.33.56c-.14.25-.29.5-.42.75-.56,1.05-1.12,2.24-1.72,3.63-.09.21-.19.43-.29.64l-.12.27a49.05,49.05,0,0,0-2.08,6.49l-.07.27c-.22.84-.42,1.63-.56,2.37-.06.32-.11.66-.16,1l-.11.71c-.13.85-.28,1.83-.37,2.74-.05.44-.07.88-.1,1.33l0,.42c-.06,1.06-.1,2-.1,2.77,0,.59,0,1.18,0,1.77,0,.91.09,1.85.17,2.79.05.6.11,1.19.18,1.78.1.81.25,1.72.46,2.85l.1.53c.07.39.14.78.22,1.17.23,1,.53,2.07.82,3.06.07.24.14.49.2.74s.13.47.2.7c.53,1.62,1.08,3.07,1.67,4.45L801,2311.83c.54,1.25,1.21,2.58,2,4.07l.45.77.22.38c.56.94,1.14,1.87,1.74,2.75l.07.11c.23.35.47.69.71,1,.72,1,1.48,2,2.26,2.9.14.16.26.31.37.46l.11.13c.85,1,1.8,2,2.88,3l.7.64.42.38c.73.66,1.39,1.23,2,1.76.49.4,1,.78,1.47,1.15s1.24.9,1.88,1.33l.54.37c.38.26.76.52,1.14.76.87.54,1.85,1.1,3,1.71l1.46.74c1,.5,2,.93,2.94,1.32l1.3.5c1,.38,2,.71,3,1l.29.09,1,.29c1.19.33,2.42.62,3.65.87l.78.13.36.06c1.18.2,2.33.36,3.43.47l.49.06.24,0c1.18.11,2.49.16,4,.16H847c1.49,0,2.82-.11,4.09-.24l.66-.09c1.23-.15,2.5-.35,3.8-.61l.77-.15c1.33-.29,2.71-.65,4.11-1.09.25-.07.48-.15.71-.23l.17-.06c1.64-.54,3-1,4.21-1.58l1178.67-512.9a50.2,50.2,0,0,0,5.07-2.6c.29-.17.57-.35.86-.54l.61-.39c1.21-.76,2.27-1.48,3.22-2.19l1.5-1.17c1-.78,1.89-1.6,2.86-2.52l.47-.44c.25-.24.51-.47.75-.71,1.2-1.23,2.31-2.47,3.3-3.71l.35-.41a50.33,50.33,0,0,0,3.07-4.43,3.61,3.61,0,0,0,.22-.39c.11-.2.22-.4.34-.6.78-1.32,1.44-2.57,2-3.82h0c.21-.43.4-.87.59-1.31.56-1.28,1.08-2.61,1.54-4l.17-.5c.08-.22.15-.43.22-.65a48.72,48.72,0,0,0,1.67-7.25c.12-.74.23-1.49.31-2.23s.11-1.25.16-1.88c.05-.82.09-1.69.1-2.68v-.58c0-.31,0-.62,0-.93,0-1.52-.11-2.89-.25-4.23l0-.13c0-.19-.06-.38-.08-.57-.15-1.21-.35-2.44-.59-3.64-.07-.35-.15-.7-.23-1l-.07-.31c-.23-1-.51-2.09-.82-3.13l-.14-.46c-.08-.27-.17-.55-.26-.83-.54-1.64-1.05-3-1.59-4.24L1412.32,249.53c-.59-1.36-1.28-2.75-2.11-4.26-.12-.21-.25-.41-.38-.62l-.4-.65c-.61-1-1.14-1.89-1.69-2.69-.22-.32-.45-.63-.68-.94l-.33-.44c-.68-.92-1.25-1.65-1.79-2.31-.37-.44-.76-.87-1.14-1.3-.65-.71-1.32-1.42-2-2.08-.39-.39-.8-.79-1.22-1.17-.63-.58-1.32-1.18-2.17-1.87l-.27-.22c-.34-.29-.69-.57-1-.84-.73-.56-1.55-1.11-2.32-1.63l-.6-.42c-.27-.18-.53-.37-.81-.54-.58-.36-1.22-.7-1.85-1.05l-.36-.2a49.67,49.67,0,0,0-6.3-3l-.4-.14-.7-.23c-1.41-.5-2.57-.87-3.65-1.16l-1-.24-.63-.14c-1.29-.3-2.33-.51-3.29-.67-.57-.09-1.14-.16-1.71-.23l-.14,0c-1.12-.14-2.16-.23-3.17-.29-.66,0-1.31-.06-2-.08Z"/><path class="cls-7" d="M1973.55,1994.52l.89-1.36c.86-1.34,1.65-2.71,2.39-4.11.22-.41.44-.81.64-1.22a54.83,54.83,0,0,0,3.13-7.75c.26-.81.51-1.62.74-2.44s.35-1.36.5-2.05c.23-1,.42-2,.59-3,.1-.56.21-1.12.29-1.69.22-1.56.38-3.14.46-4.73,0-.26,0-.53,0-.79,0-1.38,0-2.77,0-4.17,0-.51-.06-1-.09-1.54-.08-1.21-.21-2.42-.37-3.64-.07-.49-.13-1-.21-1.48-.27-1.67-.6-3.34-1-5l-2.37-9.18h0L1574.19,374.65h0l-5.1-19.71c-.45-1.74-1-3.43-1.59-5.09-.19-.53-.43-1-.63-1.55-.45-1.12-.9-2.23-1.41-3.3-.28-.58-.58-1.13-.87-1.7-.52-1-1-1.95-1.6-2.89-.34-.56-.68-1.1-1-1.64-.59-.91-1.21-1.8-1.85-2.67-.37-.51-.75-1-1.15-1.52-.67-.85-1.37-1.67-2.1-2.48-.41-.46-.82-.93-1.24-1.38-.75-.78-1.52-1.52-2.31-2.25-.46-.43-.91-.87-1.39-1.29-.72-.63-1.49-1.21-2.24-1.8a55.4,55.4,0,0,0-6.47-4.4c-.38-.22-.77-.4-1.16-.61-1.26-.68-2.54-1.34-3.85-1.93-.57-.25-1.15-.47-1.73-.71-1.17-.47-2.34-.93-3.54-1.32-.66-.22-1.33-.41-2-.6-1.15-.34-2.31-.64-3.49-.89-.71-.16-1.42-.3-2.15-.43-1.17-.21-2.35-.36-3.54-.5-.73-.08-1.47-.16-2.21-.21-1.21-.08-2.44-.1-3.67-.11-.72,0-1.44,0-2.16,0-1.33.05-2.67.18-4,.33-.63.07-1.25.1-1.88.19a58.4,58.4,0,0,0-5.89,1.17L257.43,637.22a53.92,53.92,0,0,0-5.73,1.84c-.59.22-1.14.49-1.72.73-1.25.52-2.49,1.06-3.69,1.66-.63.32-1.24.69-1.86,1-1.09.61-2.16,1.23-3.2,1.9-.61.39-1.19.81-1.78,1.23-1,.7-2,1.43-2.92,2.2-.55.44-1.08.89-1.6,1.35-.94.83-1.85,1.68-2.73,2.57-.46.46-.92.92-1.36,1.4-.9,1-1.75,2-2.58,3-.35.45-.72.88-1.06,1.33-.91,1.21-1.75,2.46-2.56,3.74-.2.32-.42.61-.61.93a56.41,56.41,0,0,0-3.47,6.85c-.39.93-.8,1.85-1.15,2.81-.22.62-.4,1.25-.61,1.88-.32,1-.63,2-.89,3-.17.65-.31,1.3-.45,1.94-.23,1-.44,2-.61,3.06-.11.66-.2,1.32-.28,2-.13,1-.23,2.08-.31,3.13,0,.67-.09,1.33-.11,2,0,1.08,0,2.17,0,3.26,0,.64,0,1.29.06,1.94.07,1.18.21,2.36.36,3.54.07.56.12,1.12.2,1.68.28,1.74.63,3.49,1.08,5.23l5.1,19.74h0L627.87,2289.81h0l2.39,9.22c.43,1.67,1,3.28,1.53,4.87.17.48.36.94.54,1.41.44,1.14.92,2.26,1.43,3.35.22.47.44.94.67,1.4.63,1.24,1.3,2.46,2,3.64.14.23.26.47.4.69.85,1.35,1.75,2.65,2.7,3.92.35.45.71.89,1.07,1.33.63.79,1.28,1.56,2,2.32.47.52.94,1,1.43,1.54s1.22,1.21,1.85,1.8,1.11,1.06,1.69,1.57c1,.84,2,1.63,3,2.4.49.37,1,.73,1.5,1.09,1,.68,2,1.34,3,2,.48.3,1,.58,1.47.86,1,.55,2,1.08,3,1.57.45.22.9.45,1.35.65,1.28.59,2.59,1.12,3.91,1.61.41.15.83.28,1.25.42,1.22.42,2.45.79,3.7,1.12l.8.22c1.46.36,3,.64,4.44.88l1.18.18c1.52.21,3,.37,4.58.45l.77,0c1.43.06,2.86,0,4.3,0,.31,0,.61,0,.91,0,1.58-.09,3.17-.25,4.76-.48l1-.17c1.65-.27,3.3-.59,4.94-1l1244.49-321.85a54.72,54.72,0,0,0,6.08-2c.62-.23,1.21-.51,1.81-.77,1.35-.58,2.67-1.19,4-1.86.63-.34,1.26-.68,1.88-1,1.25-.72,2.45-1.49,3.63-2.3.52-.36,1.06-.7,1.56-1.08a52.7,52.7,0,0,0,4.32-3.53l.37-.31a56.53,56.53,0,0,0,4.29-4.47c.27-.32.53-.67.8-1Q1972.17,1996.53,1973.55,1994.52Z"/><path class="cls-8" d="M1576.11,308.65l412.4,1594.63a55.19,55.19,0,0,1-39.57,67.18L704.45,2292.31a55.21,55.21,0,0,1-67.18-39.57L224.87,658.11a55.15,55.15,0,0,1,39.57-67.18L1508.93,269.08a55.17,55.17,0,0,1,67.18,39.57Z"/><path class="cls-9" d="M1576.11,308.65l5.09,19.71-61.46,191.35L950,674.63,376.46,815.39,230,677.85l-5.11-19.74a55.12,55.12,0,0,1,39.57-67.18L1508.93,269.08A55.12,55.12,0,0,1,1576.11,308.65Z"/><path class="cls-9" d="M1986.13,1894.1l2.38,9.18a55.14,55.14,0,0,1-39.57,67.18L704.45,2292.31a55.14,55.14,0,0,1-67.18-39.57l-2.38-9.22,42.68-125.12a34.42,34.42,0,0,1,23.54-21.75L1857,1797.72a34.68,34.68,0,0,1,31.17,7.61Z"/><path class="cls-10" d="M1986.9,1936a55,55,0,0,1-38,34.47L704.45,2292.31a55,55,0,0,1-49.91-11.75l26-161.34a27.94,27.94,0,0,1,20.58-22.61L1857,1797.69a28,28,0,0,1,29,9.78Z"/><path class="cls-10" d="M1555,277.77l-34.4,238.56a16.85,16.85,0,0,1-12.48,13.95L391.78,819a16.87,16.87,0,0,1-17.71-6.14L228.33,620.91a55,55,0,0,1,36.11-30L1508.93,269.08A55,55,0,0,1,1555,277.77Z"/><path class="cls-4" d="M1017.92,1042.12a52.37,52.37,0,0,1-50.63-39.2L857.47,578.27A52.4,52.4,0,0,1,895,514.56L920.41,508a52.33,52.33,0,0,1,63.71,37.53l109.82,424.64a52.42,52.42,0,0,1-37.53,63.72h0l-25.41,6.57A52.2,52.2,0,0,1,1017.92,1042.12ZM933.49,521.26a37.15,37.15,0,0,0-9.34,1.19L898.74,529a37.47,37.47,0,0,0-26.81,45.51L981.75,999.18a37.4,37.4,0,0,0,45.51,26.81l25.41-6.58a37.47,37.47,0,0,0,26.81-45.51L969.66,549.26A37.41,37.41,0,0,0,933.49,521.26Z"/><circle class="cls-11" cx="923.47" cy="572.33" r="73.02" transform="translate(-134.22 820.63) rotate(-45)"/><circle class="cls-11" cx="1030.71" cy="986.96" r="73.02"/><path class="cls-12" d="M2489.63,753.63,1467.29,647.08A72.89,72.89,0,0,0,1387.23,712L1220.17,2314.91a72.9,72.9,0,0,0,64.95,80.06l1243.17,129.57a72.89,72.89,0,0,0,80.05-64.94l144-1382.06Z"/><path class="cls-11" d="M2449.65,722.83,1427.31,616.27a72.9,72.9,0,0,0-80.06,65L1180.18,2284.1a72.9,72.9,0,0,0,65,80.06L2488.3,2493.74a72.91,72.91,0,0,0,80.06-64.95l144-1382Z"/><path class="cls-13" d="M2426.63,943.66a72.9,72.9,0,0,0,64.95,80.06l220.83,23L2449.65,722.83Z"/><polygon class="cls-14" points="2480.16 1021.61 2708.53 1083.9 2712.41 1046.74 2480.16 1021.61"/><path class="cls-15" d="M2324.62,1067.36l-625.19-65.17A30.89,30.89,0,0,1,1672,968.35h0a30.89,30.89,0,0,1,33.84-27.45L2331,1006.06a30.9,30.9,0,0,1,27.45,33.84h0A30.9,30.9,0,0,1,2324.62,1067.36Z"/><path class="cls-16" d="M2507.11,1296.67,1473.57,1189a30.9,30.9,0,0,1-27.45-33.85h0a30.9,30.9,0,0,1,33.84-27.45L2513.5,1235.37a30.91,30.91,0,0,1,27.46,33.85h0A30.91,30.91,0,0,1,2507.11,1296.67Z"/><path class="cls-16" d="M2490.85,1452.69,1457.31,1345a30.92,30.92,0,0,1-27.46-33.84h0a30.92,30.92,0,0,1,33.85-27.46L2497.24,1391.4a30.9,30.9,0,0,1,27.46,33.84h0A30.9,30.9,0,0,1,2490.85,1452.69Z"/><path class="cls-16" d="M2474.59,1608.72,1441.05,1501a30.9,30.9,0,0,1-27.46-33.84h0a30.9,30.9,0,0,1,33.84-27.45L2481,1547.42a30.9,30.9,0,0,1,27.45,33.84h0A30.9,30.9,0,0,1,2474.59,1608.72Z"/><path class="cls-16" d="M2458.33,1764.74,1424.78,1657a30.91,30.91,0,0,1-27.45-33.84h0a30.91,30.91,0,0,1,33.84-27.46l1033.55,107.73a30.9,30.9,0,0,1,27.45,33.84h0A30.89,30.89,0,0,1,2458.33,1764.74Z"/><path class="cls-16" d="M2442.07,1920.77,1408.52,1813a30.89,30.89,0,0,1-27.45-33.84h0a30.89,30.89,0,0,1,33.84-27.45l1033.55,107.72a30.91,30.91,0,0,1,27.45,33.84h0A30.92,30.92,0,0,1,2442.07,1920.77Z"/><path class="cls-16" d="M2425.8,2076.79,1392.26,1969.07a30.9,30.9,0,0,1-27.45-33.85h0a30.9,30.9,0,0,1,33.84-27.45l1033.54,107.72a30.92,30.92,0,0,1,27.46,33.85h0A30.91,30.91,0,0,1,2425.8,2076.79Z"/><path class="cls-16" d="M2079.45,2253.12c-.26-5-5.53-8-9.67-4.65-5.51,4.49-11.22,8.92-17.6,12.12l-9.22,3.68q-9.18,4.83-10.25-7.66c5.56-5.06-2-13.37-7.74-8.66-7.13,5.82-16.58,13.7-26.66,12.45a32.37,32.37,0,0,1-9.3-3.15,39.56,39.56,0,0,0,5.77-5.42c1.42-1.67,1-4,.33-5.86-1.85-5.11-4.4-8.51-6.39-12.06,24-23.94,44.61-54.91,54.16-85.14,1.85-5.85-4.87-9.52-9.38-6.18-21.12,15.65-40.32,35.39-52.79,58.75-4.41,8.26-8.13,17.23-6.58,26.79a27.86,27.86,0,0,0,.77,2.85,185.35,185.35,0,0,1-17.93,14.93c-8.51,6.09-17.44,11.13-27.47,14.25-7.15,2.23-17.89,5.72-22.81-1.25,16.23-9.1,29.33-22,22.35-38-10.5-24.15-35.59,12.28-36.9,32.62a132.73,132.73,0,0,1-24.68,8.4c-7.24,1.77-4.83,13.14,2.46,11.36a165.36,165.36,0,0,0,24.93-8.51c13.76,24.26,57.29-.56,72-11.59,4.37-3.29,8.69-6.9,13-10.71,3.34,6,3.55,5-4.76,10.58-4.17,2.83-4.1,8.64.8,10.68,9,3.77,18.36,9.53,28.41,8.38a32.28,32.28,0,0,0,9-2.62,5.69,5.69,0,0,0,2.33,3.94c16,10.44,36.16,1.8,51.52-8.54-2.66,18.12-12.66,35.9-26.54,47.31-21.94,18-50.11,13.65-75.85,8.61-7.24-1.42-11,9.57-3.7,11,28.07,5.5,58.09,10.18,82.89-7.56C2065.61,2308.71,2080.88,2279.89,2079.45,2253.12ZM1911.13,2232c9-7,2.86,6.24-.28,9.47a40.28,40.28,0,0,1-6.75,5.34C1904.35,2243,1908.59,2234,1911.13,2232Zm75.66-16.35c2.18-9,10-19,15.59-26.42a168.82,168.82,0,0,1,20.73-22.85,222.77,222.77,0,0,1-37,53.43A37.42,37.42,0,0,1,1986.79,2215.65Z"/><path class="cls-16" d="M2292.87,2379.79a111.3,111.3,0,1,1,127.37-92.48A111.43,111.43,0,0,1,2292.87,2379.79ZM2324,2183.7a87.24,87.24,0,1,0,72.49,99.83A87.34,87.34,0,0,0,2324,2183.7Z"/><path class="cls-17" d="M2472.45,2191.46l-.78.13a185.79,185.79,0,0,0-26.4,6.35l-12.55,4.08-12,4.78a347.12,347.12,0,0,0-45.65,22.57c-14.9,8-28.53,17.66-42.11,27.44-7.58,5.53-14.89,11.43-22.07,17.52q-6.1-5.62-12.66-10.92c-5.85-5.13-12.48-9.69-18.93-14.38a191.12,191.12,0,0,0-21.19-12.74l-.7-.35a1.6,1.6,0,0,0-2,2.34c17.12,25.06,34.78,49.73,52.45,74.4a3,3,0,0,0,4.14.66c27.31-19.36,54.47-38.91,81.29-58.94l40.39-29.81c13.54-9.83,26.7-20.19,40.07-30.26a1.61,1.61,0,0,0-1.22-2.87Z"/><image width="1000" height="1091" transform="translate(1482.58 690) rotate(6.61) scale(0.18)" xlink:href="DIMACOE/ESCUDOS%20Y%20LOGOS%20EJERCITO/1.%20Escudos%20y%20Logos/1.%20ESCUDO%20OFICIAL%20EJERCITO/Escudo_liviano.png"/><circle class="cls-7" cx="1170.72" cy="2453.56" r="260.79" transform="translate(-1392.03 1546.45) rotate(-45)"/><circle class="cls-17" cx="1133.56" cy="2443.48" r="260.79"/><path class="cls-11" d="M1017,2429.68l-2,69.24c-1.88,63.36,48.43,116.73,111.79,118.6l13.59.41c63.36,1.87,116.73-48.44,118.6-111.8l2-69.24a26.67,26.67,0,0,0-25.88-27.45l-190.65-5.64A26.68,26.68,0,0,0,1017,2429.68Z"/><path class="cls-11" d="M1082.51,2389l1.38-46.49a58.19,58.19,0,0,1,116.32,3.44l-1.38,46.49,32,.95,1.37-46.49a90.23,90.23,0,1,0-180.39-5.34l-1.37,46.49Z"/><path class="cls-17" d="M1165.24,2482a27.25,27.25,0,1,0-38.57,24l-.69,23.32a10.59,10.59,0,1,0,21.18.63l.69-23.32A27.27,27.27,0,0,0,1165.24,2482Z"/></g></g></svg>