<svg xmlns="http://www.w3.org/2000/svg" xmlns:xlink="http://www.w3.org/1999/xlink" viewBox="0 0 401.71 401.71"><defs><style>.cls-1{isolation:isolate;}.cls-2,.cls-3{opacity:0.15;}.cls-2{fill:url(#åçûìßííûé_ãðàäèåíò_4);}.cls-3{fill:url(#åçûìßííûé_ãðàäèåíò_4-2);}.cls-4{fill:#fff;}.cls-5{fill:#d9eef6;}.cls-6{fill:#433f2c;}.cls-7{fill:#fbfbfc;}.cls-8{fill:#e6e5e5;}.cls-9{fill:#cccacb;}.cls-10,.cls-11{fill:#e7bd08;}.cls-11{mix-blend-mode:multiply;}.cls-12,.cls-14,.cls-16{fill:none;}.cls-12{stroke:#e83b3d;stroke-width:6.26px;}.cls-12,.cls-14,.cls-15,.cls-16{stroke-miterlimit:10;}.cls-13{fill:#e83b3d;}.cls-14,.cls-15{stroke:#0b5a89;stroke-width:3.65px;}.cls-15{fill:#0b5a89;}.cls-16{stroke:#c1ae1b;stroke-width:0.95px;}.cls-17{fill:#3a95d2;}.cls-18{fill:#f5f5f5;}</style><linearGradient id="åçûìßííûé_ãðàäèåíò_4" x1="200.85" y1="-4.29" x2="200.85" y2="408.79" gradientUnits="userSpaceOnUse"><stop offset="0" stop-color="#3cb6e9"/><stop offset="1" stop-color="#3971b6"/></linearGradient><linearGradient id="åçûìßííûé_ãðàäèåíò_4-2" x1="200.85" y1="-4.29" x2="200.85" y2="408.79" xlink:href="#åçûìßííûé_ãðàäèåíò_4"/></defs><g class="cls-1"><g id="Capa_1" data-name="Capa 1"><circle class="cls-2" cx="200.85" cy="200.85" r="200.85"/><circle class="cls-3" cx="200.85" cy="200.85" r="149.53"/><rect class="cls-4" x="256.31" y="91.87" width="75.64" height="1.56"/><path class="cls-5" d="M285.84,123.12h0c0-.59-.17-1-.87-1h-8.62c-1,0-.86.8-.86,1.79v6.74a4,4,0,0,0-2.41.46c-1.61.86-2.4,2.53-1.76,3.74s2.47,1.48,4.08.63a3.51,3.51,0,0,0,2-2.71h0V128H284v2.72a3.89,3.89,0,0,0-2.41.45c-1.62.86-2.4,2.53-1.76,3.74s2.47,1.48,4.08.63a3.5,3.5,0,0,0,2-2.71h0v-8.86c0-.28,0-.54,0-.77ZM284,126.78h-6.57V125.7H284Z"/><rect class="cls-6" x="55.42" y="79.52" width="281.75" height="186.18" rx="8.71"/><path class="cls-6" d="M380.66,318.56H2.94v6.32a6.32,6.32,0,0,0,6.33,6.33H383.52a6.32,6.32,0,0,0,6.33-6.33v-7.07Z"/><path class="cls-7" d="M389.07,316.14c3.26,3.23-4,5.94-16.32,5.94H20.07c-12.56,0-20.36-1.91-16.22-6l51.42-47.27c1.9-1.75,10.56-3.13,19.38-3.12l248.21.37c8.7,0,17.14,1.4,18.9,3.14Z"/><path class="cls-8" d="M348.27,294.5l-302.46-.21L71.34,268.1l253.72.35ZM51.71,293.17l290.83.22-20.8-24.15L74.65,268.9Z"/><polygon class="cls-6" points="89.7 271.68 75.1 271.66 76.74 269.88 91.16 269.9 89.7 271.68"/><polygon class="cls-6" points="303.64 271.96 289.2 271.94 288.11 270.17 302.37 270.19 303.64 271.96"/><polygon class="cls-6" points="285.92 271.94 271.47 271.92 270.61 270.14 284.88 270.17 285.92 271.94"/><polygon class="cls-6" points="268.19 271.91 253.72 271.89 253.09 270.12 267.37 270.14 268.19 271.91"/><polygon class="cls-6" points="250.44 271.89 235.96 271.87 235.55 270.1 249.85 270.12 250.44 271.89"/><polygon class="cls-6" points="232.68 271.87 218.18 271.85 218 270.07 232.31 270.09 232.68 271.87"/><polygon class="cls-6" points="214.89 271.85 200.39 271.83 200.43 270.05 214.75 270.07 214.89 271.85"/><polygon class="cls-6" points="197.1 271.82 182.57 271.8 182.84 270.03 197.18 270.05 197.1 271.82"/><polygon class="cls-6" points="179.28 271.8 164.75 271.78 165.24 270 179.59 270.02 179.28 271.8"/><polygon class="cls-6" points="161.45 271.77 146.9 271.76 147.63 269.98 161.99 270 161.45 271.77"/><polygon class="cls-6" points="143.6 271.75 129.04 271.73 129.99 269.96 144.37 269.98 143.6 271.75"/><polygon class="cls-6" points="125.74 271.73 111.16 271.71 112.34 269.93 126.73 269.95 125.74 271.73"/><polygon class="cls-6" points="107.86 271.7 93.27 271.69 94.68 269.91 109.08 269.93 107.86 271.7"/><polygon class="cls-6" points="321.55 271.98 307.12 271.96 305.81 270.19 320.05 270.21 321.55 271.98"/><polygon class="cls-6" points="85.45 274.87 72.15 274.86 74.62 272.18 87.67 272.2 85.45 274.87"/><polygon class="cls-6" points="103.54 274.89 90.25 274.88 92.38 272.2 105.42 272.22 103.54 274.89"/><polygon class="cls-6" points="121.35 274.92 108.07 274.9 109.87 272.23 122.89 272.24 121.35 274.92"/><polygon class="cls-6" points="139.14 274.94 125.88 274.92 127.34 272.25 140.35 272.26 139.14 274.94"/><polygon class="cls-6" points="156.92 274.96 143.66 274.94 144.79 272.27 157.79 272.29 156.92 274.96"/><polygon class="cls-6" points="174.68 274.98 161.44 274.96 162.23 272.29 175.22 272.31 174.68 274.98"/><polygon class="cls-6" points="192.42 275 179.19 274.99 179.65 272.31 192.63 272.33 192.42 275"/><polygon class="cls-6" points="210.14 275.02 196.93 275.01 197.06 272.34 210.02 272.35 210.14 275.02"/><polygon class="cls-6" points="227.85 275.05 214.65 275.03 214.45 272.36 227.4 272.38 227.85 275.05"/><polygon class="cls-6" points="245.55 275.07 232.36 275.05 231.82 272.38 244.77 272.4 245.55 275.07"/><polygon class="cls-6" points="263.23 275.09 250.05 275.07 249.18 272.4 262.12 272.42 263.23 275.09"/><polygon class="cls-6" points="280.89 275.11 267.72 275.1 266.53 272.43 279.45 272.44 280.89 275.11"/><polygon class="cls-6" points="298.53 275.13 285.38 275.12 283.85 272.45 296.76 272.47 298.53 275.13"/><polygon class="cls-6" points="324.23 275.16 302.06 275.14 300.23 272.47 321.98 272.5 324.23 275.16"/><polygon class="cls-6" points="311.62 275.85 324.82 275.87 327.18 278.67 313.72 278.65 311.62 275.85"/><polygon class="cls-6" points="293.8 275.83 307.01 275.85 309.02 278.64 295.55 278.63 293.8 275.83"/><polygon class="cls-6" points="275.96 275.81 289.18 275.83 290.85 278.63 277.36 278.61 275.96 275.81"/><polygon class="cls-6" points="258.1 275.79 271.34 275.81 272.65 278.6 259.16 278.59 258.1 275.79"/><polygon class="cls-6" points="240.22 275.77 253.47 275.78 254.44 278.58 240.94 278.57 240.22 275.77"/><polygon class="cls-6" points="222.33 275.75 235.6 275.76 236.22 278.56 222.69 278.55 222.33 275.75"/><polygon class="cls-6" points="204.43 275.73 217.7 275.74 217.97 278.54 204.44 278.53 204.43 275.73"/><polygon class="cls-6" points="186.5 275.7 199.79 275.72 199.71 278.52 186.16 278.51 186.5 275.7"/><polygon class="cls-6" points="168.56 275.68 181.86 275.7 181.43 278.5 167.87 278.49 168.56 275.68"/><polygon class="cls-6" points="150.6 275.66 163.91 275.68 163.13 278.48 149.56 278.46 150.6 275.66"/><polygon class="cls-6" points="132.63 275.64 145.95 275.65 144.82 278.46 131.24 278.44 132.63 275.64"/><polygon class="cls-6" points="114.64 275.62 127.97 275.63 126.49 278.44 112.89 278.42 114.64 275.62"/><polygon class="cls-6" points="96.63 275.6 109.98 275.61 108.14 278.42 94.53 278.4 96.63 275.6"/><polygon class="cls-6" points="71.5 275.56 94.04 275.59 91.89 278.4 68.9 278.37 71.5 275.56"/><polygon class="cls-6" points="67.64 279.74 94.1 279.77 91.88 282.74 64.9 282.71 67.64 279.74"/><polygon class="cls-6" points="302.19 279.99 328.32 280.02 330.82 282.99 304.17 282.96 302.19 279.99"/><polygon class="cls-6" points="281.94 279.97 295.55 279.99 297.39 282.95 283.51 282.94 281.94 279.97"/><polygon class="cls-6" points="263.58 279.95 277.19 279.97 278.67 282.93 264.78 282.92 263.58 279.95"/><polygon class="cls-6" points="245.19 279.93 258.82 279.95 259.93 282.91 246.02 282.9 245.19 279.93"/><polygon class="cls-6" points="226.78 279.91 240.43 279.93 241.16 282.89 227.24 282.88 226.78 279.91"/><polygon class="cls-6" points="208.36 279.89 222.02 279.91 222.38 282.87 208.45 282.86 208.36 279.89"/><polygon class="cls-6" points="189.92 279.87 203.59 279.89 203.59 282.86 189.64 282.84 189.92 279.87"/><polygon class="cls-6" points="171.46 279.85 185.14 279.87 184.77 282.84 170.81 282.82 171.46 279.85"/><polygon class="cls-6" points="152.98 279.83 166.68 279.85 165.93 282.82 151.96 282.8 152.98 279.83"/><polygon class="cls-6" points="134.49 279.81 148.2 279.82 147.08 282.8 133.09 282.78 134.49 279.81"/><polygon class="cls-6" points="115.98 279.79 129.7 279.81 128.21 282.78 114.21 282.76 115.98 279.79"/><polygon class="cls-6" points="97.45 279.77 111.18 279.79 109.32 282.76 95.3 282.75 97.45 279.77"/><polygon class="cls-6" points="64.16 283.51 91.29 283.54 88.96 286.67 61.27 286.64 64.16 283.51"/><polygon class="cls-6" points="293.89 283.74 330.99 283.78 333.61 286.89 295.75 286.86 293.89 283.74"/><polygon class="cls-6" points="275.06 283.72 289.02 283.74 290.78 286.85 276.53 286.84 275.06 283.72"/><polygon class="cls-6" points="257.06 283.7 271.03 283.72 272.41 286.84 258.16 286.82 257.06 283.7"/><polygon class="cls-6" points="239.03 283.69 253.02 283.7 254.03 286.82 239.76 286.81 239.03 283.69"/><polygon class="cls-6" points="220.99 283.67 234.99 283.68 235.63 286.8 221.34 286.79 220.99 283.67"/><polygon class="cls-6" points="202.93 283.65 216.94 283.66 217.21 286.79 202.91 286.77 202.93 283.65"/><polygon class="cls-6" points="184.85 283.63 198.88 283.65 198.78 286.77 184.47 286.76 184.85 283.63"/><polygon class="cls-6" points="166.76 283.61 180.8 283.63 180.32 286.75 166 286.74 166.76 283.61"/><polygon class="cls-6" points="148.65 283.6 162.7 283.61 161.85 286.74 147.51 286.72 148.65 283.6"/><polygon class="cls-6" points="130.53 283.58 144.59 283.59 143.37 286.72 129.01 286.71 130.53 283.58"/><polygon class="cls-6" points="112.38 283.56 126.46 283.57 124.86 286.7 110.49 286.69 112.38 283.56"/><polygon class="cls-6" points="94.22 283.54 108.31 283.56 106.34 286.69 91.95 286.67 94.22 283.54"/><polygon class="cls-6" points="115.26 288.28 129.77 288.29 128.19 291.62 113.37 291.61 115.26 288.28"/><polygon class="cls-6" points="96.53 288.26 111.06 288.27 109.08 291.6 94.24 291.59 96.53 288.26"/><polygon class="cls-6" points="77.79 288.25 92.33 288.26 89.95 291.59 75.1 291.58 77.79 288.25"/><polygon class="cls-6" points="59.03 288.23 73.59 288.24 70.8 291.57 55.94 291.56 59.03 288.23"/><polygon class="cls-6" points="259.93 288.4 274.33 288.42 275.83 291.74 261.12 291.72 259.93 288.4"/><polygon class="cls-6" points="241.35 288.39 255.76 288.4 256.87 291.72 242.15 291.71 241.35 288.39"/><polygon class="cls-6" points="320.55 290.1 335.05 290.11 336.45 291.78 321.78 291.77 320.55 290.1"/><polygon class="cls-6" points="300.81 288.44 315.18 288.45 317.54 291.77 302.87 291.76 300.81 288.44"/><polygon class="cls-6" points="280.02 290.06 294.56 290.07 295.52 291.75 280.83 291.74 280.02 290.06"/><polygon class="cls-6" points="140.16 288.3 231.19 288.38 231.77 291.7 138.8 291.63 140.16 288.3"/><path class="cls-8" d="M259.62,313.56c1,3.16-8.13,5.8-20.36,5.8H153.33c-12.3,0-21.24-2.65-20-5.81l4.89-12.6c1-2.65,10.59-4.74,21.36-4.73l75.3.05c10.73,0,20.06,2.1,20.88,4.74Z"/><path class="cls-9" d="M133.32,313.54l4.89-12.6c1-2.48,9.38-4.46,19.24-4.7-.22-.13-.45-.25-.68-.36-10.38.33-19.18,2.43-20.23,5.06l-5,12.59c-1.19,3,6.07,5.59,16.87,6.19.33-.15.66-.3,1-.47C139.17,318.75,132.23,316.35,133.32,313.54Z"/><path class="cls-9" d="M234.8,295.88l-75.13-.05c-1,0-1.94,0-2.9.05.23.11.46.23.68.36.7,0,1.41,0,2.12,0l75.3.05,1.52,0,.44-.38Z"/><path class="cls-9" d="M239.26,319.36H153.33c-1.36,0-2.67,0-3.94-.1-.34.17-.67.32-1,.47,1.54.09,3.15.13,4.8.13h86.16q1.07,0,2.1,0l-.65-.49Z"/><path class="cls-9" d="M236.83,295.9l-.44.38c10.07.19,18.58,2.2,19.36,4.72l3.87,12.56c.93,3-7.37,5.56-18.82,5.78l.65.49c12.2-.29,21-3,19.95-6.27l-4-12.56C256.55,298.31,247.52,296.15,236.83,295.9Z"/><polygon class="cls-4" points="66.31 102.29 66.31 254.41 320.81 254.41 326.27 254.41 326.27 102.29 66.31 102.29"/><rect class="cls-10" x="114.64" y="202.71" width="24.51" height="40.54"/><rect class="cls-10" x="145.15" y="186.24" width="24.51" height="57"/><rect class="cls-10" x="176.34" y="177.43" width="24.51" height="65.82"/><rect class="cls-10" x="207.8" y="166.26" width="24.51" height="76.98"/><rect class="cls-10" x="238.9" y="142.25" width="24.51" height="101"/><path class="cls-11" d="M207.8,242.75h24.51V212.38a116.23,116.23,0,0,1-24.51,14.19Z"/><path class="cls-11" d="M200.85,242.75H176.34v-6.1a186.92,186.92,0,0,0,24.51-7.27Z"/><path class="cls-11" d="M139.16,242.73H114.64a230.53,230.53,0,0,0,24.52-.66Z"/><path class="cls-11" d="M145.15,242.75h24.51v-4.7c-8.73,1.7-17.08,2.81-24.51,3.53Z"/><path class="cls-11" d="M238.9,206.81c13.55-12.65,23-29.71,24.52-52.71v88.65H238.9"/><polyline class="cls-12" points="116.53 175.44 146.91 152.49 166.03 170.03 212.04 132.09 226.17 146.38 264.33 113.18"/><polygon class="cls-13" points="246.51 110.27 263.89 130.49 270.62 107.37 246.51 110.27"/><polyline class="cls-14" points="252.25 182.17 212.11 150.4 193.38 169.73 144.4 130.01 128.84 147.5"/><polygon class="cls-15" points="241.63 184.68 253.22 170.4 258.31 186.21 241.63 184.68"/><line class="cls-16" x1="286.62" y1="243.25" x2="90.58" y2="243.25"/><path class="cls-17" d="M236.88,222.86A24.8,24.8,0,0,0,226.71,225c-5.11-15.63-19.16-26.85-35.7-26.85-18.19,0-33.38,13.56-37,31.63q-.78-.06-1.59-.06c-12.61,0-22.83,10.78-22.83,24.09s10.22,24.09,22.83,24.09h84.44c14.41,0,26.09-12.33,26.09-27.53S251.29,222.86,236.88,222.86Z"/><polygon class="cls-18" points="203.54 242.61 203.54 221.6 189.04 221.6 189.04 242.61 181.83 242.61 196.29 262.15 210.75 242.61 203.54 242.61"/><rect class="cls-18" x="181.83" y="263.98" width="28.92" height="4.22"/><image width="800" height="796" transform="translate(73.17 110.94) scale(0.05)" xlink:href="logo/EJ%C3%89RCITO%20DE%20CHILE.png"/></g></g></svg>