<?xml version="1.0" encoding="utf-8"?>
<!-- Generator: Adobe Illustrator 25.0.0, SVG Export Plug-In . SVG Version: 6.00 Build 0)  -->
<svg version="1.1" id="Capa_1" xmlns="http://www.w3.org/2000/svg" xmlns:xlink="http://www.w3.org/1999/xlink" x="0px" y="0px"
	 viewBox="0 0 425.2 425.2" style="enable-background:new 0 0 425.2 425.2;" xml:space="preserve">
<style type="text/css">
	.st0{fill:#FFFFFF;}
	.st1{fill:#020203;}
	.st2{fill:#E20E17;}
	.st3{fill:#AD7B16;}
	.st4{fill:#ADD3F2;}
	.st5{opacity:0.1294;}
</style>
<g>
	<g>
		<path class="st0" d="M332.02,300.63c0-71.87,0.84-134.45,0-201.92c-100.69,0-201.9,2.93-303.34,1.86c-0.97,68.76,0,133.44,0,200.3
			C130.07,300.87,231.13,300.63,332.02,300.63z"/>
		<path class="st1" d="M28.67,302.82c-1.08,0-1.96-0.88-1.96-1.96c0-22.29-0.11-44.71-0.22-66.38
			c-0.21-43.31-0.43-88.09,0.22-133.94c0.02-1.08,0.88-1.98,1.98-1.93c58.59,0.62,118.02-0.11,175.49-0.82
			c41.94-0.51,85.3-1.05,127.83-1.05c1.07,0,1.94,0.86,1.96,1.93c0.56,44.51,0.38,86.62,0.19,131.2
			c-0.09,22.75-0.19,46.27-0.19,70.74c0,1.08-0.88,1.96-1.96,1.96c-50.38,0-101.68,0.06-151.29,0.12
			C130.93,302.76,79.44,302.82,28.67,302.82z M30.6,102.54c-0.62,45.13-0.4,89.24-0.19,131.92c0.1,21.05,0.21,42.79,0.22,64.45
			c50.13,0,100.93-0.06,150.09-0.12c48.97-0.06,99.58-0.12,149.34-0.12c0.01-23.77,0.1-46.66,0.19-68.8
			c0.18-43.92,0.36-85.44-0.17-129.21c-41.89,0.02-84.56,0.54-125.85,1.05C147.38,102.4,88.6,103.12,30.6,102.54z"/>
	</g>
	<g>
		<g>
			<path class="st2" d="M131.56,106.78c-34.96,0-69.58-0.04-102.89-0.11l-1.04,0l0.04-1.04c0.2-4.95,0.27-9.47,0.34-13.84
				c0.07-4.14,0.13-8.05,0.3-12.11l0.04-0.96l304.41-1.34v1c0,3.33,0.06,7.62,0.12,12.15c0.07,5.08,0.14,10.32,0.14,14.89v1l-1,0
				C259.82,106.66,194.25,106.78,131.56,106.78z"/>
			<path class="st0" d="M331.76,78.39c0,7.04,0.26,18.37,0.26,27.04c-66.94,0.22-133.6,0.34-200.45,0.34
				c-34.23,0-68.51-0.03-102.89-0.11c0.38-9.61,0.3-17.56,0.64-25.95L331.76,78.39 M333.76,76.38l-2.01,0.01L29.31,77.72l-1.91,0.01
				l-0.08,1.91c-0.16,4.07-0.23,7.99-0.3,12.13c-0.07,4.36-0.15,8.87-0.34,13.82l-0.08,2.08l2.08,0
				c33.32,0.07,67.94,0.11,102.9,0.11c62.73,0,128.3-0.11,200.46-0.34l1.99-0.01v-1.99c0-4.57-0.07-9.82-0.14-14.9
				c-0.06-4.53-0.12-8.82-0.12-12.14V76.38L333.76,76.38z"/>
		</g>
		<path class="st1" d="M131.31,107.73c-35.25,0-69.36-0.04-102.64-0.11c-0.53,0-1.04-0.22-1.41-0.6c-0.37-0.38-0.56-0.9-0.54-1.43
			c0.2-4.95,0.27-9.46,0.35-13.83c0.07-4.14,0.13-8.05,0.29-12.12c0.04-1.05,0.9-1.87,1.95-1.88l302.45-1.33c0,0,0.01,0,0.01,0
			c0.52,0,1.01,0.21,1.38,0.57c0.37,0.37,0.58,0.87,0.58,1.39c0,3.33,0.06,7.63,0.12,12.14c0.07,5.08,0.14,10.33,0.14,14.9
			c0,1.08-0.87,1.95-1.95,1.96C260.58,107.62,194.16,107.73,131.31,107.73z M30.7,103.71c91.48,0.19,189.45,0.11,299.35-0.23
			c-0.02-4.06-0.08-8.54-0.13-12.9c-0.05-3.69-0.1-7.23-0.11-10.23L31.2,81.67c-0.11,3.37-0.17,6.68-0.22,10.16
			C30.91,95.61,30.85,99.51,30.7,103.71z"/>
	</g>
	<g>
		<path class="st1" d="M68.8,226.89c-1.08,0-1.95-0.87-1.96-1.95c0-1.08,0.87-1.96,1.95-1.96l18.31-0.04c0,0,0,0,0,0
			c1.08,0,1.95,0.87,1.96,1.95c0,1.08-0.87,1.96-1.95,1.96L68.8,226.89C68.81,226.89,68.81,226.89,68.8,226.89z"/>
	</g>
	<g>
		<path class="st1" d="M123.63,226.89c-1.08,0-1.95-0.87-1.96-1.95c0-1.08,0.87-1.96,1.95-1.96l18.31-0.04c0,0,0,0,0,0
			c1.08,0,1.95,0.87,1.96,1.95c0,1.08-0.87,1.96-1.95,1.96L123.63,226.89C123.64,226.89,123.63,226.89,123.63,226.89z"/>
	</g>
	<g>
		<path class="st1" d="M66.23,254.13c-0.6,0-1.08-0.48-1.08-1.08c0-0.6,0.48-1.08,1.08-1.08l78.7-0.02c0.6,0,1.08,0.48,1.08,1.08
			c0,0.6-0.48,1.08-1.08,1.08L66.23,254.13z"/>
	</g>
	<g>
		<g>
			<path class="st3" d="M143.96,214.44c0-30.74,0.21-57.5,0-86.36c-25.48,0-51.08,1.25-76.75,0.8c-0.25,29.41,0,57.07,0,85.66
				C92.86,214.55,118.43,214.44,143.96,214.44z"/>
			<path class="st1" d="M67.21,216.5c-1.08,0-1.96-0.88-1.96-1.96c0-9.53-0.03-18.96-0.05-28.39c-0.05-18.52-0.11-37.68,0.05-57.29
				c0-0.52,0.22-1.02,0.59-1.38c0.37-0.36,0.89-0.54,1.4-0.56c14.8,0.27,29.82-0.05,44.34-0.35c10.62-0.22,21.59-0.45,32.37-0.45
				c1.08,0,1.95,0.87,1.96,1.94c0.14,19.03,0.1,37.04,0.05,56.1c-0.02,9.79-0.05,19.8-0.05,30.27c0,1.08-0.88,1.96-1.96,1.96
				c-12.74,0-25.5,0.03-38.27,0.05C92.88,216.48,80.05,216.5,67.21,216.5z M69.15,130.87c-0.15,18.9-0.09,37.38-0.04,55.27
				c0.03,8.78,0.05,17.57,0.05,26.44c12.19,0,24.36-0.03,36.51-0.05c12.12-0.02,24.23-0.05,36.32-0.05c0-9.77,0.03-19.14,0.05-28.32
				c0.05-18.4,0.09-35.82-0.03-54.12c-10.11,0.02-20.39,0.24-30.35,0.44C97.75,130.78,83.37,131.08,69.15,130.87z"/>
		</g>
		<g>
			<path class="st1" d="M81.23,206.98c-0.14,0-0.27-0.04-0.39-0.13c-2.36-1.74-4.59-3.7-6.63-5.81c-0.25-0.26-0.24-0.67,0.02-0.92
				c0.26-0.25,0.67-0.24,0.92,0.02c1.99,2.06,4.16,3.97,6.46,5.67c0.29,0.21,0.35,0.62,0.14,0.91
				C81.63,206.88,81.43,206.98,81.23,206.98z"/>
		</g>
		<g>
			<path class="st1" d="M96.7,209.2c-0.16,0-0.32-0.06-0.44-0.17c-7.55-7.03-15.35-14.01-23.19-20.74c-0.27-0.23-0.3-0.65-0.07-0.92
				c0.23-0.27,0.65-0.3,0.92-0.07c7.85,6.74,15.66,13.73,23.23,20.77c0.26,0.25,0.28,0.66,0.03,0.92
				C97.05,209.13,96.88,209.2,96.7,209.2z"/>
		</g>
		<g>
			<path class="st1" d="M112.26,209.14c-0.15,0-0.3-0.05-0.42-0.15l-37.81-31.99c-0.28-0.23-0.31-0.64-0.08-0.92
				c0.23-0.27,0.65-0.31,0.92-0.08l37.81,31.99c0.28,0.23,0.31,0.64,0.08,0.92C112.63,209.06,112.45,209.14,112.26,209.14z"/>
		</g>
		<g>
			<path class="st1" d="M126.65,208.43c-0.16,0-0.31-0.05-0.44-0.17c-16.74-14.99-34.1-29.74-51.62-43.84
				c-0.28-0.23-0.32-0.64-0.1-0.92c0.23-0.28,0.64-0.32,0.92-0.1c17.54,14.12,34.92,28.88,51.68,43.89
				c0.27,0.24,0.29,0.65,0.05,0.92C127.01,208.35,126.83,208.43,126.65,208.43z"/>
		</g>
		<g>
			<path class="st1" d="M137.82,203.76c-0.14,0-0.29-0.05-0.41-0.14c-21.29-17.09-42.52-34.86-63.1-52.82
				c-0.27-0.24-0.3-0.65-0.06-0.92c0.24-0.27,0.65-0.3,0.92-0.06c20.56,17.95,41.78,35.71,63.06,52.79c0.28,0.23,0.33,0.64,0.1,0.92
				C138.2,203.68,138.01,203.76,137.82,203.76z"/>
		</g>
		<g>
			<path class="st1" d="M137.36,189.5c-0.15,0-0.29-0.05-0.41-0.15l-62.48-51.06c-0.28-0.23-0.32-0.64-0.09-0.92
				c0.23-0.28,0.64-0.32,0.92-0.09l62.48,51.06c0.28,0.23,0.32,0.64,0.09,0.92C137.74,189.42,137.55,189.5,137.36,189.5z"/>
		</g>
		<g>
			<path class="st1" d="M137.47,174.87c-0.15,0-0.3-0.05-0.43-0.16c-15.08-12.99-30.62-25.92-46.2-38.41
				c-0.28-0.22-0.33-0.64-0.1-0.92c0.23-0.28,0.64-0.32,0.92-0.1c15.59,12.5,31.15,25.43,46.23,38.43c0.27,0.24,0.3,0.65,0.07,0.92
				C137.83,174.8,137.65,174.87,137.47,174.87z"/>
		</g>
		<g>
			<path class="st1" d="M137.32,158.61c-0.13,0-0.27-0.04-0.38-0.12c-9.22-6.66-18.32-13.72-27.05-20.97
				c-0.28-0.23-0.31-0.64-0.09-0.92c0.23-0.28,0.65-0.31,0.92-0.09c8.71,7.24,17.78,14.28,26.98,20.92
				c0.29,0.21,0.36,0.62,0.15,0.91C137.72,158.51,137.52,158.61,137.32,158.61z"/>
		</g>
		<g>
			<path class="st1" d="M137.83,145.77c-0.15,0-0.3-0.05-0.42-0.16c-3.22-2.75-6.6-5.39-10.04-7.84c-0.29-0.21-0.36-0.62-0.15-0.91
				c0.21-0.29,0.62-0.36,0.91-0.15c3.47,2.48,6.88,5.14,10.13,7.91c0.27,0.23,0.31,0.65,0.07,0.92
				C138.2,145.69,138.02,145.77,137.83,145.77z"/>
		</g>
	</g>
	<g>
		<g>
			<path class="st0" d="M193.45,186.96c-9.78,27.34-19.58,54.74-26.2,83.43c5.04,1.7,10.31,2.71,15.62,3
				c2.01-7.04,4.02-14.07,6.03-21.11c0,0-0.29-0.22-0.67-0.29c4.02,0.78,7.66,2.96,10.72,5.67c3.06,2.71,5.61,5.95,8.43,9.69
				c-0.29,3.98,2.62,7.79,6.37,9.15c3.75,1.36,8.07,0.53,11.56-1.82c-0.35,1.75-0.35,3.56-0.01,5.31c0.15,0.76,0.37,1.52,0.72,2.2
				c0.75,1.44,2.07,2.52,3.52,3.27c2.45,1.27,5.33,1.67,8.28,1.16c-0.3,3.32,2.2,6.48,5.33,7.63c3.13,1.16,6.68,0.61,9.94-0.62
				c0.5,1.15,1.04,2.32,1.97,3.16c1.04,0.95,2.47,1.36,3.87,1.52c3.35,0.39,6.84-0.56,9.97-2.44c3.44,1.88,7.8,1.95,11.29,0.18
				c0.92-0.46,1.79-1.05,2.49-1.8c1.41-1.52,2.06-3.63,2.18-5.71c0.12-2.07-0.23-4.14-0.36-6.27c1.73,2.01,3.55,4.01,5.81,5.4
				c2.26,1.39,5.05,2.13,7.61,1.44c2.13-0.58,3.93-2.1,5.1-3.97c1.18-1.87,1.77-4.05,1.94-6.55c0.86,1.41,1.8,2.77,2.82,4.06
				c0.96,1.22,2,2.39,3.28,3.26c1.28,0.87,2.84,1.41,4.38,1.23c2.38-0.27,4.31-2.2,5.26-4.4s1.1-4.65,1.24-7.04
				c0.08-1.38,0.16-2.77,0.1-4.19c1.25,2.36,2.52,4.74,4.18,6.83c1.67,2.09,3.78,3.9,6.3,4.8c0.62,0.22,1.27,0.39,1.91,0.55
				c1.04,0.26,2.22,0.49,3.1-0.12c0.7-0.49,0.99-1.39,1.09-2.24s0.05-1.73,0.54-2.58c9.58-3.61,19.01-7.62,28.15-11.93
				c0.91,3.36,1.94,6.69,3.29,9.9c6.83-1.59,13.47-4.03,19.61-7.2c5.41-2.07,10.74-4.37,15.58-7.42
				c-0.78-27.08-5.38-54.51-17.77-78.6c-0.78-1.52-1.59-3.03-2.84-4.31c-13.59,4.73-26.81,10.49-39.53,17.22
				c0.36,0.69,0.71,1.38,0.69,2.14c-13.17,0.93-26.06-3.51-38.51-7.92c-3.95-1.4-7.96-2.81-12.13-3.1
				c-3.71-0.25-7.42,0.4-11.57,0.76c-4.41-2.68-9.34-4.38-14.31-5.76c-3-0.83-6.07-1.57-9.19-1.53c-2.86,0.03-5.66,0.71-8.41,1.52
				c-14.75,4.31-28.54,12.27-43.86,13.7c0.12-1.03,0.24-2.06,0.37-3.09c0.07-0.55,0.11-1.18-0.19-1.62
				C203.54,189.55,198.5,187.52,193.45,186.96z"/>
		</g>
		<g>
			<path class="st1" d="M398.66,261.53c-0.05,0-0.1-0.01-0.15-0.03l-13.5-5.08c-0.21-0.08-0.32-0.32-0.24-0.53
				c0.08-0.22,0.32-0.32,0.53-0.24l13.5,5.08c0.21,0.08,0.32,0.32,0.24,0.53C398.98,261.43,398.83,261.53,398.66,261.53z"/>
		</g>
		<g>
			<path class="st1" d="M403.22,256.47c-0.04,0-0.09-0.01-0.13-0.02c-7.43-2.53-14.79-5.52-21.88-8.88c-0.21-0.1-0.29-0.35-0.2-0.55
				c0.1-0.21,0.35-0.29,0.55-0.2c7.06,3.35,14.4,6.33,21.79,8.85c0.22,0.07,0.33,0.31,0.26,0.53
				C403.56,256.36,403.39,256.47,403.22,256.47z"/>
		</g>
		<g>
			<path class="st1" d="M404.37,248.5c-0.04,0-0.09-0.01-0.13-0.02c-8.26-2.7-16.51-5.78-24.51-9.16c-0.21-0.09-0.31-0.33-0.22-0.54
				c0.09-0.21,0.34-0.31,0.54-0.22c7.98,3.37,16.21,6.44,24.44,9.14c0.22,0.07,0.34,0.31,0.27,0.52
				C404.71,248.39,404.54,248.5,404.37,248.5z"/>
		</g>
		<g>
			<path class="st1" d="M404.37,240.86c-0.05,0-0.1-0.01-0.15-0.03c-9.63-3.61-17.07-6.72-27.33-11.05
				c-0.21-0.09-0.31-0.33-0.22-0.54c0.09-0.21,0.33-0.31,0.54-0.22c10.25,4.33,17.69,7.43,27.3,11.04c0.21,0.08,0.32,0.32,0.24,0.53
				C404.7,240.76,404.54,240.86,404.37,240.86z"/>
		</g>
		<g>
			<path class="st1" d="M401.98,232.22c-0.05,0-0.11-0.01-0.16-0.03l-27.57-11.25c-0.21-0.09-0.31-0.33-0.23-0.54
				c0.09-0.21,0.33-0.32,0.54-0.23l27.57,11.25c0.21,0.09,0.31,0.33,0.23,0.54C402.3,232.13,402.14,232.22,401.98,232.22z"/>
		</g>
		<g>
			<path class="st1" d="M401.09,223.97c-0.06,0-0.11-0.01-0.17-0.04l-29.94-13.26c-0.21-0.09-0.3-0.34-0.21-0.55
				c0.09-0.21,0.34-0.3,0.55-0.21l29.94,13.26c0.21,0.09,0.3,0.34,0.21,0.55C401.4,223.88,401.25,223.97,401.09,223.97z"/>
		</g>
		<g>
			<path class="st1" d="M398.17,213.59c-0.06,0-0.12-0.01-0.17-0.04l-30.21-13.58c-0.21-0.09-0.3-0.34-0.21-0.55
				c0.09-0.21,0.34-0.3,0.55-0.21l30.21,13.58c0.21,0.09,0.3,0.34,0.21,0.55C398.48,213.5,398.33,213.59,398.17,213.59z"/>
		</g>
		<g>
			<path class="st1" d="M391.38,200.01c-0.05,0-0.1-0.01-0.15-0.03c-7.5-2.89-15.16-5.67-22.75-8.27c-0.22-0.07-0.33-0.31-0.26-0.53
				c0.07-0.22,0.31-0.33,0.53-0.26c7.6,2.6,15.27,5.38,22.78,8.27c0.21,0.08,0.32,0.32,0.24,0.54
				C391.7,199.91,391.55,200.01,391.38,200.01z"/>
		</g>
		<g>
			<path class="st1" d="M390.78,190.46c-0.05,0-0.11-0.01-0.16-0.03l-10.78-4.5c-0.21-0.09-0.31-0.33-0.22-0.54
				c0.09-0.21,0.33-0.31,0.54-0.22l10.78,4.5c0.21,0.09,0.31,0.33,0.22,0.54C391.09,190.37,390.94,190.46,390.78,190.46z"/>
		</g>
		<g>
			<path class="st4" d="M162.16,176.89c10.66,3.58,21.43,6.83,31.71,9.9c-1.68,7.11-6.01,13.26-8.92,19.96
				c-1.54,3.55-2.68,7.27-3.81,10.97c-5.29,17.37-10.36,34.82-15.21,52.29c-9.5-3.26-16.88-4.93-27.07-6.73
				C148.25,234.09,156.71,206.06,162.16,176.89z"/>
		</g>
		<g class="st5">
			<path class="st1" d="M363.45,263.25c-1.67,0.49-3.29,1.09-4.88,1.75c-0.36-0.01-0.73,0.02-1.08,0.09
				c-0.81,0.14-1.56,0.47-2.32,0.77c-0.85,0.29-1.64,0.56-2.46,0.91c-0.32,0.12-1.3,0.5-1.68,0.59c-0.12,0.03-0.21,0.07-0.29,0.1
				c-0.24,0.08-0.48,0.16-0.73,0.22c-0.15,0-0.29,0.01-0.44,0c-0.16-0.03-0.32-0.07-0.48-0.12c0,0-0.01,0-0.01,0
				c-0.35-0.32-0.67-0.68-0.97-1.04c-0.4-0.51,0.05,0.07,0.2,0.26c-0.27-0.36-0.55-0.7-0.85-1.03c-0.09-0.11-0.16-0.19-0.22-0.27
				c-0.28-0.38-0.53-0.79-0.78-1.19c-1.06-1.6-2.01-3.28-2.9-4.99c-1.87-3.62-3.58-7.32-5.57-10.87c-1.15-2.42-2.14-4.93-3.59-7.2
				c-4.15-6.33-8.18-11.3-14.39-16.84c-3.91-3.97-8.43-7.37-13.27-10.12c-3.28-1.82-6.72-3.61-10.53-3.89
				c-2.67-0.61-3.31,3.34-0.56,3.53c2.5,0.13,5.17,1.26,8.04,2.92c-0.27,0.65-0.21,1.43,0.44,2.11c2.65,2.31,5.72,4.08,8.48,6.25
				c-0.13-0.09,1.41,1.21,1.72,1.54c0.32,0.31,0.64,0.63,0.94,0.96c-0.25,0.24-0.41,0.56-0.4,0.94c0.18,1.15,1.47,2.5,2.05,3.57
				c3.04,4.63,6.62,8.94,9.2,13.85c3.42,6.73,5.9,13.45,7.04,22.48c0.59,2.84,0.92,8.02,0,9.5c-0.08,0.09-0.16,0.18-0.25,0.26
				c-0.07,0.04-0.13,0.08-0.18,0.11c-0.12,0.04-0.24,0.08-0.35,0.13c-0.06,0.02-0.12,0.04-0.18,0.05c-0.02,0-0.03,0.01-0.05,0.01
				c-0.25,0.01-0.54,0-0.73-0.02c-0.09-0.02-0.19-0.03-0.28-0.05c-1.03-0.26-0.47-0.03-2.02-0.87c-2.39-1.35-4.44,2.18-2.11,3.61
				c5.89,4.24,10.02,2.73,11.18-3.01c0.59-3.46,0.19-7.01-0.42-10.46c0.17,0.52,0.35,1.04,0.52,1.56c0.34,2.05,0.62,3.98,0.9,5.71
				c-0.04,0.05-0.09,0.09-0.13,0.15c-0.67,1.06-0.18,2.37,0.76,2.99c0.42,0.67,1.31,0.98,2.08,0.77c0.67-0.2,1.03-0.61,1.21-1.11
				c6.43-2.53,12.82-5.25,18.74-8.85c1.4-0.86,1.4-0.95,2.55-1.43c0.6-0.25,1.32-0.6,1.68-1.14c0.29-0.2,0.55-0.44,0.77-0.76
				C367.95,263.43,365.24,262.28,363.45,263.25z"/>
		</g>
		<g class="st5">
			<path class="st1" d="M404.61,256.6c-0.34,0-0.66,0.09-0.97,0.22c-1.49,0.44-2.84,1.4-4.31,1.94c-2.61,1.26-3.62,1.5-7.11,3.17
				c-6.01,3.2-15.99,6.33-21.36,8.58c-3.53,1.07-2.1,6.29,1.49,5.41c5.63-1.82,10.94-4.45,16.38-6.77
				c2.86-1.32,8.31-3.28,12.83-5.51c2.11-1.11,4.74-2.41,5-3.06C407.87,259.08,406.58,256.55,404.61,256.6z"/>
		</g>
		<g>
			<g class="st5">
				<polygon class="st1" points="189.8,252.42 189.8,252.42 189.8,252.42 				"/>
			</g>
			<g class="st5">
				<path class="st1" d="M205.53,198.7c-2.28,8.26-6.31,14.36-9.27,23.46c-1.79,5.31-3.15,10.74-4.18,16.24
					c-0.65,2.44-1.14,4.9-1.65,7.37c-0.38,2.18-1.02,4.42-0.62,6.64c0.56,2.16,2.95,3.2,4.89,2.5c1.23,1.29,2.53,2.51,3.84,3.73
					c0-0.06,0-0.11,0-0.17c-0.09-2.43-0.07-4.87,0.08-7.3c-0.51-1.71-0.7-2.83-0.81-4.22c0.5-2.69,1.14-5.35,1.46-8.07
					c1.29-8.76,3.77-17.28,6.61-25.65c0.86-2.5,1.51-5.07,2.61-7.48c0.77-2.17,2.04-4.39,2.04-6.72
					C210.27,196.33,206.19,196.06,205.53,198.7z"/>
			</g>
			<g class="st5">
				<path class="st1" d="M208.11,265.67c-0.14,0.53-0.65,0.94-1.21,0.91c0.44,0.24,0.92,0.35,1.44,0.2c0.8-0.2,1.33-1.01,1.29-1.82
					C209.13,265.21,208.62,265.44,208.11,265.67z"/>
			</g>
			<g class="st5">
				<path class="st1" d="M189.8,252.42c-0.04-0.33-0.09-0.66-0.13-0.98C189.67,251.78,189.72,252.11,189.8,252.42z"/>
			</g>
		</g>
		<g class="st5">
			<path class="st1" d="M223.24,272.38c-0.97,0.65-2.27,0.45-4.8,0.41c-1.66-0.16-3.81-0.03-5.68-0.63
				c-1.23-0.28-2.38-1.23-3.66-1.07c-2.4,0.21-2.63,3.83-0.3,4.41c1.69,0.66,3.39,1.23,5.17,1.62c1.49,0.35,3.03,0.69,4.55,0.32
				c1.88-0.39,3.68-1.19,5.36-2.11c0.68-0.44,1.61-0.8,1.87-1.63C226.12,272.18,224.33,271.41,223.24,272.38z"/>
		</g>
		<g class="st5">
			<path class="st1" d="M248.76,275.65c-0.84,0.28-1.01,0.73-2.32,1.43c-2.62,1.42-3.75,1.7-7.25,2.37
				c-3.33,0.86-3.04,0.67-6.72,0.92c-1.15,0.04-2.3-0.01-3.45-0.15c-0.75-0.13-1.5-0.42-2.25-0.27c-3.02,0.3-3.3,4.76-0.38,5.53
				c7.44,2.16,13.56,0,18.84-3.2c1.59-0.95,3.18-1.95,4.53-3.23c0.74-0.83,0.93-0.68,1.09-1.82
				C250.87,276.18,249.77,275.36,248.76,275.65z"/>
		</g>
		<g class="st5">
			<path class="st1" d="M280,290.97c-1.56,0.22-1.17,0.41-2,0.67c-0.65,0.17-0.74,0.48-3.09,1.04c-1.6,0.28-1.55,0.27-1.97,0.31
				c0.31-0.4,0.44-0.94,0.34-1.43c-0.07-1.02-1.04-1.79-2.03-1.8c-1.22,0.07-2.15,1.08-3.26,1.52c-2.33,1.03-1.77,0.86-4.99,1.95
				c-2.92,0.83-4.44,0.74-5.55,0.81c-1.07-0.03-2.11-0.72-3.08-0.84c1.96-0.76,3.82-1.8,5.6-2.9c2.04-1.24,3.84-2.78,5.52-4.47
				c0.37-0.32,0.6-0.8,0.6-1.29c0.01-0.61-0.34-1.15-0.84-1.46c-0.64-0.38-1.53-0.27-2.05,0.27c0.11-0.09,0.4-0.3,0.23-0.19
				c-0.83,0.52-1.67,1.03-2.51,1.53c-4.86,3.13-11.27,4.95-15.44,5.6c-0.99,0.11-1.98,0.23-2.97,0.13
				c-0.08-0.01-0.13-0.01-0.16-0.01c-0.04-0.01-0.07-0.01-0.11-0.02c-0.75-0.07-1.49-0.44-2.24-0.35c-1.79,0.16-1.97,2.86-0.23,3.3
				c1.57,0.55,3.16,1.08,4.83,1.24c1.76,0.19,3.52-0.06,5.27-0.26c0.95-0.08,1.87-0.25,2.77-0.5c-0.84,0.92-0.81,2.64,0.44,3.31
				c4.53,2.29,9.41,1.81,13.92-0.23c0.83-0.32,1.62-0.72,2.38-1.17c0.03,1.37,1.09,2.73,2.63,2.68c2.82-0.36,5.86-0.52,8.25-2.23
				c0.71-0.54,1.64-1.01,1.95-1.89C282.9,292.79,281.63,290.94,280,290.97z"/>
		</g>
		<g class="st5">
			<path class="st1" d="M302.83,280.46c-1.74,0.88-1.32,1.05-2.44,1.75c-1.67,1.16-1.45,1.03-3.87,1.65
				c-1.98,0.34-0.79,0.27-2.5,0.3c-0.2-0.01-0.4-0.02-0.6-0.04c-0.21-0.04-0.49-0.09-0.7-0.15c-1.44-0.23-2.97-1.3-4.38-0.45
				c-1.86,1.01-1.47,4.03,0.59,4.53c1.89,0.56,3.85,1.11,5.84,0.98c2.38-0.16,4.7-1.04,6.69-2.35c0.96-0.68,1.86-1.42,2.74-2.2
				c0.63-0.52,1.27-1.16,1.23-2.03C305.48,281.12,304.1,280.09,302.83,280.46z"/>
		</g>
		<g class="st5">
			<path class="st1" d="M322.45,273.59c0.01-1.04-0.69-2.06-1.73-2.33c-0.06-0.01-0.11-0.02-0.16-0.02
				c-0.01-1.96,0.04-3.94-0.45-5.84c-0.72-2.98-2.35-5.6-3.69-8.32c-1.24-2.88-2.84-5.64-4.91-7.99c-0.88-0.77-2.36-0.02-2.33,1.14
				c0.08,0.99,0.98,1.69,1.44,2.53c2.54,3.71,3.4,6.49,4.62,10.93c1.48,4.67,1.75,6.93,1.31,11.75c-0.01,0.05-0.01,0.1-0.02,0.15
				c-0.04,0.22-0.08,0.44-0.13,0.66c-0.02,0.11-0.06,0.28-0.13,0.47c-0.24,0.4-0.51,0.79-0.77,1.17c-0.34,0.41-1.03,1.22-1.42,1.58
				c-0.09,0.05-0.17,0.1-0.26,0.15c-0.77,0.07-1.34,0.04-3.39-0.62c-0.58-0.22-0.7-0.28-0.05-0.01c-1.03-0.36-1.97-1.08-3.04-1.26
				c-2.42-0.44-3.6,3.06-1.47,4.25c0.75,0.38,1.58,0.76,2.31,1.08c0.15,0.79,0.59,1.53,1.36,1.95c0.18,0.1,0.37,0.17,0.55,0.26
				c0.06,0.97,0.64,1.89,1.88,2.26c1.03,0.29,2.11,0.56,3.18,0.33c0.37-0.06,1.1-0.38,1.21-0.44c1.07-0.46,2.19-1.1,2.65-2.19
				c0.26-0.55,0.27-1.11,0.12-1.61c0.41-0.42,0.64-0.96,0.69-1.54c1.06-1.4,1.83-3.04,2.22-4.72c0.23-1.18,0.37-2.38,0.4-3.58
				c0-0.04,0-0.08,0-0.13c0-0.03,0-0.05,0-0.08L322.45,273.59z"/>
		</g>
		<g>
			<path class="st1" d="M182.08,274.76c-0.07,0-0.15-0.01-0.22-0.02c-7.68-1.4-15.62-2.84-23.46-4.98
				c-3.03-1.01-5.96-1.68-9.06-2.38c-3.37-0.77-6.86-1.56-10.42-2.81c-0.65-0.23-0.99-0.94-0.76-1.59c0.23-0.65,0.94-0.99,1.59-0.76
				c3.43,1.2,6.84,1.98,10.15,2.73c3.02,0.69,6.14,1.4,9.23,2.43c7.28,1.98,14.76,3.38,22.03,4.7c3.14-12.7,7.41-25.1,11.54-37.11
				c2.46-7.14,4.99-14.52,7.31-21.98c0.01-0.03,0.02-0.06,0.03-0.09c0.77-1.93,1.61-3.83,2.41-5.67c2.18-4.97,4.25-9.67,5.27-15.13
				c-0.04-0.05-0.12-0.13-0.18-0.15c-0.15,0-0.28-0.03-0.42-0.08c-6.8-2.59-13.91-4.48-20.79-6.3c-8.13-2.16-16.54-4.39-24.7-7.82
				c-0.63-0.27-0.93-1-0.66-1.63c0.27-0.63,1-0.93,1.63-0.66c8.01,3.37,16.33,5.58,24.38,7.71c6.88,1.83,13.99,3.71,20.86,6.31
				c1.28,0.15,2.39,1.34,2.39,2.64c0,0.07-0.01,0.15-0.02,0.22c-1.06,5.82-3.3,10.93-5.47,15.88c-0.79,1.8-1.61,3.67-2.36,5.55
				c-2.32,7.48-4.86,14.86-7.32,22c-4.43,12.88-8.62,25.04-11.75,38.02C183.16,274.38,182.65,274.76,182.08,274.76z M208.97,192.14
				L208.97,192.14L208.97,192.14z"/>
		</g>
		<g>
			<path class="st1" d="M166.33,270.79c-0.1,0-0.2-0.01-0.3-0.04c-0.67-0.17-1.07-0.84-0.9-1.51c7.15-28.53,17.22-58.86,27.63-83.2
				c0.27-0.63,1-0.93,1.63-0.65c0.63,0.27,0.93,1,0.66,1.63c-10.36,24.23-20.38,54.42-27.51,82.83
				C167.39,270.42,166.88,270.79,166.33,270.79z"/>
		</g>
		<g>
			<path class="st1" d="M370.41,278.39c-0.2,0-0.39-0.05-0.57-0.14c-0.3-0.16-0.53-0.43-0.63-0.76c-4.94-17.01-10.17-34.01-15.71-52
				c-2.87-9.33-5.84-18.97-8.8-28.73c-0.17-0.57,0.08-1.17,0.6-1.46c12.61-6.83,25.87-12.67,39.42-17.36
				c0.65-0.22,1.36,0.12,1.58,0.77c0.22,0.65-0.12,1.36-0.77,1.58c-13.1,4.53-25.93,10.15-38.16,16.71
				c2.86,9.42,5.72,18.73,8.5,27.75c5.4,17.56,10.51,34.17,15.35,50.77c11.58-4.14,23.08-8.87,34.21-14.06
				c0.62-0.29,1.36-0.02,1.65,0.6c0.29,0.62,0.02,1.36-0.6,1.65c-11.6,5.41-23.6,10.32-35.67,14.59
				C370.69,278.37,370.55,278.39,370.41,278.39z"/>
		</g>
		<g>
			<path class="st1" d="M385.39,271.88c-0.55,0-1.05-0.37-1.2-0.92c-7.27-27.33-15.55-54.77-24.62-81.57
				c-0.22-0.65,0.13-1.36,0.78-1.58c0.66-0.22,1.36,0.13,1.58,0.78c9.09,26.85,17.39,54.35,24.67,81.73
				c0.18,0.66-0.22,1.35-0.88,1.52C385.6,271.87,385.5,271.88,385.39,271.88z"/>
		</g>
		<g>
			<path class="st1" d="M247.6,234.82c-2.86,0-6.22-1.25-7.71-4.15c-2.68-5.2,2.36-11.04,4.01-12.95
				c6.83-7.92,13.89-16.11,22.69-22.29c9.91-6.97,20.74-10.12,30.49-8.88c4.99,0.63,9.73,2.39,14.32,4.09
				c1.48,0.55,3.01,1.12,4.52,1.63c9.57,3.28,19.56,5.02,29.68,5.16c0.69,0.01,1.24,0.58,1.23,1.26c-0.01,0.68-0.57,1.23-1.24,1.23
				c-0.01,0-0.01,0-0.02,0c-10.38-0.15-20.63-1.93-30.45-5.3c-1.54-0.53-3.08-1.1-4.58-1.65c-4.46-1.65-9.07-3.35-13.77-3.95
				c-9.14-1.16-19.35,1.84-28.75,8.45c-8.54,6-15.5,14.07-22.23,21.88c-3.76,4.36-4.97,7.69-3.68,10.19
				c1.09,2.11,3.77,2.93,5.93,2.79c2.48-0.15,4.81-1.23,7.39-2.53c1.72-0.86,3.43-1.71,5.14-2.56
				c10.47-5.21,20.36-10.13,29.75-16.75c0.56-0.4,1.34-0.26,1.73,0.3c0.4,0.56,0.26,1.34-0.3,1.74
				c-9.54,6.72-19.51,11.69-30.07,16.94c-1.71,0.85-3.42,1.7-5.13,2.56c-2.72,1.37-5.41,2.61-8.36,2.79
				C247.99,234.81,247.79,234.82,247.6,234.82z"/>
		</g>
		<g>
			<path class="st1" d="M339.66,280.18c-0.49,0-0.95-0.29-1.15-0.77c-0.26-0.64,0.04-1.36,0.68-1.62
				c8.95-3.69,17.99-7.53,26.86-11.4c0.63-0.27,1.36,0.01,1.64,0.64c0.27,0.63-0.01,1.36-0.64,1.64
				c-8.89,3.88-17.94,7.73-26.91,11.42C339.98,280.15,339.82,280.18,339.66,280.18z"/>
		</g>
		<g>
			<path class="st1" d="M336.19,285.18c-0.26,0-0.51-0.02-0.72-0.04c-4.13-0.44-8.2-3.18-11.16-7.52c-1.89-2.78-3.21-5.88-4.47-8.88
				c-0.4-0.95-0.8-1.89-1.22-2.83c-3.38-7.56-7.95-14.48-13.58-20.55c-0.47-0.5-0.44-1.29,0.07-1.76c0.5-0.47,1.29-0.44,1.76,0.07
				c5.82,6.28,10.53,13.42,14.02,21.23c0.43,0.95,0.83,1.91,1.24,2.87c1.28,3.02,2.48,5.87,4.24,8.44c2.54,3.74,5.96,6.09,9.36,6.45
				c0.2,0.02,0.79,0.09,1.06-0.09c0.31-0.2,0.46-0.85,0.42-1.94c-0.45-14.43-5.2-28.94-13.37-40.84
				c-8.17-11.9-20.01-21.54-33.31-27.15c-0.63-0.27-0.93-1-0.66-1.63c0.27-0.63,1-0.93,1.63-0.66c13.74,5.79,25.96,15.74,34.4,28.03
				c8.44,12.29,13.34,27.27,13.81,42.17c0.03,0.84,0.1,3.07-1.58,4.13C337.49,285.08,336.79,285.18,336.19,285.18z"/>
		</g>
		<g>
			<path class="st1" d="M274.02,298.82c-1.72,0-3.97-0.28-6.39-2.06c-0.55-0.41-0.67-1.19-0.27-1.74c0.41-0.56,1.19-0.67,1.74-0.27
				c2.32,1.7,4.27,1.62,5.99,1.55l0.18-0.01c2.58-0.1,5.36-1.42,6.92-3.28c0.67-0.8,1.43-2.08,1.22-3.63
				c-0.01-0.06-0.01-0.11-0.01-0.17c0.01-2.66-0.36-5.36-0.69-7.41c-0.09-0.54,0.2-1.08,0.69-1.32c0.5-0.24,1.09-0.12,1.46,0.29
				c1.89,2.08,3.83,4.24,6.22,5.66c2.48,1.48,5.23,1.9,7.36,1.12c2.93-1.07,5.94-6.17,5.27-8.94c-0.16-0.67,0.25-1.34,0.92-1.5
				c0.67-0.15,1.34,0.25,1.5,0.92c1.04,4.35-3.03,10.46-6.84,11.86c-2.87,1.05-6.33,0.57-9.49-1.32c-1.54-0.92-2.88-2.06-4.12-3.29
				c0.12,1.24,0.21,2.55,0.21,3.86c0.23,1.91-0.39,3.8-1.8,5.48c-2.01,2.4-5.43,4.03-8.72,4.16l-0.18,0.01
				C274.83,298.81,274.44,298.82,274.02,298.82z"/>
		</g>
		<g>
			<path class="st1" d="M314.97,288.63c-1.03,0-2.02-0.28-2.95-0.64c-4.7-1.82-7.2-6.95-9.62-11.91c-1.67-3.44-3.4-6.99-5.77-9.09
				c-0.51-0.46-0.56-1.24-0.1-1.76c0.46-0.51,1.24-0.56,1.76-0.1c2.73,2.43,4.57,6.21,6.35,9.86c2.31,4.74,4.49,9.21,8.28,10.68
				c1.63,0.63,3.66,1.42,6.36-3.14c0.74-1.24,0.93-2.81,1.04-4.33c0.27-3.88-0.77-7.89-1.78-11.76c-0.15-0.59-0.31-1.18-0.46-1.77
				c-0.17-0.67,0.24-1.34,0.9-1.51c0.67-0.17,1.34,0.24,1.51,0.9c0.15,0.58,0.3,1.17,0.45,1.75c1.06,4.06,2.15,8.27,1.85,12.56
				c-0.13,1.82-0.38,3.74-1.38,5.42C319.21,287.53,317.01,288.63,314.97,288.63z"/>
		</g>
		<g>
			<path class="st1" d="M234.04,287.88c-0.11,0-0.22,0-0.33,0c-4.66-0.11-8.7-2.89-9.82-6.75c-0.42-1.46-0.42-2.94-0.22-4.36
				c-2.54,1.57-5.7,2.23-8.72,1.69c-4.62-0.83-8.51-4.63-9.24-9.03c-0.3-1.82,0.27-2.83,0.8-3.35c0.49-0.48,1.28-0.48,1.76,0.01
				c0.48,0.49,0.48,1.28-0.01,1.76c-0.12,0.12-0.21,0.49-0.1,1.18c0.56,3.4,3.6,6.33,7.22,6.98c3.54,0.64,7.31-0.78,9.39-3.53
				c0.34-0.45,0.94-0.61,1.45-0.41c0.45-0.24,0.86-0.4,1.13-0.51c4.98-1.95,10.2-3.14,15.53-3.55c4.28-0.34,7.14,0.7,8.47,3.07
				c0.64,1.14,0.86,2.53,0.66,4.14c-0.26,2.06-1.15,4.06-2.51,5.62c-1.32,1.51-3.01,2.58-4.64,3.52
				C242,286.02,238.19,287.88,234.04,287.88z M226.63,274.82c-0.55,2.1-0.84,3.92-0.34,5.62c0.92,3.15,4.46,4.88,7.49,4.95
				c3.66,0.09,7.2-1.65,9.87-3.18c1.44-0.82,2.92-1.75,3.99-2.99c1.04-1.2,1.72-2.72,1.92-4.3c0.09-0.74,0.1-1.79-0.36-2.61
				c-1.02-1.81-3.89-1.98-6.11-1.81c-5.08,0.39-10.07,1.53-14.82,3.39C227.48,274.2,226.93,274.51,226.63,274.82z"/>
		</g>
		<g>
			<path class="st1" d="M246.25,296.3c-1.94,0-3.77-0.46-5.31-1.37c-3.02-1.78-4.84-5.32-4.53-8.82c0.06-0.68,0.67-1.18,1.35-1.13
				c0.68,0.06,1.19,0.67,1.13,1.35c-0.23,2.52,1.13,5.17,3.31,6.45c2.11,1.24,4.98,1.36,7.87,0.33c2.72-0.97,5.09-2.73,7.48-4.6
				c3.41-2.66,6.6-5.65,6.89-9.41c0.02-0.23,0.03-0.55-0.05-0.74c-0.08-0.18-0.31-0.38-0.69-0.61c-1.8-1.08-4.23-1.35-6.85-0.76
				c-2.31,0.52-4.2,1.5-6.38,2.63l-0.37,0.19c-0.61,0.31-1.36,0.08-1.68-0.54c-0.32-0.61-0.08-1.36,0.54-1.68l0.37-0.19
				c2.24-1.16,4.36-2.25,6.98-2.84c3.24-0.73,6.32-0.36,8.67,1.05c0.54,0.32,1.31,0.86,1.7,1.76c0.3,0.69,0.29,1.39,0.25,1.92
				c-0.37,4.72-3.98,8.16-7.84,11.18c-2.46,1.92-5.11,3.89-8.18,4.98C249.33,296.02,247.75,296.3,246.25,296.3z"/>
		</g>
		<g>
			<path class="st1" d="M260.77,299.84c-1.78,0-3.55-0.41-5.15-1.2c-1.85-0.92-3.77-2.76-3.62-5.16c0.04-0.69,0.64-1.2,1.32-1.16
				c0.69,0.04,1.21,0.63,1.16,1.32c-0.08,1.19,1.16,2.24,2.25,2.77c1.7,0.84,3.66,1.13,5.53,0.82c2.97-0.5,5.53-2.44,7.65-4.28
				c2.39-2.07,3.41-3.78,3.22-5.39c-0.23-1.88-2.27-3.14-4.04-3.24c-1.77-0.1-3.59,0.63-5.72,2.3c-0.54,0.42-1.32,0.33-1.75-0.21
				c-0.42-0.54-0.33-1.32,0.21-1.75c1.66-1.3,4.23-3,7.39-2.82c2.83,0.16,5.98,2.23,6.37,5.43c0.4,3.29-2.12,5.9-4.06,7.57
				c-2.24,1.94-5.27,4.24-8.86,4.85C262.04,299.79,261.41,299.84,260.77,299.84z"/>
		</g>
		<g>
			<path class="st1" d="M225.91,273.67c-0.59,0-1.12-0.43-1.22-1.03c-0.44-2.55-3.24-4.08-4.87-4.76c-4.76-2-8.89-1.94-12.29,0.2
				c-0.56,0.35-1.29,0.21-1.67-0.33c-4.76-6.6-10.69-11.48-17.64-14.51c-0.63-0.27-0.92-1.01-0.64-1.64
				c0.27-0.63,1.01-0.92,1.64-0.64c7.04,3.07,13.1,7.92,18,14.44c3.91-2.02,8.47-1.96,13.57,0.19c3.62,1.53,5.88,3.88,6.35,6.63
				c0.12,0.68-0.34,1.32-1.01,1.44C226.05,273.67,225.98,273.67,225.91,273.67z"/>
		</g>
		<g>
			<path class="st1" d="M207.92,197.86c-0.57,0-1.08-0.39-1.21-0.96c-0.15-0.67,0.26-1.34,0.93-1.49c13.77-3.18,26.43-7.56,37-11.41
				l0.95-0.35c4.02-1.47,8.17-3,12.55-3.48c10.09-1.11,19.39,3.22,27.6,7.05c0.62,0.29,0.89,1.03,0.6,1.65
				c-0.29,0.62-1.03,0.89-1.65,0.6c-7.91-3.69-16.88-7.87-26.27-6.83c-4.08,0.45-8.09,1.92-11.96,3.34l-0.95,0.35
				c-10.64,3.89-23.39,8.29-37.29,11.5C208.11,197.85,208.01,197.86,207.92,197.86z"/>
		</g>
		<g>
			<path class="st1" d="M232.59,176.28c-0.41,0-0.82-0.2-1.05-0.58c-0.37-0.58-0.19-1.35,0.39-1.72
				c11.31-7.15,24.89-10.68,38.25-9.93c0.69,0.04,1.21,0.63,1.17,1.31c-0.04,0.69-0.62,1.21-1.31,1.17
				c-12.85-0.73-25.91,2.67-36.78,9.55C233.05,176.22,232.82,176.28,232.59,176.28z"/>
		</g>
		<g>
			<path class="st1" d="M224.79,164.12c-0.41,0-0.81-0.2-1.04-0.57c-0.37-0.58-0.21-1.35,0.37-1.72c6.68-4.34,14.37-7.37,22.21-8.75
				c0.68-0.12,1.32,0.33,1.44,1.01c0.12,0.68-0.33,1.32-1.01,1.44c-7.52,1.32-14.88,4.22-21.29,8.39
				C225.26,164.05,225.03,164.12,224.79,164.12z"/>
		</g>
		<g>
			<path class="st1" d="M304.42,300.72c-0.67,0-1.22-0.53-1.24-1.21c-0.02-0.69,0.52-1.26,1.21-1.28
				c7.25-0.22,14.32-2.88,19.93-7.49c0.53-0.44,1.32-0.36,1.75,0.17c0.44,0.53,0.36,1.32-0.17,1.75
				c-6.02,4.95-13.63,7.81-21.43,8.05C304.45,300.72,304.44,300.72,304.42,300.72z"/>
		</g>
		<g>
			<path class="st1" d="M398.66,261.53c-0.05,0-0.1-0.01-0.15-0.03l-13.5-5.08c-0.21-0.08-0.32-0.32-0.24-0.53
				c0.08-0.22,0.32-0.32,0.53-0.24l13.5,5.08c0.21,0.08,0.32,0.32,0.24,0.53C398.98,261.43,398.83,261.53,398.66,261.53z"/>
		</g>
		<g>
			<path class="st1" d="M403.22,256.47c-0.04,0-0.09-0.01-0.13-0.02c-7.43-2.53-14.79-5.52-21.88-8.88c-0.21-0.1-0.29-0.35-0.2-0.55
				c0.1-0.21,0.35-0.29,0.55-0.2c7.06,3.35,14.4,6.33,21.79,8.85c0.22,0.07,0.33,0.31,0.26,0.53
				C403.56,256.36,403.39,256.47,403.22,256.47z"/>
		</g>
		<g>
			<path class="st1" d="M404.37,248.5c-0.04,0-0.09-0.01-0.13-0.02c-8.26-2.7-16.51-5.78-24.51-9.16c-0.21-0.09-0.31-0.33-0.22-0.54
				c0.09-0.21,0.34-0.31,0.54-0.22c7.98,3.37,16.21,6.44,24.44,9.14c0.22,0.07,0.34,0.31,0.27,0.52
				C404.71,248.39,404.54,248.5,404.37,248.5z"/>
		</g>
		<g>
			<path class="st1" d="M404.37,240.86c-0.05,0-0.1-0.01-0.15-0.03c-9.63-3.61-17.07-6.72-27.33-11.05
				c-0.21-0.09-0.31-0.33-0.22-0.54c0.09-0.21,0.33-0.31,0.54-0.22c10.25,4.33,17.69,7.43,27.3,11.04c0.21,0.08,0.32,0.32,0.24,0.53
				C404.7,240.76,404.54,240.86,404.37,240.86z"/>
		</g>
		<g>
			<path class="st1" d="M401.98,232.22c-0.05,0-0.11-0.01-0.16-0.03l-27.57-11.25c-0.21-0.09-0.31-0.33-0.23-0.54
				c0.09-0.21,0.33-0.32,0.54-0.23l27.57,11.25c0.21,0.09,0.31,0.33,0.23,0.54C402.3,232.13,402.14,232.22,401.98,232.22z"/>
		</g>
		<g>
			<path class="st1" d="M401.09,223.97c-0.06,0-0.11-0.01-0.17-0.04l-29.94-13.26c-0.21-0.09-0.3-0.34-0.21-0.55
				c0.09-0.21,0.34-0.3,0.55-0.21l29.94,13.26c0.21,0.09,0.3,0.34,0.21,0.55C401.4,223.88,401.25,223.97,401.09,223.97z"/>
		</g>
		<g>
			<path class="st1" d="M398.17,213.59c-0.06,0-0.12-0.01-0.17-0.04l-30.21-13.58c-0.21-0.09-0.3-0.34-0.21-0.55
				c0.09-0.21,0.34-0.3,0.55-0.21l30.21,13.58c0.21,0.09,0.3,0.34,0.21,0.55C398.48,213.5,398.33,213.59,398.17,213.59z"/>
		</g>
		<g>
			<path class="st1" d="M391.38,200.01c-0.05,0-0.1-0.01-0.15-0.03c-7.5-2.89-15.16-5.67-22.75-8.27c-0.22-0.07-0.33-0.31-0.26-0.53
				c0.07-0.22,0.31-0.33,0.53-0.26c7.6,2.6,15.27,5.38,22.78,8.27c0.21,0.08,0.32,0.32,0.24,0.54
				C391.7,199.91,391.55,200.01,391.38,200.01z"/>
		</g>
		<g>
			<path class="st1" d="M390.78,190.46c-0.05,0-0.11-0.01-0.16-0.03l-10.78-4.5c-0.21-0.09-0.31-0.33-0.22-0.54
				c0.09-0.21,0.33-0.31,0.54-0.22l10.78,4.5c0.21,0.09,0.31,0.33,0.22,0.54C391.09,190.37,390.94,190.46,390.78,190.46z"/>
		</g>
		<g>
			<g>
				<path class="st2" d="M162.16,176.89c10.66,3.58,21.43,6.83,31.71,9.9c-1.68,7.11-6.01,13.26-8.92,19.96
					c-1.54,3.55-2.68,7.27-3.81,10.97c-5.29,17.37-10.36,34.82-15.21,52.29c-9.5-3.26-16.88-4.93-27.07-6.73
					C148.25,234.09,156.71,206.06,162.16,176.89z"/>
			</g>
		</g>
		<g class="st5">
			<path class="st1" d="M363.45,263.25c-1.67,0.49-3.29,1.09-4.88,1.75c-0.36-0.01-0.73,0.02-1.08,0.09
				c-0.81,0.14-1.56,0.47-2.32,0.77c-0.85,0.29-1.64,0.56-2.46,0.91c-0.32,0.12-1.3,0.5-1.68,0.59c-0.12,0.03-0.21,0.07-0.29,0.1
				c-0.24,0.08-0.48,0.16-0.73,0.22c-0.15,0-0.29,0.01-0.44,0c-0.16-0.03-0.32-0.07-0.48-0.12c0,0-0.01,0-0.01,0
				c-0.35-0.32-0.67-0.68-0.97-1.04c-0.4-0.51,0.05,0.07,0.2,0.26c-0.27-0.36-0.55-0.7-0.85-1.03c-0.09-0.11-0.16-0.19-0.22-0.27
				c-0.28-0.38-0.53-0.79-0.78-1.19c-1.06-1.6-2.01-3.28-2.9-4.99c-1.87-3.62-3.58-7.32-5.57-10.87c-1.15-2.42-2.14-4.93-3.59-7.2
				c-4.15-6.33-8.18-11.3-14.39-16.84c-3.91-3.97-8.43-7.37-13.27-10.12c-3.28-1.82-6.72-3.61-10.53-3.89
				c-2.67-0.61-3.31,3.34-0.56,3.53c2.5,0.13,5.17,1.26,8.04,2.92c-0.27,0.65-0.21,1.43,0.44,2.11c2.65,2.31,5.72,4.08,8.48,6.25
				c-0.13-0.09,1.41,1.21,1.72,1.54c0.32,0.31,0.64,0.63,0.94,0.96c-0.25,0.24-0.41,0.56-0.4,0.94c0.18,1.15,1.47,2.5,2.05,3.57
				c3.04,4.63,6.62,8.94,9.2,13.85c3.42,6.73,5.9,13.45,7.04,22.48c0.59,2.84,0.92,8.02,0,9.5c-0.08,0.09-0.16,0.18-0.25,0.26
				c-0.07,0.04-0.13,0.08-0.18,0.11c-0.12,0.04-0.24,0.08-0.35,0.13c-0.06,0.02-0.12,0.04-0.18,0.05c-0.02,0-0.03,0.01-0.05,0.01
				c-0.25,0.01-0.54,0-0.73-0.02c-0.09-0.02-0.19-0.03-0.28-0.05c-1.03-0.26-0.47-0.03-2.02-0.87c-2.39-1.35-4.44,2.18-2.11,3.61
				c5.89,4.24,10.02,2.73,11.18-3.01c0.59-3.46,0.19-7.01-0.42-10.46c0.17,0.52,0.35,1.04,0.52,1.56c0.34,2.05,0.62,3.98,0.9,5.71
				c-0.04,0.05-0.09,0.09-0.13,0.15c-0.67,1.06-0.18,2.37,0.76,2.99c0.42,0.67,1.31,0.98,2.08,0.77c0.67-0.2,1.03-0.61,1.21-1.11
				c6.43-2.53,12.82-5.25,18.74-8.85c1.4-0.86,1.4-0.95,2.55-1.43c0.6-0.25,1.32-0.6,1.68-1.14c0.29-0.2,0.55-0.44,0.77-0.76
				C367.95,263.43,365.24,262.28,363.45,263.25z"/>
		</g>
		<g class="st5">
			<path class="st1" d="M404.61,256.6c-0.34,0-0.66,0.09-0.97,0.22c-1.49,0.44-2.84,1.4-4.31,1.94c-2.61,1.26-3.62,1.5-7.11,3.17
				c-6.01,3.2-15.99,6.33-21.36,8.58c-3.53,1.07-2.1,6.29,1.49,5.41c5.63-1.82,10.94-4.45,16.38-6.77
				c2.86-1.32,8.31-3.28,12.83-5.51c2.11-1.11,4.74-2.41,5-3.06C407.87,259.08,406.58,256.55,404.61,256.6z"/>
		</g>
		<g>
			<g class="st5">
				<polygon class="st1" points="189.8,252.42 189.8,252.42 189.8,252.42 				"/>
			</g>
			<g class="st5">
				<path class="st1" d="M205.53,198.7c-2.28,8.26-6.31,14.36-9.27,23.46c-1.79,5.31-3.15,10.74-4.18,16.24
					c-0.65,2.44-1.14,4.9-1.65,7.37c-0.38,2.18-1.02,4.42-0.62,6.64c0.56,2.16,2.95,3.2,4.89,2.5c1.23,1.29,2.53,2.51,3.84,3.73
					c0-0.06,0-0.11,0-0.17c-0.09-2.43-0.07-4.87,0.08-7.3c-0.51-1.71-0.7-2.83-0.81-4.22c0.5-2.69,1.14-5.35,1.46-8.07
					c1.29-8.76,3.77-17.28,6.61-25.65c0.86-2.5,1.51-5.07,2.61-7.48c0.77-2.17,2.04-4.39,2.04-6.72
					C210.27,196.33,206.19,196.06,205.53,198.7z"/>
			</g>
			<g class="st5">
				<path class="st1" d="M208.11,265.67c-0.14,0.53-0.65,0.94-1.21,0.91c0.44,0.24,0.92,0.35,1.44,0.2c0.8-0.2,1.33-1.01,1.29-1.82
					C209.13,265.21,208.62,265.44,208.11,265.67z"/>
			</g>
			<g class="st5">
				<path class="st1" d="M189.8,252.42c-0.04-0.33-0.09-0.66-0.13-0.98C189.67,251.78,189.72,252.11,189.8,252.42z"/>
			</g>
		</g>
		<g class="st5">
			<path class="st1" d="M223.24,272.38c-0.97,0.65-2.27,0.45-4.8,0.41c-1.66-0.16-3.81-0.03-5.68-0.63
				c-1.23-0.28-2.38-1.23-3.66-1.07c-2.4,0.21-2.63,3.83-0.3,4.41c1.69,0.66,3.39,1.23,5.17,1.62c1.49,0.35,3.03,0.69,4.55,0.32
				c1.88-0.39,3.68-1.19,5.36-2.11c0.68-0.44,1.61-0.8,1.87-1.63C226.12,272.18,224.33,271.41,223.24,272.38z"/>
		</g>
		<g class="st5">
			<path class="st1" d="M248.76,275.65c-0.84,0.28-1.01,0.73-2.32,1.43c-2.62,1.42-3.75,1.7-7.25,2.37
				c-3.33,0.86-3.04,0.67-6.72,0.92c-1.15,0.04-2.3-0.01-3.45-0.15c-0.75-0.13-1.5-0.42-2.25-0.27c-3.02,0.3-3.3,4.76-0.38,5.53
				c7.44,2.16,13.56,0,18.84-3.2c1.59-0.95,3.18-1.95,4.53-3.23c0.74-0.83,0.93-0.68,1.09-1.82
				C250.87,276.18,249.77,275.36,248.76,275.65z"/>
		</g>
		<g class="st5">
			<path class="st1" d="M280,290.97c-1.56,0.22-1.17,0.41-2,0.67c-0.65,0.17-0.74,0.48-3.09,1.04c-1.6,0.28-1.55,0.27-1.97,0.31
				c0.31-0.4,0.44-0.94,0.34-1.43c-0.07-1.02-1.04-1.79-2.03-1.8c-1.22,0.07-2.15,1.08-3.26,1.52c-2.33,1.03-1.77,0.86-4.99,1.95
				c-2.92,0.83-4.44,0.74-5.55,0.81c-1.07-0.03-2.11-0.72-3.08-0.84c1.96-0.76,3.82-1.8,5.6-2.9c2.04-1.24,3.84-2.78,5.52-4.47
				c0.37-0.32,0.6-0.8,0.6-1.29c0.01-0.61-0.34-1.15-0.84-1.46c-0.64-0.38-1.53-0.27-2.05,0.27c0.11-0.09,0.4-0.3,0.23-0.19
				c-0.83,0.52-1.67,1.03-2.51,1.53c-4.86,3.13-11.27,4.95-15.44,5.6c-0.99,0.11-1.98,0.23-2.97,0.13
				c-0.08-0.01-0.13-0.01-0.16-0.01c-0.04-0.01-0.07-0.01-0.11-0.02c-0.75-0.07-1.49-0.44-2.24-0.35c-1.79,0.16-1.97,2.86-0.23,3.3
				c1.57,0.55,3.16,1.08,4.83,1.24c1.76,0.19,3.52-0.06,5.27-0.26c0.95-0.08,1.87-0.25,2.77-0.5c-0.84,0.92-0.81,2.64,0.44,3.31
				c4.53,2.29,9.41,1.81,13.92-0.23c0.83-0.32,1.62-0.72,2.38-1.17c0.03,1.37,1.09,2.73,2.63,2.68c2.82-0.36,5.86-0.52,8.25-2.23
				c0.71-0.54,1.64-1.01,1.95-1.89C282.9,292.79,281.63,290.94,280,290.97z"/>
		</g>
		<g class="st5">
			<path class="st1" d="M302.83,280.46c-1.74,0.88-1.32,1.05-2.44,1.75c-1.67,1.16-1.45,1.03-3.87,1.65
				c-1.98,0.34-0.79,0.27-2.5,0.3c-0.2-0.01-0.4-0.02-0.6-0.04c-0.21-0.04-0.49-0.09-0.7-0.15c-1.44-0.23-2.97-1.3-4.38-0.45
				c-1.86,1.01-1.47,4.03,0.59,4.53c1.89,0.56,3.85,1.11,5.84,0.98c2.38-0.16,4.7-1.04,6.69-2.35c0.96-0.68,1.86-1.42,2.74-2.2
				c0.63-0.52,1.27-1.16,1.23-2.03C305.48,281.12,304.1,280.09,302.83,280.46z"/>
		</g>
		<g class="st5">
			<path class="st1" d="M322.45,273.59c0.01-1.04-0.69-2.06-1.73-2.33c-0.06-0.01-0.11-0.02-0.16-0.02
				c-0.01-1.96,0.04-3.94-0.45-5.84c-0.72-2.98-2.35-5.6-3.69-8.32c-1.24-2.88-2.84-5.64-4.91-7.99c-0.88-0.77-2.36-0.02-2.33,1.14
				c0.08,0.99,0.98,1.69,1.44,2.53c2.54,3.71,3.4,6.49,4.62,10.93c1.48,4.67,1.75,6.93,1.31,11.75c-0.01,0.05-0.01,0.1-0.02,0.15
				c-0.04,0.22-0.08,0.44-0.13,0.66c-0.02,0.11-0.06,0.28-0.13,0.47c-0.24,0.4-0.51,0.79-0.77,1.17c-0.34,0.41-1.03,1.22-1.42,1.58
				c-0.09,0.05-0.17,0.1-0.26,0.15c-0.77,0.07-1.34,0.04-3.39-0.62c-0.58-0.22-0.7-0.28-0.05-0.01c-1.03-0.36-1.97-1.08-3.04-1.26
				c-2.42-0.44-3.6,3.06-1.47,4.25c0.75,0.38,1.58,0.76,2.31,1.08c0.15,0.79,0.59,1.53,1.36,1.95c0.18,0.1,0.37,0.17,0.55,0.26
				c0.06,0.97,0.64,1.89,1.88,2.26c1.03,0.29,2.11,0.56,3.18,0.33c0.37-0.06,1.1-0.38,1.21-0.44c1.07-0.46,2.19-1.1,2.65-2.19
				c0.26-0.55,0.27-1.11,0.12-1.61c0.41-0.42,0.64-0.96,0.69-1.54c1.06-1.4,1.83-3.04,2.22-4.72c0.23-1.18,0.37-2.38,0.4-3.58
				c0-0.04,0-0.08,0-0.13c0-0.03,0-0.05,0-0.08L322.45,273.59z"/>
		</g>
		<g>
			<path class="st1" d="M182.08,274.76c-0.07,0-0.15-0.01-0.22-0.02c-7.68-1.4-15.62-2.84-23.46-4.98
				c-3.03-1.01-5.96-1.68-9.06-2.38c-3.37-0.77-6.86-1.56-10.42-2.81c-0.65-0.23-0.99-0.94-0.76-1.59c0.23-0.65,0.94-0.99,1.59-0.76
				c3.43,1.2,6.84,1.98,10.15,2.73c3.02,0.69,6.14,1.4,9.23,2.43c7.28,1.98,14.76,3.38,22.03,4.7c3.14-12.7,7.41-25.1,11.54-37.11
				c2.46-7.14,4.99-14.52,7.31-21.98c0.01-0.03,0.02-0.06,0.03-0.09c0.77-1.93,1.61-3.83,2.41-5.67c2.18-4.97,4.25-9.67,5.27-15.13
				c-0.04-0.05-0.12-0.13-0.18-0.15c-0.15,0-0.28-0.03-0.42-0.08c-6.8-2.59-13.91-4.48-20.79-6.3c-8.13-2.16-16.54-4.39-24.7-7.82
				c-0.63-0.27-0.93-1-0.66-1.63c0.27-0.63,1-0.93,1.63-0.66c8.01,3.37,16.33,5.58,24.38,7.71c6.88,1.83,13.99,3.71,20.86,6.31
				c1.28,0.15,2.39,1.34,2.39,2.64c0,0.07-0.01,0.15-0.02,0.22c-1.06,5.82-3.3,10.93-5.47,15.88c-0.79,1.8-1.61,3.67-2.36,5.55
				c-2.32,7.48-4.86,14.86-7.32,22c-4.43,12.88-8.62,25.04-11.75,38.02C183.16,274.38,182.65,274.76,182.08,274.76z M208.97,192.14
				L208.97,192.14L208.97,192.14z"/>
		</g>
		<g>
			<path class="st1" d="M166.33,270.79c-0.1,0-0.2-0.01-0.3-0.04c-0.67-0.17-1.07-0.84-0.9-1.51c7.15-28.53,17.22-58.86,27.63-83.2
				c0.27-0.63,1-0.93,1.63-0.65c0.63,0.27,0.93,1,0.66,1.63c-10.36,24.23-20.38,54.42-27.51,82.83
				C167.39,270.42,166.88,270.79,166.33,270.79z"/>
		</g>
		<g>
			<path class="st1" d="M370.41,278.39c-0.2,0-0.39-0.05-0.57-0.14c-0.3-0.16-0.53-0.43-0.63-0.76c-4.94-17.01-10.17-34.01-15.71-52
				c-2.87-9.33-5.84-18.97-8.8-28.73c-0.17-0.57,0.08-1.17,0.6-1.46c12.61-6.83,25.87-12.67,39.42-17.36
				c0.65-0.22,1.36,0.12,1.58,0.77c0.22,0.65-0.12,1.36-0.77,1.58c-13.1,4.53-25.93,10.15-38.16,16.71
				c2.86,9.42,5.72,18.73,8.5,27.75c5.4,17.56,10.51,34.17,15.35,50.77c11.58-4.14,23.08-8.87,34.21-14.06
				c0.62-0.29,1.36-0.02,1.65,0.6c0.29,0.62,0.02,1.36-0.6,1.65c-11.6,5.41-23.6,10.32-35.67,14.59
				C370.69,278.37,370.55,278.39,370.41,278.39z"/>
		</g>
		<g>
			<path class="st1" d="M385.39,271.88c-0.55,0-1.05-0.37-1.2-0.92c-7.27-27.33-15.55-54.77-24.62-81.57
				c-0.22-0.65,0.13-1.36,0.78-1.58c0.66-0.22,1.36,0.13,1.58,0.78c9.09,26.85,17.39,54.35,24.67,81.73
				c0.18,0.66-0.22,1.35-0.88,1.52C385.6,271.87,385.5,271.88,385.39,271.88z"/>
		</g>
		<g>
			<path class="st1" d="M247.6,234.82c-2.86,0-6.22-1.25-7.71-4.15c-2.68-5.2,2.36-11.04,4.01-12.95
				c6.83-7.92,13.89-16.11,22.69-22.29c9.91-6.97,20.74-10.12,30.49-8.88c4.99,0.63,9.73,2.39,14.32,4.09
				c1.48,0.55,3.01,1.12,4.52,1.63c9.57,3.28,19.56,5.02,29.68,5.16c0.69,0.01,1.24,0.58,1.23,1.26c-0.01,0.68-0.57,1.23-1.24,1.23
				c-0.01,0-0.01,0-0.02,0c-10.38-0.15-20.63-1.93-30.45-5.3c-1.54-0.53-3.08-1.1-4.58-1.65c-4.46-1.65-9.07-3.35-13.77-3.95
				c-9.14-1.16-19.35,1.84-28.75,8.45c-8.54,6-15.5,14.07-22.23,21.88c-3.76,4.36-4.97,7.69-3.68,10.19
				c1.09,2.11,3.77,2.93,5.93,2.79c2.48-0.15,4.81-1.23,7.39-2.53c1.72-0.86,3.43-1.71,5.14-2.56
				c10.47-5.21,20.36-10.13,29.75-16.75c0.56-0.4,1.34-0.26,1.73,0.3c0.4,0.56,0.26,1.34-0.3,1.74
				c-9.54,6.72-19.51,11.69-30.07,16.94c-1.71,0.85-3.42,1.7-5.13,2.56c-2.72,1.37-5.41,2.61-8.36,2.79
				C247.99,234.81,247.79,234.82,247.6,234.82z"/>
		</g>
		<g>
			<path class="st1" d="M339.66,280.18c-0.49,0-0.95-0.29-1.15-0.77c-0.26-0.64,0.04-1.36,0.68-1.62
				c8.95-3.69,17.99-7.53,26.86-11.4c0.63-0.27,1.36,0.01,1.64,0.64c0.27,0.63-0.01,1.36-0.64,1.64
				c-8.89,3.88-17.94,7.73-26.91,11.42C339.98,280.15,339.82,280.18,339.66,280.18z"/>
		</g>
		<g>
			<path class="st1" d="M336.19,285.18c-0.26,0-0.51-0.02-0.72-0.04c-4.13-0.44-8.2-3.18-11.16-7.52c-1.89-2.78-3.21-5.88-4.47-8.88
				c-0.4-0.95-0.8-1.89-1.22-2.83c-3.38-7.56-7.95-14.48-13.58-20.55c-0.47-0.5-0.44-1.29,0.07-1.76c0.5-0.47,1.29-0.44,1.76,0.07
				c5.82,6.28,10.53,13.42,14.02,21.23c0.43,0.95,0.83,1.91,1.24,2.87c1.28,3.02,2.48,5.87,4.24,8.44c2.54,3.74,5.96,6.09,9.36,6.45
				c0.2,0.02,0.79,0.09,1.06-0.09c0.31-0.2,0.46-0.85,0.42-1.94c-0.45-14.43-5.2-28.94-13.37-40.84
				c-8.17-11.9-20.01-21.54-33.31-27.15c-0.63-0.27-0.93-1-0.66-1.63c0.27-0.63,1-0.93,1.63-0.66c13.74,5.79,25.96,15.74,34.4,28.03
				c8.44,12.29,13.34,27.27,13.81,42.17c0.03,0.84,0.1,3.07-1.58,4.13C337.49,285.08,336.79,285.18,336.19,285.18z"/>
		</g>
		<g>
			<path class="st1" d="M274.02,298.82c-1.72,0-3.97-0.28-6.39-2.06c-0.55-0.41-0.67-1.19-0.27-1.74c0.41-0.56,1.19-0.67,1.74-0.27
				c2.32,1.7,4.27,1.62,5.99,1.55l0.18-0.01c2.58-0.1,5.36-1.42,6.92-3.28c0.67-0.8,1.43-2.08,1.22-3.63
				c-0.01-0.06-0.01-0.11-0.01-0.17c0.01-2.66-0.36-5.36-0.69-7.41c-0.09-0.54,0.2-1.08,0.69-1.32c0.5-0.24,1.09-0.12,1.46,0.29
				c1.89,2.08,3.83,4.24,6.22,5.66c2.48,1.48,5.23,1.9,7.36,1.12c2.93-1.07,5.94-6.17,5.27-8.94c-0.16-0.67,0.25-1.34,0.92-1.5
				c0.67-0.15,1.34,0.25,1.5,0.92c1.04,4.35-3.03,10.46-6.84,11.86c-2.87,1.05-6.33,0.57-9.49-1.32c-1.54-0.92-2.88-2.06-4.12-3.29
				c0.12,1.24,0.21,2.55,0.21,3.86c0.23,1.91-0.39,3.8-1.8,5.48c-2.01,2.4-5.43,4.03-8.72,4.16l-0.18,0.01
				C274.83,298.81,274.44,298.82,274.02,298.82z"/>
		</g>
		<g>
			<path class="st1" d="M314.97,288.63c-1.03,0-2.02-0.28-2.95-0.64c-4.7-1.82-7.2-6.95-9.62-11.91c-1.67-3.44-3.4-6.99-5.77-9.09
				c-0.51-0.46-0.56-1.24-0.1-1.76c0.46-0.51,1.24-0.56,1.76-0.1c2.73,2.43,4.57,6.21,6.35,9.86c2.31,4.74,4.49,9.21,8.28,10.68
				c1.63,0.63,3.66,1.42,6.36-3.14c0.74-1.24,0.93-2.81,1.04-4.33c0.27-3.88-0.77-7.89-1.78-11.76c-0.15-0.59-0.31-1.18-0.46-1.77
				c-0.17-0.67,0.24-1.34,0.9-1.51c0.67-0.17,1.34,0.24,1.51,0.9c0.15,0.58,0.3,1.17,0.45,1.75c1.06,4.06,2.15,8.27,1.85,12.56
				c-0.13,1.82-0.38,3.74-1.38,5.42C319.21,287.53,317.01,288.63,314.97,288.63z"/>
		</g>
		<g>
			<path class="st1" d="M234.04,287.88c-0.11,0-0.22,0-0.33,0c-4.66-0.11-8.7-2.89-9.82-6.75c-0.42-1.46-0.42-2.94-0.22-4.36
				c-2.54,1.57-5.7,2.23-8.72,1.69c-4.62-0.83-8.51-4.63-9.24-9.03c-0.3-1.82,0.27-2.83,0.8-3.35c0.49-0.48,1.28-0.48,1.76,0.01
				c0.48,0.49,0.48,1.28-0.01,1.76c-0.12,0.12-0.21,0.49-0.1,1.18c0.56,3.4,3.6,6.33,7.22,6.98c3.54,0.64,7.31-0.78,9.39-3.53
				c0.34-0.45,0.94-0.61,1.45-0.41c0.45-0.24,0.86-0.4,1.13-0.51c4.98-1.95,10.2-3.14,15.53-3.55c4.28-0.34,7.14,0.7,8.47,3.07
				c0.64,1.14,0.86,2.53,0.66,4.14c-0.26,2.06-1.15,4.06-2.51,5.62c-1.32,1.51-3.01,2.58-4.64,3.52
				C242,286.02,238.19,287.88,234.04,287.88z M226.63,274.82c-0.55,2.1-0.84,3.92-0.34,5.62c0.92,3.15,4.46,4.88,7.49,4.95
				c3.66,0.09,7.2-1.65,9.87-3.18c1.44-0.82,2.92-1.75,3.99-2.99c1.04-1.2,1.72-2.72,1.92-4.3c0.09-0.74,0.1-1.79-0.36-2.61
				c-1.02-1.81-3.89-1.98-6.11-1.81c-5.08,0.39-10.07,1.53-14.82,3.39C227.48,274.2,226.93,274.51,226.63,274.82z"/>
		</g>
		<g>
			<path class="st1" d="M246.25,296.3c-1.94,0-3.77-0.46-5.31-1.37c-3.02-1.78-4.84-5.32-4.53-8.82c0.06-0.68,0.67-1.18,1.35-1.13
				c0.68,0.06,1.19,0.67,1.13,1.35c-0.23,2.52,1.13,5.17,3.31,6.45c2.11,1.24,4.98,1.36,7.87,0.33c2.72-0.97,5.09-2.73,7.48-4.6
				c3.41-2.66,6.6-5.65,6.89-9.41c0.02-0.23,0.03-0.55-0.05-0.74c-0.08-0.18-0.31-0.38-0.69-0.61c-1.8-1.08-4.23-1.35-6.85-0.76
				c-2.31,0.52-4.2,1.5-6.38,2.63l-0.37,0.19c-0.61,0.31-1.36,0.08-1.68-0.54c-0.32-0.61-0.08-1.36,0.54-1.68l0.37-0.19
				c2.24-1.16,4.36-2.25,6.98-2.84c3.24-0.73,6.32-0.36,8.67,1.05c0.54,0.32,1.31,0.86,1.7,1.76c0.3,0.69,0.29,1.39,0.25,1.92
				c-0.37,4.72-3.98,8.16-7.84,11.18c-2.46,1.92-5.11,3.89-8.18,4.98C249.33,296.02,247.75,296.3,246.25,296.3z"/>
		</g>
		<g>
			<path class="st1" d="M260.77,299.84c-1.78,0-3.55-0.41-5.15-1.2c-1.85-0.92-3.77-2.76-3.62-5.16c0.04-0.69,0.64-1.2,1.32-1.16
				c0.69,0.04,1.21,0.63,1.16,1.32c-0.08,1.19,1.16,2.24,2.25,2.77c1.7,0.84,3.66,1.13,5.53,0.82c2.97-0.5,5.53-2.44,7.65-4.28
				c2.39-2.07,3.41-3.78,3.22-5.39c-0.23-1.88-2.27-3.14-4.04-3.24c-1.77-0.1-3.59,0.63-5.72,2.3c-0.54,0.42-1.32,0.33-1.75-0.21
				c-0.42-0.54-0.33-1.32,0.21-1.75c1.66-1.3,4.23-3,7.39-2.82c2.83,0.16,5.98,2.23,6.37,5.43c0.4,3.29-2.12,5.9-4.06,7.57
				c-2.24,1.94-5.27,4.24-8.86,4.85C262.04,299.79,261.41,299.84,260.77,299.84z"/>
		</g>
		<g>
			<path class="st1" d="M225.91,273.67c-0.59,0-1.12-0.43-1.22-1.03c-0.44-2.55-3.24-4.08-4.87-4.76c-4.76-2-8.89-1.94-12.29,0.2
				c-0.56,0.35-1.29,0.21-1.67-0.33c-4.76-6.6-10.69-11.48-17.64-14.51c-0.63-0.27-0.92-1.01-0.64-1.64
				c0.27-0.63,1.01-0.92,1.64-0.64c7.04,3.07,13.1,7.92,18,14.44c3.91-2.02,8.47-1.96,13.57,0.19c3.62,1.53,5.88,3.88,6.35,6.63
				c0.12,0.68-0.34,1.32-1.01,1.44C226.05,273.67,225.98,273.67,225.91,273.67z"/>
		</g>
		<g>
			<path class="st1" d="M207.92,197.86c-0.57,0-1.08-0.39-1.21-0.96c-0.15-0.67,0.26-1.34,0.93-1.49c13.77-3.18,26.43-7.56,37-11.41
				l0.95-0.35c4.02-1.47,8.17-3,12.55-3.48c10.09-1.11,19.39,3.22,27.6,7.05c0.62,0.29,0.89,1.03,0.6,1.65
				c-0.29,0.62-1.03,0.89-1.65,0.6c-7.91-3.69-16.88-7.87-26.27-6.83c-4.08,0.45-8.09,1.92-11.96,3.34l-0.95,0.35
				c-10.64,3.89-23.39,8.29-37.29,11.5C208.11,197.85,208.01,197.86,207.92,197.86z"/>
		</g>
		<g>
			<path class="st1" d="M232.59,176.28c-0.41,0-0.82-0.2-1.05-0.58c-0.37-0.58-0.19-1.35,0.39-1.72
				c11.31-7.15,24.89-10.68,38.25-9.93c0.69,0.04,1.21,0.63,1.17,1.31c-0.04,0.69-0.62,1.21-1.31,1.17
				c-12.85-0.73-25.91,2.67-36.78,9.55C233.05,176.22,232.82,176.28,232.59,176.28z"/>
		</g>
		<g>
			<path class="st1" d="M224.79,164.12c-0.41,0-0.81-0.2-1.04-0.57c-0.37-0.58-0.21-1.35,0.37-1.72c6.68-4.34,14.37-7.37,22.21-8.75
				c0.68-0.12,1.32,0.33,1.44,1.01c0.12,0.68-0.33,1.32-1.01,1.44c-7.52,1.32-14.88,4.22-21.29,8.39
				C225.26,164.05,225.03,164.12,224.79,164.12z"/>
		</g>
		<g>
			<path class="st1" d="M304.42,300.72c-0.67,0-1.22-0.53-1.24-1.21c-0.02-0.69,0.52-1.26,1.21-1.28
				c7.25-0.22,14.32-2.88,19.93-7.49c0.53-0.44,1.32-0.36,1.75,0.17c0.44,0.53,0.36,1.32-0.17,1.75
				c-6.02,4.95-13.63,7.81-21.43,8.05C304.45,300.72,304.44,300.72,304.42,300.72z"/>
		</g>
	</g>
</g>
</svg>
