<?xml version="1.0" encoding="utf-8"?>
<!-- Generator: Adobe Illustrator 25.0.0, SVG Export Plug-In . SVG Version: 6.00 Build 0)  -->
<svg version="1.1" id="Capa_1" xmlns="http://www.w3.org/2000/svg" xmlns:xlink="http://www.w3.org/1999/xlink" x="0px" y="0px"
	 viewBox="0 0 425.2 425.2" style="enable-background:new 0 0 425.2 425.2;" xml:space="preserve">
<style type="text/css">
	.st0{fill:#FFFFFF;}
	.st1{fill:#020203;}
	.st2{fill:#E20E17;}
	.st3{fill:#EBEBEB;}
	.st4{fill:#DEDEDE;}
	.st5{fill:#FBFBFB;}
	.st6{fill:#E0E0E0;}
	.st7{fill:#F0F0F0;}
	.st8{fill:#AD7A16;stroke:#010202;stroke-width:2;stroke-miterlimit:10;}
	.st9{fill:#010202;}
	.st10{fill:#FFFFFF;stroke:#010202;stroke-width:2;stroke-miterlimit:10;}
</style>
<g>
	<g>
		<path class="st0" d="M386.36,319.95c0-82.32,0.96-154.01,0-231.29c-115.34,0-231.26,3.36-347.46,2.13
			c-1.11,78.76,0,152.85,0,229.43C155.04,320.23,270.8,319.95,386.36,319.95z"/>
		<path class="st1" d="M38.9,322.47c-1.24,0-2.24-1-2.24-2.24c0-25.53-0.13-51.21-0.25-76.04c-0.24-49.61-0.49-100.91,0.25-153.42
			c0.02-1.23,1-2.27,2.26-2.21c67.11,0.71,135.19-0.13,201.02-0.94c48.04-0.59,97.71-1.2,146.42-1.2c1.23,0,2.22,0.99,2.24,2.21
			c0.64,50.98,0.43,99.22,0.22,150.29c-0.11,26.06-0.22,53-0.22,81.03c0,1.24-1,2.24-2.24,2.24c-57.71,0-116.47,0.07-173.29,0.14
			C156.03,322.4,97.04,322.47,38.9,322.47z M41.11,93.06c-0.7,51.7-0.46,102.22-0.22,151.11c0.12,24.11,0.24,49.01,0.25,73.82
			c57.42,0,115.62-0.07,171.93-0.14c56.09-0.07,114.07-0.14,171.06-0.14c0.01-27.23,0.12-53.44,0.22-78.81
			c0.21-50.31,0.41-97.87-0.19-148c-47.98,0.02-96.86,0.62-144.15,1.2C174.87,92.9,107.55,93.73,41.11,93.06z"/>
	</g>
	<g>
		<g>
			<path class="st2" d="M156.8,97.76c-40.06,0-79.73-0.04-117.9-0.12l-1.04,0l0.04-1.04c0.23-5.68,0.31-10.85,0.39-15.85
				c0.08-4.74,0.15-9.22,0.34-13.87l0.04-0.96l348.4-1.54v1c0,3.82,0.07,8.73,0.14,13.93c0.08,5.81,0.16,11.82,0.16,17.05v1l-1,0
				C303.73,97.63,228.64,97.76,156.8,97.76z"/>
			<path class="st0" d="M386.07,65.39c0,8.07,0.3,21.05,0.3,30.98c-76.68,0.25-153.02,0.4-229.6,0.4
				c-39.21,0-78.48-0.04-117.87-0.12c0.44-11,0.35-20.12,0.73-29.72L386.07,65.39 M388.07,63.38l-2.01,0.01L39.62,64.92l-1.91,0.01
				l-0.08,1.91c-0.19,4.66-0.26,9.15-0.34,13.89c-0.08,5-0.17,10.17-0.39,15.83l-0.08,2.08l2.08,0
				c38.17,0.08,77.82,0.12,117.87,0.12c71.86,0,146.96-0.13,229.6-0.4l1.99-0.01v-1.99c0-5.24-0.08-11.25-0.16-17.07
				c-0.07-5.19-0.14-10.1-0.14-13.91V63.38L388.07,63.38z"/>
		</g>
		<path class="st1" d="M156.46,99c-40.37,0-79.45-0.04-117.57-0.12c-0.61,0-1.19-0.25-1.61-0.69c-0.42-0.44-0.64-1.03-0.62-1.64
			c0.23-5.67,0.31-10.84,0.4-15.84c0.08-4.74,0.15-9.22,0.34-13.88c0.05-1.2,1.03-2.15,2.23-2.15l346.44-1.53c0,0,0.01,0,0.01,0
			c0.59,0,1.16,0.23,1.58,0.65c0.42,0.42,0.66,0.99,0.66,1.59c0,3.82,0.07,8.73,0.14,13.91c0.08,5.82,0.16,11.83,0.16,17.07
			c0,1.23-1,2.24-2.23,2.24C304.53,98.87,228.46,99,156.46,99z M41.22,94.4c104.79,0.22,217.01,0.13,342.89-0.27
			c-0.02-4.65-0.09-9.79-0.15-14.78c-0.06-4.23-0.11-8.29-0.13-11.72L41.79,69.15c-0.13,3.86-0.19,7.65-0.26,11.63
			C41.46,85.12,41.39,89.58,41.22,94.4z"/>
	</g>
	<g>
		<path class="st1" d="M280.23,83.59c-1.24,0-2.24-1-2.24-2.24c0-1.24,1-2.24,2.24-2.25l20.98-0.04c0,0,0,0,0,0
			c1.24,0,2.24,1,2.24,2.24c0,1.24-1,2.24-2.24,2.25L280.23,83.59C280.23,83.59,280.23,83.59,280.23,83.59z"/>
	</g>
	<g>
		<path class="st1" d="M343.03,83.59c-1.24,0-2.24-1-2.24-2.24c0-1.24,1-2.24,2.24-2.25L364,79.07c0,0,0,0,0,0
			c1.24,0,2.24,1,2.24,2.24c0,1.24-1,2.24-2.24,2.25L343.03,83.59C343.03,83.59,343.03,83.59,343.03,83.59z"/>
	</g>
	<g>
		<g>
			<g>
				<line class="st3" x1="241.11" y1="170.06" x2="241.11" y2="174.1"/>
				<rect x="241.11" y="196.08" class="st3" width="76.76" height="4.04"/>
				<rect x="241.11" y="209.09" class="st3" width="90.96" height="4.04"/>
				<rect x="241.11" y="248.12" class="st3" width="99.3" height="4.04"/>
				<rect x="241.11" y="274.14" class="st3" width="70.67" height="4.04"/>
			</g>
		</g>
	</g>
	<g>
		<g>
			<polygon class="st4" points="277.23,162.55 139.92,162.55 139.92,391.47 309.88,391.47 309.88,200.52 309.88,194.95 			"/>
			<g>
				<g>
					<g>
						<polygon class="st5" points="319.07,186.04 319.07,382.56 149.11,382.56 149.11,153.64 286.42,153.64 						"/>
						<path class="st6" d="M319.07,191.61v-5.57l-32.65-32.4c0,32.09,0,32.09,0,32.09L319.07,191.61z"/>
						<path class="st7" d="M319.07,186.04l-32.65-32.4c0,32.09,0,32.09,0,32.09L319.07,186.04z"/>
					</g>
				</g>
				<g>
					<rect x="165.81" y="205.05" class="st7" width="136.56" height="4.71"/>
					<rect x="165.81" y="220.23" class="st7" width="136.56" height="4.71"/>
					<rect x="165.81" y="235.4" class="st7" width="89.53" height="4.71"/>
					<rect x="165.81" y="250.57" class="st7" width="106.09" height="4.71"/>
					<rect x="165.81" y="265.75" class="st7" width="136.56" height="4.71"/>
					<rect x="165.81" y="280.92" class="st7" width="136.56" height="4.71"/>
					<rect x="165.81" y="296.1" class="st7" width="115.81" height="4.71"/>
					<rect x="165.81" y="311.27" class="st7" width="136.56" height="4.71"/>
					<rect x="165.81" y="326.44" class="st7" width="82.43" height="4.71"/>
				</g>
			</g>
		</g>
		<g>
			<g>
				<polygon class="st4" points="331.44,120.42 207.52,120.42 207.52,327.03 360.91,327.03 360.91,154.69 360.91,149.66 				"/>
				<g>
					<g>
						<g>
							<polygon class="st8" points="369.2,141.62 369.2,318.99 215.81,318.99 215.81,112.38 339.73,112.38 							"/>
							<path class="st6" d="M369.2,146.65v-5.02l-29.47-29.24c0,28.96,0,28.96,0,28.96L369.2,146.65z"/>
							<path class="st3" d="M369.2,141.62l-29.47-29.24c0,28.96,0,28.96,0,28.96L369.2,141.62z"/>
						</g>
					</g>
					<g>
						<rect x="230.88" y="158.78" class="st3" width="123.25" height="4.25"/>
						<rect x="230.88" y="172.48" class="st3" width="123.25" height="4.25"/>
						<rect x="230.88" y="186.17" class="st3" width="80.8" height="4.25"/>
						<rect x="230.88" y="199.87" class="st3" width="95.74" height="4.25"/>
						<rect x="230.88" y="213.56" class="st3" width="123.25" height="4.25"/>
						<rect x="230.88" y="227.25" class="st3" width="123.25" height="4.25"/>
						<rect x="230.88" y="240.95" class="st3" width="104.52" height="4.25"/>
						<rect x="230.88" y="254.64" class="st3" width="123.25" height="4.25"/>
						<rect x="230.88" y="268.34" class="st3" width="74.39" height="4.25"/>
					</g>
				</g>
			</g>
			<g>
				<polygon class="st4" points="304.27,141.62 173.83,141.62 173.83,359.1 335.29,359.1 335.29,177.69 335.29,172.4 				"/>
				<g>
					<g>
						<g>
							<g>
								<polygon class="st2" points="181.56,351.64 181.56,132.16 313.42,132.16 345.02,163.52 345.02,351.64 								"/>
								<path class="st9" d="M313,133.16l31.02,30.78v186.7H182.56V133.16H313 M313.83,131.16H313H182.56h-2v2v217.48v2h2h161.46h2
									v-2v-186.7v-0.83l-0.59-0.59l-31.02-30.78L313.83,131.16L313.83,131.16z"/>
							</g>
							<path class="st6" d="M344.02,169.23v-5.29L313,133.16c0,30.48,0,30.48,0,30.48L344.02,169.23z"/>
							<path class="st3" d="M344.02,163.94L313,133.16c0,30.48,0,30.48,0,30.48L344.02,163.94z"/>
						</g>
					</g>
					<g>
						<rect x="198.43" y="182" class="st0" width="129.73" height="4.47"/>
						<rect x="198.43" y="196.42" class="st0" width="129.73" height="4.47"/>
						<rect x="198.43" y="210.83" class="st7" width="85.05" height="4.47"/>
						<rect x="198.43" y="225.25" class="st7" width="100.78" height="4.47"/>
						<rect x="198.43" y="239.66" class="st0" width="129.73" height="4.47"/>
						<rect x="198.43" y="254.08" class="st0" width="129.73" height="4.47"/>
						<rect x="198.43" y="268.49" class="st7" width="110.02" height="4.47"/>
						<rect x="198.43" y="282.91" class="st0" width="129.73" height="4.47"/>
						<rect x="198.43" y="297.32" class="st7" width="78.31" height="4.47"/>
					</g>
				</g>
			</g>
			<g>
				<polygon class="st4" points="276.79,162.9 139.48,162.9 139.48,391.82 309.44,391.82 309.44,200.86 309.44,195.3 				"/>
				<g>
					<g>
						<g>
							<polygon class="st10" points="318.63,186.39 318.63,382.91 148.67,382.91 148.67,153.99 285.98,153.99 							"/>
							<path class="st6" d="M318.63,191.96v-5.57l-32.65-32.4c0,32.09,0,32.09,0,32.09L318.63,191.96z"/>
							<path class="st7" d="M318.63,186.39l-32.65-32.4c0,32.09,0,32.09,0,32.09L318.63,186.39z"/>
						</g>
						<g>
							<path class="st2" d="M283.83,376.18c-13.54,0-24.55-11.01-24.55-24.55c0-13.54,11.01-24.55,24.55-24.55
								c13.54,0,24.55,11.01,24.55,24.55C308.37,365.17,297.36,376.18,283.83,376.18z M283.83,330.61
								c-11.59,0-21.02,9.43-21.02,21.02c0,11.59,9.43,21.02,21.02,21.02c11.59,0,21.02-9.43,21.02-21.02
								C304.85,340.04,295.42,330.61,283.83,330.61z"/>
						</g>
						<g>
							<polygon class="st2" points="282.36,355.05 275.2,348.67 271.82,352.46 282.77,362.21 282.85,362.12 286.15,358.42 
								298.6,344.44 294.81,341.06 							"/>
						</g>
					</g>
					<g>
						<rect x="165.37" y="205.4" class="st7" width="136.56" height="4.71"/>
						<rect x="165.37" y="220.57" class="st7" width="136.56" height="4.71"/>
						<rect x="165.37" y="235.75" class="st7" width="89.53" height="4.71"/>
						<rect x="165.37" y="250.92" class="st7" width="106.09" height="4.71"/>
						<rect x="165.37" y="266.1" class="st7" width="136.56" height="4.71"/>
						<rect x="165.37" y="281.27" class="st7" width="136.56" height="4.71"/>
						<rect x="165.37" y="296.44" class="st7" width="115.81" height="4.71"/>
						<rect x="165.37" y="311.62" class="st7" width="136.56" height="4.71"/>
						<rect x="165.37" y="326.79" class="st7" width="82.43" height="4.71"/>
					</g>
				</g>
			</g>
		</g>
	</g>
</g>
</svg>
