<?xml version="1.0" encoding="utf-8"?>
<!-- Generator: Adobe Illustrator 25.0.0, SVG Export Plug-In . SVG Version: 6.00 Build 0)  -->
<svg version="1.1" id="Capa_1" xmlns="http://www.w3.org/2000/svg" xmlns:xlink="http://www.w3.org/1999/xlink" x="0px" y="0px"
	 viewBox="0 0 425.2 425.2" style="enable-background:new 0 0 425.2 425.2;" xml:space="preserve">
<style type="text/css">
	.st0{fill:#FFFFFF;}
	.st1{fill:#020203;}
	.st2{fill:#E20E17;}
	.st3{fill:#AD7B16;}
	.st4{fill:#ADD3F2;}
	.st5{opacity:0.1294;}
</style>
<g>
	<g>
		<path class="st0" d="M309.45,271.62c0-66.27,0.77-123.97,0-186.18c-92.84,0-186.16,2.7-279.7,1.72c-0.9,63.4,0,123.04,0,184.69
			C123.24,271.84,216.43,271.62,309.45,271.62z"/>
		<path class="st1" d="M29.75,273.64c-1,0-1.8-0.81-1.8-1.8c0-20.55-0.1-41.22-0.2-61.21c-0.2-39.93-0.4-81.23,0.2-123.5
			c0.01-0.99,0.81-1.83,1.82-1.78c54.02,0.57,108.82-0.1,161.82-0.75c38.67-0.47,78.65-0.96,117.87-0.96c0.99,0,1.79,0.79,1.8,1.78
			c0.51,41.04,0.35,79.87,0.18,120.98c-0.09,20.98-0.18,42.67-0.18,65.23c0,1-0.81,1.8-1.8,1.8c-46.45,0-93.75,0.06-139.5,0.11
			C124.04,273.59,76.55,273.64,29.75,273.64z M31.53,88.97c-0.57,41.62-0.37,82.29-0.17,121.64c0.1,19.41,0.19,39.46,0.2,59.42
			c46.22,0,93.07-0.06,138.4-0.11c45.15-0.05,91.82-0.11,137.7-0.11c0-21.92,0.09-43.02,0.18-63.44
			c0.17-40.5,0.33-78.78-0.16-119.14c-38.62,0.02-77.97,0.5-116.04,0.96C139.2,88.84,85.01,89.51,31.53,88.97z"/>
	</g>
	<g>
		<g>
			<path class="st2" d="M124.61,92.95c-32.23,0-64.14-0.03-94.86-0.1l-1.04,0l0.04-1.04c0.18-4.57,0.25-8.74,0.32-12.76
				c0.06-3.81,0.12-7.42,0.27-11.16l0.04-0.96l280.83-1.24v1c0,3.07,0.05,7.02,0.11,11.21c0.06,4.68,0.13,9.52,0.13,13.73v1l-1,0
				C242.95,92.85,182.49,92.95,124.61,92.95z"/>
			<path class="st0" d="M309.21,66.7c0,6.5,0.24,16.94,0.24,24.94c-61.72,0.2-123.18,0.32-184.82,0.32
				c-31.56,0-63.18-0.03-94.88-0.1c0.35-8.86,0.28-16.19,0.59-23.93L309.21,66.7 M311.21,64.69l-2.01,0.01L30.33,65.93l-1.91,0.01
				l-0.08,1.91c-0.15,3.76-0.21,7.37-0.27,11.19c-0.07,4.02-0.13,8.18-0.32,12.74l-0.08,2.08l2.08,0c30.72,0.07,62.64,0.1,94.88,0.1
				c57.85,0,118.3-0.1,184.83-0.32l1.99-0.01v-1.99c0-4.22-0.07-9.06-0.13-13.74c-0.06-4.18-0.11-8.13-0.11-11.19V64.69
				L311.21,64.69z"/>
		</g>
		<path class="st1" d="M124.39,93.76c-32.5,0-63.96-0.03-94.64-0.1c-0.49,0-0.96-0.2-1.3-0.56c-0.34-0.35-0.52-0.83-0.5-1.32
			c0.18-4.56,0.25-8.73,0.32-12.75c0.06-3.82,0.12-7.42,0.27-11.17c0.04-0.96,0.83-1.73,1.79-1.73l278.88-1.23c0,0,0.01,0,0.01,0
			c0.48,0,0.93,0.19,1.27,0.52c0.34,0.34,0.53,0.8,0.53,1.28c0,3.07,0.05,7.03,0.11,11.2c0.06,4.68,0.13,9.52,0.13,13.74
			c0,0.99-0.8,1.8-1.8,1.8C243.58,93.65,182.34,93.76,124.39,93.76z M31.62,90.05c84.35,0.18,174.68,0.11,276.02-0.22
			c-0.01-3.75-0.07-7.88-0.12-11.89c-0.05-3.4-0.09-6.67-0.1-9.43L32.08,69.72c-0.1,3.11-0.15,6.16-0.21,9.36
			C31.81,82.58,31.76,86.18,31.62,90.05z"/>
	</g>
	<g>
		<path class="st1" d="M66.75,203.63c-0.99,0-1.8-0.81-1.8-1.8c0-1,0.8-1.81,1.8-1.81l16.88-0.03c0,0,0,0,0,0
			c0.99,0,1.8,0.81,1.8,1.8c0,1-0.8,1.81-1.8,1.81L66.75,203.63C66.75,203.63,66.75,203.63,66.75,203.63z"/>
	</g>
	<g>
		<path class="st1" d="M117.31,203.63c-0.99,0-1.8-0.81-1.8-1.8c0-1,0.8-1.81,1.8-1.81l16.88-0.04c0,0,0,0,0,0
			c0.99,0,1.8,0.81,1.8,1.8c0,1-0.8,1.81-1.8,1.81L117.31,203.63C117.31,203.63,117.31,203.63,117.31,203.63z"/>
	</g>
	<g>
		<path class="st1" d="M64.37,228.74c-0.55,0-1-0.45-1-1c0-0.55,0.45-1,1-1l72.56-0.02c0.55,0,1,0.45,1,1c0,0.55-0.45,1-1,1
			L64.37,228.74z"/>
	</g>
	<g>
		<g>
			<path class="st3" d="M136.05,192.15c0-28.34,0.2-53.02,0-79.63c-23.49,0-47.1,1.16-70.77,0.73c-0.23,27.12,0,52.62,0,78.99
				C88.93,192.25,112.51,192.15,136.05,192.15z"/>
			<path class="st1" d="M65.28,194.05c-1,0-1.8-0.81-1.8-1.8c0-8.79-0.02-17.49-0.05-26.18c-0.05-17.08-0.1-34.74,0.05-52.82
				c0-0.48,0.2-0.94,0.55-1.28c0.34-0.34,0.82-0.49,1.29-0.51c13.64,0.25,27.49-0.04,40.89-0.32c9.79-0.2,19.91-0.41,29.85-0.41
				c0.99,0,1.8,0.8,1.8,1.79c0.13,17.55,0.09,34.15,0.04,51.73c-0.02,9.03-0.04,18.25-0.04,27.91c0,1-0.81,1.8-1.8,1.8
				c-11.75,0-23.51,0.02-35.29,0.05C88.95,194.03,77.12,194.05,65.28,194.05z M67.07,115.09c-0.13,17.43-0.08,34.47-0.04,50.97
				c0.02,8.1,0.05,16.2,0.05,24.38c11.24,0,22.46-0.02,33.66-0.05c11.18-0.02,22.34-0.04,33.49-0.05c0-9.01,0.02-17.65,0.04-26.11
				c0.04-16.97,0.08-33.03-0.03-49.9c-9.32,0.02-18.8,0.22-27.98,0.41C93.44,115.01,80.18,115.28,67.07,115.09z"/>
		</g>
		<g>
			<path class="st1" d="M78.21,185.27c-0.12,0-0.25-0.04-0.36-0.12c-2.18-1.61-4.23-3.41-6.11-5.36c-0.23-0.24-0.22-0.62,0.02-0.85
				c0.24-0.23,0.62-0.22,0.85,0.02c1.83,1.9,3.84,3.66,5.96,5.23c0.27,0.2,0.32,0.57,0.13,0.84
				C78.58,185.18,78.4,185.27,78.21,185.27z"/>
		</g>
		<g>
			<path class="st1" d="M92.47,187.32c-0.15,0-0.29-0.05-0.41-0.16c-6.96-6.49-14.16-12.92-21.38-19.12
				c-0.25-0.22-0.28-0.6-0.06-0.85c0.22-0.25,0.6-0.28,0.85-0.06c7.24,6.21,14.44,12.66,21.42,19.15c0.24,0.23,0.26,0.61,0.03,0.85
				C92.8,187.25,92.64,187.32,92.47,187.32z"/>
		</g>
		<g>
			<path class="st1" d="M106.82,187.26c-0.14,0-0.28-0.05-0.39-0.14l-34.86-29.49c-0.25-0.21-0.29-0.59-0.07-0.85
				c0.21-0.25,0.6-0.28,0.85-0.07l34.86,29.49c0.25,0.21,0.29,0.59,0.07,0.85C107.16,187.19,106.99,187.26,106.82,187.26z"/>
		</g>
		<g>
			<path class="st1" d="M120.09,186.61c-0.14,0-0.29-0.05-0.4-0.15c-15.43-13.82-31.45-27.42-47.6-40.42
				c-0.26-0.21-0.3-0.59-0.09-0.85c0.21-0.26,0.59-0.3,0.85-0.09c16.17,13.02,32.2,26.63,47.65,40.46c0.25,0.22,0.27,0.6,0.05,0.85
				C120.42,186.54,120.25,186.61,120.09,186.61z"/>
		</g>
		<g>
			<path class="st1" d="M130.39,182.3c-0.13,0-0.27-0.04-0.38-0.13c-19.63-15.76-39.21-32.14-58.18-48.7
				c-0.25-0.22-0.28-0.6-0.06-0.85c0.22-0.25,0.6-0.27,0.85-0.06c18.96,16.55,38.52,32.92,58.14,48.67c0.26,0.21,0.3,0.59,0.09,0.84
				C130.74,182.22,130.57,182.3,130.39,182.3z"/>
		</g>
		<g>
			<path class="st1" d="M129.97,169.15c-0.13,0-0.27-0.04-0.38-0.14l-57.61-47.08c-0.26-0.21-0.29-0.59-0.08-0.85
				c0.21-0.26,0.59-0.29,0.85-0.08l57.61,47.08c0.26,0.21,0.29,0.59,0.08,0.85C130.31,169.08,130.14,169.15,129.97,169.15z"/>
		</g>
		<g>
			<path class="st1" d="M130.06,155.67c-0.14,0-0.28-0.05-0.39-0.15c-13.9-11.98-28.23-23.9-42.6-35.41
				c-0.26-0.21-0.3-0.59-0.09-0.84c0.21-0.26,0.59-0.3,0.84-0.09c14.37,11.52,28.72,23.45,42.63,35.44c0.25,0.22,0.28,0.6,0.06,0.85
				C130.4,155.6,130.23,155.67,130.06,155.67z"/>
		</g>
		<g>
			<path class="st1" d="M129.93,140.67c-0.12,0-0.25-0.04-0.35-0.11c-8.5-6.14-16.89-12.65-24.94-19.34
				c-0.26-0.21-0.29-0.59-0.08-0.85c0.21-0.26,0.6-0.29,0.85-0.08c8.03,6.67,16.4,13.16,24.88,19.29c0.27,0.19,0.33,0.57,0.14,0.84
				C130.3,140.58,130.11,140.67,129.93,140.67z"/>
		</g>
		<g>
			<path class="st1" d="M130.4,128.83c-0.14,0-0.28-0.05-0.39-0.14c-2.97-2.54-6.09-4.97-9.26-7.23c-0.27-0.19-0.33-0.57-0.14-0.84
				c0.19-0.27,0.57-0.33,0.84-0.14c3.2,2.28,6.34,4.74,9.34,7.29c0.25,0.22,0.28,0.6,0.07,0.85
				C130.74,128.76,130.57,128.83,130.4,128.83z"/>
		</g>
	</g>
</g>
<g>
	<g>
		<g>
			<path class="st1" d="M249.92,296.25c-13.53,0-27.08-5.54-36.54-15.22c-0.38-0.38-0.37-1,0.02-1.37c0.38-0.38,1-0.37,1.37,0.02
				c10.57,10.81,26.45,16.25,41.43,14.21c0.53-0.08,1.02,0.3,1.09,0.83c0.07,0.53-0.3,1.02-0.83,1.09
				C254.3,296.11,252.11,296.25,249.92,296.25z"/>
		</g>
		<g>
			<path class="st1" d="M247.84,301.17c-0.4,0-0.77-0.24-0.91-0.64c-0.19-0.5,0.07-1.06,0.58-1.25c2.72-1,5.25-2.38,7.55-4.12
				c-2.57-1.45-5.02-3.13-7.29-5c-0.41-0.34-0.47-0.95-0.13-1.37c0.34-0.41,0.95-0.47,1.37-0.13c2.55,2.1,5.33,3.95,8.26,5.49
				c0.29,0.15,0.48,0.44,0.51,0.76c0.03,0.32-0.09,0.64-0.34,0.85c-2.76,2.31-5.88,4.11-9.26,5.35
				C248.06,301.15,247.95,301.17,247.84,301.17z"/>
		</g>
	</g>
	<g>
		<g>
			<path class="st1" d="M353.25,184.71c-0.03,0-0.05,0-0.08,0c-0.53-0.04-0.93-0.51-0.89-1.05c1.12-13.52-5.35-27.26-16.5-34.99
				c-0.44-0.31-0.55-0.91-0.24-1.35c0.31-0.44,0.91-0.55,1.35-0.24c11.7,8.13,18.5,22.55,17.33,36.75
				C354.17,184.33,353.75,184.71,353.25,184.71z"/>
		</g>
		<g>
			<path class="st1" d="M339.3,158.26c-0.42,0-0.81-0.28-0.93-0.71c-0.94-3.31-2.1-6.59-3.43-9.75c-0.14-0.34-0.08-0.74,0.17-1.02
				c0.25-0.28,0.63-0.4,0.99-0.29l10.03,2.8c0.52,0.14,0.82,0.68,0.67,1.2c-0.14,0.52-0.68,0.82-1.2,0.67l-8.12-2.27
				c1.05,2.66,1.97,5.39,2.76,8.13c0.15,0.52-0.15,1.05-0.67,1.2C339.47,158.25,339.38,158.26,339.3,158.26z"/>
		</g>
	</g>
	<g>
		<path class="st1" d="M367.5,182.93c-0.03,0-0.07,0-0.1-0.01c-0.53-0.06-0.92-0.53-0.87-1.07c0.89-8.58-0.55-17.25-4.17-25.08
			c-0.23-0.49-0.01-1.06,0.47-1.29c0.49-0.23,1.06-0.01,1.29,0.47c3.77,8.14,5.27,17.17,4.34,26.09
			C368.41,182.56,367.99,182.93,367.5,182.93z"/>
	</g>
	<g>
		<path class="st1" d="M232.14,308.53c-0.06,0-0.13-0.01-0.19-0.02c-9.85-1.94-19.13-6.98-26.12-14.18c-0.37-0.38-0.37-1,0.02-1.37
			c0.38-0.37,1-0.36,1.37,0.02c6.72,6.92,15.64,11.76,25.11,13.63c0.53,0.1,0.87,0.61,0.77,1.14
			C233,308.21,232.6,308.53,232.14,308.53z"/>
	</g>
	<g>
		<g>
			<path class="st1" d="M249.92,296.25c-13.53,0-27.08-5.54-36.54-15.22c-0.38-0.38-0.37-1,0.02-1.37c0.38-0.38,1-0.37,1.37,0.02
				c10.57,10.81,26.45,16.25,41.43,14.21c0.53-0.08,1.02,0.3,1.09,0.83c0.07,0.53-0.3,1.02-0.83,1.09
				C254.3,296.11,252.11,296.25,249.92,296.25z"/>
		</g>
		<g>
			<path class="st1" d="M247.84,301.17c-0.4,0-0.77-0.24-0.91-0.64c-0.19-0.5,0.07-1.06,0.58-1.25c2.72-1,5.25-2.38,7.55-4.12
				c-2.57-1.45-5.02-3.13-7.29-5c-0.41-0.34-0.47-0.95-0.13-1.37c0.34-0.41,0.95-0.47,1.37-0.13c2.55,2.1,5.33,3.95,8.26,5.49
				c0.29,0.15,0.48,0.44,0.51,0.76c0.03,0.32-0.09,0.64-0.34,0.85c-2.76,2.31-5.88,4.11-9.26,5.35
				C248.06,301.15,247.95,301.17,247.84,301.17z"/>
		</g>
	</g>
	<g>
		<g>
			<path class="st1" d="M353.25,184.71c-0.03,0-0.05,0-0.08,0c-0.53-0.04-0.93-0.51-0.89-1.05c1.12-13.52-5.35-27.26-16.5-34.99
				c-0.44-0.31-0.55-0.91-0.24-1.35c0.31-0.44,0.91-0.55,1.35-0.24c11.7,8.13,18.5,22.55,17.33,36.75
				C354.17,184.33,353.75,184.71,353.25,184.71z"/>
		</g>
		<g>
			<path class="st1" d="M339.3,158.26c-0.42,0-0.81-0.28-0.93-0.71c-0.94-3.31-2.1-6.59-3.43-9.75c-0.14-0.34-0.08-0.74,0.17-1.02
				c0.25-0.28,0.63-0.4,0.99-0.29l10.03,2.8c0.52,0.14,0.82,0.68,0.67,1.2c-0.14,0.52-0.68,0.82-1.2,0.67l-8.12-2.27
				c1.05,2.66,1.97,5.39,2.76,8.13c0.15,0.52-0.15,1.05-0.67,1.2C339.47,158.25,339.38,158.26,339.3,158.26z"/>
		</g>
	</g>
	<g>
		<g>
			<path class="st3" d="M213.44,190.18c-5.8,1.94-10.95,6.04-13.7,11.51c-2.75,5.47-2.91,12.28,0,17.66
				c4.23,7.83,14.74,11.33,23.06,8.16c9.06-3.46,14.58-14.34,11.92-23.67C232.07,194.51,221.39,187.53,213.44,190.18z
				 M224.45,214.66c-0.82,1.91-2.66,3.68-4.53,4.6c-4.23,2.07-9.04,0.29-11.55-3.55c-2.57-3.95-2.2-9.28,0.45-13.11
				c1.32-1.91,2.99-3.4,5.33-3.84c2.15-0.4,4.31-0.02,6.01,1.36c1.1,0.19,2.15,0.65,3.01,1.37c1.67,1.39,2.39,4.16,2.52,6.25
				C225.86,210.02,225.35,212.56,224.45,214.66z"/>
		</g>
		<g>
			<g>
				<path class="st4" d="M257.12,207.73c-2.42-0.73-4.74-1.99-6.33-3.96c-2.22-2.73-2.75-6.6-1.85-10c0.9-3.4,3.12-6.35,5.81-8.62
					c-2.38-3.78-4.95-7.32-7.65-10.77c-3.27,2.43-6.42,4.72-10.06,4.9c-3.51,0.18-6.91-1.74-9.09-4.49
					c-2.18-2.75-3.26-6.24-3.7-9.72c-0.12-0.33-0.3-0.4-0.44-0.41c-3.68-0.27-7.36-0.55-11.04-0.82c-0.67,3.44-2.23,6.5-4.63,8.72
					c-2.4,2.22-5.66,3.55-8.93,3.45c-1.34-0.04-2.67-0.32-3.98-0.6c-2.15-0.47-4.42-1.05-5.93-2.65c-2.92,1.99-5.55,4.1-8.09,6.32
					c1.3,0.89,1.84,2.1,2.3,3.29c0.98,2.54,1.73,5.32,1.11,7.98c-0.64,2.75-2.71,5.02-5.18,6.37c-2.47,1.36-5.32,1.89-8.13,2.06
					c-0.78,4.02-1.16,8.32-1.28,12.63c2.4,0.85,4.67,1.58,6.72,2.78c2.05,1.19,3.87,2.9,4.78,5.08c1.02,2.46,0.78,5.34-0.29,7.78
					c-1.07,2.44-2.91,4.48-4.98,6.16c2.51,4.07,4.92,7.84,7.4,11.57c3.83-2.51,8.65-3.29,12.84-1.94c1.04,0.34,2.06,0.8,2.92,1.49
					c1.07,0.86,1.87,2.02,2.49,3.24c1.48,2.93,2.04,6.33,1.57,9.58c4.46,0.89,8.79,1.46,13.14,1.81c-0.26-4.52,1.68-9.05,5.26-11.52
					c3.57-2.47,8.67-2.64,12.26-0.19c1.7,1.16,3.01,2.8,4.28,4.43c3.91-2.76,7.78-5.59,11.41-8.7c-2.03-3.15-4.09-6.31-4.17-9.86
					c-0.08-3.7,2.14-7.23,5.25-9.23c3.11-2.01,6.97-2.61,10.65-2.23c1.26-4.3,2.33-8.5,3.22-12.73
					C262.07,208.7,259.54,208.46,257.12,207.73z M234.04,217.18c-1.49,3.3-3.91,6.14-6.83,8.28c-1.7,1.24-3.57,2.26-5.58,2.91
					c-8.22,2.63-17.85-1.99-21.67-9.73c-2.78-5.64-2.66-12.63,0.32-18.17c2.98-5.54,8.73-9.5,14.97-10.3
					c5.59-0.72,12.68,2.3,16.71,7.75C236,203.35,236.82,211,234.04,217.18z"/>
			</g>
		</g>
		<g>
			<g class="st5">
				<path class="st1" d="M239.05,208.2c-0.08-0.64-0.22-1.28-0.38-1.9c-0.07-0.15-0.14-0.3-0.21-0.44c-1.16-2.29-2.55-4.46-4.13-6.5
					c-0.26,0.18-0.46,0.45-0.55,0.76c-0.16,1.09,0.68,2.09,0.95,3.13c0.96,2.86,1.59,4.23,1.28,6.84c0.04,1-1.61,6.53-2.14,7.22
					c-0.62,1.22-1.34,2.39-2.17,3.48c-0.25,0.3-0.34,0.43-0.3,0.45c-0.41,0.32-0.77,0.73-1.17,1.07c-0.86,0.73-1.71,1.46-2.58,2.18
					c-0.23,0.17-0.6,0.47-0.86,0.74c0.14-0.21-0.24,0.15-0.59,0.45c-0.19,0.13-1.04,0.71-1.48,0.93c-3.01,1.06-6.14,1.65-7.8,1.74
					c-2.2,0.2-4.38-0.36-6.07-0.76c-1.21-0.35-2.27-1.55-3.57-1.3c-0.56,0.14-0.93,0.56-1.08,1.06c0.13,0.13,0.25,0.27,0.38,0.4
					c0.44,0.36,0.88,0.73,1.33,1.09c1.61,1.05,3.23,2.1,4.85,3.14c2.67,0.77,5.55,0.93,8.97,0.28c-0.06,0-0.13,0.01-0.2,0.02
					c3.6-0.76,4.72-1.24,7.35-2.61c2.3-1.37,4.15-3.36,5.57-5.61c0.04-0.06,0.08-0.13,0.12-0.19c0.01-0.01,0.01-0.01,0.01-0.02
					c1.68-2.09,2.95-4.48,3.84-7.01C239.34,214.08,239.32,211.08,239.05,208.2z"/>
			</g>
		</g>
		<g class="st5">
			<path class="st1" d="M247.81,237.63c-0.36,0.02-0.71,0.1-1.03,0.29c-0.47,0.25-0.75,0.68-1.04,1.1
				c-0.27,0.34-0.54,0.68-0.79,1.04c-0.72,0.92-0.92,1.32-2.51,2.93c-0.88,0.95-2.26,1.53-2.84,2.71c-0.01,0.02-0.02,0.04-0.03,0.07
				c-0.34,0.2-0.68,0.39-1.02,0.58c-0.63,0.4-1.47,0.59-1.91,1.22c-1.39,1.65,0.76,4.07,2.59,2.95c1.9-1.01,3.69-2.21,5.29-3.65
				c0.07-0.08,0.16-0.16,0.24-0.24c1.25-1,2.46-2.05,3.58-3.21c0.41-0.43,0.89-0.94,1.29-1.5c-0.42-0.84-0.78-1.7-1.12-2.58
				C248.27,238.78,248.03,238.2,247.81,237.63z"/>
		</g>
		<g class="st5">
			<path class="st1" d="M260.21,208.72c-0.72,2.78-1.54,5.54-2.43,8.28c-0.41,1.27-0.82,2.55-1.23,3.83c0.49,0.6,1.32,0.94,2.08,0.7
				c0.04-0.01,0.07-0.03,0.11-0.05c0.66,0.93,2.4,0.82,2.73-0.48c0.16-0.6,0.42-1.2,0.63-1.8c0.13-0.07,0.26-0.14,0.38-0.24
				c0.79-0.58,1.01-1.66,1.3-2.54c0.44-1.79,0.67-3.62,0.75-5.45c0-0.11,0.01-0.22,0.02-0.33
				C263.09,210.02,261.64,209.38,260.21,208.72z"/>
		</g>
		<g>
			<path class="st1" d="M216.62,259.93c-0.03,0-0.05,0-0.08,0c-4.59-0.36-8.92-0.96-13.25-1.82c-0.51-0.1-0.85-0.58-0.77-1.09
				c0.44-3.05-0.08-6.25-1.47-9.01c-0.66-1.3-1.38-2.25-2.22-2.92c-0.68-0.54-1.54-0.98-2.61-1.32c-3.87-1.25-8.36-0.57-12.01,1.83
				c-0.45,0.29-1.05,0.17-1.34-0.28c-2.44-3.68-4.87-7.47-7.41-11.6c-0.26-0.42-0.16-0.96,0.22-1.27c2.22-1.79,3.8-3.74,4.7-5.79
				c1.04-2.38,1.15-4.94,0.28-7.01c-0.94-2.26-2.9-3.76-4.38-4.62c-1.71-1-3.63-1.67-5.66-2.39l-0.89-0.31
				c-0.4-0.14-0.66-0.52-0.65-0.94c0.14-4.74,0.57-9.04,1.3-12.79c0.08-0.44,0.45-0.76,0.9-0.78c3.17-0.19,5.69-0.83,7.72-1.94
				c2.41-1.33,4.17-3.47,4.7-5.74c0.6-2.56-0.26-5.3-1.07-7.41c-0.42-1.08-0.88-2.11-1.94-2.84c-0.25-0.17-0.4-0.44-0.42-0.75
				c-0.02-0.3,0.1-0.59,0.33-0.79c2.93-2.55,5.53-4.58,8.18-6.39c0.39-0.27,0.92-0.21,1.25,0.14c1.3,1.37,3.31,1.9,5.44,2.36
				c1.35,0.3,2.57,0.54,3.8,0.58c2.95,0.09,5.95-1.07,8.24-3.19c2.19-2.03,3.69-4.86,4.34-8.19c0.09-0.48,0.53-0.82,1.03-0.78
				l11.04,0.82c0.58,0.04,1.04,0.42,1.28,1.04c0.03,0.07,0.04,0.14,0.05,0.22c0.48,3.81,1.65,6.91,3.5,9.24
				c2.14,2.7,5.31,4.28,8.28,4.13c3.4-0.17,6.51-2.48,9.53-4.72c0.42-0.31,1.02-0.23,1.34,0.18c3.03,3.87,5.55,7.42,7.71,10.85
				c0.26,0.41,0.17,0.95-0.2,1.26c-1.96,1.65-4.5,4.4-5.49,8.13c-0.88,3.29-0.24,6.79,1.66,9.14c1.31,1.62,3.33,2.87,5.85,3.64
				c2.32,0.7,4.74,0.94,7.45,1.16c0.28,0.02,0.53,0.16,0.7,0.39c0.17,0.22,0.23,0.51,0.17,0.78c-0.88,4.17-1.94,8.36-3.24,12.81
				c-0.13,0.45-0.57,0.74-1.03,0.69c-3.78-0.39-7.34,0.35-10.03,2.08c-2.99,1.93-4.87,5.22-4.8,8.39c0.07,3.23,1.95,6.15,3.94,9.24
				l0.07,0.11c0.26,0.41,0.18,0.95-0.18,1.26c-3.76,3.22-7.74,6.11-11.48,8.76c-0.42,0.3-1.01,0.21-1.33-0.2
				c-1.14-1.46-2.43-3.11-4.06-4.22c-3.18-2.17-7.87-2.09-11.16,0.19c-3.19,2.2-5.09,6.39-4.84,10.67c0.02,0.28-0.09,0.55-0.29,0.75
				C217.12,259.83,216.87,259.93,216.62,259.93z M204.55,256.37c3.62,0.69,7.26,1.2,11.07,1.53c0.07-4.59,2.19-8.84,5.7-11.26
				c3.99-2.76,9.48-2.84,13.36-0.2c1.58,1.08,2.86,2.57,3.92,3.9c3.26-2.32,6.68-4.82,9.94-7.56c-1.92-2.99-3.78-6.1-3.86-9.64
				c-0.09-3.83,2.15-7.78,5.69-10.07c2.86-1.84,6.55-2.7,10.47-2.45c1.08-3.74,1.98-7.29,2.75-10.82c-2.38-0.21-4.58-0.48-6.75-1.14
				c-2.89-0.88-5.25-2.36-6.8-4.27c-2.29-2.82-3.06-6.98-2.03-10.86c0.82-3.1,2.71-6.04,5.48-8.55c-1.9-2.96-4.01-5.93-6.57-9.24
				c-3.01,2.22-6.15,4.34-9.82,4.53c-3.58,0.19-7.38-1.68-9.9-4.86c-2-2.52-3.29-5.81-3.85-9.79l-9.79-0.73
				c-0.81,3.38-2.44,6.27-4.75,8.4c-2.67,2.46-6.18,3.82-9.62,3.7c-1.4-0.04-2.76-0.32-4.16-0.63c-2.06-0.45-4.19-1.01-5.82-2.35
				c-2.11,1.47-4.21,3.11-6.5,5.07c0.88,0.91,1.35,1.98,1.72,2.95c0.91,2.36,1.86,5.47,1.15,8.55c-0.66,2.84-2.72,5.39-5.66,7
				c-2.12,1.16-4.67,1.86-7.78,2.12c-0.59,3.28-0.96,6.99-1.11,11.04l0.22,0.08c2.12,0.75,4.13,1.45,6,2.54
				c1.74,1.01,4.05,2.79,5.19,5.55c1.07,2.56,0.96,5.68-0.3,8.54c-0.93,2.13-2.48,4.13-4.6,5.97c2.19,3.54,4.3,6.84,6.42,10.05
				c3.98-2.3,8.72-2.88,12.85-1.54c1.3,0.42,2.36,0.96,3.22,1.65c1.07,0.85,1.96,2.02,2.75,3.57
				C204.21,249.96,204.83,253.21,204.55,256.37z"/>
		</g>
		<g>
			<path class="st1" d="M216.13,221.06c-3.27,0-6.58-1.81-8.43-4.73c-1.95-3.08-2.26-7.25-0.83-10.9c0.97-2.47,2.65-4.53,4.72-5.82
				c2.3-1.43,5.03-1.87,7.48-1.21l0,0c2.78,0.75,4.86,1.98,6.17,3.67c1.58,2.03,2.44,4.74,2.43,7.64c-0.01,1.98-0.42,3.68-1.23,5.05
				c-0.71,1.21-1.71,2.13-2.58,2.88c-2.22,1.89-4.21,2.93-6.25,3.29C217.11,221.01,216.62,221.06,216.13,221.06z M216.79,200.05
				c-1.43,0-2.9,0.42-4.18,1.21c-1.72,1.07-3.12,2.8-3.93,4.88c-1.21,3.08-0.96,6.59,0.66,9.15c1.72,2.71,4.97,4.25,7.92,3.73
				c1.69-0.3,3.38-1.2,5.33-2.86c0.76-0.64,1.6-1.43,2.17-2.39c0.63-1.07,0.96-2.44,0.96-4.07c0.01-2.47-0.71-4.75-2.02-6.44
				c-1.05-1.34-2.78-2.35-5.14-2.98l0,0C217.99,200.12,217.4,200.05,216.79,200.05z"/>
		</g>
		<g>
			<path class="st1" d="M216.82,230.07c-7.13,0-14.42-4.29-17.73-11.01c-2.92-5.93-2.79-13.24,0.34-19.06
				c3.13-5.82,9.15-9.96,15.71-10.8l0,0c6.13-0.78,13.54,2.64,17.61,8.13c4.27,5.76,5.12,13.71,2.17,20.25
				c-1.51,3.35-3.98,6.35-7.14,8.66c-1.88,1.38-3.85,2.41-5.85,3.05C220.28,229.82,218.55,230.07,216.82,230.07z M216.97,191.02
				c-0.54,0-1.06,0.03-1.58,0.1l0,0c-5.95,0.76-11.4,4.51-14.24,9.8c-2.84,5.28-2.95,11.9-0.31,17.28
				c3.71,7.53,12.9,11.67,20.5,9.24c1.8-0.58,3.58-1.51,5.3-2.76c2.89-2.12,5.14-4.85,6.52-7.89c2.62-5.81,1.84-13.17-1.96-18.29
				C227.86,193.99,222.09,191.02,216.97,191.02z M215.26,190.16L215.26,190.16L215.26,190.16z"/>
		</g>
		<g>
			<g>
				<g>
					<path class="st2" d="M216.54,259.95c-4.59-0.36-8.92-0.96-13.25-1.82l-0.93-0.19l0.14-0.94c0.44-3.05-0.08-6.24-1.47-8.99
						c-0.65-1.29-1.38-2.25-2.22-2.91c-0.68-0.54-1.53-0.97-2.6-1.32c-1.25-0.4-2.58-0.61-3.95-0.61c-2.79,0-5.64,0.86-8.04,2.43
						l-0.83,0.55l-0.55-0.83c-2.44-3.68-4.87-7.47-7.41-11.6l-0.46-0.75l0.69-0.55c2.22-1.79,3.8-3.73,4.7-5.78
						c1.04-2.37,1.14-4.92,0.28-6.99c-0.94-2.25-2.89-3.75-4.36-4.6c-1.71-1-3.63-1.67-5.66-2.38l-1.58-0.56l0.02-0.73
						c0.14-4.74,0.57-9.04,1.3-12.79l0.15-0.76l0.77-0.05c3.16-0.19,5.69-0.83,7.71-1.94c2.44-1.34,4.15-3.43,4.69-5.72
						c0.59-2.55-0.26-5.29-1.07-7.39c-0.42-1.08-0.88-2.11-1.93-2.83l-1.07-0.73l0.98-0.85c2.93-2.55,5.53-4.58,8.18-6.39l0.7-0.48
						l0.58,0.62c1.29,1.36,3.3,1.89,5.42,2.36c1.35,0.3,2.57,0.54,3.8,0.58c0.11,0,0.22,0.01,0.33,0.01c2.83,0,5.7-1.16,7.9-3.19
						c2.19-2.02,3.69-4.85,4.33-8.18l0.17-0.87l11.92,0.89c0.59,0.04,1.07,0.43,1.3,1.05l0.04,0.11l0.01,0.12
						c0.48,3.8,1.65,6.9,3.49,9.22c2.05,2.58,4.98,4.13,7.85,4.13c0.13,0,0.27,0,0.4-0.01c3.39-0.17,6.5-2.48,9.51-4.71l0.78-0.58
						l0.6,0.77c3.02,3.87,5.54,7.42,7.71,10.85l0.46,0.74l-0.67,0.56c-1.96,1.65-4.5,4.4-5.48,8.11c-0.87,3.28-0.24,6.78,1.66,9.12
						c1.31,1.61,3.33,2.87,5.84,3.63c2.31,0.7,4.74,0.94,7.44,1.16l1.13,0.09l-0.23,1.11c-0.88,4.16-1.94,8.35-3.24,12.81l-0.23,0.8
						l-0.83-0.08c-0.66-0.07-1.32-0.1-1.96-0.1c-3.06,0-5.84,0.75-8.04,2.18c-2.98,1.92-4.86,5.21-4.79,8.37
						c0.07,3.22,1.95,6.14,3.94,9.23l0.54,0.84l-0.66,0.57c-3.75,3.22-7.74,6.11-11.48,8.76l-0.78,0.55l-0.59-0.75
						c-1.14-1.46-2.43-3.11-4.05-4.22c-1.51-1.03-3.35-1.58-5.33-1.58c-2.09,0-4.15,0.63-5.79,1.77c-3.18,2.2-5.07,6.38-4.83,10.64
						l0.07,1.14L216.54,259.95z M216.94,191.05c-0.53,0-1.05,0.03-1.55,0.1c-5.94,0.76-11.39,4.51-14.22,9.78
						c-2.83,5.27-2.95,11.89-0.31,17.26c2.88,5.84,9.43,9.92,15.93,9.92c1.57,0,3.09-0.23,4.53-0.7c1.8-0.58,3.58-1.51,5.29-2.76
						c2.89-2.12,5.14-4.84,6.51-7.88c2.62-5.81,1.83-13.15-1.96-18.27C227.87,194.05,222.15,191.05,216.94,191.05z"/>
					<path class="st0" d="M212.79,163.84c3.68,0.27,7.36,0.55,11.04,0.82c0.13,0.01,0.31,0.08,0.44,0.41
						c0.44,3.48,1.52,6.97,3.7,9.72c2.09,2.63,5.29,4.51,8.64,4.51c0.15,0,0.3,0,0.45-0.01c3.64-0.18,6.78-2.48,10.06-4.9
						c2.7,3.45,5.27,6.99,7.65,10.77c-2.69,2.27-4.9,5.22-5.81,8.62c-0.9,3.4-0.37,7.27,1.85,10c1.59,1.96,3.91,3.22,6.33,3.96
						c2.42,0.73,4.95,0.98,7.65,1.2c-0.89,4.24-1.96,8.43-3.22,12.73c-0.68-0.07-1.37-0.11-2.07-0.11c-3.02,0-6.06,0.7-8.59,2.34
						c-3.11,2.01-5.33,5.54-5.25,9.23c0.08,3.55,2.14,6.71,4.17,9.86c-3.63,3.11-7.5,5.93-11.41,8.7c-1.27-1.62-2.57-3.27-4.28-4.43
						c-1.73-1.18-3.81-1.75-5.89-1.75c-2.25,0-4.51,0.66-6.36,1.94c-3.57,2.47-5.52,7-5.26,11.52c-4.35-0.34-8.67-0.91-13.14-1.81
						c0.47-3.25-0.09-6.65-1.57-9.58c-0.62-1.23-1.41-2.39-2.49-3.24c-0.86-0.68-1.87-1.15-2.92-1.49
						c-1.37-0.44-2.81-0.66-4.26-0.66c-2.98,0-6.01,0.91-8.59,2.6c-2.48-3.73-4.89-7.51-7.4-11.57c2.08-1.67,3.91-3.72,4.98-6.16
						c1.07-2.44,1.31-5.32,0.29-7.78c-0.91-2.19-2.74-3.89-4.78-5.08c-2.05-1.19-4.32-1.92-6.72-2.78c0.12-4.31,0.5-8.61,1.28-12.63
						c2.81-0.17,5.66-0.7,8.13-2.06c2.47-1.36,4.54-3.63,5.18-6.37c0.62-2.66-0.13-5.43-1.11-7.98c-0.46-1.19-1.01-2.41-2.3-3.29
						c2.54-2.21,5.16-4.33,8.09-6.32c1.51,1.6,3.78,2.18,5.93,2.65c1.31,0.29,2.64,0.56,3.98,0.6c0.12,0,0.24,0.01,0.36,0.01
						c3.15,0,6.26-1.31,8.57-3.45C210.56,170.34,212.13,167.27,212.79,163.84 M216.8,229.11c1.63,0,3.26-0.24,4.83-0.74
						c2-0.64,3.88-1.66,5.58-2.91c2.92-2.14,5.34-4.98,6.83-8.28c2.79-6.17,1.97-13.83-2.07-19.27c-3.64-4.91-9.76-7.85-15.04-7.85
						c-0.57,0-1.13,0.03-1.67,0.1c-6.24,0.8-12,4.76-14.97,10.3c-2.98,5.54-3.1,12.53-0.32,18.17
						C203.05,224.88,209.93,229.11,216.8,229.11 M211.17,161.71l-0.34,1.75c-0.6,3.12-2,5.76-4.03,7.63
						c-2.01,1.86-4.64,2.92-7.22,2.92c-0.1,0-0.2,0-0.29,0c-1.15-0.04-2.32-0.27-3.62-0.56c-1.96-0.43-3.81-0.91-4.91-2.07
						l-1.17-1.24l-1.41,0.96c-2.69,1.83-5.32,3.88-8.28,6.46l-1.95,1.7l2.14,1.46c0.75,0.51,1.12,1.2,1.56,2.36
						c0.76,1.97,1.56,4.52,1.03,6.81c-0.46,1.99-2.03,3.89-4.19,5.07c-1.89,1.04-4.28,1.63-7.29,1.82l-1.55,0.09l-0.3,1.52
						c-0.74,3.8-1.18,8.16-1.32,12.96l-0.04,1.45l1.37,0.49l0.89,0.32c1.99,0.7,3.86,1.36,5.49,2.3c1.34,0.78,3.11,2.13,3.94,4.12
						c0.76,1.82,0.66,4.08-0.27,6.2c-0.83,1.9-2.32,3.72-4.41,5.4l-1.37,1.11l0.93,1.5c2.55,4.14,4.98,7.94,7.43,11.63l1.1,1.66
						l1.66-1.09c2.23-1.46,4.89-2.27,7.49-2.27c1.27,0,2.49,0.19,3.64,0.56c0.95,0.31,1.7,0.68,2.29,1.15
						c0.72,0.58,1.36,1.42,1.95,2.58c1.3,2.57,1.79,5.55,1.37,8.4l-0.27,1.88l1.86,0.37c4.37,0.87,8.74,1.47,13.37,1.84l2.29,0.18
						l-0.13-2.29c-0.23-3.92,1.5-7.76,4.4-9.76c1.48-1.02,3.34-1.59,5.22-1.59c1.77,0,3.42,0.49,4.77,1.4
						c1.5,1.02,2.73,2.61,3.83,4.01l1.17,1.5l1.56-1.1c3.76-2.66,7.77-5.57,11.56-8.81l1.32-1.13l-0.94-1.47l-0.07-0.11
						c-1.91-2.97-3.71-5.77-3.78-8.71c-0.06-2.82,1.64-5.77,4.33-7.51c2.04-1.32,4.64-2.02,7.5-2.02c0.61,0,1.24,0.03,1.86,0.1
						l1.66,0.17l0.47-1.6c1.31-4.48,2.38-8.69,3.26-12.88l0.47-2.22l-2.26-0.18c-2.64-0.21-5.01-0.44-7.23-1.12
						c-1.62-0.49-3.86-1.46-5.35-3.3c-1.7-2.1-2.26-5.25-1.47-8.23c0.92-3.46,3.32-6.05,5.16-7.61l1.33-1.12l-0.93-1.47
						c-2.18-3.46-4.72-7.04-7.77-10.93l-1.2-1.54l-1.57,1.16c-3.02,2.24-5.88,4.36-8.97,4.51c-0.12,0.01-0.23,0.01-0.35,0.01
						c-2.53,0-5.24-1.44-7.07-3.75c-1.72-2.17-2.83-5.11-3.28-8.73l-0.03-0.23l-0.08-0.22c-0.37-0.99-1.18-1.63-2.16-1.7
						l-11.04-0.82L211.17,161.71L211.17,161.71z M216.8,227.11c-6.14,0-12.32-3.85-15.04-9.36c-2.5-5.09-2.39-11.35,0.29-16.34
						c2.68-4.99,7.84-8.54,13.47-9.26c0.46-0.06,0.93-0.09,1.42-0.09c4.91,0,10.31,2.83,13.43,7.04c3.58,4.84,4.33,11.77,1.85,17.26
						c-1.3,2.88-3.44,5.47-6.19,7.49c-1.62,1.19-3.31,2.07-5,2.61C219.68,226.89,218.26,227.11,216.8,227.11L216.8,227.11z"/>
				</g>
			</g>
		</g>
		<g>
			<g class="st5">
				<path class="st1" d="M239.05,208.2c-0.08-0.64-0.22-1.28-0.38-1.9c-0.07-0.15-0.14-0.3-0.21-0.44c-1.16-2.29-2.55-4.46-4.13-6.5
					c-0.26,0.18-0.46,0.45-0.55,0.76c-0.16,1.09,0.68,2.09,0.95,3.13c0.96,2.86,1.59,4.23,1.28,6.84c0.04,1-1.61,6.53-2.14,7.22
					c-0.62,1.22-1.34,2.39-2.17,3.48c-0.25,0.3-0.34,0.43-0.3,0.45c-0.41,0.32-0.77,0.73-1.17,1.07c-0.86,0.73-1.71,1.46-2.58,2.18
					c-0.23,0.17-0.6,0.47-0.86,0.74c0.14-0.21-0.24,0.15-0.59,0.45c-0.19,0.13-1.04,0.71-1.48,0.93c-3.01,1.06-6.14,1.65-7.8,1.74
					c-2.2,0.2-4.38-0.36-6.07-0.76c-1.21-0.35-2.27-1.55-3.57-1.3c-0.56,0.14-0.93,0.56-1.08,1.06c0.13,0.13,0.25,0.27,0.38,0.4
					c0.44,0.36,0.88,0.73,1.33,1.09c1.61,1.05,3.23,2.1,4.85,3.14c2.67,0.77,5.55,0.93,8.97,0.28c-0.06,0-0.13,0.01-0.2,0.02
					c3.6-0.76,4.72-1.24,7.35-2.61c2.3-1.37,4.15-3.36,5.57-5.61c0.04-0.06,0.08-0.13,0.12-0.19c0.01-0.01,0.01-0.01,0.01-0.02
					c1.68-2.09,2.95-4.48,3.84-7.01C239.34,214.08,239.32,211.08,239.05,208.2z"/>
			</g>
		</g>
		<g class="st5">
			<path class="st1" d="M247.81,237.63c-0.36,0.02-0.71,0.1-1.03,0.29c-0.47,0.25-0.75,0.68-1.04,1.1
				c-0.27,0.34-0.54,0.68-0.79,1.04c-0.72,0.92-0.92,1.32-2.51,2.93c-0.88,0.95-2.26,1.53-2.84,2.71c-0.01,0.02-0.02,0.04-0.03,0.07
				c-0.34,0.2-0.68,0.39-1.02,0.58c-0.63,0.4-1.47,0.59-1.91,1.22c-1.39,1.65,0.76,4.07,2.59,2.95c1.9-1.01,3.69-2.21,5.29-3.65
				c0.07-0.08,0.16-0.16,0.24-0.24c1.25-1,2.46-2.05,3.58-3.21c0.41-0.43,0.89-0.94,1.29-1.5c-0.42-0.84-0.78-1.7-1.12-2.58
				C248.27,238.78,248.03,238.2,247.81,237.63z"/>
		</g>
		<g class="st5">
			<path class="st1" d="M260.21,208.72c-0.72,2.78-1.54,5.54-2.43,8.28c-0.41,1.27-0.82,2.55-1.23,3.83c0.49,0.6,1.32,0.94,2.08,0.7
				c0.04-0.01,0.07-0.03,0.11-0.05c0.66,0.93,2.4,0.82,2.73-0.48c0.16-0.6,0.42-1.2,0.63-1.8c0.13-0.07,0.26-0.14,0.38-0.24
				c0.79-0.58,1.01-1.66,1.3-2.54c0.44-1.79,0.67-3.62,0.75-5.45c0-0.11,0.01-0.22,0.02-0.33
				C263.09,210.02,261.64,209.38,260.21,208.72z"/>
		</g>
		<g>
			<path class="st1" d="M216.62,259.93c-0.03,0-0.05,0-0.08,0c-4.59-0.36-8.92-0.96-13.25-1.82c-0.51-0.1-0.85-0.58-0.77-1.09
				c0.44-3.05-0.08-6.25-1.47-9.01c-0.66-1.3-1.38-2.25-2.22-2.92c-0.68-0.54-1.54-0.98-2.61-1.32c-3.87-1.25-8.36-0.57-12.01,1.83
				c-0.45,0.29-1.05,0.17-1.34-0.28c-2.44-3.68-4.87-7.47-7.41-11.6c-0.26-0.42-0.16-0.96,0.22-1.27c2.22-1.79,3.8-3.74,4.7-5.79
				c1.04-2.38,1.15-4.94,0.28-7.01c-0.94-2.26-2.9-3.76-4.38-4.62c-1.71-1-3.63-1.67-5.66-2.39l-0.89-0.31
				c-0.4-0.14-0.66-0.52-0.65-0.94c0.14-4.74,0.57-9.04,1.3-12.79c0.08-0.44,0.45-0.76,0.9-0.78c3.17-0.19,5.69-0.83,7.72-1.94
				c2.41-1.33,4.17-3.47,4.7-5.74c0.6-2.56-0.26-5.3-1.07-7.41c-0.42-1.08-0.88-2.11-1.94-2.84c-0.25-0.17-0.4-0.44-0.42-0.75
				c-0.02-0.3,0.1-0.59,0.33-0.79c2.93-2.55,5.53-4.58,8.18-6.39c0.39-0.27,0.92-0.21,1.25,0.14c1.3,1.37,3.31,1.9,5.44,2.36
				c1.35,0.3,2.57,0.54,3.8,0.58c2.95,0.09,5.95-1.07,8.24-3.19c2.19-2.03,3.69-4.86,4.34-8.19c0.09-0.48,0.53-0.82,1.03-0.78
				l11.04,0.82c0.58,0.04,1.04,0.42,1.28,1.04c0.03,0.07,0.04,0.14,0.05,0.22c0.48,3.81,1.65,6.91,3.5,9.24
				c2.14,2.7,5.31,4.28,8.28,4.13c3.4-0.17,6.51-2.48,9.53-4.72c0.42-0.31,1.02-0.23,1.34,0.18c3.03,3.87,5.55,7.42,7.71,10.85
				c0.26,0.41,0.17,0.95-0.2,1.26c-1.96,1.65-4.5,4.4-5.49,8.13c-0.88,3.29-0.24,6.79,1.66,9.14c1.31,1.62,3.33,2.87,5.85,3.64
				c2.32,0.7,4.74,0.94,7.45,1.16c0.28,0.02,0.53,0.16,0.7,0.39c0.17,0.22,0.23,0.51,0.17,0.78c-0.88,4.17-1.94,8.36-3.24,12.81
				c-0.13,0.45-0.57,0.74-1.03,0.69c-3.78-0.39-7.34,0.35-10.03,2.08c-2.99,1.93-4.87,5.22-4.8,8.39c0.07,3.23,1.95,6.15,3.94,9.24
				l0.07,0.11c0.26,0.41,0.18,0.95-0.18,1.26c-3.76,3.22-7.74,6.11-11.48,8.76c-0.42,0.3-1.01,0.21-1.33-0.2
				c-1.14-1.46-2.43-3.11-4.06-4.22c-3.18-2.17-7.87-2.09-11.16,0.19c-3.19,2.2-5.09,6.39-4.84,10.67c0.02,0.28-0.09,0.55-0.29,0.75
				C217.12,259.83,216.87,259.93,216.62,259.93z M204.55,256.37c3.62,0.69,7.26,1.2,11.07,1.53c0.07-4.59,2.19-8.84,5.7-11.26
				c3.99-2.76,9.48-2.84,13.36-0.2c1.58,1.08,2.86,2.57,3.92,3.9c3.26-2.32,6.68-4.82,9.94-7.56c-1.92-2.99-3.78-6.1-3.86-9.64
				c-0.09-3.83,2.15-7.78,5.69-10.07c2.86-1.84,6.55-2.7,10.47-2.45c1.08-3.74,1.98-7.29,2.75-10.82c-2.38-0.21-4.58-0.48-6.75-1.14
				c-2.89-0.88-5.25-2.36-6.8-4.27c-2.29-2.82-3.06-6.98-2.03-10.86c0.82-3.1,2.71-6.04,5.48-8.55c-1.9-2.96-4.01-5.93-6.57-9.24
				c-3.01,2.22-6.15,4.34-9.82,4.53c-3.58,0.19-7.38-1.68-9.9-4.86c-2-2.52-3.29-5.81-3.85-9.79l-9.79-0.73
				c-0.81,3.38-2.44,6.27-4.75,8.4c-2.67,2.46-6.18,3.82-9.62,3.7c-1.4-0.04-2.76-0.32-4.16-0.63c-2.06-0.45-4.19-1.01-5.82-2.35
				c-2.11,1.47-4.21,3.11-6.5,5.07c0.88,0.91,1.35,1.98,1.72,2.95c0.91,2.36,1.86,5.47,1.15,8.55c-0.66,2.84-2.72,5.39-5.66,7
				c-2.12,1.16-4.67,1.86-7.78,2.12c-0.59,3.28-0.96,6.99-1.11,11.04l0.22,0.08c2.12,0.75,4.13,1.45,6,2.54
				c1.74,1.01,4.05,2.79,5.19,5.55c1.07,2.56,0.96,5.68-0.3,8.54c-0.93,2.13-2.48,4.13-4.6,5.97c2.19,3.54,4.3,6.84,6.42,10.05
				c3.98-2.3,8.72-2.88,12.85-1.54c1.3,0.42,2.36,0.96,3.22,1.65c1.07,0.85,1.96,2.02,2.75,3.57
				C204.21,249.96,204.83,253.21,204.55,256.37z"/>
		</g>
		<g>
			<path class="st1" d="M216.13,221.06c-3.27,0-6.58-1.81-8.43-4.73c-1.95-3.08-2.26-7.25-0.83-10.9c0.97-2.47,2.65-4.53,4.72-5.82
				c2.3-1.43,5.03-1.87,7.48-1.21l0,0c2.78,0.75,4.86,1.98,6.17,3.67c1.58,2.03,2.44,4.74,2.43,7.64c-0.01,1.98-0.42,3.68-1.23,5.05
				c-0.71,1.21-1.71,2.13-2.58,2.88c-2.22,1.89-4.21,2.93-6.25,3.29C217.11,221.01,216.62,221.06,216.13,221.06z M216.79,200.05
				c-1.43,0-2.9,0.42-4.18,1.21c-1.72,1.07-3.12,2.8-3.93,4.88c-1.21,3.08-0.96,6.59,0.66,9.15c1.72,2.71,4.97,4.25,7.92,3.73
				c1.69-0.3,3.38-1.2,5.33-2.86c0.76-0.64,1.6-1.43,2.17-2.39c0.63-1.07,0.96-2.44,0.96-4.07c0.01-2.47-0.71-4.75-2.02-6.44
				c-1.05-1.34-2.78-2.35-5.14-2.98l0,0C217.99,200.12,217.4,200.05,216.79,200.05z"/>
		</g>
		<g>
			<path class="st1" d="M216.82,230.07c-7.13,0-14.42-4.29-17.73-11.01c-2.92-5.93-2.79-13.24,0.34-19.06
				c3.13-5.82,9.15-9.96,15.71-10.8l0,0c6.13-0.78,13.54,2.64,17.61,8.13c4.27,5.76,5.12,13.71,2.17,20.25
				c-1.51,3.35-3.98,6.35-7.14,8.66c-1.88,1.38-3.85,2.41-5.85,3.05C220.28,229.82,218.55,230.07,216.82,230.07z M216.97,191.02
				c-0.54,0-1.06,0.03-1.58,0.1l0,0c-5.95,0.76-11.4,4.51-14.24,9.8c-2.84,5.28-2.95,11.9-0.31,17.28
				c3.71,7.53,12.9,11.67,20.5,9.24c1.8-0.58,3.58-1.51,5.3-2.76c2.89-2.12,5.14-4.85,6.52-7.89c2.62-5.81,1.84-13.17-1.96-18.29
				C227.86,193.99,222.09,191.02,216.97,191.02z M215.26,190.16L215.26,190.16L215.26,190.16z"/>
		</g>
	</g>
	<g>
		<g>
			<path class="st0" d="M311.77,149.42l-2.13-7.01l4.49-6.31l-11.05-7.63c-1.43,2.32-2.85,4.63-4.28,6.95
				c-0.08,0.12-0.16,0.25-0.28,0.33c-0.16,0.11-0.37,0.11-0.57,0.11c-2.46-0.03-4.92-0.08-7.39-0.14c-1.21-2.3-2.39-4.48-3.72-6.57
				c-0.11-0.17-0.23-0.35-0.42-0.39c-0.19-0.04-0.38,0.06-0.55,0.16c-2.93,1.75-5.85,3.5-8.78,5.26c-0.08,0.05-0.15,0.09-0.2,0.17
				c-0.13,0.18-0.02,0.43,0.09,0.63c1.11,1.94,2.42,3.77,3.92,5.43c-1.32,2.43-2.71,4.68-4.23,6.85c-0.37,0.52-0.78,1.07-1.39,1.25
				c-0.51,0.15-1.05,0.01-1.56-0.13c-2.06-0.58-4.1-1.24-6.11-1.97c-1.72,4.04-2.05,8.65-0.92,12.89c0.17,0.33,7.81-0.76,7.81-0.76
				l4.56,7.87l-3.66,5.99l8.38,6.08l4.35-6.33l7.68,0.15l2.97,6.68l11.45-3.94l-2.77-6.85l4.12-6.65l7.77-0.62l0.24-9.43
				L311.77,149.42z M298.56,152.99c0.08,0.34-0.22,0.99-0.34,1.29c-0.11,0.26-0.22,0.51-0.38,0.75c-0.29,0.44-0.67,0.87-1.06,1.23
				c-0.82,0.76-1.73,1.31-2.78,1.69c-0.42,0.16-0.87,0.26-1.32,0.33c-0.39,0.07-0.75,0.1-1.14,0.06c-0.24-0.03-0.49-0.1-0.74-0.1
				c0.68,0-0.06,0.01-0.33-0.07c-1.18-0.33-2.33-1.29-2.91-2.36c-0.35-0.64-0.66-1.36-0.69-2.1c-0.03-0.67,0.15-1.36,0.41-1.97
				c0.37-0.88,0.79-1.75,1.34-2.54c0.61-0.88,1.38-1.8,2.36-2.28c0.99-0.49,2.06-0.57,3.02-0.21c0.4-0.18,0.86-0.24,1.24-0.1
				c0.72,0.27,1.32,0.61,1.82,1.2c0.49,0.58,0.81,1.15,1.09,1.86c0.09,0.22,0.16,0.44,0.22,0.67c0.03,0.13,0.06,0.27,0.08,0.4
				c0.03,0.21,0.06,0.42,0.09,0.63c0-0.05-0.01-0.09-0.01-0.14c-0.02-0.18-0.02-0.19,0.01-0.02c0.03,0.21,0.06,0.43,0.09,0.64
				c0.01,0.11,0.02,0.21,0.01,0.32C298.65,152.45,298.63,152.74,298.56,152.99z"/>
		</g>
		<g>
			<path class="st1" d="M278.1,157.88c-0.03,0-0.06,0-0.09-0.01c-0.17-0.05-0.27-0.23-0.22-0.4c2.19-7.46,4.77-14.89,7.68-22.1
				c0.07-0.17,0.26-0.24,0.42-0.18c0.17,0.07,0.25,0.26,0.18,0.42c-2.9,7.19-5.48,14.6-7.66,22.04
				C278.37,157.79,278.24,157.88,278.1,157.88z"/>
		</g>
		<g>
			<path class="st1" d="M281.46,159.09c-0.03,0-0.06,0-0.09-0.01c-0.17-0.05-0.27-0.23-0.22-0.4c2.02-7.05,4.69-13.95,7.94-20.52
				c0.08-0.16,0.27-0.23,0.43-0.15c0.16,0.08,0.23,0.27,0.15,0.43c-3.23,6.53-5.89,13.4-7.9,20.41
				C281.73,159,281.6,159.09,281.46,159.09z"/>
		</g>
		<g>
			<path class="st1" d="M280.2,172.58c-0.04,0-0.08-0.01-0.12-0.02c-0.17-0.07-0.24-0.26-0.17-0.42l5.56-13.36
				c0.07-0.17,0.26-0.24,0.42-0.17c0.17,0.07,0.24,0.26,0.17,0.42l-5.56,13.36C280.45,172.51,280.33,172.58,280.2,172.58z"/>
		</g>
		<g>
			<path class="st1" d="M287.5,169.72c-0.04,0-0.08-0.01-0.12-0.02c-0.17-0.07-0.25-0.26-0.18-0.42l3.1-7.67
				c0.07-0.17,0.26-0.24,0.42-0.18c0.17,0.07,0.25,0.26,0.18,0.42l-3.1,7.67C287.75,169.64,287.63,169.72,287.5,169.72z"/>
		</g>
		<g>
			<path class="st1" d="M293.3,144.43c-0.03,0-0.06,0-0.1-0.02c-0.17-0.05-0.27-0.24-0.21-0.41l1.48-4.71
				c0.05-0.17,0.23-0.26,0.41-0.21c0.17,0.05,0.27,0.24,0.21,0.41l-1.48,4.71C293.57,144.34,293.44,144.43,293.3,144.43z"/>
		</g>
		<g>
			<path class="st1" d="M299.15,145.66c-0.04,0-0.08-0.01-0.11-0.02c-0.17-0.06-0.25-0.25-0.19-0.42c1.52-4.04,3.26-8.04,5.18-11.9
				c0.08-0.16,0.28-0.23,0.43-0.15c0.16,0.08,0.23,0.27,0.15,0.43c-1.91,3.84-3.64,7.83-5.15,11.84
				C299.41,145.58,299.28,145.66,299.15,145.66z"/>
		</g>
		<g>
			<path class="st1" d="M293.3,169.79c-0.05,0-0.09-0.01-0.14-0.03c-0.16-0.08-0.23-0.27-0.15-0.43l14.12-29.81
				c0.08-0.16,0.27-0.23,0.43-0.15c0.16,0.08,0.23,0.27,0.15,0.43l-14.12,29.81C293.53,169.72,293.42,169.79,293.3,169.79z"/>
		</g>
		<g>
			<path class="st1" d="M298.94,170.99c-0.05,0-0.09-0.01-0.14-0.03c-0.16-0.08-0.23-0.27-0.16-0.43l9.48-20.28
				c0.08-0.16,0.27-0.23,0.43-0.16c0.16,0.08,0.23,0.27,0.16,0.43l-9.48,20.28C299.18,170.92,299.06,170.99,298.94,170.99z"/>
		</g>
		<g>
			<path class="st1" d="M309.05,160.84c-0.05,0-0.11-0.01-0.16-0.04c-0.16-0.09-0.21-0.28-0.13-0.44l4.17-7.54
				c0.09-0.16,0.28-0.21,0.44-0.13c0.16,0.09,0.21,0.28,0.13,0.44l-4.17,7.54C309.27,160.78,309.16,160.84,309.05,160.84z"/>
		</g>
		<g>
			<path class="st1" d="M302.05,175.1c-0.05,0-0.1-0.01-0.14-0.03c-0.16-0.08-0.22-0.27-0.14-0.43l1.88-3.77
				c0.08-0.16,0.27-0.22,0.43-0.14c0.16,0.08,0.22,0.27,0.14,0.43l-1.88,3.77C302.28,175.04,302.17,175.1,302.05,175.1z"/>
		</g>
		<g>
			<path class="st1" d="M270.16,156.13c-0.05,0-0.1-0.01-0.14-0.03c-0.16-0.08-0.23-0.27-0.15-0.43l2.56-5.25
				c0.08-0.16,0.27-0.23,0.43-0.15c0.16,0.08,0.23,0.27,0.15,0.43l-2.56,5.25C270.4,156.07,270.28,156.13,270.16,156.13z"/>
		</g>
		<g>
			<path class="st1" d="M280.92,136.35c-0.05,0-0.11-0.01-0.16-0.04c-0.16-0.09-0.21-0.28-0.12-0.44l1.88-3.36
				c0.09-0.16,0.28-0.21,0.44-0.12c0.16,0.09,0.21,0.28,0.12,0.44l-1.88,3.36C281.15,136.29,281.04,136.35,280.92,136.35z"/>
		</g>
		<g class="st5">
			<path class="st1" d="M300.81,154.39c-0.09-1.18-1.9-1.29-2.18-0.15c-0.36,1.11-0.22,0.91-1.42,2.06
				c-1.15,0.92-0.73,0.65-2.53,1.3c-1.68,0.5-1,0.4-2.42,0.39c-0.2-0.04-0.39-0.08-0.58-0.15c-0.69-0.26-0.47-0.13-1.79-0.85
				c-0.55-0.27-1.03-0.77-1.66-0.81c-1.91-0.35-2.85,2.41-1.16,3.35c3,2.04,6.01,2.97,9.44,1.28c1.77-0.96,3.05-2.58,3.7-4.48
				C300.49,155.73,300.86,155.07,300.81,154.39z"/>
		</g>
		<g class="st5">
			<path class="st1" d="M305.98,173.33c-1.12,0.4-1.52,0.68-3.64,1.05c-1,0.31-2.22,0.15-3.08,0.8c-1.8,1.27-0.31,4.21,1.79,3.58
				c2.51-0.52,5.4-0.62,7.35-2.47C309.93,174.57,307.98,172.33,305.98,173.33z"/>
		</g>
		<g class="st5">
			<path class="st1" d="M321.03,157.39c0-0.02,0.01-0.04,0.01-0.06C321.03,157.34,321.03,157.36,321.03,157.39
				c0.01-0.42-0.09-0.84-0.3-1.2c-0.87-1.61-3.41-1.35-4.02,0.32c-0.04,0.08-0.08,0.17-0.13,0.28c-0.17,0.33-0.28,0.67-0.41,1.01
				c-0.11,0.26-0.27,0.61-0.37,0.81c-0.22,0.37-0.32,0.77-0.33,1.21c0.03,2.76,3.94,3.28,4.69,0.64c0.38-0.86,0.68-1.73,0.81-2.66
				C321,157.66,321.02,157.52,321.03,157.39z"/>
		</g>
		<g>
			<path class="st1" d="M298.66,179.86c-0.39,0-0.75-0.24-0.9-0.61c-0.8-1.98-1.63-4.03-2.88-6.02c-2.37,0.27-4.75,0.14-7.01-0.08
				c-0.66,1.17-1.31,2.37-1.98,3.62c-0.39,0.74-0.8,1.49-1.22,2.27c-0.23,0.43-0.75,0.62-1.2,0.44c-3.73-1.44-6.98-3.77-9.4-6.75
				c-0.28-0.34-0.29-0.83-0.03-1.18c1.25-1.71,2.52-3.46,3.88-5.57c-1.43-1.86-2.71-4.06-3.88-6.72c-0.52,0.1-1.03,0.21-1.55,0.32
				c-1.8,0.37-3.65,0.76-5.66,1.04c-0.48,0.06-0.94-0.24-1.07-0.7c-1.15-4.16-0.83-8.85,0.95-13.96c0.16-0.47,0.66-0.75,1.15-0.62
				c2.53,0.63,5.06,1.25,7.72,1.89c1.07-2.21,2.37-4.28,3.75-6.44c-1.23-1.61-2.59-3.49-3.81-5.68c-0.22-0.4-0.14-0.9,0.2-1.2
				c2.77-2.47,6.25-4.61,10.36-6.38c0.45-0.19,0.98-0.02,1.23,0.41c1.24,2.16,2.36,4.41,3.35,6.71c2.54-0.38,5.11-0.47,7.66-0.27
				c1.16-2.18,2.38-4.43,3.89-6.78c0.27-0.42,0.81-0.56,1.26-0.34c3,1.53,5.85,3.39,8.45,5.54c0.7,0.58,1.38,1.17,2.06,1.77
				c0.35,0.31,0.79,0.69,0.94,1.29c0.07,0.27,0.02,0.56-0.14,0.79c-0.59,0.86-1.2,1.72-1.82,2.59c-0.83,1.16-1.68,2.36-2.56,3.68
				c0.75,1.82,1.51,3.69,2.21,5.57c2.19,0.21,4.96,0.63,7.94,1.83c0.35,0.14,0.58,0.47,0.61,0.84c0.24,3.84-0.28,7.35-1.58,10.72
				c-0.15,0.39-0.5,0.65-0.94,0.62l-0.86-0.03c-1.92-0.07-3.9-0.15-6,0c-0.81,1.9-2.02,3.81-3.76,5.92c1.13,1.96,2.28,4,3.29,6.39
				c0.2,0.46,0.01,1-0.44,1.24c-3.96,2.11-8.03,3.39-12.1,3.82C298.73,179.86,298.69,179.86,298.66,179.86z M295.37,171.21
				c0.32,0,0.63,0.16,0.81,0.44c1.38,2.08,2.27,4.16,3.1,6.19c3.31-0.44,6.62-1.48,9.87-3.11c-0.98-2.17-2.08-4.07-3.16-5.92
				c-0.21-0.35-0.17-0.81,0.09-1.12c2.01-2.38,3.31-4.43,4.1-6.47c0.13-0.34,0.45-0.58,0.82-0.62c2.46-0.23,4.69-0.14,6.84-0.06
				l0.15,0.01c0.96-2.73,1.36-5.57,1.25-8.64c-2.81-1.04-5.42-1.37-7.42-1.53c-0.38-0.03-0.7-0.28-0.83-0.64
				c-0.8-2.2-1.71-4.42-2.59-6.56c-0.12-0.3-0.09-0.64,0.09-0.91c1-1.51,1.96-2.86,2.88-4.16c0.48-0.68,0.95-1.34,1.41-2
				c-0.03-0.03-0.07-0.06-0.09-0.08c-0.67-0.58-1.33-1.17-2.02-1.73c-2.27-1.87-4.72-3.52-7.31-4.9c-1.39,2.22-2.53,4.37-3.64,6.46
				c-0.18,0.35-0.55,0.56-0.95,0.51c-2.85-0.28-5.73-0.18-8.55,0.31c-0.45,0.08-0.89-0.17-1.06-0.59c-0.91-2.2-1.95-4.36-3.1-6.43
				c-3.28,1.48-6.12,3.22-8.44,5.18c1.2,2.03,2.52,3.79,3.68,5.3c0.25,0.33,0.27,0.77,0.05,1.12c-1.63,2.54-3.17,4.94-4.33,7.49
				c-0.19,0.42-0.66,0.65-1.11,0.54c-2.64-0.63-5.15-1.25-7.63-1.86c-1.29,4.06-1.57,7.79-0.84,11.13c1.62-0.25,3.17-0.57,4.67-0.89
				c0.79-0.16,1.56-0.33,2.34-0.48c0.45-0.09,0.9,0.15,1.08,0.58c1.3,3.08,2.72,5.54,4.34,7.52c0.27,0.32,0.29,0.78,0.07,1.13
				c-1.37,2.17-2.64,3.95-3.87,5.64c1.96,2.24,4.47,4.05,7.32,5.27c0.27-0.51,0.54-1.01,0.8-1.5c0.79-1.47,1.53-2.85,2.32-4.22
				c0.19-0.33,0.56-0.52,0.94-0.48c2.51,0.26,5.19,0.44,7.79,0.07C295.28,171.22,295.32,171.21,295.37,171.21z"/>
		</g>
		<g>
			<path class="st1" d="M291.85,158.61c-1.05,0-2.11-0.21-3.1-0.64c-0.86-0.37-1.47-0.84-1.89-1.42c-0.57-0.79-0.7-1.73-0.76-2.46
				c-0.2-2.53,0.42-4.83,1.75-6.49c1.62-2.02,4.31-2.91,6.54-2.17c0.15,0.05,0.28,0.14,0.39,0.24c0.01,0,0.01,0,0.02,0.01
				c2.36,0.78,4.11,3.1,4.26,5.64c0.14,2.45-1.16,4.89-3.32,6.21C294.58,158.25,293.22,158.61,291.85,158.61z M292.76,147.12
				c-1.22,0-2.54,0.63-3.39,1.7c-1.02,1.27-1.49,3.09-1.33,5.13c0.04,0.48,0.12,1.08,0.4,1.48c0.21,0.29,0.56,0.54,1.08,0.77
				c1.7,0.74,3.69,0.62,5.2-0.31c1.53-0.94,2.49-2.72,2.39-4.45c-0.1-1.74-1.33-3.38-2.93-3.91l-0.18-0.06
				c-0.15-0.04-0.42-0.12-0.65-0.3C293.16,147.14,292.96,147.12,292.76,147.12z"/>
		</g>
		<g>
			<path class="st1" d="M278.1,157.88c-0.03,0-0.06,0-0.09-0.01c-0.17-0.05-0.27-0.23-0.22-0.4c2.19-7.46,4.77-14.89,7.68-22.1
				c0.07-0.17,0.26-0.24,0.42-0.18c0.17,0.07,0.25,0.26,0.18,0.42c-2.9,7.19-5.48,14.6-7.66,22.04
				C278.37,157.79,278.24,157.88,278.1,157.88z"/>
		</g>
		<g>
			<path class="st1" d="M281.46,159.09c-0.03,0-0.06,0-0.09-0.01c-0.17-0.05-0.27-0.23-0.22-0.4c2.02-7.05,4.69-13.95,7.94-20.52
				c0.08-0.16,0.27-0.23,0.43-0.15c0.16,0.08,0.23,0.27,0.15,0.43c-3.23,6.53-5.89,13.4-7.9,20.41
				C281.73,159,281.6,159.09,281.46,159.09z"/>
		</g>
		<g>
			<path class="st1" d="M280.2,172.58c-0.04,0-0.08-0.01-0.12-0.02c-0.17-0.07-0.24-0.26-0.17-0.42l5.56-13.36
				c0.07-0.17,0.26-0.24,0.42-0.17c0.17,0.07,0.24,0.26,0.17,0.42l-5.56,13.36C280.45,172.51,280.33,172.58,280.2,172.58z"/>
		</g>
		<g>
			<path class="st1" d="M287.5,169.72c-0.04,0-0.08-0.01-0.12-0.02c-0.17-0.07-0.25-0.26-0.18-0.42l3.1-7.67
				c0.07-0.17,0.26-0.24,0.42-0.18c0.17,0.07,0.25,0.26,0.18,0.42l-3.1,7.67C287.75,169.64,287.63,169.72,287.5,169.72z"/>
		</g>
		<g>
			<path class="st1" d="M293.3,144.43c-0.03,0-0.06,0-0.1-0.02c-0.17-0.05-0.27-0.24-0.21-0.41l1.48-4.71
				c0.05-0.17,0.23-0.26,0.41-0.21c0.17,0.05,0.27,0.24,0.21,0.41l-1.48,4.71C293.57,144.34,293.44,144.43,293.3,144.43z"/>
		</g>
		<g>
			<path class="st1" d="M299.15,145.66c-0.04,0-0.08-0.01-0.11-0.02c-0.17-0.06-0.25-0.25-0.19-0.42c1.52-4.04,3.26-8.04,5.18-11.9
				c0.08-0.16,0.28-0.23,0.43-0.15c0.16,0.08,0.23,0.27,0.15,0.43c-1.91,3.84-3.64,7.83-5.15,11.84
				C299.41,145.58,299.28,145.66,299.15,145.66z"/>
		</g>
		<g>
			<path class="st1" d="M293.3,169.79c-0.05,0-0.09-0.01-0.14-0.03c-0.16-0.08-0.23-0.27-0.15-0.43l14.12-29.81
				c0.08-0.16,0.27-0.23,0.43-0.15c0.16,0.08,0.23,0.27,0.15,0.43l-14.12,29.81C293.53,169.72,293.42,169.79,293.3,169.79z"/>
		</g>
		<g>
			<path class="st1" d="M298.94,170.99c-0.05,0-0.09-0.01-0.14-0.03c-0.16-0.08-0.23-0.27-0.16-0.43l9.48-20.28
				c0.08-0.16,0.27-0.23,0.43-0.16c0.16,0.08,0.23,0.27,0.16,0.43l-9.48,20.28C299.18,170.92,299.06,170.99,298.94,170.99z"/>
		</g>
		<g>
			<path class="st1" d="M309.05,160.84c-0.05,0-0.11-0.01-0.16-0.04c-0.16-0.09-0.21-0.28-0.13-0.44l4.17-7.54
				c0.09-0.16,0.28-0.21,0.44-0.13c0.16,0.09,0.21,0.28,0.13,0.44l-4.17,7.54C309.27,160.78,309.16,160.84,309.05,160.84z"/>
		</g>
		<g>
			<path class="st1" d="M302.05,175.1c-0.05,0-0.1-0.01-0.14-0.03c-0.16-0.08-0.22-0.27-0.14-0.43l1.88-3.77
				c0.08-0.16,0.27-0.22,0.43-0.14c0.16,0.08,0.22,0.27,0.14,0.43l-1.88,3.77C302.28,175.04,302.17,175.1,302.05,175.1z"/>
		</g>
		<g>
			<path class="st1" d="M270.16,156.13c-0.05,0-0.1-0.01-0.14-0.03c-0.16-0.08-0.23-0.27-0.15-0.43l2.56-5.25
				c0.08-0.16,0.27-0.23,0.43-0.15c0.16,0.08,0.23,0.27,0.15,0.43l-2.56,5.25C270.4,156.07,270.28,156.13,270.16,156.13z"/>
		</g>
		<g>
			<path class="st1" d="M280.92,136.35c-0.05,0-0.11-0.01-0.16-0.04c-0.16-0.09-0.21-0.28-0.12-0.44l1.88-3.36
				c0.09-0.16,0.28-0.21,0.44-0.12c0.16,0.09,0.21,0.28,0.12,0.44l-1.88,3.36C281.15,136.29,281.04,136.35,280.92,136.35z"/>
		</g>
		<g class="st5">
			<path class="st1" d="M300.81,154.39c-0.09-1.18-1.9-1.29-2.18-0.15c-0.36,1.11-0.22,0.91-1.42,2.06
				c-1.15,0.92-0.73,0.65-2.53,1.3c-1.68,0.5-1,0.4-2.42,0.39c-0.2-0.04-0.39-0.08-0.58-0.15c-0.69-0.26-0.47-0.13-1.79-0.85
				c-0.55-0.27-1.03-0.77-1.66-0.81c-1.91-0.35-2.85,2.41-1.16,3.35c3,2.04,6.01,2.97,9.44,1.28c1.77-0.96,3.05-2.58,3.7-4.48
				C300.49,155.73,300.86,155.07,300.81,154.39z"/>
		</g>
		<g class="st5">
			<path class="st1" d="M305.98,173.33c-1.12,0.4-1.52,0.68-3.64,1.05c-1,0.31-2.22,0.15-3.08,0.8c-1.8,1.27-0.31,4.21,1.79,3.58
				c2.51-0.52,5.4-0.62,7.35-2.47C309.93,174.57,307.98,172.33,305.98,173.33z"/>
		</g>
		<g class="st5">
			<path class="st1" d="M321.03,157.39c0-0.02,0.01-0.04,0.01-0.06C321.03,157.34,321.03,157.36,321.03,157.39
				c0.01-0.42-0.09-0.84-0.3-1.2c-0.87-1.61-3.41-1.35-4.02,0.32c-0.04,0.08-0.08,0.17-0.13,0.28c-0.17,0.33-0.28,0.67-0.41,1.01
				c-0.11,0.26-0.27,0.61-0.37,0.81c-0.22,0.37-0.32,0.77-0.33,1.21c0.03,2.76,3.94,3.28,4.69,0.64c0.38-0.86,0.68-1.73,0.81-2.66
				C321,157.66,321.02,157.52,321.03,157.39z"/>
		</g>
		<g>
			<path class="st1" d="M298.66,179.86c-0.39,0-0.75-0.24-0.9-0.61c-0.8-1.98-1.63-4.03-2.88-6.02c-2.37,0.27-4.75,0.14-7.01-0.08
				c-0.66,1.17-1.31,2.37-1.98,3.62c-0.39,0.74-0.8,1.49-1.22,2.27c-0.23,0.43-0.75,0.62-1.2,0.44c-3.73-1.44-6.98-3.77-9.4-6.75
				c-0.28-0.34-0.29-0.83-0.03-1.18c1.25-1.71,2.52-3.46,3.88-5.57c-1.43-1.86-2.71-4.06-3.88-6.72c-0.52,0.1-1.03,0.21-1.55,0.32
				c-1.8,0.37-3.65,0.76-5.66,1.04c-0.48,0.06-0.94-0.24-1.07-0.7c-1.15-4.16-0.83-8.85,0.95-13.96c0.16-0.47,0.66-0.75,1.15-0.62
				c2.53,0.63,5.06,1.25,7.72,1.89c1.07-2.21,2.37-4.28,3.75-6.44c-1.23-1.61-2.59-3.49-3.81-5.68c-0.22-0.4-0.14-0.9,0.2-1.2
				c2.77-2.47,6.25-4.61,10.36-6.38c0.45-0.19,0.98-0.02,1.23,0.41c1.24,2.16,2.36,4.41,3.35,6.71c2.54-0.38,5.11-0.47,7.66-0.27
				c1.16-2.18,2.38-4.43,3.89-6.78c0.27-0.42,0.81-0.56,1.26-0.34c3,1.53,5.85,3.39,8.45,5.54c0.7,0.58,1.38,1.17,2.06,1.77
				c0.35,0.31,0.79,0.69,0.94,1.29c0.07,0.27,0.02,0.56-0.14,0.79c-0.59,0.86-1.2,1.72-1.82,2.59c-0.83,1.16-1.68,2.36-2.56,3.68
				c0.75,1.82,1.51,3.69,2.21,5.57c2.19,0.21,4.96,0.63,7.94,1.83c0.35,0.14,0.58,0.47,0.61,0.84c0.24,3.84-0.28,7.35-1.58,10.72
				c-0.15,0.39-0.5,0.65-0.94,0.62l-0.86-0.03c-1.92-0.07-3.9-0.15-6,0c-0.81,1.9-2.02,3.81-3.76,5.92c1.13,1.96,2.28,4,3.29,6.39
				c0.2,0.46,0.01,1-0.44,1.24c-3.96,2.11-8.03,3.39-12.1,3.82C298.73,179.86,298.69,179.86,298.66,179.86z M295.37,171.21
				c0.32,0,0.63,0.16,0.81,0.44c1.38,2.08,2.27,4.16,3.1,6.19c3.31-0.44,6.62-1.48,9.87-3.11c-0.98-2.17-2.08-4.07-3.16-5.92
				c-0.21-0.35-0.17-0.81,0.09-1.12c2.01-2.38,3.31-4.43,4.1-6.47c0.13-0.34,0.45-0.58,0.82-0.62c2.46-0.23,4.69-0.14,6.84-0.06
				l0.15,0.01c0.96-2.73,1.36-5.57,1.25-8.64c-2.81-1.04-5.42-1.37-7.42-1.53c-0.38-0.03-0.7-0.28-0.83-0.64
				c-0.8-2.2-1.71-4.42-2.59-6.56c-0.12-0.3-0.09-0.64,0.09-0.91c1-1.51,1.96-2.86,2.88-4.16c0.48-0.68,0.95-1.34,1.41-2
				c-0.03-0.03-0.07-0.06-0.09-0.08c-0.67-0.58-1.33-1.17-2.02-1.73c-2.27-1.87-4.72-3.52-7.31-4.9c-1.39,2.22-2.53,4.37-3.64,6.46
				c-0.18,0.35-0.55,0.56-0.95,0.51c-2.85-0.28-5.73-0.18-8.55,0.31c-0.45,0.08-0.89-0.17-1.06-0.59c-0.91-2.2-1.95-4.36-3.1-6.43
				c-3.28,1.48-6.12,3.22-8.44,5.18c1.2,2.03,2.52,3.79,3.68,5.3c0.25,0.33,0.27,0.77,0.05,1.12c-1.63,2.54-3.17,4.94-4.33,7.49
				c-0.19,0.42-0.66,0.65-1.11,0.54c-2.64-0.63-5.15-1.25-7.63-1.86c-1.29,4.06-1.57,7.79-0.84,11.13c1.62-0.25,3.17-0.57,4.67-0.89
				c0.79-0.16,1.56-0.33,2.34-0.48c0.45-0.09,0.9,0.15,1.08,0.58c1.3,3.08,2.72,5.54,4.34,7.52c0.27,0.32,0.29,0.78,0.07,1.13
				c-1.37,2.17-2.64,3.95-3.87,5.64c1.96,2.24,4.47,4.05,7.32,5.27c0.27-0.51,0.54-1.01,0.8-1.5c0.79-1.47,1.53-2.85,2.32-4.22
				c0.19-0.33,0.56-0.52,0.94-0.48c2.51,0.26,5.19,0.44,7.79,0.07C295.28,171.22,295.32,171.21,295.37,171.21z"/>
		</g>
		<g>
			<path class="st1" d="M291.85,158.61c-1.05,0-2.11-0.21-3.1-0.64c-0.86-0.37-1.47-0.84-1.89-1.42c-0.57-0.79-0.7-1.73-0.76-2.46
				c-0.2-2.53,0.42-4.83,1.75-6.49c1.62-2.02,4.31-2.91,6.54-2.17c0.15,0.05,0.28,0.14,0.39,0.24c0.01,0,0.01,0,0.02,0.01
				c2.36,0.78,4.11,3.1,4.26,5.64c0.14,2.45-1.16,4.89-3.32,6.21C294.58,158.25,293.22,158.61,291.85,158.61z M292.76,147.12
				c-1.22,0-2.54,0.63-3.39,1.7c-1.02,1.27-1.49,3.09-1.33,5.13c0.04,0.48,0.12,1.08,0.4,1.48c0.21,0.29,0.56,0.54,1.08,0.77
				c1.7,0.74,3.69,0.62,5.2-0.31c1.53-0.94,2.49-2.72,2.39-4.45c-0.1-1.74-1.33-3.38-2.93-3.91l-0.18-0.06
				c-0.15-0.04-0.42-0.12-0.65-0.3C293.16,147.14,292.96,147.12,292.76,147.12z"/>
		</g>
	</g>
	<g>
		<g>
			<path class="st3" d="M361.25,248.62c-2.83-4.43-3.91-10.02-2.54-15.09c1.17-4.32,4.01-8.04,7.44-11.29
				c-4.01-6-8.45-11.71-13.27-17.09c-0.43-0.48-0.86-0.96-1.38-1.33c-0.81-0.59-1.87-0.97-2.9-1.69c-4.37,4.75-10.9,7.44-17.44,7.33
				c-8.49-1.06-16.13-7.29-19.04-15.42c-8.23,1.31-16.29,3.65-23.83,6.88c1.56,2.59,1.97,5.73,1.92,8.75
				c-0.05,3.27-0.61,6.58-2.03,9.52c-1.43,2.94-3.79,5.5-6.79,6.8c-1.74,0.75-3.63,1.06-5.52,1.23c-3.27,0.3-6.57,0.21-9.8-0.05
				c0,0-6.22,23.05-5.51,23.05c2.02,0.5,4.03,1.05,6.02,1.66c2.2,0.67,4.42,1.43,6.34,2.7c1.92,1.27,3.55,3.12,4.12,5.36
				c0.38,1.49,0.27,3.06,0.01,4.58c-0.93,5.5-3.79,10.64-7.97,14.33c0,0,15.39,15.27,15.64,15.12c1.74-2.59,4.64-4.12,7.42-5.55
				c1.17-0.6,2.35-1.21,3.6-1.61c4.55-1.46,9.77,0.04,13.27,3.29c3.5,3.25,5.34,8.05,5.61,12.89c5.46-0.3,10.92-0.72,16.36-1.26
				c2.38-0.24,4.85-0.52,7.06-2.29c-0.14-4.84,0.9-9.71,3-14.07c1.01-2.11,2.3-4.14,4.1-5.65c2.67-2.25,6.31-3.15,9.79-2.96
				c3.49,0.2,6.85,1.42,10.22,2.73c3.57-6.75,7.18-13.63,8.34-21.42C368.54,256.32,364.08,253.05,361.25,248.62z M334.95,250.07
				c-0.38,3.16-1.81,6.09-3.79,8.55c-1,1.24-2.16,2.3-3.44,3.25c-1.25,0.93-2.85,1.81-4.36,2.19c-1.63,0.41-3.47,0.23-5.13,0.23
				c-1.75,0-3.53-0.02-5.2-0.61c-1.59-0.57-2.96-1.59-4.18-2.75c-1.18-1.13-2.59-2.18-3.41-3.63c-3.2-5.67-2.27-13.18,1.55-18.31
				c2.04-2.74,4.92-4.82,7.93-6.4c3.25-1.7,7.08-2.3,10.63-1.27c1.09,0.32,1.47,1.26,1.33,2.14
				C332.7,236.48,335.72,243.68,334.95,250.07z"/>
		</g>
		<g>
			<g>
				<path class="st4" d="M334.56,227.39c-4.96-3.26-11.4-4.52-16.23-4c-8.38,0.9-14.59,5.17-18.98,12.36
					c-4.4,7.2-5.09,16.57-1.63,24.26c3.47,7.69,11.06,13.41,19.43,14.43c7,0.85,14.28-1.54,19.6-6.17
					c5.31-4.64,7.49-11.42,8.17-18.44C345.26,246.29,343.84,233.48,334.56,227.39z M325.06,264.27c-6.71,2.27-14.74-0.29-18.95-5.99
					c-1.24-1.68-2.18-3.62-2.52-5.69c-0.34-2.07-0.09-4.2,0.42-6.23c1.23-4.96,4.05-9.65,8.32-12.47
					c4.27-2.82,10.04-3.52,14.58-1.17c5.64,2.91,9.13,9.1,9.4,15.23C336.6,255.02,331.77,262,325.06,264.27z"/>
			</g>
		</g>
		<g class="st5">
			<path class="st1" d="M346.55,247.17c-0.28-0.84-0.56-1.68-0.86-2.52c-0.55-1.57-1.19-3.1-1.69-4.68c-0.1,0.01-0.2,0.01-0.29,0.03
				c-1.73,0.77-0.79,2.02-0.74,3.59c0.18,1.54,0.52,3.06,0.73,4.6c0.19,1.55,0.24,3.11,0.13,4.67c-0.01,0.03-0.02,0.07-0.04,0.13
				c-0.23,0.86-0.62,1.67-0.85,2.54c-1.04,3.58-1.46,4.68-3.47,7.52c-0.13,0.16-0.32,0.4-0.45,0.59c-0.15,0.27-0.74,1.08-0.92,1.33
				c-0.05,0.06-0.09,0.11-0.11,0.15c-0.09,0.11-0.17,0.22-0.27,0.33c-0.26,0.38-1.54,1.64-1.53,1.7c-1.75,1.35-1.58,1.31-3.49,2.71
				c-1.41,0.94-2.93,1.74-4.47,2.47c-1.9,0.8-4.25,1.86-7.15,2.03c-2.27,0.04-4.54,0-6.8-0.25c-3.5-0.68-4.31-1.27-7.31-2.93
				c-0.91-0.51-1.77-1.62-2.89-1.42c-0.02,0-0.03,0.01-0.05,0.02c0.81,0.88,1.62,1.75,2.45,2.61c1.06,1.1,2.14,2.16,3.23,3.23
				c3.48,1.35,7.23,2.12,10.96,1.96c2.11-0.09,4.24-0.18,6.29-0.73c3.63-0.95,7-2.77,9.91-5.13c2.12-1.94,4.45-3.71,6.2-6
				c2.5-4.13,3.68-8.95,3.71-12.54C346.93,251.84,346.82,249.52,346.55,247.17z"/>
		</g>
		<g class="st5">
			<path class="st1" d="M374.3,258.57c-0.27-1.1-1.88-1.31-2.42-0.32c-2.4,4.19-4.8,8.38-7.32,12.5c-1.05,1.65-2.4,3.16-3.15,4.98
				c-0.24,0.46-0.58,0.91-0.61,1.44c-0.32,1.56,1.59,2.79,2.92,1.96c0.51-0.26,0.73-0.78,0.99-1.26c0.22-0.22,0.43-0.45,0.6-0.7
				c2.45-3.58,3.66-7.84,5.74-11.63c1.04-1.98,2.07-3.97,3.11-5.95C374.35,259.28,374.39,258.91,374.3,258.57z"/>
		</g>
		<g class="st5">
			<path class="st1" d="M335.24,295.55c-0.96-0.29-1.86,0.25-2.79,0.42c-6.17,1.71-10.33,1.79-17.4,1.57c-3.2,0.08-3.2,4.77,0,4.86
				c5.38,0.15,10.85,0.22,16.09-1.13c1.24-0.29,2.47-0.57,3.69-0.91c0.74-0.19,1.48-0.55,1.86-1.25
				C337.51,297.8,336.74,295.95,335.24,295.55z"/>
		</g>
		<g>
			<path class="st1" d="M314.19,303.63c-0.51,0-0.94-0.4-0.97-0.92c-0.26-4.61-2.34-9.06-5.72-12.22c-1.4-1.31-3.64-2.93-6.29-3.19
				c-2.29-0.22-4.61,0.57-6.78,1.41c-3.41,1.31-6.86,2.97-9.01,6.27c-0.15,0.23-0.38,0.38-0.65,0.43c-0.27,0.05-0.54-0.02-0.75-0.19
				c-6.65-5.08-11.86-10.11-15.92-15.38c-0.32-0.41-0.25-1.01,0.15-1.34c4.02-3.33,6.86-8.18,7.8-13.32
				c0.37-2.02,0.34-3.58-0.08-4.91c-0.75-2.34-2.83-4.31-6.36-6.01c-3.18-1.53-6.66-2.6-10.34-3.18c-0.26-0.04-0.49-0.18-0.64-0.39
				c-0.15-0.21-0.21-0.47-0.17-0.73c1.31-7.84,3.54-15.74,6.62-23.5c0.19-0.49,0.74-0.73,1.23-0.56c4.16,1.48,14.55,1.62,18.78-3.42
				c7.01-8.36,3.69-17.93,2.51-20.66c-0.21-0.48,0-1.04,0.47-1.26c4-1.92,10.68-3.87,17.75-5.93c2.18-0.64,4.41-1.29,6.64-1.96
				c0.34-0.1,0.71-0.01,0.96,0.24c0.25,0.25,0.35,0.61,0.26,0.95c-0.41,1.47,3.45,8.85,9.48,11.94c13.83,7.08,22.6-1.77,24.96-4.66
				c0.17-0.21,0.43-0.34,0.71-0.35c0.27-0.01,0.54,0.09,0.74,0.29c6.78,6.86,12.53,13.68,17.58,20.83c0.31,0.44,0.21,1.04-0.23,1.35
				c-5.86,4.22-8.89,12.09-7.36,19.14c1.52,6.99,7.49,12.98,14.86,14.88c0.26,0.07,0.47,0.23,0.6,0.46c0.13,0.23,0.16,0.5,0.09,0.75
				c-2.35,7.92-5.72,15.66-9.74,22.37c-0.25,0.42-0.77,0.58-1.22,0.39c-5.3-2.29-10.44-4.21-15.18-2.58
				c-3.45,1.19-6.35,4.29-7.94,8.52c-1.21,3.21-1.6,6.71-2.01,10.4c-0.09,0.78-0.18,1.57-0.27,2.37c-0.05,0.41-0.36,0.75-0.77,0.84
				c-8.25,1.69-16.03,2.62-23.76,2.82C314.21,303.63,314.2,303.63,314.19,303.63z M300.43,285.33c0.32,0,0.65,0.01,0.97,0.05
				c2.53,0.25,5.1,1.53,7.43,3.7c3.51,3.28,5.75,7.82,6.25,12.59c7.1-0.24,14.26-1.1,21.81-2.62c0.06-0.56,0.13-1.11,0.19-1.65
				c0.43-3.82,0.83-7.43,2.12-10.87c1.8-4.77,5.12-8.3,9.13-9.67c5.13-1.76,10.59,0.09,15.79,2.29c3.59-6.14,6.62-13.1,8.82-20.26
				c-7.61-2.35-13.7-8.7-15.3-16.08c-1.62-7.47,1.39-15.78,7.35-20.55c-4.67-6.53-9.95-12.79-16.09-19.07
				c-3.01,3.27-12.55,11.56-26.64,4.34c-5.45-2.79-9.8-9.09-10.46-12.64c-1.83,0.54-3.65,1.08-5.44,1.6
				c-6.52,1.9-12.7,3.7-16.63,5.43c1.46,3.82,3.94,13.35-3.16,21.8c-4.57,5.45-14.89,5.67-20.02,4.28
				c-2.73,7.05-4.75,14.21-6.01,21.31c3.51,0.63,6.84,1.7,9.91,3.18c4.04,1.95,6.44,4.29,7.36,7.17c0.53,1.65,0.57,3.5,0.15,5.85
				c-0.96,5.27-3.77,10.26-7.76,13.85c3.7,4.66,8.36,9.15,14.19,13.69c2.45-3.19,5.92-4.85,9.34-6.16
				C295.74,286.13,298.05,285.33,300.43,285.33z"/>
		</g>
		<g>
			<path class="st1" d="M319.12,266.07c-5.6,0-11.21-2.64-14.59-7.22c-1.42-1.93-2.36-4.04-2.7-6.11c-0.33-1.96-0.19-4.13,0.43-6.63
				c1.37-5.53,4.55-10.29,8.73-13.04c4.78-3.16,10.89-3.64,15.57-1.22c5.74,2.96,9.63,9.26,9.92,16.05
				c0.32,7.45-4.8,14.88-11.9,17.29C322.81,265.79,320.97,266.07,319.12,266.07z M320.04,232.26c-2.73,0-5.55,0.82-7.99,2.43
				c-3.78,2.49-6.66,6.82-7.91,11.89c-0.55,2.23-0.68,4.14-0.4,5.84c0.29,1.77,1.11,3.59,2.35,5.27c3.94,5.34,11.62,7.76,17.86,5.65
				c6.32-2.14,10.86-8.74,10.58-15.36c-0.26-6.11-3.74-11.76-8.87-14.41l0,0C323.95,232.7,322.02,232.26,320.04,232.26z"/>
		</g>
		<g>
			<path class="st1" d="M319.16,275.58c-0.98,0-1.96-0.06-2.93-0.18c-8.64-1.05-16.57-6.94-20.2-15c-3.59-7.95-2.94-17.6,1.68-25.17
				c4.65-7.6,11.28-11.92,19.71-12.82c5.51-0.59,12.13,1.04,16.87,4.15c10.1,6.63,11.09,20.32,10.79,23.35
				c-0.84,8.57-3.62,14.81-8.5,19.08C331.75,273.22,325.4,275.58,319.16,275.58z M319.75,224.24c-0.72,0-1.43,0.04-2.12,0.11l0,0
				c-7.91,0.85-13.88,4.74-18.26,11.9c-4.3,7.03-4.9,15.98-1.57,23.35c3.36,7.45,10.69,12.89,18.66,13.86
				c6.61,0.81,13.66-1.42,18.84-5.94c4.49-3.92,7.06-9.75,7.85-17.8c0.37-3.77-1.3-15.87-9.92-21.54
				C329.43,225.71,324.35,224.24,319.75,224.24z M317.53,223.39L317.53,223.39L317.53,223.39z"/>
		</g>
		<g>
			<g>
				<g>
					<path class="st2" d="M319.98,275.61c-0.99,0-1.98-0.06-2.95-0.18c-8.65-1.05-16.58-6.95-20.22-15.01
						c-3.59-7.96-2.95-17.62,1.69-25.19c4.65-7.61,11.29-11.93,19.73-12.84c0.73-0.08,1.51-0.12,2.3-0.12
						c5.06,0,10.51,1.6,14.59,4.28c10.11,6.64,11.1,20.34,10.8,23.38c-0.84,8.58-3.62,14.82-8.51,19.09
						C332.6,273.21,326.25,275.61,319.98,275.61C319.98,275.61,319.98,275.61,319.98,275.61z M320.87,232.3c-2.8,0-5.64,0.86-8,2.42
						c-3.77,2.49-6.65,6.82-7.9,11.87c-0.55,2.23-0.68,4.13-0.4,5.83c0.29,1.76,1.1,3.58,2.34,5.26c2.92,3.96,7.92,6.41,13.04,6.41
						c1.66,0,3.27-0.26,4.78-0.77c6.3-2.13,10.84-8.73,10.56-15.33c-0.26-6.09-3.74-11.74-8.85-14.38
						C324.8,232.75,322.87,232.3,320.87,232.3z"/>
					<path class="st0" d="M320.52,223.27c4.48,0,9.8,1.32,14.04,4.11c9.28,6.1,10.7,18.9,10.36,22.44
						c-0.69,7.02-2.86,13.8-8.17,18.44c-4.6,4.02-10.67,6.35-16.76,6.35c-0.95,0-1.89-0.06-2.83-0.17
						c-8.37-1.02-15.96-6.74-19.43-14.43c-3.47-7.69-2.77-17.06,1.63-24.26c4.4-7.2,10.6-11.46,18.98-12.36
						C319.03,223.31,319.76,223.27,320.52,223.27 M319.96,265.09c1.73,0,3.46-0.27,5.1-0.82c6.71-2.27,11.54-9.25,11.24-16.32
						c-0.26-6.13-3.76-12.32-9.4-15.23c-1.87-0.96-3.94-1.41-6.03-1.41c-3,0-6.04,0.92-8.55,2.58c-4.27,2.82-7.09,7.5-8.32,12.47
						c-0.5,2.04-0.76,4.17-0.42,6.23c0.34,2.07,1.28,4.01,2.52,5.69C309.29,262.58,314.64,265.09,319.96,265.09 M320.52,221.27
						c-0.83,0-1.63,0.04-2.4,0.12c-8.77,0.94-15.66,5.42-20.48,13.31c-4.8,7.86-5.47,17.87-1.74,26.12
						c3.78,8.38,12.03,14.5,21.01,15.59c1.01,0.12,2.04,0.19,3.07,0.19c6.51,0,13.1-2.49,18.08-6.84c5.02-4.38,8-11.03,8.85-19.75
						c0.31-3.15-0.73-17.4-11.25-24.31C331.42,222.93,325.76,221.27,320.52,221.27L320.52,221.27z M319.96,263.09
						c-4.81,0-9.5-2.3-12.24-6.01c-1.15-1.55-1.89-3.22-2.16-4.83c-0.26-1.56-0.13-3.33,0.38-5.43c1.19-4.82,3.92-8.93,7.48-11.28
						c2.2-1.45,4.85-2.25,7.45-2.25c1.84,0,3.61,0.41,5.12,1.19c4.81,2.48,8.07,7.8,8.31,13.54c0.26,6.18-3.98,12.35-9.88,14.35
						C323.01,262.85,321.51,263.09,319.96,263.09L319.96,263.09z"/>
				</g>
			</g>
		</g>
		<g class="st5">
			<path class="st1" d="M346.55,247.17c-0.28-0.84-0.56-1.68-0.86-2.52c-0.55-1.57-1.19-3.1-1.69-4.68c-0.1,0.01-0.2,0.01-0.29,0.03
				c-1.73,0.77-0.79,2.02-0.74,3.59c0.18,1.54,0.52,3.06,0.73,4.6c0.19,1.55,0.24,3.11,0.13,4.67c-0.01,0.03-0.02,0.07-0.04,0.13
				c-0.23,0.86-0.62,1.67-0.85,2.54c-1.04,3.58-1.46,4.68-3.47,7.52c-0.13,0.16-0.32,0.4-0.45,0.59c-0.15,0.27-0.74,1.08-0.92,1.33
				c-0.05,0.06-0.09,0.11-0.11,0.15c-0.09,0.11-0.17,0.22-0.27,0.33c-0.26,0.38-1.54,1.64-1.53,1.7c-1.75,1.35-1.58,1.31-3.49,2.71
				c-1.41,0.94-2.93,1.74-4.47,2.47c-1.9,0.8-4.25,1.86-7.15,2.03c-2.27,0.04-4.54,0-6.8-0.25c-3.5-0.68-4.31-1.27-7.31-2.93
				c-0.91-0.51-1.77-1.62-2.89-1.42c-0.02,0-0.03,0.01-0.05,0.02c0.81,0.88,1.62,1.75,2.45,2.61c1.06,1.1,2.14,2.16,3.23,3.23
				c3.48,1.35,7.23,2.12,10.96,1.96c2.11-0.09,4.24-0.18,6.29-0.73c3.63-0.95,7-2.77,9.91-5.13c2.12-1.94,4.45-3.71,6.2-6
				c2.5-4.13,3.68-8.95,3.71-12.54C346.93,251.84,346.82,249.52,346.55,247.17z"/>
		</g>
		<g class="st5">
			<path class="st1" d="M374.3,258.57c-0.27-1.1-1.88-1.31-2.42-0.32c-2.4,4.19-4.8,8.38-7.32,12.5c-1.05,1.65-2.4,3.16-3.15,4.98
				c-0.24,0.46-0.58,0.91-0.61,1.44c-0.32,1.56,1.59,2.79,2.92,1.96c0.51-0.26,0.73-0.78,0.99-1.26c0.22-0.22,0.43-0.45,0.6-0.7
				c2.45-3.58,3.66-7.84,5.74-11.63c1.04-1.98,2.07-3.97,3.11-5.95C374.35,259.28,374.39,258.91,374.3,258.57z"/>
		</g>
		<g class="st5">
			<path class="st1" d="M335.24,295.55c-0.96-0.29-1.86,0.25-2.79,0.42c-6.17,1.71-10.33,1.79-17.4,1.57c-3.2,0.08-3.2,4.77,0,4.86
				c5.38,0.15,10.85,0.22,16.09-1.13c1.24-0.29,2.47-0.57,3.69-0.91c0.74-0.19,1.48-0.55,1.86-1.25
				C337.51,297.8,336.74,295.95,335.24,295.55z"/>
		</g>
		<g>
			<path class="st1" d="M314.19,303.63c-0.51,0-0.94-0.4-0.97-0.92c-0.26-4.61-2.34-9.06-5.72-12.22c-1.4-1.31-3.64-2.93-6.29-3.19
				c-2.29-0.22-4.61,0.57-6.78,1.41c-3.41,1.31-6.86,2.97-9.01,6.27c-0.15,0.23-0.38,0.38-0.65,0.43c-0.27,0.05-0.54-0.02-0.75-0.19
				c-6.65-5.08-11.86-10.11-15.92-15.38c-0.32-0.41-0.25-1.01,0.15-1.34c4.02-3.33,6.86-8.18,7.8-13.32
				c0.37-2.02,0.34-3.58-0.08-4.91c-0.75-2.34-2.83-4.31-6.36-6.01c-3.18-1.53-6.66-2.6-10.34-3.18c-0.26-0.04-0.49-0.18-0.64-0.39
				c-0.15-0.21-0.21-0.47-0.17-0.73c1.31-7.84,3.54-15.74,6.62-23.5c0.19-0.49,0.74-0.73,1.23-0.56c4.16,1.48,14.55,1.62,18.78-3.42
				c7.01-8.36,3.69-17.93,2.51-20.66c-0.21-0.48,0-1.04,0.47-1.26c4-1.92,10.68-3.87,17.75-5.93c2.18-0.64,4.41-1.29,6.64-1.96
				c0.34-0.1,0.71-0.01,0.96,0.24c0.25,0.25,0.35,0.61,0.26,0.95c-0.41,1.47,3.45,8.85,9.48,11.94c13.83,7.08,22.6-1.77,24.96-4.66
				c0.17-0.21,0.43-0.34,0.71-0.35c0.27-0.01,0.54,0.09,0.74,0.29c6.78,6.86,12.53,13.68,17.58,20.83c0.31,0.44,0.21,1.04-0.23,1.35
				c-5.86,4.22-8.89,12.09-7.36,19.14c1.52,6.99,7.49,12.98,14.86,14.88c0.26,0.07,0.47,0.23,0.6,0.46c0.13,0.23,0.16,0.5,0.09,0.75
				c-2.35,7.92-5.72,15.66-9.74,22.37c-0.25,0.42-0.77,0.58-1.22,0.39c-5.3-2.29-10.44-4.21-15.18-2.58
				c-3.45,1.19-6.35,4.29-7.94,8.52c-1.21,3.21-1.6,6.71-2.01,10.4c-0.09,0.78-0.18,1.57-0.27,2.37c-0.05,0.41-0.36,0.75-0.77,0.84
				c-8.25,1.69-16.03,2.62-23.76,2.82C314.21,303.63,314.2,303.63,314.19,303.63z M300.43,285.33c0.32,0,0.65,0.01,0.97,0.05
				c2.53,0.25,5.1,1.53,7.43,3.7c3.51,3.28,5.75,7.82,6.25,12.59c7.1-0.24,14.26-1.1,21.81-2.62c0.06-0.56,0.13-1.11,0.19-1.65
				c0.43-3.82,0.83-7.43,2.12-10.87c1.8-4.77,5.12-8.3,9.13-9.67c5.13-1.76,10.59,0.09,15.79,2.29c3.59-6.14,6.62-13.1,8.82-20.26
				c-7.61-2.35-13.7-8.7-15.3-16.08c-1.62-7.47,1.39-15.78,7.35-20.55c-4.67-6.53-9.95-12.79-16.09-19.07
				c-3.01,3.27-12.55,11.56-26.64,4.34c-5.45-2.79-9.8-9.09-10.46-12.64c-1.83,0.54-3.65,1.08-5.44,1.6
				c-6.52,1.9-12.7,3.7-16.63,5.43c1.46,3.82,3.94,13.35-3.16,21.8c-4.57,5.45-14.89,5.67-20.02,4.28
				c-2.73,7.05-4.75,14.21-6.01,21.31c3.51,0.63,6.84,1.7,9.91,3.18c4.04,1.95,6.44,4.29,7.36,7.17c0.53,1.65,0.57,3.5,0.15,5.85
				c-0.96,5.27-3.77,10.26-7.76,13.85c3.7,4.66,8.36,9.15,14.19,13.69c2.45-3.19,5.92-4.85,9.34-6.16
				C295.74,286.13,298.05,285.33,300.43,285.33z"/>
		</g>
		<g>
			<path class="st1" d="M319.12,266.07c-5.6,0-11.21-2.64-14.59-7.22c-1.42-1.93-2.36-4.04-2.7-6.11c-0.33-1.96-0.19-4.13,0.43-6.63
				c1.37-5.53,4.55-10.29,8.73-13.04c4.78-3.16,10.89-3.64,15.57-1.22c5.74,2.96,9.63,9.26,9.92,16.05
				c0.32,7.45-4.8,14.88-11.9,17.29C322.81,265.79,320.97,266.07,319.12,266.07z M320.04,232.26c-2.73,0-5.55,0.82-7.99,2.43
				c-3.78,2.49-6.66,6.82-7.91,11.89c-0.55,2.23-0.68,4.14-0.4,5.84c0.29,1.77,1.11,3.59,2.35,5.27c3.94,5.34,11.62,7.76,17.86,5.65
				c6.32-2.14,10.86-8.74,10.58-15.36c-0.26-6.11-3.74-11.76-8.87-14.41l0,0C323.95,232.7,322.02,232.26,320.04,232.26z"/>
		</g>
		<g>
			<path class="st1" d="M319.16,275.58c-0.98,0-1.96-0.06-2.93-0.18c-8.64-1.05-16.57-6.94-20.2-15c-3.59-7.95-2.94-17.6,1.68-25.17
				c4.65-7.6,11.28-11.92,19.71-12.82c5.51-0.59,12.13,1.04,16.87,4.15c10.1,6.63,11.09,20.32,10.79,23.35
				c-0.84,8.57-3.62,14.81-8.5,19.08C331.75,273.22,325.4,275.58,319.16,275.58z M319.75,224.24c-0.72,0-1.43,0.04-2.12,0.11l0,0
				c-7.91,0.85-13.88,4.74-18.26,11.9c-4.3,7.03-4.9,15.98-1.57,23.35c3.36,7.45,10.69,12.89,18.66,13.86
				c6.61,0.81,13.66-1.42,18.84-5.94c4.49-3.92,7.06-9.75,7.85-17.8c0.37-3.77-1.3-15.87-9.92-21.54
				C329.43,225.71,324.35,224.24,319.75,224.24z M317.53,223.39L317.53,223.39L317.53,223.39z"/>
		</g>
	</g>
	<g>
		<path class="st1" d="M367.5,182.93c-0.03,0-0.07,0-0.1-0.01c-0.53-0.06-0.92-0.53-0.87-1.07c0.89-8.58-0.55-17.25-4.17-25.08
			c-0.23-0.49-0.01-1.06,0.47-1.29c0.49-0.23,1.06-0.01,1.29,0.47c3.77,8.14,5.27,17.17,4.34,26.09
			C368.41,182.56,367.99,182.93,367.5,182.93z"/>
	</g>
	<g>
		<path class="st1" d="M232.14,308.53c-0.06,0-0.13-0.01-0.19-0.02c-9.85-1.94-19.13-6.98-26.12-14.18c-0.37-0.38-0.37-1,0.02-1.37
			c0.38-0.37,1-0.36,1.37,0.02c6.72,6.92,15.64,11.76,25.11,13.63c0.53,0.1,0.87,0.61,0.77,1.14
			C233,308.21,232.6,308.53,232.14,308.53z"/>
	</g>
</g>
</svg>
