<svg id="Capa_1" data-name="Capa 1" xmlns="http://www.w3.org/2000/svg" xmlns:xlink="http://www.w3.org/1999/xlink" viewBox="0 0 387.53 416.2"><defs><style>.cls-1,.cls-2{opacity:0.15;}.cls-1{fill:url(#åçûìßííûé_ãðàäèåíò_4);}.cls-2{fill:url(#åçûìßííûé_ãðàäèåíò_4-2);}.cls-3{fill:url(#åçûìßííûé_ãðàäèåíò_4-3);}.cls-4{fill:#dfba1e;}.cls-5{fill:#6c651d;}.cls-6{fill:#36360b;}.cls-7{fill:#3b3b0e;}.cls-8{fill:#8e841f;}.cls-17,.cls-18,.cls-9{fill:none;stroke:#caba9f;stroke-linecap:round;stroke-linejoin:round;stroke-width:0.3px;}.cls-9{stroke-dasharray:0.6;}.cls-10{fill:#5b581c;}.cls-11{fill:#fcc107;}.cls-12{fill:#171a00;}.cls-13{fill:#272802;}.cls-14{fill:#3a2313;}.cls-15{fill:#2f1b0b;}.cls-16{fill:#422918;}.cls-18{stroke-dasharray:0.61 0.61;}.cls-19{fill:#d7a07a;}.cls-20{fill:#e2a780;}.cls-21{fill:#4d4b17;}.cls-22{fill:#877e27;}.cls-23{fill:#0086b0;}.cls-24{fill:#057293;}.cls-25{fill:#e1ae09;}.cls-26{fill:#efb808;}.cls-27{fill:#e43b5e;}.cls-28{fill:#fff;}</style><linearGradient id="åçûìßííûé_ãðàäèåíò_4" x1="193.77" y1="-4.14" x2="193.77" y2="394.36" gradientUnits="userSpaceOnUse"><stop offset="0" stop-color="#3cb6e9"/><stop offset="1" stop-color="#3971b6"/></linearGradient><linearGradient id="åçûìßííûé_ãðàäèåíò_4-2" x1="193.77" y1="-4.14" x2="193.77" y2="394.36" xlink:href="#åçûìßííûé_ãðàäèåíò_4"/><linearGradient id="åçûìßííûé_ãðàäèåíò_4-3" x1="197.72" y1="297.92" x2="197.72" y2="405.02" xlink:href="#åçûìßííûé_ãðàäèåíò_4"/></defs><circle class="cls-1" cx="193.77" cy="193.77" r="193.77"/><circle class="cls-2" cx="193.77" cy="193.77" r="144.25"/><polygon class="cls-3" points="202 383.85 202 312.34 193.44 312.34 193.44 383.85 109.82 383.85 109.82 389.88 285.63 389.88 285.63 383.85 202 383.85"/><path class="cls-4" d="M342,193.22c0,80.14-65.5,145.63-146.29,145.1-82.09-.54-147.72-65.56-146.29-145.1,1.43-80.12,65.5-145.1,146.29-145.1S342,113.08,342,193.22Z"/><path class="cls-5" d="M301.6,293.63S268.4,340.54,189,338.32c0,0-51.83,2.08-99-44.69Z"/><path class="cls-5" d="M89.2,262.1c0-26.51,23.35-50.54,28.69-56.59,6.2-7,24.4-18.11,42.07-20.9l11.72,2.62a12.67,12.67,0,0,1,2.5,17.87s-29.73,23.67-43,50Z"/><path class="cls-5" d="M301.6,263.84c0-26.51-23.35-50.54-28.69-56.59-6.2-7-27.94-20.95-45.61-23.74L219.12,189a12.67,12.67,0,0,0-2.5,17.88s29.73,23.66,43,50Z"/><path class="cls-5" d="M257.4,293.63v-74a36.57,36.57,0,0,0-36.76-36.37H169.75A36.57,36.57,0,0,0,133,219.66v74Z"/><path class="cls-6" d="M259.46,325.19l.22-70.55c-14.56-13.24-24.12-43.16-22.36-69.24a69.8,69.8,0,0,0-13.54-1.89c.7,7.31-2.73,15-6,21.49-4.47,8.81-13.43,10.72-22.68,11.07-9.26-.35-18.22-2.26-22.68-11.07-3.3-6.49-6.72-14.18-6-21.49-3.34,0-10.83,2.05-13.2,2.79,1.76,26.08-7.51,53.35-22.06,66.6l1,71c23.14,10,39,14.18,59,14.39C214.44,339,241.93,334.07,259.46,325.19Z"/><path class="cls-7" d="M221.57,185.82c0,3.87-12,7-26.82,7s-26.82-3.14-26.82-7,12-7,26.82-7S221.57,182,221.57,185.82Z"/><path class="cls-7" d="M220.84,194.41c-4,.34-8.14.59-12.19.88,3.68-.73,7.31-1.42,10.78-1.93a.78.78,0,0,0,.66-.87c-.44-3.44-4.42-7.7-4.69-11.41.8,3.94,5.34,8.55,6.1,12.46A.71.71,0,0,1,220.84,194.41Z"/><path class="cls-7" d="M210.87,202.52c-2.31.51-4.68,1-7,1.48,2.08-.72,4.13-1.41,6.1-2a.46.46,0,0,0,.32-.55c-.54-2-1-4.06-1.47-6.19.79,2.22,1.61,4.47,2.37,6.69A.42.42,0,0,1,210.87,202.52Z"/><path class="cls-7" d="M168.67,194.41c4,.34,8.13.59,12.18.88-3.68-.73-7.31-1.42-10.78-1.93a.78.78,0,0,1-.66-.87c.44-3.44,4.42-7.7,4.7-11.41-.81,3.94-5.35,8.55-6.11,12.46A.71.71,0,0,0,168.67,194.41Z"/><path class="cls-7" d="M178.64,202.52c2.3.51,4.67,1,7,1.48-2.08-.72-4.13-1.41-6.1-2a.46.46,0,0,1-.32-.55c.54-2,1-4.06,1.47-6.19-.79,2.22-1.61,4.47-2.37,6.69A.42.42,0,0,0,178.64,202.52Z"/><path class="cls-8" d="M149.74,282.61a5.49,5.49,0,0,0,5.52,5.46h15.35a5.49,5.49,0,0,0,5.52-5.46V250a5.49,5.49,0,0,0-5.52-5.47H155.26a5.49,5.49,0,0,0-5.52,5.47Z"/><path class="cls-9" d="M151.41,280.54a4.8,4.8,0,0,0,4.83,4.77h13.39a4.79,4.79,0,0,0,4.82-4.77V252.09a4.79,4.79,0,0,0-4.82-4.77H156.24a4.8,4.8,0,0,0-4.83,4.77Z"/><rect class="cls-10" x="149.74" y="258.14" width="26.39" height="5.12"/><rect class="cls-10" x="149.74" y="274.19" width="26.39" height="3.98"/><path class="cls-5" d="M148.7,260.3V249.52a5.85,5.85,0,0,1,6-5.73H171.2a5.85,5.85,0,0,1,6,5.73V260.3Z"/><path class="cls-6" d="M161.66,252.59h2.55a.15.15,0,0,1,.15.15v15.12a.15.15,0,0,1-.15.15h-2.55a.16.16,0,0,1-.16-.16V252.74A.15.15,0,0,1,161.66,252.59Z"/><path class="cls-11" d="M160.69,258v5.21h4.49V258Zm4,4.61h-3.43v-4h3.43Z"/><path class="cls-12" d="M163.29,256.44a.36.36,0,0,1-.36.36.36.36,0,0,1,0-.72A.36.36,0,0,1,163.29,256.44Z"/><path class="cls-13" d="M162.7,256.56a.36.36,0,0,1,.36-.36.35.35,0,0,1,.18.06.34.34,0,0,0-.31-.18.36.36,0,0,0-.36.36.36.36,0,0,0,.18.3A.27.27,0,0,1,162.7,256.56Z"/><path class="cls-12" d="M163.29,255.17a.36.36,0,0,1-.36.36.36.36,0,1,1,0-.72A.36.36,0,0,1,163.29,255.17Z"/><path class="cls-13" d="M162.7,255.29a.36.36,0,0,1,.36-.36.28.28,0,0,1,.18.06.34.34,0,0,0-.31-.18.36.36,0,0,0-.36.36.39.39,0,0,0,.18.31A.32.32,0,0,1,162.7,255.29Z"/><path class="cls-12" d="M163.29,253.9a.36.36,0,0,1-.36.36.36.36,0,0,1,0-.72A.36.36,0,0,1,163.29,253.9Z"/><path class="cls-13" d="M162.7,254a.36.36,0,0,1,.36-.36.28.28,0,0,1,.18.06.34.34,0,0,0-.31-.18.36.36,0,0,0-.36.36.39.39,0,0,0,.18.31A.32.32,0,0,1,162.7,254Z"/><path class="cls-8" d="M182,282.61a5.49,5.49,0,0,0,5.52,5.46h15.35a5.49,5.49,0,0,0,5.52-5.46V250a5.5,5.5,0,0,0-5.52-5.47H187.52A5.49,5.49,0,0,0,182,250Z"/><path class="cls-9" d="M183.67,280.54a4.8,4.8,0,0,0,4.83,4.77h13.39a4.79,4.79,0,0,0,4.82-4.77V252.09a4.79,4.79,0,0,0-4.82-4.77H188.5a4.8,4.8,0,0,0-4.83,4.77Z"/><rect class="cls-10" x="182" y="258.14" width="26.39" height="5.12"/><rect class="cls-10" x="182" y="274.19" width="26.39" height="3.98"/><path class="cls-5" d="M181,260.3V249.52a5.84,5.84,0,0,1,5.95-5.73h16.55a5.85,5.85,0,0,1,6,5.73V260.3Z"/><path class="cls-6" d="M193.92,252.59h2.55a.16.16,0,0,1,.16.16v15.11a.15.15,0,0,1-.15.15h-2.55a.16.16,0,0,1-.16-.16V252.74A.15.15,0,0,1,193.92,252.59Z"/><path class="cls-11" d="M193,258v5.21h4.49V258Zm4,4.61h-3.43v-4h3.43Z"/><path class="cls-12" d="M195.56,256.44a.37.37,0,1,1-.37-.36A.37.37,0,0,1,195.56,256.44Z"/><path class="cls-13" d="M195,256.56a.36.36,0,0,1,.36-.36.35.35,0,0,1,.18.06.34.34,0,0,0-.31-.18.36.36,0,0,0-.36.36.36.36,0,0,0,.18.3A.35.35,0,0,1,195,256.56Z"/><path class="cls-12" d="M195.56,255.17a.37.37,0,1,1-.37-.36A.37.37,0,0,1,195.56,255.17Z"/><path class="cls-13" d="M195,255.29a.36.36,0,0,1,.36-.36.28.28,0,0,1,.18.06.34.34,0,0,0-.31-.18.36.36,0,0,0-.36.36.39.39,0,0,0,.18.31A.41.41,0,0,1,195,255.29Z"/><path class="cls-12" d="M195.56,253.9a.37.37,0,1,1-.37-.36A.37.37,0,0,1,195.56,253.9Z"/><path class="cls-13" d="M195,254a.36.36,0,0,1,.36-.36.28.28,0,0,1,.18.06.34.34,0,0,0-.31-.18.36.36,0,0,0-.36.36.39.39,0,0,0,.18.31A.41.41,0,0,1,195,254Z"/><path class="cls-8" d="M214.26,282.61a5.49,5.49,0,0,0,5.53,5.46h15.34a5.49,5.49,0,0,0,5.52-5.46V250a5.49,5.49,0,0,0-5.52-5.47H219.79a5.5,5.5,0,0,0-5.53,5.47Z"/><path class="cls-9" d="M215.94,280.54a4.79,4.79,0,0,0,4.82,4.77h13.39a4.79,4.79,0,0,0,4.82-4.77V252.09a4.79,4.79,0,0,0-4.82-4.77H220.76a4.79,4.79,0,0,0-4.82,4.77Z"/><rect class="cls-10" x="214.26" y="258.14" width="26.39" height="5.12"/><rect class="cls-10" x="214.26" y="274.19" width="26.39" height="3.98"/><path class="cls-5" d="M213.23,260.3V249.52a5.84,5.84,0,0,1,6-5.73h16.55a5.85,5.85,0,0,1,6,5.73V260.3Z"/><path class="cls-6" d="M226.18,252.59h2.55a.16.16,0,0,1,.16.16v15.11a.15.15,0,0,1-.15.15h-2.55a.15.15,0,0,1-.15-.15V252.74A.15.15,0,0,1,226.18,252.59Z"/><path class="cls-11" d="M225.22,258v5.21h4.48V258Zm3.95,4.61h-3.43v-4h3.43Z"/><path class="cls-12" d="M227.82,256.44a.36.36,0,0,1-.36.36.36.36,0,1,1,0-.72A.36.36,0,0,1,227.82,256.44Z"/><path class="cls-13" d="M227.22,256.56a.36.36,0,0,1,.36-.36.35.35,0,0,1,.18.06.34.34,0,0,0-.3-.18.36.36,0,0,0-.36.36.35.35,0,0,0,.17.3A.35.35,0,0,1,227.22,256.56Z"/><path class="cls-12" d="M227.82,255.17a.36.36,0,0,1-.36.36.36.36,0,0,1,0-.72A.36.36,0,0,1,227.82,255.17Z"/><path class="cls-13" d="M227.22,255.29a.36.36,0,0,1,.36-.36.28.28,0,0,1,.18.06.34.34,0,0,0-.3-.18.36.36,0,0,0-.36.36.38.38,0,0,0,.17.31A.41.41,0,0,1,227.22,255.29Z"/><path class="cls-12" d="M227.82,253.9a.36.36,0,0,1-.36.36.36.36,0,0,1,0-.72A.36.36,0,0,1,227.82,253.9Z"/><path class="cls-13" d="M227.22,254a.36.36,0,0,1,.36-.36.28.28,0,0,1,.18.06.34.34,0,0,0-.3-.18.36.36,0,0,0-.36.36.38.38,0,0,0,.17.31A.41.41,0,0,1,227.22,254Z"/><path class="cls-14" d="M123.59,209.23a.56.56,0,0,1-.77.2h0a.55.55,0,0,1-.2-.77L131.37,194a.57.57,0,0,1,.77-.2h0a.56.56,0,0,1,.2.77Z"/><path class="cls-15" d="M126.26,202.07l-4.5,7.52a.82.82,0,0,0,.29,1.12.84.84,0,0,0,1.13-.29l4.5-7.52Z"/><path class="cls-14" d="M120.72,213.1a.36.36,0,0,1-.49.05l-2.53-1.48a.35.35,0,0,1-.18-.45l1.84-3.08a.36.36,0,0,1,.49,0l2.53,1.48a.36.36,0,0,1,.19.45Z"/><path class="cls-14" d="M117.93,217a.36.36,0,0,1-.49,0l-2.53-1.48a.35.35,0,0,1-.19-.45l1.85-3.08a.35.35,0,0,1,.48-.05l2.53,1.48a.35.35,0,0,1,.19.45Z"/><path class="cls-14" d="M134,222a.41.41,0,0,1-.55.16l-2.53-1.48a.4.4,0,0,1-.12-.56l2.69-4.51a.42.42,0,0,1,.56-.16l2.53,1.48a.41.41,0,0,1,.12.56Z"/><path class="cls-15" d="M133.83,214.35a.24.24,0,0,1-.33.08l-1.55-.91a.23.23,0,0,1-.08-.32l1.52-2.55a.25.25,0,0,1,.33-.09l1.55.91a.24.24,0,0,1,.09.33Z"/><path class="cls-15" d="M131.05,213.8a.41.41,0,0,1-.54.14L128,212.45a.38.38,0,0,1-.14-.53l2.49-4.15a.39.39,0,0,1,.54-.14l2.53,1.48a.4.4,0,0,1,.13.54Z"/><polygon class="cls-16" points="132.03 213.35 131.94 213.3 133.52 210.66 133.6 210.71 132.03 213.35"/><polygon class="cls-16" points="132.18 213.44 132.09 213.39 133.67 210.75 133.76 210.8 132.18 213.44"/><polygon class="cls-16" points="132.33 213.53 132.24 213.48 133.82 210.84 133.91 210.89 132.33 213.53"/><polygon class="cls-16" points="132.48 213.62 132.4 213.57 133.98 210.93 134.07 210.98 132.48 213.62"/><polygon class="cls-16" points="132.64 213.71 132.55 213.66 134.13 211.02 134.22 211.07 132.64 213.71"/><polygon class="cls-16" points="132.79 213.8 132.7 213.75 134.28 211.1 134.37 211.16 132.79 213.8"/><polygon class="cls-16" points="132.94 213.89 132.85 213.84 134.44 211.19 134.52 211.25 132.94 213.89"/><polygon class="cls-16" points="133.1 213.98 133 213.93 134.59 211.28 134.68 211.34 133.1 213.98"/><polygon class="cls-16" points="133.25 214.07 133.16 214.02 134.74 211.37 134.83 211.43 133.25 214.07"/><polygon class="cls-16" points="133.4 214.16 133.31 214.11 134.9 211.46 134.98 211.51 133.4 214.16"/><polygon class="cls-16" points="133.55 214.25 133.47 214.2 135.05 211.55 135.13 211.6 133.55 214.25"/><polygon class="cls-16" points="133.71 214.34 133.62 214.29 135.2 211.64 135.29 211.69 133.71 214.34"/><polygon class="cls-16" points="128.08 212.26 127.94 212.18 130.6 207.73 130.75 207.81 128.08 212.26"/><polygon class="cls-16" points="128.32 212.41 128.18 212.33 130.85 207.87 130.99 207.95 128.32 212.41"/><polygon class="cls-16" points="128.57 212.55 128.43 212.47 131.09 208.01 131.23 208.1 128.57 212.55"/><rect class="cls-16" x="127.48" y="210.34" width="5.19" height="0.16" transform="translate(-117.28 214.16) rotate(-59.14)"/><polygon class="cls-16" points="129.06 212.84 128.92 212.76 131.58 208.3 131.72 208.38 129.06 212.84"/><polygon class="cls-16" points="129.3 212.98 129.16 212.9 131.83 208.44 131.97 208.53 129.3 212.98"/><polygon class="cls-16" points="129.55 213.13 129.41 213.04 132.07 208.59 132.21 208.67 129.55 213.13"/><polygon class="cls-16" points="129.79 213.27 129.65 213.19 132.32 208.73 132.46 208.81 129.79 213.27"/><polygon class="cls-16" points="130.04 213.41 129.9 213.33 132.56 208.87 132.7 208.96 130.04 213.41"/><rect class="cls-16" x="128.95" y="211.21" width="5.19" height="0.16" transform="translate(-117.28 217.03) rotate(-59.42)"/><polygon class="cls-16" points="130.52 213.7 130.39 213.62 133.05 209.16 133.19 209.24 130.52 213.7"/><polygon class="cls-16" points="130.77 213.84 130.63 213.76 133.3 209.31 133.44 209.39 130.77 213.84"/><path class="cls-16" d="M123.68,237.78a2,2,0,0,1-2.7.68L108.31,231a1.94,1.94,0,0,1-.69-2.68l12.46-20.82a2,2,0,0,1,2.7-.68l12.68,7.42a2,2,0,0,1,.69,2.68Z"/><polygon class="cls-14" points="121.47 236.86 109.5 229.85 116.31 218.45 128.29 225.47 121.47 236.86"/><polygon class="cls-15" points="121.43 236.07 110.21 229.5 116.35 219.24 127.57 225.81 121.43 236.07"/><polygon class="cls-15" points="117.9 217.64 117.33 217.31 122.81 208.16 123.37 208.5 117.9 217.64"/><polygon class="cls-15" points="118.89 218.22 118.33 217.89 123.8 208.75 124.37 209.08 118.89 218.22"/><polygon class="cls-15" points="119.89 218.8 119.32 218.47 124.79 209.33 125.36 209.66 119.89 218.8"/><polygon class="cls-15" points="120.88 219.38 120.31 219.05 125.78 209.91 126.35 210.24 120.88 219.38"/><polygon class="cls-15" points="121.87 219.96 121.3 219.63 126.78 210.49 127.34 210.82 121.87 219.96"/><polygon class="cls-15" points="122.86 220.54 122.3 220.21 127.77 211.07 128.33 211.4 122.86 220.54"/><polygon class="cls-15" points="123.85 221.13 123.29 220.79 128.76 211.65 129.33 211.98 123.85 221.13"/><polygon class="cls-15" points="124.85 221.71 124.28 221.37 129.75 212.23 130.32 212.56 124.85 221.71"/><polygon class="cls-15" points="125.84 222.29 125.27 221.96 130.74 212.81 131.31 213.15 125.84 222.29"/><polygon class="cls-15" points="126.83 222.87 126.26 222.54 131.73 213.4 132.3 213.73 126.83 222.87"/><polygon class="cls-15" points="127.82 223.45 127.26 223.12 132.72 213.98 133.29 214.31 127.82 223.45"/><polygon class="cls-15" points="128.81 224.03 128.25 223.7 133.72 214.56 134.28 214.89 128.81 224.03"/><polygon class="cls-14" points="123.23 208.73 123.37 208.5 122.81 208.16 117.33 217.31 117.56 217.44 122.89 208.53 123.23 208.73"/><polygon class="cls-14" points="124.22 209.32 124.37 209.08 123.8 208.75 118.33 217.89 118.55 218.02 123.88 209.12 124.22 209.32"/><polygon class="cls-14" points="125.22 209.9 125.36 209.66 124.79 209.33 119.32 218.47 119.54 218.6 124.87 209.7 125.22 209.9"/><polygon class="cls-14" points="126.21 210.48 126.35 210.24 125.78 209.91 120.31 219.05 120.53 219.18 125.86 210.28 126.21 210.48"/><polygon class="cls-14" points="127.2 211.06 127.34 210.82 126.78 210.49 121.3 219.63 121.53 219.76 126.86 210.86 127.2 211.06"/><polygon class="cls-14" points="128.19 211.64 128.33 211.4 127.77 211.07 122.3 220.21 122.52 220.34 127.85 211.44 128.19 211.64"/><polygon class="cls-14" points="129.18 212.22 129.33 211.98 128.76 211.65 123.29 220.79 123.51 220.92 128.84 212.02 129.18 212.22"/><polygon class="cls-14" points="130.17 212.8 130.32 212.56 129.75 212.23 124.28 221.37 124.5 221.5 129.83 212.6 130.17 212.8"/><polygon class="cls-14" points="131.17 213.38 131.31 213.15 130.74 212.81 125.27 221.96 125.49 222.09 130.82 213.18 131.17 213.38"/><polygon class="cls-14" points="132.16 213.97 132.3 213.73 131.73 213.4 126.26 222.54 126.49 222.67 131.82 213.76 132.16 213.97"/><polygon class="cls-14" points="133.15 214.55 133.29 214.31 132.72 213.98 127.26 223.12 127.48 223.25 132.81 214.35 133.15 214.55"/><polygon class="cls-14" points="134.14 215.13 134.28 214.89 133.72 214.56 128.25 223.7 128.47 223.83 133.8 214.93 134.14 215.13"/><path class="cls-8" d="M130,227.93l-9,15.46a4,4,0,0,1-5.5,1.46l-9.69-5.54a4,4,0,0,1-1.47-5.44l9-15.46"/><polygon class="cls-10" points="128.12 231.17 130.01 227.93 113.34 218.41 111.45 221.64 128.12 231.17"/><polygon class="cls-10" points="122.62 240.59 124.09 238.07 107.42 228.55 105.95 231.06 122.62 240.59"/><line class="cls-17" x1="113.72" y1="220.87" x2="113.56" y2="221.13"/><path class="cls-18" d="M113.26,221.66l-6.94,11.88a3.64,3.64,0,0,0,1.35,5l10.52,6"/><line class="cls-17" x1="118.45" y1="244.69" x2="118.72" y2="244.84"/><path class="cls-19" d="M215.23,185.21s-.54,5.15-20.42,5.15-20.42-5.15-20.42-5.15V171.54h40.84Z"/><path class="cls-20" d="M230.36,105c0-16.2-15.88-24-15.88-24s-7.22-3.55-19.65-3.55S175.15,81,175.15,81s-15.88,7.82-15.88,24-2.27,38,0,49.73S170.21,175.09,182,181a31.7,31.7,0,0,0,12.85,3.26A31.72,31.72,0,0,0,207.67,181c11.74-5.91,20.42-14.52,22.69-26.25S230.36,121.23,230.36,105Z"/><path class="cls-20" d="M226,138.24s1.41-5.55,5.34-4.37,3,8.3,2.22,11.48a11.56,11.56,0,0,1-2.61,5.07Z"/><path class="cls-20" d="M163.49,138.24s-1.41-5.55-5.33-4.37-3,8.3-2.23,11.48a11.56,11.56,0,0,0,2.61,5.07Z"/><path class="cls-21" d="M216.36,181.67a2.44,2.44,0,0,1,.25,1.08c0,3.87-9.79,7-21.86,7s-21.86-3.13-21.86-7a2.45,2.45,0,0,1,.26-1.08c-3.28,1.16-5.22,2.59-5.22,4.15,0,3.87,12,7,26.82,7s26.82-3.14,26.82-7C221.57,184.26,219.63,182.83,216.36,181.67Z"/><path class="cls-6" d="M166.28,118.79s10.52-4.8,28.56-4.8,28.51,4.8,28.51,4.8a47.92,47.92,0,0,1,17.37,14.77c-.37-9.8-.82-19.74-.82-28.48,0-21.91-20.15-32.48-20.15-32.48s-9.15-4.8-24.92-4.8-25,4.8-25,4.8-20.14,10.57-20.14,32.48c0,8.74-.46,18.68-.83,28.48A48,48,0,0,1,166.28,118.79Z"/><path class="cls-6" d="M229.26,129.84H233c0,65.31-75.85,65.31-75.85,0h3.74C160.89,188.72,229.26,188.72,229.26,129.84Z"/><path class="cls-21" d="M206.05,170.83a24.51,24.51,0,0,1-22.25-.13,7.75,7.75,0,0,1-2.2,5.9,27.41,27.41,0,0,0,27.84-.55C207.48,175.32,206.34,173.18,206.05,170.83Z"/><path class="cls-21" d="M243,139.36c-1.9,1.51-4.93.89-6.95-1.11a58.52,58.52,0,0,0-82.38,0c-2,2-5.05,2.62-7,1.11h0c-1.89-1.49-1.66-4.87.72-7.24a67.4,67.4,0,0,1,94.85,0c2.38,2.37,2.6,5.75.71,7.24Z"/><path class="cls-5" d="M301.25,293.63l.35-31.42a12.82,12.82,0,0,0-12.74-12.92l-16.12-.2c-7.12-.09-13-1.5-13.06,5.55l-.38,39Z"/><path class="cls-5" d="M131.52,293.63l-.4-40.73c-.09-7.05-5.94-5.64-13.06-5.55l-16.12.2A12.82,12.82,0,0,0,89.2,260.47l.37,33.16Z"/><polygon class="cls-22" points="269.25 223.61 257.78 224.53 255.71 222.19 267.17 221.27 269.25 223.61"/><polygon class="cls-22" points="269.6 210.14 267.17 221.27 269.25 223.61 271.67 212.48 269.6 210.14"/><polygon class="cls-22" points="273 227.84 261.53 228.76 259.45 226.42 270.92 225.5 273 227.84"/><polygon class="cls-22" points="273.35 214.37 270.92 225.5 273 227.84 275.42 216.71 273.35 214.37"/><polygon class="cls-23" points="222.48 206.27 221.27 213.69 226.25 216.53 231.22 213.69 230.01 206.27 222.48 206.27"/><polygon class="cls-24" points="225.07 206.27 224.22 206.27 223.01 213.69 226.14 215.47 226.74 215.47 224.26 213.69 225.07 206.27"/><polygon class="cls-24" points="227.42 206.27 228.23 213.69 225.75 215.47 226.35 215.47 229.48 213.69 228.27 206.27 227.42 206.27"/><path class="cls-11" d="M224.54,217.18a1.73,1.73,0,0,0,3.41,0Z"/><path class="cls-25" d="M227,219.21a.74.74,0,0,1-.74.73h0a.74.74,0,0,1-.75-.73v-.69a.74.74,0,0,1,.75-.73h0a.74.74,0,0,1,.74.73Z"/><polygon class="cls-11" points="237.51 229.52 236.09 230.33 237.36 231.35 235.82 231.92 236.9 233.14 235.29 233.44 236.16 234.82 234.52 234.86 235.14 236.37 233.51 236.14 233.88 237.72 232.31 237.23 232.41 238.85 230.95 238.12 230.77 239.73 229.45 238.76 229.01 240.33 227.87 239.16 227.18 240.63 226.25 239.29 225.32 240.63 224.62 239.16 223.48 240.33 223.04 238.76 221.72 239.73 221.54 238.12 220.08 238.85 220.18 237.23 218.62 237.72 218.98 236.14 217.35 236.37 217.97 234.86 216.34 234.82 217.2 233.44 215.59 233.14 216.67 231.92 215.13 231.35 216.4 230.33 214.98 229.52 216.4 228.71 215.13 227.68 216.67 227.12 215.59 225.9 217.2 225.59 216.34 224.21 217.97 224.17 217.35 222.67 218.98 222.9 218.62 221.32 220.18 221.81 220.08 220.19 221.54 220.92 221.72 219.31 223.04 220.27 223.48 218.71 224.62 219.88 225.32 218.41 226.25 219.75 227.18 218.41 227.87 219.88 229.01 218.71 229.45 220.27 230.77 219.31 230.95 220.92 232.41 220.19 232.31 221.81 233.88 221.32 233.51 222.9 235.14 222.67 234.52 224.17 236.16 224.21 235.29 225.59 236.9 225.9 235.82 227.12 237.36 227.68 236.09 228.71 237.51 229.52"/><ellipse class="cls-25" cx="226.25" cy="229.52" rx="8.5" ry="8.41"/><path class="cls-11" d="M233.69,229.52a7.45,7.45,0,1,1-7.44-7.37A7.4,7.4,0,0,1,233.69,229.52Z"/><rect class="cls-26" x="223.05" y="214.7" width="6.39" height="2.48"/><rect class="cls-11" x="223.05" y="216.44" width="6.39" height="0.36"/><rect class="cls-11" x="223.05" y="215.76" width="6.39" height="0.36"/><rect class="cls-11" x="223.05" y="215.07" width="6.39" height="0.36"/><circle class="cls-27" cx="199.11" cy="384.91" r="31.28"/><path class="cls-28" d="M221.82,375.32a24.7,24.7,0,1,0,1.94,9.59A24.59,24.59,0,0,0,221.82,375.32Zm-34.69,8.83a24.19,24.19,0,0,1,.66-5.65h10.08v11.73h-10A25.48,25.48,0,0,1,187.13,384.15ZM205.3,368a25.9,25.9,0,0,1,4.21,6.74c.19.44.36.88.52,1.33h-9.68V363.38A28.48,28.48,0,0,1,205.3,368Zm-7.43-4.33V376h-9.35c.15-.43.32-.86.5-1.28a26.08,26.08,0,0,1,4.17-6.72A28.88,28.88,0,0,1,197.87,363.62Zm0,29.09V406a33.77,33.77,0,0,1-4.58-4.85,30.62,30.62,0,0,1-4.24-7.28q-.24-.58-.45-1.17Zm2.48,13.58V392.71H210c-.14.37-.28.75-.43,1.12a30.43,30.43,0,0,1-4.21,7.27A33.85,33.85,0,0,1,200.35,406.29Zm0-16.06V378.5h10.41a24.19,24.19,0,0,1,.66,5.65,25.48,25.48,0,0,1-.74,6.08Zm13-11.73h7a22.37,22.37,0,0,1,.3,11.73h-7.41a28.25,28.25,0,0,0,.67-6.08A27.22,27.22,0,0,0,213.31,378.5Zm1.47-9.26a22.35,22.35,0,0,1,4.65,6.78h-6.78a24.54,24.54,0,0,0-.86-2.3,28.27,28.27,0,0,0-4.61-7.38,29.91,29.91,0,0,0-2.92-3A22,22,0,0,1,214.78,369.24Zm-31.34,0a22,22,0,0,1,11-6,30.88,30.88,0,0,0-3,3.09,28.27,28.27,0,0,0-4.61,7.38,24.54,24.54,0,0,0-.86,2.3h-7.1A22.14,22.14,0,0,1,183.44,369.24Zm-5.56,9.26h7.37a26.57,26.57,0,0,0-.6,5.65,28.25,28.25,0,0,0,.67,6.08h-7.74a22.66,22.66,0,0,1,.3-11.73Zm5.56,22.09a22.17,22.17,0,0,1-5.09-7.88H186c.23.7.48,1.4.76,2.1a32.74,32.74,0,0,0,4.58,7.87,37,37,0,0,0,3.6,4A22.06,22.06,0,0,1,183.44,400.59Zm31.34,0a22,22,0,0,1-11.07,6,36.23,36.23,0,0,0,3.51-3.92,32.74,32.74,0,0,0,4.58-7.87c.28-.7.54-1.4.76-2.1h7.31A22,22,0,0,1,214.78,400.59Z"/></svg>