<?xml version="1.0" encoding="utf-8"?>
<!-- Generator: Adobe Illustrator 25.0.0, SVG Export Plug-In . SVG Version: 6.00 Build 0)  -->
<svg version="1.1" id="Capa_1" xmlns="http://www.w3.org/2000/svg" xmlns:xlink="http://www.w3.org/1999/xlink" x="0px" y="0px"
	 viewBox="0 0 425.2 425.2" style="enable-background:new 0 0 425.2 425.2;" xml:space="preserve">
<style type="text/css">
	.st0{opacity:0.2;}
	.st1{fill:#020203;}
	.st2{opacity:0.1294;}
	.st3{fill:#FFFFFF;}
	.st4{fill:#AD7A15;stroke:#231F20;stroke-miterlimit:10;}
	.st5{fill:#231F20;}
	.st6{fill:#E30613;}
	.st7{fill:#E52521;stroke:#010202;stroke-miterlimit:10;}
</style>
<g class="st0">
	<g>
		<path class="st1" d="M53.37,295.63v-15.46c0,0,3.11-0.87,4.72-1.69c25.55-13.06,54.05-19.62,82.62-22.29
			c28.57-2.67,57.35-1.55,86.01,0.04c10.13,0.56,20.29,1.19,30.34,1.59c16.76,4.45,34.25,5.21,51.39,7.9
			c11.5,1.8,22.84,4.47,34.17,7.14c4.62,1.09,9.7,4.65,13.64,7.57c0.52,3.98,0,9.49-0.2,13.51L53.37,295.63z"/>
		<path class="st1" d="M53.37,297.07c-0.38,0-0.75-0.15-1.02-0.42c-0.27-0.27-0.43-0.64-0.43-1.02v-15.46
			c0-0.65,0.43-1.22,1.06-1.39c0.03-0.01,2.99-0.84,4.46-1.59c23.32-11.92,51.29-19.46,83.14-22.44
			c29.47-2.75,58.75-1.49,86.22,0.03l6.79,0.38c7.74,0.44,15.73,0.89,23.53,1.21c0.11,0,0.21,0.02,0.31,0.05
			c10.93,2.9,22.41,4.25,33.51,5.55c5.82,0.68,11.84,1.39,17.73,2.31c11.57,1.81,23.11,4.53,34.28,7.16
			c4.66,1.1,9.56,4.4,14.17,7.82c0.32,0.23,0.52,0.59,0.57,0.98c0.44,3.37,0.18,7.61-0.05,11.36c-0.05,0.84-0.1,1.65-0.14,2.4
			c-0.04,0.77-0.67,1.37-1.43,1.37L53.37,297.07C53.37,297.07,53.37,297.07,53.37,297.07z M54.81,281.25v12.92l299.88-1.68
			c0.02-0.35,0.04-0.7,0.06-1.07c0.21-3.39,0.44-7.2,0.14-10.21c-4.21-3.09-8.62-6.01-12.61-6.95c-11.11-2.62-22.61-5.32-34.07-7.12
			c-5.84-0.91-11.83-1.62-17.62-2.3c-11.15-1.31-22.69-2.66-33.76-5.59c-7.77-0.32-15.73-0.77-23.42-1.21l-6.78-0.38
			c-27.36-1.52-56.52-2.77-85.79-0.04c-31.49,2.94-59.11,10.39-82.09,22.14C57.63,280.34,55.91,280.91,54.81,281.25z"/>
	</g>
	<g>
		<path class="st1" d="M303.03,240.16c17.54,14.15,38.4,28.3,53.23,40.27c-2.37,0.16-123.51,0-169.43,0
			c-41.58,0-91.9-0.84-133.47-0.26c18.14-14.4,37.06-27.82,57.54-41.14c6.49-4.16,14.19-5.94,21.79-7.25
			c22.85-3.92,46.16-4.14,69.35-4.35C235.64,227.14,273.56,230.4,303.03,240.16z"/>
		<path class="st1" d="M322.17,281.95c-19.33,0-45.76-0.02-76.49-0.04c-23-0.02-44.57-0.03-58.85-0.03
			c-15.13,0-31.1-0.11-48.01-0.22c-29.01-0.2-59-0.4-85.44-0.03c-0.01,0-0.01,0-0.02,0c-0.61,0-1.16-0.38-1.36-0.96
			c-0.21-0.58-0.02-1.23,0.46-1.62c17.49-13.88,36.34-27.36,57.65-41.22c6.79-4.35,14.75-6.16,22.34-7.46
			c23.03-3.95,46.69-4.16,69.58-4.36c39.45-0.36,75.47,4.19,101.46,12.79c0.16,0.05,0.32,0.14,0.45,0.25
			c9.11,7.35,19.09,14.68,28.74,21.77c8.93,6.56,17.36,12.75,24.49,18.5c0.46,0.37,0.65,0.99,0.47,1.56
			c-0.18,0.57-0.69,0.97-1.28,1.01C355.55,281.93,342.98,281.95,322.17,281.95z M87.01,278.52c16.99,0,34.59,0.12,51.84,0.24
			c16.9,0.11,32.87,0.22,47.99,0.22c14.28,0,35.85,0.02,58.85,0.03c41.65,0.03,92.05,0.07,106.48,0.01
			c-6.36-4.99-13.6-10.31-21.2-15.89c-9.6-7.05-19.53-14.34-28.64-21.68c-25.67-8.45-61.27-12.91-100.27-12.56
			c-22.77,0.2-46.31,0.41-69.12,4.32c-7.29,1.25-14.91,2.97-21.26,7.04c-19.87,12.93-37.61,25.53-54.08,38.42
			C67.06,278.57,76.93,278.52,87.01,278.52z"/>
	</g>
	<g>
		<g id="XMLID_2_">
			<g>
				<path class="st1" d="M305.07,137.77c0.57,33.68,1.17,68.5-3.41,101.79c-62.92,0.18-178.85,0.32-191.28-0.34
					c-2.83-36.77-3.7-74.1-2.59-110.95c0.26-8.81,2.83-13.93,7.84-15.64c25.98-3.93,54.93-3.66,82.92-3.39
					c11.01,0.11,22.39,0.21,33.38,0.06c20.28-0.28,38.56-0.32,56.92,2.01c2.94,0.37,7.24,1.08,10.63,2.95
					c2.64,1.46,4.43,4.15,4.78,7.21C304.88,126.85,304.97,132.4,305.07,137.77z"/>
				<path class="st1" d="M302.92,241c0,0-193.32,0.56-193.89-0.47c-2.91-37.35-3.81-74.86-2.69-112.3c0.2-6.51,1.62-14.6,8.95-17.01
					c36.4-5.53,77.73-2.82,116.62-3.36c19.07-0.27,38.2-0.38,57.12,2.02c3.75,0.47,7.84,1.3,11.15,3.12
					c3.08,1.69,5.12,4.82,5.52,8.31c0.62,5.44,0.72,10.95,0.81,16.43C307.1,172.44,307.69,207.31,302.92,241z M110.38,239.22
					c12.43,0.66,128.36,0.52,191.28,0.34c4.58-33.29,3.98-68.11,3.41-101.79c-0.1-5.37-0.19-10.92-0.81-16.3
					c-0.35-3.06-2.14-5.75-4.78-7.21c-3.39-1.87-7.69-2.58-10.63-2.95c-18.36-2.33-36.64-2.29-56.92-2.01
					c-10.99,0.15-22.37,0.05-33.38-0.06c-27.99-0.27-56.94-0.54-82.92,3.39c-5.01,1.71-7.58,6.83-7.84,15.64
					C106.68,165.12,107.55,202.45,110.38,239.22z"/>
				<path class="st1" d="M109.03,240.53c0.57,1.03,193.89,0.47,193.89,0.47c4.77-33.69,4.18-68.56,3.59-103.26
					c-0.09-5.48-0.19-10.99-0.81-16.43c-0.4-3.49-2.44-6.62-5.52-8.31c-3.31-1.82-7.4-2.65-11.15-3.12
					c-18.92-2.4-38.05-2.29-57.12-2.02c-38.89,0.54-80.22-2.17-116.62,3.36c-7.33,2.41-8.75,10.5-8.95,17.01
					C105.22,165.67,106.12,203.18,109.03,240.53z M139.56,242.48c-31.18-0.16-31.22-0.22-31.79-1.25c-0.11-0.18-0.17-0.38-0.18-0.59
					c-2.91-37.27-3.81-75.1-2.69-112.46c0.11-3.76,0.46-15.22,9.94-18.33c0.08-0.02,0.16-0.04,0.23-0.06
					c26.24-3.99,55.36-3.71,83.51-3.44c10.99,0.11,22.35,0.22,33.31,0.06c20.39-0.28,38.78-0.32,57.32,2.03
					c3.18,0.4,7.84,1.18,11.66,3.29c3.47,1.91,5.81,5.42,6.26,9.41c0.64,5.52,0.73,11.14,0.83,16.58
					c0.58,34.21,1.18,69.6-3.61,103.48c-0.1,0.71-0.71,1.24-1.42,1.25c-0.49,0-48.89,0.13-96.74,0.14
					c-1.91,0.01-3.81,0.01-5.67,0.01C175.05,242.6,154.57,242.56,139.56,242.48z"/>
			</g>
			<g>
			</g>
		</g>
	</g>
	<g>
		<rect x="119.11" y="121.72" class="st1" width="175.62" height="108.24"/>
		<path class="st1" d="M294.73,231.4H119.11c-0.8,0-1.45-0.65-1.45-1.44V121.72c0-0.8,0.65-1.44,1.45-1.44h175.62
			c0.8,0,1.44,0.65,1.44,1.44v108.24C296.18,230.75,295.53,231.4,294.73,231.4z M120.55,228.51h172.73V123.17H120.55V228.51z"/>
	</g>
	<g class="st2">
		<path class="st1" d="M294.05,123.83c-0.22-0.75-0.8-1.33-1.55-1.55c-0.59-0.18-1.18-0.01-1.77,0.1c-0.62,0.08-1.93,0.3-2.38,0.38
			c-0.02,0-0.03,0-0.05,0c-3.61,0.03-7.21-0.37-10.82-0.52c-3.02-0.19-6.05-0.17-9.06-0.42c-2.5-0.21-4.99-0.66-7.51-0.67
			c-19.07-0.51-38.11,0.7-57.14,1.72c-10.96,0.48-21.92-0.32-32.87-0.59c-8.13-0.37-16.27-0.63-24.4-1.03
			c-7.31-0.32-14.61-0.87-21.93-0.64c-1.76,0.13-3.83-0.26-5.19,1.13c-1.6,1.54-1.17,4.12,0.38,5.38
			c-1.45,8.02-0.56,16.31-0.71,24.43c0.05,5.38,0.25,10.77,0.31,16.15c0.01,5.05,0.12,10.09,0.83,15.09
			c0.53,3.4-0.01,6.81-0.21,10.22c0.11,9.47-0.79,18.92-0.55,28.39c0.06,1.89,0.19,3.78,0.22,5.68c-0.13,1.77,0.76,3.67,2.77,3.65
			c3.41-0.3,2.62-3.38,2.54-5.82c-0.05-2.55,0.01-5.1,0.11-7.65c0.12-4.4,0.69-8.78,0.89-13.18c0.12-5.88,0.24-11.76,0.18-17.63
			c-0.21-3.37-0.76-6.72-0.93-10.1c-0.22-6.6-0.06-13.2-0.16-19.8c0.05-8.52,0.01-17.05,0.28-25.57c0.23-2.31,0.17-2.23,0.37-3.22
			c6.92-0.06,13.83,0.48,20.75,0.66c17.45,0.41,34.9,1.48,52.36,1.4c9.32-0.29,18.62-1.11,27.93-1.57c10.74-0.32,21.48-0.91,32.22-1
			c3.62-0.23,7.18,0.48,10.78,0.67c4.52-0.03,9.04-0.38,13.56-0.43c2.9-0.03,4.83-0.46,5.6-0.62c1.43-0.32,3.13,0.16,4.36-0.71
			C293.99,125.68,294.28,124.66,294.05,123.83z"/>
	</g>
	<g class="st2">
		<path class="st1" d="M345.22,271.71c-1.4-0.68-2.85-1.21-4.29-1.79c-0.09-0.03-0.17-0.06-0.26-0.1c-0.05-0.13-0.1-0.26-0.17-0.38
			c-0.54-0.85-1.48-1.25-2.3-1.79c-1.15-0.74-2.25-1.56-3.36-2.36c-6.15-4.31-12.52-8.87-16.86-12.44c-4.3-3.83-8.3-8.23-13.5-10.86
			c-1.78-0.86-3.65-1.74-5.63-1.95c-3.25-0.11-6.51,0.37-9.76,0.47c-7.81,0.43-15.64,0.19-23.46,0.35
			c-12.27,0.22-24.52,1.11-36.78,1.17c-9.26-0.01-18.53,0.17-27.79,0.22c-6.13-0.21-12.25-0.27-18.39-0.22
			c-6.83-0.08-13.6-1.34-20.43-1.23c-1.34,0.12-2.81-0.22-4.06,0.33c-0.99,0.34-1.64,1.18-1.9,2.13c-7.98-0.62-16-0.53-23.97-1.29
			c-4-0.4-12.82-1.34-13.87-1.5c-2.43-0.32-4.85-0.76-7.3-0.84c-0.93,0.03-1.91-0.27-2.77,0.16c-2.55,0.99-1.88,5.07,1.02,5.05
			c7.52,0.31,16.9,2.62,26.29,3.29c6.08,0.52,12.18,0.55,18.27,0.88c5.37,0.38,10.72,0.9,16.08,1.41
			c12.05,1.27,26.01,3.92,41.67,5.48c12.96,1.4,26.04,1.34,38.99,2.92c9.69,0.95,23.52,4.13,35.73,5.94
			c12.96,1.89,23.4,2.87,35.09,4.87c0.01,0.01,0.03,0.01,0.04,0.02c0.29,0.09,0.58,0.13,0.87,0.14c1.93,0.34,3.9,0.7,5.92,1.1
			c2.61,0.58,5.19,1.27,7.78,1.93c0.15,0.04,0.31,0.08,0.46,0.1c0.24,0.07,0.49,0.14,0.74,0.2c0.27,0.34,0.65,0.61,1.15,0.73
			c1.4,0.54,2.8,1.09,4.21,1.62c0.56,0.18,1.13,0.49,1.72,0.34C346.44,275.66,347.01,272.66,345.22,271.71z M299.31,256.2
			c0.73,0.04,1.46,0.09,2.2,0.13c0.08,0,0.16,0.01,0.24,0.01c0.42,0.23,0.84,0.46,1.26,0.69
			C301.77,256.76,300.54,256.48,299.31,256.2z"/>
	</g>
	<g>
		<g>
			<path class="st1" d="M91.96,203.64c-1.28-4.26-2.67-7.22-7.07-10.71c-1.19-0.94-5.41-5.1-5.41-5.1s3.66-0.14,5.33-0.35
				c7.65-0.97,14.95-0.51,22.64-0.14c2.06,0.1,8.26-0.59,8.26-0.59s-4.89,6.18-6.35,8.09c-1.91,2.49-3.13,3.92-3.99,6.21
				c-0.84,2.22-0.04,4.82,1.41,6.66c1.44,1.83,3.43,3.06,5.34,4.31c9.89,6.47,19.24,15.01,23.44,26.53
				c4.2,11.53,1.75,26.45-7.98,33.2c-4.91,3.41-10.94,4.39-16.79,4.8c-7.09,0.5-14.22,0.28-21.27-0.65
				c-6.62-0.87-13.83-2.82-17.62-8.66c-2.12-3.27-2.85-7.35-2.9-11.31c-0.12-10.36,4.17-20.39,10.42-28.33
				C85.22,220.22,94.66,212.66,91.96,203.64z"/>
			<path class="st1" d="M103.37,277.44c-4.66,0-9.33-0.3-13.94-0.91c-5.76-0.76-13.9-2.51-18.07-8.95c-1.94-2.99-2.94-6.91-3-11.65
				c-0.11-9.75,3.64-19.95,10.56-28.73c1.2-1.53,2.58-3.09,3.92-4.6c5.19-5.87,10.56-11.94,8.52-18.77c-1.29-4.31-2.7-7.1-6.86-10.4
				c-1.2-0.95-5.29-4.98-5.46-5.15c-0.18-0.18-0.24-0.44-0.15-0.68c0.09-0.24,0.31-0.39,0.57-0.4c0.04,0,3.65-0.14,5.28-0.35
				c7.18-0.91,13.98-0.58,21.17-0.22l1.58,0.08c1.98,0.09,8.09-0.58,8.16-0.58c0.25-0.03,0.5,0.1,0.62,0.32
				c0.12,0.22,0.1,0.5-0.06,0.7c-0.05,0.06-4.9,6.2-6.35,8.09l-0.61,0.8c-1.54,1.99-2.55,3.31-3.29,5.25
				c-0.68,1.79-0.17,4.16,1.31,6.04c1.28,1.63,3.07,2.79,4.8,3.92l0.39,0.25c12.29,8.04,20.03,16.82,23.68,26.85
				c2.15,5.9,2.6,12.56,1.26,18.74c-1.42,6.55-4.78,11.94-9.47,15.19c-5.24,3.63-11.59,4.52-17.11,4.91
				C108.35,277.35,105.86,277.44,103.37,277.44z M80.97,188.39c1.32,1.29,3.53,3.42,4.32,4.04c4.42,3.51,5.92,6.46,7.28,11.03l0,0
				c2.25,7.5-3.36,13.84-8.79,19.97c-1.39,1.57-2.69,3.05-3.87,4.54c-6.74,8.55-10.39,18.47-10.29,27.93
				c0.05,4.5,0.99,8.2,2.8,10.98c3.89,5.99,11.66,7.65,17.17,8.38c7,0.92,14.11,1.14,21.14,0.64c5.35-0.38,11.49-1.23,16.47-4.69
				c9.77-6.78,11.61-21.83,7.74-32.46c-3.55-9.76-11.14-18.34-23.19-26.22l-0.39-0.25c-1.82-1.18-3.7-2.41-5.1-4.2
				c-1.75-2.22-2.34-5.07-1.5-7.27c0.81-2.12,1.87-3.49,3.47-5.57l0.61-0.79c1.06-1.38,3.93-5.03,5.43-6.92
				c-1.98,0.2-5.4,0.5-6.86,0.43l-1.58-0.08c-7.14-0.35-13.88-0.68-20.95,0.21C83.88,188.23,82.19,188.33,80.97,188.39z"/>
		</g>
		<g>
			<path class="st1" d="M96.51,205.16c-1.44,0-2.87-0.14-4.28-0.41c-0.34-0.07-0.57-0.4-0.5-0.74c0.07-0.34,0.4-0.57,0.74-0.5
				c3.97,0.78,8.22,0.38,11.98-1.14c0.33-0.13,0.69,0.03,0.83,0.35c0.13,0.32-0.03,0.69-0.35,0.82
				C102.28,204.62,99.39,205.16,96.51,205.16z"/>
		</g>
		<g>
			<path class="st1" d="M94.41,210.96c-0.81,0-1.63-0.04-2.44-0.11c-0.35-0.03-0.61-0.34-0.58-0.69c0.03-0.35,0.35-0.61,0.69-0.58
				c4.89,0.43,9.79-0.5,14.19-2.68c0.31-0.16,0.69-0.03,0.85,0.29c0.16,0.31,0.03,0.69-0.28,0.85
				C102.96,209.97,98.71,210.96,94.41,210.96z"/>
		</g>
		<g>
			<path class="st1" d="M104.73,260.88c-3.99,0-7.98-1.52-10.87-4.33c-0.25-0.24-0.26-0.64-0.01-0.9c0.24-0.25,0.65-0.26,0.9-0.01
				c3.8,3.69,9.9,4.96,14.86,3.1c2.57-0.97,4.35-2.69,4.75-4.6c0.44-2.07-0.74-4.47-2.86-5.83c-1.73-1.11-4.02-1.62-7.02-1.61
				c-0.33,0-0.66,0.01-0.99,0.02c-1.41,0.03-2.86,0.07-4.28-0.32c-1.61-0.44-3.62-1.71-3.95-3.87c-0.42-2.76,2.17-4.92,4.52-5.93
				c3.92-1.69,8.37-2.09,12.52-1.11c0.34,0.08,0.55,0.42,0.47,0.76c-0.08,0.34-0.42,0.55-0.76,0.47c-3.89-0.91-8.06-0.54-11.73,1.04
				c-1.93,0.84-4.08,2.54-3.77,4.58c0.22,1.46,1.68,2.47,3.02,2.84c1.24,0.33,2.54,0.31,3.92,0.27c0.34-0.01,0.67-0.02,1.01-0.02
				c3.27-0.03,5.77,0.57,7.71,1.81c2.56,1.64,3.96,4.58,3.42,7.15c-0.71,3.38-4.11,4.99-5.54,5.53
				C108.34,260.57,106.54,260.88,104.73,260.88z"/>
		</g>
		<g>
			<path class="st1" d="M105.16,264.53c-0.01,0-0.03,0-0.04,0c-0.35-0.02-0.61-0.33-0.59-0.67c0.74-10.82-0.53-21.55-3.76-31.89
				c-0.1-0.33,0.08-0.69,0.42-0.79c0.34-0.11,0.69,0.08,0.79,0.42c3.28,10.5,4.56,21.38,3.82,32.36
				C105.77,264.28,105.49,264.53,105.16,264.53z"/>
		</g>
		<g>
			<path class="st1" d="M79.65,216.86c-1.22,0-2.45-0.34-3.47-1.19c-0.27-0.22-0.31-0.62-0.08-0.89c0.22-0.27,0.62-0.3,0.89-0.08
				c1.65,1.37,4.23,1.01,5.93-0.06c1.89-1.18,3.18-3.1,4.45-5.12l0.35-0.56c0.96-1.54,1.95-3.13,3.16-4.63
				c-1.73-0.08-3.46,0.45-4.81,1.53c-0.34,0.27-0.65,0.57-0.98,0.88c-0.41,0.39-0.83,0.79-1.31,1.14c-1.88,1.37-4.49,1.72-6.66,0.89
				c-0.33-0.13-0.49-0.49-0.37-0.82c0.13-0.33,0.49-0.49,0.82-0.37c1.78,0.68,3.92,0.39,5.46-0.73c0.41-0.3,0.79-0.66,1.19-1.04
				c0.34-0.32,0.69-0.65,1.07-0.96c1.94-1.54,4.54-2.15,6.97-1.63c0.22,0.05,0.4,0.21,0.47,0.42c0.07,0.21,0.02,0.45-0.13,0.62
				c-1.49,1.67-2.66,3.54-3.79,5.35l-0.35,0.56c-1.3,2.07-2.74,4.2-4.85,5.53C82.51,216.4,81.08,216.86,79.65,216.86z"/>
		</g>
		<g>
			<path class="st1" d="M112.22,276.29c-0.13,0-0.23-0.09-0.23-0.21c0-0.12,0.09-0.21,0.21-0.21c0,0,0.01,0,0.01,0
				c3.08,0,6.35-1.47,8.98-4.03c2.63-2.57,4.37-5.87,5.59-8.46c0.05-0.11,0.18-0.15,0.28-0.1c0.11,0.05,0.15,0.18,0.1,0.28
				c-1.23,2.62-2.99,5.96-5.68,8.58C118.79,274.78,115.41,276.29,112.22,276.29z"/>
		</g>
		<g>
			<path class="st1" d="M108.68,276.57c-0.07,0-0.15-0.04-0.18-0.11c-0.06-0.1-0.02-0.23,0.08-0.29c2.52-1.41,4.62-3.47,6.08-5.95
				c0.06-0.1,0.19-0.13,0.29-0.07c0.1,0.06,0.13,0.19,0.07,0.29c-1.5,2.55-3.66,4.66-6.24,6.11
				C108.75,276.56,108.72,276.57,108.68,276.57z"/>
		</g>
		<g>
			<path class="st1" d="M95.78,276.8c-0.01,0-0.02,0-0.03,0c-2.66-0.41-5.02-2.18-6.18-4.61c-0.05-0.11-0.01-0.23,0.1-0.28
				c0.1-0.05,0.23-0.01,0.28,0.1c1.1,2.3,3.34,3.98,5.86,4.37c0.12,0.02,0.19,0.13,0.18,0.24C95.97,276.72,95.88,276.8,95.78,276.8z
				"/>
		</g>
		<g>
			<path class="st1" d="M87.62,275.75c-0.04,0-0.09-0.01-0.12-0.04c-3.64-2.66-6.97-5.39-7.81-9.38c-0.02-0.11,0.05-0.23,0.16-0.25
				c0.11-0.03,0.23,0.05,0.25,0.16c0.81,3.85,4.08,6.51,7.65,9.13c0.09,0.07,0.11,0.2,0.05,0.3
				C87.75,275.72,87.68,275.75,87.62,275.75z"/>
		</g>
		<g>
			<path class="st1" d="M95.96,204.18c-0.1,0-0.18-0.07-0.21-0.16c-0.64-2.66-1.57-5.26-2.76-7.73c-0.05-0.1-0.01-0.23,0.1-0.28
				c0.11-0.05,0.23-0.01,0.28,0.1c1.21,2.49,2.15,5.12,2.79,7.81c0.03,0.11-0.04,0.23-0.16,0.25
				C96,204.18,95.98,204.18,95.96,204.18z"/>
		</g>
		<g>
			<path class="st1" d="M99.05,204.33c-0.01,0-0.01,0-0.02,0c-0.12-0.01-0.2-0.11-0.19-0.23c0.24-2.55,1.07-5.05,2.41-7.23
				c0.06-0.1,0.19-0.13,0.29-0.07c0.1,0.06,0.13,0.19,0.07,0.29c-1.3,2.13-2.12,4.56-2.35,7.05
				C99.25,204.25,99.15,204.33,99.05,204.33z"/>
		</g>
		<g>
			<path class="st1" d="M102.09,203.28c-0.02,0-0.04,0-0.06-0.01c-0.11-0.03-0.17-0.15-0.14-0.26l0.94-3.16
				c0.04-0.13,0.1-0.2,0.19-0.22c0.08-0.02,0.16,0.01,0.21,0.07c0.1,0.11,0.17,0.19-0.93,3.44
				C102.26,203.22,102.18,203.28,102.09,203.28z"/>
		</g>
		<g class="st2">
			<path class="st1" d="M133.44,228.94c-0.14-0.41-0.56-1.36-1.22-2.19c0.06,0.07-0.72-0.96-0.91-1.18
				c-0.68-0.89-1.44-1.7-2.24-2.47c-1.63-1.8-3.38-3.49-5.18-5.12c-1.75-1.7-3.76-2.83-5.38-4.3c-0.07-0.07-0.13-0.15-0.2-0.22
				c-0.05-0.16-0.14-0.3-0.25-0.42c-0.63-0.68-1.88-0.17-1.84,0.76c-0.02,0.51,0.29,0.91,0.61,1.27c0.48,0.57,1.07,1.05,1.65,1.51
				c0.96,0.8,1.94,1.59,2.88,2.42c2.37,2.17,4.55,4.53,6.74,6.87c0.78,0.85,1.45,1.88,2.54,3.42c0.01,0.01-0.15-0.19-0.2-0.26
				c0.63,0.84,0.2,0.39,0.84,1.05c0.01,0.01,0.03,0.02,0.04,0.03c0.08,0.09,0.18,0.18,0.29,0.25
				C132.57,231.14,133.9,230.01,133.44,228.94z"/>
		</g>
		<g class="st2">
			<path class="st1" d="M104.7,203.2c0.04-0.03,0.08-0.06,0.11-0.1c1.14-1.28-0.24-2.78-1.73-2.08c-2.48,0.86-5.54,0.94-7.33,0.67
				c-1.21-0.31-0.89-0.19-1.54-0.49c-0.39-0.16-0.75-0.47-1.19-0.49c-1.6-0.28-2.37,1.99-0.96,2.79c0.42,0.25,0.84,0.45,1.28,0.62
				c-0.67,0.68-0.51,2.06,0.61,2.35c2.81,0.68,5.78,0.18,8.52-0.59c0.44-0.18,0.95-0.28,1.36-0.54c0,0,0.01,0,0.01-0.01
				c-0.01,0.01-0.02,0.02-0.03,0.02c0.04-0.02,0.05-0.03,0.04-0.03c0.01,0,0.02-0.01,0.03-0.01c0.04-0.01,0.08-0.03,0.13-0.05
				c0,0,0.01,0,0.01-0.01c0,0,0,0,0,0c0.1-0.05,0.19-0.11,0.28-0.17c-0.01,0.01-0.02,0.02-0.03,0.02c0.19-0.11,0.39-0.22,0.5-0.41
				c0.34-0.38,0.33-1.04,0-1.43C104.74,203.24,104.72,203.22,104.7,203.2z"/>
		</g>
		<g class="st2">
			<path class="st1" d="M106.52,209.17c0.3-0.4,0.37-0.97,0.1-1.41c-0.23-0.39-0.67-0.62-1.11-0.61c0,0,0.01,0,0.01,0
				c-0.01,0-0.03,0-0.04,0c-0.08,0-0.16,0.01-0.24,0.03c-0.59,0.1-0.64,0.37-1.69,0.88c-0.56,0.33-2.99,1.04-4.67,1.33
				c-1.69,0.3-1.65,0.4-3.58,0.3c-0.34-0.07-0.68-0.2-1.02-0.12c-1.68,0.16-1.83,2.64-0.21,3.06c2.91,0.66,5.85-0.35,8.58-1.31
				c1.27-0.49,2.57-1.01,3.63-1.88c0.03-0.03,0.05-0.06,0.08-0.09c0.03-0.03,0.06-0.06,0.09-0.09
				C106.48,209.23,106.5,209.2,106.52,209.17z"/>
		</g>
		<g class="st2">
			<path class="st1" d="M137.5,247.28c-0.06-0.91,0.08-1.89-0.2-2.76c-0.35-0.63-1.38-0.51-1.55,0.2c-0.17,1.92-0.45,3.33-1.01,5.52
				c-1.12,4.51-2.37,7.64-4.43,11.49c-0.96,1.88-1.78,3.32-2.83,4.58c-2.54,2.17-5.53,3.95-8.4,4.73c-2.98,0.96-4.02,0.86-7.25,1.24
				c-4.37,0.53-8.78,0.2-13.16-0.04c-2.34-0.1-4.01-0.53-7.1-0.94c-3.53-0.4-8.41-1.1-13.76-2.68c-1.48-0.56-0.37-0.06-1.93-0.86
				c-0.13-0.08-0.26-0.12-0.4-0.14c-0.29-0.18-0.57-0.38-0.87-0.59c-0.57-0.36-1.74-1.54-2.75-2.29c-0.59-0.3-1.29,0.34-1.1,0.96
				c0.25,0.6,0.91,0.93,1.36,1.38c0.06,0.06,0.13,0.11,0.19,0.17c0,0.05,0.01,0.11,0.03,0.16c0.35,0.72,1.07,1.2,1.64,1.75
				c0.06,0.32,0.25,0.62,0.6,0.81c0.2,0.12,0.41,0.24,0.62,0.35c0.53,0.52,1.07,1.03,1.67,1.44c0.25,0.12,0.49,0.09,0.69-0.02
				c0.12,0.08,0.25,0.16,0.36,0.24c1.55,1.1,2.96,1.71,4.1,2.15c0.63,0.29,4.14,1.73,5.85,2.18c1.29,0.36,2.62,0.53,3.94,0.7
				c2.34,0.32,4.7,0.2,7.06,0.17c2.5-0.01,5,0.03,7.49-0.2c4.08-0.23,8.18-0.47,12.21-1.17c4.13-0.9,8.01-2.87,11.15-5.71
				c1.36-1.2,2.35-2.74,3.15-4.35c0.24-0.62,0.78-1.23,0.72-1.91c0.51-0.83,0.98-1.7,1.37-2.6c0.42-0.8,0.76-1.64,1.05-2.48
				c0.34-0.41,0.41-1.1,0.51-1.68c0.12-0.44,0.22-0.87,0.32-1.31c0.13-0.73,0.4-1.4,0.2-1.93c0.08-0.53,0.15-1.07,0.2-1.61
				C137.42,250.59,137.49,248.93,137.5,247.28z M89.86,274.36c-0.01,0-0.03-0.01-0.04-0.01c0.51,0.07,1.26,0.16,1.49,0.19
				c0.19,0.03,0.37,0.06,0.56,0.08C91.14,274.56,90.46,274.47,89.86,274.36z"/>
		</g>
	</g>
	<g>
		<path class="st1" d="M271.26,189.01c5.33-5.11,12.27-11.78,17.6-16.89"/>
	</g>
	<g>
		<path class="st1" d="M271.63,200.45H145.04c-5.54,0-10.06-4.53-10.06-10.06v-20.6c0-5.54,4.53-10.06,10.06-10.06h126.59
			c5.54,0,10.06,4.53,10.06,10.06v20.6C281.69,195.92,277.17,200.45,271.63,200.45z"/>
		<g>
			<path class="st1" d="M153.16,178.85h-4.98v-3.33c0-0.97-0.05-1.57-0.16-1.81c-0.11-0.24-0.34-0.36-0.7-0.36
				c-0.41,0-0.67,0.15-0.78,0.44c-0.11,0.29-0.17,0.92-0.17,1.89v8.89c0,0.93,0.06,1.54,0.17,1.82c0.11,0.28,0.36,0.43,0.74,0.43
				c0.37,0,0.61-0.14,0.73-0.43c0.11-0.28,0.17-0.95,0.17-2v-2.41h4.98v0.75c0,1.98-0.14,3.39-0.42,4.22
				c-0.28,0.83-0.9,1.55-1.86,2.18c-0.96,0.62-2.14,0.94-3.54,0.94c-1.46,0-2.66-0.26-3.61-0.79c-0.95-0.53-1.57-1.26-1.88-2.19
				c-0.31-0.93-0.46-2.34-0.46-4.21v-5.59c0-1.38,0.05-2.41,0.14-3.1c0.09-0.69,0.38-1.35,0.85-1.99c0.47-0.64,1.12-1.14,1.95-1.51
				c0.83-0.37,1.79-0.55,2.87-0.55c1.47,0,2.68,0.28,3.63,0.85c0.95,0.57,1.58,1.27,1.88,2.12c0.3,0.85,0.45,2.16,0.45,3.95V178.85z
				"/>
			<path class="st1" d="M166.39,170.52v19.14h-4.98v-8.04h-1.49v8.04h-4.98v-19.14h4.98v6.85h1.49v-6.85H166.39z"/>
			<path class="st1" d="M173.37,170.52v19.14h-4.98v-19.14H173.37z"/>
			<path class="st1" d="M180.34,170.52v15.31h3.03v3.83h-8v-19.14H180.34z"/>
			<path class="st1" d="M184.58,170.52h8.3v3.83h-3.32v3.63h3.11v3.64h-3.11v4.21h3.65v3.83h-8.63V170.52z"/>
			<path class="st1" d="M206.26,178.85h-4.98v-3.33c0-0.97-0.05-1.57-0.16-1.81c-0.11-0.24-0.34-0.36-0.7-0.36
				c-0.41,0-0.67,0.15-0.78,0.44c-0.11,0.29-0.17,0.92-0.17,1.89v8.89c0,0.93,0.06,1.54,0.17,1.82c0.11,0.28,0.36,0.43,0.74,0.43
				c0.37,0,0.61-0.14,0.73-0.43c0.11-0.28,0.17-0.95,0.17-2v-2.41h4.98v0.75c0,1.98-0.14,3.39-0.42,4.22
				c-0.28,0.83-0.9,1.55-1.86,2.18c-0.96,0.62-2.14,0.94-3.54,0.94c-1.46,0-2.66-0.26-3.61-0.79c-0.95-0.53-1.57-1.26-1.88-2.19
				c-0.31-0.93-0.46-2.34-0.46-4.21v-5.59c0-1.38,0.05-2.41,0.14-3.1c0.09-0.69,0.38-1.35,0.85-1.99c0.47-0.64,1.12-1.14,1.95-1.51
				s1.79-0.55,2.87-0.55c1.47,0,2.68,0.28,3.63,0.85c0.95,0.57,1.58,1.27,1.88,2.12c0.3,0.85,0.45,2.16,0.45,3.95V178.85z"/>
			<path class="st1" d="M219.42,181.72c0,1.92-0.05,3.28-0.14,4.08c-0.09,0.8-0.37,1.53-0.85,2.19s-1.12,1.17-1.93,1.53
				c-0.81,0.35-1.76,0.53-2.84,0.53c-1.02,0-1.94-0.17-2.76-0.5c-0.82-0.33-1.47-0.84-1.97-1.51c-0.5-0.67-0.79-1.4-0.89-2.19
				c-0.09-0.79-0.14-2.17-0.14-4.14v-3.27c0-1.92,0.05-3.28,0.14-4.08c0.09-0.8,0.37-1.53,0.85-2.19s1.12-1.17,1.93-1.53
				c0.81-0.35,1.76-0.53,2.84-0.53c1.02,0,1.94,0.17,2.76,0.5s1.47,0.84,1.97,1.51s0.79,1.4,0.89,2.19
				c0.09,0.79,0.14,2.17,0.14,4.14V181.72z M214.44,175.43c0-0.89-0.05-1.46-0.15-1.71c-0.1-0.25-0.3-0.37-0.61-0.37
				c-0.26,0-0.46,0.1-0.6,0.3c-0.14,0.2-0.21,0.79-0.21,1.78v8.94c0,1.11,0.05,1.8,0.14,2.06s0.3,0.39,0.63,0.39
				c0.34,0,0.56-0.15,0.65-0.45c0.09-0.3,0.14-1.01,0.14-2.14V175.43z"/>
			<path class="st1" d="M236.63,170.52v19.14h-4.35l-0.01-12.92l-1.73,12.92h-3.09l-1.83-12.63l-0.01,12.63h-4.35v-19.14h6.44
				c0.19,1.15,0.39,2.51,0.59,4.07l0.71,4.87l1.14-8.94H236.63z"/>
			<path class="st1" d="M238.63,170.52h5.01c1.36,0,2.4,0.11,3.13,0.32c0.73,0.21,1.28,0.52,1.64,0.92c0.37,0.4,0.61,0.89,0.74,1.46
				c0.13,0.57,0.2,1.46,0.2,2.65v1.67c0,1.22-0.13,2.11-0.38,2.67c-0.25,0.56-0.72,0.99-1.39,1.29c-0.67,0.3-1.55,0.45-2.64,0.45
				h-1.34v7.71h-4.98V170.52z M243.61,173.79v4.87c0.14,0.01,0.26,0.01,0.37,0.01c0.46,0,0.77-0.11,0.95-0.34
				c0.18-0.22,0.27-0.69,0.27-1.4v-1.57c0-0.65-0.1-1.08-0.31-1.28C244.68,173.89,244.25,173.79,243.61,173.79z"/>
			<path class="st1" d="M250.78,170.52h3.52c2.35,0,3.94,0.09,4.77,0.27c0.83,0.18,1.51,0.64,2.03,1.39
				c0.52,0.74,0.79,1.93,0.79,3.56c0,1.49-0.19,2.49-0.56,3s-1.1,0.82-2.19,0.92c0.99,0.24,1.65,0.57,1.99,0.98
				c0.34,0.41,0.55,0.79,0.63,1.13c0.08,0.34,0.12,1.29,0.12,2.83v5.05h-4.62v-6.36c0-1.02-0.08-1.66-0.24-1.9s-0.59-0.37-1.27-0.37
				v8.63h-4.98V170.52z M255.76,173.79v4.26c0.56,0,0.95-0.08,1.18-0.23c0.22-0.15,0.34-0.65,0.34-1.5v-1.05
				c0-0.61-0.11-1-0.33-1.19C256.73,173.88,256.34,173.79,255.76,173.79z"/>
			<path class="st1" d="M272.43,170.52l2.85,19.14h-5.09l-0.27-3.44h-1.78l-0.3,3.44h-5.15l2.54-19.14H272.43z M269.79,182.82
				c-0.25-2.17-0.5-4.85-0.76-8.04c-0.51,3.67-0.83,6.34-0.96,8.04H269.79z"/>
		</g>
	</g>
	<g>
		<g>
			<path class="st1" d="M304.86,160.88c18.3,0.3,36.61,0.6,54.91,0.9c3.04,0.05,7.02,0.91,7.9,4.35
				c1.36,30.79,1.94,61.61,1.74,92.42c-0.03,4.61-0.45,9.97-4.33,12.49c-3.24,1.08-6.71,1.16-10.13,1.23
				c-18.51,0.38-37.02,0.76-55.54,1.14c-4.89,0.1-10.33,0.01-14-3.61c-1.83-3.4-1.91-7.42-1.95-11.28
				c-0.28-28.11-0.56-56.22-0.84-84.33c-0.02-2.52,0.29-5.02,0.89-7.47C285.16,160.06,298.02,160.77,304.86,160.88z"/>
			<path class="st1" d="M297.68,274.26c-4.73,0-9.45-0.53-12.84-3.87c-0.06-0.06-0.11-0.12-0.15-0.2
				c-1.96-3.65-2.01-7.91-2.04-11.66l-0.84-84.33c-0.02-2.53,0.28-5.11,0.91-7.68c1.69-6.89,13.19-6.66,20.8-6.5
				c0.47,0.01,0.92,0.02,1.35,0.03l0,0l54.91,0.9c2.78,0.05,7.61,0.75,8.68,4.97c0.01,0.05,0.02,0.11,0.02,0.17
				c1.35,30.66,1.94,61.77,1.74,92.46c-0.03,5.27-0.63,10.52-4.7,13.18c-0.06,0.04-0.12,0.07-0.19,0.09
				c-3.39,1.13-6.94,1.21-10.37,1.28l-0.56,0.01l-54.97,1.13C298.86,274.25,298.27,274.26,297.68,274.26z M286.09,269.31
				c3.35,3.22,8.21,3.39,13.32,3.28l55.54-1.14c3.27-0.07,6.66-0.14,9.78-1.16c3.34-2.26,3.83-6.98,3.86-11.75
				c0.19-30.64-0.39-61.69-1.74-92.29c-0.85-3.08-4.8-3.61-7.09-3.64l-54.91-0.9c-0.43-0.01-0.88-0.02-1.36-0.03
				c-6.65-0.14-17.79-0.37-19.16,5.24c-0.6,2.43-0.89,4.88-0.86,7.27l0.84,84.33C284.34,262.04,284.38,266.03,286.09,269.31z"/>
		</g>
		<g>
			<path class="st1" d="M294.69,173.5c-2.16,0.39-2.04,1.59-1.98,3.22c0.15,3.9,0.3,7.81,0.44,11.71c0.02,0.56,0.05,1.14,0.39,1.63
				c0.7,1.01,2.43,1.36,3.98,1.5c2.29,0.22,4.61,0.22,6.92,0.23c16.39,0.05,32.84,0.09,49.1-1.38c0.81-0.07,1.66-0.16,2.3-0.53
				c0.94-0.53,1.17-1.48,1.3-2.34c0.53-3.45,0.55-6.94,0.07-10.4c-0.17-1.25-0.49-2.61-1.76-3.45c-1.1-0.73-2.67-0.92-4.15-1.04
				c-3.67-0.31-7.37-0.41-11.07-0.3C336.07,172.48,305.27,171.59,294.69,173.5z"/>
			<path class="st1" d="M313.03,192.64c-2.88,0-5.74-0.01-8.59-0.02c-2.29-0.01-4.66-0.01-6.99-0.23c-1.51-0.14-3.63-0.49-4.58-1.86
				c-0.49-0.71-0.52-1.5-0.54-2.07l-0.45-11.87c-0.06-1.51-0.13-3.4,2.67-3.9l0,0c8.31-1.49,28.59-1.29,39.49-1.18
				c3.06,0.03,5.27,0.05,6.17,0.03c3.71-0.11,7.47-0.01,11.16,0.3c1.53,0.13,3.27,0.34,4.53,1.18c1.52,1.01,1.93,2.6,2.13,4.03
				c0.49,3.53,0.47,7.11-0.07,10.64c-0.11,0.7-0.33,2.15-1.71,2.93c-0.76,0.43-1.64,0.54-2.63,0.63
				C340.16,192.45,326.46,192.64,313.03,192.64z M294.83,174.31c-1.38,0.25-1.37,0.66-1.31,2.21l0.45,11.88
				c0.02,0.54,0.05,0.91,0.25,1.2c0.28,0.41,1.1,0.94,3.37,1.15c2.25,0.21,4.59,0.22,6.84,0.23c16.11,0.05,32.77,0.1,49.02-1.38
				c0.65-0.06,1.45-0.13,1.97-0.42c0.57-0.32,0.76-0.9,0.89-1.74c0.52-3.37,0.54-6.79,0.07-10.16c-0.18-1.29-0.49-2.27-1.4-2.88
				c-0.94-0.63-2.43-0.8-3.76-0.91c-3.63-0.3-7.32-0.4-10.97-0.3c-0.94,0.03-3.16,0.01-6.24-0.03
				C323.17,173.05,302.98,172.84,294.83,174.31L294.83,174.31z"/>
		</g>
		<g>
			<path class="st1" d="M296.02,209.1c0.13,3.13,0.26,6.25,0.39,9.38c0.01,0.34,0.05,0.73,0.35,0.96c0.31,0.25,0.78,0.23,1.2,0.2
				c3.17-0.22,6.37-0.14,9.53,0.24c0.6,0.07,1.37,0.07,1.59-0.4c0.08-0.18,0.06-0.38,0.03-0.57c-0.37-2.37,0.09-8.4-1.21-9.78
				C304.28,208.95,300.64,208.78,296.02,209.1z"/>
			<path class="st1" d="M308.02,220.73c-0.19,0-0.4-0.01-0.62-0.04c-3.11-0.37-6.26-0.45-9.38-0.23c-0.44,0.03-1.19,0.08-1.77-0.37
				c-0.62-0.49-0.65-1.22-0.66-1.58l-0.39-9.38c-0.02-0.45,0.32-0.83,0.77-0.86c4.67-0.32,8.39-0.15,11.98,0.02
				c0.21,0.01,0.41,0.1,0.56,0.26c1.02,1.07,1.16,3.62,1.25,7.1c0.03,1.23,0.06,2.4,0.18,3.12c0.03,0.22,0.1,0.62-0.09,1.04
				C309.57,220.43,308.95,220.73,308.02,220.73z M308.32,219.19L308.32,219.19L308.32,219.19z M301.47,218.69
				c2.05,0,4.1,0.12,6.13,0.36c0.38,0.05,0.59,0.03,0.71,0.01c0-0.01,0-0.02,0-0.03c-0.13-0.83-0.16-2.05-0.2-3.33
				c-0.05-1.93-0.13-4.76-0.64-5.77c-3.21-0.15-6.55-0.29-10.59-0.06l0.36,8.57c0.01,0.2,0.03,0.32,0.05,0.37
				c0.05,0.02,0.26,0.03,0.62,0.01C299.09,218.73,300.28,218.69,301.47,218.69z"/>
		</g>
		<g>
			<path class="st1" d="M318.98,209.16c0.15,3.12,0.31,6.25,0.46,9.37c0.02,0.34,0.06,0.73,0.36,0.96c0.31,0.24,0.79,0.22,1.2,0.19
				c3.17-0.24,6.37-0.19,9.54,0.17c0.6,0.07,1.37,0.06,1.59-0.42c0.08-0.18,0.05-0.38,0.02-0.57c-0.38-2.36,0.03-8.4-1.28-9.77
				C327.24,208.96,323.6,208.81,318.98,209.16z"/>
			<path class="st1" d="M331.03,220.71c-0.18,0-0.38-0.01-0.59-0.03c-3.11-0.35-6.27-0.4-9.38-0.16c-0.44,0.04-1.19,0.09-1.77-0.36
				c-0.62-0.48-0.66-1.22-0.68-1.57l-0.46-9.37c-0.02-0.45,0.32-0.83,0.76-0.87c4.67-0.36,8.39-0.21,11.98-0.07
				c0.21,0.01,0.42,0.1,0.56,0.25c1.02,1.07,1.19,3.61,1.3,7.09c0.04,1.23,0.08,2.4,0.2,3.12c0.04,0.22,0.1,0.63-0.09,1.04
				C332.6,220.4,331.98,220.71,331.03,220.71z M331.36,219.17L331.36,219.17L331.36,219.17z M324.88,218.71
				c1.92,0,3.84,0.11,5.75,0.32c0.38,0.04,0.59,0.02,0.71,0c0-0.01,0-0.02-0.01-0.03c-0.13-0.83-0.18-2.04-0.22-3.33
				c-0.07-1.93-0.16-4.76-0.68-5.76c-3.21-0.13-6.55-0.24-10.59,0.02l0.42,8.56c0.01,0.25,0.04,0.34,0.05,0.37
				c0.05,0.02,0.26,0.03,0.62,0C322.25,218.76,323.56,218.71,324.88,218.71z"/>
		</g>
		<g>
			<path class="st1" d="M342.02,209.16c0.15,3.12,0.31,6.25,0.46,9.37c0.02,0.34,0.06,0.73,0.36,0.96c0.31,0.24,0.79,0.22,1.2,0.19
				c3.17-0.24,6.37-0.19,9.54,0.17c0.6,0.07,1.37,0.06,1.59-0.42c0.08-0.18,0.05-0.38,0.02-0.57c-0.38-2.36,0.03-8.4-1.28-9.77
				C350.27,208.96,346.63,208.81,342.02,209.16z"/>
			<path class="st1" d="M354.07,220.71c-0.18,0-0.38-0.01-0.59-0.03c-3.11-0.35-6.27-0.4-9.38-0.16c-0.44,0.04-1.19,0.09-1.77-0.36
				c-0.62-0.48-0.66-1.22-0.68-1.57l-0.46-9.37c-0.02-0.45,0.32-0.83,0.76-0.87c4.67-0.36,8.39-0.21,11.98-0.07
				c0.21,0.01,0.42,0.1,0.56,0.25c1.02,1.07,1.19,3.61,1.3,7.09c0.04,1.23,0.08,2.4,0.2,3.12c0.04,0.22,0.1,0.63-0.08,1.04
				C355.64,220.4,355.02,220.71,354.07,220.71z M354.39,219.17L354.39,219.17L354.39,219.17z M347.91,218.71
				c1.92,0,3.84,0.11,5.75,0.32c0.38,0.04,0.59,0.02,0.71,0c0-0.01,0-0.02-0.01-0.03c-0.13-0.83-0.18-2.05-0.22-3.33
				c-0.07-1.93-0.16-4.76-0.68-5.76c-3.21-0.13-6.55-0.24-10.59,0.02l0.42,8.56c0.01,0.25,0.04,0.34,0.05,0.37
				c0.05,0.02,0.26,0.03,0.62,0C345.28,218.76,346.6,218.71,347.91,218.71z"/>
		</g>
		<g>
			<path class="st1" d="M297.15,228.14c0.13,3.13,0.26,6.25,0.39,9.38c0.01,0.34,0.05,0.73,0.35,0.96c0.31,0.25,0.78,0.23,1.2,0.2
				c3.17-0.22,6.37-0.14,9.53,0.24c0.6,0.07,1.37,0.07,1.59-0.4c0.08-0.18,0.06-0.38,0.03-0.57c-0.37-2.37,0.09-8.4-1.21-9.78
				C305.41,227.99,301.77,227.82,297.15,228.14z"/>
			<path class="st1" d="M309.15,239.78c-0.19,0-0.4-0.01-0.62-0.04c-3.11-0.37-6.27-0.45-9.38-0.23c-0.45,0.03-1.19,0.08-1.77-0.37
				c-0.62-0.49-0.65-1.22-0.66-1.58l-0.39-9.38c-0.02-0.45,0.32-0.83,0.77-0.86c4.67-0.32,8.39-0.15,11.98,0.02
				c0.21,0.01,0.41,0.1,0.56,0.26c1.02,1.07,1.16,3.62,1.25,7.1c0.03,1.23,0.06,2.4,0.18,3.12c0.03,0.22,0.1,0.62-0.09,1.04
				C310.69,239.47,310.08,239.78,309.15,239.78z M309.45,238.24L309.45,238.24L309.45,238.24z M302.6,237.73
				c2.05,0,4.1,0.12,6.13,0.36c0.38,0.04,0.59,0.03,0.71,0.01c0-0.01,0-0.02,0-0.03c-0.13-0.83-0.16-2.05-0.2-3.33
				c-0.05-1.93-0.13-4.76-0.64-5.77c-3.21-0.15-6.55-0.29-10.59-0.06l0.36,8.57c0.01,0.2,0.03,0.32,0.05,0.37
				c0.05,0.02,0.26,0.03,0.62,0.01C300.22,237.77,301.41,237.73,302.6,237.73z"/>
		</g>
		<g>
			<path class="st1" d="M320.11,228.21c0.15,3.12,0.31,6.25,0.46,9.37c0.02,0.34,0.06,0.73,0.36,0.96c0.31,0.24,0.79,0.22,1.2,0.19
				c3.17-0.24,6.37-0.19,9.54,0.17c0.6,0.07,1.37,0.06,1.59-0.42c0.08-0.18,0.05-0.38,0.02-0.57c-0.38-2.36,0.03-8.4-1.28-9.77
				C328.36,228,324.73,227.85,320.11,228.21z"/>
			<path class="st1" d="M332.16,239.75c-0.18,0-0.38-0.01-0.59-0.03c-3.11-0.35-6.27-0.4-9.38-0.17c-0.44,0.04-1.19,0.09-1.77-0.36
				c-0.62-0.48-0.66-1.22-0.68-1.57l-0.46-9.37c-0.02-0.45,0.32-0.83,0.76-0.87c4.67-0.35,8.39-0.21,11.98-0.07
				c0.21,0.01,0.42,0.1,0.56,0.25c1.02,1.07,1.19,3.61,1.3,7.09c0.04,1.23,0.08,2.4,0.2,3.12c0.04,0.22,0.1,0.63-0.08,1.04
				C333.73,239.44,333.11,239.75,332.16,239.75z M332.48,238.21L332.48,238.21L332.48,238.21z M326,237.75
				c1.92,0,3.85,0.11,5.76,0.32c0.38,0.04,0.59,0.02,0.71,0c0-0.01,0-0.02-0.01-0.03c-0.13-0.83-0.18-2.05-0.22-3.33
				c-0.07-1.93-0.16-4.76-0.68-5.76c-3.22-0.13-6.55-0.24-10.59,0.02l0.42,8.56c0.01,0.25,0.04,0.34,0.05,0.37
				c0.05,0.02,0.26,0.03,0.62,0C323.37,237.8,324.69,237.75,326,237.75z"/>
		</g>
		<g>
			<path class="st1" d="M298.7,247.18c0.13,3.13,0.26,6.25,0.39,9.38c0.01,0.34,0.05,0.73,0.35,0.96c0.31,0.25,0.78,0.23,1.2,0.2
				c3.17-0.22,6.37-0.14,9.53,0.24c0.6,0.07,1.37,0.07,1.59-0.4c0.08-0.18,0.06-0.38,0.03-0.57c-0.37-2.37,0.09-8.4-1.21-9.78
				C306.95,247.04,303.32,246.87,298.7,247.18z"/>
			<path class="st1" d="M310.69,258.82c-0.19,0-0.4-0.01-0.62-0.04c-3.11-0.37-6.27-0.45-9.38-0.23c-0.44,0.03-1.19,0.08-1.77-0.37
				c-0.62-0.49-0.65-1.22-0.66-1.58l-0.39-9.38c-0.02-0.45,0.32-0.83,0.77-0.86c4.66-0.32,8.38-0.15,11.97,0.02
				c0.21,0.01,0.43,0.1,0.57,0.26c1.02,1.07,1.16,3.62,1.25,7.1c0.03,1.23,0.06,2.4,0.18,3.12c0.03,0.22,0.1,0.62-0.09,1.04
				C312.24,258.51,311.62,258.82,310.69,258.82z M304.14,256.77c2.05,0,4.1,0.12,6.13,0.36c0.37,0.04,0.59,0.03,0.71,0.01
				c0-0.01,0-0.02,0-0.03c-0.13-0.83-0.16-2.05-0.2-3.33c-0.05-1.93-0.13-4.76-0.64-5.77c-3.22-0.15-6.56-0.29-10.59-0.06l0.36,8.57
				c0.01,0.2,0.03,0.32,0.05,0.37c0.05,0.02,0.26,0.03,0.62,0.01C301.76,256.82,302.95,256.77,304.14,256.77z"/>
		</g>
		<g>
			<path class="st1" d="M321.65,247.25c0.15,3.12,0.31,6.25,0.46,9.37c0.02,0.34,0.06,0.73,0.36,0.96c0.31,0.24,0.79,0.22,1.2,0.19
				c3.17-0.24,6.37-0.19,9.54,0.17c0.6,0.07,1.37,0.06,1.59-0.42c0.08-0.18,0.05-0.38,0.02-0.57c-0.38-2.36,0.03-8.4-1.28-9.77
				C329.91,247.04,326.27,246.9,321.65,247.25z"/>
			<path class="st1" d="M333.7,258.79c-0.18,0-0.38-0.01-0.59-0.03c-3.11-0.35-6.27-0.4-9.38-0.16c-0.44,0.04-1.19,0.09-1.77-0.36
				c-0.62-0.48-0.66-1.22-0.68-1.58l-0.46-9.37c-0.02-0.45,0.32-0.83,0.76-0.87c4.67-0.35,8.39-0.21,11.98-0.07
				c0.21,0.01,0.42,0.1,0.56,0.25c1.02,1.07,1.19,3.61,1.3,7.09c0.04,1.23,0.08,2.4,0.2,3.12c0.04,0.22,0.1,0.62-0.08,1.04
				C335.28,258.48,334.65,258.79,333.7,258.79z M327.55,256.8c1.92,0,3.84,0.11,5.75,0.32c0.38,0.04,0.59,0.02,0.71,0
				c0-0.01,0-0.02-0.01-0.03c-0.14-0.83-0.18-2.05-0.22-3.33c-0.07-1.93-0.16-4.76-0.68-5.76c-3.22-0.13-6.55-0.24-10.59,0.02
				l0.42,8.56c0.01,0.2,0.03,0.32,0.05,0.37c0.05,0.02,0.26,0.03,0.62,0C324.92,256.85,326.23,256.8,327.55,256.8z"/>
		</g>
		<g>
			<path class="st1" d="M343.03,228.28c0.35,9.78,0.41,19.57,0.68,29.84c3.6-0.26,7.21-0.25,10.58-0.28
				c0.34-9.99-0.49-18.37-0.11-29.87C350.75,227.92,346.73,227.64,343.03,228.28z"/>
			<path class="st1" d="M343.71,258.95c-0.2,0-0.4-0.08-0.55-0.21c-0.17-0.15-0.27-0.36-0.27-0.59c-0.11-4.21-0.19-8.38-0.26-12.41
				c-0.11-5.99-0.21-11.66-0.42-17.43c-0.01-0.41,0.28-0.77,0.68-0.84c3.04-0.53,6.31-0.45,9.2-0.37c0.72,0.02,1.43,0.04,2.11,0.04
				c0.22,0,0.43,0.09,0.59,0.26c0.15,0.16,0.24,0.38,0.23,0.6c-0.2,5.93-0.07,11.03,0.05,15.96c0.11,4.66,0.22,9.07,0.06,13.91
				c-0.01,0.44-0.37,0.79-0.82,0.8l-1.5,0.01c-2.95,0.02-5.99,0.05-9.04,0.27C343.75,258.95,343.73,258.95,343.71,258.95z
				 M343.88,228.98c0.19,5.53,0.29,10.97,0.39,16.72c0.07,3.75,0.14,7.63,0.24,11.54c2.8-0.17,5.58-0.19,8.28-0.22l0.7-0.01
				c0.12-4.49,0.02-8.64-0.09-13.02c-0.12-4.72-0.24-9.6-0.07-15.22c-0.42-0.01-0.85-0.02-1.29-0.03
				C349.34,228.68,346.55,228.61,343.88,228.98z"/>
		</g>
		<g class="st2">
			<path class="st1" d="M356.85,175.98c-0.11-1.31-3.02-2.46-4.02-2.61c-7.1-1.12-14.31-0.66-21.46-0.67
				c-2.13-0.03-4.25,0.04-6.38,0.16c-4.04-0.09-8.08-0.45-12.12-0.41c-3.84,0.04-7.67,0.43-11.5,0.49
				c-1.74,0.15-3.48,0.34-5.17,0.81c-0.58,0.18-1.24,0.31-1.75,0.64c-0.45-0.28-1.13-0.18-1.41,0.33c-0.34,0.93-0.2,1.99-0.23,2.97
				c0.03,1.51,0.1,3.01,0.22,4.52c0.34,2.77,0.48,5.64,1.44,8.28c0.63,1.13,2.13,0.52,2-0.72c-0.1-2.62-0.25-5.24-0.59-7.85
				c-0.1-0.74-0.19-1.49-0.27-2.23c0.25-0.96,0.53-1.91,0.86-2.85c7.81-0.07,15.59-0.88,23.4-0.87c7.68-0.16,15.35,0.31,23.03,0.59
				c3.81,0.12,7.59,0.7,11.4,0.85c0.84,0.01,0.96,0.02,1.43,0.07c0.03,0.01,0.05,0.01,0.06,0.01c0.27,0.1,0.58,0.08,0.84-0.07
				C357.19,177.05,357.19,176.39,356.85,175.98z"/>
		</g>
		<g>
			<g class="st2">
				<path class="st1" d="M369.9,237.91c0.03-3.3-0.29-6.58-0.51-9.87c-0.11-6.98-0.35-13.96-0.48-20.94
					c-0.27-9.84-0.83-19.66-1.16-29.5c-0.15-3.29-0.25-6.58-0.63-9.85c-0.12-1.12-0.32-2.24-0.52-3.35c-0.06-0.21-0.2-0.39-0.39-0.5
					c-0.2-0.12-0.43-0.13-0.64-0.07c-0.01-0.01-0.02-0.02-0.04-0.03c-0.21-0.13-0.45-0.13-0.66-0.06c-0.62-0.61-1.3-1.17-2.04-1.64
					c-0.35-0.22-0.71-0.57-1.15-0.43c-0.67,0.16-0.81,1.15-0.2,1.48c0.01,0.1,0.04,0.19,0.09,0.28c2.87,3.63,3.15,7.53,3.4,12.01
					c0.12,1.65,0.26,3.3,0.39,4.95c-0.01,1.12-0.04,2.24-0.04,3.35c0.07,3.28,0.11,6.57,0.04,9.85c-0.05,5.43,0.43,10.83,0.58,16.25
					c0.2,3.1,0.24,6.2,0.22,9.31c0.02,2.69,0.11,5.38-0.01,8.06c-0.13,4.14-0.01,8.28,0.01,12.42c-0.01,3.19-0.16,6.37-0.01,9.56
					c0.03,3.03,0.55,6.05,0.41,9.09c-0.46,3.89-0.28,6.72-1.57,10.16c-0.02,0.05-0.04,0.1-0.06,0.16c0.04-0.09,0.07-0.15,0-0.01
					c0,0.01-0.01,0.02-0.01,0.03c-0.01,0.03-0.02,0.06-0.04,0.1c0.01-0.03,0.02-0.06,0.03-0.09c-0.11,0.24-0.24,0.47-0.38,0.7
					c-0.05,0.07-0.17,0.25-0.23,0.34c-0.03,0.04-0.07,0.08-0.1,0.12c0.03-0.06-0.21,0.22-0.23,0.34c-0.34,0.67,0.39,1.5,1.11,1.27
					c0.47-0.14,1.2-0.96,1.64-1.91c1.31-2.9,1.35-6.13,1.68-9.25c0.04-0.3,0.08-0.59,0.1-0.89c0.31-0.03,0.61-0.21,0.78-0.49
					c0.27-0.68,0.19-1.48,0.26-2.21c0.21-2.71-0.19-5.42-0.17-8.13C369.39,244.97,369.88,241.45,369.9,237.91z"/>
			</g>
			<g class="st2">
				<path class="st1" d="M364.93,268.58c0,0.01-0.01,0.02-0.01,0.03c0,0,0-0.01,0-0.01C364.92,268.59,364.93,268.59,364.93,268.58z"
					/>
			</g>
		</g>
		<g>
			<g class="st2">
				<path class="st1" d="M355.86,221.86c-0.01,0-0.02,0.01-0.03,0.01C355.87,221.86,355.89,221.85,355.86,221.86z"/>
			</g>
			<g class="st2">
				<path class="st1" d="M356.85,211.51c-0.12-0.88-0.05-0.81-0.51-1.61c-0.11-0.13-0.19-0.33-0.42-0.48
					c-0.01-0.02-0.02-0.03-0.04-0.05c-0.02-0.02-0.04-0.05-0.06-0.07c-0.06-0.07,0.09,0.13,0.08,0.11c0,0,0,0,0,0
					c-0.09-0.16-0.25-0.28-0.43-0.33c-0.66-0.19-1.16,0.62-0.75,1.15c0.02,0.07,0.04,0.15,0.06,0.22c-0.24,0.18-0.41,0.5-0.34,0.9
					c0.41,2.52,0.93,5.46,0.74,7.53c0,0,0,0.01-0.01,0.02c-0.05,0.1-0.11,0.2-0.18,0.3c-0.01,0.01-0.02,0.02-0.03,0.03
					c-0.05,0.03-0.1,0.06-0.16,0.09c-0.02,0.01-0.03,0.01-0.05,0.02c-0.05,0.01-0.1,0.02-0.15,0.04c0,0,0,0,0,0
					c-0.05,0.01-0.1,0.02-0.16,0.03c-0.04,0-0.06,0-0.07,0.01c-0.02,0-0.05,0-0.07,0.01c-0.03,0-0.07,0.01-0.1,0.01
					c-0.1,0.01-0.19,0.02-0.29,0.04c0.15-0.02,0.37-0.05,0.08-0.02c-0.13,0.01-0.2,0.02-0.22,0.03c-0.91,0.01-1.83,0.22-2.74,0.2
					c-2.37,0.21-4.8,0.02-7.16,0.24c-0.34-0.32-0.57-0.81-1.08-0.81c-0.68-0.02-1.06,0.88-0.56,1.35c0.2,0.25,0.42,0.48,0.66,0.69
					c0.11,0.41,0.45,0.76,0.96,0.75c0.13,0,0.26-0.01,0.39-0.01c1.03,0.33,2.34,0.51,2.59,0.56c1.89,0.24,1.72,0.25,3.79,0.19
					c1.89-0.01,2.42-0.05,4.19-0.45c0.3-0.06,0.59-0.16,0.87-0.28c0,0-0.01,0-0.01,0c0,0,0.01,0,0.01-0.01
					c0.04-0.02,0.09-0.03,0.13-0.05c-0.02,0.01-0.05,0.02-0.07,0.03c0.3-0.12,0.53-0.33,0.71-0.6c0.74-1.62,0.53-3.5,0.61-5.24
					C357.13,214.54,356.99,213.02,356.85,211.51z"/>
			</g>
		</g>
		<g class="st2">
			<path class="st1" d="M356.86,250.51c-0.28-3.36-0.19-6.75-0.37-10.12c-0.2-3.92-0.15-7.85-0.28-11.78c-0.02-1.31-2-1.35-2.03,0
				c0.11,6.46,0.31,12.91,0.5,19.37c0.06,2.2,0.35,4.38,0.37,6.57c0.05,1.97-0.14,2.93-0.19,3.29c-0.03,0.12-0.05,0.25-0.06,0.37
				c0,0,0,0,0,0c0.01-0.04,0.01-0.09,0.02-0.12c0.01-0.02,0.01-0.02,0,0c0-0.04,0-0.05-0.02,0.02c-0.01,0.02-0.02,0.05-0.03,0.07
				c0,0.01-0.01,0.02-0.01,0.02c-0.47-0.08-0.92-0.26-1.39-0.37c-0.67-0.17-1.36-0.12-2.03-0.05c-1.08,0.1-2.17,0.24-3.24,0.41
				c-0.65,0.08-1.3,0.12-1.96,0.13c-0.25-0.02-0.52,0-0.75,0.08c-0.26-0.14-0.51-0.31-0.99-0.48c-0.82-0.16-1.23,1.06-0.5,1.45
				c0.24,0.18,0.49,0.31,0.74,0.43c0.1,0.21,0.28,0.38,0.53,0.44c1.13,0.25,2.25,0.61,3.41,0.7c1.14,0.1,2.29-0.02,3.43-0.12
				c1.15-0.1,2.28-0.36,3.33-0.85c0.4-0.18,0.9-0.46,1.02-0.91c0.06-0.12,0.12-0.23,0.17-0.36c0.01-0.01,0.02-0.04,0.05-0.11
				c0.46-1.06,0.51-2.25,0.52-3.39C357.08,253.65,356.99,252.08,356.86,250.51z"/>
		</g>
		<g class="st2">
			<path class="st1" d="M336.07,250.06c-0.31-0.74-0.35-1.65-1.45-1.25c-0.64,0.54-0.35,0.75-0.26,1.35
				c0.21,0.93,0.21,0.94,0.27,1.52c0.2,1.28,0.25,2.4,0.21,4.18c0.01,1.36-0.06,1.72-0.29,1.96c-0.03,0.03-0.06,0.06-0.09,0.08
				c-0.01,0.01-0.02,0.01-0.01,0.01c0,0,0,0,0,0c-0.01,0-0.01,0.01-0.02,0.01c0,0-0.01,0-0.01,0c-0.05,0.02-0.1,0.03-0.15,0.05
				c-0.9,0.18-6.91-0.06-8.51-0.3c-0.23-0.02-1.46-0.15-2.38-0.73c-0.32-0.17-0.66-0.38-1.03-0.26c-0.75,0.18-0.89,1.28-0.21,1.64
				c2.04,1.27,4.49,1.51,6.84,1.6c1.13,0.03,2.26,0.11,3.4,0.08c1.11-0.09,1.14-0.14,1.76-0.25c0.54-0.15,0.62-0.09,1.28-0.57
				c-0.35,0.26,0.08-0.03,0.19-0.14c0.23-0.22,0.42-0.48,0.56-0.76c0.47-1,0.4-2.14,0.49-3.22
				C336.81,253.38,336.56,251.67,336.07,250.06z"/>
		</g>
		<g class="st2">
			<path class="st1" d="M334.64,232.87c-0.17-0.61-0.07-1.64-0.89-1.73c-0.49-0.1-0.93,0.37-0.88,0.84
				c0.05,1.24,1.02,4.59,0.47,6.24c0,0,0,0,0,0c-0.01,0.01-0.01,0.01-0.02,0.02c-0.04,0.03-0.08,0.05-0.12,0.07
				c-0.1,0.03-0.21,0.06-0.24,0.07c-1.52,0.26-5.22-0.15-7.58-0.14c-1,0.02-1.99,0.03-2.99,0c-0.48,0.03-1.01-0.13-1.47,0.06
				c-1.01,0.38-0.69,1.97,0.39,1.94c2.99,0.05,5.98,0.03,8.97,0.19c2.83,0,4.67-0.22,4.86-2.92
				C335.29,235.94,334.89,234.4,334.64,232.87z"/>
		</g>
		<g class="st2">
			<path class="st1" d="M334.18,217.71c-0.13-1.05-0.14-2.12-0.23-3.17c-0.04-0.82-0.15-1.63-0.35-2.43
				c-0.2-0.62-0.07-0.41-0.29-0.74c-0.12-0.18-0.34-0.31-0.55-0.32c-0.41-0.08-0.82,0.22-0.93,0.61c-0.1,0.38,0.1,0.76,0.16,1.14
				c0.18,0.94,0.15,0.78,0.21,1.82c0.06,0.9-0.04,1.81,0.01,2.71c0.02,0.61,0.12,1.22,0.07,1.83c-0.02,0.09-0.05,0.18-0.08,0.27
				c-0.01,0.03-0.03,0.06-0.05,0.09c-0.01,0.01-0.01,0.02-0.02,0.03c-0.02,0.03-0.05,0.05-0.07,0.08c-0.04,0.03-0.09,0.05-0.14,0.07
				c-0.93,0.32-2.37,0.2-3.97,0.19c-1.79-0.05-3.58,0.05-5.36-0.15c-0.25-0.03,0.06,0.01,0.15,0.02c-1.07-0.06-2.27-0.77-3.21-0.78
				c-1.07,0.09-1.18,1.71-0.13,1.98c2.49,1.01,5.17,0.98,7.81,0.94c1.88-0.04,3.9,0.34,5.68-0.43
				C334.27,220.77,334.39,219.07,334.18,217.71z"/>
		</g>
		<g class="st2">
			<path class="st1" d="M311.59,216.58c-0.11-1.09-0.27-2.18-0.51-3.25c-0.13-0.53-0.67-2.09-0.54-1.7
				c-0.31-0.67-0.36-1.48-1.44-1.11c-0.62,0.53-0.37,0.74-0.28,1.24c0.07,0.26,0.12,0.53,0.24,1.27c0.24,1.94,0.51,2.49,0.54,4.69
				c-0.02,0.7-0.14,1.17-0.4,1.65c-0.01,0.02-0.03,0.04-0.04,0.06c-0.07,0.09-0.15,0.17-0.23,0.24c-0.02,0.01-0.03,0.02-0.05,0.03
				c-0.02,0.01-0.05,0.02-0.07,0.03c-0.1,0.03-0.31,0.1-0.46,0.13c-2.22,0.16-6.25,0.21-7.43-0.04c-1.39-0.16-2.73-0.73-4.12-0.78
				c-1.07,0.09-1.18,1.71-0.13,1.98c1.68,0.28,3.32,0.81,5.03,0.91c2.34,0.19,4.71,0.09,7.04-0.1
				C311.23,221.52,311.83,218.68,311.59,216.58z"/>
		</g>
		<g class="st2">
			<path class="st1" d="M312.44,235c-0.04-1.66-0.48-4.06-0.98-4.85c-0.01-0.02-0.02-0.03-0.03-0.05c-0.01-0.02-0.02-0.05-0.04-0.07
				c-0.04-0.06-0.09-0.13-0.13-0.19c0,0,0,0,0,0c0,0,0,0,0,0c-0.02-0.02-0.04-0.05-0.06-0.07c0.01,0.01,0.01,0.02,0.02,0.03
				c-0.19-0.24-0.53-0.33-0.83-0.25c-0.81,0.37-0.6,0.87-0.53,1.26c0-0.01,0-0.03-0.01-0.05c0.05,0.29,0.23,0.9,0.22,1.07
				c0.13,0.93,0.35,2.76,0.42,4.8c0.02,1.09,0.07,0.94-0.19,1.76c-0.04,0.09-0.11,0.21-0.16,0.29c-0.23,0.27-0.5,0.63-0.96,0.69
				c-1.44,0.13-6.35,0.27-7.86-0.06c-1.01-0.17-1.61-0.86-3.02-1.36c-1.06-0.2-1.59,1.35-0.65,1.87c1.11,0.57,2.18,1.29,3.43,1.5
				c2.49,0.38,5.04,0.15,7.56,0.13c0.63-0.05,1.28-0.1,1.84-0.41c0.81-0.48,1.46-1.23,1.78-2.12
				C312.72,237.66,312.46,236.31,312.44,235z"/>
		</g>
		<g class="st2">
			<path class="st1" d="M314.53,255.52c-0.04-1.27-0.06-2.54-0.34-3.79c-0.36-1.15-0.33-2.49-1.69-2.28
				c-1.34,0.46-0.41,1.85-0.26,2.79c0.21,0.81,0.22,1.81,0.27,3.24c-0.03,1.5-0.05,1.77-0.53,2.32c-1.08,0.28-3.13,0.34-4.93,0.36
				c-1.3,0.01-2.6,0.16-3.9-0.02c-0.38,0-1.27-0.29-1.57-0.46c-0.45-0.18-0.84-0.57-1.33-0.64c-1.06-0.2-1.59,1.35-0.65,1.87
				c1.85,1.22,4.08,1.48,6.25,1.31c2.04-0.04,4.09-0.05,6.11-0.34C314.06,259.69,314.62,257.28,314.53,255.52z"/>
		</g>
	</g>
	<g>
		<path class="st1" d="M297.42,187.58c3.81-3.81,8.78-8.78,12.59-12.59"/>
	</g>
	<g>
		<path class="st1" d="M308.34,188.33c3.81-3.81,8.78-8.78,12.59-12.59"/>
	</g>
	<g>
		<path class="st1" d="M320.41,189.12c3.81-3.81,8.78-8.78,12.59-12.59"/>
	</g>
	<g>
		<path class="st1" d="M334.89,189.12c3.81-3.81,8.78-8.78,12.59-12.59"/>
	</g>
	<g>
		<path class="st1" d="M345.88,188.33c2.82-2.82,6.5-6.5,9.33-9.33"/>
	</g>
</g>
<g>
	<g>
		<path class="st3" d="M52.79,290.79v-15.46c0,0,3.11-0.87,4.72-1.69c25.55-13.06,54.05-19.62,82.62-22.29
			c28.57-2.67,57.35-1.55,86.01,0.04c10.13,0.56,20.29,1.19,30.34,1.59c16.76,4.45,34.25,5.21,51.39,7.9
			c11.5,1.8,22.84,4.47,34.17,7.14c4.62,1.09,9.7,4.65,13.64,7.57c0.52,3.98,0,9.49-0.2,13.51L52.79,290.79z"/>
		<path class="st1" d="M52.79,292.23c-0.38,0-0.75-0.15-1.02-0.42c-0.27-0.27-0.43-0.64-0.43-1.02v-15.46
			c0-0.65,0.43-1.22,1.06-1.39c0.03-0.01,2.99-0.84,4.46-1.59c23.32-11.92,51.29-19.46,83.14-22.44
			c29.47-2.75,58.75-1.49,86.22,0.03l6.79,0.38c7.74,0.44,15.73,0.89,23.53,1.21c0.11,0,0.21,0.02,0.31,0.05
			c10.93,2.9,22.41,4.25,33.51,5.55c5.82,0.68,11.84,1.39,17.73,2.31c11.57,1.81,23.11,4.53,34.28,7.16
			c4.66,1.1,9.56,4.4,14.17,7.82c0.32,0.23,0.52,0.59,0.57,0.98c0.44,3.37,0.18,7.61-0.05,11.36c-0.05,0.84-0.1,1.65-0.14,2.4
			c-0.04,0.77-0.67,1.37-1.43,1.37L52.79,292.23C52.79,292.23,52.79,292.23,52.79,292.23z M54.23,276.41v12.92l299.88-1.68
			c0.02-0.35,0.04-0.7,0.06-1.07c0.21-3.39,0.44-7.2,0.14-10.21c-4.21-3.09-8.62-6.01-12.61-6.95c-11.11-2.62-22.61-5.32-34.07-7.12
			c-5.84-0.91-11.83-1.62-17.62-2.3c-11.15-1.31-22.69-2.66-33.76-5.59c-7.77-0.32-15.73-0.77-23.42-1.21l-6.78-0.38
			c-27.36-1.52-56.52-2.77-85.79-0.04c-31.49,2.94-59.11,10.39-82.09,22.14C57.05,275.5,55.33,276.07,54.23,276.41z"/>
	</g>
	<g>
		<path class="st3" d="M302.45,235.32c17.54,14.15,38.4,28.3,53.23,40.27c-2.37,0.16-123.51,0-169.43,0
			c-41.58,0-91.9-0.84-133.47-0.26c18.14-14.4,37.06-27.82,57.54-41.14c6.49-4.16,14.19-5.94,21.79-7.25
			c22.85-3.92,46.16-4.14,69.35-4.35C235.06,222.3,272.97,225.56,302.45,235.32z"/>
		<path class="st1" d="M321.59,277.1c-19.33,0-45.76-0.02-76.49-0.04c-23-0.02-44.57-0.03-58.85-0.03c-15.13,0-31.1-0.11-48.01-0.22
			c-29.01-0.2-59-0.4-85.44-0.03c-0.01,0-0.01,0-0.02,0c-0.61,0-1.16-0.38-1.36-0.96c-0.21-0.58-0.02-1.23,0.46-1.62
			c17.49-13.88,36.34-27.36,57.65-41.22c6.79-4.35,14.75-6.16,22.34-7.46c23.03-3.95,46.69-4.16,69.58-4.36
			c39.45-0.36,75.47,4.19,101.46,12.79c0.16,0.05,0.32,0.14,0.45,0.25c9.11,7.35,19.09,14.68,28.74,21.77
			c8.93,6.56,17.36,12.75,24.49,18.5c0.46,0.37,0.65,0.99,0.47,1.56c-0.18,0.57-0.69,0.97-1.28,1.01
			C354.97,277.08,342.4,277.1,321.59,277.1z M86.43,273.68c16.99,0,34.59,0.12,51.84,0.24c16.9,0.11,32.87,0.22,47.99,0.22
			c14.28,0,35.85,0.02,58.85,0.03c41.65,0.03,92.05,0.07,106.48,0.01c-6.36-4.99-13.6-10.31-21.2-15.89
			c-9.6-7.05-19.53-14.34-28.64-21.68c-25.67-8.45-61.27-12.91-100.27-12.56c-22.77,0.2-46.31,0.41-69.12,4.32
			c-7.29,1.25-14.91,2.97-21.26,7.04c-19.87,12.93-37.61,25.53-54.08,38.42C66.48,273.72,76.35,273.68,86.43,273.68z"/>
	</g>
	<g>
		<g id="XMLID_1_">
			<g>
				<path class="st1" d="M302.33,236.16c4.77-33.69,4.18-68.56,3.59-103.26c-0.09-5.48-0.19-10.99-0.81-16.43
					c-0.4-3.49-2.45-6.62-5.52-8.31c-3.31-1.82-7.4-2.65-11.15-3.12c-18.92-2.4-38.05-2.28-57.12-2.02
					c-38.89,0.54-80.22-2.17-116.62,3.36c-7.34,2.41-8.75,10.5-8.95,17.01c-1.12,37.44-0.23,74.95,2.69,112.3
					C109.01,236.72,302.33,236.16,302.33,236.16z M307.37,132.88c0.58,34.21,1.18,69.6-3.61,103.48c-0.1,0.71-0.71,1.24-1.43,1.25
					c-0.48,0-48.88,0.14-96.73,0.15c-1.92,0-3.81,0-5.67,0c-25.47,0-45.95-0.04-60.96-0.12c-31.19-0.16-31.22-0.22-31.79-1.25
					c-0.11-0.18-0.17-0.38-0.18-0.59c-2.91-37.27-3.81-75.1-2.69-112.45c0.11-3.77,0.45-15.23,9.94-18.34
					c0.08-0.02,0.15-0.04,0.23-0.05c26.24-3.99,55.36-3.72,83.51-3.45c10.99,0.11,22.35,0.22,33.31,0.06
					c20.39-0.28,38.78-0.32,57.32,2.03c3.17,0.4,7.83,1.18,11.66,3.29c3.46,1.91,5.8,5.43,6.26,9.41
					C307.18,121.82,307.27,127.44,307.37,132.88z"/>
				<path class="st1" d="M305.92,132.9c0.59,34.7,1.18,69.57-3.59,103.26c0,0-193.32,0.56-193.89-0.47
					c-2.92-37.35-3.81-74.86-2.69-112.3c0.2-6.51,1.61-14.6,8.95-17.01c36.4-5.53,77.73-2.82,116.62-3.36
					c19.07-0.26,38.2-0.38,57.12,2.02c3.75,0.47,7.84,1.3,11.15,3.12c3.07,1.69,5.12,4.82,5.52,8.31
					C305.73,121.91,305.83,127.42,305.92,132.9z M301.07,234.72c4.58-33.29,3.98-68.11,3.41-101.79c-0.1-5.37-0.19-10.92-0.81-16.3
					c-0.35-3.06-2.14-5.75-4.78-7.21c-3.4-1.87-7.69-2.58-10.63-2.95c-18.36-2.33-36.64-2.29-56.92-2.01
					c-10.99,0.16-22.37,0.05-33.38-0.06c-27.99-0.27-56.94-0.54-82.92,3.39c-5.01,1.71-7.58,6.83-7.84,15.64
					c-1.11,36.85-0.24,74.18,2.58,110.95C122.22,235.04,238.15,234.9,301.07,234.72z"/>
				<path class="st3" d="M304.48,132.93c0.57,33.68,1.17,68.5-3.41,101.79c-62.92,0.18-178.85,0.32-191.29-0.34
					c-2.82-36.77-3.69-74.1-2.58-110.95c0.26-8.81,2.83-13.93,7.84-15.64c25.98-3.93,54.93-3.66,82.92-3.39
					c11.01,0.11,22.39,0.22,33.38,0.06c20.28-0.28,38.56-0.32,56.92,2.01c2.94,0.37,7.23,1.08,10.63,2.95
					c2.64,1.46,4.43,4.15,4.78,7.21C304.29,122.01,304.38,127.56,304.48,132.93z"/>
			</g>
			<g>
			</g>
		</g>
	</g>
	<g>
		<rect x="118.53" y="116.88" class="st3" width="175.62" height="108.24"/>
		<path class="st1" d="M294.15,226.56H118.53c-0.8,0-1.45-0.65-1.45-1.44V116.88c0-0.8,0.65-1.44,1.45-1.44h175.62
			c0.8,0,1.44,0.65,1.44,1.44v108.24C295.6,225.91,294.95,226.56,294.15,226.56z M119.97,223.67h172.73V118.32H119.97V223.67z"/>
	</g>
	<g class="st2">
		<path class="st1" d="M293.47,118.99c-0.22-0.75-0.8-1.33-1.55-1.55c-0.59-0.18-1.18-0.01-1.77,0.1c-0.62,0.08-1.93,0.3-2.38,0.38
			c-0.02,0-0.03,0-0.05,0c-3.61,0.03-7.21-0.37-10.82-0.52c-3.02-0.19-6.05-0.17-9.06-0.42c-2.5-0.21-4.99-0.66-7.51-0.67
			c-19.07-0.51-38.11,0.7-57.14,1.72c-10.96,0.48-21.92-0.32-32.87-0.59c-8.13-0.37-16.27-0.63-24.4-1.03
			c-7.31-0.32-14.61-0.87-21.93-0.64c-1.76,0.13-3.83-0.26-5.19,1.13c-1.6,1.54-1.17,4.12,0.38,5.38
			c-1.45,8.02-0.56,16.31-0.71,24.43c0.05,5.38,0.25,10.77,0.31,16.15c0.01,5.05,0.12,10.09,0.83,15.09
			c0.53,3.4-0.01,6.81-0.21,10.22c0.11,9.47-0.79,18.92-0.55,28.39c0.06,1.89,0.19,3.78,0.22,5.68c-0.13,1.77,0.76,3.67,2.77,3.65
			c3.41-0.3,2.62-3.38,2.54-5.82c-0.05-2.55,0.01-5.1,0.11-7.65c0.12-4.4,0.69-8.78,0.89-13.18c0.12-5.88,0.24-11.76,0.18-17.63
			c-0.21-3.37-0.76-6.72-0.93-10.1c-0.22-6.6-0.06-13.2-0.16-19.8c0.05-8.52,0.01-17.05,0.28-25.57c0.23-2.31,0.17-2.23,0.37-3.22
			c6.92-0.06,13.83,0.48,20.75,0.66c17.45,0.41,34.9,1.48,52.36,1.4c9.32-0.29,18.62-1.11,27.93-1.57c10.74-0.32,21.48-0.91,32.22-1
			c3.62-0.23,7.18,0.48,10.78,0.67c4.52-0.03,9.04-0.38,13.56-0.43c2.9-0.03,4.83-0.46,5.6-0.62c1.43-0.32,3.13,0.16,4.36-0.71
			C293.41,120.83,293.7,119.82,293.47,118.99z"/>
	</g>
	<g class="st2">
		<path class="st1" d="M344.64,266.86c-1.4-0.68-2.85-1.21-4.29-1.79c-0.09-0.03-0.17-0.06-0.26-0.1c-0.05-0.13-0.1-0.26-0.17-0.38
			c-0.54-0.85-1.48-1.25-2.3-1.79c-1.15-0.74-2.25-1.56-3.36-2.36c-6.15-4.31-12.52-8.87-16.86-12.44c-4.3-3.83-8.3-8.23-13.5-10.86
			c-1.78-0.86-3.65-1.74-5.63-1.95c-3.25-0.11-6.51,0.37-9.76,0.47c-7.81,0.43-15.64,0.19-23.46,0.35
			c-12.27,0.22-24.52,1.11-36.78,1.17c-9.26-0.01-18.53,0.17-27.79,0.22c-6.13-0.21-12.25-0.27-18.39-0.22
			c-6.83-0.08-13.6-1.34-20.43-1.23c-1.34,0.12-2.81-0.22-4.06,0.33c-0.99,0.34-1.64,1.18-1.9,2.13c-7.98-0.62-16-0.53-23.97-1.29
			c-4-0.4-12.82-1.34-13.87-1.5c-2.43-0.32-4.85-0.76-7.3-0.84c-0.93,0.03-1.91-0.27-2.77,0.16c-2.55,0.99-1.88,5.07,1.02,5.05
			c7.52,0.31,16.9,2.62,26.29,3.29c6.08,0.52,12.18,0.55,18.27,0.88c5.37,0.38,10.72,0.9,16.08,1.41
			c12.05,1.27,26.01,3.92,41.67,5.48c12.96,1.4,26.04,1.34,38.99,2.92c9.69,0.95,23.52,4.13,35.73,5.94
			c12.96,1.89,23.4,2.87,35.09,4.87c0.01,0.01,0.03,0.01,0.04,0.02c0.29,0.09,0.58,0.13,0.87,0.14c1.93,0.34,3.9,0.7,5.92,1.1
			c2.61,0.58,5.19,1.27,7.78,1.93c0.15,0.04,0.31,0.08,0.46,0.1c0.24,0.07,0.49,0.14,0.74,0.2c0.27,0.34,0.65,0.61,1.15,0.73
			c1.4,0.54,2.8,1.09,4.21,1.62c0.56,0.18,1.13,0.49,1.72,0.34C345.86,270.82,346.43,267.82,344.64,266.86z M298.73,251.36
			c0.73,0.04,1.46,0.09,2.2,0.13c0.08,0,0.16,0.01,0.24,0.01c0.42,0.23,0.84,0.46,1.26,0.69
			C301.19,251.91,299.96,251.63,298.73,251.36z"/>
	</g>
	<g>
		<g>
			<path class="st4" d="M91.38,198.8c-1.28-4.26-2.67-7.22-7.07-10.71c-1.19-0.94-5.41-5.11-5.41-5.11s3.66-0.14,5.33-0.35
				c7.65-0.97,14.95-0.51,22.64-0.14c2.06,0.1,8.26-0.59,8.26-0.59s-4.89,6.18-6.35,8.09c-1.91,2.49-3.13,3.92-3.99,6.21
				c-0.84,2.22-0.04,4.82,1.41,6.66c1.44,1.83,3.43,3.06,5.34,4.31c9.89,6.47,19.24,15.01,23.44,26.53
				c4.2,11.53,1.75,26.45-7.98,33.2c-4.91,3.41-10.94,4.39-16.79,4.8c-7.09,0.5-14.22,0.28-21.27-0.65
				c-6.62-0.87-13.83-2.82-17.62-8.66c-2.12-3.27-2.85-7.35-2.9-11.31c-0.12-10.36,4.17-20.39,10.42-28.33
				C84.64,215.37,94.08,207.82,91.38,198.8z"/>
			<path class="st4" d="M102.79,272.59c-4.66,0-9.33-0.3-13.94-0.91c-5.76-0.76-13.9-2.51-18.07-8.95c-1.94-2.99-2.94-6.91-3-11.65
				c-0.11-9.75,3.64-19.95,10.56-28.73c1.2-1.53,2.58-3.09,3.92-4.6c5.19-5.87,10.56-11.94,8.52-18.77c-1.29-4.31-2.7-7.1-6.86-10.4
				c-1.2-0.95-5.29-4.98-5.46-5.15c-0.18-0.18-0.24-0.44-0.15-0.68c0.09-0.24,0.31-0.39,0.57-0.4c0.04,0,3.65-0.14,5.28-0.35
				c7.18-0.91,13.98-0.58,21.17-0.22l1.58,0.08c1.98,0.09,8.09-0.58,8.16-0.58c0.25-0.03,0.5,0.1,0.62,0.32
				c0.12,0.22,0.1,0.5-0.06,0.7c-0.05,0.06-4.9,6.2-6.35,8.09l-0.61,0.8c-1.54,1.99-2.55,3.31-3.29,5.25
				c-0.68,1.79-0.17,4.16,1.31,6.04c1.28,1.63,3.07,2.79,4.8,3.92l0.39,0.25c12.29,8.04,20.03,16.82,23.68,26.85
				c2.15,5.9,2.6,12.56,1.26,18.74c-1.42,6.55-4.78,11.94-9.47,15.19c-5.24,3.63-11.59,4.52-17.11,4.91
				C107.77,272.51,105.28,272.59,102.79,272.59z M80.39,183.55c1.32,1.29,3.53,3.42,4.32,4.04c4.42,3.51,5.92,6.46,7.28,11.03l0,0
				c2.25,7.5-3.36,13.84-8.79,19.97c-1.39,1.57-2.69,3.05-3.87,4.54c-6.74,8.55-10.39,18.47-10.29,27.93
				c0.05,4.5,0.99,8.2,2.8,10.98c3.89,5.99,11.66,7.65,17.17,8.38c7,0.92,14.11,1.14,21.14,0.64c5.35-0.38,11.49-1.23,16.47-4.69
				c9.77-6.78,11.61-21.83,7.74-32.46c-3.55-9.76-11.14-18.34-23.19-26.22l-0.39-0.25c-1.82-1.18-3.7-2.41-5.1-4.2
				c-1.75-2.22-2.34-5.07-1.5-7.27c0.81-2.12,1.87-3.49,3.47-5.57l0.61-0.79c1.06-1.38,3.93-5.03,5.43-6.92
				c-1.98,0.2-5.4,0.5-6.86,0.43l-1.58-0.08c-7.14-0.35-13.88-0.68-20.95,0.21C83.3,183.39,81.61,183.49,80.39,183.55z"/>
		</g>
		<g>
			<path class="st4" d="M95.93,200.32c-1.44,0-2.87-0.14-4.28-0.41c-0.34-0.07-0.57-0.4-0.5-0.74c0.07-0.34,0.4-0.57,0.74-0.5
				c3.97,0.78,8.22,0.38,11.98-1.14c0.33-0.13,0.69,0.03,0.83,0.35c0.13,0.32-0.03,0.69-0.35,0.83
				C101.69,199.77,98.81,200.32,95.93,200.32z"/>
		</g>
		<g>
			<path class="st4" d="M93.83,206.12c-0.81,0-1.63-0.04-2.44-0.11c-0.35-0.03-0.61-0.34-0.58-0.69c0.03-0.35,0.35-0.61,0.69-0.58
				c4.89,0.43,9.79-0.5,14.19-2.68c0.31-0.16,0.69-0.03,0.85,0.29c0.16,0.31,0.03,0.69-0.28,0.85
				C102.38,205.12,98.13,206.12,93.83,206.12z"/>
		</g>
		<g>
			<path class="st4" d="M104.15,256.04c-3.99,0-7.98-1.52-10.87-4.33c-0.25-0.24-0.26-0.64-0.01-0.9c0.24-0.25,0.65-0.26,0.9-0.01
				c3.8,3.69,9.9,4.96,14.86,3.1c2.57-0.97,4.35-2.69,4.75-4.6c0.44-2.07-0.74-4.47-2.86-5.83c-1.73-1.11-4.02-1.62-7.02-1.61
				c-0.33,0-0.66,0.01-0.99,0.02c-1.41,0.03-2.86,0.07-4.28-0.32c-1.61-0.44-3.62-1.71-3.95-3.87c-0.42-2.76,2.17-4.92,4.52-5.93
				c3.92-1.69,8.37-2.09,12.52-1.11c0.34,0.08,0.55,0.42,0.47,0.76c-0.08,0.34-0.42,0.55-0.76,0.47c-3.89-0.91-8.06-0.54-11.73,1.04
				c-1.93,0.84-4.08,2.54-3.77,4.58c0.22,1.46,1.68,2.47,3.02,2.84c1.24,0.33,2.54,0.31,3.92,0.27c0.34-0.01,0.67-0.02,1.01-0.02
				c3.27-0.03,5.77,0.57,7.71,1.81c2.56,1.64,3.96,4.58,3.42,7.15c-0.71,3.38-4.11,4.99-5.54,5.53
				C107.76,255.73,105.96,256.04,104.15,256.04z"/>
		</g>
		<g>
			<path class="st4" d="M104.58,259.69c-0.01,0-0.03,0-0.04,0c-0.35-0.02-0.61-0.33-0.59-0.67c0.74-10.82-0.53-21.55-3.76-31.89
				c-0.1-0.33,0.08-0.69,0.42-0.79c0.34-0.11,0.69,0.08,0.79,0.42c3.28,10.5,4.56,21.38,3.82,32.36
				C105.19,259.43,104.91,259.69,104.58,259.69z"/>
		</g>
		<g>
			<path class="st4" d="M79.07,212.02c-1.22,0-2.45-0.34-3.47-1.19c-0.27-0.22-0.31-0.62-0.08-0.89c0.22-0.27,0.62-0.3,0.89-0.08
				c1.65,1.37,4.23,1.01,5.93-0.06c1.89-1.18,3.18-3.1,4.45-5.12l0.35-0.56c0.96-1.54,1.95-3.13,3.16-4.63
				c-1.73-0.08-3.46,0.45-4.81,1.53c-0.34,0.27-0.65,0.57-0.98,0.88c-0.41,0.39-0.83,0.79-1.31,1.14c-1.88,1.37-4.49,1.72-6.66,0.89
				c-0.33-0.13-0.49-0.49-0.37-0.82c0.13-0.33,0.49-0.49,0.82-0.37c1.78,0.68,3.92,0.39,5.46-0.73c0.41-0.3,0.79-0.66,1.19-1.04
				c0.34-0.32,0.69-0.65,1.07-0.96c1.94-1.54,4.54-2.15,6.97-1.63c0.22,0.05,0.4,0.21,0.47,0.42c0.07,0.21,0.02,0.45-0.13,0.62
				c-1.49,1.67-2.66,3.54-3.79,5.35l-0.35,0.56c-1.3,2.07-2.74,4.2-4.85,5.53C81.93,211.55,80.5,212.02,79.07,212.02z"/>
		</g>
		<g>
			<path class="st4" d="M111.64,271.44c-0.13,0-0.23-0.09-0.23-0.21c0-0.12,0.09-0.21,0.21-0.21c0,0,0.01,0,0.01,0
				c3.08,0,6.35-1.47,8.98-4.03c2.63-2.57,4.37-5.87,5.59-8.46c0.05-0.11,0.18-0.15,0.28-0.1c0.11,0.05,0.15,0.18,0.1,0.28
				c-1.23,2.62-2.99,5.96-5.68,8.58C118.21,269.93,114.83,271.44,111.64,271.44z"/>
		</g>
		<g>
			<path class="st4" d="M108.1,271.72c-0.07,0-0.15-0.04-0.18-0.11c-0.06-0.1-0.02-0.23,0.08-0.29c2.52-1.41,4.62-3.47,6.08-5.95
				c0.06-0.1,0.19-0.13,0.29-0.07c0.1,0.06,0.13,0.19,0.07,0.29c-1.5,2.55-3.66,4.66-6.24,6.11
				C108.17,271.71,108.13,271.72,108.1,271.72z"/>
		</g>
		<g>
			<path class="st4" d="M95.2,271.95c-0.01,0-0.02,0-0.03,0c-2.66-0.41-5.02-2.18-6.18-4.61c-0.05-0.11-0.01-0.23,0.1-0.28
				c0.1-0.05,0.23-0.01,0.28,0.1c1.1,2.3,3.34,3.98,5.86,4.37c0.12,0.02,0.19,0.13,0.18,0.24C95.39,271.88,95.3,271.95,95.2,271.95z
				"/>
		</g>
		<g>
			<path class="st4" d="M87.04,270.91c-0.04,0-0.09-0.01-0.12-0.04c-3.64-2.66-6.97-5.39-7.81-9.38c-0.02-0.11,0.05-0.23,0.16-0.25
				c0.11-0.03,0.23,0.05,0.25,0.16c0.81,3.85,4.08,6.51,7.65,9.13c0.09,0.07,0.11,0.2,0.05,0.3
				C87.17,270.88,87.1,270.91,87.04,270.91z"/>
		</g>
		<g>
			<path class="st4" d="M95.38,199.34c-0.1,0-0.18-0.07-0.21-0.16c-0.64-2.66-1.57-5.26-2.76-7.73c-0.05-0.1-0.01-0.23,0.1-0.28
				c0.11-0.05,0.23-0.01,0.28,0.1c1.21,2.49,2.15,5.12,2.79,7.81c0.03,0.11-0.04,0.23-0.16,0.25
				C95.42,199.34,95.4,199.34,95.38,199.34z"/>
		</g>
		<g>
			<path class="st4" d="M98.47,199.49c-0.01,0-0.01,0-0.02,0c-0.12-0.01-0.2-0.11-0.19-0.23c0.24-2.55,1.07-5.05,2.41-7.23
				c0.06-0.1,0.19-0.13,0.29-0.07c0.1,0.06,0.13,0.19,0.07,0.29c-1.3,2.13-2.12,4.56-2.35,7.05
				C98.67,199.41,98.57,199.49,98.47,199.49z"/>
		</g>
		<g>
			<path class="st4" d="M101.51,198.43c-0.02,0-0.04,0-0.06-0.01c-0.11-0.03-0.17-0.15-0.14-0.26l0.94-3.16
				c0.04-0.13,0.1-0.2,0.19-0.22c0.08-0.02,0.16,0.01,0.21,0.07c0.1,0.11,0.17,0.19-0.93,3.44
				C101.68,198.38,101.6,198.43,101.51,198.43z"/>
		</g>
		<g class="st2">
			<path class="st4" d="M132.86,224.1c-0.14-0.41-0.56-1.36-1.22-2.19c0.06,0.07-0.72-0.96-0.91-1.18c-0.68-0.89-1.44-1.7-2.24-2.47
				c-1.63-1.8-3.38-3.49-5.18-5.12c-1.75-1.7-3.76-2.83-5.38-4.3c-0.07-0.07-0.13-0.15-0.2-0.22c-0.05-0.16-0.14-0.3-0.25-0.42
				c-0.63-0.68-1.88-0.17-1.84,0.76c-0.02,0.51,0.29,0.91,0.61,1.27c0.48,0.57,1.07,1.05,1.65,1.51c0.96,0.8,1.94,1.59,2.88,2.42
				c2.37,2.17,4.55,4.53,6.74,6.87c0.78,0.85,1.45,1.88,2.54,3.42c0.01,0.01-0.15-0.19-0.2-0.26c0.63,0.84,0.2,0.39,0.84,1.05
				c0.01,0.01,0.03,0.02,0.04,0.03c0.08,0.09,0.18,0.18,0.29,0.25C131.99,226.29,133.32,225.17,132.86,224.1z"/>
		</g>
		<g class="st2">
			<path class="st4" d="M104.12,198.35c0.04-0.03,0.08-0.06,0.11-0.1c1.14-1.28-0.24-2.78-1.73-2.08c-2.48,0.86-5.54,0.94-7.33,0.67
				c-1.21-0.31-0.89-0.19-1.54-0.49c-0.39-0.16-0.75-0.47-1.19-0.49c-1.6-0.28-2.37,1.99-0.96,2.79c0.42,0.25,0.84,0.45,1.28,0.62
				c-0.67,0.68-0.51,2.06,0.61,2.35c2.81,0.68,5.78,0.18,8.52-0.59c0.44-0.18,0.95-0.28,1.36-0.54c0,0,0.01,0,0.01-0.01
				c-0.01,0.01-0.02,0.02-0.03,0.02c0.04-0.02,0.05-0.03,0.04-0.03c0.01,0,0.02-0.01,0.03-0.01c0.04-0.01,0.08-0.03,0.13-0.05
				c0,0,0.01,0,0.01-0.01c0,0,0,0,0,0c0.1-0.05,0.19-0.11,0.28-0.17c-0.01,0.01-0.02,0.02-0.03,0.02c0.19-0.11,0.39-0.22,0.5-0.41
				c0.34-0.38,0.33-1.04,0-1.43C104.16,198.4,104.14,198.38,104.12,198.35z"/>
		</g>
		<g class="st2">
			<path class="st4" d="M105.94,204.33c0.3-0.4,0.37-0.97,0.1-1.41c-0.23-0.39-0.67-0.62-1.11-0.61c0,0,0.01,0,0.01,0
				c-0.01,0-0.03,0-0.04,0c-0.08,0-0.16,0.01-0.24,0.03c-0.59,0.1-0.64,0.37-1.69,0.88c-0.56,0.33-2.99,1.04-4.67,1.33
				c-1.69,0.3-1.65,0.4-3.58,0.3c-0.34-0.07-0.68-0.2-1.02-0.12c-1.68,0.16-1.83,2.64-0.21,3.06c2.91,0.66,5.85-0.35,8.58-1.31
				c1.27-0.49,2.57-1.01,3.63-1.88c0.03-0.03,0.05-0.06,0.08-0.09c0.03-0.03,0.06-0.06,0.09-0.09
				C105.89,204.38,105.92,204.35,105.94,204.33z"/>
		</g>
		<g class="st2">
			<path class="st4" d="M136.92,242.43c-0.06-0.91,0.08-1.89-0.2-2.76c-0.35-0.63-1.38-0.51-1.55,0.2
				c-0.17,1.92-0.45,3.33-1.01,5.52c-1.12,4.51-2.37,7.64-4.43,11.49c-0.96,1.88-1.78,3.32-2.83,4.58c-2.54,2.17-5.53,3.95-8.4,4.73
				c-2.98,0.96-4.02,0.86-7.25,1.24c-4.37,0.53-8.78,0.2-13.16-0.04c-2.34-0.1-4.01-0.53-7.1-0.94c-3.53-0.4-8.41-1.1-13.76-2.68
				c-1.48-0.56-0.37-0.06-1.93-0.86c-0.13-0.08-0.26-0.12-0.4-0.14c-0.29-0.18-0.57-0.38-0.87-0.59c-0.57-0.36-1.74-1.54-2.75-2.29
				c-0.59-0.3-1.29,0.34-1.1,0.96c0.25,0.6,0.91,0.93,1.36,1.38c0.06,0.06,0.13,0.11,0.19,0.17c0,0.05,0.01,0.11,0.03,0.16
				c0.35,0.72,1.07,1.2,1.64,1.75c0.06,0.32,0.25,0.62,0.6,0.81c0.2,0.12,0.41,0.24,0.62,0.35c0.53,0.52,1.07,1.03,1.67,1.44
				c0.25,0.12,0.49,0.09,0.69-0.02c0.12,0.08,0.25,0.16,0.36,0.24c1.55,1.1,2.96,1.71,4.1,2.15c0.63,0.29,4.14,1.73,5.85,2.18
				c1.29,0.36,2.62,0.53,3.94,0.7c2.34,0.32,4.7,0.2,7.06,0.17c2.5-0.01,5,0.03,7.49-0.2c4.08-0.23,8.18-0.47,12.21-1.17
				c4.13-0.9,8.01-2.87,11.15-5.71c1.36-1.2,2.35-2.74,3.15-4.35c0.24-0.62,0.78-1.23,0.72-1.91c0.51-0.83,0.98-1.7,1.37-2.6
				c0.42-0.8,0.76-1.64,1.05-2.48c0.34-0.41,0.41-1.1,0.51-1.68c0.12-0.44,0.22-0.87,0.32-1.31c0.13-0.73,0.4-1.4,0.2-1.93
				c0.08-0.53,0.15-1.07,0.2-1.61C136.84,245.75,136.91,244.09,136.92,242.43z M89.28,269.52c-0.01,0-0.03-0.01-0.04-0.01
				c0.51,0.07,1.26,0.16,1.49,0.19c0.19,0.03,0.37,0.06,0.56,0.08C90.56,269.71,89.88,269.63,89.28,269.52z"/>
		</g>
	</g>
	<g>
		<g>
			<path class="st5" d="M271.1,184.59c5.87-5.63,11.73-11.26,17.6-16.89c0.56-0.54-0.29-1.38-0.85-0.85
				c-5.87,5.63-11.73,11.26-17.6,16.89C269.69,184.28,270.54,185.13,271.1,184.59L271.1,184.59z"/>
		</g>
	</g>
	<g>
		<path class="st3" d="M271.05,195.61H144.46c-5.54,0-10.06-4.53-10.06-10.06v-20.6c0-5.54,4.53-10.06,10.06-10.06h126.59
			c5.54,0,10.06,4.53,10.06,10.06v20.6C281.11,191.08,276.58,195.61,271.05,195.61z"/>
		<g>
			<path class="st6" d="M152.58,174.01h-4.98v-3.33c0-0.97-0.05-1.57-0.16-1.81c-0.11-0.24-0.34-0.36-0.7-0.36
				c-0.41,0-0.67,0.15-0.78,0.44c-0.11,0.29-0.17,0.92-0.17,1.89v8.89c0,0.93,0.06,1.54,0.17,1.82c0.11,0.28,0.36,0.43,0.74,0.43
				c0.37,0,0.61-0.14,0.73-0.43c0.11-0.28,0.17-0.95,0.17-2v-2.41h4.98v0.75c0,1.98-0.14,3.39-0.42,4.22
				c-0.28,0.83-0.9,1.55-1.86,2.18c-0.96,0.62-2.14,0.94-3.54,0.94c-1.46,0-2.66-0.26-3.61-0.79c-0.95-0.53-1.57-1.26-1.88-2.19
				c-0.31-0.93-0.46-2.34-0.46-4.21v-5.59c0-1.38,0.05-2.41,0.14-3.1c0.09-0.69,0.38-1.35,0.85-1.99c0.47-0.64,1.12-1.14,1.95-1.51
				c0.83-0.37,1.79-0.55,2.87-0.55c1.47,0,2.68,0.28,3.63,0.85c0.95,0.57,1.58,1.27,1.88,2.12c0.3,0.85,0.45,2.16,0.45,3.95V174.01z
				"/>
			<path class="st6" d="M165.81,165.67v19.14h-4.98v-8.04h-1.49v8.04h-4.98v-19.14h4.98v6.85h1.49v-6.85H165.81z"/>
			<path class="st6" d="M172.79,165.67v19.14h-4.98v-19.14H172.79z"/>
			<path class="st6" d="M179.76,165.67v15.31h3.03v3.83h-8v-19.14H179.76z"/>
			<path class="st6" d="M183.99,165.67h8.3v3.83h-3.32v3.63h3.11v3.64h-3.11v4.21h3.65v3.83h-8.63V165.67z"/>
			<path class="st6" d="M205.68,174.01h-4.98v-3.33c0-0.97-0.05-1.57-0.16-1.81c-0.11-0.24-0.34-0.36-0.7-0.36
				c-0.41,0-0.67,0.15-0.78,0.44c-0.11,0.29-0.17,0.92-0.17,1.89v8.89c0,0.93,0.06,1.54,0.17,1.82c0.11,0.28,0.36,0.43,0.74,0.43
				c0.37,0,0.61-0.14,0.73-0.43c0.11-0.28,0.17-0.95,0.17-2v-2.41h4.98v0.75c0,1.98-0.14,3.39-0.42,4.22
				c-0.28,0.83-0.9,1.55-1.86,2.18c-0.96,0.62-2.14,0.94-3.54,0.94c-1.46,0-2.66-0.26-3.61-0.79c-0.95-0.53-1.57-1.26-1.88-2.19
				c-0.31-0.93-0.46-2.34-0.46-4.21v-5.59c0-1.38,0.05-2.41,0.14-3.1c0.09-0.69,0.38-1.35,0.85-1.99c0.47-0.64,1.12-1.14,1.95-1.51
				c0.83-0.37,1.79-0.55,2.87-0.55c1.47,0,2.68,0.28,3.63,0.85c0.95,0.57,1.58,1.27,1.88,2.12c0.3,0.85,0.45,2.16,0.45,3.95V174.01z
				"/>
			<path class="st6" d="M218.84,176.88c0,1.92-0.05,3.28-0.14,4.08s-0.37,1.53-0.85,2.19c-0.48,0.66-1.12,1.17-1.93,1.53
				c-0.81,0.35-1.76,0.53-2.84,0.53c-1.02,0-1.94-0.17-2.76-0.5s-1.47-0.84-1.97-1.51c-0.5-0.67-0.79-1.4-0.89-2.19
				c-0.09-0.79-0.14-2.17-0.14-4.14v-3.27c0-1.92,0.05-3.28,0.14-4.08c0.09-0.8,0.37-1.53,0.85-2.19c0.48-0.66,1.12-1.17,1.93-1.53
				c0.81-0.35,1.76-0.53,2.84-0.53c1.02,0,1.94,0.17,2.76,0.5c0.82,0.33,1.47,0.84,1.97,1.51c0.5,0.67,0.79,1.4,0.89,2.19
				c0.09,0.79,0.14,2.17,0.14,4.14V176.88z M213.86,170.59c0-0.89-0.05-1.46-0.15-1.71c-0.1-0.25-0.3-0.37-0.61-0.37
				c-0.26,0-0.46,0.1-0.6,0.3c-0.14,0.2-0.21,0.79-0.21,1.78v8.94c0,1.11,0.05,1.8,0.14,2.06c0.09,0.26,0.3,0.39,0.63,0.39
				c0.34,0,0.56-0.15,0.65-0.45c0.09-0.3,0.14-1.01,0.14-2.14V170.59z"/>
			<path class="st6" d="M236.05,165.67v19.14h-4.35l-0.01-12.92l-1.73,12.92h-3.09l-1.83-12.63l-0.01,12.63h-4.35v-19.14h6.44
				c0.19,1.15,0.39,2.51,0.59,4.07l0.71,4.87l1.14-8.94H236.05z"/>
			<path class="st6" d="M238.05,165.67h5.01c1.36,0,2.4,0.11,3.13,0.32c0.73,0.21,1.28,0.52,1.64,0.92s0.61,0.89,0.74,1.46
				c0.13,0.57,0.2,1.46,0.2,2.65v1.67c0,1.22-0.13,2.11-0.38,2.67c-0.25,0.56-0.72,0.99-1.39,1.29c-0.67,0.3-1.55,0.45-2.64,0.45
				h-1.34v7.71h-4.98V165.67z M243.03,168.95v4.87c0.14,0.01,0.26,0.01,0.37,0.01c0.46,0,0.77-0.11,0.95-0.34
				c0.18-0.22,0.27-0.69,0.27-1.4v-1.57c0-0.65-0.1-1.08-0.31-1.28C244.1,169.05,243.67,168.95,243.03,168.95z"/>
			<path class="st6" d="M250.2,165.67h3.52c2.35,0,3.94,0.09,4.77,0.27c0.83,0.18,1.51,0.64,2.03,1.39
				c0.52,0.74,0.79,1.93,0.79,3.56c0,1.49-0.19,2.49-0.56,3c-0.37,0.51-1.1,0.82-2.19,0.92c0.99,0.24,1.65,0.57,1.99,0.98
				c0.34,0.41,0.55,0.79,0.63,1.13c0.08,0.34,0.12,1.29,0.12,2.83v5.05h-4.62v-6.36c0-1.02-0.08-1.66-0.24-1.9
				c-0.16-0.24-0.59-0.37-1.27-0.37v8.63h-4.98V165.67z M255.18,168.95v4.26c0.56,0,0.95-0.08,1.18-0.23
				c0.22-0.15,0.34-0.65,0.34-1.5v-1.05c0-0.61-0.11-1-0.33-1.19C256.15,169.04,255.75,168.95,255.18,168.95z"/>
			<path class="st6" d="M271.85,165.67l2.85,19.14h-5.09l-0.27-3.44h-1.78l-0.3,3.44h-5.15l2.54-19.14H271.85z M269.21,177.98
				c-0.25-2.17-0.5-4.85-0.76-8.04c-0.51,3.67-0.83,6.34-0.96,8.04H269.21z"/>
		</g>
	</g>
	<g>
		<g>
			<path class="st3" d="M304.28,156.04c18.3,0.3,36.61,0.6,54.91,0.9c3.04,0.05,7.02,0.91,7.9,4.35
				c1.36,30.79,1.94,61.61,1.74,92.42c-0.03,4.61-0.45,9.97-4.33,12.49c-3.24,1.08-6.71,1.16-10.13,1.23
				c-18.51,0.38-37.02,0.76-55.54,1.14c-4.89,0.1-10.33,0.01-14-3.61c-1.83-3.4-1.91-7.42-1.95-11.28
				c-0.28-28.11-0.56-56.22-0.84-84.33c-0.03-2.52,0.29-5.02,0.89-7.47C284.58,155.21,297.44,155.93,304.28,156.04z"/>
			<path class="st1" d="M297.1,269.42c-4.73,0-9.45-0.53-12.84-3.87c-0.06-0.06-0.11-0.12-0.15-0.2c-1.96-3.65-2.01-7.91-2.04-11.66
				l-0.84-84.33c-0.02-2.53,0.28-5.11,0.91-7.68c1.69-6.89,13.19-6.66,20.8-6.5c0.47,0.01,0.92,0.02,1.35,0.03l0,0l54.91,0.9
				c2.78,0.05,7.61,0.75,8.68,4.97c0.01,0.05,0.02,0.11,0.02,0.17c1.35,30.66,1.94,61.77,1.74,92.46
				c-0.03,5.27-0.63,10.52-4.7,13.18c-0.06,0.04-0.12,0.07-0.19,0.09c-3.39,1.13-6.94,1.21-10.37,1.28l-0.56,0.01l-54.97,1.13
				C298.28,269.41,297.69,269.42,297.1,269.42z M285.51,264.46c3.35,3.22,8.21,3.39,13.32,3.28l55.54-1.14
				c3.27-0.07,6.66-0.14,9.78-1.16c3.34-2.26,3.83-6.98,3.86-11.75c0.19-30.64-0.39-61.69-1.74-92.29c-0.85-3.08-4.8-3.61-7.09-3.64
				l-54.91-0.9c-0.43-0.01-0.88-0.02-1.36-0.03c-6.65-0.14-17.79-0.37-19.16,5.24c-0.6,2.43-0.89,4.88-0.86,7.27l0.84,84.33
				C283.76,257.2,283.8,261.19,285.51,264.46z"/>
		</g>
		<g>
			<path class="st3" d="M294.1,168.65c-2.16,0.39-2.04,1.59-1.98,3.22c0.15,3.9,0.3,7.81,0.44,11.71c0.02,0.56,0.05,1.14,0.39,1.63
				c0.7,1.01,2.43,1.36,3.98,1.5c2.29,0.22,4.61,0.22,6.92,0.23c16.39,0.05,32.84,0.09,49.1-1.38c0.81-0.07,1.66-0.16,2.3-0.53
				c0.94-0.53,1.17-1.48,1.3-2.34c0.53-3.45,0.55-6.94,0.07-10.4c-0.17-1.25-0.49-2.61-1.76-3.45c-1.1-0.73-2.67-0.92-4.15-1.04
				c-3.67-0.31-7.37-0.41-11.07-0.3C335.48,167.63,304.69,166.75,294.1,168.65z"/>
			<path class="st1" d="M312.44,187.79c-2.88,0-5.74-0.01-8.59-0.02c-2.29-0.01-4.66-0.01-6.99-0.23c-1.51-0.14-3.63-0.49-4.58-1.86
				c-0.49-0.71-0.52-1.5-0.54-2.07l-0.45-11.87c-0.06-1.51-0.13-3.4,2.67-3.9l0,0c8.31-1.49,28.59-1.29,39.49-1.18
				c3.06,0.03,5.26,0.05,6.17,0.03c3.71-0.11,7.47-0.01,11.16,0.3c1.53,0.13,3.27,0.34,4.53,1.18c1.52,1.01,1.93,2.6,2.13,4.03
				c0.49,3.53,0.47,7.11-0.07,10.64c-0.11,0.7-0.33,2.15-1.71,2.93c-0.76,0.43-1.64,0.54-2.63,0.63
				C339.58,187.61,325.88,187.79,312.44,187.79z M294.25,169.46c-1.38,0.25-1.37,0.66-1.31,2.21l0.45,11.88
				c0.02,0.54,0.05,0.91,0.25,1.2c0.28,0.41,1.1,0.94,3.37,1.15c2.25,0.21,4.59,0.22,6.84,0.23c16.11,0.05,32.77,0.1,49.02-1.38
				c0.65-0.06,1.45-0.13,1.97-0.42c0.57-0.32,0.76-0.9,0.89-1.74c0.52-3.37,0.54-6.79,0.07-10.16c-0.18-1.29-0.49-2.27-1.4-2.88
				c-0.94-0.63-2.43-0.8-3.76-0.91c-3.63-0.3-7.32-0.4-10.97-0.3c-0.94,0.03-3.16,0.01-6.24-0.03
				C322.59,168.2,302.4,168,294.25,169.46L294.25,169.46z"/>
		</g>
		<g>
			<path class="st3" d="M295.44,204.25c0.13,3.13,0.26,6.25,0.39,9.38c0.01,0.34,0.05,0.73,0.35,0.96c0.31,0.25,0.78,0.23,1.2,0.2
				c3.17-0.22,6.37-0.14,9.53,0.24c0.6,0.07,1.37,0.07,1.59-0.4c0.08-0.18,0.06-0.38,0.03-0.57c-0.37-2.37,0.09-8.4-1.21-9.78
				C303.7,204.11,300.06,203.94,295.44,204.25z"/>
			<path class="st1" d="M307.44,215.89c-0.19,0-0.4-0.01-0.62-0.04c-3.11-0.37-6.26-0.45-9.38-0.23c-0.44,0.03-1.19,0.08-1.77-0.37
				c-0.62-0.49-0.65-1.22-0.66-1.58l-0.39-9.38c-0.02-0.45,0.32-0.83,0.77-0.86c4.67-0.32,8.39-0.15,11.98,0.02
				c0.21,0.01,0.41,0.1,0.56,0.26c1.02,1.07,1.16,3.62,1.25,7.1c0.03,1.23,0.06,2.4,0.18,3.12c0.03,0.22,0.1,0.62-0.09,1.04
				C308.98,215.58,308.37,215.89,307.44,215.89z M307.74,214.35L307.74,214.35L307.74,214.35z M300.89,213.84
				c2.05,0,4.1,0.12,6.13,0.36c0.38,0.05,0.59,0.03,0.71,0.01c0-0.01,0-0.02,0-0.03c-0.13-0.83-0.16-2.05-0.2-3.33
				c-0.05-1.93-0.13-4.76-0.64-5.77c-3.21-0.15-6.55-0.29-10.59-0.06l0.36,8.57c0.01,0.2,0.03,0.32,0.05,0.37
				c0.05,0.02,0.26,0.03,0.62,0.01C298.51,213.89,299.7,213.84,300.89,213.84z"/>
		</g>
		<g>
			<path class="st3" d="M318.4,204.32c0.15,3.12,0.31,6.25,0.46,9.37c0.02,0.34,0.06,0.73,0.36,0.96c0.31,0.24,0.79,0.22,1.2,0.19
				c3.17-0.24,6.37-0.19,9.54,0.17c0.6,0.07,1.37,0.06,1.59-0.42c0.08-0.18,0.05-0.38,0.02-0.57c-0.38-2.36,0.03-8.4-1.28-9.77
				C326.65,204.11,323.02,203.97,318.4,204.32z"/>
			<path class="st1" d="M330.45,215.87c-0.18,0-0.38-0.01-0.59-0.03c-3.11-0.35-6.27-0.4-9.38-0.16c-0.44,0.04-1.19,0.09-1.77-0.36
				c-0.62-0.48-0.66-1.22-0.68-1.57l-0.46-9.37c-0.02-0.45,0.32-0.83,0.76-0.87c4.67-0.36,8.39-0.21,11.98-0.07
				c0.21,0.01,0.42,0.1,0.56,0.25c1.02,1.07,1.19,3.61,1.3,7.09c0.04,1.23,0.08,2.4,0.2,3.12c0.04,0.22,0.1,0.63-0.09,1.04
				C332.02,215.55,331.4,215.87,330.45,215.87z M330.78,214.32L330.78,214.32L330.78,214.32z M324.3,213.87
				c1.92,0,3.84,0.11,5.75,0.32c0.38,0.04,0.59,0.02,0.71,0c0-0.01,0-0.02-0.01-0.03c-0.13-0.83-0.18-2.04-0.22-3.33
				c-0.07-1.93-0.16-4.76-0.68-5.76c-3.21-0.13-6.55-0.24-10.59,0.02l0.42,8.56c0.01,0.25,0.04,0.34,0.05,0.37
				c0.05,0.02,0.26,0.03,0.62,0C321.67,213.92,322.98,213.87,324.3,213.87z"/>
		</g>
		<g>
			<path class="st3" d="M341.43,204.32c0.15,3.12,0.31,6.25,0.46,9.37c0.02,0.34,0.06,0.73,0.36,0.96c0.31,0.24,0.79,0.22,1.2,0.19
				c3.17-0.24,6.37-0.19,9.54,0.17c0.6,0.07,1.37,0.06,1.59-0.42c0.08-0.18,0.05-0.38,0.02-0.57c-0.38-2.36,0.03-8.4-1.28-9.77
				C349.69,204.11,346.05,203.97,341.43,204.32z"/>
			<path class="st1" d="M353.49,215.87c-0.18,0-0.38-0.01-0.59-0.03c-3.11-0.35-6.27-0.4-9.38-0.16c-0.44,0.04-1.19,0.09-1.77-0.36
				c-0.62-0.48-0.66-1.22-0.68-1.57l-0.46-9.37c-0.02-0.45,0.32-0.83,0.76-0.87c4.67-0.36,8.39-0.21,11.98-0.07
				c0.21,0.01,0.42,0.1,0.56,0.25c1.02,1.07,1.19,3.61,1.3,7.09c0.04,1.23,0.08,2.4,0.2,3.12c0.04,0.22,0.1,0.63-0.08,1.04
				C355.06,215.55,354.43,215.87,353.49,215.87z M353.81,214.32L353.81,214.32L353.81,214.32z M347.33,213.87
				c1.92,0,3.84,0.11,5.75,0.32c0.38,0.04,0.59,0.02,0.71,0c0-0.01,0-0.02-0.01-0.03c-0.13-0.83-0.18-2.05-0.22-3.33
				c-0.07-1.93-0.16-4.76-0.68-5.76c-3.21-0.13-6.55-0.24-10.59,0.02l0.42,8.56c0.01,0.25,0.04,0.34,0.05,0.37
				c0.05,0.02,0.26,0.03,0.62,0C344.7,213.92,346.02,213.87,347.33,213.87z"/>
		</g>
		<g>
			<path class="st3" d="M296.57,223.3c0.13,3.13,0.26,6.25,0.39,9.38c0.01,0.34,0.05,0.73,0.35,0.96c0.31,0.25,0.78,0.23,1.2,0.2
				c3.17-0.22,6.37-0.14,9.53,0.24c0.6,0.07,1.37,0.07,1.59-0.4c0.08-0.18,0.06-0.38,0.03-0.57c-0.37-2.37,0.09-8.4-1.21-9.78
				C304.82,223.15,301.19,222.98,296.57,223.3z"/>
			<path class="st1" d="M308.57,234.93c-0.19,0-0.4-0.01-0.62-0.04c-3.11-0.37-6.27-0.45-9.38-0.23c-0.45,0.03-1.19,0.08-1.77-0.37
				c-0.62-0.49-0.65-1.22-0.66-1.58l-0.39-9.38c-0.02-0.45,0.32-0.83,0.77-0.86c4.67-0.32,8.39-0.15,11.98,0.02
				c0.21,0.01,0.41,0.1,0.56,0.26c1.02,1.07,1.16,3.62,1.25,7.1c0.03,1.23,0.06,2.4,0.18,3.12c0.03,0.22,0.1,0.62-0.09,1.04
				C310.11,234.62,309.5,234.93,308.57,234.93z M308.87,233.39L308.87,233.39L308.87,233.39z M302.02,232.89
				c2.05,0,4.1,0.12,6.13,0.36c0.38,0.04,0.59,0.03,0.71,0.01c0-0.01,0-0.02,0-0.03c-0.13-0.83-0.16-2.05-0.2-3.33
				c-0.05-1.93-0.13-4.76-0.64-5.77c-3.21-0.15-6.55-0.29-10.59-0.06l0.36,8.57c0.01,0.2,0.03,0.32,0.05,0.37
				c0.05,0.02,0.26,0.03,0.62,0.01C299.64,232.93,300.83,232.89,302.02,232.89z"/>
		</g>
		<g>
			<path class="st3" d="M319.53,223.36c0.15,3.12,0.31,6.25,0.46,9.37c0.02,0.34,0.06,0.73,0.36,0.96c0.31,0.24,0.79,0.22,1.2,0.19
				c3.17-0.24,6.37-0.19,9.54,0.17c0.6,0.07,1.37,0.06,1.59-0.42c0.08-0.18,0.05-0.38,0.02-0.57c-0.38-2.36,0.03-8.4-1.28-9.77
				C327.78,223.15,324.15,223.01,319.53,223.36z"/>
			<path class="st1" d="M331.58,234.91c-0.18,0-0.38-0.01-0.59-0.03c-3.11-0.35-6.27-0.4-9.38-0.17c-0.44,0.04-1.19,0.09-1.77-0.36
				c-0.62-0.48-0.66-1.22-0.68-1.57l-0.46-9.37c-0.02-0.45,0.32-0.83,0.76-0.87c4.67-0.35,8.39-0.21,11.98-0.07
				c0.21,0.01,0.42,0.1,0.56,0.25c1.02,1.07,1.19,3.61,1.3,7.09c0.04,1.23,0.08,2.4,0.2,3.12c0.04,0.22,0.1,0.63-0.08,1.04
				C333.15,234.6,332.53,234.91,331.58,234.91z M331.9,233.37L331.9,233.37L331.9,233.37z M325.42,232.91
				c1.92,0,3.85,0.11,5.76,0.32c0.38,0.04,0.59,0.02,0.71,0c0-0.01,0-0.02-0.01-0.03c-0.14-0.83-0.18-2.05-0.22-3.33
				c-0.07-1.93-0.16-4.76-0.68-5.76c-3.22-0.13-6.55-0.24-10.59,0.02l0.42,8.56c0.01,0.25,0.04,0.34,0.05,0.37
				c0.05,0.02,0.26,0.03,0.62,0C322.79,232.96,324.11,232.91,325.42,232.91z"/>
		</g>
		<g>
			<path class="st3" d="M298.11,242.34c0.13,3.13,0.26,6.25,0.39,9.38c0.01,0.34,0.05,0.73,0.35,0.96c0.31,0.25,0.78,0.23,1.2,0.2
				c3.17-0.22,6.37-0.14,9.53,0.24c0.6,0.07,1.37,0.07,1.59-0.4c0.08-0.18,0.06-0.38,0.03-0.57c-0.37-2.37,0.09-8.4-1.21-9.78
				C306.37,242.19,302.73,242.02,298.11,242.34z"/>
			<path class="st1" d="M310.11,253.97c-0.19,0-0.4-0.01-0.62-0.04c-3.11-0.37-6.27-0.45-9.38-0.23c-0.44,0.03-1.19,0.08-1.77-0.37
				c-0.62-0.49-0.65-1.22-0.66-1.58l-0.39-9.38c-0.02-0.45,0.32-0.83,0.77-0.86c4.66-0.32,8.38-0.15,11.97,0.02
				c0.21,0.01,0.43,0.1,0.57,0.26c1.02,1.07,1.16,3.62,1.25,7.1c0.03,1.23,0.06,2.4,0.18,3.12c0.03,0.22,0.1,0.62-0.09,1.04
				C311.66,253.67,311.04,253.97,310.11,253.97z M303.56,251.93c2.05,0,4.1,0.12,6.13,0.36c0.37,0.04,0.59,0.03,0.71,0.01
				c0-0.01,0-0.02,0-0.03c-0.13-0.83-0.16-2.05-0.2-3.33c-0.05-1.93-0.13-4.76-0.64-5.77c-3.22-0.15-6.56-0.29-10.59-0.06l0.36,8.57
				c0.01,0.2,0.03,0.32,0.05,0.37c0.05,0.02,0.26,0.03,0.62,0.01C301.18,251.97,302.37,251.93,303.56,251.93z"/>
		</g>
		<g>
			<path class="st3" d="M321.07,242.4c0.15,3.12,0.31,6.25,0.46,9.37c0.02,0.34,0.06,0.73,0.36,0.96c0.31,0.24,0.79,0.22,1.2,0.19
				c3.17-0.24,6.37-0.19,9.54,0.17c0.6,0.07,1.37,0.06,1.59-0.42c0.08-0.18,0.05-0.38,0.02-0.57c-0.38-2.36,0.03-8.4-1.28-9.77
				C329.33,242.2,325.69,242.05,321.07,242.4z"/>
			<path class="st1" d="M333.12,253.95c-0.18,0-0.38-0.01-0.59-0.03c-3.11-0.35-6.27-0.4-9.38-0.16c-0.44,0.04-1.19,0.09-1.77-0.36
				c-0.62-0.48-0.66-1.22-0.68-1.58l-0.46-9.37c-0.02-0.45,0.32-0.83,0.76-0.87c4.67-0.35,8.39-0.21,11.98-0.07
				c0.21,0.01,0.42,0.1,0.56,0.25c1.02,1.07,1.19,3.61,1.3,7.09c0.04,1.23,0.08,2.4,0.2,3.12c0.04,0.22,0.1,0.62-0.08,1.04
				C334.69,253.64,334.07,253.95,333.12,253.95z M326.97,251.95c1.92,0,3.84,0.11,5.75,0.32c0.38,0.04,0.59,0.02,0.71,0
				c0-0.01,0-0.02-0.01-0.03c-0.14-0.83-0.18-2.05-0.22-3.33c-0.07-1.93-0.16-4.76-0.68-5.76c-3.22-0.13-6.55-0.24-10.59,0.02
				l0.42,8.56c0.01,0.2,0.03,0.32,0.05,0.37c0.05,0.02,0.26,0.03,0.62,0C324.34,252,325.65,251.95,326.97,251.95z"/>
		</g>
		<g>
			<path class="st7" d="M342.45,223.44c0.35,9.78,0.41,19.57,0.68,29.84c3.6-0.26,7.21-0.25,10.58-0.28
				c0.34-9.99-0.49-18.37-0.11-29.87C350.17,223.08,346.15,222.79,342.45,223.44z"/>
			<path class="st1" d="M343.13,254.1c-0.2,0-0.4-0.08-0.55-0.21c-0.17-0.15-0.27-0.36-0.27-0.59c-0.11-4.21-0.19-8.38-0.26-12.41
				c-0.11-5.99-0.21-11.66-0.42-17.43c-0.01-0.41,0.28-0.77,0.68-0.84c3.04-0.53,6.31-0.45,9.2-0.37c0.72,0.02,1.43,0.04,2.11,0.04
				c0.22,0,0.43,0.09,0.59,0.26c0.15,0.16,0.24,0.38,0.23,0.6c-0.2,5.93-0.07,11.03,0.05,15.96c0.11,4.66,0.22,9.07,0.06,13.91
				c-0.01,0.44-0.37,0.79-0.82,0.8l-1.5,0.01c-2.95,0.02-5.99,0.05-9.04,0.27C343.17,254.1,343.15,254.1,343.13,254.1z
				 M343.3,224.14c0.19,5.53,0.29,10.97,0.39,16.72c0.07,3.75,0.14,7.63,0.24,11.54c2.8-0.17,5.58-0.19,8.28-0.22l0.7-0.01
				c0.12-4.49,0.02-8.64-0.09-13.02c-0.12-4.72-0.24-9.6-0.07-15.22c-0.42-0.01-0.85-0.02-1.29-0.03
				C348.76,223.83,345.97,223.76,343.3,224.14z"/>
		</g>
		<g class="st2">
			<path class="st1" d="M356.27,171.13c-0.11-1.31-3.02-2.46-4.02-2.61c-7.1-1.12-14.31-0.66-21.46-0.67
				c-2.13-0.03-4.25,0.04-6.38,0.16c-4.04-0.09-8.08-0.45-12.12-0.41c-3.84,0.04-7.67,0.43-11.5,0.49
				c-1.74,0.15-3.48,0.34-5.17,0.81c-0.58,0.18-1.24,0.31-1.75,0.64c-0.45-0.28-1.13-0.18-1.41,0.33c-0.34,0.93-0.2,1.99-0.23,2.97
				c0.03,1.51,0.1,3.01,0.22,4.52c0.34,2.77,0.48,5.64,1.44,8.28c0.63,1.13,2.13,0.52,2-0.72c-0.1-2.62-0.25-5.24-0.59-7.85
				c-0.1-0.74-0.19-1.49-0.27-2.23c0.25-0.96,0.53-1.91,0.86-2.85c7.81-0.07,15.59-0.88,23.4-0.87c7.68-0.16,15.35,0.31,23.03,0.59
				c3.81,0.12,7.59,0.7,11.4,0.85c0.84,0.01,0.96,0.02,1.43,0.07c0.03,0.01,0.05,0.01,0.06,0.01c0.27,0.1,0.58,0.08,0.84-0.07
				C356.61,172.21,356.6,171.55,356.27,171.13z"/>
		</g>
		<g>
			<g class="st2">
				<path class="st1" d="M369.32,233.06c0.03-3.3-0.29-6.58-0.51-9.87c-0.11-6.98-0.35-13.96-0.48-20.94
					c-0.27-9.84-0.83-19.66-1.16-29.5c-0.15-3.29-0.25-6.58-0.63-9.85c-0.12-1.12-0.32-2.24-0.52-3.35c-0.06-0.21-0.2-0.39-0.39-0.5
					c-0.2-0.12-0.43-0.13-0.64-0.07c-0.01-0.01-0.02-0.02-0.04-0.03c-0.21-0.13-0.45-0.13-0.66-0.06c-0.62-0.61-1.3-1.17-2.04-1.64
					c-0.35-0.22-0.71-0.57-1.15-0.43c-0.67,0.16-0.81,1.15-0.2,1.48c0.01,0.1,0.04,0.19,0.09,0.28c2.87,3.63,3.15,7.53,3.4,12.01
					c0.12,1.65,0.26,3.3,0.39,4.95c-0.01,1.12-0.04,2.24-0.04,3.35c0.07,3.28,0.11,6.57,0.04,9.85c-0.05,5.43,0.43,10.83,0.58,16.25
					c0.2,3.1,0.24,6.2,0.22,9.31c0.02,2.69,0.11,5.38-0.01,8.06c-0.13,4.14-0.01,8.28,0.01,12.42c-0.01,3.19-0.16,6.37-0.01,9.56
					c0.03,3.03,0.55,6.05,0.41,9.09c-0.46,3.89-0.28,6.72-1.57,10.16c-0.02,0.05-0.04,0.1-0.06,0.16c0.04-0.09,0.07-0.15,0-0.01
					c0,0.01-0.01,0.02-0.01,0.03c-0.01,0.03-0.02,0.06-0.04,0.1c0.01-0.03,0.02-0.06,0.03-0.09c-0.11,0.24-0.24,0.47-0.38,0.7
					c-0.05,0.07-0.17,0.25-0.23,0.34c-0.03,0.04-0.07,0.08-0.1,0.12c0.03-0.06-0.21,0.22-0.23,0.34c-0.34,0.67,0.39,1.5,1.11,1.27
					c0.47-0.14,1.2-0.96,1.64-1.91c1.31-2.9,1.35-6.13,1.68-9.25c0.04-0.3,0.08-0.59,0.1-0.89c0.31-0.03,0.61-0.21,0.78-0.49
					c0.27-0.68,0.19-1.48,0.26-2.21c0.21-2.71-0.19-5.42-0.17-8.13C368.81,240.13,369.3,236.61,369.32,233.06z"/>
			</g>
			<g class="st2">
				<path class="st1" d="M364.35,263.74c0,0.01-0.01,0.02-0.01,0.03c0,0,0-0.01,0-0.01C364.34,263.75,364.35,263.74,364.35,263.74z"
					/>
			</g>
		</g>
		<g>
			<g class="st2">
				<path class="st1" d="M355.28,217.01c-0.01,0-0.02,0.01-0.03,0.01C355.29,217.01,355.31,217.01,355.28,217.01z"/>
			</g>
			<g class="st2">
				<path class="st1" d="M356.26,206.67c-0.12-0.88-0.05-0.81-0.51-1.61c-0.11-0.13-0.19-0.33-0.42-0.48
					c-0.01-0.02-0.02-0.03-0.04-0.05c-0.02-0.02-0.04-0.05-0.06-0.07c-0.06-0.07,0.09,0.13,0.08,0.11c0,0,0,0,0,0
					c-0.09-0.16-0.25-0.28-0.43-0.33c-0.66-0.19-1.16,0.62-0.75,1.15c0.02,0.07,0.04,0.15,0.06,0.22c-0.24,0.18-0.41,0.5-0.34,0.9
					c0.41,2.52,0.93,5.46,0.74,7.53c0,0,0,0.01-0.01,0.02c-0.05,0.1-0.11,0.2-0.18,0.3c-0.01,0.01-0.02,0.02-0.03,0.03
					c-0.05,0.03-0.1,0.06-0.16,0.09c-0.02,0.01-0.03,0.01-0.05,0.02c-0.05,0.01-0.1,0.02-0.15,0.04c0,0,0,0,0,0
					c-0.05,0.01-0.1,0.02-0.16,0.03c-0.04,0-0.06,0-0.07,0.01c-0.02,0-0.05,0-0.07,0.01c-0.03,0-0.07,0.01-0.1,0.01
					c-0.1,0.01-0.19,0.02-0.29,0.04c0.15-0.02,0.37-0.05,0.08-0.02c-0.13,0.01-0.2,0.02-0.22,0.03c-0.91,0.01-1.83,0.22-2.74,0.2
					c-2.37,0.21-4.8,0.02-7.16,0.24c-0.34-0.32-0.57-0.81-1.08-0.81c-0.68-0.02-1.06,0.88-0.56,1.35c0.2,0.25,0.42,0.48,0.66,0.69
					c0.11,0.41,0.45,0.76,0.96,0.75c0.13,0,0.26-0.01,0.39-0.01c1.03,0.33,2.34,0.51,2.59,0.56c1.89,0.24,1.72,0.25,3.79,0.19
					c1.89-0.01,2.42-0.05,4.19-0.45c0.3-0.06,0.59-0.16,0.87-0.28c0,0-0.01,0-0.01,0c0,0,0.01,0,0.01-0.01
					c0.04-0.02,0.09-0.03,0.13-0.05c-0.02,0.01-0.05,0.02-0.07,0.03c0.3-0.12,0.53-0.33,0.71-0.6c0.74-1.62,0.53-3.5,0.61-5.24
					C356.55,209.69,356.41,208.18,356.26,206.67z"/>
			</g>
		</g>
		<g class="st2">
			<path class="st1" d="M356.27,245.67c-0.28-3.36-0.19-6.75-0.37-10.12c-0.2-3.92-0.15-7.85-0.28-11.78c-0.02-1.31-2-1.35-2.03,0
				c0.11,6.46,0.31,12.91,0.5,19.37c0.06,2.2,0.35,4.38,0.37,6.57c0.05,1.97-0.14,2.93-0.19,3.29c-0.03,0.12-0.05,0.25-0.06,0.37
				c0,0,0,0,0,0c0.01-0.04,0.01-0.09,0.02-0.12c0.01-0.02,0.01-0.02,0,0c0-0.04,0-0.05-0.02,0.02c-0.01,0.02-0.02,0.05-0.03,0.07
				c0,0.01-0.01,0.02-0.01,0.02c-0.47-0.08-0.92-0.26-1.39-0.37c-0.67-0.17-1.36-0.12-2.03-0.05c-1.08,0.1-2.17,0.24-3.24,0.41
				c-0.65,0.08-1.3,0.12-1.96,0.13c-0.25-0.02-0.52,0-0.75,0.08c-0.26-0.14-0.5-0.31-0.99-0.48c-0.82-0.16-1.23,1.06-0.5,1.45
				c0.24,0.18,0.49,0.31,0.74,0.43c0.1,0.21,0.28,0.38,0.53,0.44c1.13,0.25,2.25,0.61,3.41,0.7c1.14,0.1,2.29-0.02,3.43-0.12
				c1.15-0.1,2.28-0.36,3.33-0.85c0.4-0.18,0.9-0.46,1.02-0.91c0.06-0.12,0.12-0.23,0.17-0.36c0.01-0.01,0.02-0.04,0.05-0.11
				c0.46-1.06,0.51-2.25,0.52-3.39C356.49,248.81,356.41,247.23,356.27,245.67z"/>
		</g>
		<g class="st2">
			<path class="st1" d="M335.49,245.21c-0.31-0.74-0.35-1.65-1.45-1.25c-0.64,0.54-0.35,0.75-0.26,1.35
				c0.21,0.93,0.21,0.94,0.27,1.52c0.2,1.28,0.25,2.4,0.21,4.18c0.01,1.36-0.06,1.72-0.29,1.96c-0.03,0.03-0.06,0.06-0.09,0.08
				c-0.01,0.01-0.02,0.01-0.01,0.01c0,0,0,0,0,0c-0.01,0-0.01,0.01-0.02,0.01c0,0-0.01,0-0.01,0c-0.05,0.02-0.1,0.03-0.15,0.05
				c-0.9,0.18-6.91-0.06-8.51-0.3c-0.23-0.02-1.46-0.15-2.38-0.73c-0.32-0.17-0.66-0.38-1.03-0.26c-0.75,0.18-0.89,1.28-0.21,1.64
				c2.04,1.27,4.49,1.51,6.84,1.6c1.13,0.03,2.26,0.11,3.4,0.08c1.11-0.09,1.14-0.14,1.76-0.25c0.54-0.15,0.62-0.09,1.28-0.57
				c-0.35,0.26,0.08-0.03,0.19-0.14c0.23-0.22,0.42-0.48,0.56-0.76c0.47-1,0.4-2.14,0.49-3.22
				C336.23,248.54,335.98,246.83,335.49,245.21z"/>
		</g>
		<g class="st2">
			<path class="st1" d="M334.06,228.03c-0.17-0.61-0.07-1.64-0.89-1.73c-0.49-0.1-0.93,0.37-0.88,0.84
				c0.05,1.24,1.02,4.59,0.47,6.24c0,0,0,0,0,0c-0.01,0.01-0.01,0.01-0.02,0.02c-0.04,0.03-0.08,0.05-0.12,0.07
				c-0.1,0.03-0.21,0.06-0.24,0.07c-1.52,0.26-5.22-0.15-7.58-0.14c-1,0.02-1.99,0.03-2.99,0c-0.48,0.03-1.01-0.13-1.47,0.06
				c-1.01,0.38-0.69,1.97,0.39,1.94c2.99,0.05,5.98,0.03,8.97,0.19c2.83,0,4.67-0.22,4.86-2.92
				C334.71,231.1,334.31,229.56,334.06,228.03z"/>
		</g>
		<g class="st2">
			<path class="st1" d="M333.6,212.87c-0.13-1.05-0.14-2.12-0.23-3.17c-0.04-0.82-0.15-1.63-0.35-2.43
				c-0.2-0.62-0.07-0.41-0.29-0.74c-0.12-0.18-0.34-0.31-0.55-0.32c-0.41-0.08-0.82,0.22-0.93,0.61c-0.1,0.38,0.1,0.76,0.16,1.14
				c0.18,0.94,0.15,0.78,0.21,1.82c0.06,0.9-0.04,1.81,0.01,2.71c0.02,0.61,0.12,1.22,0.07,1.83c-0.02,0.09-0.05,0.18-0.08,0.27
				c-0.01,0.03-0.03,0.06-0.05,0.09c-0.01,0.01-0.01,0.02-0.02,0.03c-0.02,0.03-0.05,0.05-0.07,0.08c-0.04,0.03-0.09,0.05-0.14,0.07
				c-0.93,0.32-2.37,0.2-3.97,0.19c-1.79-0.05-3.58,0.05-5.36-0.15c-0.25-0.03,0.06,0.01,0.15,0.02c-1.07-0.06-2.27-0.77-3.21-0.78
				c-1.07,0.09-1.18,1.71-0.13,1.98c2.49,1.01,5.17,0.98,7.81,0.94c1.88-0.04,3.9,0.34,5.68-0.43
				C333.69,215.92,333.81,214.23,333.6,212.87z"/>
		</g>
		<g class="st2">
			<path class="st1" d="M311.01,211.73c-0.11-1.09-0.27-2.18-0.51-3.25c-0.13-0.53-0.67-2.09-0.54-1.7
				c-0.31-0.67-0.36-1.48-1.44-1.11c-0.62,0.53-0.37,0.74-0.28,1.24c0.07,0.26,0.12,0.53,0.24,1.27c0.24,1.94,0.51,2.49,0.54,4.69
				c-0.02,0.7-0.14,1.17-0.4,1.65c-0.01,0.02-0.03,0.04-0.04,0.06c-0.07,0.09-0.15,0.17-0.23,0.24c-0.02,0.01-0.03,0.02-0.05,0.03
				c-0.02,0.01-0.05,0.02-0.07,0.03c-0.1,0.03-0.31,0.1-0.46,0.13c-2.22,0.16-6.25,0.21-7.43-0.04c-1.39-0.16-2.73-0.73-4.12-0.78
				c-1.07,0.09-1.18,1.71-0.13,1.98c1.68,0.28,3.32,0.81,5.03,0.91c2.34,0.19,4.71,0.09,7.04-0.1
				C310.65,216.67,311.24,213.84,311.01,211.73z"/>
		</g>
		<g class="st2">
			<path class="st1" d="M311.86,230.16c-0.04-1.66-0.48-4.06-0.98-4.85c-0.01-0.02-0.02-0.03-0.03-0.05
				c-0.01-0.02-0.02-0.05-0.04-0.07c-0.04-0.06-0.09-0.13-0.13-0.19c0,0,0,0,0,0c0,0,0,0,0,0c-0.02-0.02-0.04-0.05-0.06-0.07
				c0.01,0.01,0.01,0.02,0.02,0.03c-0.19-0.24-0.53-0.33-0.83-0.25c-0.81,0.37-0.6,0.87-0.53,1.26c0-0.01,0-0.03-0.01-0.05
				c0.05,0.29,0.23,0.9,0.22,1.07c0.13,0.93,0.35,2.76,0.42,4.8c0.02,1.09,0.07,0.94-0.19,1.76c-0.04,0.09-0.11,0.21-0.16,0.29
				c-0.23,0.27-0.5,0.63-0.96,0.69c-1.44,0.13-6.35,0.27-7.86-0.06c-1.01-0.17-1.61-0.86-3.02-1.36c-1.06-0.2-1.59,1.35-0.65,1.87
				c1.11,0.57,2.18,1.29,3.43,1.5c2.49,0.38,5.04,0.15,7.56,0.13c0.63-0.05,1.28-0.1,1.84-0.41c0.81-0.48,1.46-1.23,1.78-2.12
				C312.13,232.82,311.88,231.47,311.86,230.16z"/>
		</g>
		<g class="st2">
			<path class="st1" d="M313.95,250.68c-0.04-1.27-0.06-2.54-0.34-3.79c-0.36-1.15-0.33-2.49-1.69-2.28
				c-1.34,0.46-0.41,1.85-0.26,2.79c0.21,0.81,0.22,1.81,0.27,3.24c-0.03,1.5-0.05,1.77-0.53,2.32c-1.08,0.28-3.13,0.34-4.93,0.36
				c-1.3,0.01-2.6,0.16-3.9-0.02c-0.38,0-1.27-0.29-1.57-0.46c-0.45-0.18-0.84-0.57-1.33-0.64c-1.06-0.2-1.59,1.35-0.65,1.87
				c1.85,1.22,4.08,1.48,6.25,1.31c2.04-0.04,4.09-0.05,6.11-0.34C313.48,254.85,314.04,252.44,313.95,250.68z"/>
		</g>
	</g>
	<g>
		<g>
			<path class="st5" d="M297.26,183.16c4.2-4.2,8.39-8.39,12.59-12.59c0.55-0.55-0.3-1.4-0.85-0.85c-4.2,4.2-8.39,8.39-12.59,12.59
				C295.87,182.86,296.71,183.71,297.26,183.16L297.26,183.16z"/>
		</g>
	</g>
	<g>
		<g>
			<path class="st5" d="M308.18,183.91c4.2-4.2,8.39-8.39,12.59-12.59c0.55-0.55-0.3-1.4-0.85-0.85c-4.2,4.2-8.39,8.39-12.59,12.59
				C306.79,183.61,307.64,184.46,308.18,183.91L308.18,183.91z"/>
		</g>
	</g>
	<g>
		<g>
			<path class="st5" d="M320.26,184.7c4.2-4.2,8.39-8.39,12.59-12.59c0.55-0.55-0.3-1.4-0.85-0.85c-4.2,4.2-8.39,8.39-12.59,12.59
				C318.86,184.4,319.71,185.25,320.26,184.7L320.26,184.7z"/>
		</g>
	</g>
	<g>
		<g>
			<path class="st5" d="M334.74,184.7c4.2-4.2,8.39-8.39,12.59-12.59c0.55-0.55-0.3-1.4-0.85-0.85c-4.2,4.2-8.39,8.39-12.59,12.59
				C333.34,184.4,334.19,185.25,334.74,184.7L334.74,184.7z"/>
		</g>
	</g>
	<g>
		<g>
			<path class="st5" d="M345.72,183.91c3.11-3.11,6.22-6.22,9.33-9.33c0.55-0.55-0.3-1.4-0.85-0.85c-3.11,3.11-6.22,6.22-9.33,9.33
				C344.32,183.61,345.17,184.46,345.72,183.91L345.72,183.91z"/>
		</g>
	</g>
</g>
</svg>
