<?xml version="1.0" encoding="utf-8"?>
<!-- Generator: Adobe Illustrator 25.0.0, SVG Export Plug-In . SVG Version: 6.00 Build 0)  -->
<svg version="1.1" id="Capa_1" xmlns="http://www.w3.org/2000/svg" xmlns:xlink="http://www.w3.org/1999/xlink" x="0px" y="0px"
	 viewBox="0 0 425.2 425.2" style="enable-background:new 0 0 425.2 425.2;" xml:space="preserve">
<style type="text/css">
	.st0{fill:url(#SVGID_1_);}
	.st1{fill:#5C5C5C;}
	.st2{fill:url(#SVGID_2_);}
	.st3{fill:#E20E17;}
	.st4{fill:#BCB5B7;}
	.st5{fill:#FFFFFF;}
	.st6{fill:url(#SVGID_3_);}
	.st7{fill:url(#SVGID_4_);}
	.st8{fill:url(#SVGID_5_);}
	.st9{fill:url(#SVGID_6_);}
	.st10{fill:url(#SVGID_7_);}
	.st11{fill:url(#SVGID_8_);}
	.st12{fill:url(#SVGID_9_);}
	.st13{fill:url(#SVGID_10_);}
	.st14{fill:url(#SVGID_11_);}
	.st15{fill:#E0505A;}
	.st16{fill:url(#SVGID_12_);stroke:#010202;stroke-width:0.5;stroke-miterlimit:10;}
	.st17{fill:#FFFFFF;stroke:#010202;stroke-width:0.25;stroke-miterlimit:10;}
	.st18{fill:#AD7A15;}
	.st19{fill:url(#SVGID_13_);}
	.st20{fill:url(#SVGID_14_);}
	.st21{fill:url(#SVGID_15_);}
	.st22{fill:url(#SVGID_16_);}
	.st23{fill:url(#SVGID_17_);}
	.st24{fill:url(#SVGID_18_);}
	.st25{fill:url(#SVGID_19_);}
	.st26{fill:url(#SVGID_20_);}
	.st27{fill:url(#SVGID_21_);}
	.st28{fill:url(#SVGID_22_);}
	.st29{fill:url(#SVGID_23_);}
	.st30{fill:#B2883E;}
	.st31{fill:url(#SVGID_24_);}
	.st32{fill:url(#SVGID_25_);}
	.st33{fill:url(#SVGID_26_);}
	.st34{fill:url(#SVGID_27_);}
	.st35{fill:url(#SVGID_28_);}
	.st36{fill:url(#SVGID_29_);}
	.st37{fill:none;stroke:#020203;stroke-miterlimit:10;}
	.st38{fill:#5C5C5C;stroke:#010202;stroke-miterlimit:10;}
</style>
<g>
	<g>
		<g>
			
				<linearGradient id="SVGID_1_" gradientUnits="userSpaceOnUse" x1="2619.4531" y1="2686.9475" x2="2715.5059" y2="2686.9475" gradientTransform="matrix(0.615 0.7885 -0.7885 0.615 664.3299 -3615.6924)">
				<stop  offset="0" style="stop-color:#7B8EC7"/>
				<stop  offset="1" style="stop-color:#465AA5"/>
			</linearGradient>
			<polygon class="st0" points="192.93,197.88 132.71,120.66 180.35,83.5 240.57,160.72 			"/>
		</g>
		<g>
			<g>
				<polygon class="st1" points="192.93,190.86 132.71,119.49 180.35,82.33 				"/>
			</g>
			<g>
				
					<linearGradient id="SVGID_2_" gradientUnits="userSpaceOnUse" x1="2588.1357" y1="2682.6348" x2="2711.8652" y2="2682.6348" gradientTransform="matrix(0.615 0.7885 -0.7885 0.615 664.3299 -3615.6924)">
					<stop  offset="0" style="stop-color:#98ABD9"/>
					<stop  offset="1" style="stop-color:#556AB0"/>
				</linearGradient>
				<polygon class="st2" points="132.71,113.65 192.93,190.86 240.57,153.7 				"/>
			</g>
			<g>
				<path class="st3" d="M190.23,134.32c-0.09-1.99-1.43-3.71-3.34-4.29l-54.18-16.39l60.22,77.22L190.23,134.32z"/>
			</g>
		</g>
		<g>
			<path class="st3" d="M185.22,140.69c-3.4-0.8-5.78-3.85-5.73-1.5l0.86-56.85l60.22,71.37L185.22,140.69z"/>
		</g>
	</g>
	<g>
		
			<rect x="127.22" y="113.47" transform="matrix(0.9764 -0.2161 0.2161 0.9764 -34.1582 41.6992)" class="st4" width="92.71" height="127.11"/>
		
			<rect x="131.37" y="154.05" transform="matrix(0.9764 -0.2161 0.2161 0.9764 -29.577 40.0242)" class="st5" width="73.67" height="2.38"/>
		
			<rect x="132.73" y="160.18" transform="matrix(0.9764 -0.2161 0.2161 0.9764 -30.8687 40.4621)" class="st5" width="73.67" height="2.38"/>
		
			<linearGradient id="SVGID_3_" gradientUnits="userSpaceOnUse" x1="134.7034" y1="2840.144" x2="231.3071" y2="2840.144" gradientTransform="matrix(0.9764 -0.2161 -0.0541 -0.2442 137.5069 902.456)">
			<stop  offset="0" style="stop-color:#FCE2E4"/>
			<stop  offset="1" style="stop-color:#A5B7DF"/>
		</linearGradient>
		<polygon class="st6" points="206.63,158.37 134.7,174.29 135.21,176.61 207.14,160.69 		"/>
		
			<linearGradient id="SVGID_4_" gradientUnits="userSpaceOnUse" x1="134.7023" y1="2815.1174" x2="231.306" y2="2815.1174" gradientTransform="matrix(0.9764 -0.2161 -0.0541 -0.2442 137.5069 902.456)">
			<stop  offset="0" style="stop-color:#FCE2E4"/>
			<stop  offset="1" style="stop-color:#A5B7DF"/>
		</linearGradient>
		<polygon class="st7" points="207.98,164.48 136.05,180.4 136.56,182.72 208.49,166.8 		"/>
		
			<linearGradient id="SVGID_5_" gradientUnits="userSpaceOnUse" x1="134.7013" y1="2790.0369" x2="231.305" y2="2790.0369" gradientTransform="matrix(0.9764 -0.2161 -0.0541 -0.2442 137.5069 902.456)">
			<stop  offset="0" style="stop-color:#FCE2E4"/>
			<stop  offset="1" style="stop-color:#A5B7DF"/>
		</linearGradient>
		<polygon class="st8" points="209.34,170.61 137.4,186.53 137.92,188.85 209.85,172.93 		"/>
		
			<linearGradient id="SVGID_6_" gradientUnits="userSpaceOnUse" x1="134.7002" y1="2764.9563" x2="231.3039" y2="2764.9563" gradientTransform="matrix(0.9764 -0.2161 -0.0541 -0.2442 137.5069 902.456)">
			<stop  offset="0" style="stop-color:#FCE2E4"/>
			<stop  offset="1" style="stop-color:#A5B7DF"/>
		</linearGradient>
		<polygon class="st9" points="206.16,177.73 143.29,191.65 143.8,193.97 206.68,180.05 		"/>
		
			<rect x="133.04" y="125.77" transform="matrix(0.9764 -0.2161 0.2161 0.9764 -23.9872 38.1297)" class="st5" width="58.6" height="5.94"/>
		
			<rect x="141.87" y="134.73" transform="matrix(0.9764 -0.2161 0.2161 0.9764 -25.5248 38.6508)" class="st5" width="44.18" height="2.59"/>
		
			<linearGradient id="SVGID_7_" gradientUnits="userSpaceOnUse" x1="139.3328" y1="2630.3374" x2="192.3116" y2="2630.3374" gradientTransform="matrix(0.9764 -0.2161 -0.0541 -0.2442 137.5069 902.456)">
			<stop  offset="0" style="stop-color:#FCE2E4"/>
			<stop  offset="1" style="stop-color:#A5B7DF"/>
		</linearGradient>
		<polygon class="st10" points="167.39,220.95 151.85,224.39 152.3,226.43 167.84,222.99 		"/>
		
			<linearGradient id="SVGID_8_" gradientUnits="userSpaceOnUse" x1="139.3323" y1="2611.6938" x2="192.3107" y2="2611.6938" gradientTransform="matrix(0.9764 -0.2161 -0.0541 -0.2442 137.5069 902.456)">
			<stop  offset="0" style="stop-color:#FCE2E4"/>
			<stop  offset="1" style="stop-color:#A5B7DF"/>
		</linearGradient>
		<polygon class="st11" points="179.77,222.99 152.85,228.95 153.31,230.98 180.22,225.02 		"/>
		
			<linearGradient id="SVGID_9_" gradientUnits="userSpaceOnUse" x1="192.9202" y1="-740.6497" x2="223.2411" y2="-740.6497" gradientTransform="matrix(0.9764 -0.2161 0.2161 0.9764 156.1865 986.7492)">
			<stop  offset="0" style="stop-color:#7B8EC7"/>
			<stop  offset="1" style="stop-color:#465AA5"/>
		</linearGradient>
		<path class="st12" d="M213.95,216.55c-1.28-0.06-2.41,0.56-3.33,1.43c-0.06-0.21-0.12-0.42-0.18-0.64
			c-0.81-2.82-1.61-5.64-2.42-8.46c-0.21-0.73-1.24-0.49-1.14,0.25c0.24,1.89,0.3,3.8,0.18,5.71c-0.05,0.77-0.04,1.67-0.34,2.4
			c-0.18,0.43-1.02,1.22-1.38,0.49c-0.15-0.31-0.5-0.35-0.79-0.24c-0.51,0.19-1.02,0.39-1.53,0.58c-0.28,0.11-0.95,0.48-1.29,0.36
			c-0.31-0.11-0.31-0.59-0.47-0.85c-0.17-0.29-0.45-0.5-0.78-0.56c-0.69-0.12-1.29,0.45-1.5,1.06c-0.12,0.34-0.07,0.86-0.31,1.14
			c-0.17,0.19-0.42,0.22-0.6,0.13c-0.01-0.33-0.1-0.66-0.28-0.96c-0.23-0.39-0.97-0.43-1.07,0.09c-0.09,0.43-0.03,0.88,0.16,1.25
			c-0.05,0.2-0.15,0.39-0.28,0.57c-0.52-0.65-1.17-1.18-1.96-1.45c-1.51-0.53-3.03,0.11-4.45,0.6c-1.57,0.53-3.13,0.71-4.44-0.48
			c-1.2-1.09-1.49-2.78-0.89-4.26c0.73-1.79,2.61-2.76,4.49-2.61c0.8,0.06,2.08,0.37,2.32,1.29c0.28,1.11-1.05,1.86-1.83,2.31
			c-0.65,0.38-0.11,1.41,0.55,1.03c1.32-0.77,2.94-2.02,2.36-3.78c-0.51-1.56-2.51-2.08-3.97-2.03c-3.32,0.12-6.14,3.2-5.24,6.58
			c0.38,1.44,1.45,2.62,2.8,3.21c1.51,0.65,3.02,0.26,4.51-0.26c1.66-0.59,3.36-1.09,4.7,0.41c0.07,0.08,0.15,0.17,0.22,0.27
			c-0.61,0.47-1.24,0.88-1.72,1.51c-0.87,1.15-1.07,2.8-0.01,3.91c0.98,1.02,2.51,0.87,3.4-0.17c1.09-1.27,0.76-3,0.14-4.41
			c-0.09-0.21-0.19-0.42-0.31-0.62c0.16-0.17,0.3-0.35,0.42-0.55c0.05-0.08,0.09-0.17,0.13-0.26c0.05,0.01,0.09,0.03,0.14,0.04
			c1.12,0.21,1.81-0.65,2.01-1.64c0.03-0.14,0.08-0.66,0.27-0.65c0.11,0.01,0.23,0.53,0.29,0.63c0.22,0.4,0.61,0.64,1.05,0.7
			c0.48,0.06,0.94-0.09,1.39-0.26c0.55-0.2,1.09-0.42,1.64-0.63c0.45,0.44,1.15,0.56,1.78,0.37c0.99-0.3,1.45-1.28,1.63-2.23
			c0.16-0.88,0.25-1.79,0.29-2.7c0.21,0.73,0.42,1.47,0.63,2.2c0.25,0.88,0.51,1.77,0.76,2.65c-0.19,0.25-0.36,0.5-0.52,0.75
			c-0.93,1.48-2.01,4.03-0.95,5.68c1.14,1.79,3.45,0.74,3.79-1.07c0.21-1.11-0.21-2.24-0.51-3.29c-0.17-0.61-0.35-1.22-0.52-1.83
			c0.79-0.9,1.79-1.57,2.91-1.52C214.64,217.75,214.7,216.59,213.95,216.55z M196.53,225.65c-0.69,0.76-1.74,0.41-2.01-0.55
			c-0.26-0.95,0.42-1.85,1.11-2.42c0.25-0.2,0.5-0.39,0.76-0.58C197.02,223.26,197.37,224.73,196.53,225.65z M210.88,223.42
			c0.06,0.53,0,1.11-0.4,1.5c-0.37,0.37-0.85,0.4-1.2-0.01c-0.7-0.81-0.12-2.39,0.22-3.24c0.15-0.39,0.36-0.81,0.61-1.23
			C210.41,221.42,210.78,222.42,210.88,223.42z"/>
	</g>
	<g>
		<g>
			<g>
				
					<linearGradient id="SVGID_10_" gradientUnits="userSpaceOnUse" x1="1063.0579" y1="818.4642" x2="1150.4167" y2="818.4642" gradientTransform="matrix(0.9496 0.3135 -0.3135 0.9496 -551.9292 -1003.0783)">
					<stop  offset="0" style="stop-color:#7B8EC7"/>
					<stop  offset="1" style="stop-color:#465AA5"/>
				</linearGradient>
				<polygon class="st13" points="276.77,161.37 192.2,133.45 209.43,81.26 294,109.18 				"/>
			</g>
			<g>
				<g>
					<g>
						<polygon class="st3" points="276.77,161.37 192.2,133.45 209.43,81.26 						"/>
					</g>
				</g>
				<g>
					<g>
						<polygon class="st3" points="192.2,133.45 276.77,161.37 294,109.18 						"/>
					</g>
				</g>
				
					<linearGradient id="SVGID_11_" gradientUnits="userSpaceOnUse" x1="1062.6018" y1="830.7028" x2="1151.3873" y2="830.7028" gradientTransform="matrix(0.9496 0.3135 -0.3135 0.9496 -551.9292 -1003.0783)">
					<stop  offset="0" style="stop-color:#7B8EC7"/>
					<stop  offset="1" style="stop-color:#465AA5"/>
				</linearGradient>
				<path class="st14" d="M246.14,119.99c-1.08-1.46-2.96-2.08-4.69-1.55l-49.25,15.01l84.57,27.92L246.14,119.99z"/>
			</g>
			<g>
				<path class="st15" d="M245.57,127.33c-2.97,1.11-6.32,0.01-8.04-2.66l-28.1-43.41L294,109.18L245.57,127.33z"/>
			</g>
		</g>
		<g>
			
				<linearGradient id="SVGID_12_" gradientUnits="userSpaceOnUse" x1="1135.9648" y1="793.9124" x2="1155.6284" y2="793.9124" gradientTransform="matrix(0.9496 0.3135 -0.3135 0.9496 -551.9292 -1003.0783)">
				<stop  offset="0" style="stop-color:#F7C0C2"/>
				<stop  offset="1" style="stop-color:#F29490"/>
			</linearGradient>
			<circle class="st16" cx="287.23" cy="110.03" r="9.83"/>
			<path class="st17" d="M293.21,107.01L293.21,107.01c-0.37-0.73-1.25-1.02-1.98-0.65l-3.35,1.69l-1.69-3.35
				c-0.37-0.73-1.25-1.02-1.98-0.65l0,0c-0.73,0.37-1.02,1.25-0.65,1.98l1.69,3.35l-3.35,1.69c-0.73,0.37-1.02,1.25-0.65,1.98l0,0
				c0.37,0.73,1.25,1.02,1.98,0.65l3.35-1.69l1.69,3.35c0.37,0.73,1.25,1.02,1.98,0.65l0,0c0.73-0.37,1.02-1.25,0.65-1.98
				l-1.69-3.35l3.35-1.69C293.29,108.62,293.58,107.73,293.21,107.01z"/>
		</g>
	</g>
	<g>
		
			<rect x="177.29" y="93.45" transform="matrix(0.9905 -0.1373 0.1373 0.9905 -14.8661 30.9242)" class="st5" width="79.03" height="59.62"/>
		<g>
			
				<rect x="181.24" y="97.71" transform="matrix(0.9905 -0.1373 0.1373 0.9905 -14.8661 30.9242)" class="st3" width="71.14" height="51.1"/>
		</g>
		
			<ellipse transform="matrix(0.5169 -0.8561 0.8561 0.5169 23.1503 254.3007)" class="st1" cx="236.88" cy="106.64" rx="4.52" ry="4.52"/>
		<g>
			<polygon class="st18" points="203.55,120.01 187.22,153.15 228.27,147.47 			"/>
		</g>
		<g>
			<polygon class="st18" points="227.83,124.44 215.63,149.22 246.31,144.97 			"/>
		</g>
	</g>
	<g>
		
			<linearGradient id="SVGID_13_" gradientUnits="userSpaceOnUse" x1="721.9819" y1="1865.0173" x2="801.861" y2="1865.0173" gradientTransform="matrix(0.9198 0.3925 -0.3925 0.9198 284.7478 -1840.6938)">
			<stop  offset="0" style="stop-color:#FFFFFF"/>
			<stop  offset="1" style="stop-color:#E7ECF8"/>
		</linearGradient>
		<polygon class="st19" points="268.65,240.83 193.9,208.93 237.63,106.43 312.39,138.33 		"/>
		
			<linearGradient id="SVGID_14_" gradientUnits="userSpaceOnUse" x1="711.2006" y1="-7723.9331" x2="795.8931" y2="-7723.9331" gradientTransform="matrix(0.9198 0.3925 0.0982 -0.2301 318.8912 -1920.6331)">
			<stop  offset="0" style="stop-color:#FCE2E4"/>
			<stop  offset="1" style="stop-color:#A5B7DF"/>
		</linearGradient>
		<polygon class="st20" points="290.55,167.08 231.14,141.73 230.32,143.65 289.73,169 		"/>
		
			<linearGradient id="SVGID_15_" gradientUnits="userSpaceOnUse" x1="711.2007" y1="-7745.9165" x2="795.8933" y2="-7745.9165" gradientTransform="matrix(0.9198 0.3925 0.0982 -0.2301 318.8912 -1920.6331)">
			<stop  offset="0" style="stop-color:#FCE2E4"/>
			<stop  offset="1" style="stop-color:#A5B7DF"/>
		</linearGradient>
		<polygon class="st21" points="288.39,172.14 228.98,146.79 228.16,148.7 287.57,174.06 		"/>
		
			<linearGradient id="SVGID_16_" gradientUnits="userSpaceOnUse" x1="711.2009" y1="-7767.8999" x2="795.8935" y2="-7767.8999" gradientTransform="matrix(0.9198 0.3925 0.0982 -0.2301 318.8912 -1920.6331)">
			<stop  offset="0" style="stop-color:#FCE2E4"/>
			<stop  offset="1" style="stop-color:#A5B7DF"/>
		</linearGradient>
		<polygon class="st22" points="286.23,177.2 226.82,151.85 226,153.76 285.41,179.11 		"/>
		
			<linearGradient id="SVGID_17_" gradientUnits="userSpaceOnUse" x1="711.2011" y1="-7789.8364" x2="795.8937" y2="-7789.8364" gradientTransform="matrix(0.9198 0.3925 0.0982 -0.2301 318.8912 -1920.6331)">
			<stop  offset="0" style="stop-color:#FCE2E4"/>
			<stop  offset="1" style="stop-color:#A5B7DF"/>
		</linearGradient>
		<polygon class="st23" points="284.07,182.25 224.67,156.89 223.85,158.81 283.26,184.16 		"/>
		
			<linearGradient id="SVGID_18_" gradientUnits="userSpaceOnUse" x1="711.2013" y1="-7811.8198" x2="795.8939" y2="-7811.8198" gradientTransform="matrix(0.9198 0.3925 0.0982 -0.2301 318.8912 -1920.6331)">
			<stop  offset="0" style="stop-color:#FCE2E4"/>
			<stop  offset="1" style="stop-color:#A5B7DF"/>
		</linearGradient>
		<polygon class="st24" points="281.92,187.3 222.51,161.95 221.69,163.87 281.1,189.22 		"/>
		
			<linearGradient id="SVGID_19_" gradientUnits="userSpaceOnUse" x1="711.2015" y1="-7833.8037" x2="795.894" y2="-7833.8037" gradientTransform="matrix(0.9198 0.3925 0.0982 -0.2301 318.8912 -1920.6331)">
			<stop  offset="0" style="stop-color:#FCE2E4"/>
			<stop  offset="1" style="stop-color:#A5B7DF"/>
		</linearGradient>
		<polygon class="st25" points="276.02,190.77 224.09,168.61 223.27,170.52 275.2,192.68 		"/>
		
			<rect x="244.09" y="130.87" transform="matrix(0.9198 0.3925 -0.3925 0.9198 74.0341 -95.1722)" class="st1" width="51.37" height="5.21"/>
		
			<rect x="247.84" y="138.36" transform="matrix(0.9198 0.3925 -0.3925 0.9198 76.1912 -93.6805)" class="st1" width="38.73" height="2.27"/>
		
			<linearGradient id="SVGID_20_" gradientUnits="userSpaceOnUse" x1="715.2691" y1="-7951.7959" x2="761.715" y2="-7951.7959" gradientTransform="matrix(0.9198 0.3925 0.0982 -0.2301 318.8912 -1920.6331)">
			<stop  offset="0" style="stop-color:#FCE2E4"/>
			<stop  offset="1" style="stop-color:#A5B7DF"/>
		</linearGradient>
		<polygon class="st26" points="226.32,201.79 213.48,196.32 212.77,198 225.6,203.47 		"/>
		
			<linearGradient id="SVGID_21_" gradientUnits="userSpaceOnUse" x1="715.2693" y1="-7968.1382" x2="761.7153" y2="-7968.1382" gradientTransform="matrix(0.9198 0.3925 0.0982 -0.2301 318.8912 -1920.6331)">
			<stop  offset="0" style="stop-color:#FCE2E4"/>
			<stop  offset="1" style="stop-color:#A5B7DF"/>
		</linearGradient>
		<polygon class="st27" points="234.11,209.56 211.88,200.08 211.16,201.76 233.39,211.24 		"/>
		
			<linearGradient id="SVGID_22_" gradientUnits="userSpaceOnUse" x1="762.3368" y1="1905.4896" x2="788.9191" y2="1905.4896" gradientTransform="matrix(0.9198 0.3925 -0.3925 0.9198 284.7478 -1840.6938)">
			<stop  offset="0" style="stop-color:#7B8EC7"/>
			<stop  offset="1" style="stop-color:#465AA5"/>
		</linearGradient>
		<path class="st28" d="M261.76,222.42c-0.88-0.69-2.01-0.83-3.11-0.68c0.07-0.18,0.13-0.36,0.2-0.55c0.86-2.42,1.73-4.84,2.59-7.27
			c0.22-0.63-0.63-0.98-0.94-0.4c-0.79,1.47-1.72,2.87-2.78,4.16c-0.43,0.53-0.89,1.17-1.47,1.54c-0.35,0.22-1.35,0.35-1.23-0.35
			c0.05-0.3-0.18-0.51-0.44-0.58c-0.46-0.12-0.92-0.24-1.39-0.36c-0.26-0.07-0.92-0.14-1.1-0.4c-0.16-0.24,0.08-0.58,0.1-0.85
			c0.03-0.29-0.06-0.59-0.27-0.8c-0.43-0.44-1.15-0.34-1.61-0.01c-0.26,0.18-0.49,0.58-0.8,0.66c-0.22,0.05-0.41-0.05-0.49-0.21
			c0.16-0.24,0.26-0.52,0.29-0.83c0.04-0.39-0.47-0.8-0.81-0.48c-0.28,0.27-0.47,0.61-0.52,0.97c-0.14,0.12-0.3,0.2-0.49,0.26
			c-0.04-0.73-0.23-1.44-0.65-2.04c-0.81-1.15-2.21-1.47-3.48-1.85c-1.39-0.42-2.59-1.09-2.92-2.61c-0.3-1.39,0.36-2.74,1.54-3.49
			c1.43-0.9,3.26-0.64,4.53,0.43c0.54,0.45,1.3,1.32,0.99,2.1c-0.37,0.93-1.7,0.79-2.48,0.71c-0.65-0.06-0.8,0.95-0.14,1.02
			c1.34,0.13,3.13,0.06,3.61-1.49c0.43-1.37-0.73-2.77-1.79-3.47c-2.43-1.61-6.01-0.86-7.1,2.02c-0.46,1.22-0.31,2.61,0.36,3.72
			c0.74,1.23,2.02,1.73,3.34,2.11c1.48,0.43,2.95,0.93,3.14,2.69c0.01,0.1,0.02,0.2,0.02,0.31c-0.67,0.03-1.34,0-1.99,0.2
			c-1.21,0.37-2.19,1.45-2,2.78c0.18,1.23,1.35,1.9,2.51,1.61c1.43-0.35,2.07-1.75,2.35-3.07c0.04-0.2,0.07-0.4,0.1-0.6
			c0.2-0.04,0.39-0.1,0.58-0.18c0.08-0.04,0.15-0.07,0.23-0.12c0.03,0.03,0.05,0.07,0.08,0.1c0.69,0.72,1.62,0.46,2.27-0.14
			c0.09-0.09,0.4-0.43,0.52-0.32c0.08,0.06-0.11,0.49-0.12,0.6c-0.05,0.39,0.11,0.77,0.4,1.03c0.31,0.29,0.72,0.42,1.12,0.53
			c0.49,0.13,0.99,0.26,1.49,0.39c0.1,0.54,0.53,0.98,1.08,1.17c0.86,0.3,1.69-0.17,2.3-0.76c0.57-0.54,1.09-1.15,1.58-1.78
			c-0.22,0.63-0.45,1.26-0.67,1.89c-0.27,0.76-0.54,1.52-0.81,2.28c-0.26,0.08-0.51,0.17-0.76,0.27c-1.42,0.58-3.48,1.85-3.58,3.56
			c-0.1,1.86,2.08,2.29,3.24,1.17c0.72-0.69,0.99-1.7,1.32-2.61c0.19-0.52,0.37-1.05,0.56-1.57c1.02-0.24,2.08-0.21,2.85,0.4
			C261.64,223.62,262.28,222.82,261.76,222.42z M244.7,220.01c-0.88,0.19-1.45-0.6-1.15-1.42c0.3-0.81,1.25-1.11,2.03-1.16
			c0.28-0.02,0.56-0.02,0.84-0.02C246.26,218.56,245.77,219.78,244.7,220.01z M256.07,225.74c-0.23,0.41-0.57,0.79-1.05,0.87
			c-0.46,0.07-0.81-0.15-0.85-0.62c-0.08-0.93,1.13-1.76,1.81-2.2c0.31-0.2,0.67-0.39,1.06-0.56
			C256.75,224.08,256.5,224.98,256.07,225.74z"/>
	</g>
	<g>
		<g>
			
				<linearGradient id="SVGID_23_" gradientUnits="userSpaceOnUse" x1="1518.6947" y1="-3350.0476" x2="1576.8257" y2="-3350.0476" gradientTransform="matrix(0.7655 -0.6434 0.6434 0.7655 1199.0499 3725.2415)">
				<stop  offset="0" style="stop-color:#7B8EC7"/>
				<stop  offset="1" style="stop-color:#465AA5"/>
			</linearGradient>
			<polygon class="st29" points="263.24,159.59 217.87,197.72 194.35,169.72 239.71,131.59 			"/>
		</g>
		<g>
			<g>
				<g>
					<polygon class="st18" points="263.24,159.59 217.87,197.72 194.35,169.72 					"/>
				</g>
			</g>
			<g>
				<g>
					<polygon class="st18" points="217.87,197.72 263.24,159.59 239.71,131.59 					"/>
				</g>
			</g>
			<g>
				<path class="st18" d="M229.1,162.47c-1.2,0.1-2.21,0.95-2.52,2.12l-8.71,33.13l45.37-38.13L229.1,162.47z"/>
			</g>
		</g>
		<g>
			<path class="st30" d="M233.07,165.36c-0.41,2.07-2.2,3.58-4.32,3.63l-34.4,0.74l45.37-38.13L233.07,165.36z"/>
		</g>
	</g>
	<g>
		
			<rect x="250.66" y="152.67" transform="matrix(0.8443 0.5359 -0.5359 0.8443 135.8154 -121.7458)" class="st5" width="53.52" height="40.37"/>
		
			<linearGradient id="SVGID_24_" gradientUnits="userSpaceOnUse" x1="1112.0377" y1="2452.7429" x2="1160.2065" y2="2452.7429" gradientTransform="matrix(0.8443 0.5359 -0.5359 0.8443 632.6169 -2506.8467)">
			<stop  offset="0" style="stop-color:#FFFFFF"/>
			<stop  offset="1" style="stop-color:#E7ECF8"/>
		</linearGradient>
		<polygon class="st31" points="288.48,200.36 247.82,174.55 266.36,145.34 307.02,171.15 		"/>
		<g>
			<circle class="st18" cx="295.07" cy="173.06" r="3.06"/>
		</g>
		<polygon class="st1" points="271.99,165.37 249.05,175.34 272.74,190.37 		"/>
		
			<linearGradient id="SVGID_25_" gradientUnits="userSpaceOnUse" x1="1132.9175" y1="2462.3" x2="1153.8945" y2="2462.3" gradientTransform="matrix(0.8443 0.5359 -0.5359 0.8443 632.6169 -2506.8467)">
			<stop  offset="0" style="stop-color:#7B8EC7"/>
			<stop  offset="1" style="stop-color:#465AA5"/>
		</linearGradient>
		<polygon class="st32" points="282.6,178.29 265.44,185.74 283.15,196.98 		"/>
	</g>
	<g>
		<g>
			<g>
				
					<linearGradient id="SVGID_26_" gradientUnits="userSpaceOnUse" x1="647.9637" y1="-478.5875" x2="708.1821" y2="-478.5875" gradientTransform="matrix(1 1.200000e-03 -1.200000e-03 1 -512.4788 642.4269)">
					<stop  offset="0" style="stop-color:#7B8EC7"/>
					<stop  offset="1" style="stop-color:#465AA5"/>
				</linearGradient>
				<path class="st33" d="M194.27,183.63l-55.3-0.07c-1.68,0-3.05-1.37-3.04-3.05l0.04-31.78c0-1.68,1.37-3.05,3.05-3.04l55.3,0.07
					c1.68,0,3.05,1.37,3.04,3.05l-0.04,31.78C197.32,182.27,195.96,183.63,194.27,183.63z"/>
			</g>
		</g>
		<path class="st1" d="M163.24,139.41l-0.89-2.06c-0.5-1.15-1.63-1.9-2.89-1.9l-20.33-0.03c-1.74,0-3.15,1.41-3.16,3.15l-0.01,4.49
			l0.01,0l-0.04,32.94c0,1.74,1.41,3.15,3.15,3.15l55.09,0.07c1.74,0,3.15-1.41,3.15-3.15l0.04-31.58c0-1.74-1.41-3.15-3.15-3.15
			l-28.09-0.03C164.87,141.31,163.73,140.57,163.24,139.41z"/>
		<g>
			<g>
				<path class="st5" d="M191.01,179.68l-48.76-0.06c-1.48,0-2.69-1.21-2.68-2.69l0.04-31.03l54.14,0.06L193.7,177
					C193.7,178.48,192.5,179.69,191.01,179.68z"/>
			</g>
		</g>
		<g>
			<g>
				<path class="st1" d="M194.27,183.63l-55.3-0.07c-1.68,0-3.05-1.37-3.04-3.05l0.04-29.76l61.39,0.07l-0.04,29.76
					C197.32,182.27,195.96,183.63,194.27,183.63z"/>
			</g>
		</g>
	</g>
	<g>
		<g>
			<g>
				
					<linearGradient id="SVGID_27_" gradientUnits="userSpaceOnUse" x1="664.4771" y1="-459.345" x2="724.6954" y2="-459.345" gradientTransform="matrix(1 1.200000e-03 -1.200000e-03 1 -512.4788 642.4269)">
					<stop  offset="0" style="stop-color:#7B8EC7"/>
					<stop  offset="1" style="stop-color:#465AA5"/>
				</linearGradient>
				<path class="st34" d="M210.76,202.89l-55.3-0.07c-1.68,0-3.05-1.37-3.04-3.05l0.04-31.78c0-1.68,1.37-3.05,3.05-3.04l55.3,0.07
					c1.68,0,3.05,1.37,3.04,3.05l-0.04,31.78C213.81,201.53,212.45,202.89,210.76,202.89z"/>
			</g>
		</g>
		<linearGradient id="SVGID_28_" gradientUnits="userSpaceOnUse" x1="152.5311" y1="176.589" x2="212.7856" y2="176.589">
			<stop  offset="0" style="stop-color:#FFFFFF"/>
			<stop  offset="1" style="stop-color:#E7ECF8"/>
		</linearGradient>
		<path class="st35" d="M179.73,158.68l-0.89-2.06c-0.5-1.15-1.63-1.9-2.89-1.9l-20.33-0.03c-1.74,0-3.15,1.41-3.16,3.15l-0.01,4.49
			h0.01l-0.04,32.94c0,1.74,1.41,3.15,3.15,3.15l55.09,0.07c1.74,0,3.15-1.41,3.15-3.15l0.04-31.58c0-1.74-1.41-3.15-3.15-3.15
			l-28.09-0.03C181.36,160.58,180.22,159.83,179.73,158.68z"/>
		<g>
			<g>
				<g>
					<path class="st3" d="M207.5,198.95l-48.76-0.06c-1.48,0-2.69-1.21-2.68-2.69l0.04-31.03l54.14,0.06l-0.04,31.03
						C210.19,197.75,208.99,198.95,207.5,198.95z"/>
				</g>
			</g>
		</g>
		<g>
			<g>
				<linearGradient id="SVGID_29_" gradientUnits="userSpaceOnUse" x1="152.4223" y1="186.4498" x2="213.8566" y2="186.4498">
					<stop  offset="0" style="stop-color:#FFFFFF"/>
					<stop  offset="1" style="stop-color:#E7ECF8"/>
				</linearGradient>
				<path class="st36" d="M210.76,202.89l-55.3-0.07c-1.68,0-3.05-1.37-3.04-3.05l0.04-29.76l61.39,0.07l-0.04,29.76
					C213.81,201.53,212.45,202.89,210.76,202.89z"/>
			</g>
		</g>
	</g>
	<polygon class="st1" points="120.87,174.29 310.38,174.29 287.25,373.67 144,373.67 	"/>
	<g>
		<polygon class="st37" points="287.25,373.56 144,373.56 120.87,174.18 310.38,174.18 		"/>
		<g>
			<path class="st4" d="M215.3,198.95L215.3,198.95c-4.56,0-8.26,3.7-8.26,8.26v139.47c0,4.56,3.7,8.26,8.26,8.26h0
				c4.56,0,8.26-3.7,8.26-8.26V207.21C223.56,202.64,219.86,198.95,215.3,198.95z"/>
		</g>
	</g>
</g>
<path class="st4" d="M266.53,194.27L266.53,194.27c-4.68,0-8.48,3.79-8.48,8.48v143.14c0,4.68,3.8,8.48,8.48,8.48h0
	c4.68,0,8.48-3.79,8.48-8.48V202.74C275.01,198.06,271.21,194.27,266.53,194.27z"/>
<g>
	<path class="st4" d="M170.03,194.27L170.03,194.27c-4.68,0-8.48,3.79-8.48,8.48v143.14c0,4.68,3.79,8.48,8.48,8.48h0
		c4.68,0,8.48-3.79,8.48-8.48V202.74C178.5,198.06,174.71,194.27,170.03,194.27z"/>
</g>
<path class="st38" d="M202.19,50.24l-21.91,5.55l-20.2,5.12c-10.86,2.75-17.45,13.83-14.7,24.69l1.38,5.45
	c0.06,0.22,0.14,0.43,0.2,0.65l-27.79,7.05c-13.11,3.32-21.04,16.64-17.71,29.74l0.06,0.24l91.37-23.17l88.19-22.36l-0.06-0.24
	c-3.32-13.11-16.64-21.03-29.75-17.71l-22.9,5.81c-0.05-0.22-0.08-0.45-0.13-0.67l-1.38-5.45
	C224.12,54.08,213.04,47.49,202.19,50.24z M215.86,67.73l1.38,5.45c0.06,0.23,0.06,0.45,0.1,0.68l-30.52,7.74l-28.81,7.31l0,0
	c-0.07-0.22-0.18-0.42-0.24-0.65l-1.38-5.45c-1.21-4.79,1.69-9.67,6.48-10.88l20.2-5.12l21.91-5.55
	C209.76,60.04,214.65,62.95,215.86,67.73z"/>
</svg>
