<?xml version="1.0" encoding="utf-8"?>
<!-- Generator: Adobe Illustrator 25.0.0, SVG Export Plug-In . SVG Version: 6.00 Build 0)  -->
<svg version="1.1" id="Capa_1" xmlns="http://www.w3.org/2000/svg" xmlns:xlink="http://www.w3.org/1999/xlink" x="0px" y="0px"
	 viewBox="0 0 425.2 425.2" style="enable-background:new 0 0 425.2 425.2;" xml:space="preserve">
<style type="text/css">
	.st0{opacity:0.33;}
	.st1{fill:#020203;}
	.st2{opacity:0.1294;}
	.st3{fill:#FFFFFF;}
	.st4{fill:#AC7B16;}
	.st5{fill:#E10F1A;}
	.st6{fill:#E30613;}
</style>
<g>
	<g class="st0">
		<g>
			<path class="st1" d="M75.2,343.82v-13.79c0,0,2.78-0.78,4.22-1.51c22.81-11.65,48.23-17.51,73.74-19.89s51.19-1.39,76.76,0.03
				c9.05,0.5,18.11,1.06,27.08,1.42c14.96,3.98,30.57,4.65,45.86,7.05c10.26,1.61,20.39,3.99,30.5,6.37
				c4.12,0.97,8.65,4.15,12.18,6.76c0.46,3.56,0,8.47-0.18,12.05L75.2,343.82z"/>
			<path class="st1" d="M75.2,345.11c-0.34,0-0.67-0.14-0.91-0.38c-0.24-0.24-0.38-0.57-0.38-0.91v-13.79
				c0-0.58,0.39-1.09,0.94-1.24c0.03-0.01,2.67-0.75,3.98-1.42c20.81-10.63,45.77-17.37,74.2-20.03c26.3-2.46,52.44-1.33,76.95,0.03
				l6.06,0.34c6.9,0.39,14.04,0.8,21,1.08c0.09,0,0.19,0.02,0.28,0.04c9.75,2.59,20,3.79,29.91,4.96
				c5.19,0.61,10.56,1.24,15.82,2.06c10.32,1.62,20.63,4.04,30.6,6.39c4.16,0.98,8.54,3.93,12.65,6.98
				c0.28,0.21,0.47,0.52,0.51,0.87c0.39,3,0.16,6.8-0.04,10.14c-0.05,0.75-0.09,1.47-0.12,2.14c-0.03,0.68-0.6,1.22-1.28,1.23
				L75.2,345.11C75.21,345.11,75.21,345.11,75.2,345.11z M76.49,330.99v11.53l267.64-1.5c0.02-0.31,0.04-0.63,0.06-0.95
				c0.18-3.02,0.39-6.43,0.12-9.11c-3.76-2.76-7.69-5.37-11.25-6.21c-9.92-2.34-20.18-4.75-30.4-6.35
				c-5.21-0.82-10.55-1.44-15.72-2.05c-9.95-1.17-20.25-2.38-30.13-4.99c-6.93-0.28-14.03-0.69-20.9-1.08l-6.06-0.34
				c-24.42-1.36-50.44-2.48-76.57-0.04c-28.1,2.62-52.75,9.27-73.27,19.76C79.01,330.18,77.48,330.69,76.49,330.99z"/>
		</g>
		<g>
			<path class="st1" d="M298.03,294.32c15.65,12.63,34.27,25.26,47.51,35.94c-2.11,0.14-110.23,0-151.21,0
				c-37.11,0-82.02-0.75-119.12-0.23c16.19-12.85,33.08-24.83,51.35-36.72c5.79-3.71,12.67-5.3,19.45-6.47
				c20.4-3.5,41.2-3.69,61.89-3.88C237.88,282.7,271.72,285.61,298.03,294.32z"/>
			<path class="st1" d="M315.11,331.61c-17.25,0-40.84-0.02-68.26-0.04c-20.53-0.01-39.78-0.03-52.52-0.03
				c-13.5,0-27.76-0.1-42.85-0.2c-25.89-0.18-52.66-0.36-76.25-0.03c-0.01,0-0.01,0-0.02,0c-0.54,0-1.03-0.34-1.22-0.86
				c-0.19-0.52-0.02-1.1,0.41-1.44c15.61-12.39,32.44-24.42,51.45-36.79c6.06-3.89,13.16-5.5,19.93-6.66
				c20.56-3.52,41.67-3.71,62.1-3.9c35.21-0.32,67.36,3.74,90.55,11.41c0.15,0.05,0.28,0.12,0.4,0.22
				c8.13,6.56,17.04,13.1,25.65,19.43c7.97,5.85,15.49,11.38,21.86,16.51c0.41,0.33,0.58,0.88,0.42,1.39
				c-0.16,0.51-0.61,0.86-1.14,0.9C344.9,331.59,333.68,331.61,315.11,331.61z M105.23,328.55c15.17,0,30.87,0.11,46.26,0.21
				c15.09,0.1,29.34,0.2,42.83,0.2c12.75,0,31.99,0.01,52.53,0.03c37.17,0.03,82.16,0.06,95.04,0.01
				c-5.68-4.45-12.14-9.2-18.93-14.18c-8.57-6.29-17.43-12.8-25.56-19.35c-22.91-7.54-54.68-11.52-89.49-11.21
				c-20.32,0.18-41.34,0.37-61.69,3.86c-6.51,1.12-13.31,2.65-18.97,6.28c-17.73,11.54-33.56,22.78-48.27,34.29
				C87.42,328.59,96.23,328.55,105.23,328.55z"/>
		</g>
		<g>
			<path class="st1" d="M297.92,295.07c0,0-172.53,0.5-173.05-0.42c-2.6-33.33-3.4-66.81-2.39-100.22
				c0.17-5.81,1.44-13.03,7.99-15.18c32.48-4.94,69.38-2.52,104.08-3c17.02-0.24,34.1-0.34,50.98,1.8c3.35,0.42,7,1.16,9.95,2.79
				c2.75,1.51,4.57,4.3,4.93,7.42c0.56,4.86,0.64,9.77,0.73,14.67C301.66,233.88,302.18,265,297.92,295.07z"/>
			<path class="st1" d="M206.53,296.49c-22.73,0-41.01-0.03-54.41-0.1c-27.83-0.14-27.86-0.2-28.37-1.12
				c-0.09-0.16-0.15-0.34-0.16-0.53c-2.59-33.26-3.4-67.03-2.4-100.36c0.1-3.36,0.41-13.59,8.87-16.36
				c0.07-0.02,0.14-0.04,0.21-0.05c23.42-3.56,49.4-3.31,74.53-3.07c9.81,0.09,19.95,0.19,29.73,0.06
				c18.2-0.25,34.61-0.29,51.16,1.81c2.83,0.36,6.99,1.05,10.41,2.94c3.09,1.7,5.18,4.84,5.59,8.4c0.57,4.93,0.65,9.94,0.73,14.79
				c0.52,30.54,1.06,62.12-3.22,92.36c-0.09,0.63-0.63,1.11-1.27,1.11c-0.43,0-43.63,0.12-86.33,0.13
				C209.88,296.49,208.19,296.49,206.53,296.49z M297.92,295.07L297.92,295.07L297.92,295.07z M126.08,293.48
				c11.1,0.59,114.56,0.46,170.72,0.3c4.08-29.71,3.55-60.78,3.04-90.85c-0.08-4.79-0.17-9.74-0.72-14.54
				c-0.31-2.73-1.91-5.14-4.27-6.43c-3.03-1.67-6.87-2.3-9.49-2.64c-16.39-2.08-32.7-2.04-50.8-1.79
				c-9.81,0.14-19.97,0.04-29.79-0.06c-24.98-0.24-50.82-0.49-74.01,3.03c-4.47,1.52-6.76,6.09-7,13.96
				C122.78,227.35,123.56,260.66,126.08,293.48z"/>
		</g>
		<g>
			<rect x="133.88" y="188.61" class="st1" width="156.74" height="96.6"/>
			<path class="st1" d="M290.62,286.5H133.88c-0.71,0-1.29-0.58-1.29-1.29v-96.6c0-0.71,0.58-1.29,1.29-1.29h156.74
				c0.71,0,1.29,0.58,1.29,1.29v96.6C291.91,285.92,291.33,286.5,290.62,286.5z M135.17,283.92h154.16V189.9H135.17V283.92z"/>
		</g>
		<g>
			<rect x="164.06" y="241.78" class="st1" width="20.52" height="23.08"/>
			<path class="st1" d="M184.57,266.15h-20.52c-0.71,0-1.29-0.58-1.29-1.29v-23.08c0-0.71,0.58-1.29,1.29-1.29h20.52
				c0.71,0,1.29,0.58,1.29,1.29v23.08C185.86,265.57,185.29,266.15,184.57,266.15z M165.35,263.57h17.94v-20.5h-17.94V263.57z"/>
		</g>
		<g>
			<rect x="201.99" y="224.63" class="st1" width="20.52" height="39.74"/>
			<path class="st1" d="M222.51,265.67h-20.52c-0.71,0-1.29-0.58-1.29-1.29v-39.74c0-0.71,0.58-1.29,1.29-1.29h20.52
				c0.71,0,1.29,0.58,1.29,1.29v39.74C223.8,265.09,223.22,265.67,222.51,265.67z M203.28,263.09h17.94v-37.16h-17.94V263.09z"/>
		</g>
		<g>
			<rect x="239.5" y="210.64" class="st1" width="20.23" height="52.67"/>
			<path class="st1" d="M259.74,264.61H239.5c-0.71,0-1.29-0.58-1.29-1.29v-52.67c0-0.71,0.58-1.29,1.29-1.29h20.23
				c0.71,0,1.29,0.58,1.29,1.29v52.67C261.03,264.03,260.45,264.61,259.74,264.61z M240.79,262.03h17.65v-50.09h-17.65V262.03z"/>
		</g>
		<g>
			<path class="st1" d="M243.28,221.84c-0.09,0-0.17-0.03-0.25-0.08c-0.19-0.14-0.24-0.41-0.1-0.6l5.41-7.58
				c0.14-0.19,0.41-0.24,0.6-0.1c0.19,0.14,0.24,0.41,0.1,0.6l-5.41,7.58C243.55,221.77,243.41,221.84,243.28,221.84z"/>
		</g>
		<g>
			<path class="st1" d="M242.68,231.73c-0.09,0-0.18-0.03-0.25-0.08c-0.19-0.14-0.24-0.41-0.1-0.6l12.51-17.35
				c0.14-0.19,0.41-0.24,0.6-0.1c0.19,0.14,0.24,0.41,0.1,0.6l-12.51,17.34C242.95,231.67,242.81,231.73,242.68,231.73z"/>
		</g>
		<g>
			<path class="st1" d="M243.54,240.66c-0.08,0-0.16-0.02-0.24-0.07c-0.2-0.13-0.25-0.4-0.12-0.6c3.89-5.87,8.09-11.63,12.49-17.14
				c0.15-0.18,0.42-0.21,0.6-0.07c0.18,0.15,0.22,0.42,0.07,0.6c-4.38,5.49-8.57,11.23-12.44,17.08
				C243.82,240.59,243.68,240.66,243.54,240.66z"/>
		</g>
		<g>
			<path class="st1" d="M243.41,250.43c-0.09,0-0.18-0.03-0.26-0.08c-0.19-0.14-0.23-0.41-0.09-0.6l13.01-17.62
				c0.14-0.19,0.41-0.23,0.6-0.09c0.19,0.14,0.23,0.41,0.09,0.6l-13.01,17.62C243.67,250.37,243.54,250.43,243.41,250.43z"/>
		</g>
		<g>
			<path class="st1" d="M244.42,257.99c-0.09,0-0.17-0.03-0.25-0.08c-0.19-0.14-0.24-0.41-0.1-0.6c3.75-5.25,7.74-10.41,11.87-15.35
				c0.15-0.18,0.42-0.21,0.61-0.05c0.18,0.15,0.21,0.42,0.05,0.61c-4.11,4.92-8.09,10.07-11.83,15.3
				C244.68,257.93,244.55,257.99,244.42,257.99z"/>
		</g>
		<g>
			<path class="st1" d="M250.73,259.1c-0.1,0-0.2-0.03-0.28-0.1c-0.18-0.15-0.2-0.42-0.05-0.61l5.52-6.48
				c0.15-0.18,0.42-0.2,0.61-0.05c0.18,0.15,0.2,0.42,0.05,0.61l-5.52,6.49C250.98,259.05,250.86,259.1,250.73,259.1z"/>
		</g>
		<g class="st2">
			<path class="st1" d="M290.01,190.5c-0.2-0.67-0.71-1.18-1.38-1.38c-0.53-0.16-1.05,0-1.58,0.09c-0.55,0.07-1.72,0.26-2.13,0.34
				c-0.01,0-0.03,0-0.04,0c-3.22,0.03-6.44-0.33-9.66-0.46c-2.69-0.17-5.4-0.16-8.09-0.38c-2.23-0.19-4.45-0.59-6.7-0.6
				c-17.02-0.45-34.01,0.62-51,1.54c-9.78,0.43-19.56-0.28-29.34-0.52c-7.26-0.33-14.52-0.56-21.78-0.92
				c-6.52-0.28-13.04-0.77-19.58-0.57c-1.57,0.12-3.42-0.23-4.63,1.01c-1.43,1.37-1.04,3.68,0.34,4.8
				c-1.29,7.15-0.5,14.56-0.64,21.8c0.05,4.81,0.22,9.61,0.28,14.42c0.01,4.5,0.1,9,0.74,13.47c0.47,3.04-0.01,6.08-0.19,9.12
				c0.1,8.45-0.71,16.89-0.5,25.34c0.06,1.69,0.17,3.38,0.2,5.07c-0.12,1.58,0.67,3.28,2.47,3.26c3.04-0.26,2.34-3.01,2.27-5.19
				c-0.04-2.28,0.01-4.55,0.09-6.83c0.11-3.93,0.62-7.84,0.79-11.76c0.1-5.24,0.21-10.49,0.16-15.74c-0.19-3.01-0.67-6-0.83-9.01
				c-0.2-5.89-0.05-11.78-0.15-17.67c0.04-7.61,0-15.22,0.25-22.82c0.21-2.06,0.16-1.99,0.33-2.88c6.18-0.06,12.34,0.43,18.52,0.59
				c15.58,0.36,31.15,1.32,46.73,1.25c8.32-0.26,16.62-0.99,24.93-1.4c9.59-0.29,19.17-0.81,28.76-0.89c3.23-0.2,6.41,0.43,9.62,0.6
				c4.04-0.03,8.07-0.34,12.11-0.38c2.59-0.03,4.31-0.41,5-0.55c1.27-0.28,2.79,0.14,3.89-0.63
				C289.96,192.14,290.21,191.24,290.01,190.5z"/>
		</g>
		<g class="st2">
			<path class="st1" d="M335.68,322.47c-1.25-0.6-2.55-1.08-3.83-1.6c-0.08-0.03-0.15-0.06-0.23-0.09
				c-0.05-0.12-0.09-0.23-0.16-0.34c-0.48-0.76-1.32-1.12-2.05-1.6c-1.03-0.66-2.01-1.4-3-2.11c-5.49-3.85-11.18-7.92-15.04-11.1
				c-3.84-3.42-7.41-7.35-12.05-9.7c-1.59-0.77-3.25-1.56-5.03-1.74c-2.9-0.1-5.81,0.33-8.71,0.42c-6.97,0.38-13.96,0.17-20.93,0.32
				c-10.95,0.19-21.88,0.99-32.83,1.05c-8.27-0.01-16.54,0.15-24.8,0.2c-5.47-0.19-10.94-0.24-16.41-0.19
				c-6.09-0.07-12.14-1.2-18.23-1.09c-1.2,0.11-2.5-0.2-3.62,0.3c-0.88,0.3-1.46,1.05-1.7,1.9c-7.12-0.56-14.28-0.48-21.39-1.15
				c-3.57-0.36-11.44-1.2-12.38-1.34c-2.17-0.29-4.33-0.68-6.52-0.75c-0.83,0.02-1.7-0.24-2.47,0.14c-2.27,0.89-1.68,4.53,0.91,4.5
				c6.71,0.28,15.09,2.34,23.47,2.94c5.42,0.46,10.87,0.49,16.3,0.79c4.79,0.34,9.57,0.8,14.35,1.26
				c10.76,1.14,23.22,3.5,37.19,4.89c11.57,1.25,23.24,1.2,34.79,2.61c8.65,0.85,20.99,3.69,31.89,5.3
				c11.57,1.69,20.88,2.57,31.32,4.34c0.01,0,0.03,0.01,0.04,0.02c0.26,0.08,0.52,0.11,0.78,0.12c1.72,0.3,3.48,0.62,5.28,0.98
				c2.33,0.51,4.63,1.13,6.94,1.72c0.14,0.04,0.27,0.07,0.41,0.09c0.22,0.07,0.44,0.13,0.66,0.18c0.24,0.3,0.58,0.54,1.02,0.65
				c1.25,0.48,2.5,0.97,3.76,1.45c0.5,0.16,1,0.44,1.54,0.3C336.77,326,337.28,323.32,335.68,322.47z M294.7,308.63
				c0.65,0.04,1.31,0.08,1.96,0.12c0.07,0,0.14,0.01,0.21,0.01c0.38,0.2,0.75,0.41,1.13,0.62
				C296.9,309.13,295.8,308.88,294.7,308.63z"/>
		</g>
	</g>
	<g class="st0">
		<g>
			<path class="st1" d="M168.64,201.34c0-23.69,18.49-42.05,41.29-42.05s41.29,18.36,41.29,42.05s-18.49,42.9-41.29,42.9
				S168.64,225.03,168.64,201.34z"/>
		</g>
		<g>
			<g>
				<path class="st1" d="M237.15,102.48c0-23.69,18.31-41.62,41.11-41.62c22.81,0,41.47,17.93,41.47,41.62
					c0,23.69-18.49,42.9-41.29,42.9C255.64,145.38,237.15,126.18,237.15,102.48z"/>
			</g>
			<g>
				<g>
					<g>
						<path class="st1" d="M292.8,143.63c-0.63,0-1.18-0.46-1.26-1.1c-1.12-8.05-2.98-15.94-5.54-23.45
							c-1.92-5.64-4.18-8.68-6.92-9.31c-2.48-0.57-4.92,1.04-6.39,2.73c-1.87,2.16-3.02,5.05-3.98,7.85
							c-2.3,6.73-3.82,14.05-4.51,21.73c-0.06,0.7-0.7,1.22-1.39,1.16c-0.7-0.06-1.22-0.68-1.16-1.39
							c0.71-7.89,2.27-15.4,4.64-22.33c1.04-3.04,2.3-6.2,4.46-8.7c2.49-2.87,5.9-4.23,8.89-3.55c4.89,1.12,7.34,6.8,8.77,10.98
							c2.61,7.67,4.51,15.71,5.65,23.92c0.1,0.7-0.39,1.34-1.09,1.44C292.91,143.63,292.85,143.63,292.8,143.63z"/>
					</g>
					<g>
						<path class="st1" d="M271,124.38c-0.1,0-0.2-0.04-0.28-0.11c-0.17-0.16-0.19-0.43-0.03-0.6c3.11-3.46,6.31-6.92,9.51-10.28
							c0.16-0.17,0.43-0.18,0.6-0.01c0.17,0.16,0.18,0.43,0.01,0.6c-3.19,3.35-6.38,6.8-9.49,10.26
							C271.24,124.33,271.12,124.38,271,124.38z"/>
					</g>
					<g>
						<path class="st1" d="M267.93,135.53c-0.1,0-0.19-0.03-0.27-0.1c-0.18-0.15-0.2-0.42-0.05-0.6
							c4.85-5.76,10.11-11.27,15.62-16.39c0.17-0.16,0.44-0.15,0.6,0.02c0.16,0.17,0.15,0.44-0.02,0.6
							c-5.49,5.1-10.72,10.59-15.55,16.32C268.17,135.48,268.05,135.53,267.93,135.53z"/>
					</g>
					<g>
						<path class="st1" d="M268.52,143.99c-0.1,0-0.21-0.04-0.29-0.12c-0.17-0.16-0.18-0.43-0.02-0.6l17.04-17.99
							c0.16-0.17,0.43-0.18,0.6-0.02c0.17,0.16,0.18,0.43,0.02,0.6l-17.04,17.99C268.75,143.94,268.63,143.99,268.52,143.99z"/>
					</g>
					<g>
						<path class="st1" d="M277.59,144.96c-0.11,0-0.22-0.04-0.3-0.12c-0.17-0.17-0.17-0.44,0-0.6c3.54-3.56,7.04-7.26,10.39-11.01
							c0.16-0.18,0.43-0.19,0.6-0.03c0.18,0.16,0.19,0.43,0.03,0.6c-3.36,3.76-6.86,7.48-10.42,11.04
							C277.81,144.92,277.7,144.96,277.59,144.96z"/>
					</g>
					<g class="st2">
						<path class="st1" d="M289.75,92.58c-0.68-0.71-1.92-0.71-2.6,0c-0.93,1.24-0.36,1.66-1.05,3.61c-0.74,2.84-4.41,5.4-5.83,6.03
							c-2.11,0.85-2.8,0.86-3.9,0.93c-2.11,0.07-1.75,0.02-4.08-0.53c-0.59-0.2-0.28-0.07-1.38-0.64c-0.38-0.22-0.84-0.28-1.26-0.17
							c-1.36,0.33-1.63,2.33-0.39,3c7.06,4.76,13.93,3.38,19.05-4.24c0.99-1.75,1.68-3.69,1.87-5.7
							C290.3,94.09,290.41,93.18,289.75,92.58z"/>
					</g>
					<g class="st2">
						<path class="st1" d="M282.93,124.5c1.98,7.33,2.26,10.91,2.61,18.51c0.05,0.31,0.09,0.62,0.14,0.94
							c0.01,0.12,0.02,0.25,0.03,0.37c0.65-0.08,1.3-0.17,1.96-0.25c1.16-0.27,2.31-0.57,3.46-0.88c0.44-0.21,0.87-0.43,1.31-0.65
							c-0.24-1.83-0.64-3.64-1.04-5.45c-1.44-7.8-2.4-15.97-6.3-23.01c-1.16-2.36-2.66-4.79-5.01-6.09
							c-2.52-1.19-4.84,2.28-2.84,4.21c2.1,1.9,1.71,1.57,3.05,4.17C281.87,119.08,281.9,120.51,282.93,124.5z"/>
					</g>
					<g>
						<path class="st1" d="M278.02,109.35c-1.77,0-3.59-0.29-5.32-0.88c-1.16-0.39-2.05-0.83-2.81-1.37
							c-1.57-1.13-2.75-2.84-3.58-5.23c-0.52-1.47-0.78-2.81-0.81-4.09c-0.04-1.56,0.27-3.2,0.93-5.02c1.12-3.05,2.91-5.6,5.18-7.39
							c2.61-2.05,5.87-3.05,8.94-2.74l0,0c3.03,0.31,5.95,2.31,8.03,5.49c1.62,2.48,2.47,5.57,2.48,8.93c0,1.34-0.13,2.51-0.42,3.55
							c-0.91,3.39-3.69,6.37-7.25,7.77C281.72,109.03,279.89,109.35,278.02,109.35z M279.42,85.13c-2.16,0-4.39,0.8-6.24,2.25
							c-1.9,1.49-3.41,3.66-4.36,6.26c-0.55,1.51-0.8,2.84-0.77,4.07c0.02,1.01,0.24,2.09,0.67,3.31c0.66,1.88,1.53,3.19,2.66,4
							c0.55,0.4,1.23,0.72,2.14,1.03c3.01,1.02,6.26,0.99,8.93-0.06c2.83-1.11,5.02-3.43,5.72-6.05c0.22-0.83,0.33-1.77,0.33-2.89
							c-0.01-2.87-0.72-5.47-2.07-7.54c-0.78-1.2-2.94-4.02-6.15-4.35l0,0C279.99,85.14,279.71,85.13,279.42,85.13z"/>
					</g>
				</g>
				<g>
					<path class="st1" d="M278.27,146.23c-23.89,0-43.33-19.44-43.33-43.32c0-23.89,19.44-43.33,43.33-43.33
						c23.89,0,43.32,19.44,43.32,43.33C321.59,126.79,302.15,146.23,278.27,146.23z M278.27,62.14c-22.48,0-40.77,18.29-40.77,40.77
						c0,22.48,18.29,40.77,40.77,40.77c22.48,0,40.77-18.29,40.77-40.77C319.03,80.43,300.74,62.14,278.27,62.14z"/>
				</g>
			</g>
		</g>
		<g>
			<g>
				<ellipse class="st1" cx="142.66" cy="102.48" rx="42.4" ry="42.9"/>
			</g>
			<g>
				<g>
					<g>
						<path class="st1" d="M143.56,144.58c3.05,0,6.06-0.39,8.99-1.2c1.19-0.33,2.36-0.72,3.5-1.2c-1.27-8.24-3.21-16.32-5.73-24.22
							c-1.18-3.71-3.06-7.91-6.85-8.77c-2.54-0.58-5.23,0.64-7.03,2.52c-1.8,1.88-2.88,4.33-3.81,6.76
							c-2.82,7.36-4.68,15.07-5.57,22.9C132.25,143.38,138.04,144.57,143.56,144.58z"/>
					</g>
					<g>
						<path class="st1" d="M156.59,143.22c-0.48,0-0.95-0.27-1.16-0.74c-0.15-0.33-0.15-0.69-0.03-1.01
							c-1.14-7.6-2.92-14.98-5.29-21.95c-1.92-5.64-4.18-8.68-6.92-9.31c-2.47-0.57-4.92,1.04-6.38,2.73
							c-1.87,2.16-3.02,5.05-3.98,7.85c-2.25,6.58-3.75,13.55-4.46,20.71c-0.07,0.7-0.7,1.21-1.4,1.15c-0.7-0.07-1.22-0.7-1.15-1.4
							c0.72-7.36,2.27-14.53,4.58-21.29c1.04-3.04,2.3-6.2,4.46-8.7c2.49-2.87,5.89-4.23,8.89-3.55c4.89,1.12,7.35,6.8,8.77,10.98
							c2.48,7.29,4.33,15.03,5.49,22.99c0.08,0.55-0.21,1.1-0.71,1.34l-0.18,0.09C156.96,143.19,156.77,143.22,156.59,143.22z"/>
					</g>
					<g class="st2">
						<path class="st1" d="M152.64,92.67c-0.41-1.16-2.15-1.25-2.74-0.18c-0.54,1.3,0.02,2.78-0.14,4.14
							c0.08,0.24-0.6,2.73-0.99,3.24c-0.14,0.23,0.12-0.12,0.21-0.22c-0.11,0.14-0.29,0.38-0.41,0.54c-0.06,0.07-0.11,0.13-0.17,0.2
							c-0.93,0.92-1.89,1.8-2.85,2.68c-1.72,0.97-1.32,0.74-2.79,1.25c-0.38,0.11-0.76,0.21-1.15,0.28c-0.03,0-0.06,0-0.1,0.01
							c-1.29-0.06-2.59,0.08-3.88-0.04c-0.06-0.01-0.1-0.01-0.13-0.02c-0.68-0.11-1.38-0.28-2,0.12c-1.43,0.78-1.13,3.11,0.46,3.49
							c1.75,0.43,3.54,0.99,5.36,0.83c2.24-0.2,4.33-1.27,6.25-2.39C152.84,103.9,154.18,96.99,152.64,92.67z"/>
					</g>
					<g class="st2">
						<path class="st1" d="M150.69,135.49c0.33,4.4,0.52,3.62,0.68,6.52c0.05,0.54,0.08,1.08,0.11,1.63
							c0.36-0.09,0.72-0.16,1.07-0.26c1.38-0.38,2.74-0.84,4.04-1.43c0.2-0.09,0.4-0.19,0.6-0.3c-0.35-2.03-0.76-4.22-1.21-6.19
							c-0.93-4.19-2.01-8.33-3.3-12.42c-1.08-3.56-2.05-7.19-3.76-10.5c-0.46-0.93-1.05-1.78-1.7-2.57
							c-0.35-0.49-0.87-0.9-1.51-0.88c-1.42-0.04-2.21,1.85-1.17,2.83C149.37,117.92,149.71,128.39,150.69,135.49z"/>
					</g>
					<g>
						<path class="st1" d="M142.13,109.79c-1.77,0-3.59-0.29-5.32-0.88c-1.16-0.39-2.05-0.83-2.81-1.38
							c-1.57-1.13-2.75-2.84-3.58-5.23c-0.52-1.47-0.78-2.81-0.81-4.09c-0.04-1.56,0.27-3.2,0.93-5.02
							c1.12-3.05,2.91-5.61,5.18-7.39c2.62-2.05,5.88-3.05,8.94-2.74l0,0c3.03,0.31,5.95,2.31,8.03,5.49
							c1.62,2.48,2.47,5.57,2.48,8.93c0,1.35-0.13,2.51-0.42,3.55c-0.91,3.39-3.69,6.37-7.25,7.77
							C145.84,109.47,144.01,109.79,142.13,109.79z M143.54,85.57c-2.16,0-4.39,0.8-6.24,2.25c-1.9,1.49-3.41,3.66-4.36,6.26
							c-0.55,1.5-0.8,2.84-0.77,4.07c0.02,1.01,0.24,2.09,0.67,3.31c0.66,1.88,1.53,3.19,2.66,4c0.55,0.4,1.23,0.72,2.14,1.03
							c3.01,1.02,6.26,0.99,8.93-0.06c2.83-1.11,5.02-3.43,5.72-6.05c0.22-0.83,0.33-1.77,0.33-2.89c-0.01-2.87-0.72-5.47-2.07-7.54
							c-0.78-1.2-2.94-4.02-6.15-4.35l0,0C144.12,85.58,143.83,85.57,143.54,85.57z"/>
					</g>
				</g>
				<g>
					<path class="st1" d="M142.38,146.03c-23.89,0-43.33-19.44-43.33-43.32c0-23.89,19.44-43.32,43.33-43.32
						c23.89,0,43.32,19.44,43.32,43.32C185.71,126.6,166.27,146.03,142.38,146.03z M142.38,61.94c-22.48,0-40.77,18.29-40.77,40.77
						c0,22.48,18.29,40.77,40.77,40.77c22.48,0,40.77-18.29,40.77-40.77C183.15,80.23,164.86,61.94,142.38,61.94z"/>
				</g>
			</g>
		</g>
		<g>
			<path class="st1" d="M148.07,218.55c-0.35,0-0.7-0.14-0.95-0.43c-2.28-2.55-4.47-5.25-6.53-8.02c-0.42-0.57-0.3-1.37,0.27-1.79
				c0.57-0.42,1.37-0.3,1.79,0.27c2.01,2.71,4.15,5.34,6.38,7.84c0.47,0.53,0.42,1.33-0.1,1.81
				C148.68,218.45,148.38,218.55,148.07,218.55z M135.91,202.14c-0.43,0-0.85-0.22-1.09-0.61c-1.79-2.92-3.46-5.97-4.99-9.06
				c-0.31-0.63-0.05-1.4,0.58-1.71c0.63-0.31,1.4-0.05,1.71,0.58c1.49,3.02,3.13,6,4.88,8.86c0.37,0.6,0.18,1.39-0.43,1.76
				C136.37,202.08,136.14,202.14,135.91,202.14z M126.86,183.83c-0.51,0-1-0.31-1.19-0.82c-1.24-3.21-2.36-6.5-3.3-9.8
				c-0.2-0.68,0.2-1.39,0.87-1.58c0.68-0.19,1.39,0.2,1.58,0.87c0.93,3.22,2.01,6.44,3.23,9.58c0.26,0.66-0.07,1.4-0.73,1.65
				C127.17,183.8,127.02,183.83,126.86,183.83z M121.21,164.2c-0.6,0-1.14-0.43-1.25-1.04c-0.65-3.39-1.15-6.83-1.48-10.24
				c-0.07-0.7,0.45-1.33,1.15-1.4c0.69-0.08,1.33,0.45,1.4,1.15c0.32,3.32,0.81,6.69,1.44,10c0.13,0.69-0.32,1.36-1.02,1.5
				C121.37,164.19,121.29,164.2,121.21,164.2z"/>
		</g>
		<g>
			<path class="st1" d="M243.81,51.07c-0.13,0-0.27-0.02-0.4-0.06c-3.17-1.05-6.45-1.96-9.73-2.72c-0.69-0.16-1.12-0.84-0.96-1.53
				c0.16-0.69,0.84-1.12,1.53-0.96c3.36,0.77,6.71,1.71,9.96,2.78c0.67,0.22,1.03,0.94,0.81,1.61
				C244.85,50.73,244.35,51.07,243.81,51.07z M173.39,50.94c-0.54,0-1.04-0.34-1.22-0.88c-0.22-0.67,0.15-1.39,0.82-1.61
				c3.26-1.05,6.61-1.97,9.97-2.73c0.7-0.16,1.37,0.28,1.53,0.97c0.16,0.69-0.28,1.37-0.97,1.53c-3.29,0.74-6.57,1.64-9.75,2.67
				C173.66,50.92,173.52,50.94,173.39,50.94z M223.91,46.48c-0.06,0-0.12,0-0.17-0.01c-3.32-0.45-6.71-0.76-10.07-0.91
				c-0.71-0.03-1.25-0.63-1.22-1.33c0.03-0.71,0.62-1.26,1.34-1.22c3.43,0.16,6.9,0.47,10.3,0.93c0.7,0.09,1.19,0.74,1.09,1.44
				C225.09,46.02,224.54,46.48,223.91,46.48z M193.32,46.44c-0.63,0-1.18-0.47-1.27-1.11c-0.09-0.7,0.4-1.34,1.1-1.44
				c3.4-0.45,6.86-0.75,10.3-0.9c0.71-0.02,1.3,0.52,1.33,1.22c0.03,0.71-0.52,1.3-1.22,1.33c-3.36,0.14-6.74,0.44-10.07,0.88
				C193.43,46.44,193.37,46.44,193.32,46.44z"/>
		</g>
		<path class="st1" d="M197.3,241.4c0,0,2.76-31.16,11.1-33.33c0,0,11.41-10.69,16.44,31.66l-2.13,2.22l-3.56,1.26l-7.05,0.97
			l-7.36-0.97L197.3,241.4z"/>
		<g>
			<path class="st1" d="M272.55,215.02c-0.34,0-0.69-0.14-0.94-0.41c-0.48-0.52-0.45-1.33,0.07-1.81c2.45-2.27,4.81-4.71,7.02-7.24
				c0.46-0.53,1.27-0.59,1.8-0.12c0.53,0.46,0.59,1.27,0.12,1.8c-2.27,2.6-4.7,5.1-7.21,7.43
				C273.18,214.91,272.86,215.02,272.55,215.02z M285.98,199.64c-0.25,0-0.51-0.08-0.74-0.23c-0.58-0.41-0.71-1.2-0.31-1.78
				c1.93-2.74,3.74-5.61,5.39-8.53c0.35-0.62,1.13-0.83,1.74-0.49c0.62,0.35,0.83,1.13,0.49,1.74c-1.69,3-3.55,5.95-5.53,8.75
				C286.78,199.45,286.38,199.64,285.98,199.64z M296,181.85c-0.17,0-0.34-0.03-0.51-0.11c-0.65-0.28-0.94-1.04-0.66-1.68
				c1.34-3.08,2.54-6.26,3.56-9.44c0.22-0.67,0.94-1.04,1.61-0.83c0.67,0.22,1.04,0.94,0.83,1.61c-1.05,3.27-2.28,6.53-3.66,9.69
				C296.96,181.56,296.49,181.85,296,181.85z M302.23,162.4c-0.09,0-0.18-0.01-0.26-0.03c-0.69-0.14-1.13-0.82-0.99-1.51
				c0.69-3.3,1.21-6.65,1.55-9.97c0.07-0.7,0.71-1.22,1.4-1.14c0.7,0.07,1.22,0.7,1.14,1.4c-0.34,3.4-0.88,6.85-1.59,10.24
				C303.35,161.99,302.82,162.4,302.23,162.4z"/>
		</g>
		<g>
			<g class="st2">
				<path class="st1" d="M223.14,190.54c-0.35-1-1.85-1.07-2.35-0.16c-0.5,1.98-0.14,2.56-0.92,4.5c-0.32,1.15-2.98,3.76-4.89,4.69
					c-0.39,0.21-2.64,1-3.59,0.92c-3.27-0.08-3.59-0.1-6.33-0.29c-0.84-0.14-1.69-0.48-2.54-0.4c-1.95,0.17-2.14,3.11-0.24,3.59
					c2.57,0.58,4.35,1.55,5.58,1.57c2.68,0.25,5.52,0.33,8-0.88c2.78-1.57,4.95-4.28,6.3-7.15
					C222.72,195,223.47,192.54,223.14,190.54z"/>
			</g>
			<g class="st2">
				<path class="st1" d="M217.65,226.49c-0.03-0.24-0.06-0.48-0.1-0.72c0.26,3.53,0.85,8.61,1.14,10.47
					c0.17,2.32,0.3,4.64,0.44,6.97c1.19-0.41,2.37-0.83,3.56-1.26c0.68-0.25,1.36-0.49,2.03-0.74c0.32-0.12,0.63-0.26,0.94-0.37
					c-0.01-0.11-0.03-0.23-0.04-0.33c-0.14-1.84-1.12-9.35-2.34-13.91c-1.52-5.68-2.98-11.42-5.15-16.89
					c-0.26-0.58-0.6-1.12-0.98-1.63c-0.45-0.51-0.75-1.23-1.44-1.45c-1.62-0.79-3.39,1.23-2.43,2.76c1.7,2.22,1.92,3.81,2.7,7.19
					C216.8,220.57,217.38,224.21,217.65,226.49z"/>
			</g>
			<g>
				<path class="st1" d="M196.02,242.59c-0.03,0-0.06,0-0.09,0c-0.7-0.05-1.24-0.66-1.19-1.36c0.55-8.25,2.15-16.16,4.9-24.19
					c1.04-3.04,2.3-6.2,4.46-8.7c2.49-2.87,5.9-4.23,8.89-3.55c4.89,1.12,7.35,6.8,8.77,10.98c2.67,7.83,4.59,16.07,5.72,24.51
					c0.08,0.6-0.27,1.17-0.84,1.37l-0.49,0.17c-0.67,0.22-1.39-0.13-1.62-0.8c-0.16-0.47-0.03-0.96,0.29-1.3
					c-1.12-7.96-2.97-15.74-5.49-23.13c-1.92-5.64-4.18-8.68-6.92-9.31c-2.48-0.57-4.92,1.04-6.39,2.73
					c-1.87,2.16-3.02,5.05-3.98,7.85c-2.67,7.81-4.23,15.51-4.77,23.53C197.25,242.07,196.69,242.59,196.02,242.59z"/>
			</g>
			<g>
				<path class="st1" d="M211.37,206.87c-1.77,0-3.59-0.29-5.32-0.88c-1.16-0.39-2.05-0.83-2.82-1.38
					c-1.57-1.13-2.74-2.84-3.58-5.23c-0.52-1.47-0.78-2.81-0.81-4.09c-0.04-1.56,0.27-3.21,0.93-5.02c1.12-3.05,2.91-5.6,5.18-7.39
					c2.61-2.05,5.87-3.05,8.94-2.74c0,0,0,0,0,0c3.03,0.31,5.95,2.31,8.03,5.49c1.62,2.48,2.48,5.57,2.48,8.93
					c0,1.34-0.13,2.5-0.41,3.55c-0.91,3.39-3.69,6.37-7.25,7.77C215.08,206.55,213.24,206.87,211.37,206.87z M212.77,182.65
					c-2.16,0-4.39,0.8-6.24,2.25c-1.9,1.49-3.41,3.66-4.36,6.26c-0.55,1.51-0.8,2.84-0.77,4.07c0.02,1.01,0.24,2.09,0.67,3.31
					c0.66,1.88,1.53,3.19,2.66,4c0.55,0.4,1.23,0.72,2.14,1.03c3.01,1.01,6.26,0.99,8.93-0.06c2.83-1.11,5.02-3.43,5.72-6.06
					c0.22-0.83,0.33-1.77,0.33-2.88c0-2.87-0.72-5.47-2.07-7.54c-0.78-1.2-2.94-4.02-6.14-4.35l0,0
					C213.35,182.66,213.06,182.65,212.77,182.65z"/>
			</g>
			<g>
				<path class="st1" d="M210.33,245.09c-23.89,0-43.32-19.44-43.32-43.32c0-23.89,19.44-43.33,43.32-43.33
					c23.89,0,43.32,19.44,43.32,43.33C253.65,225.65,234.21,245.09,210.33,245.09z M210.33,160.99c-22.48,0-40.77,18.29-40.77,40.77
					c0,22.48,18.29,40.77,40.77,40.77c22.48,0,40.77-18.29,40.77-40.77C251.09,179.28,232.8,160.99,210.33,160.99z"/>
			</g>
		</g>
	</g>
</g>
<g>
	<g>
		<path class="st3" d="M76.58,339.99V326.2c0,0,2.78-0.78,4.22-1.51c22.81-11.65,48.23-17.51,73.74-19.89s51.19-1.39,76.76,0.03
			c9.05,0.5,18.11,1.06,27.08,1.42c14.96,3.98,30.57,4.65,45.86,7.05c10.26,1.61,20.39,3.99,30.5,6.37
			c4.12,0.97,8.65,4.15,12.18,6.76c0.46,3.56,0,8.47-0.18,12.05L76.58,339.99z"/>
		<path class="st1" d="M76.58,341.28c-0.34,0-0.67-0.14-0.91-0.38c-0.24-0.24-0.38-0.57-0.38-0.91V326.2c0-0.58,0.39-1.09,0.94-1.24
			c0.03-0.01,2.67-0.75,3.98-1.42c20.81-10.63,45.77-17.37,74.2-20.03c26.3-2.46,52.44-1.33,76.95,0.03l6.06,0.34
			c6.9,0.39,14.04,0.8,21,1.08c0.09,0,0.19,0.02,0.28,0.04c9.75,2.59,20,3.79,29.91,4.96c5.19,0.61,10.56,1.24,15.82,2.06
			c10.32,1.62,20.63,4.04,30.6,6.39c4.16,0.98,8.54,3.93,12.65,6.98c0.28,0.21,0.47,0.52,0.51,0.87c0.39,3,0.16,6.8-0.04,10.14
			c-0.05,0.75-0.09,1.47-0.12,2.14c-0.03,0.68-0.6,1.22-1.28,1.23L76.58,341.28C76.59,341.28,76.58,341.28,76.58,341.28z
			 M77.87,327.16v11.53l267.64-1.5c0.02-0.31,0.04-0.63,0.06-0.95c0.18-3.02,0.39-6.43,0.12-9.11c-3.76-2.76-7.69-5.37-11.25-6.21
			c-9.92-2.34-20.18-4.75-30.4-6.35c-5.21-0.82-10.55-1.44-15.72-2.05c-9.95-1.17-20.25-2.38-30.13-4.99
			c-6.93-0.28-14.03-0.69-20.9-1.08l-6.06-0.34c-24.42-1.36-50.44-2.48-76.57-0.04c-28.1,2.62-52.75,9.27-73.27,19.76
			C80.39,326.35,78.85,326.86,77.87,327.16z"/>
	</g>
	<g>
		<path class="st3" d="M299.41,290.49c15.65,12.63,34.27,25.26,47.51,35.94c-2.11,0.14-110.23,0-151.21,0
			c-37.11,0-82.02-0.75-119.12-0.23c16.19-12.85,33.08-24.83,51.35-36.72c5.79-3.71,12.67-5.3,19.45-6.47
			c20.4-3.5,41.2-3.69,61.89-3.88C239.26,278.87,273.1,281.78,299.41,290.49z"/>
		<path class="st1" d="M316.49,327.78c-17.25,0-40.84-0.02-68.26-0.04c-20.53-0.01-39.78-0.03-52.52-0.03
			c-13.5,0-27.76-0.1-42.85-0.2c-25.89-0.18-52.66-0.36-76.25-0.03c-0.01,0-0.01,0-0.02,0c-0.54,0-1.03-0.34-1.22-0.86
			c-0.19-0.52-0.02-1.1,0.41-1.44c15.61-12.39,32.44-24.42,51.45-36.79c6.06-3.89,13.16-5.5,19.93-6.66
			c20.56-3.52,41.67-3.71,62.1-3.9c35.21-0.32,67.36,3.74,90.55,11.41c0.15,0.05,0.28,0.12,0.4,0.22
			c8.13,6.56,17.04,13.1,25.65,19.43c7.97,5.85,15.49,11.38,21.86,16.51c0.41,0.33,0.58,0.88,0.42,1.39
			c-0.16,0.51-0.61,0.86-1.14,0.9C346.28,327.76,335.06,327.78,316.49,327.78z M106.61,324.73c15.17,0,30.87,0.11,46.26,0.21
			c15.09,0.1,29.34,0.2,42.83,0.2c12.75,0,31.99,0.01,52.53,0.03c37.17,0.03,82.16,0.06,95.04,0.01
			c-5.68-4.45-12.14-9.2-18.93-14.18c-8.57-6.29-17.43-12.8-25.56-19.35c-22.91-7.54-54.68-11.52-89.49-11.21
			c-20.32,0.18-41.34,0.37-61.69,3.86c-6.51,1.12-13.31,2.65-18.97,6.28c-17.73,11.54-33.56,22.78-48.27,34.29
			C88.8,324.76,97.61,324.73,106.61,324.73z"/>
	</g>
	<g>
		<path class="st3" d="M299.3,291.24c0,0-172.53,0.5-173.05-0.42c-2.6-33.33-3.4-66.81-2.39-100.22c0.17-5.81,1.44-13.03,7.99-15.18
			c32.48-4.94,69.38-2.52,104.08-3c17.02-0.24,34.1-0.34,50.98,1.8c3.35,0.42,7,1.16,9.95,2.79c2.75,1.51,4.57,4.3,4.93,7.42
			c0.56,4.86,0.64,9.77,0.73,14.67C303.04,230.05,303.55,261.17,299.3,291.24z"/>
		<path class="st1" d="M207.91,292.66c-22.73,0-41.01-0.03-54.41-0.1c-27.83-0.14-27.86-0.2-28.37-1.12
			c-0.09-0.16-0.15-0.34-0.16-0.53c-2.59-33.26-3.4-67.03-2.4-100.36c0.1-3.36,0.41-13.59,8.87-16.36c0.07-0.02,0.14-0.04,0.21-0.05
			c23.42-3.56,49.4-3.31,74.53-3.07c9.81,0.09,19.95,0.19,29.73,0.06c18.2-0.25,34.61-0.29,51.16,1.81
			c2.83,0.36,6.99,1.05,10.41,2.94c3.09,1.7,5.18,4.84,5.59,8.4c0.57,4.93,0.65,9.94,0.73,14.79c0.52,30.54,1.06,62.12-3.22,92.36
			c-0.09,0.63-0.63,1.11-1.27,1.11c-0.43,0-43.63,0.12-86.33,0.13C211.26,292.66,209.57,292.66,207.91,292.66z M299.3,291.24
			L299.3,291.24L299.3,291.24z M127.46,289.65c11.1,0.59,114.56,0.46,170.72,0.3c4.08-29.71,3.55-60.78,3.04-90.85
			c-0.08-4.79-0.17-9.74-0.72-14.54c-0.31-2.73-1.91-5.14-4.27-6.43c-3.03-1.67-6.87-2.3-9.49-2.64c-16.39-2.08-32.7-2.04-50.8-1.79
			c-9.81,0.14-19.97,0.04-29.79-0.06c-24.98-0.24-50.82-0.49-74.01,3.03c-4.47,1.52-6.76,6.09-7,13.96
			C124.16,223.52,124.94,256.83,127.46,289.65z"/>
	</g>
	<g>
		<rect x="135.25" y="184.78" class="st3" width="156.74" height="96.6"/>
		<path class="st1" d="M292,282.67H135.25c-0.71,0-1.29-0.58-1.29-1.29v-96.6c0-0.71,0.58-1.29,1.29-1.29H292
			c0.71,0,1.29,0.58,1.29,1.29v96.6C293.29,282.09,292.71,282.67,292,282.67z M136.54,280.09h154.16v-94.02H136.54V280.09z"/>
	</g>
	<g>
		<rect x="165.43" y="237.95" class="st4" width="20.52" height="23.08"/>
		<path class="st1" d="M185.95,262.32h-20.52c-0.71,0-1.29-0.58-1.29-1.29v-23.08c0-0.71,0.58-1.29,1.29-1.29h20.52
			c0.71,0,1.29,0.58,1.29,1.29v23.08C187.24,261.75,186.66,262.32,185.95,262.32z M166.72,259.74h17.94v-20.5h-17.94V259.74z"/>
	</g>
	<g>
		<g>
			<rect x="202.37" y="219.81" class="st5" width="22.52" height="41.74"/>
			<path class="st3" d="M223.88,220.81v39.74h-20.52v-39.74H223.88 M225.88,218.81h-2h-20.52h-2v2v39.74v2h2h20.52h2v-2v-39.74
				V218.81L225.88,218.81z"/>
		</g>
		<path class="st1" d="M223.88,261.84h-20.52c-0.71,0-1.29-0.58-1.29-1.29v-39.74c0-0.71,0.58-1.29,1.29-1.29h20.52
			c0.71,0,1.29,0.58,1.29,1.29v39.74C225.17,261.26,224.6,261.84,223.88,261.84z M204.66,259.26h17.94V222.1h-17.94V259.26z"/>
	</g>
	<g>
		<rect x="240.88" y="206.82" class="st3" width="20.23" height="52.67"/>
		<path class="st1" d="M261.11,260.78h-20.23c-0.71,0-1.29-0.58-1.29-1.29v-52.67c0-0.71,0.58-1.29,1.29-1.29h20.23
			c0.71,0,1.29,0.58,1.29,1.29v52.67C262.4,260.2,261.83,260.78,261.11,260.78z M242.17,258.2h17.65v-50.09h-17.65V258.2z"/>
	</g>
	<g>
		<path class="st1" d="M244.66,218.01c-0.09,0-0.17-0.03-0.25-0.08c-0.19-0.14-0.24-0.41-0.1-0.6l5.41-7.58
			c0.14-0.19,0.41-0.24,0.6-0.1c0.19,0.14,0.24,0.41,0.1,0.6l-5.41,7.58C244.92,217.94,244.79,218.01,244.66,218.01z"/>
	</g>
	<g>
		<path class="st1" d="M244.06,227.9c-0.09,0-0.18-0.03-0.25-0.08c-0.19-0.14-0.24-0.41-0.1-0.6l12.51-17.35
			c0.14-0.19,0.41-0.24,0.6-0.1c0.19,0.14,0.24,0.41,0.1,0.6l-12.51,17.34C244.32,227.84,244.19,227.9,244.06,227.9z"/>
	</g>
	<g>
		<path class="st1" d="M244.92,236.83c-0.08,0-0.16-0.02-0.24-0.07c-0.2-0.13-0.25-0.4-0.12-0.6c3.89-5.87,8.09-11.63,12.49-17.14
			c0.15-0.18,0.42-0.21,0.6-0.07c0.18,0.15,0.22,0.42,0.07,0.6c-4.38,5.49-8.57,11.23-12.44,17.08
			C245.2,236.76,245.06,236.83,244.92,236.83z"/>
	</g>
	<g>
		<path class="st1" d="M244.79,246.61c-0.09,0-0.18-0.03-0.26-0.08c-0.19-0.14-0.23-0.41-0.09-0.6l13.01-17.62
			c0.14-0.19,0.41-0.23,0.6-0.09c0.19,0.14,0.23,0.41,0.09,0.6l-13.01,17.62C245.05,246.55,244.92,246.61,244.79,246.61z"/>
	</g>
	<g>
		<path class="st1" d="M245.79,254.17c-0.09,0-0.17-0.03-0.25-0.08c-0.19-0.14-0.24-0.41-0.1-0.6c3.75-5.25,7.74-10.41,11.87-15.35
			c0.15-0.18,0.42-0.21,0.61-0.05c0.18,0.15,0.21,0.42,0.05,0.61c-4.11,4.92-8.09,10.07-11.83,15.3
			C246.06,254.1,245.93,254.17,245.79,254.17z"/>
	</g>
	<g>
		<path class="st1" d="M252.11,255.27c-0.1,0-0.2-0.03-0.28-0.1c-0.18-0.15-0.2-0.42-0.05-0.61l5.52-6.48
			c0.15-0.18,0.42-0.2,0.61-0.05c0.18,0.15,0.2,0.42,0.05,0.61l-5.52,6.49C252.36,255.22,252.23,255.27,252.11,255.27z"/>
	</g>
	<g class="st2">
		<path class="st1" d="M291.39,186.67c-0.2-0.67-0.71-1.18-1.38-1.38c-0.53-0.16-1.05,0-1.58,0.09c-0.55,0.07-1.72,0.26-2.13,0.34
			c-0.01,0-0.03,0-0.04,0c-3.22,0.03-6.44-0.33-9.66-0.46c-2.69-0.17-5.4-0.16-8.09-0.38c-2.23-0.19-4.45-0.59-6.7-0.6
			c-17.02-0.45-34.01,0.62-51,1.54c-9.78,0.43-19.56-0.28-29.34-0.52c-7.26-0.33-14.52-0.56-21.78-0.92
			c-6.52-0.28-13.04-0.77-19.58-0.57c-1.57,0.12-3.42-0.23-4.63,1.01c-1.43,1.37-1.04,3.68,0.34,4.8c-1.29,7.15-0.5,14.56-0.64,21.8
			c0.05,4.81,0.22,9.61,0.28,14.42c0.01,4.5,0.1,9,0.74,13.47c0.47,3.04-0.01,6.08-0.19,9.12c0.1,8.45-0.71,16.89-0.5,25.34
			c0.06,1.69,0.17,3.38,0.2,5.07c-0.12,1.58,0.67,3.28,2.47,3.26c3.04-0.26,2.34-3.01,2.27-5.19c-0.04-2.28,0.01-4.55,0.09-6.83
			c0.11-3.93,0.62-7.84,0.79-11.76c0.1-5.24,0.21-10.49,0.16-15.74c-0.19-3.01-0.67-6-0.83-9.01c-0.2-5.89-0.05-11.78-0.15-17.67
			c0.04-7.61,0-15.22,0.25-22.82c0.21-2.06,0.16-1.99,0.33-2.88c6.18-0.06,12.34,0.43,18.52,0.59c15.58,0.36,31.15,1.32,46.73,1.25
			c8.32-0.26,16.62-0.99,24.93-1.4c9.59-0.29,19.17-0.81,28.76-0.89c3.23-0.2,6.41,0.43,9.62,0.6c4.04-0.03,8.07-0.34,12.11-0.38
			c2.59-0.03,4.31-0.41,5-0.55c1.27-0.28,2.79,0.14,3.89-0.63C291.33,188.31,291.59,187.41,291.39,186.67z"/>
	</g>
	<g class="st2">
		<path class="st1" d="M337.06,318.64c-1.25-0.6-2.55-1.08-3.83-1.6c-0.08-0.03-0.15-0.06-0.23-0.09c-0.05-0.12-0.09-0.23-0.16-0.34
			c-0.48-0.76-1.32-1.12-2.05-1.6c-1.03-0.66-2.01-1.4-3-2.11c-5.49-3.85-11.18-7.92-15.04-11.1c-3.84-3.42-7.41-7.35-12.05-9.7
			c-1.59-0.77-3.25-1.56-5.03-1.74c-2.9-0.1-5.81,0.33-8.71,0.42c-6.97,0.38-13.96,0.17-20.93,0.32
			c-10.95,0.19-21.88,0.99-32.83,1.05c-8.27-0.01-16.54,0.15-24.8,0.2c-5.47-0.19-10.94-0.24-16.41-0.19
			c-6.09-0.07-12.14-1.2-18.23-1.09c-1.2,0.11-2.5-0.2-3.62,0.3c-0.88,0.3-1.46,1.05-1.7,1.9c-7.12-0.56-14.28-0.48-21.39-1.15
			c-3.57-0.36-11.44-1.2-12.38-1.34c-2.17-0.29-4.33-0.68-6.52-0.75c-0.83,0.02-1.7-0.24-2.47,0.14c-2.27,0.89-1.68,4.53,0.91,4.5
			c6.71,0.28,15.09,2.34,23.47,2.94c5.42,0.46,10.87,0.49,16.3,0.79c4.79,0.34,9.57,0.8,14.35,1.26c10.76,1.14,23.22,3.5,37.19,4.89
			c11.57,1.25,23.24,1.2,34.79,2.61c8.65,0.85,20.99,3.69,31.89,5.3c11.57,1.69,20.88,2.57,31.32,4.34c0.01,0,0.03,0.01,0.04,0.02
			c0.26,0.08,0.52,0.11,0.78,0.12c1.72,0.3,3.48,0.62,5.28,0.98c2.33,0.51,4.63,1.13,6.94,1.72c0.14,0.04,0.27,0.07,0.41,0.09
			c0.22,0.07,0.44,0.13,0.66,0.18c0.24,0.3,0.58,0.54,1.02,0.65c1.25,0.48,2.5,0.97,3.76,1.45c0.5,0.16,1,0.44,1.54,0.3
			C338.14,322.17,338.66,319.5,337.06,318.64z M296.08,304.8c0.65,0.04,1.31,0.08,1.96,0.12c0.07,0,0.14,0.01,0.21,0.01
			c0.38,0.2,0.75,0.41,1.13,0.62C298.28,305.3,297.18,305.05,296.08,304.8z"/>
	</g>
</g>
<g>
	<g>
		<path class="st3" d="M170.02,197.51c0-23.69,18.49-42.05,41.29-42.05s41.29,18.36,41.29,42.05s-18.49,42.9-41.29,42.9
			S170.02,221.2,170.02,197.51z"/>
	</g>
	<g>
		<g>
			<path class="st3" d="M238.53,98.65c0-23.69,18.31-41.62,41.11-41.62s41.47,17.93,41.47,41.62c0,23.69-18.49,42.9-41.29,42.9
				C257.02,141.55,238.53,122.35,238.53,98.65z"/>
		</g>
		<g>
			<g>
				<g>
					<path class="st1" d="M294.17,139.8c-0.63,0-1.18-0.46-1.26-1.1c-1.12-8.05-2.98-15.94-5.54-23.45
						c-1.92-5.64-4.18-8.68-6.92-9.31c-2.48-0.57-4.92,1.04-6.39,2.73c-1.87,2.16-3.02,5.05-3.98,7.85
						c-2.3,6.73-3.82,14.05-4.51,21.73c-0.06,0.7-0.7,1.22-1.39,1.16c-0.7-0.06-1.22-0.68-1.16-1.39c0.71-7.89,2.27-15.4,4.64-22.33
						c1.04-3.04,2.3-6.2,4.46-8.7c2.49-2.87,5.9-4.23,8.89-3.55c4.89,1.12,7.34,6.8,8.77,10.98c2.61,7.67,4.51,15.71,5.65,23.92
						c0.1,0.7-0.39,1.34-1.09,1.44C294.29,139.8,294.23,139.8,294.17,139.8z"/>
				</g>
				<g>
					<path class="st1" d="M272.38,120.55c-0.1,0-0.2-0.04-0.28-0.11c-0.17-0.16-0.19-0.43-0.03-0.6c3.11-3.46,6.31-6.92,9.51-10.28
						c0.16-0.17,0.43-0.18,0.6-0.01c0.17,0.16,0.18,0.43,0.01,0.6c-3.19,3.35-6.38,6.8-9.49,10.26
						C272.61,120.5,272.5,120.55,272.38,120.55z"/>
				</g>
				<g>
					<path class="st1" d="M269.3,131.71c-0.1,0-0.19-0.03-0.27-0.1c-0.18-0.15-0.2-0.42-0.05-0.6c4.85-5.76,10.11-11.27,15.62-16.39
						c0.17-0.16,0.44-0.15,0.6,0.02c0.16,0.17,0.15,0.44-0.02,0.6c-5.49,5.1-10.72,10.59-15.55,16.32
						C269.55,131.66,269.43,131.71,269.3,131.71z"/>
				</g>
				<g>
					<path class="st1" d="M269.9,140.16c-0.1,0-0.21-0.04-0.29-0.12c-0.17-0.16-0.18-0.43-0.02-0.6l17.04-17.99
						c0.16-0.17,0.43-0.18,0.6-0.02c0.17,0.16,0.18,0.43,0.02,0.6l-17.04,17.99C270.12,140.11,270.01,140.16,269.9,140.16z"/>
				</g>
				<g>
					<path class="st1" d="M278.96,141.13c-0.11,0-0.22-0.04-0.3-0.12c-0.17-0.17-0.17-0.44,0-0.6c3.54-3.56,7.04-7.26,10.39-11.01
						c0.16-0.18,0.43-0.19,0.6-0.03c0.18,0.16,0.19,0.43,0.03,0.6c-3.36,3.76-6.86,7.48-10.42,11.04
						C279.18,141.09,279.07,141.13,278.96,141.13z"/>
				</g>
				<g class="st2">
					<path class="st1" d="M291.12,88.75c-0.68-0.71-1.92-0.71-2.6,0c-0.93,1.24-0.36,1.66-1.05,3.61c-0.74,2.84-4.41,5.4-5.83,6.03
						c-2.11,0.85-2.8,0.86-3.9,0.93c-2.11,0.07-1.75,0.02-4.08-0.53c-0.59-0.2-0.28-0.07-1.38-0.64c-0.38-0.22-0.84-0.28-1.26-0.17
						c-1.36,0.33-1.63,2.33-0.39,3c7.06,4.76,13.93,3.38,19.05-4.24c0.99-1.75,1.68-3.69,1.87-5.7
						C291.68,90.26,291.78,89.35,291.12,88.75z"/>
				</g>
				<g class="st2">
					<path class="st1" d="M284.31,120.67c1.98,7.33,2.26,10.91,2.61,18.51c0.05,0.31,0.09,0.62,0.14,0.94
						c0.01,0.12,0.02,0.25,0.03,0.37c0.65-0.08,1.3-0.17,1.96-0.25c1.16-0.27,2.31-0.57,3.46-0.88c0.44-0.21,0.87-0.43,1.31-0.65
						c-0.24-1.83-0.64-3.64-1.04-5.45c-1.44-7.8-2.4-15.97-6.3-23.01c-1.16-2.36-2.66-4.79-5.01-6.09
						c-2.52-1.19-4.84,2.28-2.84,4.21c2.1,1.9,1.71,1.57,3.05,4.17C283.25,115.25,283.28,116.69,284.31,120.67z"/>
				</g>
				<g>
					<path class="st1" d="M279.39,105.53c-1.77,0-3.59-0.29-5.32-0.88c-1.16-0.39-2.05-0.83-2.81-1.37
						c-1.57-1.13-2.75-2.84-3.58-5.23c-0.52-1.47-0.78-2.81-0.81-4.09c-0.04-1.56,0.27-3.2,0.93-5.02c1.12-3.05,2.91-5.6,5.18-7.39
						c2.61-2.05,5.87-3.05,8.94-2.74l0,0c3.03,0.31,5.95,2.31,8.03,5.49c1.62,2.48,2.47,5.57,2.48,8.93c0,1.34-0.13,2.51-0.42,3.55
						c-0.91,3.39-3.69,6.37-7.25,7.77C283.1,105.2,281.27,105.53,279.39,105.53z M280.8,81.3c-2.16,0-4.39,0.8-6.24,2.25
						c-1.9,1.49-3.41,3.66-4.36,6.26c-0.55,1.51-0.8,2.84-0.77,4.07c0.02,1.01,0.24,2.09,0.67,3.31c0.66,1.88,1.53,3.19,2.66,4
						c0.55,0.4,1.23,0.72,2.14,1.03c3.01,1.02,6.26,0.99,8.93-0.06c2.83-1.11,5.02-3.43,5.72-6.05c0.22-0.83,0.33-1.77,0.33-2.89
						c-0.01-2.87-0.72-5.47-2.07-7.54c-0.78-1.2-2.94-4.02-6.15-4.35l0,0C281.37,81.31,281.09,81.3,280.8,81.3z"/>
				</g>
			</g>
			<g>
				<path class="st1" d="M279.64,142.4c-23.89,0-43.33-19.44-43.33-43.32c0-23.89,19.44-43.33,43.33-43.33
					c23.89,0,43.32,19.44,43.32,43.33C322.97,122.97,303.53,142.4,279.64,142.4z M279.64,58.31c-22.48,0-40.77,18.29-40.77,40.77
					c0,22.48,18.29,40.77,40.77,40.77c22.48,0,40.77-18.29,40.77-40.77C320.41,76.6,302.12,58.31,279.64,58.31z"/>
			</g>
		</g>
	</g>
	<g>
		<g>
			<ellipse class="st3" cx="144.04" cy="98.65" rx="42.4" ry="42.9"/>
		</g>
		<g>
			<g>
				<g>
					<g>
						<path class="st5" d="M144.94,141.75c-5.51-0.01-11.35-1.14-16.86-3.29l-0.72-0.28l0.09-0.77c0.91-8.01,2.81-15.79,5.63-23.15
							c0.9-2.34,2.03-5.02,4.02-7.09c1.79-1.86,4.2-2.97,6.45-2.97c0.52,0,1.03,0.06,1.52,0.17c4.42,1.01,6.44,5.87,7.58,9.44
							c2.57,8.04,4.51,16.24,5.76,24.38l0.12,0.77l-0.72,0.3c-1.11,0.47-2.3,0.88-3.62,1.25c-2.97,0.82-6.07,1.24-9.22,1.24
							C144.98,141.75,144.94,141.75,144.94,141.75z"/>
						<path class="st3" d="M143.55,105.21c0.43,0,0.87,0.05,1.3,0.14c3.8,0.86,5.67,5.07,6.85,8.77c2.52,7.9,4.45,15.98,5.73,24.22
							c-1.14,0.48-2.31,0.87-3.5,1.2c-2.92,0.81-5.92,1.2-8.96,1.2c-0.01,0-0.02,0-0.04,0c-5.52-0.01-11.31-1.2-16.5-3.22
							c0.89-7.83,2.75-15.55,5.57-22.9c0.93-2.43,2.01-4.88,3.81-6.76C139.32,106.31,141.42,105.21,143.55,105.21 M143.55,103.21
							c-2.56,0-5.17,1.2-7.17,3.28c-2.13,2.21-3.3,4.99-4.24,7.43c-2.85,7.43-4.77,15.3-5.69,23.39l-0.17,1.53l1.44,0.56
							c5.63,2.19,11.59,3.35,17.22,3.36c3.28,0,6.47-0.43,9.53-1.27c1.37-0.38,2.59-0.8,3.74-1.29l1.44-0.61l-0.24-1.54
							c-1.26-8.18-3.22-16.43-5.8-24.53c-1.22-3.81-3.4-9-8.31-10.12C144.73,103.27,144.14,103.21,143.55,103.21L143.55,103.21z"/>
					</g>
				</g>
				<g>
					<path class="st1" d="M157.97,139.4c-0.48,0-0.95-0.27-1.16-0.74c-0.15-0.33-0.15-0.69-0.03-1.01
						c-1.14-7.6-2.92-14.98-5.29-21.95c-1.92-5.64-4.18-8.68-6.92-9.31c-2.47-0.57-4.92,1.04-6.38,2.73
						c-1.87,2.16-3.02,5.05-3.98,7.85c-2.25,6.58-3.75,13.55-4.46,20.71c-0.07,0.7-0.7,1.21-1.4,1.15c-0.7-0.07-1.22-0.7-1.15-1.4
						c0.72-7.36,2.27-14.53,4.58-21.29c1.04-3.04,2.3-6.2,4.46-8.7c2.49-2.87,5.89-4.23,8.89-3.55c4.89,1.12,7.35,6.8,8.77,10.98
						c2.48,7.29,4.33,15.03,5.49,22.99c0.08,0.55-0.21,1.1-0.71,1.34l-0.18,0.09C158.33,139.36,158.15,139.4,157.97,139.4z"/>
				</g>
				<g class="st2">
					<path class="st1" d="M154.01,88.84c-0.41-1.16-2.15-1.25-2.74-0.18c-0.54,1.3,0.02,2.78-0.14,4.14
						c0.08,0.24-0.6,2.73-0.99,3.24c-0.14,0.23,0.12-0.12,0.21-0.22c-0.11,0.14-0.29,0.38-0.41,0.54c-0.06,0.07-0.11,0.13-0.17,0.2
						c-0.93,0.92-1.89,1.8-2.85,2.68c-1.72,0.97-1.32,0.74-2.79,1.25c-0.38,0.11-0.76,0.21-1.15,0.28c-0.03,0-0.06,0-0.1,0.01
						c-1.29-0.06-2.59,0.08-3.88-0.04c-0.06-0.01-0.1-0.01-0.13-0.02c-0.68-0.11-1.38-0.28-2,0.12c-1.43,0.78-1.13,3.11,0.46,3.49
						c1.75,0.43,3.54,0.99,5.36,0.83c2.24-0.2,4.33-1.27,6.25-2.39C154.22,100.07,155.56,93.16,154.01,88.84z"/>
				</g>
				<g class="st2">
					<path class="st1" d="M152.07,131.66c0.33,4.4,0.52,3.62,0.68,6.52c0.05,0.54,0.08,1.08,0.11,1.63
						c0.36-0.09,0.72-0.16,1.07-0.26c1.38-0.38,2.74-0.84,4.04-1.43c0.2-0.09,0.4-0.19,0.6-0.3c-0.35-2.03-0.76-4.22-1.21-6.19
						c-0.93-4.19-2.01-8.33-3.3-12.42c-1.08-3.56-2.05-7.19-3.76-10.5c-0.46-0.93-1.05-1.78-1.7-2.57c-0.35-0.49-0.87-0.9-1.51-0.88
						c-1.42-0.04-2.21,1.85-1.17,2.83C150.74,114.09,151.09,124.56,152.07,131.66z"/>
				</g>
				<g>
					<path class="st1" d="M143.51,105.97c-1.77,0-3.59-0.29-5.32-0.88c-1.16-0.39-2.05-0.83-2.81-1.38
						c-1.57-1.13-2.75-2.84-3.58-5.23c-0.52-1.47-0.78-2.81-0.81-4.09c-0.04-1.56,0.27-3.2,0.93-5.02c1.12-3.05,2.91-5.61,5.18-7.39
						c2.62-2.05,5.88-3.05,8.94-2.74l0,0c3.03,0.31,5.95,2.31,8.03,5.49c1.62,2.48,2.47,5.57,2.48,8.93c0,1.35-0.13,2.51-0.42,3.55
						c-0.91,3.39-3.69,6.37-7.25,7.77C147.22,105.64,145.39,105.97,143.51,105.97z M144.92,81.74c-2.16,0-4.39,0.8-6.24,2.25
						c-1.9,1.49-3.41,3.66-4.36,6.26c-0.55,1.5-0.8,2.84-0.77,4.07c0.02,1.01,0.24,2.09,0.67,3.31c0.66,1.88,1.53,3.19,2.66,4
						c0.55,0.4,1.23,0.72,2.14,1.03c3.01,1.02,6.26,0.99,8.93-0.06c2.83-1.11,5.02-3.43,5.72-6.05c0.22-0.83,0.33-1.77,0.33-2.89
						c-0.01-2.87-0.72-5.47-2.07-7.54c-0.78-1.2-2.94-4.02-6.15-4.35l0,0C145.49,81.76,145.2,81.74,144.92,81.74z"/>
				</g>
			</g>
			<g>
				<path class="st1" d="M143.76,142.2c-23.89,0-43.33-19.44-43.33-43.32c0-23.89,19.44-43.32,43.33-43.32
					c23.89,0,43.32,19.44,43.32,43.32C187.09,122.77,167.65,142.2,143.76,142.2z M143.76,58.11c-22.48,0-40.77,18.29-40.77,40.77
					c0,22.48,18.29,40.77,40.77,40.77c22.48,0,40.77-18.29,40.77-40.77C184.53,76.4,166.24,58.11,143.76,58.11z"/>
			</g>
		</g>
	</g>
	<g>
		<path class="st6" d="M149.45,214.73c-0.35,0-0.7-0.14-0.95-0.43c-2.28-2.55-4.47-5.25-6.53-8.02c-0.42-0.57-0.3-1.37,0.27-1.79
			c0.57-0.42,1.37-0.3,1.79,0.27c2.01,2.71,4.15,5.34,6.38,7.84c0.47,0.53,0.42,1.33-0.1,1.81
			C150.06,214.62,149.76,214.73,149.45,214.73z M137.29,198.32c-0.43,0-0.85-0.22-1.09-0.61c-1.79-2.92-3.46-5.97-4.99-9.06
			c-0.31-0.63-0.05-1.4,0.58-1.71c0.63-0.31,1.4-0.05,1.71,0.58c1.49,3.02,3.13,6,4.88,8.86c0.37,0.6,0.18,1.39-0.43,1.76
			C137.75,198.26,137.52,198.32,137.29,198.32z M128.24,180c-0.51,0-1-0.31-1.19-0.82c-1.24-3.21-2.36-6.5-3.3-9.8
			c-0.2-0.68,0.2-1.39,0.87-1.58c0.68-0.19,1.39,0.2,1.58,0.87c0.93,3.22,2.01,6.44,3.23,9.58c0.26,0.66-0.07,1.4-0.73,1.65
			C128.55,179.97,128.39,180,128.24,180z M122.59,160.37c-0.6,0-1.14-0.43-1.25-1.04c-0.65-3.39-1.15-6.83-1.48-10.24
			c-0.07-0.7,0.45-1.33,1.15-1.4c0.69-0.08,1.33,0.45,1.4,1.15c0.32,3.32,0.81,6.69,1.44,10c0.13,0.69-0.32,1.36-1.02,1.5
			C122.75,160.36,122.67,160.37,122.59,160.37z"/>
	</g>
	<g>
		<path class="st6" d="M245.19,47.24c-0.13,0-0.27-0.02-0.4-0.06c-3.17-1.05-6.45-1.96-9.73-2.72c-0.69-0.16-1.12-0.84-0.96-1.53
			c0.16-0.69,0.84-1.12,1.53-0.96c3.36,0.77,6.71,1.71,9.96,2.78c0.67,0.22,1.03,0.94,0.81,1.61
			C246.23,46.9,245.73,47.24,245.19,47.24z M174.77,47.11c-0.54,0-1.04-0.34-1.22-0.88c-0.22-0.67,0.15-1.39,0.82-1.61
			c3.26-1.05,6.61-1.97,9.97-2.73c0.7-0.16,1.37,0.28,1.53,0.97c0.16,0.69-0.28,1.37-0.97,1.53c-3.29,0.74-6.57,1.64-9.75,2.67
			C175.04,47.09,174.9,47.11,174.77,47.11z M225.29,42.65c-0.06,0-0.12,0-0.17-0.01c-3.32-0.45-6.71-0.76-10.07-0.91
			c-0.71-0.03-1.25-0.63-1.22-1.33c0.03-0.71,0.62-1.26,1.34-1.22c3.43,0.16,6.9,0.47,10.3,0.93c0.7,0.09,1.19,0.74,1.09,1.44
			C226.47,42.19,225.92,42.65,225.29,42.65z M194.7,42.61c-0.63,0-1.18-0.47-1.27-1.11c-0.09-0.7,0.4-1.34,1.1-1.44
			c3.4-0.45,6.86-0.75,10.3-0.9c0.71-0.02,1.3,0.52,1.33,1.22c0.03,0.71-0.52,1.3-1.22,1.33c-3.36,0.14-6.74,0.44-10.07,0.88
			C194.81,42.61,194.75,42.61,194.7,42.61z"/>
	</g>
	<path class="st4" d="M198.68,237.57c0,0,2.76-31.16,11.1-33.33c0,0,11.41-10.69,16.44,31.66l-2.13,2.22l-3.56,1.26l-7.05,0.97
		l-7.36-0.97L198.68,237.57z"/>
	<g>
		<path class="st6" d="M273.93,211.19c-0.34,0-0.69-0.14-0.94-0.41c-0.48-0.52-0.45-1.33,0.07-1.81c2.45-2.27,4.81-4.71,7.02-7.24
			c0.46-0.53,1.27-0.59,1.8-0.12c0.53,0.46,0.59,1.27,0.12,1.8c-2.27,2.6-4.7,5.1-7.21,7.43
			C274.55,211.08,274.24,211.19,273.93,211.19z M287.36,195.81c-0.25,0-0.51-0.08-0.74-0.23c-0.58-0.41-0.71-1.2-0.31-1.78
			c1.93-2.74,3.74-5.61,5.39-8.53c0.35-0.62,1.13-0.83,1.74-0.49c0.62,0.35,0.83,1.13,0.49,1.74c-1.69,3-3.55,5.95-5.53,8.75
			C288.16,195.63,287.76,195.81,287.36,195.81z M297.38,178.02c-0.17,0-0.34-0.03-0.51-0.11c-0.65-0.28-0.94-1.04-0.66-1.68
			c1.34-3.08,2.54-6.26,3.56-9.44c0.22-0.67,0.94-1.04,1.61-0.83c0.67,0.22,1.04,0.94,0.83,1.61c-1.05,3.27-2.28,6.53-3.66,9.69
			C298.34,177.74,297.87,178.02,297.38,178.02z M303.6,158.58c-0.09,0-0.18-0.01-0.26-0.03c-0.69-0.14-1.13-0.82-0.99-1.51
			c0.69-3.3,1.21-6.65,1.55-9.97c0.07-0.7,0.71-1.22,1.4-1.14c0.7,0.07,1.22,0.7,1.14,1.4c-0.34,3.4-0.88,6.85-1.59,10.24
			C304.73,158.16,304.19,158.58,303.6,158.58z"/>
	</g>
	<g>
		<g class="st2">
			<path class="st1" d="M224.52,186.71c-0.35-1-1.85-1.07-2.35-0.16c-0.5,1.98-0.14,2.56-0.92,4.5c-0.32,1.15-2.98,3.76-4.89,4.69
				c-0.39,0.21-2.64,1-3.59,0.92c-3.27-0.08-3.59-0.1-6.33-0.29c-0.84-0.14-1.69-0.48-2.54-0.4c-1.95,0.17-2.14,3.11-0.24,3.59
				c2.57,0.58,4.35,1.55,5.58,1.57c2.68,0.25,5.52,0.33,8-0.88c2.78-1.57,4.95-4.28,6.3-7.15
				C224.1,191.17,224.85,188.71,224.52,186.71z"/>
		</g>
		<g class="st2">
			<path class="st1" d="M219.03,222.66c-0.03-0.24-0.06-0.48-0.1-0.72c0.26,3.53,0.85,8.61,1.14,10.47c0.17,2.32,0.3,4.64,0.44,6.97
				c1.19-0.41,2.37-0.83,3.56-1.26c0.68-0.25,1.36-0.49,2.03-0.74c0.32-0.12,0.63-0.26,0.94-0.37c-0.01-0.11-0.03-0.23-0.04-0.33
				c-0.14-1.84-1.12-9.35-2.34-13.91c-1.52-5.68-2.98-11.42-5.15-16.89c-0.26-0.58-0.6-1.12-0.98-1.63
				c-0.45-0.51-0.75-1.23-1.44-1.45c-1.62-0.79-3.39,1.23-2.43,2.76c1.7,2.22,1.92,3.81,2.7,7.19
				C218.18,216.75,218.75,220.38,219.03,222.66z"/>
		</g>
		<g>
			<path class="st1" d="M197.4,238.76c-0.03,0-0.06,0-0.09,0c-0.7-0.05-1.24-0.66-1.19-1.36c0.55-8.25,2.15-16.16,4.9-24.19
				c1.04-3.04,2.3-6.2,4.46-8.7c2.49-2.87,5.9-4.23,8.89-3.55c4.89,1.12,7.35,6.8,8.77,10.98c2.67,7.83,4.59,16.07,5.72,24.51
				c0.08,0.6-0.27,1.17-0.84,1.37l-0.49,0.17c-0.67,0.22-1.39-0.13-1.62-0.8c-0.16-0.47-0.03-0.96,0.29-1.3
				c-1.12-7.96-2.97-15.74-5.49-23.13c-1.92-5.64-4.18-8.68-6.92-9.31c-2.48-0.57-4.92,1.04-6.39,2.73
				c-1.87,2.16-3.02,5.05-3.98,7.85c-2.67,7.81-4.23,15.51-4.77,23.53C198.63,238.24,198.07,238.76,197.4,238.76z"/>
		</g>
		<g>
			<path class="st1" d="M212.75,203.04c-1.77,0-3.59-0.29-5.32-0.88c-1.16-0.39-2.05-0.83-2.82-1.38c-1.57-1.13-2.74-2.84-3.58-5.23
				c-0.52-1.47-0.78-2.81-0.81-4.09c-0.04-1.56,0.27-3.21,0.93-5.02c1.12-3.05,2.91-5.6,5.18-7.39c2.61-2.05,5.87-3.05,8.94-2.74
				c0,0,0,0,0,0c3.03,0.31,5.95,2.31,8.03,5.49c1.62,2.48,2.48,5.57,2.48,8.93c0,1.34-0.13,2.5-0.41,3.55
				c-0.91,3.39-3.69,6.37-7.25,7.77C216.45,202.72,214.62,203.04,212.75,203.04z M214.15,178.82c-2.16,0-4.39,0.8-6.24,2.25
				c-1.9,1.49-3.41,3.66-4.36,6.26c-0.55,1.51-0.8,2.84-0.77,4.07c0.02,1.01,0.24,2.09,0.67,3.31c0.66,1.88,1.53,3.19,2.66,4
				c0.55,0.4,1.23,0.72,2.14,1.03c3.01,1.01,6.26,0.99,8.93-0.06c2.83-1.11,5.02-3.43,5.72-6.06c0.22-0.83,0.33-1.77,0.33-2.88
				c0-2.87-0.72-5.47-2.07-7.54c-0.78-1.2-2.94-4.02-6.14-4.35l0,0C214.73,178.83,214.44,178.82,214.15,178.82z"/>
		</g>
		<g>
			<path class="st1" d="M211.7,241.26c-23.89,0-43.32-19.44-43.32-43.32c0-23.89,19.44-43.33,43.32-43.33
				c23.89,0,43.32,19.44,43.32,43.33C255.03,221.82,235.59,241.26,211.7,241.26z M211.7,157.17c-22.48,0-40.77,18.29-40.77,40.77
				c0,22.48,18.29,40.77,40.77,40.77c22.48,0,40.77-18.29,40.77-40.77C252.47,175.45,234.18,157.17,211.7,157.17z"/>
		</g>
	</g>
</g>
</svg>
