<?xml version="1.0" encoding="utf-8"?>
<!-- Generator: Adobe Illustrator 25.0.0, SVG Export Plug-In . SVG Version: 6.00 Build 0)  -->
<svg version="1.1" id="Capa_1" xmlns="http://www.w3.org/2000/svg" xmlns:xlink="http://www.w3.org/1999/xlink" x="0px" y="0px"
	 viewBox="0 0 425.2 425.2" style="enable-background:new 0 0 425.2 425.2;" xml:space="preserve">
<style type="text/css">
	.st0{opacity:0.36;}
	.st1{fill:#020203;}
	.st2{fill:none;stroke:#020203;stroke-miterlimit:10;}
	.st3{fill:#3F3F3F;}
	.st4{fill:#A4A6A9;}
	.st5{opacity:0.24;}
	.st6{fill:#DADADA;}
	.st7{fill:#AD7A15;stroke:#231F20;stroke-miterlimit:10;}
	.st8{fill:#A5854C;}
	.st9{fill:#D84544;}
	.st10{fill:#EEEDED;stroke:#020304;stroke-miterlimit:10;}
	.st11{fill:#EEEDED;stroke:#060707;stroke-miterlimit:10;}
	.st12{fill:#973636;}
	.st13{fill:#EEEDED;}
	.st14{fill:#F6F6F6;stroke:#020304;stroke-width:0.5;stroke-miterlimit:10;}
	.st15{fill:#EEEDED;stroke:#040506;stroke-miterlimit:10;}
	.st16{fill:#E20E17;}
	.st17{fill:#231F20;}
	.st18{fill:#AD7A15;stroke:#231F20;stroke-width:0.5;stroke-miterlimit:10;}
	.st19{fill:#AD7A15;stroke:#231F20;stroke-width:2;stroke-miterlimit:10;}
	.st20{fill:#C7C6C6;}
	.st21{fill:#EEEDED;stroke:#040506;stroke-width:0.25;stroke-miterlimit:10;}
</style>
<g class="st0">
	<rect x="87.28" y="310.58" class="st1" width="246.92" height="34.13"/>
	<g>
		<rect x="120.41" y="161.14" class="st2" width="36.14" height="132.5"/>
		<rect x="264.95" y="161.14" class="st2" width="36.14" height="132.5"/>
	</g>
	<polygon class="st1" points="73.16,142.57 348.33,142.57 348.33,120.74 210.75,43.71 73.16,120.74 	"/>
	<polygon class="st1" points="91.88,127.52 210.75,60.96 329.61,127.52 	"/>
</g>
<g>
	<rect x="86.65" y="311.17" class="st3" width="246.92" height="34.13"/>
	<g>
		<rect x="119.77" y="161.73" class="st3" width="36.14" height="132.5"/>
		<polygon class="st3" points="228.18,294.23 192.04,294.23 192.04,161.73 226.67,162.2 		"/>
		<rect x="264.31" y="161.73" class="st3" width="36.14" height="132.5"/>
	</g>
	<polygon class="st3" points="72.52,143.16 347.7,143.16 347.7,121.33 210.11,44.3 72.52,121.33 	"/>
	<polygon class="st4" points="91.24,128.11 210.11,61.55 328.98,128.11 	"/>
</g>
<g class="st5">
	<g>
		<path class="st1" d="M155.46,202.65h5.41c-0.95-3.17-1.09-6.38-0.35-9.62l-5.05-2.14V202.65z"/>
		<path class="st1" d="M210.06,57.5c16.07-0.01,18.26,10.04,17.11,17.41c-0.51,3.28,0,7.17,0,7.17s13.67,48.38-17.2,32.01
			c-11.46,1.26-16.71,3.9-21.53-13.31c-1.2-4.3,2.19-6.83,3.57-15.26c0.44-2.69,0.76-6.41,0.38-8.59
			c-3.4-19.43,15.59-19.53,17.63-19.42C210.04,57.49,210.05,57.49,210.06,57.5z"/>
		<path class="st1" d="M228.63,107.02c0.26-0.47,0.39-1,0.59-1.5c0.24-0.61,0.58-1.18,0.96-1.72c-0.34,10.24-4.54,18.58-20.18,10.28
			c-10.43,1.15-15.72,3.44-20.22-9.16c0.64,0.74,1.12,1.61,1.66,2.42c0.7,1.05,1.6,2.07,2.82,2.4c-0.72-1.64-0.98-3.49-0.72-5.27
			c0.45,2.16,1.68,4.15,3.42,5.52c-0.71-0.83-0.44-2.06-0.49-3.15c-0.1-1.87-1.25-3.5-1.75-5.3c-0.45-1.58-1.1-2.9-1.04-4.54
			c0.72,1.77,3.27,2.63,3.99,4.4c-3.33-7.55-3.88-13.56-5.34-18.04c0.02-0.22,0.04-0.44,0.07-0.66c2.87-1.03,6.36-0.47,9.46,0.18
			c3.07,0.63,6.13,1.27,9.2,1.91c0.71,0.15,1.42,0.29,2.15,0.26c1.03-0.05,2.01-0.47,2.98-0.83c3.55-1.3,7.4-1.82,11.17-1.52
			c0.06,0.21,0.13,0.49,0.21,0.81c-2.68,13.95-6.09,14.84-6.59,19.8c1.02-0.95,3.28-3.55,4.1-4.68c-0.83,2.63-2.85,6.87-3.38,9.58
			c1.81-1.23,3.19-3.08,3.86-5.16c-0.42,2.08-0.85,4.21-0.6,6.32C226.37,108.9,227.91,108.32,228.63,107.02z"/>
		<path class="st1" d="M176.64,319.28c49.02,1.18,75.07-17.52,66.65-67.34l-62.16,2.45L176.64,319.28z"/>
		<path class="st1" d="M224.62,316.86c0.23,2.01,1.67,2.7,7,2.51c6.33-0.23,7.21-0.92,7.13-2.98c-0.09-0.98-0.34-2.28-0.36-4.02
			c-0.03-5.9-2.54-10.59-7.12-10.56c-4.63,0.03-6.24,3.88-6.49,10.12C224.71,314.04,224.42,315.69,224.62,316.86z"/>
		<path class="st1" d="M239.42,245.44l-1.13,18.31l-2.62,42.26c0.15,8.28-8.91,7.64-8.85,0.15l-1.28-18.92l-2.83-41.56
			L239.42,245.44z"/>
		<path class="st1" d="M239.42,245.44v17.4c-4.62,5.99-10.4,16.36-14.26,25.7l-2.44-42.86L239.42,245.44z"/>
		<path class="st1" d="M218.52,100.35v9.8c0,1.92-8.43,4.38-8.55,4.44c-0.12-0.06-8.55-2.52-8.55-4.44v-9.8
			c3.62,3.74,6.72,5.05,8.55,5.11C211.8,105.4,214.9,104.09,218.52,100.35z"/>
		<path class="st1" d="M219.12,66.52c1.41,2.47,5.62,6.79,6.85,3.07c0.54,0.78,0.92,2.13,1.41,3.33c-0.04,0.68-0.12,1.34-0.22,1.99
			c-0.12,0.74-0.18,1.52-0.2,2.26c-11.1-2.2-23.24,4.02-34.43,1.42c-0.01-0.62-0.07-1.18-0.15-1.68c-0.09-0.51-0.16-1.01-0.22-1.49
			c1.64-1.85,3.96-5.04,4.56-5.84c-2.25,7.07,5.81,4.95,8.81,2c-0.02,0.59-0.04,1.17-0.06,1.76c2.92-2.11,5.26-5,6.73-8.28
			c0.5,1.69,1.9,3.01,3.47,3.81c1.58,0.79,2.54,0.99,4.27,1.33C218.89,69.41,219.25,67.83,219.12,66.52z"/>
		<path class="st1" d="M209.97,105.46c1.83-0.06,4.93-1.37,8.55-5.11v3.26c-3.62,3.74-6.72,5.05-8.55,5.11
			c-1.83-0.06-4.93-1.37-8.55-5.11v-3.26C205.04,104.09,208.15,105.4,209.97,105.46z"/>
		<path class="st1" d="M226.8,78.84c-0.03-0.03-0.03-0.03-0.06-0.03c-0.4-0.06-0.79,0.12-1.19,0.4c-0.52,1.19-0.85,2.49-0.97,3.77
			c0.21-2.16,0.27-4.05,0.21-5.69c0.06-1.47,0.04-2.79-0.05-3.98c-2.62-0.54-6.96-1.66-11.01-3.72c-2.06,1.86-4,3.41-6.44,4.63
			c-1.61,0.8-4.17,1.47-4.17,1.47s0.55-0.61,0.77-1.18c-3.49,1.21-6.83,1.34-8.75,1.29c0,0.46,0.02,0.94,0.04,1.43
			c-0.09,1.73-0.03,3.77,0.24,6.11h-0.03c0-0.09-0.03-0.21-0.03-0.3c-0.12-1.31-0.46-2.62-0.97-3.83c-0.37-0.27-0.79-0.46-1.19-0.4
			c0,0-0.03,0-0.06,0.03c-1.22,0.24-1.83,2.43-1.37,4.9c0.03,0.03,0.03,0.06,0.03,0.09c0,0.03,0,0.06,0.03,0.09
			c0.03,0.24,0.09,0.49,0.18,0.73c0.06,0.21,0.15,0.43,0.21,0.64c0.03,0.06,0.03,0.12,0.06,0.15c0.03,0.09,0.09,0.18,0.12,0.27
			c0.55,1.19,1.34,2.01,2.1,2.1h0.34c0.4,3.53,1.7,6.24,2.98,8.06c1.22,1.76,2.43,3.22,3.59,4.44c0,0.03,0,0.03,0,0.03
			c3.62,3.74,6.72,5.05,8.55,5.11c1.83-0.06,4.93-1.37,8.55-5.11c0,0,0,0,0-0.03c1.19-1.22,2.37-2.68,3.62-4.44
			c1.28-1.83,2.56-4.53,2.95-8.06h0.33c0.76-0.09,1.52-0.88,2.07-2.07c0.06-0.09,0.12-0.18,0.15-0.3c0.03-0.03,0.03-0.09,0.06-0.15
			c0.09-0.21,0.15-0.43,0.24-0.64c0.06-0.24,0.12-0.49,0.15-0.73c0.03-0.03,0.03-0.06,0.03-0.09c0-0.03,0-0.06,0.03-0.09
			C228.62,81.27,228.01,79.08,226.8,78.84z"/>
		<path class="st1" d="M201.42,109.79l-0.79,0.34c5.09,13.26,14.51,23.09,30.91,24.98l0.82-4.2c0.54-2.56,2.72-4.5,5.4-4.75
			l23.65-1.16c3.14-0.15,5.72-2.45,6.12-5.45l0.25-1.87l3.85-28.37l-6.11-1.02l-7.05,24.49c-0.32,1.11-1.36,1.87-2.55,1.88
			l-15.25,0.07c-2.47-1.22-22.15-4.93-22.15-4.93"/>
		<path class="st1" d="M163.39,128.93"/>
		<path class="st1" d="M180.48,128.93"/>
		<path class="st1" d="M229.42,174.96c-2.34-6.72-2.88-13.93-1.52-20.93l1.3-6.81l0.63-3.16l1.68-8.79l0.03-0.15
			c-16.4-1.89-25.82-11.71-30.91-24.98l-6.48,2.59c2.94,12.69,1.01,20.84-4.3,25.25c-0.25,0.21-0.51,0.43-0.76,0.61l0.06,0.24
			l3.26,17.1c1.11,5.66,0.95,11.44-0.66,17.01c-19.21,66.44-15.36,133.77-15.11,146.37c35.08,2.07,42.06-23.91,49.96-44.51
			c0.44-1.22,0.92-2.4,1.42-3.59c3.63-8.97,7.84-16.43,15.26-19.26C244.24,249.4,238.08,200.03,229.42,174.96z"/>
		<path class="st1" d="M243.29,251.93c-7.43,2.83-11.63,10.28-15.26,19.26c-0.28,0.33-0.54,0.64-0.82,0.91
			c1.8-6.18,4.87-15.3,9.23-20.17c0.92-1,2.37-2.98,3-4.17c0.7-1.31,0.09-7.67,0-9.13c-0.38-6.57-0.32-9.1-0.95-14.97
			c-0.47-4.23-2.45-12.41-15.78,1.28c0.44-2.13,6.52-11.71,7.94-13.42c1.61-1.89,3.89-3.29,4.99-5.48c1.11-2.19-0.03-5.66-2.56-5.57
			c-1.52,0.06-2.65,1.34-3.57,2.53c-4.17,5.38-8.34,10.77-12.51,16.12c16.52-29.93,13.2-33.36,10.87-44.05
			c-0.25-0.97-0.57-1.98-1.26-2.71c-0.66-0.76-1.9-1.16-2.78-0.64c1.58-1.34,2.15-3.47,2.18-5.51c0.06-2.01-0.32-4.02-0.19-6.05
			c0.13-2.28,0.92-4.5,1.14-6.81c0.22-2.22-0.19-4.69-1.86-6.18c1.33,0.06,2.81-0.12,4.11,0.03l-1.3,6.81
			c-1.36,7-0.82,14.21,1.52,20.93C238.08,200.03,244.24,249.4,243.29,251.93z"/>
		<path class="st1" d="M229.2,147.21c-1.3-0.15-2.78,0.03-4.11-0.03c-0.66-0.03-1.33-0.12-1.96-0.24c-1.42-0.24-2.88-0.49-4.17-1.06
			c-1.3-0.58-2.47-1.52-2.97-2.8l0.09-0.03c3.76,1.95,8.31,3.16,12.29,1.67c0.51-0.18,0.98-0.43,1.45-0.67L229.2,147.21z"/>
		<path class="st1" d="M214.03,264.43c1.39-3.68,3.73-7.42,7.58-8.61c-2.84,4.29-3.1,9.74-5.15,14.45
			c-5.66,13.08-14.63,31.54,2.24,14.85c3.11-3.08,5.02-7.06,7.9-10.34c-7.9,20.6-14.89,46.58-49.97,44.51
			c-0.25-12.6-4.11-79.92,15.11-146.37c1.61-5.57,1.77-11.35,0.66-17.01l-3.26-17.1l-0.06-0.24c0.25-0.18,0.51-0.4,0.76-0.61
			c0.95,8.91,11.98,8.4,16.94,6.48c-9.48,3.92-13.15,10.07-12.89,17.43c0.06,2.37,0.33,3.32,1.62,5.36c1.07,1.7,3.88,6.37,9.05,8.52
			c-5.46,0.13-6.06-1.58-9.05-3.9c1.9,4.22,3.29,6.72,15.23,12.78c-13.42-1.43-16.38-9.32-16.78-8.27
			c-0.52,1.35-2.52,8.72-2.98,10.08c-0.48,1.42-0.92,2.86-1.33,4.3c-2.44,8.61-3.71,17.53-3.73,26.44c0,1.19,0.09,2.52,1.04,3.26
			c1.83,1.46,4.36-0.7,5.63-2.62c3.03-4.56,5.97-9.31,10.05-13.02c4.11-3.74,9.61-6.45,15.2-5.96
			c-12.2,5.63-20.42,16.95-26.93,28.39c-3.51,6.21-6.76,12.87-6.54,19.93c4.74-4.08,8.19-11.58,11.95-16.5
			c3.38-4.44,16.37-18.38,19.75-22.82c-2.69,8.24-13.57,22.68-19.36,29.28c-2.34,2.71-6.55,13.18-8.54,16.16
			c-2.17,3.26-4.18,4.51-6.07,10.08c17.43-7.79,14.42-22.06,30.62-31.56c-12.05,12.55-5,21.49-20.15,34.04
			c-2.06,1.71-8.18,9.39-8.1,12.89c4.9-3.23,5.37-1.84,10.27-5.09c2.88-1.89,4.92-3.85,7.07-6.47c3.6-4.35,5.47-7.71,6.98-13.07
			c1.52-5.35,6.07-14.91,11.03-17.74c-6.45,8.28-7.58,25.15-14.22,33.28c-3.44,4.2-6.83,6.06-11.69,8.68
			c-4.84,2.65-9.67,6.51-10.3,11.83c5.56-8.18,19.34-7.3,25.63-15.03C211.75,272.04,212.64,268.08,214.03,264.43z"/>
		<path class="st1" d="M224.79,84.07c-9.95,3.38-19.74,3.6-29.36,0c-0.35-2.21-0.59-5.36-2.87-4.9l-0.17-2.25
			c11.82-0.56,23.22-0.57,34.58,0.02v1.95C224.98,79,224.79,81.93,224.79,84.07z"/>
		<g>
			<path class="st1" d="M219.59,76.64c1.65,0.36,3.34,0.56,5.03,0.6c0.8,0.01,1.63,0,2.35,0.35v-0.64
				C224.52,76.81,222.06,76.71,219.59,76.64z"/>
			<path class="st1" d="M219.4,77.75c-0.76,0.06-1.5,0.17-2.26,0.28c-0.96,0.14-1.93,0.28-2.9,0.42c0.87-0.06,1.76,0.14,2.65,0.23
				c2.41,0.25,4.93-0.41,7.24,0.31c-0.61,0.28-1.29,0.34-1.96,0.4c-1.56,0.13-3.11,0.26-4.67,0.39c0.68,0.12,1.35,0.44,2.04,0.37
				c1.5-0.14,2.3,0,3.28-0.23c2.42-0.21,1.79,0.56-0.51,0.62c-3.16,0.08-6.25,0.91-9.39,1.34c1.95,0.13,3.9,0.26,5.85,0.39
				c0.54,0.04,1.08,0.07,1.62,0.06c1.45-0.04,2.88-0.46,4.33-0.52c0.01,0.24-0.26,0.37-0.48,0.45c-2.66,0.96-5.39,1.7-8.17,2.22
				c1.75-0.07,3.5-0.59,5.25-0.66c0.45-0.02,0.99-0.09,1.44-0.15c0.76-0.12,0.44-0.1,1.2,0.06c-1.85,0.61-5.25,1.65-8,2.51
				c2.93-0.42,5.88-1.15,8.84-2.15c0.01-2.14,0.19-5.06,2.18-5.18v-1.3C224.47,77.9,221.92,77.55,219.4,77.75z"/>
			<path class="st1" d="M202.36,85.67c-0.5-0.17-0.95-0.46-1.41-0.71c-0.71-0.37-1.46-0.63-2.22-0.9c-1.04-0.36-2.07-0.72-3.12-1.09
				c1.2-0.72,2.88,0.21,4.09-0.49c-1.38-0.52-2.79-0.99-4.2-1.41c0.76-0.14,1.53,0.12,2.28,0.34c2.15,0.63,4.38,0.92,6.61,1.21
				c-3.27-1.31-6.59-2.52-9.93-3.63c1.76,0.01,3.51,0.23,5.22,0.66c0.34,0.08,0.69,0.17,1.04,0.21c0.39,0.04,0.79,0.01,1.18-0.01
				c1.03-0.07,2.06-0.14,3.09-0.21c-0.42-0.33-0.98-0.44-1.51-0.53c-3.2-0.55-6.41-1.03-9.63-1.47c1.77-0.1,3.52-0.45,5.2-1.01
				c-2.21,0.07-4.43,0.15-6.67,0.26l0.17,2.25c2.28-0.47,2.53,2.68,2.87,4.9c3.62,1.36,7.27,2.17,10.94,2.47
				c-0.45-0.18-0.9-0.38-1.36-0.49C204.14,85.85,203.21,85.95,202.36,85.67z"/>
		</g>
		<path class="st1" d="M264.45,82.92l-0.67-2.43c-0.1-0.32-0.29-0.58-0.53-0.78c0,0.01,0.01,0.03,0.02,0.04l0.67,2.43
			c0.28,0.88-0.21,1.81-1.09,2.09l-0.03,0.01c-0.56,0.18-1.14,0.04-1.56-0.31c0.29,0.85,1.21,1.32,2.07,1.05l0.03-0.01
			C264.24,84.74,264.73,83.8,264.45,82.92z"/>
		<path class="st1" d="M271.25,74.89c0,0.05-0.01,0.11-0.02,0.16l-1.35,6.01c-0.16,0.71-0.95,1.14-1.76,0.96l-0.03-0.01
			c-0.4-0.09-0.73-0.31-0.95-0.6c-0.05,0.65,0.45,1.28,1.2,1.45l0.03,0.01c0.81,0.18,1.6-0.25,1.76-0.95l1.35-6.01
			C271.57,75.55,271.47,75.19,271.25,74.89z"/>
		<path class="st1" d="M274.07,76.2c0,0.03,0,0.07-0.01,0.1l-1.2,5.37c-0.16,0.71-0.95,1.14-1.76,0.96l-0.03-0.01
			c-0.4-0.09-0.72-0.31-0.94-0.59c-0.09,0.67,0.42,1.34,1.2,1.51l0.03,0.01c0.81,0.18,1.6-0.25,1.76-0.95l1.2-5.37
			C274.4,76.86,274.3,76.49,274.07,76.2z"/>
		<path class="st1" d="M276.4,77.22c0,0.04,0,0.09-0.01,0.13l-0.99,4.4c-0.13,0.58-0.78,0.93-1.44,0.78l-0.02-0.01
			c-0.29-0.06-0.53-0.22-0.7-0.41c-0.04,0.54,0.37,1.05,0.98,1.19l0.02,0.01c0.67,0.15,1.31-0.2,1.44-0.78l0.99-4.4
			C276.74,77.81,276.63,77.48,276.4,77.22z"/>
		<path class="st1" d="M268.1,74.83c0,0.03,0,0.06-0.01,0.09l-1.16,5.18c-0.16,0.71-0.95,1.14-1.76,0.95l-0.03-0.01
			c-0.38-0.09-0.7-0.29-0.91-0.56c-0.1,0.68,0.41,1.35,1.19,1.53l0.03,0.01c0.81,0.18,1.6-0.25,1.76-0.96l1.16-5.18
			C268.45,75.51,268.34,75.13,268.1,74.83z"/>
		<g>
			<path class="st1" d="M233.75,147.29h23.93l-11.96-41.58L233.75,147.29z M258.29,148.21h-25.15c-0.14,0-0.28-0.07-0.37-0.18
				c-0.09-0.12-0.11-0.27-0.07-0.4l12.57-43.7c0.06-0.2,0.24-0.33,0.44-0.33c0.21,0,0.39,0.14,0.44,0.33l12.57,43.7
				c0.04,0.14,0.01,0.29-0.07,0.4C258.57,148.14,258.44,148.21,258.29,148.21z"/>
			<path class="st1" d="M233.14,148.38c2.74,3.07,7.35,5.09,12.57,5.09c5.22,0,9.83-2.02,12.57-5.09H233.14z"/>
			<rect x="232.3" y="147.11" class="st1" width="26.84" height="1.27"/>
			<rect x="245.26" y="104.05" class="st1" width="0.92" height="45.51"/>
		</g>
		<g>
			<path class="st1" d="M272.04,147.29h23.93L284,105.71L272.04,147.29z M296.57,148.21h-25.15c-0.14,0-0.28-0.07-0.37-0.18
				c-0.09-0.12-0.11-0.27-0.07-0.4l12.57-43.7c0.06-0.2,0.24-0.33,0.44-0.33c0.21,0,0.39,0.14,0.44,0.33l12.57,43.7
				c0.04,0.14,0.01,0.29-0.07,0.4C296.86,148.14,296.72,148.21,296.57,148.21z"/>
			<path class="st1" d="M271.43,148.38c2.74,3.07,7.35,5.09,12.57,5.09c5.22,0,9.83-2.02,12.57-5.09H271.43z"/>
			<rect x="270.58" y="147.11" class="st1" width="26.84" height="1.27"/>
			<rect x="283.54" y="104.05" class="st1" width="0.92" height="45.51"/>
		</g>
		<rect x="171.25" y="319.4" class="st1" width="74.46" height="10.3"/>
		<rect x="160.88" y="329.7" class="st1" width="95.22" height="13.58"/>
		<g>
			<path class="st1" d="M161.42,201.84l77.2,105.31c1.56,2.12,2.44,4.65,2.54,7.27l0.18,4.86l-4.58-1.63
				c-2.47-0.88-4.61-2.48-6.17-4.6l-77.2-105.32L161.42,201.84z"/>
			<polygon class="st1" points="144.21,183.96 141.43,186 155.16,206.44 159.65,203.14 			"/>
			<path class="st1" d="M144.49,181.78c0.65,0.89,0.01,2.47-1.43,3.53c-1.44,1.06-3.14,1.2-3.79,0.31
				c-0.65-0.89-0.01-2.47,1.43-3.53C142.14,181.03,143.83,180.89,144.49,181.78z"/>
			<path class="st1" d="M161.42,201.84l77.2,105.31c1.56,2.12,2.44,4.65,2.54,7.27l0.18,4.86L157.4,204.79L161.42,201.84z"/>
			<path class="st1" d="M172.5,196.29l-27.73,20.36l-1.53-2.08c8.59-8.81,17.76-15.81,27.73-20.36L172.5,196.29z"/>
		</g>
		<path class="st1" d="M194.15,112.71l-7.96,3.16c-2.37,1.1-5.02,3.19-6.38,5.38c-0.78,1.25-1.32,2.57-1.71,3.88l-23.88,64.26
			c-5.2,0.8-5.03,0.58-8.83,6.08l0.02,0.02c-0.19,0.24-0.32,0.53-0.35,0.86c-0.1,0.92,0.56,1.74,1.48,1.84
			c0.19,0.02,0.37,0,0.55-0.04c-0.21,0.25-0.34,0.55-0.38,0.89c-0.1,0.92,0.56,1.74,1.48,1.84c0.22,0.02,0.44,0,0.64-0.06
			c-0.28,0.26-0.47,0.62-0.52,1.03c-0.1,0.92,0.56,1.74,1.48,1.84c0.22,0.02,0.44,0,0.64-0.06c-0.2,0.24-0.33,0.54-0.37,0.88
			c-0.1,0.92,0.56,1.79,1.48,1.84c1.02,0.06,1.52-0.57,2.08-1.15c4.08-3.17,5.81-4.85,7.23-14.34l0,0l27.51-55.82l0.06,0.01
			l0.66,3.5C194.97,134.28,197.21,125.97,194.15,112.71z"/>
		<g>
			<path class="st1" d="M161.82,210.88c0.42-1.92,0.96-4.41,1.38-6.33"/>
		</g>
		<g>
			<path class="st1" d="M164.11,213.85c0.35-1.82,0.81-4.18,1.16-6"/>
		</g>
		<g>
			<path class="st1" d="M166.45,216.85c0.35-1.82,0.81-4.18,1.16-6"/>
		</g>
		<g>
			<path class="st1" d="M168.68,219.85c0.35-1.82,0.81-4.18,1.16-6"/>
		</g>
		<g>
			<path class="st1" d="M170.76,222.52c0.35-1.82,0.81-4.18,1.16-6"/>
		</g>
		<g>
			<path class="st1" d="M173.1,226.15c0.35-1.82,0.81-4.18,1.16-6"/>
		</g>
		<g>
			<path class="st1" d="M175.71,229.59c0.35-1.82,0.81-4.18,1.16-6"/>
		</g>
		<g>
			<path class="st1" d="M177.88,232.78c0.35-1.82,0.85-4.37,1.2-6.18"/>
		</g>
		<g>
			<path class="st1" d="M180,235.68c0.35-1.82,0.94-4.48,1.3-6.3"/>
		</g>
		<g>
			<path class="st1" d="M182.13,238.75c0.35-1.82,0.96-4.36,1.32-6.18"/>
		</g>
		<g>
			<path class="st1" d="M184.44,241.57c0.35-1.82,0.81-4.18,1.16-6"/>
		</g>
		<g>
			<path class="st1" d="M186.73,244.86c0.35-1.82,0.86-4.47,1.22-6.29"/>
		</g>
		<g>
			<path class="st1" d="M189.14,247.97c0.35-1.82,0.81-4.18,1.16-6"/>
		</g>
		<g>
			<path class="st1" d="M191.34,250.97c0.35-1.82,0.81-4.18,1.16-6"/>
		</g>
		<g>
			<path class="st1" d="M193.57,253.97c0.35-1.82,0.81-4.18,1.16-6"/>
		</g>
		<g>
			<path class="st1" d="M195.79,256.97c0.35-1.82,0.81-4.18,1.16-6"/>
		</g>
		<g>
			<path class="st1" d="M197.99,259.97c0.35-1.82,0.81-4.18,1.16-6"/>
		</g>
		<g>
			<path class="st1" d="M200.2,262.97c0.35-1.82,0.81-4.18,1.16-6"/>
		</g>
		<g>
			<path class="st1" d="M202.65,266.41c0.35-1.82,0.81-4.18,1.16-6"/>
		</g>
		<g>
			<path class="st1" d="M205.27,269.8c0.35-1.82,0.81-4.18,1.16-6"/>
		</g>
		<g>
			<path class="st1" d="M210.53,276.94c0.35-1.82,0.81-4.18,1.16-6"/>
		</g>
		<g>
			<path class="st1" d="M207.89,273.6c0.35-1.82,0.85-4.41,1.21-6.22"/>
		</g>
		<g>
			<path class="st1" d="M213.41,281.01c0.35-1.82,0.81-4.18,1.16-6"/>
		</g>
		<g>
			<path class="st1" d="M216.04,284.52c0.35-1.82,0.81-4.18,1.16-6"/>
		</g>
		<g>
			<path class="st1" d="M218.53,287.97c0.35-1.82,0.81-4.18,1.16-6"/>
		</g>
		<g>
			<path class="st1" d="M221.05,291.53c0.35-1.82,0.81-4.18,1.16-6"/>
		</g>
		<g>
			<path class="st1" d="M223.97,295.21c0.35-1.82,0.81-4.18,1.16-6"/>
		</g>
		<g>
			<path class="st1" d="M226.57,299.01c0.35-1.82,0.81-4.18,1.16-6"/>
		</g>
		<g>
			<path class="st1" d="M229.61,302.99c0.35-1.82,0.81-4.18,1.16-6"/>
		</g>
		<g>
			<path class="st1" d="M232.4,307.11c0.35-1.9,0.81-4.38,1.16-6.28"/>
		</g>
		<g>
			<path class="st1" d="M235.12,310.6c0.35-1.9,0.81-4.38,1.16-6.28"/>
		</g>
		<g>
			<path class="st1" d="M238.17,314.65c0.35-1.9,0.81-4.38,1.16-6.28"/>
		</g>
		<g>
			<path class="st1" d="M240.11,317.3c0.26-1.39,0.59-3.2,0.85-4.59"/>
		</g>
		<g>
			<path class="st1" d="M161.5,210.88c-1.97-0.27-4.54-0.63-6.51-0.9"/>
		</g>
		<g>
			<path class="st1" d="M163.92,213.94c-1.98-0.27-4.55-0.63-6.53-0.9"/>
		</g>
		<g>
			<path class="st1" d="M166.41,217.13c-2.07-0.27-4.76-0.63-6.83-0.9"/>
		</g>
		<g>
			<path class="st1" d="M168.62,220.15c-2-0.24-4.6-0.56-6.6-0.81"/>
		</g>
		<g>
			<path class="st1" d="M170.76,222.64c-1.92-0.13-4.65-0.32-6.57-0.45"/>
		</g>
		<g>
			<path class="st1" d="M173.1,226.15c-2-0.17-4.61-0.38-6.61-0.55"/>
		</g>
		<g>
			<path class="st1" d="M175.71,229.83c-2-0.27-4.6-0.63-6.6-0.9"/>
		</g>
		<g>
			<path class="st1" d="M177.88,232.9c-1.84-0.19-4.43-0.45-6.27-0.64"/>
		</g>
		<g>
			<path class="st1" d="M180,235.68c-1.96-0.23-4.51-0.52-6.47-0.75"/>
		</g>
		<g>
			<path class="st1" d="M182.13,238.75c-1.83-0.27-4.45-0.36-6.28-0.63"/>
		</g>
		<g>
			<path class="st1" d="M184.44,241.73c-1.81-0.16-4.44-0.15-6.31-0.3"/>
		</g>
		<g>
			<path class="st1" d="M186.73,244.86c-1.98-0.09-1.98-0.09-6.31-0.45"/>
		</g>
		<g>
			<path class="st1" d="M189.14,248.18c-1.88-0.14-4.33-0.31-6.21-0.45"/>
		</g>
		<g>
			<path class="st1" d="M191.34,250.97c-1.94-0.11-4.47-0.25-6.41-0.35"/>
		</g>
		<g>
			<path class="st1" d="M193.57,253.97c-1.96-0.09-4.52-0.21-6.49-0.31"/>
		</g>
		<g>
			<path class="st1" d="M195.79,256.97c-1.91-0.08-4.39-0.19-6.3-0.27"/>
		</g>
		<g>
			<path class="st1" d="M197.99,259.97c-1.9-0.07-4.39-0.16-6.29-0.23"/>
		</g>
		<g>
			<path class="st1" d="M200.2,263.23c-1.86-0.08-4.27-0.18-6.13-0.26"/>
		</g>
		<g>
			<path class="st1" d="M202.65,266.41c-1.83,0-4.22,0-6.06,0"/>
		</g>
		<g>
			<path class="st1" d="M205.2,270.03c-2.01-0.27-4.62-0.63-6.62-0.9"/>
		</g>
		<g>
			<path class="st1" d="M210.43,277.03c-1.92-0.11-4.42-0.25-6.34-0.36"/>
		</g>
		<g>
			<path class="st1" d="M207.76,273.6c-1.94-0.18-4.46-0.41-6.4-0.58"/>
		</g>
		<g>
			<path class="st1" d="M213.34,281.14c-1.91-0.14-4.39-0.31-6.3-0.45"/>
		</g>
		<g>
			<path class="st1" d="M216.04,284.66c-1.94-0.14-4.46-0.31-6.4-0.45"/>
		</g>
		<g>
			<path class="st1" d="M218.53,288.16c-1.87-0.09-4.31-0.21-6.19-0.3"/>
		</g>
		<g>
			<path class="st1" d="M221.05,291.69c-1.91-0.18-4.41-0.42-6.32-0.6"/>
		</g>
		<g>
			<path class="st1" d="M223.97,295.21c-1.89,0-4.36,0-6.25,0"/>
		</g>
		<g>
			<path class="st1" d="M226.34,299.01c-1.76-0.03-4.05-0.06-5.81-0.09"/>
		</g>
		<g>
			<path class="st1" d="M229.61,302.99c-1.95-0.14-4.49-0.31-6.44-0.45"/>
		</g>
		<g>
			<path class="st1" d="M232.4,307.11c-2.02-0.15-4.65-0.35-6.67-0.5"/>
		</g>
		<g>
			<path class="st1" d="M235.12,310.6c-1.97-0.08-4.54-0.17-6.51-0.25"/>
		</g>
		<g>
			<path class="st1" d="M238.17,314.65c-1.97-0.1-4.55-0.23-6.52-0.34"/>
		</g>
		<g>
			<path class="st1" d="M240.11,317.3c-1.58-0.14-3.63-0.33-5.2-0.47"/>
		</g>
		<path class="st1" d="M261.25,84.11c2.06,4.32,3.68,6.42,6.13,6.42h2.49c2.91-0.21,4.43-2.61,5.36-5.75l1.3-6.03l-10.91-3.89
			c-0.73,3.51-2.01,6.57-4.03,5.81L261.25,84.11z"/>
		<path class="st1" d="M265.45,81.97l-0.03-0.01c-0.81-0.18-1.34-0.91-1.18-1.62l1.16-5.18c0.16-0.71,0.95-1.14,1.76-0.96l0.03,0.01
			c0.81,0.18,1.34,0.91,1.18,1.62l-1.16,5.18C267.05,81.72,266.27,82.15,265.45,81.97z"/>
		<path class="st1" d="M263.26,84.9l-0.03,0.01c-0.82,0.28-1.59-0.26-2.09-1.09l-0.67-2.43c-0.28-0.88,0.21-1.81,1.09-2.09
			l0.03-0.01c0.88-0.28,1.81,0.21,2.09,1.09l0.67,2.43C264.62,83.69,264.13,84.62,263.26,84.9z"/>
		<path class="st1" d="M268.39,82.82l-0.03-0.01c-0.81-0.18-1.34-0.91-1.18-1.62l1.35-6.01c0.16-0.71,0.95-1.14,1.76-0.96l0.03,0.01
			c0.81,0.18,1.34,0.91,1.18,1.62l-1.35,6.01C269.99,82.58,269.2,83,268.39,82.82z"/>
		<path class="st1" d="M271.36,83.49l-0.03-0.01c-0.81-0.18-1.34-0.91-1.18-1.62l1.2-5.37c0.16-0.71,0.95-1.14,1.76-0.95l0.03,0.01
			c0.81,0.18,1.34,0.91,1.18,1.62l-1.2,5.37C272.96,83.24,272.17,83.67,271.36,83.49z"/>
		<path class="st1" d="M274.25,83.26l-0.02-0.01c-0.67-0.15-1.1-0.74-0.97-1.32l0.99-4.4c0.13-0.58,0.78-0.93,1.44-0.78l0.02,0.01
			c0.67,0.15,1.1,0.74,0.97,1.32l-0.99,4.4C275.56,83.06,274.92,83.41,274.25,83.26z"/>
		<polygon class="st1" points="266.07,102.67 266.07,82.14 264.86,82.14 264.86,102.64 244.61,105.04 244.61,105.84 286.32,105.84 
			286.32,105.04 		"/>
	</g>
	<path class="st1" d="M264.24,82.85l-0.65-2.38c-0.1-0.31-0.28-0.57-0.52-0.76c0,0.01,0.01,0.02,0.02,0.04l0.65,2.38
		c0.27,0.86-0.21,1.77-1.06,2.04l-0.03,0.01c-0.55,0.17-0.98-0.09-1.39-0.43c0.29,0.83,1.04,1.42,1.89,1.15l0.03-0.01
		C264.03,84.62,264.51,83.71,264.24,82.85z"/>
	<path class="st1" d="M271.2,74.99c0,0.05,0,0.11-0.02,0.16l-1.32,5.87c-0.16,0.69-0.92,1.11-1.72,0.93l-0.03-0.01
		c-0.39-0.09-0.71-0.3-0.92-0.58c-0.05,0.64,0.44,1.25,1.17,1.42l0.03,0.01c0.79,0.18,1.56-0.24,1.72-0.93l1.32-5.87
		C271.51,75.63,271.42,75.28,271.2,74.99z"/>
	<path class="st1" d="M274,76.32c0,0.03,0,0.07-0.01,0.1l-1.16,5.16c-0.15,0.68-0.91,1.09-1.69,0.92l-0.03-0.01
		c-0.38-0.09-0.7-0.3-0.9-0.57c-0.08,0.65,0.41,1.29,1.15,1.45l0.03,0.01c0.78,0.18,1.54-0.24,1.69-0.92l1.16-5.16
		C274.32,76.95,274.22,76.6,274,76.32z"/>
	<path class="st1" d="M276.35,77.28c0,0.04,0,0.09-0.01,0.13l-0.94,4.21c-0.12,0.56-0.74,0.89-1.38,0.75l-0.02-0.01
		c-0.28-0.06-0.51-0.21-0.67-0.39c-0.04,0.51,0.35,1.01,0.94,1.14l0.02,0.01c0.64,0.14,1.26-0.19,1.38-0.75l0.94-4.21
		C276.68,77.84,276.57,77.52,276.35,77.28z"/>
	<path class="st1" d="M268.05,74.89c0,0.03,0,0.06-0.01,0.09l-1.15,5.12c-0.16,0.7-0.94,1.12-1.74,0.94l-0.03-0.01
		c-0.38-0.08-0.69-0.29-0.9-0.55c-0.1,0.67,0.41,1.34,1.18,1.51l0.03,0.01c0.8,0.18,1.58-0.24,1.74-0.94l1.15-5.12
		C268.4,75.57,268.29,75.19,268.05,74.89z"/>
</g>
<g>
	<g>
		<path class="st6" d="M154.08,203.43h5.41c-0.95-3.17-1.09-6.38-0.35-9.62l-5.05-2.14V203.43z"/>
		<path class="st7" d="M208.68,58.29c16.07-0.01,18.26,10.04,17.11,17.41c-0.51,3.28,0,7.17,0,7.17s13.67,48.38-17.2,32.01
			c-11.46,1.26-16.71,3.9-21.53-13.31c-1.2-4.3,2.19-6.83,3.57-15.26c0.44-2.69,0.76-6.41,0.38-8.59
			c-3.4-19.43,15.59-19.53,17.63-19.42C208.66,58.27,208.67,58.27,208.68,58.29z"/>
		<path class="st8" d="M227.25,107.81c0.26-0.47,0.39-1,0.59-1.5c0.24-0.61,0.58-1.18,0.96-1.72c-0.34,10.24-4.54,18.58-20.18,10.28
			c-10.43,1.15-15.72,3.44-20.22-9.16c0.64,0.74,1.12,1.61,1.66,2.42c0.7,1.05,1.6,2.07,2.82,2.4c-0.72-1.64-0.98-3.49-0.72-5.27
			c0.45,2.16,1.68,4.15,3.42,5.52c-0.71-0.83-0.44-2.06-0.49-3.15c-0.1-1.87-1.25-3.5-1.75-5.3c-0.45-1.58-1.1-2.9-1.04-4.54
			c0.72,1.77,3.27,2.63,3.99,4.4c-3.33-7.55-3.88-13.56-5.34-18.04c0.02-0.22,0.04-0.44,0.07-0.66c2.87-1.02,6.36-0.47,9.46,0.18
			c3.07,0.63,6.13,1.27,9.2,1.91c0.71,0.15,1.42,0.29,2.15,0.26c1.03-0.05,2.01-0.47,2.98-0.83c3.55-1.3,7.4-1.82,11.17-1.52
			c0.06,0.21,0.13,0.49,0.21,0.81c-2.68,13.95-6.09,14.84-6.59,19.8c1.02-0.95,3.28-3.55,4.1-4.68c-0.83,2.63-2.85,6.87-3.38,9.58
			c1.81-1.23,3.19-3.08,3.86-5.16c-0.42,2.08-0.85,4.21-0.6,6.32C224.99,109.69,226.53,109.11,227.25,107.81z"/>
		<path class="st9" d="M175.26,320.07c49.02,1.18,75.07-17.52,66.65-67.34l-62.16,2.45L175.26,320.07z"/>
		<path class="st10" d="M223.24,317.65c0.23,2.01,1.67,2.7,7,2.51c6.33-0.23,7.21-0.92,7.13-2.98c-0.09-0.98-0.34-2.28-0.36-4.02
			c-0.03-5.9-2.54-10.59-7.12-10.56c-4.63,0.03-6.24,3.88-6.49,10.12C223.33,314.83,223.04,316.48,223.24,317.65z"/>
		<path class="st11" d="M238.04,246.22l-1.13,18.31l-2.62,42.26c0.15,8.28-8.91,7.64-8.85,0.15l-1.28-18.92l-2.83-41.56
			L238.04,246.22z"/>
		<path class="st12" d="M238.04,246.22v17.4c-4.62,5.99-10.4,16.36-14.26,25.7l-2.44-42.86L238.04,246.22z"/>
		<path class="st13" d="M217.14,101.13v9.8c0,1.92-8.43,4.38-8.55,4.44c-0.12-0.06-8.55-2.52-8.55-4.44v-9.8
			c3.62,3.74,6.72,5.05,8.55,5.11C210.42,106.18,213.52,104.88,217.14,101.13z"/>
		<path class="st8" d="M217.74,67.31c1.41,2.47,5.62,6.79,6.85,3.07c0.54,0.78,0.92,2.13,1.41,3.33c-0.04,0.68-0.12,1.34-0.22,1.99
			c-0.12,0.74-0.18,1.52-0.2,2.26c-11.1-2.2-23.24,4.02-34.43,1.42c-0.01-0.62-0.07-1.18-0.15-1.68c-0.09-0.51-0.16-1.01-0.22-1.49
			c1.64-1.85,3.96-5.04,4.56-5.84c-2.25,7.07,5.81,4.95,8.81,2c-0.02,0.59-0.04,1.17-0.06,1.76c2.92-2.11,5.26-5,6.73-8.28
			c0.5,1.69,1.9,3.01,3.47,3.81c1.58,0.79,2.54,0.99,4.27,1.33C217.51,70.2,217.87,68.62,217.74,67.31z"/>
		<path class="st6" d="M208.59,106.24c1.83-0.06,4.93-1.37,8.55-5.11v3.26c-3.62,3.74-6.72,5.05-8.55,5.11
			c-1.83-0.06-4.93-1.37-8.55-5.11v-3.26C203.66,104.88,206.77,106.18,208.59,106.24z"/>
		<path class="st14" d="M225.42,79.62c-0.03-0.03-0.03-0.03-0.06-0.03c-0.4-0.06-0.79,0.12-1.19,0.4c-0.52,1.19-0.85,2.49-0.97,3.77
			c0.21-2.16,0.27-4.05,0.21-5.69c0.06-1.47,0.04-2.79-0.05-3.98c-2.62-0.54-6.96-1.66-11.01-3.72c-2.06,1.86-4,3.41-6.44,4.63
			c-1.61,0.8-4.17,1.47-4.17,1.47s0.55-0.61,0.77-1.18c-3.49,1.21-6.83,1.34-8.75,1.29c0,0.46,0.02,0.94,0.04,1.43
			c-0.09,1.73-0.03,3.77,0.24,6.11h-0.03c0-0.09-0.03-0.21-0.03-0.3c-0.12-1.31-0.46-2.62-0.97-3.83c-0.37-0.27-0.79-0.46-1.19-0.4
			c0,0-0.03,0-0.06,0.03c-1.22,0.24-1.83,2.43-1.37,4.9c0.03,0.03,0.03,0.06,0.03,0.09c0,0.03,0,0.06,0.03,0.09
			c0.03,0.24,0.09,0.49,0.18,0.73c0.06,0.21,0.15,0.43,0.21,0.64c0.03,0.06,0.03,0.12,0.06,0.15c0.03,0.09,0.09,0.18,0.12,0.27
			c0.55,1.19,1.34,2.01,2.1,2.1h0.34c0.4,3.53,1.7,6.24,2.98,8.06c1.22,1.76,2.43,3.22,3.59,4.44c0,0.03,0,0.03,0,0.03
			c3.62,3.74,6.72,5.05,8.55,5.11c1.83-0.06,4.93-1.37,8.55-5.11c0,0,0,0,0-0.03c1.19-1.22,2.37-2.68,3.62-4.44
			c1.28-1.83,2.56-4.53,2.95-8.06h0.33c0.76-0.09,1.52-0.88,2.07-2.07c0.06-0.09,0.12-0.18,0.15-0.3c0.03-0.03,0.03-0.09,0.06-0.15
			c0.09-0.21,0.15-0.43,0.24-0.64c0.06-0.24,0.12-0.49,0.15-0.73c0.03-0.03,0.03-0.06,0.03-0.09c0-0.03,0-0.06,0.03-0.09
			C227.24,82.06,226.63,79.87,225.42,79.62z"/>
		<path class="st15" d="M200.04,110.58l-0.79,0.34c5.09,13.26,14.51,23.09,30.91,24.98l0.82-4.2c0.54-2.56,2.72-4.5,5.4-4.75
			l23.65-1.16c3.14-0.15,5.72-2.45,6.12-5.45l0.25-1.87l3.85-28.37l-6.11-1.02l-7.05,24.49c-0.32,1.11-1.36,1.87-2.55,1.88
			l-15.25,0.07c-2.47-1.22-22.15-4.93-22.15-4.93"/>
		<path class="st15" d="M162.01,129.72"/>
		<path class="st15" d="M179.1,129.72"/>
		<g>
			<path class="st16" d="M179.11,320.69c-1.26,0-2.57-0.04-3.88-0.12l-0.46-0.03l-0.01-0.46c-0.02-0.95-0.06-2.21-0.11-3.77
				c-0.63-20.1-2.55-81.25,15.23-142.75c1.56-5.38,1.78-11.02,0.65-16.77l-3.26-17.1l-0.14-0.54l0.28-0.2
				c0.24-0.17,0.48-0.37,0.72-0.58c5.5-4.57,6.89-12.9,4.14-24.77l-0.1-0.42l7.35-2.93l0.18,0.47c5.63,14.68,15.89,22.98,30.5,24.66
				l0.54,0.06l-0.14,0.69l-1.67,8.79l-0.63,3.17l-1.29,6.81c-1.33,6.87-0.82,14.02,1.5,20.67c8.61,24.92,14.88,74.63,13.87,77.31
				l-0.08,0.21l-0.21,0.08c-7.58,2.89-11.68,10.83-14.98,18.98c-0.54,1.26-1,2.43-1.42,3.57c-0.56,1.46-1.11,2.94-1.67,4.44
				C216.93,299.16,208.89,320.69,179.11,320.69C179.11,320.69,179.12,320.69,179.11,320.69z"/>
			<path class="st17" d="M199.25,110.91c5.09,13.26,14.51,23.09,30.91,24.98l-0.03,0.15l-1.68,8.79l-0.63,3.16l-1.3,6.81
				c-1.36,7-0.82,14.21,1.52,20.93c8.66,25.07,14.82,74.45,13.87,76.97c-7.43,2.83-11.63,10.28-15.26,19.26
				c-0.51,1.19-0.98,2.37-1.42,3.59c-7.6,19.82-14.36,44.63-46.11,44.63c-1.24,0-2.53-0.04-3.85-0.12
				c-0.25-12.6-4.11-79.92,15.11-146.37c1.61-5.57,1.77-11.35,0.66-17.01l-3.26-17.1l-0.06-0.24c0.25-0.18,0.51-0.4,0.76-0.61
				c5.31-4.41,7.24-12.56,4.3-25.25L199.25,110.91 M199.82,109.61l-0.94,0.38l-6.48,2.59l-0.8,0.32l0.19,0.84
				c2.7,11.66,1.37,19.83-3.96,24.26c-0.26,0.22-0.49,0.41-0.7,0.57l-0.55,0.4l0.17,0.66l0.05,0.21l3.25,17.07
				c1.11,5.68,0.89,11.24-0.64,16.54c-17.81,61.57-15.88,122.79-15.25,142.9c0.05,1.55,0.09,2.81,0.11,3.76l0.02,0.92l0.92,0.05
				c1.33,0.08,2.64,0.12,3.91,0.12c30.12,0,38.23-21.7,45.38-40.85c0.56-1.49,1.11-2.97,1.67-4.42c0.42-1.16,0.88-2.32,1.41-3.56
				c3.26-8.06,7.3-15.9,14.7-18.72l0.42-0.16l0.16-0.42c1.23-3.27-5.68-53.94-13.86-77.65c-2.29-6.57-2.8-13.63-1.48-20.41l1.3-6.82
				l0.63-3.15l1.68-8.8l0.03-0.14l0.22-1.07l-1.09-0.12c-14.4-1.66-24.53-9.85-30.09-24.34L199.82,109.61L199.82,109.61z"/>
		</g>
		<path class="st9" d="M241.91,252.71c-7.43,2.83-11.63,10.28-15.26,19.26c-0.28,0.33-0.54,0.64-0.82,0.91
			c1.8-6.18,4.87-15.3,9.23-20.17c0.92-1,2.37-2.98,3-4.17c0.7-1.31,0.09-7.67,0-9.13c-0.38-6.57-0.32-9.1-0.95-14.97
			c-0.47-4.23-2.45-12.41-15.78,1.28c0.44-2.13,6.52-11.71,7.94-13.42c1.61-1.89,3.89-3.29,4.99-5.48c1.11-2.19-0.03-5.66-2.56-5.57
			c-1.52,0.06-2.65,1.34-3.57,2.53c-4.17,5.38-8.34,10.77-12.52,16.12c16.52-29.93,13.2-33.36,10.87-44.05
			c-0.25-0.97-0.57-1.98-1.26-2.71c-0.66-0.76-1.9-1.16-2.78-0.64c1.58-1.34,2.15-3.47,2.18-5.51c0.06-2.01-0.32-4.02-0.19-6.05
			c0.13-2.28,0.92-4.5,1.14-6.81c0.22-2.22-0.19-4.69-1.86-6.18c1.33,0.06,2.81-0.12,4.11,0.03l-1.3,6.81
			c-1.36,7-0.82,14.21,1.52,20.93C236.7,200.81,242.86,250.19,241.91,252.71z"/>
		<path class="st9" d="M227.82,148c-1.3-0.15-2.78,0.03-4.11-0.03c-0.66-0.03-1.33-0.12-1.96-0.24c-1.42-0.24-2.88-0.49-4.17-1.06
			c-1.3-0.58-2.47-1.52-2.97-2.8l0.09-0.03c3.76,1.95,8.31,3.16,12.29,1.67c0.51-0.18,0.98-0.43,1.45-0.67L227.82,148z"/>
		<path class="st9" d="M212.65,265.22c1.39-3.68,3.73-7.42,7.58-8.61c-2.84,4.29-3.1,9.74-5.15,14.45
			c-5.66,13.08-14.63,31.54,2.24,14.85c3.11-3.08,5.02-7.06,7.9-10.34c-7.9,20.6-14.89,46.58-49.97,44.51
			c-0.25-12.6-4.11-79.92,15.11-146.37c1.61-5.57,1.77-11.35,0.66-17.01l-3.26-17.1l-0.06-0.24c0.25-0.18,0.51-0.4,0.76-0.61
			c0.95,8.91,11.98,8.4,16.94,6.48c-9.48,3.92-13.15,10.07-12.89,17.43c0.06,2.37,0.33,3.32,1.62,5.36c1.07,1.7,3.88,6.37,9.05,8.52
			c-5.46,0.13-6.06-1.58-9.05-3.9c1.9,4.22,3.29,6.72,15.23,12.78c-13.42-1.43-16.38-9.32-16.78-8.27
			c-0.52,1.35-2.52,8.72-2.98,10.08c-0.48,1.42-0.92,2.86-1.33,4.3c-2.44,8.61-3.71,17.53-3.73,26.44c0,1.19,0.09,2.52,1.04,3.26
			c1.83,1.46,4.36-0.7,5.63-2.62c3.03-4.56,5.97-9.31,10.05-13.02c4.11-3.74,9.61-6.45,15.2-5.96
			c-12.2,5.63-20.42,16.95-26.93,28.39c-3.51,6.21-6.76,12.87-6.54,19.93c4.74-4.08,8.19-11.58,11.95-16.5
			c3.38-4.44,16.37-18.38,19.75-22.82c-2.69,8.24-13.57,22.68-19.36,29.28c-2.34,2.71-6.55,13.18-8.54,16.16
			c-2.17,3.26-4.18,4.51-6.07,10.08c17.43-7.79,14.42-22.06,30.62-31.56c-12.05,12.55-5,21.49-20.15,34.04
			c-2.06,1.71-8.18,9.39-8.1,12.89c4.9-3.22,5.37-1.84,10.27-5.09c2.88-1.89,4.92-3.85,7.07-6.47c3.6-4.35,5.47-7.71,6.98-13.07
			c1.52-5.35,6.07-14.91,11.03-17.74c-6.45,8.28-7.58,25.15-14.22,33.28c-3.44,4.2-6.83,6.06-11.69,8.68
			c-4.84,2.65-9.67,6.51-10.3,11.83c5.56-8.18,19.34-7.3,25.63-15.03C210.37,272.82,211.26,268.87,212.65,265.22z"/>
		<g>
			<path class="st16" d="M208.37,87.97c-4.92,0-9.8-0.89-14.49-2.65l-0.27-0.1l-0.14-0.89c-0.33-2.22-0.67-3.92-1.86-3.92
				c-0.1,0-0.22,0.01-0.33,0.04l-0.56,0.11l-0.25-3.33l0.51-0.02c5.9-0.28,11.74-0.42,17.38-0.42c5.79,0,11.6,0.15,17.26,0.44
				l0.47,0.02v2.9l-0.47,0.03c-1.53,0.09-1.71,2.71-1.71,4.68l0,0.36l-0.34,0.12C218.4,87.08,213.29,87.97,208.37,87.97z"/>
			<path class="st17" d="M208.36,77.28c5.78,0,11.51,0.15,17.23,0.44v1.95c-1.99,0.11-2.18,3.04-2.19,5.18
				c-5.05,1.72-10.07,2.62-15.04,2.62c-4.81,0-9.59-0.85-14.32-2.62c-0.33-2.06-0.56-4.94-2.44-4.94c-0.14,0-0.28,0.01-0.43,0.05
				l-0.17-2.25C196.88,77.42,202.65,77.28,208.36,77.28 M208.36,76.28L208.36,76.28c-5.64,0-11.5,0.14-17.4,0.42l-1.03,0.05
				l0.08,1.02l0.17,2.25l0.08,1.13l1.11-0.23c0.08-0.02,0.16-0.03,0.23-0.03c0.84,0,1.16,2.1,1.36,3.49
				c0.03,0.21,0.06,0.41,0.09,0.61l0.09,0.58l0.55,0.2c4.75,1.78,9.68,2.68,14.67,2.68c4.97,0,10.14-0.9,15.36-2.67l0.68-0.23
				l0-0.72c0-2.73,0.42-4.13,1.24-4.18l0.94-0.05v-0.95v-1.95v-0.95l-0.95-0.05C219.98,76.43,214.16,76.28,208.36,76.28
				L208.36,76.28z"/>
		</g>
		<g>
			<path class="st12" d="M218.22,77.43c1.65,0.36,3.34,0.56,5.03,0.6c0.8,0.01,1.63,0,2.35,0.35v-0.64
				C223.14,77.6,220.68,77.49,218.22,77.43z"/>
			<path class="st12" d="M218.02,78.54c-0.76,0.06-1.5,0.17-2.26,0.28c-0.96,0.14-1.93,0.28-2.9,0.42c0.87-0.06,1.76,0.14,2.65,0.23
				c2.41,0.25,4.93-0.41,7.24,0.31c-0.61,0.28-1.29,0.34-1.96,0.4c-1.56,0.13-3.11,0.26-4.67,0.39c0.68,0.12,1.35,0.44,2.04,0.37
				c1.5-0.14,2.3,0,3.28-0.23c2.42-0.21,1.79,0.56-0.51,0.62c-3.16,0.08-6.25,0.91-9.39,1.34c1.95,0.13,3.9,0.26,5.85,0.39
				c0.54,0.04,1.08,0.07,1.62,0.06c1.45-0.04,2.88-0.46,4.33-0.52c0.01,0.24-0.26,0.37-0.48,0.45c-2.66,0.96-5.39,1.7-8.17,2.22
				c1.75-0.07,3.5-0.59,5.25-0.66c0.45-0.02,0.99-0.09,1.44-0.15c0.76-0.12,0.44-0.1,1.2,0.06c-1.85,0.61-5.25,1.65-8,2.51
				c2.93-0.42,5.88-1.15,8.84-2.15c0.01-2.14,0.19-5.06,2.18-5.18v-1.3C223.09,78.68,220.54,78.34,218.02,78.54z"/>
			<path class="st12" d="M200.98,86.46c-0.5-0.17-0.95-0.46-1.41-0.71c-0.71-0.37-1.46-0.63-2.22-0.9
				c-1.04-0.36-2.07-0.72-3.12-1.09c1.2-0.72,2.88,0.21,4.09-0.49c-1.38-0.52-2.79-0.99-4.2-1.41c0.76-0.14,1.53,0.12,2.28,0.34
				c2.15,0.63,4.38,0.92,6.61,1.21c-3.27-1.31-6.59-2.52-9.93-3.63c1.76,0.01,3.51,0.23,5.22,0.66c0.34,0.08,0.69,0.17,1.04,0.21
				c0.39,0.04,0.79,0.01,1.18-0.01c1.03-0.07,2.06-0.14,3.09-0.21c-0.42-0.33-0.98-0.44-1.51-0.53c-3.2-0.55-6.41-1.03-9.63-1.47
				c1.77-0.1,3.52-0.45,5.2-1.01c-2.21,0.07-4.43,0.15-6.67,0.26l0.17,2.25c2.28-0.47,2.53,2.68,2.87,4.9
				c3.62,1.36,7.27,2.17,10.94,2.47c-0.45-0.18-0.9-0.38-1.36-0.49C202.76,86.63,201.83,86.74,200.98,86.46z"/>
		</g>
		<path class="st6" d="M263.07,83.71l-0.67-2.43c-0.1-0.32-0.29-0.58-0.53-0.78c0,0.01,0.01,0.03,0.02,0.04l0.67,2.43
			c0.28,0.88-0.21,1.81-1.09,2.09l-0.03,0.01c-0.56,0.18-1.14,0.04-1.56-0.31c0.29,0.85,1.21,1.32,2.07,1.05l0.03-0.01
			C262.86,85.52,263.35,84.59,263.07,83.71z"/>
		<path class="st6" d="M269.87,75.68c0,0.05-0.01,0.11-0.02,0.16l-1.35,6.01c-0.16,0.71-0.95,1.14-1.76,0.96l-0.03-0.01
			c-0.4-0.09-0.73-0.31-0.95-0.6c-0.05,0.65,0.45,1.28,1.2,1.45l0.03,0.01c0.81,0.18,1.6-0.25,1.76-0.95l1.35-6.01
			C270.19,76.34,270.09,75.98,269.87,75.68z"/>
		<path class="st6" d="M272.69,76.98c0,0.03,0,0.07-0.01,0.1l-1.2,5.37c-0.16,0.71-0.95,1.14-1.76,0.96l-0.03-0.01
			c-0.4-0.09-0.72-0.31-0.94-0.59c-0.09,0.67,0.42,1.34,1.2,1.51l0.03,0.01c0.81,0.18,1.6-0.25,1.76-0.95l1.2-5.37
			C273.02,77.65,272.92,77.28,272.69,76.98z"/>
		<path class="st6" d="M275.02,78.01c0,0.04,0,0.09-0.01,0.13l-0.99,4.4c-0.13,0.58-0.78,0.93-1.44,0.78l-0.02-0.01
			c-0.29-0.06-0.53-0.22-0.7-0.41c-0.04,0.54,0.37,1.05,0.98,1.19l0.02,0.01c0.67,0.15,1.31-0.2,1.44-0.78l0.99-4.4
			C275.37,78.6,275.25,78.26,275.02,78.01z"/>
		<path class="st6" d="M266.72,75.62c0,0.03,0,0.06-0.01,0.09l-1.16,5.18c-0.16,0.71-0.95,1.14-1.76,0.95l-0.03-0.01
			c-0.38-0.09-0.7-0.29-0.91-0.56c-0.1,0.68,0.41,1.35,1.19,1.53l0.03,0.01c0.81,0.18,1.6-0.25,1.76-0.96l1.16-5.18
			C267.07,76.3,266.96,75.92,266.72,75.62z"/>
		<g>
			<path class="st18" d="M232.38,148.08h23.93l-11.96-41.58L232.38,148.08z M256.91,149h-25.15c-0.14,0-0.28-0.07-0.37-0.18
				c-0.09-0.12-0.11-0.27-0.07-0.4l12.57-43.7c0.06-0.2,0.24-0.33,0.44-0.33c0.21,0,0.39,0.14,0.44,0.33l12.57,43.7
				c0.04,0.14,0.01,0.29-0.07,0.4C257.19,148.93,257.06,149,256.91,149z"/>
			<path class="st18" d="M231.76,149.17c2.74,3.07,7.35,5.09,12.57,5.09c5.22,0,9.83-2.02,12.57-5.09H231.76z"/>
			<rect x="230.92" y="147.9" class="st18" width="26.84" height="1.27"/>
			<rect x="243.88" y="104.83" class="st18" width="0.92" height="45.51"/>
		</g>
		<g>
			<path class="st18" d="M270.66,148.08h23.93l-11.96-41.58L270.66,148.08z M295.2,149h-25.15c-0.14,0-0.28-0.07-0.37-0.18
				c-0.09-0.12-0.11-0.27-0.07-0.4l12.57-43.7c0.06-0.2,0.24-0.33,0.44-0.33c0.21,0,0.39,0.14,0.44,0.33l12.57,43.7
				c0.04,0.14,0.01,0.29-0.07,0.4C295.48,148.93,295.34,149,295.2,149z"/>
			<path class="st18" d="M270.05,149.17c2.74,3.07,7.35,5.09,12.57,5.09c5.22,0,9.83-2.02,12.57-5.09H270.05z"/>
			<rect x="269.2" y="147.9" class="st18" width="26.84" height="1.27"/>
			<rect x="282.16" y="104.83" class="st18" width="0.92" height="45.51"/>
		</g>
		<rect x="169.87" y="320.19" class="st19" width="74.46" height="10.3"/>
		<rect x="159.5" y="330.49" class="st19" width="95.22" height="13.58"/>
		<g>
			<path class="st20" d="M160.04,202.62l77.2,105.31c1.56,2.12,2.44,4.65,2.54,7.27l0.18,4.86l-4.58-1.63
				c-2.47-0.88-4.61-2.48-6.17-4.6l-77.2-105.32L160.04,202.62z"/>
			<g>
				<polygon class="st16" points="138.68,186.55 143.01,183.37 159.7,204.12 153.53,208.65 				"/>
				<path class="st17" d="M142.83,184.75l15.44,19.18l-4.49,3.3l-13.73-20.44L142.83,184.75 M143.18,182l-1.54,1.13l-2.78,2.04
					l-1.55,1.14l1.07,1.59l13.73,20.44l1.16,1.73l1.68-1.23l4.49-3.3l1.68-1.24l-1.31-1.63l-15.44-19.18L143.18,182L143.18,182z"/>
			</g>
			<g>
				<path class="st16" d="M139.25,187.99c-0.93,0-1.7-0.35-2.17-0.99c-0.99-1.35-0.27-3.52,1.64-4.92c0.94-0.69,2.04-1.09,3.02-1.09
					c0.93,0,1.7,0.35,2.17,0.99c0.99,1.35,0.27,3.52-1.64,4.92C141.33,187.59,140.23,187.99,139.25,187.99z"/>
				<path class="st17" d="M141.74,181.98c0.59,0,1.08,0.19,1.37,0.58c0.65,0.89,0.01,2.47-1.43,3.53c-0.8,0.59-1.69,0.89-2.42,0.89
					c-0.59,0-1.08-0.19-1.37-0.58c-0.65-0.89-0.01-2.47,1.43-3.53C140.12,182.29,141,181.98,141.74,181.98 M141.74,179.98
					L141.74,179.98c-1.2,0-2.48,0.46-3.61,1.28c-2.41,1.77-3.21,4.49-1.86,6.32c0.66,0.9,1.72,1.4,2.98,1.4
					c1.2,0,2.48-0.46,3.61-1.28c2.41-1.77,3.21-4.49,1.86-6.32C144.06,180.48,143,179.98,141.74,179.98L141.74,179.98z"/>
			</g>
			<path class="st13" d="M160.04,202.62l77.2,105.31c1.56,2.12,2.44,4.65,2.54,7.27l0.18,4.86l-83.94-114.49L160.04,202.62z"/>
			<path class="st19" d="M171.12,197.08l-27.73,20.36l-1.53-2.08c8.59-8.81,17.76-15.81,27.73-20.36L171.12,197.08z"/>
		</g>
		<path class="st15" d="M192.77,113.5l-7.96,3.16c-2.37,1.1-5.02,3.19-6.38,5.38c-0.78,1.25-1.32,2.57-1.71,3.88l-23.88,64.26
			c-5.2,0.8-5.03,0.58-8.83,6.08l0.02,0.02c-0.19,0.24-0.32,0.53-0.35,0.86c-0.1,0.92,0.56,1.74,1.48,1.84
			c0.19,0.02,0.37,0,0.55-0.04c-0.21,0.25-0.34,0.55-0.38,0.89c-0.1,0.92,0.56,1.74,1.48,1.84c0.22,0.02,0.44,0,0.64-0.06
			c-0.28,0.26-0.47,0.62-0.52,1.03c-0.1,0.92,0.56,1.74,1.48,1.84c0.22,0.02,0.44,0,0.64-0.06c-0.2,0.24-0.33,0.54-0.37,0.88
			c-0.1,0.92,0.56,1.79,1.48,1.84c1.02,0.06,1.52-0.57,2.08-1.15c4.08-3.17,5.81-4.85,7.23-14.34l0,0l27.51-55.82l0.06,0.01
			l0.66,3.5C193.59,135.07,195.84,126.76,192.77,113.5z"/>
		<g>
			<g>
				<path class="st17" d="M160.73,211.74c0.46-2.11,0.92-4.22,1.38-6.33c0.08-0.38-0.5-0.54-0.58-0.16
					c-0.46,2.11-0.92,4.22-1.38,6.33C160.07,211.96,160.65,212.12,160.73,211.74L160.73,211.74z"/>
			</g>
		</g>
		<g>
			<g>
				<path class="st17" d="M163.02,214.71c0.39-2,0.78-4,1.16-6c0.07-0.38-0.51-0.54-0.58-0.16c-0.39,2-0.78,4-1.16,6
					C162.37,214.93,162.95,215.09,163.02,214.71L163.02,214.71z"/>
			</g>
		</g>
		<g>
			<g>
				<path class="st17" d="M165.36,217.71c0.39-2,0.78-4,1.16-6c0.07-0.38-0.51-0.54-0.58-0.16c-0.39,2-0.78,4-1.16,6
					C164.7,217.93,165.28,218.09,165.36,217.71L165.36,217.71z"/>
			</g>
		</g>
		<g>
			<g>
				<path class="st17" d="M167.59,220.71c0.39-2,0.78-4,1.16-6c0.07-0.38-0.51-0.54-0.58-0.16c-0.39,2-0.78,4-1.16,6
					C166.94,220.93,167.52,221.09,167.59,220.71L167.59,220.71z"/>
			</g>
		</g>
		<g>
			<g>
				<path class="st17" d="M169.67,223.39c0.39-2,0.78-4,1.16-6c0.07-0.38-0.51-0.54-0.58-0.16c-0.39,2-0.78,4-1.16,6
					C169.02,223.61,169.6,223.77,169.67,223.39L169.67,223.39z"/>
			</g>
		</g>
		<g>
			<g>
				<path class="st17" d="M172.01,227.01c0.39-2,0.78-4,1.16-6c0.07-0.38-0.51-0.54-0.58-0.16c-0.39,2-0.78,4-1.16,6
					C171.36,227.23,171.93,227.39,172.01,227.01L172.01,227.01z"/>
			</g>
		</g>
		<g>
			<g>
				<path class="st17" d="M174.62,230.46c0.39-2,0.78-4,1.16-6c0.07-0.38-0.51-0.54-0.58-0.16c-0.39,2-0.78,4-1.16,6
					C173.97,230.68,174.54,230.84,174.62,230.46L174.62,230.46z"/>
			</g>
		</g>
		<g>
			<g>
				<path class="st17" d="M176.79,233.65c0.4-2.06,0.8-4.12,1.2-6.18c0.07-0.38-0.51-0.54-0.58-0.16c-0.4,2.06-0.8,4.12-1.2,6.18
					C176.14,233.86,176.71,234.02,176.79,233.65L176.79,233.65z"/>
			</g>
		</g>
		<g>
			<g>
				<path class="st17" d="M178.91,236.54c0.41-2.1,0.88-4.19,1.3-6.3c0.07-0.38-0.5-0.54-0.58-0.16c-0.41,2.1-0.88,4.19-1.3,6.3
					C178.26,236.76,178.84,236.92,178.91,236.54L178.91,236.54z"/>
			</g>
		</g>
		<g>
			<g>
				<path class="st17" d="M181.04,239.62c0.41-2.07,0.91-4.11,1.32-6.18c0.07-0.38-0.5-0.54-0.58-0.16
					c-0.41,2.07-0.91,4.11-1.32,6.18C180.39,239.83,180.97,240,181.04,239.62L181.04,239.62z"/>
			</g>
		</g>
		<g>
			<g>
				<path class="st17" d="M183.35,242.44c0.39-2,0.78-4,1.16-6c0.07-0.38-0.51-0.54-0.58-0.16c-0.39,2-0.78,4-1.16,6
					C182.7,242.65,183.27,242.82,183.35,242.44L183.35,242.44z"/>
			</g>
		</g>
		<g>
			<g>
				<path class="st17" d="M185.64,245.72c0.41-2.1,0.81-4.19,1.22-6.29c0.07-0.38-0.51-0.54-0.58-0.16
					c-0.41,2.1-0.81,4.19-1.22,6.29C184.99,245.94,185.57,246.1,185.64,245.72L185.64,245.72z"/>
			</g>
		</g>
		<g>
			<g>
				<path class="st17" d="M188.05,248.84c0.39-2,0.78-4,1.16-6c0.07-0.38-0.51-0.54-0.58-0.16c-0.39,2-0.78,4-1.16,6
					C187.39,249.06,187.97,249.22,188.05,248.84L188.05,248.84z"/>
			</g>
		</g>
		<g>
			<g>
				<path class="st17" d="M190.25,251.84c0.39-2,0.78-4,1.16-6c0.07-0.38-0.51-0.54-0.58-0.16c-0.39,2-0.78,4-1.16,6
					C189.6,252.06,190.18,252.22,190.25,251.84L190.25,251.84z"/>
			</g>
		</g>
		<g>
			<g>
				<path class="st17" d="M192.48,254.84c0.39-2,0.78-4,1.16-6c0.07-0.38-0.51-0.54-0.58-0.16c-0.39,2-0.78,4-1.16,6
					C191.82,255.05,192.4,255.22,192.48,254.84L192.48,254.84z"/>
			</g>
		</g>
		<g>
			<g>
				<path class="st17" d="M194.7,257.84c0.39-2,0.78-4,1.16-6c0.07-0.38-0.51-0.54-0.58-0.16c-0.39,2-0.78,4-1.16,6
					C194.05,258.05,194.62,258.22,194.7,257.84L194.7,257.84z"/>
			</g>
		</g>
		<g>
			<g>
				<path class="st17" d="M196.9,260.83c0.39-2,0.78-4,1.16-6c0.07-0.38-0.51-0.54-0.58-0.16c-0.39,2-0.78,4-1.16,6
					C196.25,261.05,196.83,261.21,196.9,260.83L196.9,260.83z"/>
			</g>
		</g>
		<g>
			<g>
				<path class="st17" d="M199.11,263.83c0.39-2,0.78-4,1.16-6c0.07-0.38-0.51-0.54-0.58-0.16c-0.39,2-0.78,4-1.16,6
					C198.46,264.05,199.04,264.21,199.11,263.83L199.11,263.83z"/>
			</g>
		</g>
		<g>
			<g>
				<path class="st17" d="M201.56,267.28c0.39-2,0.78-4,1.16-6c0.07-0.38-0.51-0.54-0.58-0.16c-0.39,2-0.78,4-1.16,6
					C200.91,267.49,201.48,267.66,201.56,267.28L201.56,267.28z"/>
			</g>
		</g>
		<g>
			<g>
				<path class="st17" d="M204.18,270.66c0.39-2,0.78-4,1.16-6c0.07-0.38-0.51-0.54-0.58-0.16c-0.39,2-0.78,4-1.16,6
					C203.53,270.88,204.1,271.04,204.18,270.66L204.18,270.66z"/>
			</g>
		</g>
		<g>
			<g>
				<path class="st17" d="M209.44,277.81c0.39-2,0.78-4,1.16-6c0.07-0.38-0.51-0.54-0.58-0.16c-0.39,2-0.78,4-1.16,6
					C208.79,278.03,209.37,278.19,209.44,277.81L209.44,277.81z"/>
			</g>
		</g>
		<g>
			<g>
				<path class="st17" d="M206.8,274.47c0.4-2.07,0.8-4.15,1.21-6.22c0.07-0.38-0.51-0.54-0.58-0.16c-0.4,2.07-0.8,4.15-1.21,6.22
					C206.15,274.68,206.73,274.85,206.8,274.47L206.8,274.47z"/>
			</g>
		</g>
		<g>
			<g>
				<path class="st17" d="M212.32,281.88c0.39-2,0.78-4,1.16-6c0.07-0.38-0.51-0.54-0.58-0.16c-0.39,2-0.78,4-1.16,6
					C211.67,282.1,212.24,282.26,212.32,281.88L212.32,281.88z"/>
			</g>
		</g>
		<g>
			<g>
				<path class="st17" d="M214.95,285.38c0.39-2,0.78-4,1.16-6c0.07-0.38-0.51-0.54-0.58-0.16c-0.39,2-0.78,4-1.16,6
					C214.3,285.6,214.87,285.76,214.95,285.38L214.95,285.38z"/>
			</g>
		</g>
		<g>
			<g>
				<path class="st17" d="M217.44,288.84c0.39-2,0.78-4,1.16-6c0.07-0.38-0.51-0.54-0.58-0.16c-0.39,2-0.78,4-1.16,6
					C216.78,289.05,217.36,289.22,217.44,288.84L217.44,288.84z"/>
			</g>
		</g>
		<g>
			<g>
				<path class="st17" d="M219.96,292.4c0.39-2,0.78-4,1.16-6c0.07-0.38-0.51-0.54-0.58-0.16c-0.39,2-0.78,4-1.16,6
					C219.31,292.62,219.89,292.78,219.96,292.4L219.96,292.4z"/>
			</g>
		</g>
		<g>
			<g>
				<path class="st17" d="M222.88,296.08c0.39-2,0.78-4,1.16-6c0.07-0.38-0.51-0.54-0.58-0.16c-0.39,2-0.78,4-1.16,6
					C222.23,296.3,222.8,296.46,222.88,296.08L222.88,296.08z"/>
			</g>
		</g>
		<g>
			<g>
				<path class="st17" d="M225.48,299.88c0.39-2,0.78-4,1.16-6c0.07-0.38-0.51-0.54-0.58-0.16c-0.39,2-0.78,4-1.16,6
					C224.83,300.1,225.41,300.26,225.48,299.88L225.48,299.88z"/>
			</g>
		</g>
		<g>
			<g>
				<path class="st17" d="M228.52,303.86c0.39-2,0.78-4,1.16-6c0.07-0.38-0.51-0.54-0.58-0.16c-0.39,2-0.78,4-1.16,6
					C227.87,304.07,228.45,304.24,228.52,303.86L228.52,303.86z"/>
			</g>
		</g>
		<g>
			<g>
				<path class="st17" d="M231.31,307.97c0.39-2.09,0.78-4.18,1.16-6.28c0.07-0.38-0.51-0.54-0.58-0.16
					c-0.39,2.09-0.78,4.18-1.16,6.28C230.66,308.19,231.24,308.35,231.31,307.97L231.31,307.97z"/>
			</g>
		</g>
		<g>
			<g>
				<path class="st17" d="M234.03,311.47c0.39-2.09,0.78-4.18,1.16-6.28c0.07-0.38-0.51-0.54-0.58-0.16
					c-0.39,2.09-0.78,4.18-1.16,6.28C233.38,311.69,233.96,311.85,234.03,311.47L234.03,311.47z"/>
			</g>
		</g>
		<g>
			<g>
				<path class="st17" d="M237.08,315.52c0.38-2.01,0.79-4.01,1.16-6.02c0.07-0.38-0.51-0.54-0.58-0.16
					c-0.38,2.01-0.79,4.01-1.16,6.02C236.43,315.74,237.01,315.9,237.08,315.52L237.08,315.52z"/>
			</g>
		</g>
		<g>
			<g>
				<path class="st17" d="M239.02,318.16c0.26-1.46,0.41-2.95,0.67-4.41c0.07-0.38-0.51-0.54-0.58-0.16
					c-0.26,1.46-0.41,2.95-0.67,4.41C238.38,318.38,238.95,318.54,239.02,318.16L239.02,318.16z"/>
			</g>
		</g>
		<g>
			<g>
				<path class="st17" d="M160.2,211.37c-2.17-0.3-4.34-0.6-6.51-0.9c-0.38-0.05-0.54,0.53-0.16,0.58c2.17,0.3,4.34,0.6,6.51,0.9
					C160.42,212,160.58,211.43,160.2,211.37L160.2,211.37z"/>
			</g>
		</g>
		<g>
			<g>
				<path class="st17" d="M162.62,214.43c-2.18-0.3-4.35-0.6-6.53-0.9c-0.38-0.05-0.54,0.53-0.16,0.58c2.18,0.3,4.35,0.6,6.53,0.9
					C162.84,215.06,163.01,214.49,162.62,214.43L162.62,214.43z"/>
			</g>
		</g>
		<g>
			<g>
				<path class="st17" d="M165.03,217.62c-2.28-0.3-4.55-0.6-6.83-0.9c-0.38-0.05-0.38,0.55,0,0.6c2.28,0.3,4.55,0.6,6.83,0.9
					C165.41,218.27,165.41,217.67,165.03,217.62L165.03,217.62z"/>
			</g>
		</g>
		<g>
			<g>
				<path class="st17" d="M167.24,220.64c-2.2-0.27-4.4-0.54-6.6-0.81c-0.38-0.05-0.38,0.55,0,0.6c2.2,0.27,4.4,0.54,6.6,0.81
					C167.62,221.28,167.62,220.68,167.24,220.64L167.24,220.64z"/>
			</g>
		</g>
		<g>
			<g>
				<path class="st17" d="M169.38,223.13c-2.19-0.15-4.38-0.3-6.57-0.45c-0.39-0.03-0.38,0.57,0,0.6c2.19,0.15,4.38,0.3,6.57,0.45
					C169.77,223.76,169.77,223.16,169.38,223.13L169.38,223.13z"/>
			</g>
		</g>
		<g>
			<g>
				<path class="st17" d="M171.72,226.64c-2.2-0.18-4.4-0.36-6.61-0.55c-0.38-0.03-0.38,0.57,0,0.6c2.2,0.18,4.4,0.36,6.61,0.55
					C172.1,227.27,172.1,226.67,171.72,226.64L171.72,226.64z"/>
			</g>
		</g>
		<g>
			<g>
				<path class="st17" d="M174.41,230.32c-2.2-0.3-4.4-0.6-6.6-0.9c-0.38-0.05-0.54,0.53-0.16,0.58c2.2,0.3,4.4,0.6,6.6,0.9
					C174.63,230.95,174.79,230.38,174.41,230.32L174.41,230.32z"/>
			</g>
		</g>
		<g>
			<g>
				<path class="st17" d="M176.5,233.39c-2.09-0.21-4.18-0.43-6.27-0.64c-0.38-0.04-0.38,0.56,0,0.6c2.09,0.21,4.18,0.43,6.27,0.64
					C176.88,234.03,176.88,233.42,176.5,233.39L176.5,233.39z"/>
			</g>
		</g>
		<g>
			<g>
				<path class="st17" d="M178.62,236.16c-2.16-0.25-4.32-0.5-6.47-0.75c-0.38-0.04-0.38,0.56,0,0.6c2.16,0.25,4.32,0.5,6.47,0.75
					C179.01,236.81,179,236.21,178.62,236.16L178.62,236.16z"/>
			</g>
		</g>
		<g>
			<g>
				<path class="st17" d="M180.84,239.25c-2.09-0.29-4.2-0.34-6.28-0.63c-0.38-0.05-0.54,0.53-0.16,0.58
					c2.09,0.29,4.2,0.34,6.28,0.63C181.05,239.88,181.22,239.3,180.84,239.25L180.84,239.25z"/>
			</g>
		</g>
		<g>
			<g>
				<path class="st17" d="M183.06,242.21c-2.1-0.16-4.21-0.14-6.31-0.3c-0.39-0.03-0.38,0.57,0,0.6c2.1,0.15,4.21,0.13,6.31,0.3
					C183.44,242.84,183.44,242.24,183.06,242.21L183.06,242.21z"/>
			</g>
		</g>
		<g>
			<g>
				<path class="st17" d="M185.35,245.34c-2.11-0.1-4.2-0.28-6.31-0.45c-0.38-0.03-0.38,0.57,0,0.6c2.1,0.17,4.2,0.35,6.31,0.45
					C185.74,245.96,185.74,245.36,185.35,245.34L185.35,245.34z"/>
			</g>
		</g>
		<g>
			<g>
				<path class="st17" d="M187.76,248.67c-2.07-0.15-4.14-0.3-6.21-0.45c-0.39-0.03-0.38,0.57,0,0.6c2.07,0.15,4.14,0.3,6.21,0.45
					C188.14,249.29,188.14,248.69,187.76,248.67L187.76,248.67z"/>
			</g>
		</g>
		<g>
			<g>
				<path class="st17" d="M189.96,251.46c-2.14-0.12-4.28-0.24-6.41-0.35c-0.39-0.02-0.38,0.58,0,0.6c2.14,0.12,4.28,0.24,6.41,0.35
					C190.35,252.08,190.35,251.48,189.96,251.46L189.96,251.46z"/>
			</g>
		</g>
		<g>
			<g>
				<path class="st17" d="M192.19,254.46c-2.16-0.1-4.32-0.2-6.49-0.31c-0.39-0.02-0.39,0.58,0,0.6c2.16,0.1,4.32,0.2,6.49,0.31
					C192.57,255.08,192.57,254.48,192.19,254.46L192.19,254.46z"/>
			</g>
		</g>
		<g>
			<g>
				<path class="st17" d="M194.41,257.46c-2.1-0.09-4.2-0.18-6.3-0.27c-0.39-0.02-0.39,0.58,0,0.6c2.1,0.09,4.2,0.18,6.3,0.27
					C194.79,258.07,194.79,257.47,194.41,257.46L194.41,257.46z"/>
			</g>
		</g>
		<g>
			<g>
				<path class="st17" d="M196.62,260.45c-2.1-0.08-4.19-0.15-6.29-0.23c-0.39-0.01-0.39,0.59,0,0.6c2.1,0.08,4.19,0.15,6.29,0.23
					C197,261.07,197,260.47,196.62,260.45L196.62,260.45z"/>
			</g>
		</g>
		<g>
			<g>
				<path class="st17" d="M198.82,263.71c-2.04-0.09-4.09-0.17-6.13-0.26c-0.39-0.02-0.39,0.58,0,0.6c2.04,0.09,4.09,0.17,6.13,0.26
					C199.21,264.33,199.21,263.73,198.82,263.71L198.82,263.71z"/>
			</g>
		</g>
		<g>
			<g>
				<path class="st17" d="M201.27,266.9c-2.02,0-4.04,0-6.06,0c-0.39,0-0.39,0.6,0,0.6c2.02,0,4.04,0,6.06,0
					C201.65,267.5,201.65,266.9,201.27,266.9L201.27,266.9z"/>
			</g>
		</g>
		<g>
			<g>
				<path class="st17" d="M203.9,270.53c-2.21-0.3-4.42-0.6-6.62-0.9c-0.38-0.05-0.54,0.53-0.16,0.58c2.21,0.3,4.42,0.6,6.62,0.9
					C204.12,271.16,204.28,270.58,203.9,270.53L203.9,270.53z"/>
			</g>
		</g>
		<g>
			<g>
				<path class="st17" d="M209.05,277.51c-2.11-0.12-4.23-0.24-6.34-0.36c-0.39-0.02-0.38,0.58,0,0.6c2.11,0.12,4.23,0.24,6.34,0.36
					C209.44,278.14,209.44,277.54,209.05,277.51L209.05,277.51z"/>
			</g>
		</g>
		<g>
			<g>
				<path class="st17" d="M206.38,274.09c-2.13-0.19-4.26-0.39-6.4-0.58c-0.38-0.04-0.38,0.57,0,0.6c2.13,0.19,4.26,0.39,6.4,0.58
					C206.77,274.72,206.76,274.12,206.38,274.09L206.38,274.09z"/>
			</g>
		</g>
		<g>
			<g>
				<path class="st17" d="M211.96,281.63c-2.1-0.15-4.2-0.3-6.3-0.45c-0.39-0.03-0.38,0.57,0,0.6c2.1,0.15,4.2,0.3,6.3,0.45
					C212.34,282.26,212.34,281.66,211.96,281.63L211.96,281.63z"/>
			</g>
		</g>
		<g>
			<g>
				<path class="st17" d="M214.66,285.15c-2.13-0.15-4.27-0.3-6.4-0.45c-0.39-0.03-0.38,0.57,0,0.6c2.13,0.15,4.27,0.3,6.4,0.45
					C215.04,285.77,215.04,285.17,214.66,285.15L214.66,285.15z"/>
			</g>
		</g>
		<g>
			<g>
				<path class="st17" d="M217.15,288.65c-2.06-0.1-4.12-0.2-6.19-0.3c-0.39-0.02-0.38,0.58,0,0.6c2.06,0.1,4.12,0.2,6.19,0.3
					C217.53,289.27,217.53,288.67,217.15,288.65L217.15,288.65z"/>
			</g>
		</g>
		<g>
			<g>
				<path class="st17" d="M219.67,292.17c-2.11-0.2-4.21-0.4-6.32-0.6c-0.38-0.04-0.38,0.56,0,0.6c2.11,0.2,4.21,0.4,6.32,0.6
					C220.06,292.81,220.05,292.21,219.67,292.17L219.67,292.17z"/>
			</g>
		</g>
		<g>
			<g>
				<path class="st17" d="M222.59,295.7c-2.08,0-4.17,0-6.25,0c-0.39,0-0.39,0.6,0,0.6c2.08,0,4.17,0,6.25,0
					C222.97,296.3,222.97,295.7,222.59,295.7L222.59,295.7z"/>
			</g>
		</g>
		<g>
			<g>
				<path class="st17" d="M224.96,299.5c-1.94-0.03-3.88-0.06-5.81-0.09c-0.39-0.01-0.39,0.59,0,0.6c1.94,0.03,3.88,0.06,5.81,0.09
					C225.35,300.1,225.35,299.5,224.96,299.5L224.96,299.5z"/>
			</g>
		</g>
		<g>
			<g>
				<path class="st17" d="M228.23,303.48c-2.15-0.15-4.29-0.3-6.44-0.45c-0.39-0.03-0.38,0.57,0,0.6c2.15,0.15,4.29,0.3,6.44,0.45
					C228.62,304.1,228.62,303.5,228.23,303.48L228.23,303.48z"/>
			</g>
		</g>
		<g>
			<g>
				<path class="st17" d="M231.02,307.59c-2.08-0.16-4.17-0.34-6.25-0.5c-0.39-0.03-0.38,0.57,0,0.6c2.08,0.16,4.17,0.34,6.25,0.5
					C231.4,308.22,231.4,307.62,231.02,307.59L231.02,307.59z"/>
			</g>
		</g>
		<g>
			<g>
				<path class="st17" d="M233.74,311.09c-2.06-0.08-4.12-0.16-6.19-0.24c-0.39-0.01-0.39,0.59,0,0.6c2.06,0.08,4.12,0.16,6.19,0.24
					C234.13,311.7,234.12,311.1,233.74,311.09L233.74,311.09z"/>
			</g>
		</g>
		<g>
			<g>
				<path class="st17" d="M236.79,315.14c-2.05-0.11-4.1-0.23-6.14-0.34c-0.39-0.02-0.38,0.58,0,0.6c2.05,0.11,4.1,0.23,6.14,0.34
					C237.18,315.76,237.17,315.16,236.79,315.14L236.79,315.14z"/>
			</g>
		</g>
		<g>
			<g>
				<path class="st17" d="M238.73,317.78c-1.55-0.15-3.11-0.33-4.66-0.47c-0.38-0.04-0.38,0.56,0,0.6c1.55,0.15,3.11,0.33,4.66,0.47
					C239.12,318.42,239.11,317.82,238.73,317.78L238.73,317.78z"/>
			</g>
		</g>
		<path class="st21" d="M259.88,84.89c2.06,4.32,3.68,6.42,6.13,6.42h2.49c2.91-0.21,4.43-2.61,5.36-5.75l1.3-6.03l-10.91-3.89
			c-0.73,3.51-2.01,6.57-4.03,5.81L259.88,84.89z"/>
		<path class="st21" d="M264.07,82.75l-0.03-0.01c-0.81-0.18-1.34-0.91-1.18-1.62l1.16-5.18c0.16-0.71,0.95-1.14,1.76-0.96
			l0.03,0.01c0.81,0.18,1.34,0.91,1.18,1.62l-1.16,5.18C265.67,82.51,264.89,82.93,264.07,82.75z"/>
		<path class="st21" d="M261.88,85.69l-0.03,0.01c-0.82,0.28-1.59-0.26-2.09-1.09l-0.67-2.43c-0.28-0.88,0.21-1.81,1.09-2.09
			l0.03-0.01c0.88-0.28,1.81,0.21,2.09,1.09l0.67,2.43C263.24,84.47,262.76,85.41,261.88,85.69z"/>
		<path class="st21" d="M267.01,83.61l-0.03-0.01c-0.81-0.18-1.34-0.91-1.18-1.62l1.35-6.01c0.16-0.71,0.95-1.14,1.76-0.96
			l0.03,0.01c0.81,0.18,1.34,0.91,1.18,1.62l-1.35,6.01C268.61,83.36,267.82,83.79,267.01,83.61z"/>
		<path class="st21" d="M269.98,84.27l-0.03-0.01c-0.81-0.18-1.34-0.91-1.18-1.62l1.2-5.37c0.16-0.71,0.95-1.14,1.76-0.95l0.03,0.01
			c0.81,0.18,1.34,0.91,1.18,1.62l-1.2,5.37C271.58,84.03,270.79,84.46,269.98,84.27z"/>
		<path class="st21" d="M272.87,84.05l-0.02-0.01c-0.67-0.15-1.1-0.74-0.97-1.32l0.99-4.4c0.13-0.58,0.78-0.93,1.44-0.78l0.02,0.01
			c0.67,0.15,1.1,0.74,0.97,1.32l-0.99,4.4C274.18,83.85,273.54,84.2,272.87,84.05z"/>
		<g>
			<polygon class="st16" points="242.73,107.13 242.73,105.38 262.98,102.98 262.98,82.43 265.19,82.43 265.19,103.02 
				285.44,105.38 285.44,107.13 			"/>
			<path class="st17" d="M264.69,82.93v20.53l20.25,2.37v0.8h-41.71v-0.8l20.25-2.4v-20.5H264.69 M265.69,81.93h-1h-1.21h-1v1v19.61
				l-19.37,2.3l-0.88,0.1v0.89v0.8v1h1h41.71h1v-1v-0.8v-0.89l-0.88-0.1l-19.37-2.26V82.93V81.93L265.69,81.93z"/>
		</g>
	</g>
	<path class="st6" d="M262.86,83.64l-0.65-2.38c-0.1-0.31-0.28-0.57-0.52-0.76c0,0.01,0.01,0.02,0.02,0.04l0.65,2.38
		c0.27,0.86-0.21,1.77-1.06,2.04l-0.03,0.01c-0.55,0.17-0.98-0.09-1.39-0.43c0.29,0.83,1.04,1.42,1.89,1.15l0.03-0.01
		C262.65,85.41,263.13,84.5,262.86,83.64z"/>
	<path class="st6" d="M269.82,75.78c0,0.05,0,0.11-0.02,0.16l-1.32,5.87c-0.16,0.69-0.92,1.11-1.72,0.93l-0.03-0.01
		c-0.39-0.09-0.71-0.3-0.92-0.58c-0.05,0.64,0.44,1.25,1.17,1.42l0.03,0.01c0.79,0.18,1.56-0.24,1.72-0.93l1.32-5.87
		C270.13,76.42,270.04,76.06,269.82,75.78z"/>
	<path class="st6" d="M272.62,77.1c0,0.03,0,0.07-0.01,0.1l-1.16,5.16c-0.15,0.68-0.91,1.09-1.69,0.92l-0.03-0.01
		c-0.38-0.09-0.7-0.3-0.9-0.57c-0.08,0.65,0.41,1.29,1.15,1.45l0.03,0.01c0.78,0.18,1.54-0.24,1.69-0.92l1.16-5.16
		C272.94,77.74,272.84,77.39,272.62,77.1z"/>
	<path class="st6" d="M274.97,78.06c0,0.04,0,0.09-0.01,0.13l-0.94,4.21c-0.12,0.56-0.74,0.89-1.38,0.75l-0.02-0.01
		c-0.28-0.06-0.51-0.21-0.67-0.39c-0.04,0.51,0.35,1.01,0.94,1.14l0.02,0.01c0.64,0.14,1.26-0.19,1.38-0.75l0.94-4.21
		C275.3,78.62,275.19,78.31,274.97,78.06z"/>
	<path class="st6" d="M266.67,75.68c0,0.03,0,0.06-0.01,0.09l-1.15,5.12c-0.16,0.7-0.94,1.12-1.74,0.94l-0.03-0.01
		c-0.38-0.08-0.69-0.29-0.9-0.55c-0.1,0.67,0.41,1.34,1.18,1.51l0.03,0.01c0.8,0.18,1.58-0.24,1.74-0.94l1.15-5.12
		C267.02,76.35,266.91,75.98,266.67,75.68z"/>
</g>
</svg>
