<?xml version="1.0" encoding="utf-8"?>
<!-- Generator: Adobe Illustrator 25.0.0, SVG Export Plug-In . SVG Version: 6.00 Build 0)  -->
<svg version="1.1" id="Capa_1" xmlns="http://www.w3.org/2000/svg" xmlns:xlink="http://www.w3.org/1999/xlink" x="0px" y="0px"
	 viewBox="0 0 425.2 425.2" style="enable-background:new 0 0 425.2 425.2;" xml:space="preserve">
<style type="text/css">
	.st0{opacity:0.26;fill:#020203;}
	.st1{fill:#FFFFFF;}
	.st2{fill:#E20E17;stroke:#090A0A;stroke-miterlimit:10;}
	.st3{fill:#AD7B17;stroke:#090A0A;stroke-miterlimit:10;}
	.st4{fill:#FFFEFB;stroke:#010202;}
	.st5{fill:#010202;}
	.st6{fill:#060707;}
	.st7{fill:#020304;}
	.st8{fill:#090A0A;}
	.st9{fill:#FFFFFF;stroke:#FFFFFF;stroke-width:2;}
</style>
<path class="st0" d="M195.64,171.92"/>
<path class="st0" d="M195.64,207.46"/>
<path class="st0" d="M234.65,79.87H89.59c-7.72,0-13.98,6.26-13.98,13.98v134.58c0,7.72,6.26,13.98,13.98,13.98h145.06
	c7.72,0,13.98-6.26,13.98-13.98V93.86C248.63,86.13,242.37,79.87,234.65,79.87z M237.54,216.2c0,7.72-6.26,13.98-13.98,13.98H101.24
	c-7.72,0-13.98-6.26-13.98-13.98V105.04c0-7.72,6.26-13.98,13.98-13.98h122.32c7.72,0,13.98,6.26,13.98,13.98V216.2z"/>
<path class="st0" d="M354.68,186.85H209.62c-7.72,0-13.98,6.26-13.98,13.98v134.58c0,7.72,6.26,13.98,13.98,13.98h145.06
	c7.72,0,13.98-6.26,13.98-13.98V200.83C368.66,193.11,362.4,186.85,354.68,186.85z M357.57,323.17c0,7.72-6.26,13.98-13.98,13.98
	H221.27c-7.72,0-13.98-6.26-13.98-13.98V212.01c0-7.72,6.26-13.98,13.98-13.98h122.32c7.72,0,13.98,6.26,13.98,13.98V323.17z"/>
<path class="st1" d="M189.28,167.86"/>
<path class="st1" d="M189.28,203.39"/>
<path class="st2" d="M228.29,75.81H83.23c-7.72,0-13.98,6.26-13.98,13.98v134.58c0,7.72,6.26,13.98,13.98,13.98h145.06
	c7.72,0,13.98-6.26,13.98-13.98V89.79C242.27,82.07,236.02,75.81,228.29,75.81z M231.19,212.13c0,7.72-6.26,13.98-13.98,13.98H94.88
	c-7.72,0-13.98-6.26-13.98-13.98V100.97c0-7.72,6.26-13.98,13.98-13.98h122.32c7.72,0,13.98,6.26,13.98,13.98V212.13z"/>
<path class="st3" d="M348.32,182.78H203.26c-7.72,0-13.98,6.26-13.98,13.98v134.58c0,7.72,6.26,13.98,13.98,13.98h145.06
	c7.72,0,13.98-6.26,13.98-13.98V196.77C362.31,189.04,356.05,182.78,348.32,182.78z M351.22,319.11c0,7.72-6.26,13.98-13.98,13.98
	H214.91c-7.72,0-13.98-6.26-13.98-13.98V207.94c0-7.72,6.26-13.98,13.98-13.98h122.32c7.72,0,13.98,6.26,13.98,13.98V319.11z"/>
<g>
	<path class="st0" d="M338.29,104.43h-52.11c-2.77,0-5.02,2.01-5.02,4.48v43.16c0,2.48,2.25,4.48,5.02,4.48h52.11
		c2.77,0,5.02-2.01,5.02-4.48v-43.16C343.31,106.43,341.07,104.43,338.29,104.43z M339.33,148.14c0,2.48-2.25,4.48-5.02,4.48h-43.94
		c-2.77,0-5.02-2.01-5.02-4.48V112.5c0-2.48,2.25-4.48,5.02-4.48h43.94c2.77,0,5.02,2.01,5.02,4.48V148.14z"/>
	<path class="st4" d="M332.93,101.68h-52.11c-2.77,0-5.02,2.01-5.02,4.48v43.16c0,2.48,2.25,4.48,5.02,4.48h52.11
		c2.77,0,5.02-2.01,5.02-4.48v-43.16C337.95,103.69,335.7,101.68,332.93,101.68z M333.97,145.4c0,2.48-2.25,4.48-5.02,4.48H285
		c-2.77,0-5.02-2.01-5.02-4.48v-35.65c0-2.48,2.25-4.48,5.02-4.48h43.94c2.77,0,5.02,2.01,5.02,4.48V145.4z"/>
	<g>
		<g>
			<path class="st5" d="M276.3,112.82c3.53-3.53,7.07-7.07,10.6-10.6c0.55-0.55-0.3-1.4-0.85-0.85c-3.53,3.53-7.07,7.07-10.6,10.6
				C274.91,112.52,275.75,113.37,276.3,112.82L276.3,112.82z"/>
		</g>
	</g>
	<g>
		<g>
			<path class="st6" d="M276.29,123.49c6.81-7.05,13.62-14.1,20.43-21.15c0.54-0.56-0.31-1.41-0.85-0.85
				c-6.81,7.05-13.62,14.1-20.43,21.15C274.91,123.2,275.76,124.05,276.29,123.49L276.29,123.49z"/>
		</g>
	</g>
	<g>
		<g>
			<path class="st5" d="M276.36,132.24c9.81-9.81,19.63-19.63,29.44-29.44c0.55-0.55-0.3-1.4-0.85-0.85
				c-9.81,9.81-19.63,19.63-29.44,29.44C274.97,131.93,275.82,132.78,276.36,132.24L276.36,132.24z"/>
		</g>
	</g>
	<g>
		<g>
			<path class="st7" d="M276.29,141.82c12.95-13.08,25.91-26.16,38.86-39.23c0.54-0.55-0.3-1.4-0.85-0.85
				c-12.95,13.08-25.91,26.16-38.86,39.23C274.9,141.52,275.75,142.37,276.29,141.82L276.29,141.82z"/>
		</g>
	</g>
	<g>
		<g>
			<path class="st5" d="M276.62,150.85c15.93-16.06,31.86-32.12,47.78-48.18c0.54-0.55-0.3-1.4-0.85-0.85
				c-15.93,16.06-31.86,32.12-47.78,48.18C275.23,150.55,276.08,151.4,276.62,150.85L276.62,150.85z"/>
		</g>
	</g>
	<g>
		<g>
			<path class="st8" d="M281.92,154.1c17.21-17.13,34.41-34.25,51.62-51.38c0.55-0.55-0.3-1.39-0.85-0.85
				c-17.21,17.13-34.41,34.25-51.62,51.38C280.52,153.8,281.37,154.65,281.92,154.1L281.92,154.1z"/>
		</g>
	</g>
	<g>
		<g>
			<path class="st5" d="M293.98,154.01c14.64-14.64,29.28-29.28,43.92-43.92c0.55-0.55-0.3-1.4-0.85-0.85
				c-14.64,14.64-29.28,29.28-43.92,43.92C292.58,153.71,293.43,154.56,293.98,154.01L293.98,154.01z"/>
		</g>
	</g>
	<g>
		<g>
			<path class="st5" d="M306.49,154.1c10.59-10.59,21.18-21.18,31.77-31.77c0.55-0.55-0.3-1.4-0.85-0.85
				c-10.59,10.59-21.18,21.18-31.77,31.77C305.09,153.8,305.94,154.65,306.49,154.1L306.49,154.1z"/>
		</g>
	</g>
	<g>
		<g>
			<path class="st5" d="M316.65,154.01c7.14-7.13,14.38-14.16,21.52-21.29c0.55-0.55-0.3-1.4-0.85-0.85
				c-7.14,7.13-14.38,14.16-21.52,21.29C315.25,153.71,316.1,154.56,316.65,154.01L316.65,154.01z"/>
		</g>
	</g>
	<g>
		<g>
			<path class="st5" d="M328.5,154.01c3.23-3.22,6.53-6.38,9.76-9.6c0.55-0.55-0.3-1.39-0.85-0.85c-3.23,3.22-6.53,6.38-9.76,9.6
				C327.1,153.71,327.95,154.56,328.5,154.01L328.5,154.01z"/>
		</g>
	</g>
	<path class="st9" d="M328.77,106.38h-43.42c-2.31,0-4.19,1.65-4.19,3.68v35.39c0,2.03,1.87,3.68,4.19,3.68h43.42
		c2.31,0,4.19-1.65,4.19-3.68v-35.39C332.95,108.02,331.08,106.38,328.77,106.38z"/>
</g>
<g>
	<path class="st0" d="M145.53,268.64H93.41c-2.77,0-5.02,2.01-5.02,4.48v43.16c0,2.48,2.25,4.48,5.02,4.48h52.11
		c2.77,0,5.02-2.01,5.02-4.48v-43.16C150.55,270.65,148.3,268.64,145.53,268.64z M146.57,312.36c0,2.48-2.25,4.48-5.02,4.48H97.6
		c-2.77,0-5.02-2.01-5.02-4.48v-35.65c0-2.48,2.25-4.48,5.02-4.48h43.94c2.77,0,5.02,2.01,5.02,4.48V312.36z"/>
	<path class="st4" d="M140.16,265.9H88.05c-2.77,0-5.02,2.01-5.02,4.48v43.16c0,2.48,2.25,4.48,5.02,4.48h52.11
		c2.77,0,5.02-2.01,5.02-4.48v-43.16C145.18,267.91,142.94,265.9,140.16,265.9z M141.2,309.61c0,2.48-2.25,4.48-5.02,4.48H92.23
		c-2.77,0-5.02-2.01-5.02-4.48v-35.65c0-2.48,2.25-4.48,5.02-4.48h43.94c2.77,0,5.02,2.01,5.02,4.48V309.61z"/>
	<g>
		<g>
			<path class="st5" d="M83.54,277.04c3.53-3.53,7.07-7.07,10.6-10.6c0.55-0.55-0.3-1.4-0.85-0.85c-3.53,3.53-7.07,7.07-10.6,10.6
				C82.14,276.74,82.99,277.58,83.54,277.04L83.54,277.04z"/>
		</g>
	</g>
	<g>
		<g>
			<path class="st6" d="M83.53,287.71c6.81-7.05,13.62-14.1,20.43-21.15c0.54-0.56-0.31-1.41-0.85-0.85
				c-6.81,7.05-13.62,14.1-20.43,21.15C82.14,287.41,82.99,288.26,83.53,287.71L83.53,287.71z"/>
		</g>
	</g>
	<g>
		<g>
			<path class="st5" d="M83.6,296.45c9.81-9.81,19.63-19.63,29.44-29.44c0.55-0.55-0.3-1.4-0.85-0.85
				c-9.81,9.81-19.63,19.63-29.44,29.44C82.2,296.15,83.05,297,83.6,296.45L83.6,296.45z"/>
		</g>
	</g>
	<g>
		<g>
			<path class="st7" d="M83.53,306.03c12.95-13.08,25.91-26.16,38.86-39.23c0.54-0.55-0.3-1.4-0.85-0.85
				c-12.95,13.08-25.91,26.16-38.86,39.23C82.14,305.74,82.98,306.58,83.53,306.03L83.53,306.03z"/>
		</g>
	</g>
	<g>
		<g>
			<path class="st5" d="M83.86,315.07c15.93-16.06,31.86-32.12,47.78-48.18c0.54-0.55-0.3-1.4-0.85-0.85
				c-15.93,16.06-31.86,32.12-47.78,48.18C82.46,314.77,83.31,315.62,83.86,315.07L83.86,315.07z"/>
		</g>
	</g>
	<g>
		<g>
			<path class="st8" d="M89.15,318.32c17.21-17.13,34.41-34.25,51.62-51.38c0.55-0.55-0.3-1.39-0.85-0.85
				c-17.21,17.13-34.41,34.25-51.62,51.38C87.76,318.01,88.6,318.86,89.15,318.32L89.15,318.32z"/>
		</g>
	</g>
	<g>
		<g>
			<path class="st5" d="M101.21,318.23c14.64-14.64,29.28-29.28,43.92-43.92c0.55-0.55-0.3-1.4-0.85-0.85
				c-14.64,14.64-29.28,29.28-43.92,43.92C99.82,317.93,100.66,318.77,101.21,318.23L101.21,318.23z"/>
		</g>
	</g>
	<g>
		<g>
			<path class="st5" d="M113.72,318.32c10.59-10.59,21.18-21.18,31.77-31.77c0.55-0.55-0.3-1.4-0.85-0.85
				c-10.59,10.59-21.18,21.18-31.77,31.77C112.33,318.02,113.17,318.86,113.72,318.32L113.72,318.32z"/>
		</g>
	</g>
	<g>
		<g>
			<path class="st5" d="M123.88,318.23c7.14-7.13,14.38-14.16,21.52-21.29c0.55-0.55-0.3-1.4-0.85-0.85
				c-7.14,7.13-14.38,14.16-21.52,21.29C122.48,317.93,123.33,318.77,123.88,318.23L123.88,318.23z"/>
		</g>
	</g>
	<g>
		<g>
			<path class="st5" d="M135.73,318.23c3.23-3.22,6.53-6.38,9.76-9.6c0.55-0.55-0.3-1.39-0.85-0.85c-3.23,3.22-6.53,6.38-9.76,9.6
				C134.34,317.93,135.18,318.77,135.73,318.23L135.73,318.23z"/>
		</g>
	</g>
	<path class="st9" d="M136,270.59H92.58c-2.31,0-4.19,1.65-4.19,3.68v35.39c0,2.03,1.87,3.68,4.19,3.68H136
		c2.31,0,4.19-1.65,4.19-3.68v-35.39C140.19,272.24,138.31,270.59,136,270.59z"/>
</g>
</svg>
