<?xml version="1.0" encoding="utf-8"?>
<!-- Generator: Adobe Illustrator 25.0.0, SVG Export Plug-In . SVG Version: 6.00 Build 0)  -->
<svg version="1.1" id="Capa_1" xmlns="http://www.w3.org/2000/svg" xmlns:xlink="http://www.w3.org/1999/xlink" x="0px" y="0px"
	 viewBox="0 0 425.2 425.2" style="enable-background:new 0 0 425.2 425.2;" xml:space="preserve">
<style type="text/css">
	.st0{fill:#FFFFFF;}
	.st1{fill:#020203;}
	.st2{fill:#ADD3F2;}
	.st3{opacity:0.1294;}
	.st4{fill:#E20E17;}
</style>
<g>
	<g>
		<path class="st0" d="M117.41,151.99c-12.26,34.27-24.55,68.6-32.84,104.57c6.31,2.13,12.92,3.4,19.58,3.76
			c2.52-8.82,5.04-17.64,7.56-26.46c0,0-0.37-0.28-0.85-0.37c5.03,0.97,9.59,3.71,13.43,7.11c3.84,3.4,7.03,7.46,10.56,12.14
			c-0.37,4.99,3.29,9.76,7.99,11.47c4.7,1.71,10.11,0.67,14.49-2.28c-0.44,2.19-0.44,4.46-0.01,6.65c0.19,0.95,0.46,1.9,0.9,2.76
			c0.94,1.81,2.6,3.16,4.41,4.1c3.07,1.59,6.68,2.09,10.38,1.46c-0.38,4.16,2.76,8.12,6.68,9.56c3.92,1.45,8.37,0.76,12.46-0.77
			c0.63,1.44,1.31,2.91,2.47,3.96c1.31,1.19,3.09,1.71,4.85,1.91c4.2,0.49,8.57-0.7,12.5-3.06c4.31,2.35,9.77,2.44,14.15,0.23
			c1.15-0.58,2.24-1.32,3.12-2.26c1.77-1.91,2.58-4.55,2.73-7.15c0.15-2.6-0.29-5.19-0.46-7.85c2.17,2.52,4.45,5.02,7.28,6.77
			c2.83,1.74,6.32,2.67,9.53,1.8c2.67-0.72,4.92-2.63,6.4-4.97c1.47-2.34,2.22-5.08,2.43-8.21c1.08,1.77,2.26,3.47,3.53,5.09
			c1.2,1.53,2.5,3,4.11,4.09c1.61,1.09,3.56,1.76,5.49,1.54c2.98-0.34,5.4-2.76,6.59-5.52c1.19-2.76,1.38-5.83,1.55-8.82
			c0.1-1.74,0.2-3.47,0.13-5.25c1.57,2.96,3.15,5.94,5.24,8.57c2.09,2.62,4.74,4.89,7.9,6.02c0.78,0.28,1.59,0.48,2.39,0.69
			c1.3,0.33,2.79,0.61,3.89-0.15c0.88-0.61,1.24-1.74,1.36-2.81s0.07-2.16,0.68-3.24c12.01-4.52,23.83-9.54,35.28-14.95
			c1.15,4.21,2.43,8.38,4.13,12.41c8.57-1.99,16.88-5.05,24.57-9.02c6.78-2.59,13.46-5.48,19.52-9.29
			c-0.98-33.94-6.75-68.32-22.27-98.51c-0.98-1.9-2-3.79-3.56-5.4c-17.03,5.93-33.6,13.15-49.54,21.58
			c0.45,0.86,0.89,1.73,0.87,2.69c-16.51,1.17-32.66-4.4-48.26-9.92c-4.95-1.75-9.97-3.52-15.21-3.88c-4.65-0.32-9.3,0.5-14.5,0.95
			c-5.52-3.36-11.7-5.49-17.93-7.22c-3.76-1.05-7.61-1.96-11.51-1.92c-3.58,0.04-7.1,0.9-10.54,1.9
			c-18.49,5.41-35.78,15.38-54.98,17.17c0.15-1.29,0.3-2.58,0.46-3.87c0.08-0.69,0.14-1.48-0.24-2.03
			C130.06,155.23,123.74,152.69,117.41,151.99z"/>
	</g>
	<g>
		<path class="st1" d="M374.61,245.45c-0.06,0-0.12-0.01-0.18-0.03l-16.92-6.37c-0.27-0.1-0.41-0.4-0.3-0.67
			c0.1-0.27,0.4-0.41,0.67-0.3l16.92,6.37c0.27,0.1,0.41,0.4,0.3,0.67C375.02,245.32,374.82,245.45,374.61,245.45z"/>
	</g>
	<g>
		<path class="st1" d="M380.33,239.1c-0.06,0-0.11-0.01-0.17-0.03c-9.31-3.17-18.54-6.92-27.43-11.14
			c-0.26-0.12-0.37-0.43-0.25-0.69c0.12-0.26,0.44-0.37,0.69-0.25c8.85,4.2,18.04,7.93,27.32,11.09c0.27,0.09,0.42,0.39,0.33,0.66
			C380.75,238.97,380.55,239.1,380.33,239.1z"/>
	</g>
	<g>
		<path class="st1" d="M381.77,229.12c-0.05,0-0.11-0.01-0.16-0.03c-10.35-3.39-20.69-7.25-30.72-11.48
			c-0.27-0.11-0.39-0.42-0.28-0.68c0.11-0.27,0.42-0.38,0.68-0.28c10,4.22,20.31,8.07,30.64,11.45c0.27,0.09,0.42,0.38,0.33,0.66
			C382.19,228.99,381.99,229.12,381.77,229.12z"/>
	</g>
	<g>
		<path class="st1" d="M381.77,219.54c-0.06,0-0.12-0.01-0.18-0.03c-12.06-4.53-21.4-8.42-34.26-13.85
			c-0.27-0.11-0.39-0.42-0.28-0.68c0.11-0.27,0.42-0.39,0.68-0.28c12.85,5.42,22.17,9.31,34.22,13.83c0.27,0.1,0.41,0.4,0.3,0.67
			C382.18,219.42,381.98,219.54,381.77,219.54z"/>
	</g>
	<g>
		<path class="st1" d="M378.78,208.72c-0.07,0-0.13-0.01-0.2-0.04l-34.55-14.09c-0.27-0.11-0.39-0.41-0.29-0.68
			c0.11-0.27,0.41-0.39,0.68-0.29l34.55,14.09c0.27,0.11,0.39,0.41,0.29,0.68C379.18,208.6,378.98,208.72,378.78,208.72z"/>
	</g>
	<g>
		<path class="st1" d="M377.66,198.38c-0.07,0-0.14-0.01-0.21-0.04l-37.53-16.62c-0.26-0.12-0.38-0.42-0.27-0.69
			c0.12-0.26,0.43-0.38,0.69-0.27l37.53,16.62c0.26,0.12,0.38,0.42,0.27,0.69C378.05,198.26,377.86,198.38,377.66,198.38z"/>
	</g>
	<g>
		<path class="st1" d="M374,185.37c-0.07,0-0.14-0.01-0.21-0.05l-37.87-17.02c-0.26-0.12-0.38-0.43-0.26-0.69
			c0.12-0.26,0.43-0.38,0.69-0.26l37.87,17.02c0.26,0.12,0.38,0.43,0.26,0.69C374.39,185.26,374.2,185.37,374,185.37z"/>
	</g>
	<g>
		<path class="st1" d="M365.49,168.35c-0.06,0-0.12-0.01-0.19-0.03c-9.4-3.62-19-7.11-28.52-10.36c-0.27-0.09-0.42-0.39-0.32-0.66
			c0.09-0.27,0.39-0.42,0.66-0.32c9.53,3.26,19.14,6.75,28.56,10.37c0.27,0.1,0.4,0.4,0.3,0.67
			C365.89,168.22,365.7,168.35,365.49,168.35z"/>
	</g>
	<g>
		<path class="st1" d="M364.73,156.38c-0.07,0-0.14-0.01-0.2-0.04l-13.51-5.64c-0.27-0.11-0.39-0.41-0.28-0.68
			c0.11-0.27,0.42-0.39,0.68-0.28l13.52,5.64c0.27,0.11,0.39,0.41,0.28,0.68C365.13,156.26,364.94,156.38,364.73,156.38z"/>
	</g>
	<g>
		<path class="st2" d="M78.2,139.37c13.36,4.49,26.86,8.56,39.74,12.41c-2.11,8.91-7.53,16.62-11.18,25.02
			c-1.93,4.45-3.36,9.11-4.78,13.75c-6.63,21.77-12.98,43.64-19.06,65.54c-11.91-4.08-21.16-6.17-33.93-8.44
			C60.76,211.07,71.37,175.92,78.2,139.37z"/>
	</g>
	<g class="st3">
		<path class="st1" d="M330.48,247.61c-2.09,0.62-4.12,1.37-6.12,2.2c-0.46-0.01-0.91,0.02-1.36,0.11
			c-1.01,0.18-1.96,0.58-2.91,0.97c-1.06,0.36-2.06,0.7-3.08,1.14c-0.4,0.15-1.63,0.62-2.11,0.74c-0.15,0.04-0.26,0.08-0.36,0.12
			c-0.3,0.1-0.61,0.2-0.92,0.27c-0.18,0-0.37,0.01-0.55,0c-0.2-0.04-0.41-0.09-0.61-0.15c0,0-0.01,0-0.01-0.01
			c-0.44-0.4-0.83-0.85-1.21-1.31c-0.5-0.64,0.06,0.08,0.25,0.33c-0.33-0.45-0.69-0.88-1.06-1.29c-0.11-0.13-0.2-0.24-0.28-0.33
			c-0.35-0.48-0.66-0.99-0.98-1.49c-1.33-2.01-2.52-4.11-3.63-6.25c-2.34-4.54-4.49-9.17-6.99-13.63c-1.45-3.03-2.68-6.18-4.49-9.03
			c-5.2-7.94-10.25-14.16-18.03-21.11c-4.91-4.97-10.57-9.24-16.63-12.68c-4.11-2.28-8.42-4.53-13.19-4.87
			c-3.34-0.76-4.15,4.19-0.71,4.42c3.13,0.16,6.48,1.58,10.08,3.65c-0.33,0.81-0.26,1.79,0.56,2.64c3.33,2.89,7.16,5.11,10.63,7.83
			c-0.16-0.11,1.77,1.52,2.16,1.93c0.4,0.39,0.8,0.8,1.18,1.21c-0.31,0.3-0.52,0.7-0.5,1.18c0.23,1.44,1.84,3.13,2.57,4.48
			c3.81,5.81,8.29,11.2,11.53,17.36c4.29,8.44,7.39,16.86,8.83,28.17c0.74,3.56,1.16,10.05,0,11.91c-0.1,0.11-0.2,0.22-0.32,0.32
			c-0.09,0.06-0.17,0.1-0.23,0.14c-0.15,0.05-0.3,0.1-0.44,0.16c-0.07,0.02-0.15,0.05-0.22,0.07c-0.03,0-0.04,0.01-0.07,0.01
			c-0.32,0.01-0.68-0.01-0.91-0.02c-0.12-0.02-0.23-0.04-0.35-0.06c-1.29-0.33-0.59-0.04-2.53-1.08c-2.99-1.69-5.57,2.73-2.64,4.52
			c7.38,5.31,12.55,3.42,14.02-3.77c0.73-4.34,0.24-8.79-0.52-13.11c0.22,0.65,0.44,1.31,0.65,1.96c0.42,2.57,0.78,4.99,1.12,7.16
			c-0.05,0.06-0.11,0.12-0.16,0.19c-0.84,1.33-0.22,2.97,0.95,3.75c0.52,0.83,1.64,1.22,2.6,0.97c0.84-0.25,1.29-0.76,1.52-1.39
			c8.06-3.17,16.07-6.58,23.48-11.09c1.75-1.08,1.75-1.19,3.2-1.79c0.75-0.31,1.66-0.75,2.11-1.43c0.36-0.25,0.69-0.55,0.96-0.95
			C336.12,247.84,332.73,246.39,330.48,247.61z"/>
	</g>
	<g class="st3">
		<path class="st1" d="M382.07,239.28c-0.43,0-0.83,0.11-1.22,0.28c-1.87,0.56-3.56,1.75-5.4,2.43c-3.27,1.58-4.54,1.88-8.91,3.98
			c-7.53,4.01-20.04,7.93-26.77,10.75c-4.42,1.34-2.64,7.89,1.87,6.78c7.05-2.28,13.72-5.58,20.52-8.49
			c3.59-1.66,10.42-4.11,16.08-6.9c2.64-1.39,5.94-3.02,6.27-3.83C386.16,242.39,384.54,239.21,382.07,239.28z"/>
	</g>
	<g>
		<g class="st3">
			<polygon class="st1" points="112.84,234.03 112.84,234.03 112.84,234.03 			"/>
		</g>
		<g class="st3">
			<path class="st1" d="M132.55,166.71c-2.86,10.36-7.91,18-11.62,29.4c-2.25,6.65-3.95,13.46-5.24,20.36
				c-0.81,3.05-1.43,6.15-2.07,9.24c-0.47,2.73-1.28,5.54-0.78,8.32c0.7,2.71,3.7,4.01,6.12,3.13c1.54,1.62,3.17,3.15,4.82,4.67
				c0-0.07,0-0.14,0-0.21c-0.12-3.05-0.08-6.1,0.1-9.15c-0.65-2.14-0.88-3.54-1.02-5.29c0.63-3.37,1.43-6.71,1.83-10.12
				c1.61-10.98,4.73-21.66,8.28-32.15c1.07-3.13,1.9-6.35,3.27-9.37c0.96-2.72,2.55-5.5,2.55-8.42
				C138.49,163.74,133.38,163.4,132.55,166.71z"/>
		</g>
		<g class="st3">
			<path class="st1" d="M135.79,250.64c-0.17,0.66-0.81,1.18-1.51,1.13c0.55,0.3,1.15,0.44,1.81,0.26c1.01-0.26,1.67-1.27,1.61-2.28
				C137.06,250.06,136.43,250.36,135.79,250.64z"/>
		</g>
		<g class="st3">
			<path class="st1" d="M112.84,234.03c-0.06-0.41-0.11-0.82-0.17-1.23C112.68,233.24,112.74,233.64,112.84,234.03z"/>
		</g>
	</g>
	<g class="st3">
		<path class="st1" d="M154.76,259.05c-1.21,0.82-2.85,0.57-6.01,0.52c-2.08-0.2-4.78-0.04-7.11-0.79
			c-1.54-0.35-2.98-1.54-4.59-1.34c-3.01,0.27-3.3,4.8-0.38,5.53c2.12,0.83,4.25,1.55,6.48,2.03c1.87,0.44,3.79,0.86,5.7,0.4
			c2.36-0.49,4.62-1.49,6.72-2.65c0.85-0.55,2.02-1,2.34-2.04C158.36,258.81,156.12,257.84,154.76,259.05z"/>
	</g>
	<g class="st3">
		<path class="st1" d="M186.74,263.15c-1.05,0.35-1.27,0.92-2.91,1.79c-3.29,1.78-4.7,2.13-9.09,2.98
			c-4.17,1.07-3.81,0.84-8.42,1.15c-1.44,0.05-2.89-0.02-4.32-0.19c-0.94-0.16-1.88-0.53-2.82-0.34c-3.79,0.37-4.14,5.96-0.47,6.93
			c9.32,2.71,17,0,23.61-4.01c1.99-1.19,3.98-2.45,5.67-4.05c0.93-1.04,1.16-0.85,1.37-2.28
			C189.38,263.81,188.01,262.79,186.74,263.15z"/>
	</g>
	<g class="st3">
		<path class="st1" d="M225.89,282.36c-1.95,0.28-1.47,0.52-2.5,0.84c-0.82,0.22-0.93,0.6-3.87,1.3c-2.01,0.35-1.95,0.34-2.47,0.39
			c0.38-0.5,0.56-1.18,0.42-1.79c-0.09-1.27-1.31-2.24-2.55-2.25c-1.54,0.09-2.7,1.36-4.09,1.91c-2.92,1.29-2.21,1.07-6.26,2.44
			c-3.66,1.03-5.56,0.93-6.96,1.02c-1.34-0.04-2.64-0.91-3.86-1.06c2.45-0.95,4.79-2.26,7.02-3.64c2.55-1.55,4.82-3.48,6.91-5.6
			c0.46-0.4,0.75-1,0.75-1.62c0.01-0.76-0.42-1.44-1.05-1.83c-0.8-0.48-1.92-0.34-2.58,0.33c0.14-0.11,0.5-0.38,0.28-0.24
			c-1.05,0.65-2.09,1.29-3.15,1.92c-6.09,3.92-14.12,6.21-19.35,7.01c-1.24,0.14-2.48,0.29-3.73,0.16c-0.1-0.01-0.16-0.02-0.21-0.02
			c-0.05-0.01-0.09-0.01-0.14-0.02c-0.94-0.09-1.87-0.56-2.81-0.44c-2.25,0.2-2.47,3.59-0.28,4.14c1.97,0.69,3.97,1.36,6.05,1.55
			c2.2,0.24,4.42-0.08,6.6-0.33c1.18-0.1,2.34-0.32,3.47-0.63c-1.06,1.16-1.02,3.31,0.56,4.15c5.68,2.87,11.79,2.27,17.45-0.29
			c1.03-0.41,2.03-0.91,2.99-1.47c0.03,1.72,1.37,3.42,3.29,3.36c3.54-0.45,7.35-0.65,10.35-2.79c0.88-0.68,2.05-1.26,2.44-2.37
			C229.53,284.63,227.93,282.31,225.89,282.36z"/>
	</g>
	<g class="st3">
		<path class="st1" d="M254.5,269.17c-2.18,1.11-1.65,1.32-3.06,2.2c-2.1,1.46-1.81,1.29-4.85,2.07c-2.49,0.42-0.99,0.34-3.13,0.38
			c-0.25-0.01-0.5-0.03-0.75-0.05c-0.27-0.05-0.62-0.12-0.87-0.18c-1.81-0.29-3.72-1.63-5.49-0.56c-2.34,1.26-1.84,5.06,0.74,5.68
			c2.37,0.7,4.82,1.39,7.32,1.23c2.98-0.21,5.9-1.31,8.39-2.94c1.2-0.85,2.33-1.79,3.43-2.76c0.79-0.65,1.59-1.45,1.55-2.55
			C257.83,270,256.1,268.72,254.5,269.17z"/>
	</g>
	<g class="st3">
		<path class="st1" d="M279.09,260.56c0.01-1.31-0.87-2.58-2.17-2.91c-0.07-0.02-0.14-0.02-0.21-0.03
			c-0.01-2.45,0.05-4.94-0.56-7.32c-0.91-3.73-2.95-7.02-4.63-10.43c-1.55-3.61-3.56-7.07-6.15-10.01c-1.1-0.96-2.96-0.02-2.92,1.43
			c0.1,1.24,1.23,2.12,1.8,3.17c3.19,4.65,4.27,8.13,5.79,13.7c1.86,5.85,2.19,8.69,1.64,14.73c-0.01,0.07-0.01,0.13-0.02,0.18
			c-0.05,0.27-0.1,0.55-0.16,0.82c-0.02,0.14-0.08,0.35-0.16,0.59c-0.31,0.5-0.63,0.99-0.97,1.47c-0.43,0.51-1.29,1.53-1.78,1.98
			c-0.11,0.07-0.22,0.13-0.32,0.19c-0.96,0.09-1.68,0.05-4.25-0.78c-0.73-0.27-0.88-0.35-0.07-0.01c-1.3-0.45-2.47-1.35-3.82-1.58
			c-3.04-0.55-4.52,3.83-1.84,5.32c0.95,0.48,1.99,0.95,2.9,1.35c0.19,0.99,0.74,1.91,1.7,2.45c0.22,0.13,0.46,0.22,0.69,0.32
			c0.08,1.21,0.81,2.37,2.35,2.83c1.3,0.36,2.65,0.7,3.99,0.41c0.46-0.08,1.38-0.48,1.52-0.55c1.34-0.58,2.74-1.38,3.32-2.75
			c0.33-0.69,0.34-1.39,0.15-2.01c0.51-0.52,0.8-1.21,0.87-1.93c1.33-1.76,2.29-3.8,2.79-5.91c0.29-1.47,0.47-2.98,0.5-4.48
			c0-0.05,0-0.11,0.01-0.16c0-0.03,0-0.07,0-0.1L279.09,260.56z"/>
	</g>
	<g>
		<path class="st1" d="M103.17,262.04c-0.09,0-0.19-0.01-0.28-0.03c-9.63-1.75-19.58-3.56-29.4-6.24c-3.8-1.27-7.47-2.1-11.35-2.99
			c-4.23-0.96-8.6-1.96-13.06-3.52c-0.81-0.29-1.24-1.18-0.96-1.99c0.29-0.81,1.18-1.24,1.99-0.95c4.29,1.51,8.58,2.48,12.72,3.43
			c3.79,0.86,7.7,1.75,11.56,3.04c9.12,2.49,18.5,4.23,27.61,5.89c3.93-15.92,9.28-31.46,14.46-46.51
			c3.08-8.94,6.26-18.19,9.16-27.54c0.01-0.04,0.03-0.08,0.04-0.12c0.97-2.42,2.01-4.8,3.02-7.11c2.74-6.23,5.32-12.13,6.6-18.96
			c-0.05-0.06-0.16-0.16-0.22-0.18c-0.19,0-0.35-0.03-0.53-0.1c-8.52-3.25-17.43-5.61-26.05-7.9c-10.19-2.7-20.73-5.5-30.96-9.81
			c-0.79-0.33-1.17-1.25-0.83-2.04c0.33-0.79,1.25-1.17,2.04-0.83c10.04,4.22,20.47,6.99,30.55,9.67
			c8.62,2.29,17.54,4.65,26.15,7.91c1.61,0.19,2.99,1.68,2.99,3.31c0,0.09-0.01,0.19-0.03,0.28c-1.33,7.3-4.14,13.7-6.86,19.9
			c-0.99,2.26-2.02,4.6-2.96,6.95c-2.91,9.38-6.1,18.63-9.17,27.58c-5.55,16.14-10.8,31.38-14.73,47.66
			C104.51,261.56,103.88,262.04,103.17,262.04z M136.87,158.49h0.01H136.87z"/>
	</g>
	<g>
		<path class="st1" d="M83.42,257.06c-0.13,0-0.25-0.02-0.38-0.05c-0.84-0.21-1.34-1.06-1.13-1.89
			c8.97-35.76,21.59-73.77,34.63-104.28c0.34-0.79,1.26-1.16,2.05-0.82c0.79,0.34,1.16,1.26,0.82,2.05
			c-12.98,30.36-25.55,68.2-34.48,103.81C84.75,256.59,84.12,257.06,83.42,257.06z"/>
	</g>
	<g>
		<path class="st1" d="M339.21,266.58c-0.24,0-0.49-0.06-0.71-0.17c-0.38-0.2-0.67-0.54-0.79-0.95
			c-6.19-21.32-12.75-42.62-19.69-65.18c-3.6-11.69-7.32-23.78-11.03-36.01c-0.22-0.71,0.1-1.47,0.75-1.83
			c15.8-8.56,32.43-15.88,49.41-21.75c0.81-0.28,1.7,0.15,1.98,0.96c0.28,0.81-0.15,1.7-0.96,1.98
			c-16.42,5.68-32.5,12.72-47.82,20.94c3.58,11.81,7.18,23.48,10.65,34.78c6.77,22.01,13.18,42.82,19.24,63.64
			c14.51-5.19,28.93-11.11,42.88-17.62c0.78-0.37,1.71-0.03,2.07,0.75c0.36,0.78,0.03,1.71-0.75,2.07
			c-14.54,6.78-29.58,12.94-44.71,18.29C339.56,266.56,339.38,266.58,339.21,266.58z"/>
	</g>
	<g>
		<path class="st1" d="M357.98,258.42c-0.69,0-1.32-0.46-1.51-1.16c-9.11-34.25-19.49-68.65-30.86-102.24
			c-0.28-0.82,0.16-1.7,0.98-1.98c0.82-0.28,1.7,0.16,1.98,0.98c11.39,33.65,21.8,68.11,30.92,102.43c0.22,0.83-0.27,1.69-1.11,1.91
			C358.25,258.41,358.12,258.42,357.98,258.42z"/>
	</g>
	<g>
		<path class="st1" d="M185.28,211.97c-3.59,0-7.79-1.56-9.67-5.21c-3.36-6.52,2.95-13.83,5.03-16.24
			c8.56-9.92,17.41-20.19,28.43-27.93c12.42-8.73,26-12.68,38.22-11.13c6.25,0.79,12.2,2.99,17.95,5.12
			c1.86,0.69,3.78,1.4,5.67,2.04c12,4.11,24.51,6.29,37.2,6.47c0.86,0.01,1.55,0.72,1.54,1.58c-0.01,0.85-0.71,1.54-1.56,1.54
			c-0.01,0-0.02,0-0.02,0c-13.01-0.19-25.85-2.42-38.16-6.64c-1.92-0.66-3.86-1.38-5.74-2.07c-5.59-2.07-11.37-4.2-17.26-4.95
			c-11.46-1.46-24.25,2.31-36.03,10.59c-10.7,7.52-19.43,17.64-27.87,27.42c-4.72,5.47-6.23,9.64-4.61,12.77
			c1.36,2.65,4.72,3.67,7.43,3.5c3.11-0.19,6.03-1.55,9.26-3.17c2.15-1.08,4.3-2.15,6.44-3.21c13.12-6.53,25.52-12.7,37.28-20.99
			c0.71-0.5,1.68-0.33,2.17,0.38c0.5,0.7,0.33,1.68-0.38,2.17c-11.96,8.43-24.46,14.65-37.69,21.23c-2.14,1.06-4.28,2.13-6.43,3.21
			c-3.41,1.72-6.78,3.27-10.47,3.5C185.77,211.97,185.53,211.97,185.28,211.97z"/>
	</g>
	<g>
		<path class="st1" d="M300.67,268.83c-0.61,0-1.2-0.36-1.44-0.97c-0.33-0.8,0.05-1.71,0.85-2.04c11.22-4.62,22.54-9.43,33.67-14.29
			c0.79-0.34,1.71,0.02,2.05,0.81c0.34,0.79-0.02,1.71-0.81,2.05c-11.14,4.87-22.49,9.68-33.73,14.32
			C301.07,268.8,300.87,268.83,300.67,268.83z"/>
	</g>
	<g>
		<path class="st1" d="M296.32,275.1c-0.33,0-0.63-0.02-0.9-0.05c-5.18-0.55-10.28-3.99-13.98-9.43c-2.37-3.48-4.02-7.37-5.61-11.12
			c-0.5-1.19-1-2.37-1.53-3.54c-4.24-9.48-9.96-18.15-17.02-25.76c-0.59-0.63-0.55-1.62,0.08-2.21c0.63-0.59,1.62-0.55,2.21,0.08
			c7.29,7.87,13.2,16.82,17.58,26.61c0.53,1.19,1.04,2.4,1.55,3.6c1.6,3.78,3.11,7.36,5.31,10.58c3.19,4.68,7.47,7.63,11.74,8.08
			c0.25,0.03,0.98,0.11,1.33-0.11c0.39-0.25,0.57-1.07,0.53-2.44c-0.56-18.09-6.52-36.27-16.76-51.19
			c-10.25-14.92-25.07-27-41.75-34.03c-0.79-0.34-1.17-1.25-0.83-2.04c0.33-0.79,1.25-1.17,2.04-0.83
			c17.22,7.25,32.53,19.73,43.11,35.14c10.58,15.41,16.73,34.18,17.31,52.86c0.03,1.05,0.12,3.84-1.98,5.17
			C297.95,274.97,297.08,275.1,296.32,275.1z"/>
	</g>
	<g>
		<path class="st1" d="M218.4,292.2c-2.16,0-4.97-0.35-8.01-2.58c-0.7-0.51-0.85-1.49-0.34-2.18c0.51-0.7,1.49-0.84,2.18-0.34
			c2.91,2.13,5.35,2.03,7.5,1.94l0.23-0.01c3.23-0.13,6.72-1.78,8.67-4.11c0.84-1.01,1.8-2.61,1.53-4.55
			c-0.01-0.07-0.01-0.14-0.01-0.21c0.01-3.33-0.46-6.72-0.86-9.29c-0.11-0.68,0.24-1.35,0.87-1.65c0.62-0.3,1.37-0.15,1.83,0.36
			c2.36,2.61,4.8,5.31,7.79,7.09c3.11,1.86,6.56,2.38,9.23,1.41c3.67-1.34,7.44-7.73,6.61-11.2c-0.2-0.84,0.31-1.68,1.15-1.88
			c0.84-0.19,1.68,0.32,1.88,1.15c1.31,5.45-3.8,13.12-8.57,14.86c-3.6,1.31-7.93,0.71-11.9-1.66c-1.93-1.15-3.61-2.59-5.16-4.12
			c0.15,1.55,0.26,3.19,0.26,4.84c0.29,2.39-0.49,4.76-2.25,6.86c-2.52,3-6.81,5.05-10.93,5.22l-0.22,0.01
			C219.42,292.17,218.93,292.2,218.4,292.2z"/>
	</g>
	<g>
		<path class="st1" d="M269.72,279.42c-1.29,0-2.53-0.35-3.7-0.8c-5.89-2.29-9.02-8.71-12.05-14.93c-2.1-4.31-4.27-8.76-7.23-11.39
			c-0.64-0.57-0.7-1.56-0.13-2.2c0.57-0.64,1.56-0.7,2.2-0.13c3.42,3.04,5.73,7.78,7.96,12.36c2.89,5.94,5.62,11.54,10.38,13.39
			c2.04,0.79,4.58,1.77,7.97-3.93c0.92-1.56,1.17-3.53,1.3-5.42c0.34-4.87-0.97-9.88-2.23-14.73c-0.19-0.74-0.39-1.48-0.57-2.22
			c-0.21-0.83,0.29-1.68,1.13-1.89c0.84-0.21,1.68,0.29,1.89,1.13c0.18,0.73,0.38,1.46,0.57,2.2c1.33,5.09,2.7,10.36,2.32,15.74
			c-0.16,2.28-0.48,4.68-1.73,6.8C275.03,278.04,272.28,279.42,269.72,279.42z"/>
	</g>
	<g>
		<path class="st1" d="M168.29,278.48c-0.14,0-0.27,0-0.41,0c-5.84-0.14-10.9-3.62-12.31-8.45c-0.53-1.83-0.52-3.69-0.27-5.47
			c-3.18,1.97-7.15,2.8-10.93,2.12c-5.79-1.04-10.66-5.8-11.58-11.31c-0.38-2.28,0.34-3.55,1.01-4.2c0.61-0.61,1.6-0.6,2.21,0.01
			c0.6,0.61,0.6,1.6-0.02,2.21c-0.15,0.14-0.26,0.62-0.12,1.47c0.71,4.26,4.52,7.94,9.05,8.75c4.43,0.8,9.16-0.98,11.76-4.42
			c0.43-0.56,1.17-0.76,1.82-0.51c0.56-0.3,1.08-0.5,1.42-0.64c6.24-2.44,12.79-3.94,19.47-4.45c5.36-0.42,8.94,0.88,10.62,3.85
			c0.8,1.42,1.08,3.17,0.83,5.19c-0.32,2.58-1.44,5.08-3.15,7.05c-1.65,1.9-3.77,3.24-5.81,4.41
			C178.26,276.14,173.48,278.48,168.29,278.48z M159,262.11c-0.69,2.63-1.05,4.91-0.43,7.04c1.15,3.95,5.59,6.11,9.39,6.2
			c4.58,0.11,9.02-2.07,12.37-3.99c1.8-1.03,3.66-2.2,5-3.75c1.3-1.5,2.16-3.41,2.41-5.39c0.12-0.92,0.13-2.24-0.45-3.27
			c-1.28-2.27-4.87-2.49-7.66-2.27c-6.37,0.49-12.62,1.92-18.57,4.25C160.06,261.33,159.38,261.72,159,262.11z"/>
	</g>
	<g>
		<path class="st1" d="M183.59,289.03c-2.43,0-4.72-0.58-6.66-1.72c-3.79-2.23-6.07-6.67-5.67-11.05c0.08-0.86,0.84-1.48,1.69-1.41
			c0.86,0.08,1.49,0.84,1.41,1.69c-0.28,3.15,1.42,6.48,4.15,8.08c2.64,1.56,6.24,1.71,9.86,0.42c3.41-1.21,6.38-3.42,9.38-5.76
			c4.27-3.34,8.27-7.08,8.63-11.79c0.02-0.28,0.04-0.68-0.06-0.92c-0.1-0.22-0.39-0.48-0.87-0.77c-2.26-1.35-5.31-1.69-8.58-0.95
			c-2.9,0.66-5.26,1.88-8,3.29l-0.46,0.24c-0.77,0.39-1.71,0.09-2.1-0.67c-0.4-0.77-0.09-1.71,0.67-2.1l0.46-0.24
			c2.81-1.45,5.46-2.82,8.75-3.57c4.06-0.92,7.92-0.45,10.87,1.31c0.68,0.41,1.64,1.08,2.13,2.21c0.37,0.86,0.36,1.74,0.31,2.4
			c-0.46,5.92-4.99,10.23-9.82,14.01c-3.08,2.41-6.41,4.87-10.25,6.24C187.45,288.68,185.48,289.03,183.59,289.03z"/>
	</g>
	<g>
		<path class="st1" d="M201.79,293.47c-2.23,0-4.46-0.51-6.45-1.5c-2.32-1.15-4.73-3.46-4.54-6.47c0.05-0.86,0.8-1.51,1.66-1.46
			c0.86,0.05,1.51,0.8,1.46,1.66c-0.09,1.49,1.46,2.8,2.81,3.48c2.13,1.06,4.59,1.42,6.93,1.02c3.72-0.63,6.93-3.06,9.59-5.36
			c3-2.59,4.28-4.74,4.03-6.75c-0.29-2.35-2.85-3.94-5.06-4.06c-2.21-0.12-4.5,0.79-7.17,2.88c-0.68,0.53-1.66,0.41-2.19-0.27
			c-0.53-0.68-0.41-1.66,0.27-2.19c2.08-1.62,5.31-3.76,9.27-3.54c3.54,0.2,7.5,2.79,7.99,6.8c0.5,4.12-2.66,7.39-5.09,9.49
			c-2.81,2.43-6.6,5.31-11.11,6.08C203.39,293.4,202.59,293.47,201.79,293.47z"/>
	</g>
	<g>
		<path class="st1" d="M158.09,260.67c-0.74,0-1.4-0.53-1.54-1.29c-0.55-3.19-4.06-5.11-6.1-5.97c-5.96-2.51-11.15-2.43-15.4,0.24
			c-0.7,0.44-1.61,0.26-2.1-0.41c-5.96-8.28-13.4-14.39-22.11-18.19c-0.79-0.34-1.15-1.26-0.81-2.05c0.34-0.79,1.26-1.15,2.05-0.81
			c8.83,3.85,16.41,9.93,22.56,18.09c4.9-2.53,10.61-2.45,17.01,0.24c4.54,1.91,7.36,4.86,7.96,8.31c0.15,0.85-0.42,1.66-1.27,1.8
			C158.27,260.66,158.18,260.67,158.09,260.67z"/>
	</g>
	<g>
		<path class="st1" d="M135.55,165.66c-0.71,0-1.35-0.49-1.52-1.21c-0.19-0.84,0.33-1.68,1.17-1.87
			c17.25-3.99,33.12-9.47,46.37-14.31l1.19-0.43c5.03-1.85,10.24-3.76,15.73-4.36c12.65-1.39,24.31,4.04,34.59,8.84
			c0.78,0.36,1.12,1.29,0.75,2.07c-0.36,0.78-1.29,1.12-2.07,0.75c-9.91-4.62-21.16-9.87-32.93-8.56
			c-5.11,0.56-10.13,2.4-14.99,4.19l-1.19,0.44c-13.34,4.87-29.32,10.39-46.74,14.42C135.79,165.64,135.67,165.66,135.55,165.66z"/>
	</g>
	<g>
		<path class="st1" d="M166.48,138.61c-0.52,0-1.02-0.26-1.32-0.73c-0.46-0.73-0.24-1.69,0.48-2.15
			c14.17-8.97,31.2-13.38,47.94-12.44c0.86,0.05,1.52,0.79,1.47,1.65c-0.05,0.86-0.77,1.52-1.65,1.47
			c-16.1-0.91-32.47,3.34-46.1,11.97C167.05,138.53,166.76,138.61,166.48,138.61z"/>
	</g>
	<g>
		<path class="st1" d="M156.7,123.36c-0.51,0-1.01-0.25-1.31-0.71c-0.47-0.72-0.26-1.69,0.46-2.16c8.38-5.45,18-9.24,27.84-10.97
			c0.85-0.15,1.66,0.42,1.81,1.27c0.15,0.85-0.42,1.66-1.27,1.81c-9.43,1.66-18.65,5.29-26.68,10.51
			C157.29,123.28,156.99,123.36,156.7,123.36z"/>
	</g>
	<g>
		<path class="st1" d="M256.5,294.57c-0.84,0-1.53-0.67-1.56-1.51c-0.03-0.86,0.65-1.58,1.51-1.61c9.08-0.28,17.95-3.61,24.97-9.38
			c0.67-0.55,1.65-0.45,2.2,0.22c0.55,0.67,0.45,1.65-0.22,2.2c-7.55,6.2-17.09,9.79-26.86,10.09
			C256.54,294.57,256.52,294.57,256.5,294.57z"/>
	</g>
	<g>
		<path class="st1" d="M374.61,245.45c-0.06,0-0.12-0.01-0.18-0.03l-16.92-6.37c-0.27-0.1-0.41-0.4-0.3-0.67
			c0.1-0.27,0.4-0.41,0.67-0.3l16.92,6.37c0.27,0.1,0.41,0.4,0.3,0.67C375.02,245.32,374.82,245.45,374.61,245.45z"/>
	</g>
	<g>
		<path class="st1" d="M380.33,239.1c-0.06,0-0.11-0.01-0.17-0.03c-9.31-3.17-18.54-6.92-27.43-11.14
			c-0.26-0.12-0.37-0.43-0.25-0.69c0.12-0.26,0.44-0.37,0.69-0.25c8.85,4.2,18.04,7.93,27.32,11.09c0.27,0.09,0.42,0.39,0.33,0.66
			C380.75,238.97,380.55,239.1,380.33,239.1z"/>
	</g>
	<g>
		<path class="st1" d="M381.77,229.12c-0.05,0-0.11-0.01-0.16-0.03c-10.35-3.39-20.69-7.25-30.72-11.48
			c-0.27-0.11-0.39-0.42-0.28-0.68c0.11-0.27,0.42-0.38,0.68-0.28c10,4.22,20.31,8.07,30.64,11.45c0.27,0.09,0.42,0.38,0.33,0.66
			C382.19,228.99,381.99,229.12,381.77,229.12z"/>
	</g>
	<g>
		<path class="st1" d="M381.77,219.54c-0.06,0-0.12-0.01-0.18-0.03c-12.06-4.53-21.4-8.42-34.26-13.85
			c-0.27-0.11-0.39-0.42-0.28-0.68c0.11-0.27,0.42-0.39,0.68-0.28c12.85,5.42,22.17,9.31,34.22,13.83c0.27,0.1,0.41,0.4,0.3,0.67
			C382.18,219.42,381.98,219.54,381.77,219.54z"/>
	</g>
	<g>
		<path class="st1" d="M378.78,208.72c-0.07,0-0.13-0.01-0.2-0.04l-34.55-14.09c-0.27-0.11-0.39-0.41-0.29-0.68
			c0.11-0.27,0.41-0.39,0.68-0.29l34.55,14.09c0.27,0.11,0.39,0.41,0.29,0.68C379.18,208.6,378.98,208.72,378.78,208.72z"/>
	</g>
	<g>
		<path class="st1" d="M377.66,198.38c-0.07,0-0.14-0.01-0.21-0.04l-37.53-16.62c-0.26-0.12-0.38-0.42-0.27-0.69
			c0.12-0.26,0.43-0.38,0.69-0.27l37.53,16.62c0.26,0.12,0.38,0.42,0.27,0.69C378.05,198.26,377.86,198.38,377.66,198.38z"/>
	</g>
	<g>
		<path class="st1" d="M374,185.37c-0.07,0-0.14-0.01-0.21-0.05l-37.87-17.02c-0.26-0.12-0.38-0.43-0.26-0.69
			c0.12-0.26,0.43-0.38,0.69-0.26l37.87,17.02c0.26,0.12,0.38,0.43,0.26,0.69C374.39,185.26,374.2,185.37,374,185.37z"/>
	</g>
	<g>
		<path class="st1" d="M365.49,168.35c-0.06,0-0.12-0.01-0.19-0.03c-9.4-3.62-19-7.11-28.52-10.36c-0.27-0.09-0.42-0.39-0.32-0.66
			c0.09-0.27,0.39-0.42,0.66-0.32c9.53,3.26,19.14,6.75,28.56,10.37c0.27,0.1,0.4,0.4,0.3,0.67
			C365.89,168.22,365.7,168.35,365.49,168.35z"/>
	</g>
	<g>
		<path class="st1" d="M364.73,156.38c-0.07,0-0.14-0.01-0.2-0.04l-13.51-5.64c-0.27-0.11-0.39-0.41-0.28-0.68
			c0.11-0.27,0.42-0.39,0.68-0.28l13.52,5.64c0.27,0.11,0.39,0.41,0.28,0.68C365.13,156.26,364.94,156.38,364.73,156.38z"/>
	</g>
	<g>
		<g>
			<path class="st4" d="M78.2,139.37c13.36,4.49,26.86,8.56,39.74,12.41c-2.11,8.91-7.53,16.62-11.18,25.02
				c-1.93,4.45-3.36,9.11-4.78,13.75c-6.63,21.77-12.98,43.64-19.06,65.54c-11.91-4.08-21.16-6.17-33.93-8.44
				C60.76,211.07,71.37,175.92,78.2,139.37z"/>
		</g>
	</g>
	<g class="st3">
		<path class="st1" d="M330.48,247.61c-2.09,0.62-4.12,1.37-6.12,2.2c-0.46-0.01-0.91,0.02-1.36,0.11
			c-1.01,0.18-1.96,0.58-2.91,0.97c-1.06,0.36-2.06,0.7-3.08,1.14c-0.4,0.15-1.63,0.62-2.11,0.74c-0.15,0.04-0.26,0.08-0.36,0.12
			c-0.3,0.1-0.61,0.2-0.92,0.27c-0.18,0-0.37,0.01-0.55,0c-0.2-0.04-0.41-0.09-0.61-0.15c0,0-0.01,0-0.01-0.01
			c-0.44-0.4-0.83-0.85-1.21-1.31c-0.5-0.64,0.06,0.08,0.25,0.33c-0.33-0.45-0.69-0.88-1.06-1.29c-0.11-0.13-0.2-0.24-0.28-0.33
			c-0.35-0.48-0.66-0.99-0.98-1.49c-1.33-2.01-2.52-4.11-3.63-6.25c-2.34-4.54-4.49-9.17-6.99-13.63c-1.45-3.03-2.68-6.18-4.49-9.03
			c-5.2-7.94-10.25-14.16-18.03-21.11c-4.91-4.97-10.57-9.24-16.63-12.68c-4.11-2.28-8.42-4.53-13.19-4.87
			c-3.34-0.76-4.15,4.19-0.71,4.42c3.13,0.16,6.48,1.58,10.08,3.65c-0.33,0.81-0.26,1.79,0.56,2.64c3.33,2.89,7.16,5.11,10.63,7.83
			c-0.16-0.11,1.77,1.52,2.16,1.93c0.4,0.39,0.8,0.8,1.18,1.21c-0.31,0.3-0.52,0.7-0.5,1.18c0.23,1.44,1.84,3.13,2.57,4.48
			c3.81,5.81,8.29,11.2,11.53,17.36c4.29,8.44,7.39,16.86,8.83,28.17c0.74,3.56,1.16,10.05,0,11.91c-0.1,0.11-0.2,0.22-0.32,0.32
			c-0.09,0.06-0.17,0.1-0.23,0.14c-0.15,0.05-0.3,0.1-0.44,0.16c-0.07,0.02-0.15,0.05-0.22,0.07c-0.03,0-0.04,0.01-0.07,0.01
			c-0.32,0.01-0.68-0.01-0.91-0.02c-0.12-0.02-0.23-0.04-0.35-0.06c-1.29-0.33-0.59-0.04-2.53-1.08c-2.99-1.69-5.57,2.73-2.64,4.52
			c7.38,5.31,12.55,3.42,14.02-3.77c0.73-4.34,0.24-8.79-0.52-13.11c0.22,0.65,0.44,1.31,0.65,1.96c0.42,2.57,0.78,4.99,1.12,7.16
			c-0.05,0.06-0.11,0.12-0.16,0.19c-0.84,1.33-0.22,2.97,0.95,3.75c0.52,0.83,1.64,1.22,2.6,0.97c0.84-0.25,1.29-0.76,1.52-1.39
			c8.06-3.17,16.07-6.58,23.48-11.09c1.75-1.08,1.75-1.19,3.2-1.79c0.75-0.31,1.66-0.75,2.11-1.43c0.36-0.25,0.69-0.55,0.96-0.95
			C336.12,247.84,332.73,246.39,330.48,247.61z"/>
	</g>
	<g class="st3">
		<path class="st1" d="M382.07,239.28c-0.43,0-0.83,0.11-1.22,0.28c-1.87,0.56-3.56,1.75-5.4,2.43c-3.27,1.58-4.54,1.88-8.91,3.98
			c-7.53,4.01-20.04,7.93-26.77,10.75c-4.42,1.34-2.64,7.89,1.87,6.78c7.05-2.28,13.72-5.58,20.52-8.49
			c3.59-1.66,10.42-4.11,16.08-6.9c2.64-1.39,5.94-3.02,6.27-3.83C386.16,242.39,384.54,239.21,382.07,239.28z"/>
	</g>
	<g>
		<g class="st3">
			<polygon class="st1" points="112.84,234.03 112.84,234.03 112.84,234.03 			"/>
		</g>
		<g class="st3">
			<path class="st1" d="M132.55,166.71c-2.86,10.36-7.91,18-11.62,29.4c-2.25,6.65-3.95,13.46-5.24,20.36
				c-0.81,3.05-1.43,6.15-2.07,9.24c-0.47,2.73-1.28,5.54-0.78,8.32c0.7,2.71,3.7,4.01,6.12,3.13c1.54,1.62,3.17,3.15,4.82,4.67
				c0-0.07,0-0.14,0-0.21c-0.12-3.05-0.08-6.1,0.1-9.15c-0.65-2.14-0.88-3.54-1.02-5.29c0.63-3.37,1.43-6.71,1.83-10.12
				c1.61-10.98,4.73-21.66,8.28-32.15c1.07-3.13,1.9-6.35,3.27-9.37c0.96-2.72,2.55-5.5,2.55-8.42
				C138.49,163.74,133.38,163.4,132.55,166.71z"/>
		</g>
		<g class="st3">
			<path class="st1" d="M135.79,250.64c-0.17,0.66-0.81,1.18-1.51,1.13c0.55,0.3,1.15,0.44,1.81,0.26c1.01-0.26,1.67-1.27,1.61-2.28
				C137.06,250.06,136.43,250.36,135.79,250.64z"/>
		</g>
		<g class="st3">
			<path class="st1" d="M112.84,234.03c-0.06-0.41-0.11-0.82-0.17-1.23C112.68,233.24,112.74,233.64,112.84,234.03z"/>
		</g>
	</g>
	<g class="st3">
		<path class="st1" d="M154.76,259.05c-1.21,0.82-2.85,0.57-6.01,0.52c-2.08-0.2-4.78-0.04-7.11-0.79
			c-1.54-0.35-2.98-1.54-4.59-1.34c-3.01,0.27-3.3,4.8-0.38,5.53c2.12,0.83,4.25,1.55,6.48,2.03c1.87,0.44,3.79,0.86,5.7,0.4
			c2.36-0.49,4.62-1.49,6.72-2.65c0.85-0.55,2.02-1,2.34-2.04C158.36,258.81,156.12,257.84,154.76,259.05z"/>
	</g>
	<g class="st3">
		<path class="st1" d="M186.74,263.15c-1.05,0.35-1.27,0.92-2.91,1.79c-3.29,1.78-4.7,2.13-9.09,2.98
			c-4.17,1.07-3.81,0.84-8.42,1.15c-1.44,0.05-2.89-0.02-4.32-0.19c-0.94-0.16-1.88-0.53-2.82-0.34c-3.79,0.37-4.14,5.96-0.47,6.93
			c9.32,2.71,17,0,23.61-4.01c1.99-1.19,3.98-2.45,5.67-4.05c0.93-1.04,1.16-0.85,1.37-2.28
			C189.38,263.81,188.01,262.79,186.74,263.15z"/>
	</g>
	<g class="st3">
		<path class="st1" d="M225.89,282.36c-1.95,0.28-1.47,0.52-2.5,0.84c-0.82,0.22-0.93,0.6-3.87,1.3c-2.01,0.35-1.95,0.34-2.47,0.39
			c0.38-0.5,0.56-1.18,0.42-1.79c-0.09-1.27-1.31-2.24-2.55-2.25c-1.54,0.09-2.7,1.36-4.09,1.91c-2.92,1.29-2.21,1.07-6.26,2.44
			c-3.66,1.03-5.56,0.93-6.96,1.02c-1.34-0.04-2.64-0.91-3.86-1.06c2.45-0.95,4.79-2.26,7.02-3.64c2.55-1.55,4.82-3.48,6.91-5.6
			c0.46-0.4,0.75-1,0.75-1.62c0.01-0.76-0.42-1.44-1.05-1.83c-0.8-0.48-1.92-0.34-2.58,0.33c0.14-0.11,0.5-0.38,0.28-0.24
			c-1.05,0.65-2.09,1.29-3.15,1.92c-6.09,3.92-14.12,6.21-19.35,7.01c-1.24,0.14-2.48,0.29-3.73,0.16c-0.1-0.01-0.16-0.02-0.21-0.02
			c-0.05-0.01-0.09-0.01-0.14-0.02c-0.94-0.09-1.87-0.56-2.81-0.44c-2.25,0.2-2.47,3.59-0.28,4.14c1.97,0.69,3.97,1.36,6.05,1.55
			c2.2,0.24,4.42-0.08,6.6-0.33c1.18-0.1,2.34-0.32,3.47-0.63c-1.06,1.16-1.02,3.31,0.56,4.15c5.68,2.87,11.79,2.27,17.45-0.29
			c1.03-0.41,2.03-0.91,2.99-1.47c0.03,1.72,1.37,3.42,3.29,3.36c3.54-0.45,7.35-0.65,10.35-2.79c0.88-0.68,2.05-1.26,2.44-2.37
			C229.53,284.63,227.93,282.31,225.89,282.36z"/>
	</g>
	<g class="st3">
		<path class="st1" d="M254.5,269.17c-2.18,1.11-1.65,1.32-3.06,2.2c-2.1,1.46-1.81,1.29-4.85,2.07c-2.49,0.42-0.99,0.34-3.13,0.38
			c-0.25-0.01-0.5-0.03-0.75-0.05c-0.27-0.05-0.62-0.12-0.87-0.18c-1.81-0.29-3.72-1.63-5.49-0.56c-2.34,1.26-1.84,5.06,0.74,5.68
			c2.37,0.7,4.82,1.39,7.32,1.23c2.98-0.21,5.9-1.31,8.39-2.94c1.2-0.85,2.33-1.79,3.43-2.76c0.79-0.65,1.59-1.45,1.55-2.55
			C257.83,270,256.1,268.72,254.5,269.17z"/>
	</g>
	<g class="st3">
		<path class="st1" d="M279.09,260.56c0.01-1.31-0.87-2.58-2.17-2.91c-0.07-0.02-0.14-0.02-0.21-0.03
			c-0.01-2.45,0.05-4.94-0.56-7.32c-0.91-3.73-2.95-7.02-4.63-10.43c-1.55-3.61-3.56-7.07-6.15-10.01c-1.1-0.96-2.96-0.02-2.92,1.43
			c0.1,1.24,1.23,2.12,1.8,3.17c3.19,4.65,4.27,8.13,5.79,13.7c1.86,5.85,2.19,8.69,1.64,14.73c-0.01,0.07-0.01,0.13-0.02,0.18
			c-0.05,0.27-0.1,0.55-0.16,0.82c-0.02,0.14-0.08,0.35-0.16,0.59c-0.31,0.5-0.63,0.99-0.97,1.47c-0.43,0.51-1.29,1.53-1.78,1.98
			c-0.11,0.07-0.22,0.13-0.32,0.19c-0.96,0.09-1.68,0.05-4.25-0.78c-0.73-0.27-0.88-0.35-0.07-0.01c-1.3-0.45-2.47-1.35-3.82-1.58
			c-3.04-0.55-4.52,3.83-1.84,5.32c0.95,0.48,1.99,0.95,2.9,1.35c0.19,0.99,0.74,1.91,1.7,2.45c0.22,0.13,0.46,0.22,0.69,0.32
			c0.08,1.21,0.81,2.37,2.35,2.83c1.3,0.36,2.65,0.7,3.99,0.41c0.46-0.08,1.38-0.48,1.52-0.55c1.34-0.58,2.74-1.38,3.32-2.75
			c0.33-0.69,0.34-1.39,0.15-2.01c0.51-0.52,0.8-1.21,0.87-1.93c1.33-1.76,2.29-3.8,2.79-5.91c0.29-1.47,0.47-2.98,0.5-4.48
			c0-0.05,0-0.11,0.01-0.16c0-0.03,0-0.07,0-0.1L279.09,260.56z"/>
	</g>
	<g>
		<path class="st1" d="M103.17,262.04c-0.09,0-0.19-0.01-0.28-0.03c-9.63-1.75-19.58-3.56-29.4-6.24c-3.8-1.27-7.47-2.1-11.35-2.99
			c-4.23-0.96-8.6-1.96-13.06-3.52c-0.81-0.29-1.24-1.18-0.96-1.99c0.29-0.81,1.18-1.24,1.99-0.95c4.29,1.51,8.58,2.48,12.72,3.43
			c3.79,0.86,7.7,1.75,11.56,3.04c9.12,2.49,18.5,4.23,27.61,5.89c3.93-15.92,9.28-31.46,14.46-46.51
			c3.08-8.94,6.26-18.19,9.16-27.54c0.01-0.04,0.03-0.08,0.04-0.12c0.97-2.42,2.01-4.8,3.02-7.11c2.74-6.23,5.32-12.13,6.6-18.96
			c-0.05-0.06-0.16-0.16-0.22-0.18c-0.19,0-0.35-0.03-0.53-0.1c-8.52-3.25-17.43-5.61-26.05-7.9c-10.19-2.7-20.73-5.5-30.96-9.81
			c-0.79-0.33-1.17-1.25-0.83-2.04c0.33-0.79,1.25-1.17,2.04-0.83c10.04,4.22,20.47,6.99,30.55,9.67
			c8.62,2.29,17.54,4.65,26.15,7.91c1.61,0.19,2.99,1.68,2.99,3.31c0,0.09-0.01,0.19-0.03,0.28c-1.33,7.3-4.14,13.7-6.86,19.9
			c-0.99,2.26-2.02,4.6-2.96,6.95c-2.91,9.38-6.1,18.63-9.17,27.58c-5.55,16.14-10.8,31.38-14.73,47.66
			C104.51,261.56,103.88,262.04,103.17,262.04z M136.87,158.49h0.01H136.87z"/>
	</g>
	<g>
		<path class="st1" d="M83.42,257.06c-0.13,0-0.25-0.02-0.38-0.05c-0.84-0.21-1.34-1.06-1.13-1.89
			c8.97-35.76,21.59-73.77,34.63-104.28c0.34-0.79,1.26-1.16,2.05-0.82c0.79,0.34,1.16,1.26,0.82,2.05
			c-12.98,30.36-25.55,68.2-34.48,103.81C84.75,256.59,84.12,257.06,83.42,257.06z"/>
	</g>
	<g>
		<path class="st1" d="M339.21,266.58c-0.24,0-0.49-0.06-0.71-0.17c-0.38-0.2-0.67-0.54-0.79-0.95
			c-6.19-21.32-12.75-42.62-19.69-65.18c-3.6-11.69-7.32-23.78-11.03-36.01c-0.22-0.71,0.1-1.47,0.75-1.83
			c15.8-8.56,32.43-15.88,49.41-21.75c0.81-0.28,1.7,0.15,1.98,0.96c0.28,0.81-0.15,1.7-0.96,1.98
			c-16.42,5.68-32.5,12.72-47.82,20.94c3.58,11.81,7.18,23.48,10.65,34.78c6.77,22.01,13.18,42.82,19.24,63.64
			c14.51-5.19,28.93-11.11,42.88-17.62c0.78-0.37,1.71-0.03,2.07,0.75c0.36,0.78,0.03,1.71-0.75,2.07
			c-14.54,6.78-29.58,12.94-44.71,18.29C339.56,266.56,339.38,266.58,339.21,266.58z"/>
	</g>
	<g>
		<path class="st1" d="M357.98,258.42c-0.69,0-1.32-0.46-1.51-1.16c-9.11-34.25-19.49-68.65-30.86-102.24
			c-0.28-0.82,0.16-1.7,0.98-1.98c0.82-0.28,1.7,0.16,1.98,0.98c11.39,33.65,21.8,68.11,30.92,102.43c0.22,0.83-0.27,1.69-1.11,1.91
			C358.25,258.41,358.12,258.42,357.98,258.42z"/>
	</g>
	<g>
		<path class="st1" d="M185.28,211.97c-3.59,0-7.79-1.56-9.67-5.21c-3.36-6.52,2.95-13.83,5.03-16.24
			c8.56-9.92,17.41-20.19,28.43-27.93c12.42-8.73,26-12.68,38.22-11.13c6.25,0.79,12.2,2.99,17.95,5.12
			c1.86,0.69,3.78,1.4,5.67,2.04c12,4.11,24.51,6.29,37.2,6.47c0.86,0.01,1.55,0.72,1.54,1.58c-0.01,0.85-0.71,1.54-1.56,1.54
			c-0.01,0-0.02,0-0.02,0c-13.01-0.19-25.85-2.42-38.16-6.64c-1.92-0.66-3.86-1.38-5.74-2.07c-5.59-2.07-11.37-4.2-17.26-4.95
			c-11.46-1.46-24.25,2.31-36.03,10.59c-10.7,7.52-19.43,17.64-27.87,27.42c-4.72,5.47-6.23,9.64-4.61,12.77
			c1.36,2.65,4.72,3.67,7.43,3.5c3.11-0.19,6.03-1.55,9.26-3.17c2.15-1.08,4.3-2.15,6.44-3.21c13.12-6.53,25.52-12.7,37.28-20.99
			c0.71-0.5,1.68-0.33,2.17,0.38c0.5,0.7,0.33,1.68-0.38,2.17c-11.96,8.43-24.46,14.65-37.69,21.23c-2.14,1.06-4.28,2.13-6.43,3.21
			c-3.41,1.72-6.78,3.27-10.47,3.5C185.77,211.97,185.53,211.97,185.28,211.97z"/>
	</g>
	<g>
		<path class="st1" d="M300.67,268.83c-0.61,0-1.2-0.36-1.44-0.97c-0.33-0.8,0.05-1.71,0.85-2.04c11.22-4.62,22.54-9.43,33.67-14.29
			c0.79-0.34,1.71,0.02,2.05,0.81c0.34,0.79-0.02,1.71-0.81,2.05c-11.14,4.87-22.49,9.68-33.73,14.32
			C301.07,268.8,300.87,268.83,300.67,268.83z"/>
	</g>
	<g>
		<path class="st1" d="M296.32,275.1c-0.33,0-0.63-0.02-0.9-0.05c-5.18-0.55-10.28-3.99-13.98-9.43c-2.37-3.48-4.02-7.37-5.61-11.12
			c-0.5-1.19-1-2.37-1.53-3.54c-4.24-9.48-9.96-18.15-17.02-25.76c-0.59-0.63-0.55-1.62,0.08-2.21c0.63-0.59,1.62-0.55,2.21,0.08
			c7.29,7.87,13.2,16.82,17.58,26.61c0.53,1.19,1.04,2.4,1.55,3.6c1.6,3.78,3.11,7.36,5.31,10.58c3.19,4.68,7.47,7.63,11.74,8.08
			c0.25,0.03,0.98,0.11,1.33-0.11c0.39-0.25,0.57-1.07,0.53-2.44c-0.56-18.09-6.52-36.27-16.76-51.19
			c-10.25-14.92-25.07-27-41.75-34.03c-0.79-0.34-1.17-1.25-0.83-2.04c0.33-0.79,1.25-1.17,2.04-0.83
			c17.22,7.25,32.53,19.73,43.11,35.14c10.58,15.41,16.73,34.18,17.31,52.86c0.03,1.05,0.12,3.84-1.98,5.17
			C297.95,274.97,297.08,275.1,296.32,275.1z"/>
	</g>
	<g>
		<path class="st1" d="M218.4,292.2c-2.16,0-4.97-0.35-8.01-2.58c-0.7-0.51-0.85-1.49-0.34-2.18c0.51-0.7,1.49-0.84,2.18-0.34
			c2.91,2.13,5.35,2.03,7.5,1.94l0.23-0.01c3.23-0.13,6.72-1.78,8.67-4.11c0.84-1.01,1.8-2.61,1.53-4.55
			c-0.01-0.07-0.01-0.14-0.01-0.21c0.01-3.33-0.46-6.72-0.86-9.29c-0.11-0.68,0.24-1.35,0.87-1.65c0.62-0.3,1.37-0.15,1.83,0.36
			c2.36,2.61,4.8,5.31,7.79,7.09c3.11,1.86,6.56,2.38,9.23,1.41c3.67-1.34,7.44-7.73,6.61-11.2c-0.2-0.84,0.31-1.68,1.15-1.88
			c0.84-0.19,1.68,0.32,1.88,1.15c1.31,5.45-3.8,13.12-8.57,14.86c-3.6,1.31-7.93,0.71-11.9-1.66c-1.93-1.15-3.61-2.59-5.16-4.12
			c0.15,1.55,0.26,3.19,0.26,4.84c0.29,2.39-0.49,4.76-2.25,6.86c-2.52,3-6.81,5.05-10.93,5.22l-0.22,0.01
			C219.42,292.17,218.93,292.2,218.4,292.2z"/>
	</g>
	<g>
		<path class="st1" d="M269.72,279.42c-1.29,0-2.53-0.35-3.7-0.8c-5.89-2.29-9.02-8.71-12.05-14.93c-2.1-4.31-4.27-8.76-7.23-11.39
			c-0.64-0.57-0.7-1.56-0.13-2.2c0.57-0.64,1.56-0.7,2.2-0.13c3.42,3.04,5.73,7.78,7.96,12.36c2.89,5.94,5.62,11.54,10.38,13.39
			c2.04,0.79,4.58,1.77,7.97-3.93c0.92-1.56,1.17-3.53,1.3-5.42c0.34-4.87-0.97-9.88-2.23-14.73c-0.19-0.74-0.39-1.48-0.57-2.22
			c-0.21-0.83,0.29-1.68,1.13-1.89c0.84-0.21,1.68,0.29,1.89,1.13c0.18,0.73,0.38,1.46,0.57,2.2c1.33,5.09,2.7,10.36,2.32,15.74
			c-0.16,2.28-0.48,4.68-1.73,6.8C275.03,278.04,272.28,279.42,269.72,279.42z"/>
	</g>
	<g>
		<path class="st1" d="M168.29,278.48c-0.14,0-0.27,0-0.41,0c-5.84-0.14-10.9-3.62-12.31-8.45c-0.53-1.83-0.52-3.69-0.27-5.47
			c-3.18,1.97-7.15,2.8-10.93,2.12c-5.79-1.04-10.66-5.8-11.58-11.31c-0.38-2.28,0.34-3.55,1.01-4.2c0.61-0.61,1.6-0.6,2.21,0.01
			c0.6,0.61,0.6,1.6-0.02,2.21c-0.15,0.14-0.26,0.62-0.12,1.47c0.71,4.26,4.52,7.94,9.05,8.75c4.43,0.8,9.16-0.98,11.76-4.42
			c0.43-0.56,1.17-0.76,1.82-0.51c0.56-0.3,1.08-0.5,1.42-0.64c6.24-2.44,12.79-3.94,19.47-4.45c5.36-0.42,8.94,0.88,10.62,3.85
			c0.8,1.42,1.08,3.17,0.83,5.19c-0.32,2.58-1.44,5.08-3.15,7.05c-1.65,1.9-3.77,3.24-5.81,4.41
			C178.26,276.14,173.48,278.48,168.29,278.48z M159,262.11c-0.69,2.63-1.05,4.91-0.43,7.04c1.15,3.95,5.59,6.11,9.39,6.2
			c4.58,0.11,9.02-2.07,12.37-3.99c1.8-1.03,3.66-2.2,5-3.75c1.3-1.5,2.16-3.41,2.41-5.39c0.12-0.92,0.13-2.24-0.45-3.27
			c-1.28-2.27-4.87-2.49-7.66-2.27c-6.37,0.49-12.62,1.92-18.57,4.25C160.06,261.33,159.38,261.72,159,262.11z"/>
	</g>
	<g>
		<path class="st1" d="M183.59,289.03c-2.43,0-4.72-0.58-6.66-1.72c-3.79-2.23-6.07-6.67-5.67-11.05c0.08-0.86,0.84-1.48,1.69-1.41
			c0.86,0.08,1.49,0.84,1.41,1.69c-0.28,3.15,1.42,6.48,4.15,8.08c2.64,1.56,6.24,1.71,9.86,0.42c3.41-1.21,6.38-3.42,9.38-5.76
			c4.27-3.34,8.27-7.08,8.63-11.79c0.02-0.28,0.04-0.68-0.06-0.92c-0.1-0.22-0.39-0.48-0.87-0.77c-2.26-1.35-5.31-1.69-8.58-0.95
			c-2.9,0.66-5.26,1.88-8,3.29l-0.46,0.24c-0.77,0.39-1.71,0.09-2.1-0.67c-0.4-0.77-0.09-1.71,0.67-2.1l0.46-0.24
			c2.81-1.45,5.46-2.82,8.75-3.57c4.06-0.92,7.92-0.45,10.87,1.31c0.68,0.41,1.64,1.08,2.13,2.21c0.37,0.86,0.36,1.74,0.31,2.4
			c-0.46,5.92-4.99,10.23-9.82,14.01c-3.08,2.41-6.41,4.87-10.25,6.24C187.45,288.68,185.48,289.03,183.59,289.03z"/>
	</g>
	<g>
		<path class="st1" d="M201.79,293.47c-2.23,0-4.46-0.51-6.45-1.5c-2.32-1.15-4.73-3.46-4.54-6.47c0.05-0.86,0.8-1.51,1.66-1.46
			c0.86,0.05,1.51,0.8,1.46,1.66c-0.09,1.49,1.46,2.8,2.81,3.48c2.13,1.06,4.59,1.42,6.93,1.02c3.72-0.63,6.93-3.06,9.59-5.36
			c3-2.59,4.28-4.74,4.03-6.75c-0.29-2.35-2.85-3.94-5.06-4.06c-2.21-0.12-4.5,0.79-7.17,2.88c-0.68,0.53-1.66,0.41-2.19-0.27
			c-0.53-0.68-0.41-1.66,0.27-2.19c2.08-1.62,5.31-3.76,9.27-3.54c3.54,0.2,7.5,2.79,7.99,6.8c0.5,4.12-2.66,7.39-5.09,9.49
			c-2.81,2.43-6.6,5.31-11.11,6.08C203.39,293.4,202.59,293.47,201.79,293.47z"/>
	</g>
	<g>
		<path class="st1" d="M158.09,260.67c-0.74,0-1.4-0.53-1.54-1.29c-0.55-3.19-4.06-5.11-6.1-5.97c-5.96-2.51-11.15-2.43-15.4,0.24
			c-0.7,0.44-1.61,0.26-2.1-0.41c-5.96-8.28-13.4-14.39-22.11-18.19c-0.79-0.34-1.15-1.26-0.81-2.05c0.34-0.79,1.26-1.15,2.05-0.81
			c8.83,3.85,16.41,9.93,22.56,18.09c4.9-2.53,10.61-2.45,17.01,0.24c4.54,1.91,7.36,4.86,7.96,8.31c0.15,0.85-0.42,1.66-1.27,1.8
			C158.27,260.66,158.18,260.67,158.09,260.67z"/>
	</g>
	<g>
		<path class="st1" d="M135.55,165.66c-0.71,0-1.35-0.49-1.52-1.21c-0.19-0.84,0.33-1.68,1.17-1.87
			c17.25-3.99,33.12-9.47,46.37-14.31l1.19-0.43c5.03-1.85,10.24-3.76,15.73-4.36c12.65-1.39,24.31,4.04,34.59,8.84
			c0.78,0.36,1.12,1.29,0.75,2.07c-0.36,0.78-1.29,1.12-2.07,0.75c-9.91-4.62-21.16-9.87-32.93-8.56
			c-5.11,0.56-10.13,2.4-14.99,4.19l-1.19,0.44c-13.34,4.87-29.32,10.39-46.74,14.42C135.79,165.64,135.67,165.66,135.55,165.66z"/>
	</g>
	<g>
		<path class="st1" d="M166.48,138.61c-0.52,0-1.02-0.26-1.32-0.73c-0.46-0.73-0.24-1.69,0.48-2.15
			c14.17-8.97,31.2-13.38,47.94-12.44c0.86,0.05,1.52,0.79,1.47,1.65c-0.05,0.86-0.77,1.52-1.65,1.47
			c-16.1-0.91-32.47,3.34-46.1,11.97C167.05,138.53,166.76,138.61,166.48,138.61z"/>
	</g>
	<g>
		<path class="st1" d="M156.7,123.36c-0.51,0-1.01-0.25-1.31-0.71c-0.47-0.72-0.26-1.69,0.46-2.16c8.38-5.45,18-9.24,27.84-10.97
			c0.85-0.15,1.66,0.42,1.81,1.27c0.15,0.85-0.42,1.66-1.27,1.81c-9.43,1.66-18.65,5.29-26.68,10.51
			C157.29,123.28,156.99,123.36,156.7,123.36z"/>
	</g>
	<g>
		<path class="st1" d="M256.5,294.57c-0.84,0-1.53-0.67-1.56-1.51c-0.03-0.86,0.65-1.58,1.51-1.61c9.08-0.28,17.95-3.61,24.97-9.38
			c0.67-0.55,1.65-0.45,2.2,0.22c0.55,0.67,0.45,1.65-0.22,2.2c-7.55,6.2-17.09,9.79-26.86,10.09
			C256.54,294.57,256.52,294.57,256.5,294.57z"/>
	</g>
</g>
</svg>
