<?xml version="1.0" encoding="utf-8"?>
<!-- Generator: Adobe Illustrator 25.0.0, SVG Export Plug-In . SVG Version: 6.00 Build 0)  -->
<svg version="1.1" id="Capa_1" xmlns="http://www.w3.org/2000/svg" xmlns:xlink="http://www.w3.org/1999/xlink" x="0px" y="0px"
	 viewBox="0 0 425.2 425.2" style="enable-background:new 0 0 425.2 425.2;" xml:space="preserve">
<style type="text/css">
	.st0{fill:#FFFFFF;}
	.st1{fill:#020203;}
	.st2{fill:#E30613;stroke:#231F20;stroke-width:0.25;stroke-miterlimit:10;}
	.st3{opacity:0.1294;}
	.st4{fill:#AD7A15;}
	.st5{fill:#E20E17;}
</style>
<g>
	<g>
		<path class="st0" d="M351,84.2c0.81,71.58,0,144.23,0,217.24c-214.04,0-217.08,0.57-281.21-0.3
			c-1.14-72.56-1.52-155.35,0.36-216.21C137.51,84.93,262.03,83.17,351,84.2z"/>
		<path class="st1" d="M140.79,302.39c-26.92,0-43.26-0.11-71.01-0.48c-0.41-0.01-0.74-0.34-0.75-0.75
			c-0.8-50.55-1.81-145.85,0.36-216.25c0.01-0.41,0.35-0.74,0.76-0.74c23.43,0,54.38-0.22,87.15-0.45
			c63.6-0.45,135.69-0.95,193.72-0.28c0.41,0,0.75,0.34,0.75,0.75c0.54,47.66,0.36,96.73,0.18,144.19
			c-0.09,23.92-0.18,48.66-0.18,73.06c0,0.42-0.34,0.76-0.76,0.76c-78.89,0-128.26,0.08-164.3,0.13
			C167.75,302.36,153.15,302.39,140.79,302.39z M70.53,300.39c39.95,0.54,56.3,0.51,116.16,0.42c35.93-0.06,85.1-0.13,163.54-0.13
			c0-24.16,0.09-48.63,0.18-72.31c0.18-47.2,0.36-96.01-0.17-143.42c-57.88-0.66-129.62-0.16-192.94,0.28
			c-32.43,0.23-63.07,0.44-86.42,0.45C68.75,155.64,69.74,249.85,70.53,300.39z"/>
	</g>
	<g>
		<path class="st1" d="M351.22,110.06c-0.01,0-0.01,0-0.02,0c-66.03-1.68-195.04-1.68-272.12-1.67h-9.3c-0.42,0-0.76-0.34-0.76-0.76
			c0-0.42,0.34-0.76,0.76-0.76h9.3c77.09-0.02,206.11-0.01,272.16,1.67c0.42,0.01,0.75,0.36,0.74,0.78
			C351.97,109.73,351.63,110.06,351.22,110.06z"/>
	</g>
	<g>
		<path class="st1" d="M99.94,194.43c-0.13,0-0.26-0.03-0.38-0.1c-0.36-0.21-0.49-0.67-0.28-1.04
			c10.22-17.75,19.79-35.15,29.28-53.22c0.13-0.24,0.38-0.4,0.66-0.41c0.3-0.01,0.53,0.14,0.67,0.38l0.1,0.18
			c5.66,9.72,11.51,19.77,17.4,30.02c10.76-12.5,21.48-24.77,32.82-37.73l2.9-3.32c0.17-0.2,0.43-0.29,0.69-0.25
			c0.26,0.04,0.48,0.21,0.58,0.45c5.12,11.66,10.42,23.7,16.08,36.22l19.87-18.34c0.4-0.37,0.96-0.89,1.73-1
			c1.68-0.25,2.76,1.5,3.11,2.08c4.16,6.75,8.08,13.64,11.88,20.3c2.2,3.86,4.29,7.52,6.37,11.08
			c7.63-13.92,15.72-27.79,24.08-41.27c0.22-0.36,0.69-0.47,1.05-0.25c0.36,0.22,0.47,0.69,0.25,1.05
			c-8.57,13.83-16.88,28.08-24.68,42.37c-0.13,0.24-0.38,0.39-0.65,0.4c-0.29-0.01-0.53-0.14-0.67-0.37
			c-2.32-3.93-4.62-7.97-7.06-12.25c-3.79-6.65-7.71-13.52-11.85-20.25c-0.6-0.98-1.13-1.44-1.59-1.37
			c-0.29,0.04-0.59,0.31-0.93,0.62l-20.64,19.06c-0.18,0.16-0.43,0.24-0.67,0.19c-0.24-0.05-0.44-0.21-0.54-0.43
			c-5.66-12.48-10.94-24.48-16.04-36.1l-2.12,2.42c-11.58,13.24-22.51,25.75-33.51,38.54c-0.16,0.19-0.4,0.28-0.65,0.26
			c-0.25-0.02-0.46-0.16-0.59-0.38c-5.87-10.21-11.7-20.23-17.35-29.94c-9.28,17.64-18.67,34.69-28.67,52.05
			C100.46,194.3,100.2,194.43,99.94,194.43z"/>
	</g>
	<g>
		<path class="st1" d="M131.64,204.8c-0.25,0-0.5-0.13-0.65-0.36c-1.08-1.73-2.15-3.44-3.23-5.15c-0.22-0.36-0.12-0.82,0.24-1.05
			c0.35-0.22,0.83-0.12,1.05,0.24c1.07,1.71,2.15,3.43,3.23,5.15c0.22,0.36,0.11,0.82-0.24,1.05
			C131.91,204.77,131.78,204.8,131.64,204.8z M152.4,204.73c-0.19,0-0.38-0.07-0.52-0.21c-0.3-0.29-0.32-0.77-0.03-1.07
			c1.39-1.47,2.78-2.95,4.16-4.43c0.29-0.31,0.77-0.32,1.07-0.04c0.31,0.29,0.32,0.77,0.04,1.07c-1.39,1.48-2.78,2.96-4.17,4.43
			C152.8,204.65,152.6,204.73,152.4,204.73z M134.29,202.31c-0.1,0-0.21-0.02-0.31-0.07c-0.38-0.17-0.56-0.62-0.38-1
			c0.82-1.84,1.68-3.71,2.55-5.54c0.18-0.38,0.63-0.54,1.01-0.36c0.38,0.18,0.54,0.63,0.36,1.01c-0.87,1.82-1.72,3.67-2.54,5.5
			C134.86,202.14,134.58,202.31,134.29,202.31z M233.34,201.92c-0.27,0-0.53-0.14-0.67-0.39l-1.55-2.8c-0.2-0.37-0.07-0.83,0.3-1.03
			c0.37-0.2,0.83-0.07,1.03,0.3l1.55,2.81c0.2,0.37,0.07,0.83-0.3,1.03C233.59,201.89,233.46,201.92,233.34,201.92z M149.13,200.48
			c-0.25,0-0.5-0.13-0.64-0.35c-1.13-1.8-2.25-3.51-3.29-5.1c-0.23-0.35-0.13-0.82,0.22-1.05c0.35-0.23,0.82-0.13,1.05,0.22
			c1.04,1.59,2.16,3.31,3.3,5.12c0.22,0.35,0.12,0.82-0.24,1.05C149.41,200.44,149.27,200.48,149.13,200.48z M160.71,195.86
			c-0.19,0-0.37-0.07-0.52-0.2c-0.31-0.29-0.33-0.77-0.04-1.07c1.38-1.49,2.75-2.97,4.13-4.46c0.29-0.31,0.77-0.33,1.07-0.04
			c0.31,0.28,0.33,0.77,0.04,1.07c-1.37,1.49-2.75,2.98-4.13,4.46C161.12,195.77,160.91,195.86,160.71,195.86z M125.17,194.51
			c-0.25,0-0.5-0.13-0.64-0.35c-1.09-1.72-2.17-3.43-3.25-5.13c-0.23-0.35-0.12-0.82,0.23-1.05c0.35-0.23,0.82-0.12,1.05,0.23
			c1.08,1.7,2.17,3.42,3.26,5.13c0.22,0.35,0.12,0.82-0.24,1.05C125.45,194.47,125.31,194.51,125.17,194.51z M228.86,193.79
			c-0.27,0-0.53-0.14-0.67-0.39l-2.93-5.33c-0.2-0.37-0.07-0.83,0.3-1.03c0.37-0.2,0.83-0.07,1.03,0.3l2.93,5.33
			c0.2,0.37,0.07,0.83-0.3,1.03C229.11,193.76,228.98,193.79,228.86,193.79z M139.53,191.34c-0.12,0-0.23-0.03-0.34-0.08
			c-0.37-0.19-0.52-0.65-0.33-1.02c0.54-1.07,1.1-2.13,1.66-3.18c0.13-0.24,0.37-0.39,0.65-0.4c0.29-0.01,0.53,0.13,0.67,0.36
			c0.44,0.7,0.88,1.4,1.33,2.11c0.23,0.35,0.12,0.82-0.23,1.05c-0.35,0.23-0.82,0.12-1.05-0.23c-0.21-0.33-0.43-0.67-0.64-1
			c-0.35,0.66-0.69,1.33-1.03,2C140.07,191.19,139.8,191.34,139.53,191.34z M168.96,186.92c-0.18,0-0.37-0.07-0.51-0.2
			c-0.31-0.28-0.33-0.76-0.05-1.07c1.37-1.49,2.74-2.99,4.11-4.48c0.28-0.31,0.76-0.33,1.07-0.05c0.31,0.28,0.33,0.76,0.05,1.07
			c-1.37,1.49-2.74,2.99-4.11,4.48C169.37,186.84,169.16,186.92,168.96,186.92z M118.65,184.25c-0.25,0-0.5-0.12-0.64-0.35
			c-1.09-1.71-2.18-3.42-3.27-5.12c-0.23-0.35-0.12-0.82,0.23-1.05c0.35-0.23,0.82-0.12,1.05,0.23c1.09,1.7,2.18,3.41,3.28,5.12
			c0.23,0.35,0.12,0.82-0.23,1.05C118.93,184.21,118.79,184.25,118.65,184.25z M222.99,183.14c-0.27,0-0.53-0.14-0.67-0.39
			l-2.93-5.33c-0.2-0.37-0.07-0.83,0.3-1.03c0.37-0.2,0.83-0.07,1.03,0.3l2.93,5.33c0.2,0.37,0.07,0.83-0.3,1.03
			C223.24,183.11,223.12,183.14,222.99,183.14z M177.16,177.95c-0.18,0-0.37-0.07-0.51-0.2c-0.31-0.28-0.33-0.76-0.05-1.07l4.1-4.49
			c0.28-0.31,0.77-0.33,1.07-0.05c0.31,0.28,0.33,0.76,0.05,1.07l-4.1,4.49C177.58,177.86,177.37,177.95,177.16,177.95z
			 M112.09,174.01c-0.25,0-0.5-0.12-0.64-0.35l-3.28-5.12c-0.23-0.35-0.12-0.82,0.23-1.05c0.35-0.23,0.82-0.12,1.05,0.23l3.28,5.12
			c0.23,0.35,0.12,0.82-0.23,1.05C112.37,173.97,112.23,174.01,112.09,174.01z M217.12,172.49c-0.27,0-0.53-0.14-0.67-0.39
			l-2.93-5.33c-0.2-0.37-0.07-0.83,0.3-1.03c0.37-0.2,0.83-0.07,1.03,0.3l2.93,5.33c0.2,0.37,0.07,0.83-0.3,1.03
			C217.37,172.46,217.25,172.49,217.12,172.49z M185.36,168.96c-0.18,0-0.37-0.07-0.51-0.2c-0.31-0.28-0.33-0.76-0.05-1.07
			c1.37-1.5,2.74-3,4.1-4.49c0.28-0.31,0.76-0.33,1.07-0.05c0.31,0.28,0.33,0.76,0.05,1.07c-1.37,1.49-2.73,2.99-4.1,4.49
			C185.77,168.88,185.57,168.96,185.36,168.96z M211.26,161.84c-0.27,0-0.53-0.14-0.67-0.39l-2.93-5.33
			c-0.2-0.37-0.07-0.83,0.3-1.03c0.37-0.2,0.83-0.07,1.03,0.3l2.93,5.33c0.2,0.37,0.07,0.83-0.3,1.03
			C211.51,161.81,211.38,161.84,211.26,161.84z M193.57,159.98c-0.18,0-0.37-0.07-0.51-0.2c-0.31-0.28-0.33-0.76-0.05-1.07
			c1.37-1.5,2.75-2.99,4.12-4.48c0.28-0.31,0.77-0.33,1.07-0.04c0.31,0.28,0.33,0.77,0.04,1.07c-1.37,1.49-2.74,2.98-4.12,4.47
			C193.98,159.9,193.77,159.98,193.57,159.98z M205.39,151.19c-0.27,0-0.53-0.14-0.67-0.39l-0.87-1.59
			c-0.49,0.53-0.98,1.06-1.48,1.59c-0.29,0.31-0.77,0.32-1.07,0.04c-0.31-0.29-0.33-0.77-0.04-1.07c0.73-0.79,1.46-1.57,2.19-2.36
			c0.17-0.18,0.41-0.27,0.65-0.24c0.24,0.03,0.45,0.17,0.57,0.39l1.38,2.51c0.2,0.37,0.07,0.83-0.3,1.03
			C205.64,151.16,205.51,151.19,205.39,151.19z"/>
	</g>
	<g>
		<g>
			<g>
				<path class="st0" d="M178.64,263.68c1.47-0.95,2.95-1.86,4.44-2.77c-10.72-19.56-31.16-25.48-43.81-26.38
					c-12.02,0.39-20.28,0.39-34.55,8.67c-3.6,2.09-9.22,7.27-13.96,15.11c1.72,1.11,3.45,2.21,5.17,3.33
					c4.19,2.71,8.39,5.42,12.57,8.16c5.79-10.67,17.26-16.1,30.83-16.1c13.63,0,22.43,8.94,27.21,18.52
					C170.47,269.23,174.49,266.36,178.64,263.68z"/>
				<path class="st1" d="M166.54,272.97c-0.06,0-0.12-0.01-0.17-0.02c-0.22-0.05-0.41-0.2-0.51-0.4c-3.37-6.76-11.3-18.1-26.53-18.1
					c-13.75,0-24.75,5.72-30.16,15.7c-0.1,0.19-0.28,0.32-0.48,0.37c-0.21,0.05-0.42,0.02-0.6-0.1c-3.43-2.25-6.88-4.48-10.32-6.7
					l-2.24-1.45c-1.72-1.11-3.44-2.22-5.16-3.32c-0.35-0.22-0.45-0.68-0.24-1.03c4.88-8.08,10.55-13.24,14.23-15.38
					c13.98-8.11,22.27-8.37,33.76-8.73l1.15-0.04c0.03,0,0.05,0,0.08,0c7.26,0.52,31.92,3.99,44.42,26.78
					c0.2,0.36,0.08,0.8-0.27,1.01c-1.63,0.99-3.08,1.89-4.42,2.76l0,0c-3.75,2.42-7.69,5.2-12.05,8.5
					C166.86,272.92,166.7,272.97,166.54,272.97z M139.32,252.93c15.45,0,23.73,11,27.48,18.13c4.11-3.09,7.85-5.71,11.43-8.02l0,0
					c1.18-0.76,2.44-1.55,3.83-2.4c-12.21-21.51-35.75-24.84-42.8-25.35l-1.11,0.04c-11.26,0.35-19.4,0.61-33.04,8.53
					c-3.27,1.89-8.65,6.73-13.31,14.22c1.52,0.97,3.03,1.95,4.54,2.93l2.24,1.45c3.22,2.08,6.44,4.17,9.65,6.26
					C114.05,258.67,125.33,252.93,139.32,252.93z M178.64,263.68L178.64,263.68L178.64,263.68z"/>
			</g>
			<g>
				<path class="st2" d="M128.65,336.1c0.78-4.56,1.66-9.11,2.61-13.63c-3.42-0.35-6.93-0.95-10.12-2.25
					c-2.93-1.2-5.59-3.24-7.81-5.53c-4.69-4.84-7.88-11.23-8.82-18.01c-0.53-3.86-0.2-7.7-0.02-11.6c0.11-2.3,0.4-4.47,0.84-6.51
					c-7.01-1.68-13.9-3.89-20.94-5.47c-2.92,10.45-3.46,23.3,1.23,38.14c6.56,20.77,25.85,28.43,41.58,30.93
					C127.64,340.13,128.13,338.11,128.65,336.1z"/>
				<path class="st1" d="M127.2,342.92c-0.04,0-0.08,0-0.12-0.01c-15.49-2.46-35.38-9.92-42.18-31.45
					c-4.24-13.4-4.65-26.38-1.24-38.58c0.11-0.39,0.5-0.62,0.9-0.54c3.85,0.86,7.71,1.93,11.45,2.96c3.11,0.86,6.32,1.75,9.51,2.51
					c0.4,0.1,0.65,0.5,0.57,0.9c-0.45,2.08-0.73,4.23-0.83,6.39c-0.03,0.6-0.06,1.2-0.09,1.8c-0.17,3.32-0.34,6.46,0.1,9.66
					c0.91,6.55,3.96,12.8,8.61,17.59c2.38,2.46,4.99,4.31,7.56,5.36c2.64,1.08,5.79,1.78,9.91,2.2c0.21,0.02,0.41,0.13,0.54,0.31
					c0.13,0.17,0.17,0.39,0.13,0.6c-1.01,4.8-1.86,9.25-2.6,13.6c0,0.02-0.01,0.04-0.01,0.06c-0.55,2.13-1.03,4.1-1.44,6.03
					C127.87,342.68,127.55,342.92,127.2,342.92z M84.93,273.99c-3.12,11.7-2.65,24.15,1.42,37.01
					c6.47,20.47,25.31,27.78,40.27,30.29c0.38-1.72,0.81-3.48,1.3-5.36c0.7-4.12,1.5-8.32,2.44-12.81c-3.86-0.44-6.9-1.15-9.49-2.22
					c-2.79-1.15-5.51-3.07-8.07-5.71c-4.87-5.02-8.08-11.57-9.03-18.44c-0.46-3.34-0.29-6.7-0.12-9.94c0.03-0.6,0.06-1.19,0.09-1.79
					c0.09-1.99,0.33-3.98,0.71-5.91c-2.97-0.73-5.95-1.55-8.84-2.35C92.11,275.81,88.51,274.81,84.93,273.99z M128.65,336.1
					L128.65,336.1L128.65,336.1z"/>
			</g>
			<g>
				<path class="st0" d="M188.89,277.47c-6.36,1.09-12.72,2.21-19.01,3.74c0.55,2.18,0.9,4.25,1.03,6.09
					c0.11,1.51-0.02,4.04-0.37,6.05c-0.63,3.63-1.76,7.27-3.14,10.67c-2.49,6.15-6.37,12.16-12.33,15.17
					c-3.42,1.73-7.05,2.62-10.81,3.09c-0.51,0.06-1.03,0.12-1.55,0.17c0.25,2.35,0.5,4.71,0.75,7.06c0.49,4.54,1,9.07,1.51,13.61
					c0.4-0.02,0.78-0.05,1.13-0.08c30.03-2.59,44.07-34.5,44.07-51.24C190.17,286.57,189.71,281.81,188.89,277.47z"/>
				<path class="st1" d="M144.97,343.88c-0.38,0-0.71-0.29-0.75-0.67l-0.03-0.3c-0.5-4.44-1-8.87-1.48-13.31
					c-0.21-1.94-0.42-3.89-0.62-5.83l-0.13-1.23c-0.02-0.2,0.04-0.4,0.17-0.56c0.13-0.16,0.31-0.26,0.51-0.28
					c0.51-0.05,1.02-0.1,1.53-0.17c4.17-0.53,7.53-1.48,10.56-3.02c4.99-2.52,9.02-7.49,11.97-14.78c1.47-3.64,2.52-7.18,3.1-10.52
					c0.32-1.85,0.48-4.32,0.36-5.87c-0.13-1.85-0.47-3.86-1.01-5.96c-0.05-0.2-0.02-0.41,0.09-0.58c0.1-0.17,0.27-0.3,0.47-0.35
					c6.35-1.54,12.9-2.7,19.06-3.75c0.41-0.07,0.8,0.2,0.87,0.61c0.86,4.53,1.29,9.4,1.29,14.47c0,9.57-4.28,21.88-10.91,31.37
					c-6.01,8.6-16.76,19.16-33.85,20.63c-0.36,0.03-0.74,0.06-1.15,0.08C145,343.88,144.98,343.88,144.97,343.88z M143.54,323.14
					l0.05,0.47c0.21,1.94,0.41,3.89,0.62,5.83c0.46,4.3,0.95,8.59,1.43,12.88c0.13-0.01,0.26-0.02,0.39-0.03
					c16.51-1.42,26.91-11.66,32.74-19.99c7.85-11.23,10.64-23.45,10.64-30.5c0-4.7-0.38-9.23-1.13-13.46
					c-5.68,0.97-11.66,2.04-17.47,3.42c0.45,1.92,0.74,3.76,0.87,5.48c0.12,1.66-0.04,4.28-0.38,6.24
					c-0.6,3.44-1.67,7.08-3.19,10.82c-3.09,7.64-7.36,12.88-12.69,15.57c-3.19,1.61-6.71,2.62-11.06,3.17
					C144.08,323.07,143.81,323.11,143.54,323.14z"/>
			</g>
			<g>
				<path class="st1" d="M151.66,339.01c-0.06,0-0.13-0.02-0.18-0.07l-3.83-3.74c-0.1-0.1-0.1-0.26,0-0.36c0.1-0.1,0.26-0.1,0.36,0
					l3.83,3.74c0.1,0.1,0.1,0.26,0,0.36C151.79,338.98,151.72,339.01,151.66,339.01z"/>
			</g>
			<g>
				<path class="st1" d="M156.74,337.99c-0.06,0-0.12-0.02-0.16-0.06c-3.46-2.93-6.87-6.03-10.12-9.2c-0.1-0.1-0.1-0.26,0-0.36
					c0.1-0.1,0.26-0.1,0.36,0c3.25,3.17,6.65,6.25,10.1,9.18c0.11,0.09,0.12,0.25,0.03,0.36
					C156.89,337.96,156.82,337.99,156.74,337.99z"/>
			</g>
			<g>
				<path class="st1" d="M161.35,336.05c-0.06,0-0.12-0.02-0.17-0.06l-12.68-11.41c-0.1-0.09-0.11-0.25-0.02-0.36
					c0.1-0.1,0.25-0.11,0.36-0.02l12.68,11.41c0.1,0.09,0.11,0.25,0.02,0.36C161.49,336.02,161.42,336.05,161.35,336.05z"/>
			</g>
			<g>
				<path class="st1" d="M166.35,332.81c-0.05,0-0.11-0.02-0.16-0.05c-4.01-3.11-7.93-6.43-11.66-9.87
					c-0.1-0.09-0.11-0.25-0.01-0.36c0.09-0.1,0.26-0.11,0.36-0.01c3.72,3.43,7.63,6.74,11.63,9.84c0.11,0.09,0.13,0.24,0.04,0.36
					C166.5,332.78,166.42,332.81,166.35,332.81z"/>
			</g>
			<g>
				<path class="st1" d="M170.44,329.02c-0.05,0-0.1-0.01-0.14-0.04c-4.1-2.77-8.11-5.77-11.92-8.92c-0.11-0.09-0.12-0.25-0.03-0.36
					c0.09-0.11,0.25-0.12,0.36-0.03c3.8,3.14,7.8,6.13,11.88,8.89c0.12,0.08,0.15,0.24,0.07,0.35
					C170.6,328.98,170.52,329.02,170.44,329.02z"/>
			</g>
			<g>
				<path class="st1" d="M174.12,325.28c-0.05,0-0.1-0.01-0.14-0.05c-3.83-2.67-7.64-5.47-11.33-8.32
					c-0.11-0.09-0.13-0.24-0.05-0.36c0.09-0.11,0.25-0.13,0.36-0.05c3.68,2.85,7.49,5.64,11.31,8.3c0.11,0.08,0.14,0.24,0.06,0.35
					C174.27,325.25,174.2,325.28,174.12,325.28z"/>
			</g>
			<g>
				<path class="st1" d="M177.21,321.01c-0.05,0-0.09-0.01-0.14-0.04c-3.87-2.44-7.76-4.95-11.58-7.47
					c-0.12-0.08-0.15-0.23-0.07-0.35c0.08-0.12,0.23-0.15,0.35-0.07c3.81,2.52,7.7,5.03,11.57,7.47c0.12,0.07,0.15,0.23,0.08,0.35
					C177.38,320.96,177.3,321.01,177.21,321.01z"/>
			</g>
			<g>
				<path class="st1" d="M179.81,316.28c-0.04,0-0.09-0.01-0.13-0.04l-10.97-6.48c-0.12-0.07-0.16-0.23-0.09-0.35
					c0.07-0.12,0.23-0.16,0.35-0.09l10.97,6.48c0.12,0.07,0.16,0.23,0.09,0.35C179.99,316.23,179.9,316.28,179.81,316.28z"/>
			</g>
			<g>
				<path class="st1" d="M181.81,311.94c-0.04,0-0.08-0.01-0.12-0.03l-11.24-6.25c-0.12-0.07-0.17-0.22-0.1-0.34
					c0.07-0.12,0.22-0.17,0.34-0.1l11.24,6.25c0.12,0.07,0.17,0.22,0.1,0.34C181.99,311.89,181.9,311.94,181.81,311.94z"/>
			</g>
			<g>
				<path class="st1" d="M183.91,307.13c-0.04,0-0.08-0.01-0.12-0.03l-11.3-6.2c-0.12-0.07-0.17-0.22-0.1-0.34
					c0.07-0.12,0.22-0.17,0.34-0.1l11.3,6.2c0.12,0.07,0.17,0.22,0.1,0.34C184.09,307.09,184,307.13,183.91,307.13z"/>
			</g>
			<g>
				<path class="st1" d="M185.58,302.47c-0.04,0-0.09-0.01-0.13-0.03c-3.99-2.32-8.07-4.61-12.15-6.79
					c-0.12-0.07-0.17-0.22-0.1-0.34c0.07-0.12,0.22-0.17,0.34-0.1c4.08,2.19,8.17,4.48,12.17,6.8c0.12,0.07,0.16,0.23,0.09,0.35
					C185.75,302.43,185.67,302.47,185.58,302.47z"/>
			</g>
			<g>
				<path class="st1" d="M186.57,296.91c-0.04,0-0.07-0.01-0.11-0.03l-12.72-6.14c-0.13-0.06-0.18-0.21-0.12-0.34
					c0.06-0.13,0.21-0.18,0.34-0.12l12.72,6.14c0.13,0.06,0.18,0.21,0.12,0.34C186.76,296.86,186.67,296.91,186.57,296.91z"/>
			</g>
			<g>
				<path class="st1" d="M186.67,291.72c-0.04,0-0.07-0.01-0.11-0.02c-4.31-2.03-8.66-4.13-12.93-6.26
					c-0.13-0.06-0.18-0.21-0.11-0.34c0.06-0.13,0.22-0.18,0.34-0.11c4.26,2.12,8.61,4.22,12.92,6.25c0.13,0.06,0.18,0.21,0.12,0.34
					C186.86,291.66,186.77,291.72,186.67,291.72z"/>
			</g>
			<g>
				<path class="st1" d="M186.66,286.59c-0.03,0-0.07-0.01-0.1-0.02c-2.8-1.25-5.56-2.67-8.22-4.21c-0.12-0.07-0.16-0.23-0.09-0.35
					c0.07-0.12,0.23-0.16,0.35-0.09c2.64,1.53,5.39,2.94,8.17,4.19c0.13,0.06,0.18,0.21,0.13,0.33
					C186.85,286.54,186.76,286.59,186.66,286.59z"/>
			</g>
			<g>
				<path class="st1" d="M186.39,282.17c-0.03,0-0.07-0.01-0.1-0.02l-2.3-1.02c-0.13-0.06-0.19-0.21-0.13-0.33
					c0.06-0.13,0.21-0.19,0.33-0.13l2.3,1.02c0.13,0.06,0.19,0.21,0.13,0.33C186.58,282.12,186.49,282.17,186.39,282.17z"/>
			</g>
			<g class="st3">
				<path class="st1" d="M193.63,289.46c-0.29-3.19-0.75-6.38-1.77-9.43c-0.34-0.85-0.41-1.96-1.29-2.46
					c-0.51-0.32-1.1-0.31-1.6-0.09c-0.04-0.05-0.08-0.11-0.13-0.16c-0.81-0.86-2.35-0.27-2.44,0.87c-1.31-0.07-2.43,1.34-2.03,2.62
					c0.82,3.24,0.77,4.93,0.7,8.96c-0.03,4.21-1.29,10.44-3.9,17.14c-1.11,3.04-1.32,3.44-2.91,6.6c-1.58,3.44-4.24,8.26-5.6,9.68
					c-0.58,0.71-1.17,1.41-1.77,2.09c-3.05,3.14-5.16,4.79-8.8,6.97c-3.82,2.24-6.28,3.5-9.93,4.6c-3.17,0.83-4.23,0.85-5.55,0.91
					c-0.87-0.23-1.97,0.09-2.28,0.98c-0.2,0.4-0.18,0.88,0,1.3c-0.82,1.51,0.71,3.48,2.4,2.95c0.9-0.31,0.64-0.31,1.23-0.56
					c0.78-0.28,1.62-0.37,2.42-0.59c0.94-0.27,1.84-0.66,2.8-0.87c0.16-0.04,0.33-0.07,0.5-0.09c1.4-0.12,2.82-0.17,4.18-0.59
					c3.84-1.2,9.47-4.84,13.36-8.88c2.52-2.49,4.95-5.11,6.94-8.05c1.82-2.71,3.15-5.71,4.64-8.6c1.48-2.76,2.58-5.7,3.64-8.65
					c1.13-3.05,2.13-6.15,2.65-9.36c0.57-3.21,0.68-6.49,0.44-9.75c0.06-0.11,0.09-0.23,0.12-0.35c0.15,1.17,0.24,2.41,0.31,3.91
					c0.09,2.65,0.05,6.37-0.28,7.65c-0.09,0.13-0.17,0.27-0.23,0.42c-0.4,0.75-0.39,1.72,0.19,2.37c1.53,1.93,4.24,0.32,3.91-1.79
					c0-0.01,0-0.01,0-0.02c0.02-0.24,0.01-0.48,0.01-0.73c0.03-0.21,0.06-0.42,0.09-0.63C193.91,295.06,193.83,292.25,193.63,289.46
					z"/>
			</g>
			<g class="st3">
				<path class="st1" d="M181.49,260.18c-1.61-4.4-4.07-8.75-7.62-11.87c-1.61-1.55-3.96,0.8-2.41,2.41
					c2.11,1.55,3.9,5.65,4.48,7.06c0.59,1.5,1.19,3.01,1.63,4.56C178.54,265.58,183.29,263.99,181.49,260.18z"/>
			</g>
			<g class="st3">
				<path class="st1" d="M126.77,337.2c-3.08,0.29-3.24-0.05-6.27-0.66c-2.59-0.68-5.2-1.25-7.76-1.99
					c-2.19-0.54-5.46-1.87-6.41-2.09c-1.6-0.29-2.39,2.04-0.96,2.81c1.58,0.85,3.11,1.79,4.76,2.5c1.37,0.6,2.84,0.93,4.24,1.43
					c3.04,1.2,6.2,2.07,9.46,2.34c0.97,0.08,1.96,0.04,2.92-0.11c0.46-0.05,0.95-0.12,1.29-0.46
					C129.66,339.84,128.73,337.15,126.77,337.2z"/>
			</g>
		</g>
		<g class="st3">
			<path class="st1" d="M108.58,297.74c-0.31-1.63-0.71-4.03-0.69-4.16c-0.39-4.6-0.46-9.23-0.29-13.84c-0.05-2.12-3.17-2.13-3.23,0
				c-0.12,4.12-0.36,8.24-0.31,12.36c0.13,2.75,0.7,5.46,1.17,8.17c0.41,1.62,2.72,1.92,3.53,0.46
				C109.35,299.76,108.73,298.74,108.58,297.74z"/>
		</g>
	</g>
	<g>
		<g>
			<path class="st1" d="M228.57,286.75c-4.93,0-8.94-3.77-8.94-8.4c0-4.63,4.01-8.4,8.94-8.4s8.94,3.77,8.94,8.4
				C237.52,282.98,233.51,286.75,228.57,286.75z M228.57,271.91c-3.85,0-6.98,2.89-6.98,6.44c0,3.55,3.13,6.44,6.98,6.44
				c3.85,0,6.98-2.89,6.98-6.44C235.56,274.8,232.43,271.91,228.57,271.91z"/>
		</g>
		<g>
			<path class="st1" d="M252.35,228.16c-4.93,0-8.94-3.77-8.94-8.4c0-4.63,4.01-8.4,8.94-8.4s8.94,3.77,8.94,8.4
				C261.3,224.39,257.29,228.16,252.35,228.16z M252.35,213.32c-3.85,0-6.98,2.89-6.98,6.44c0,3.55,3.13,6.44,6.98,6.44
				c3.85,0,6.98-2.89,6.98-6.44C259.34,216.21,256.21,213.32,252.35,213.32z"/>
		</g>
		<g>
			<g>
				<path class="st4" d="M292.9,257.02c-4.94,0-8.96-3.78-8.96-8.42s4.02-8.42,8.96-8.42s8.96,3.78,8.96,8.42
					S297.84,257.02,292.9,257.02z"/>
				<path class="st0" d="M292.9,241.18c4.4,0,7.96,3.32,7.96,7.42c0,4.1-3.57,7.42-7.96,7.42c-4.4,0-7.96-3.32-7.96-7.42
					C284.93,244.5,288.5,241.18,292.9,241.18 M292.9,239.18c-5.49,0-9.96,4.23-9.96,9.42c0,5.19,4.47,9.42,9.96,9.42
					c5.49,0,9.96-4.23,9.96-9.42C302.86,243.4,298.39,239.18,292.9,239.18L292.9,239.18z"/>
			</g>
			<path class="st1" d="M292.9,257c-4.93,0-8.94-3.77-8.94-8.4c0-4.63,4.01-8.4,8.94-8.4s8.94,3.77,8.94,8.4
				C301.84,253.23,297.83,257,292.9,257z M292.9,242.15c-3.85,0-6.98,2.89-6.98,6.44c0,3.55,3.13,6.44,6.98,6.44
				s6.98-2.89,6.98-6.44C299.88,245.04,296.75,242.15,292.9,242.15z"/>
		</g>
		<g>
			<path class="st1" d="M319.62,217.46c-4.93,0-8.94-3.77-8.94-8.4c0-4.63,4.01-8.4,8.94-8.4c4.93,0,8.94,3.77,8.94,8.4
				C328.56,213.69,324.55,217.46,319.62,217.46z M319.62,202.62c-3.85,0-6.98,2.89-6.98,6.44c0,3.55,3.13,6.44,6.98,6.44
				c3.85,0,6.98-2.89,6.98-6.44C326.6,205.51,323.47,202.62,319.62,202.62z"/>
		</g>
		<g>
			<path class="st1" d="M230.92,272.07c-0.12,0-0.25-0.02-0.37-0.07c-0.5-0.21-0.74-0.78-0.53-1.28l17.94-43.65
				c0.21-0.5,0.78-0.74,1.28-0.53c0.5,0.21,0.74,0.78,0.53,1.28l-17.94,43.65C231.67,271.84,231.31,272.07,230.92,272.07z"/>
		</g>
		<g>
			<path class="st1" d="M286.58,244.44c-0.2,0-0.41-0.06-0.58-0.19l-27.1-20.03c-0.43-0.32-0.53-0.93-0.21-1.37
				c0.32-0.43,0.93-0.53,1.37-0.21l27.1,20.03c0.43,0.32,0.53,0.93,0.21,1.37C287.17,244.3,286.88,244.44,286.58,244.44z"/>
		</g>
		<g>
			<path class="st1" d="M297.73,243.01c-0.2,0-0.39-0.06-0.57-0.18c-0.44-0.31-0.55-0.92-0.23-1.37l18.28-25.79
				c0.31-0.44,0.93-0.54,1.37-0.23c0.44,0.31,0.55,0.92,0.23,1.37l-18.28,25.79C298.34,242.86,298.04,243.01,297.73,243.01z"/>
		</g>
	</g>
	<g>
		<polygon class="st5" points="351.24,108.54 70.19,106.86 70.57,84.89 350.43,84.89 		"/>
	</g>
	<g>
		<g>
			<path class="st1" d="M337.05,103.69c-3.85,0-6.98-3.13-6.98-6.98c0-3.85,3.13-6.98,6.98-6.98s6.98,3.13,6.98,6.98
				C344.03,100.56,340.9,103.69,337.05,103.69z M337.05,91.25c-3.01,0-5.46,2.45-5.46,5.46s2.45,5.46,5.46,5.46
				c3.01,0,5.46-2.45,5.46-5.46S340.06,91.25,337.05,91.25z"/>
		</g>
		<g>
			<path class="st1" d="M309.94,103.69c-3.85,0-6.98-3.13-6.98-6.98c0-3.85,3.13-6.98,6.98-6.98c3.85,0,6.98,3.13,6.98,6.98
				C316.91,100.56,313.78,103.69,309.94,103.69z M309.94,91.25c-3.01,0-5.46,2.45-5.46,5.46s2.45,5.46,5.46,5.46
				c3.01,0,5.46-2.45,5.46-5.46S312.95,91.25,309.94,91.25z"/>
		</g>
		<g>
			<path class="st1" d="M281.34,103.69c-3.85,0-6.98-3.13-6.98-6.98c0-3.85,3.13-6.98,6.98-6.98s6.98,3.13,6.98,6.98
				C288.32,100.56,285.19,103.69,281.34,103.69z M281.34,91.25c-3.01,0-5.46,2.45-5.46,5.46s2.45,5.46,5.46,5.46
				c3.01,0,5.46-2.45,5.46-5.46S284.35,91.25,281.34,91.25z"/>
		</g>
	</g>
	<g>
		<circle class="st4" cx="281.34" cy="96.71" r="5.46"/>
	</g>
	<g>
		<circle class="st4" cx="309.94" cy="96.71" r="5.46"/>
	</g>
	<g>
		<circle class="st4" cx="337.05" cy="96.71" r="5.46"/>
	</g>
</g>
</svg>
