<?xml version="1.0" encoding="utf-8"?>
<!-- Generator: Adobe Illustrator 25.0.0, SVG Export Plug-In . SVG Version: 6.00 Build 0)  -->
<svg version="1.1" id="Capa_1" xmlns="http://www.w3.org/2000/svg" xmlns:xlink="http://www.w3.org/1999/xlink" x="0px" y="0px"
	 viewBox="0 0 425.2 425.2" style="enable-background:new 0 0 425.2 425.2;" xml:space="preserve">
<style type="text/css">
	.st0{opacity:0.3;fill-rule:evenodd;clip-rule:evenodd;fill:#020203;}
	.st1{opacity:0.3;fill:#020203;}
	.st2{fill:#AD7A15;stroke:#231F20;stroke-width:3;stroke-miterlimit:10;}
	.st3{fill:#FAFAFA;stroke:#231F20;stroke-width:3;stroke-miterlimit:10;}
	.st4{fill-rule:evenodd;clip-rule:evenodd;fill:#FFFFFF;stroke:#231F20;stroke-width:3;stroke-miterlimit:10;}
	.st5{fill-rule:evenodd;clip-rule:evenodd;fill:#E30613;}
	.st6{fill:#231F20;}
</style>
<g>
	<path class="st0" d="M163.33,138.94c-1.99-0.47-4.08-0.57-6.07-0.1c-1.8,0.43-3.45,1.3-4.76,2.61c-1.3,1.3-2.17,2.95-2.59,4.74
		c-0.47,2-0.37,4.09,0.1,6.07c1.14,4.81-1.87,9.68-6.67,10.82c-4.81,1.14-9.68-1.87-10.82-6.67c-1.12-4.73-1.22-9.63-0.1-14.37
		c1.2-5.05,3.74-9.64,7.41-13.31c3.66-3.66,8.25-6.19,13.29-7.38c4.74-1.12,9.63-1.02,14.36,0.1c4.81,1.14,7.81,6.01,6.67,10.82
		C173.01,137.08,168.14,140.08,163.33,138.94L163.33,138.94z M168.39,105.99c4.81,1.14,9.68-1.87,10.82-6.67
		c1.14-4.81-1.87-9.68-6.67-10.82c-10.02-2.38-20.41-2.63-30.45-0.25c-10.42,2.47-19.92,7.67-27.5,15.25
		c-7.59,7.58-12.8,17.09-15.28,27.52c-2.38,10.05-2.12,20.43,0.25,30.46c1.14,4.81,6.01,7.81,10.82,6.67
		c4.81-1.14,7.81-6.01,6.67-10.82c-1.73-7.28-1.99-14.86-0.25-22.16c1.7-7.17,5.24-13.73,10.46-18.95
		c5.23-5.22,11.79-8.77,18.97-10.47C153.54,104,161.11,104.26,168.39,105.99L168.39,105.99z M172.12,72.93
		c1.14-4.81-1.87-9.68-6.67-10.82c-12.7-3.01-25.88-3.35-38.62-0.33c-13.15,3.12-25.14,9.68-34.71,19.24
		c-9.58,9.57-16.15,21.57-19.27,34.73c-3.02,12.74-2.68,25.92,0.33,38.62c1.14,4.81,6.01,7.81,10.82,6.67
		c4.81-1.14,7.81-6.01,6.67-10.82c-2.36-9.97-2.7-20.33-0.33-30.33c2.35-9.9,7.24-18.95,14.45-26.16
		c7.21-7.21,16.27-12.12,26.18-14.47c10-2.37,20.36-2.03,30.33,0.33C166.11,80.75,170.99,77.74,172.12,72.93z"/>
	<path class="st0" d="M301.48,302.33l43.7,89.4H192.77v-0.02l-2.51,0l23.79-54.22c13.7-1.2,27.23-4.13,40.22-8.75
		c11.13-3.96,21.8-9.11,31.78-15.39C291.41,309.98,296.56,306.3,301.48,302.33z"/>
	<path class="st1" d="M348.35,203.58c4.03-31.5-2.19-64.06-18.67-92.29c-0.25-0.54-0.6-1.04-1.05-1.49c-2.05-2.05-5.38-2.05-7.43,0
		L128.22,302.79l0.01,0.01c-0.31,0.31-0.58,0.66-0.81,1.06c-1.46,2.49-0.63,5.7,1.87,7.16c18.74,11.02,39.41,17.51,60.42,19.47
		c21.22,1.98,42.8-0.68,63.1-7.96c10.03-3.6,19.7-8.29,28.82-14.08c8.92-5.66,17.34-12.37,25.1-20.13
		C330.5,264.53,344.38,234.58,348.35,203.58z"/>
	<g>
		<g>
			<g>
				<g>
					<path class="st2" d="M229.8,204.55l-32.21-32.21c0.66-2.03,1.01-4.14,1.01-6.25c0-5.18-1.98-10.35-5.93-14.3
						c-3.95-3.95-9.13-5.93-14.3-5.93c-5.18,0-10.35,1.98-14.3,5.93c-3.95,3.95-5.93,9.13-5.93,14.3c0,5.18,1.98,10.35,5.93,14.3
						c3.95,3.95,9.13,5.93,14.3,5.93c2.25,0,4.49-0.39,6.63-1.14l32.08,32.08c3.51,3.51,9.2,3.51,12.71,0
						C233.31,213.75,233.31,208.06,229.8,204.55z"/>
					<path class="st3" d="M343.43,201.89c3.94-30.8-2.14-62.64-18.25-90.24c-0.25-0.53-0.59-1.02-1.02-1.46
						c-2.01-2.01-5.26-2.01-7.26,0L128.18,298.9l0.01,0.01c-0.3,0.3-0.57,0.65-0.8,1.03c-1.43,2.44-0.61,5.57,1.83,7
						c18.32,10.77,38.53,17.12,59.08,19.04c20.75,1.93,41.85-0.66,61.7-7.78c9.81-3.52,19.26-8.11,28.18-13.77
						c8.72-5.54,16.96-12.1,24.55-19.69C325.98,261.49,339.55,232.2,343.43,201.89z"/>
					<path class="st4" d="M298.54,302.74l41.63,85.97H194.99v-0.02l-2.39,0l22.66-52.13c13.05-1.16,25.93-3.97,38.32-8.42
						c10.6-3.8,20.77-8.76,30.27-14.8C288.95,310.1,293.86,306.55,298.54,302.74z"/>
					<path class="st5" d="M160.98,137.34c-1.99-0.47-4.08-0.57-6.07-0.1c-1.8,0.43-3.45,1.3-4.76,2.61c-1.3,1.3-2.17,2.95-2.59,4.74
						c-0.47,2-0.37,4.09,0.1,6.07c1.14,4.81-1.87,9.68-6.67,10.82c-4.81,1.14-9.68-1.87-10.82-6.67c-1.12-4.73-1.22-9.63-0.1-14.37
						c1.2-5.05,3.74-9.64,7.41-13.31c3.66-3.66,8.25-6.19,13.29-7.38c4.74-1.12,9.63-1.02,14.36,0.1c4.81,1.14,7.81,6.01,6.67,10.82
						C170.66,135.47,165.79,138.48,160.98,137.34L160.98,137.34z M166.03,104.38c4.81,1.14,9.68-1.87,10.82-6.67
						c1.14-4.81-1.87-9.68-6.67-10.82c-10.02-2.38-20.41-2.63-30.45-0.25c-10.42,2.47-19.92,7.67-27.5,15.25
						c-7.59,7.58-12.8,17.09-15.28,27.52c-2.38,10.05-2.12,20.43,0.25,30.46c1.14,4.81,6.01,7.81,10.82,6.67
						c4.81-1.14,7.81-6.01,6.67-10.82c-1.73-7.28-1.99-14.86-0.25-22.16c1.7-7.17,5.24-13.73,10.46-18.95
						c5.23-5.22,11.79-8.77,18.97-10.47C151.18,102.39,158.75,102.65,166.03,104.38L166.03,104.38z M169.77,71.33
						c1.14-4.81-1.87-9.68-6.67-10.82c-12.7-3.01-25.88-3.35-38.62-0.33c-13.15,3.12-25.14,9.68-34.71,19.24
						c-9.57,9.57-16.15,21.57-19.27,34.73c-3.02,12.74-2.68,25.92,0.33,38.62c1.14,4.81,6.01,7.81,10.82,6.67
						c4.81-1.14,7.81-6.01,6.67-10.82c-2.36-9.97-2.7-20.33-0.33-30.33c2.35-9.9,7.24-18.95,14.45-26.16
						c7.21-7.21,16.27-12.12,26.18-14.47c10-2.37,20.36-2.03,30.33,0.33C163.76,79.14,168.63,76.13,169.77,71.33z"/>
				</g>
			</g>
			<g>
				<g>
					<g>
						<path class="st6" d="M142.29,313.45c0-9.35,0-18.71,0-28.06c0-0.77-1.2-0.77-1.2,0c0,9.35,0,18.71,0,28.06
							C141.09,314.22,142.29,314.23,142.29,313.45L142.29,313.45z"/>
					</g>
				</g>
				<g>
					<g>
						<path class="st6" d="M154.68,316.77c0-14.59,0-29.18,0-43.77c0-0.77-1.2-0.77-1.2,0c0,14.59,0,29.18,0,43.77
							C153.48,317.54,154.68,317.54,154.68,316.77L154.68,316.77z"/>
					</g>
				</g>
				<g>
					<g>
						<path class="st6" d="M167.51,321.89c0-20.1,0-40.2,0-60.29c0-0.77-1.2-0.77-1.2,0c0,20.1,0,40.2,0,60.29
							C166.31,322.66,167.51,322.67,167.51,321.89L167.51,321.89z"/>
					</g>
				</g>
				<g>
					<g>
						<path class="st6" d="M181.59,324.44c0-26.12,0-52.24,0-78.35c0-0.77-1.2-0.77-1.2,0c0,26.12,0,52.24,0,78.35
							C180.39,325.22,181.59,325.22,181.59,324.44L181.59,324.44z"/>
					</g>
				</g>
				<g>
					<g>
						<path class="st6" d="M195.89,325.73c0-31.44,0-62.89,0-94.33c0-0.77-1.2-0.77-1.2,0c0,31.44,0,62.89,0,94.33
							C194.69,326.5,195.89,326.5,195.89,325.73L195.89,325.73z"/>
					</g>
				</g>
				<g>
					<g>
						<path class="st6" d="M210.66,325.73c0-36.24,0-72.47,0-108.71c0-0.77-1.2-0.77-1.2,0c0,36.24,0,72.47,0,108.71
							C209.46,326.5,210.66,326.5,210.66,325.73L210.66,325.73z"/>
					</g>
				</g>
				<g>
					<g>
						<path class="st6" d="M226.59,324.44c0-41.24,0-82.47,0-123.71c0-0.77-1.2-0.77-1.2,0c0,41.24,0,82.47,0,123.71
							C225.39,325.22,226.59,325.22,226.59,324.44L226.59,324.44z"/>
					</g>
				</g>
				<g>
					<g>
						<path class="st6" d="M243.19,320.63c0-44.98,0-89.96,0-134.95c0-0.77-1.2-0.77-1.2,0c0,44.98,0,89.96,0,134.95
							C241.99,321.4,243.19,321.4,243.19,320.63L243.19,320.63z"/>
					</g>
				</g>
				<g>
					<g>
						<path class="st6" d="M260.56,313.56c0-48.81,0-97.63,0-146.44c0-0.77-1.2-0.77-1.2,0c0,48.81,0,97.63,0,146.44
							C259.36,314.34,260.56,314.34,260.56,313.56L260.56,313.56z"/>
					</g>
				</g>
				<g>
					<g>
						<path class="st6" d="M277.26,304.61c0-51.43,0-102.87,0-154.3c0-0.77-1.2-0.77-1.2,0c0,51.43,0,102.87,0,154.3
							C276.06,305.38,277.26,305.39,277.26,304.61L277.26,304.61z"/>
					</g>
				</g>
				<g>
					<g>
						<path class="st6" d="M294.74,291.74c0-52.94,0-105.87,0-158.81c0-0.77-1.2-0.77-1.2,0c0,52.94,0,105.87,0,158.81
							C293.54,292.52,294.74,292.52,294.74,291.74L294.74,291.74z"/>
					</g>
				</g>
				<g>
					<g>
						<path class="st6" d="M310.34,274.57c0-52.41,0-104.82,0-157.23c0-0.77-1.2-0.77-1.2,0c0,52.41,0,104.82,0,157.23
							C309.14,275.34,310.34,275.35,310.34,274.57L310.34,274.57z"/>
					</g>
				</g>
				<g>
					<g>
						<path class="st6" d="M326.38,253.25c0-46.41,0-92.81,0-139.22c0-0.77-1.2-0.77-1.2,0c0,46.41,0,92.81,0,139.22
							C325.18,254.02,326.38,254.02,326.38,253.25L326.38,253.25z"/>
					</g>
				</g>
			</g>
			<g>
				<g>
					<path class="st6" d="M210.68,388.86c6.76-17.83,13.51-35.66,20.27-53.48c0.27-0.72-0.89-1.04-1.16-0.32
						c-6.76,17.83-13.51,35.66-20.27,53.48C209.25,389.27,210.41,389.58,210.68,388.86L210.68,388.86z"/>
				</g>
			</g>
			<g>
				<g>
					<path class="st6" d="M225.96,389.09c6.84-19.64,13.68-39.27,20.52-58.91c0.25-0.73-0.9-1.04-1.16-0.32
						c-6.84,19.64-13.68,39.27-20.52,58.91C224.55,389.5,225.71,389.82,225.96,389.09L225.96,389.09z"/>
				</g>
			</g>
			<g>
				<g>
					<path class="st6" d="M243.17,389.09c7.61-21.86,15.23-43.72,22.84-65.58c0.25-0.73-0.9-1.04-1.16-0.32
						c-7.61,21.86-15.23,43.72-22.84,65.58C241.75,389.5,242.91,389.82,243.17,389.09L243.17,389.09z"/>
				</g>
			</g>
			<g>
				<g>
					<path class="st6" d="M261.56,387.97c7.89-25.14,15.79-50.29,23.68-75.43c0.23-0.74-0.93-1.05-1.16-0.32
						c-7.89,25.14-15.79,50.29-23.68,75.43C260.17,388.39,261.33,388.7,261.56,387.97L261.56,387.97z"/>
				</g>
			</g>
			<g>
				<g>
					<path class="st6" d="M277.24,389.16c8.31-26.48,16.63-52.97,24.94-79.45c0.23-0.74-0.93-1.05-1.16-0.32
						c-8.31,26.48-16.63,52.97-24.94,79.45C275.85,389.58,277.01,389.89,277.24,389.16L277.24,389.16z"/>
				</g>
			</g>
			<g>
				<g>
					<path class="st6" d="M293.04,388.77c6.1-19.42,12.19-38.85,18.29-58.27c0.23-0.74-0.93-1.05-1.16-0.32
						c-6.1,19.42-12.19,38.85-18.29,58.27C291.65,389.19,292.8,389.51,293.04,388.77L293.04,388.77z"/>
				</g>
			</g>
			<g>
				<g>
					<path class="st6" d="M310.3,389.08c4.06-12.94,8.13-25.88,12.19-38.83c0.23-0.74-0.93-1.05-1.16-0.32
						c-4.06,12.94-8.13,25.88-12.19,38.83C308.91,389.5,310.07,389.81,310.3,389.08L310.3,389.08z"/>
				</g>
			</g>
		</g>
		<g>
			<g>
				<path class="st6" d="M325.8,389.75c1.8-5.74,3.6-11.48,5.4-17.22c0.23-0.74-0.93-1.05-1.16-0.32c-1.8,5.74-3.6,11.48-5.4,17.22
					C324.41,390.17,325.57,390.49,325.8,389.75L325.8,389.75z"/>
			</g>
		</g>
	</g>
</g>
</svg>
