<svg xmlns="http://www.w3.org/2000/svg" xmlns:xlink="http://www.w3.org/1999/xlink" viewBox="0 0 2779.39 2779.39"><defs><style>.cls-1{isolation:isolate;}.cls-2{fill:#f8fcfe;}.cls-3{fill:#dfecfa;}.cls-4{fill:#2f396d;}.cls-13,.cls-15,.cls-5{fill:#262f5f;}.cls-10,.cls-6{fill:#fff;}.cls-7{fill:#9ebee5;}.cls-11,.cls-8{fill:#ad7a15;}.cls-8{stroke:#231f20;}.cls-10,.cls-8{stroke-miterlimit:10;}.cls-9{fill:#749dd3;}.cls-10{stroke:#9ebee5;stroke-width:30px;}.cls-12{fill:#2c3872;}.cls-13,.cls-15,.cls-16{mix-blend-mode:multiply;}.cls-13{opacity:0.1;}.cls-14{fill:#d80d34;}.cls-15{opacity:0.5;}.cls-16{fill:#c8def4;}.cls-17{fill:none;stroke:#fff;stroke-linecap:round;stroke-linejoin:round;stroke-width:60px;}.cls-18{fill:#292f49;}</style></defs><g class="cls-1"><g id="_ëîé_1" data-name="‘ëîé_1"><circle class="cls-2" cx="1389.69" cy="1389.69" r="1389.69"/><circle class="cls-3" cx="1389.69" cy="1389.69" r="1153.4"/><path class="cls-4" d="M2592.33,925.65l-286,1083.43a91.57,91.57,0,0,1-111.9,65.18l-810-213.81-1.59-.44a91.51,91.51,0,0,1-63.56-111.47l286-1083.44a91.56,91.56,0,0,1,111.9-65.18l810,213.8A91.59,91.59,0,0,1,2592.33,925.65Z"/><path class="cls-5" d="M2559.78,1048.93l-253.45,960.15a91.56,91.56,0,0,1-111.9,65.18l-707.15-186.67C2281.55,2058.67,2559.78,1048.93,2559.78,1048.93Z"/><polygon class="cls-6" points="1709.14 672.87 1433.97 1715.31 1478.19 1791.23 2207.15 1983.66 2498.18 881.15 1709.14 672.87"/><polygon class="cls-7" points="1478.19 1791.23 1433.97 1715.31 1494.04 1731.16 1478.19 1791.23"/><circle class="cls-8" cx="2079.13" cy="1758.52" r="86.19" transform="translate(-634.5 1985.23) rotate(-45)"/><polygon class="cls-6" points="2055.25 1798.95 2030.48 1752.21 2050.41 1741.65 2062.94 1765.29 2120.78 1722.78 2134.14 1740.96 2055.25 1798.95"/><path class="cls-4" d="M1652.08,1622.26l283.36,74.83a15,15,0,0,0,18.32-10.66h0a15,15,0,0,0-10.66-18.32l-283.37-74.83a15,15,0,0,0-18.32,10.66h0A15,15,0,0,0,1652.08,1622.26Z"/><path class="cls-9" d="M1580.59,1681.35,1916.2,1770a15,15,0,0,0,18.31-10.67h0a15,15,0,0,0-10.66-18.31l-335.6-88.63a15,15,0,0,0-18.32,10.66h0A15,15,0,0,0,1580.59,1681.35Z"/><circle class="cls-8" cx="2144.12" cy="1512.43" r="86.19" transform="translate(-441.45 1959.1) rotate(-45)"/><path class="cls-9" d="M1988.84,1494.91l-283.37-74.84a15,15,0,0,0-18.32,10.67h0a15,15,0,0,0,10.67,18.31l283.36,74.84a15,15,0,0,0,18.32-10.67h0A15,15,0,0,0,1988.84,1494.91Z"/><path class="cls-4" d="M2008.08,1422l-335.6-88.62a15,15,0,0,0-18.31,10.66h0a15,15,0,0,0,10.66,18.32l335.6,88.62a15,15,0,0,0,18.32-10.66h0A15,15,0,0,0,2008.08,1422Z"/><path class="cls-5" d="M2043.05,1485.74a104.53,104.53,0,1,1,74.38,127.75A104.65,104.65,0,0,1,2043.05,1485.74Zm6.68,1.76A97.63,97.63,0,1,0,2169,1418,97.73,97.73,0,0,0,2049.73,1487.5Z"/><circle class="cls-8" cx="2209.11" cy="1266.34" r="86.19"/><polygon class="cls-6" points="2185.17 1306.76 2160.4 1260.02 2180.34 1249.45 2192.87 1273.09 2250.7 1230.59 2264.06 1248.77 2185.17 1306.76"/><path class="cls-9" d="M1870.33,1153.39l195.09,51.52a15,15,0,0,0,18.32-10.66h0a15,15,0,0,0-10.67-18.32L1878,1124.41a15,15,0,0,0-18.31,10.67h0A15,15,0,0,0,1870.33,1153.39Z"/><path class="cls-4" d="M1762.8,1203l283.37,74.84a15,15,0,0,0,18.32-10.67h0a15,15,0,0,0-10.67-18.31L1770.46,1174a15,15,0,0,0-18.32,10.67h0A15,15,0,0,0,1762.8,1203Z"/><circle class="cls-8" cx="2269.41" cy="1037.98" r="86.19" transform="translate(-69.27 1908.73) rotate(-45)"/><polygon class="cls-6" points="2245.5 1078.41 2220.73 1031.67 2240.67 1021.1 2253.2 1044.75 2311.03 1002.24 2324.39 1020.42 2245.5 1078.41"/><path class="cls-4" d="M1842.35,901.73l283.37,74.83A15,15,0,0,0,2144,965.89h0a15,15,0,0,0-10.66-18.31L1850,872.74a15,15,0,0,0-18.32,10.67h0A15,15,0,0,0,1842.35,901.73Z"/><path class="cls-9" d="M1770.87,960.82l335.61,88.62a15,15,0,0,0,18.31-10.66h0a15,15,0,0,0-10.66-18.32l-335.6-88.63a15,15,0,0,0-18.32,10.67h0A15,15,0,0,0,1770.87,960.82Z"/><path class="cls-7" d="M2281.25,716.33l-78.74-20.78a17.27,17.27,0,0,1-12.28-21.1h0a23.85,23.85,0,0,0-16.92-29.06l-65.26-17.22A23.84,23.84,0,0,0,2079,645.09h0a17.25,17.25,0,0,1-21.1,12.28l-78.73-20.78A17.38,17.38,0,0,0,1957.9,649l-26.69,101.12a17.36,17.36,0,0,0,4.89,17.09,16.81,16.81,0,0,0,7.49,4.18l302.09,79.74a17.39,17.39,0,0,0,21.25-12.39l26.7-101.12A17.4,17.4,0,0,0,2281.25,716.33Z"/><path class="cls-6" d="M2246.51,839.83a5,5,0,0,1-1.26-.16l1.26-4.84-1.28,4.83L2226,834.58a5,5,0,0,1,2.55-9.67l19.2,5.07a5,5,0,0,1-1.21,9.85Zm-48.06-12.69a5.16,5.16,0,0,1-1.28-.16l-19.2-5.07a5,5,0,1,1,2.55-9.67l19.2,5.07a5,5,0,0,1-1.27,9.83Zm60.84-11.07a5.18,5.18,0,0,1-1.28-.17,5,5,0,0,1-3.56-6.11l5.07-19.2a5,5,0,1,1,9.67,2.55l-5.07,19.2A5,5,0,0,1,2259.29,816.07Zm-108.84-1.6a4.64,4.64,0,0,1-1.28-.17L2130,809.24a5,5,0,0,1,2.56-9.67l19.2,5.07a5,5,0,0,1-1.27,9.83Zm-48-12.67a4.75,4.75,0,0,1-1.28-.17l-19.2-5.06a5,5,0,1,1,2.55-9.67l19.21,5.06a5,5,0,0,1-1.28,9.84Zm-48-12.67a5.18,5.18,0,0,1-1.28-.17l-19.2-5.07a5,5,0,0,1,2.55-9.67l19.2,5.07a5,5,0,0,1-1.27,9.84Zm-48-12.67a5.18,5.18,0,0,1-1.28-.17l-19.2-5.07a5,5,0,0,1,2.55-9.67l19.2,5.07a5,5,0,0,1-1.27,9.84ZM2272,768.07a5.18,5.18,0,0,1-1.28-.17,5,5,0,0,1-3.56-6.11l5.07-19.2a5,5,0,1,1,9.67,2.55l-5.07,19.2A5,5,0,0,1,2272,768.07Zm-313.53-4.28a5.18,5.18,0,0,1-1.28-.17l-7.47-2a11.34,11.34,0,0,1-8.08-13.88l.55-2.07a5,5,0,1,1,9.67,2.55l-.55,2.07a1.34,1.34,0,0,0,1,1.66l7.48,2a5,5,0,0,1-1.28,9.84ZM2262,731a5.18,5.18,0,0,1-1.28-.17l-19.2-5.07a5,5,0,1,1,2.55-9.67l19.2,5.07A5,5,0,0,1,2262,731Zm-307.41-7.84a4.69,4.69,0,0,1-1.28-.17,5,5,0,0,1-3.56-6.11l5.07-19.2a5,5,0,1,1,9.67,2.55l-5.07,19.21A5,5,0,0,1,1954.59,723.17ZM2214,718.34a5.18,5.18,0,0,1-1.28-.17l-19.2-5.07a5,5,0,0,1,2.55-9.67l19.2,5.07a5,5,0,0,1-1.27,9.84Zm-48-12.68a5,5,0,0,1-1.28-.16l-19.2-5.07a5,5,0,0,1,2.55-9.67l19.2,5.07a5,5,0,0,1-1.27,9.83ZM2118,693a5.16,5.16,0,0,1-1.28-.16l-19.2-5.07a5,5,0,1,1,2.56-9.67l19.2,5.07A5,5,0,0,1,2118,693Zm-48-12.67a5.16,5.16,0,0,1-1.28-.16l-19.2-5.07a5,5,0,0,1,2.55-9.67l19.2,5.07a5,5,0,0,1-1.27,9.83Zm-102.73-5.15A5.18,5.18,0,0,1,1966,675a5,5,0,0,1-3.56-6.11l3.8-14.39a11.26,11.26,0,0,1,5.24-6.89,5,5,0,1,1,5.06,8.63,1.29,1.29,0,0,0-.63.81l-3.8,14.39A5,5,0,0,1,1967.26,675.17Zm54.73-7.52a4.75,4.75,0,0,1-1.28-.17l-19.2-5.06a5,5,0,0,1,2.55-9.67l19.2,5.07a5,5,0,0,1-1.27,9.83Z"/><rect class="cls-10" x="331.46" y="323" width="1527.6" height="2133.38" transform="translate(-191.03 174.66) rotate(-8.39)"/><rect class="cls-7" x="482.83" y="881.78" width="144.59" height="333.95" transform="translate(-147.07 92.21) rotate(-8.39)"/><rect class="cls-7" x="680.5" y="883.73" width="144.59" height="303.02" transform="translate(-142.98 120.9) rotate(-8.39)"/><rect class="cls-7" x="871.29" y="791.84" width="144.59" height="366.43" transform="translate(-132.16 148.09) rotate(-8.39)"/><rect class="cls-9" x="1059.94" y="670.94" width="144.59" height="459" transform="translate(-119.25 174.82) rotate(-8.39)"/><path class="cls-8" d="M1150.09,507.48a51.94,51.94,0,0,0-72.67,10.72L824,859.28,627.83,724.87A51.77,51.77,0,0,0,591,716.33h-.08a51.77,51.77,0,0,0-32.79,18.71L390.61,942a51.94,51.94,0,0,0,80.75,65.35L608.68,837.68,806.53,973.23a51.94,51.94,0,0,0,71.05-11.87l283.23-381.21A52,52,0,0,0,1150.09,507.48Z"/><path class="cls-6" d="M847.25,1007.46a77.65,77.65,0,0,1-55.4-12.8l-178.07-122-122.23,151a77.91,77.91,0,1,1-121.13-98l167.49-207a77.69,77.69,0,0,1,49.19-28.07h.09a77.71,77.71,0,0,1,55.32,12.82L818.07,823.73l238.51-321a77.92,77.92,0,0,1,109-16.08h0a78,78,0,0,1,16.07,109L898.43,976.85A77.4,77.4,0,0,1,847.25,1007.46ZM603.58,802.7,821.21,951.81a26,26,0,0,0,35.53-5.94L1140,564.66a26,26,0,1,0-41.69-31L830,894.84,613.15,746.3A25.94,25.94,0,0,0,594.72,742h0a25.87,25.87,0,0,0-16.39,9.35l-167.49,207a26,26,0,0,0,22.91,42.17A25.45,25.45,0,0,0,451.17,991Z"/><path class="cls-11" d="M1157.4,488.14l-111.67,48.3a6.4,6.4,0,0,0-1.28,11L1142.12,620a6.39,6.39,0,0,0,10.17-4.4l14-120.86A6.4,6.4,0,0,0,1157.4,488.14Z"/><circle class="cls-8" cx="730.14" cy="2041.41" r="133.79" transform="translate(-1229.64 1114.2) rotate(-45)"/><polygon class="cls-6" points="720.71 2113.7 656.81 2062.14 678.81 2034.88 711.13 2060.96 767.7 1964.97 797.87 1982.75 720.71 2113.7"/><path class="cls-12" d="M1412.54,1905.15l-450.1,66.38A23.27,23.27,0,0,1,936,1951.9h0a23.26,23.26,0,0,1,19.62-26.41l450.1-66.38a23.27,23.27,0,0,1,26.41,19.63h0A23.26,23.26,0,0,1,1412.54,1905.15Z"/><path class="cls-9" d="M1512.58,2008.68l-533.07,78.61a23.26,23.26,0,0,1-26.41-19.62h0a23.27,23.27,0,0,1,19.62-26.41l533.07-78.61a23.27,23.27,0,0,1,26.42,19.62h0A23.27,23.27,0,0,1,1512.58,2008.68Z"/><circle class="cls-8" cx="672.5" cy="1650.52" r="133.79" transform="translate(-970.12 958.95) rotate(-45)"/><polygon class="cls-6" points="663.07 1722.81 599.17 1671.25 621.16 1643.99 653.49 1670.07 710.05 1574.08 740.23 1591.86 663.07 1722.81"/><path class="cls-9" d="M915.08,1650.37l450.1-66.38a23.27,23.27,0,0,1,26.41,19.63h0A23.26,23.26,0,0,1,1372,1630l-450.1,66.37a23.26,23.26,0,0,1-26.41-19.62h0A23.26,23.26,0,0,1,915.08,1650.37Z"/><path class="cls-12" d="M898,1534.6,1431.08,1456a23.26,23.26,0,0,1,26.41,19.62h0a23.27,23.27,0,0,1-19.63,26.41L904.8,1580.64A23.28,23.28,0,0,1,878.38,1561h0A23.27,23.27,0,0,1,898,1534.6Z"/><path class="cls-5" d="M696.17,1811.05c-88.52,13-171.15-48.34-184.21-136.86S560.3,1503,648.82,1490,820,1538.33,833,1626.85,784.69,1798,696.17,1811.05Zm-45.78-310.46c-82.68,12.19-140,89.37-127.82,172s89.36,140,172,127.82,140-89.37,127.82-172S733.06,1488.4,650.39,1500.59Z"/><path class="cls-13" d="M2198.38,2018.85h0a64.79,64.79,0,0,1-91.62,0L1713.4,1625.5l-50-50a323.17,323.17,0,0,0,91.61-91.63l443.35,443.35A64.77,64.77,0,0,1,2198.38,2018.85Z"/><path class="cls-14" d="M2147.13,2027h0a64.8,64.8,0,0,1-91.63,0l-393.35-393.37-50-50a323,323,0,0,0,91.62-91.62l443.35,443.34A64.79,64.79,0,0,1,2147.13,2027Z"/><path class="cls-15" d="M1723.71,1512l102.5,102.51a323.1,323.1,0,0,1-91.6,91.62h0l-52.52-52.53-50-50A323,323,0,0,0,1723.71,1512Z"/><path class="cls-14" d="M1435.46,924.61c-215.81,0-390.76,174.95-390.76,390.77s175,390.75,390.76,390.75a390.67,390.67,0,0,0,390.75-390.75C1826.21,1099.56,1651.27,924.61,1435.46,924.61Zm268.32,567.47a323,323,0,0,1-91.62,91.62,319.81,319.81,0,0,1-176.7,52.91c-177.42,0-321.24-143.82-321.24-321.23S1258,994.13,1435.46,994.13,1756.7,1138,1756.7,1315.38A319.73,319.73,0,0,1,1703.78,1492.08Z"/><circle class="cls-16" cx="1435.46" cy="1315.37" r="321.24"/><path class="cls-17" d="M1192.2,1320.7c0-137.29,111.3-248.58,248.58-248.58"/><path class="cls-18" d="M1651.72,676s-68.37-12.36-94.64-18.47c-16.85-3.92-31.8-13.07-34.86-29.85a62.29,62.29,0,0,0,6.69-11.32l12.73-28.13a106.15,106.15,0,0,0,9.42-49.43c4.13-1.7,6.07-4.64,8-9a8.77,8.77,0,0,0,.43-1.25L1566.2,503c1.53-8.23-3.49-16.13-12.1-19l-1.1-.37a10.7,10.7,0,0,0-9.39,1.29L1538,446.52c.19-.25.35-.5.53-.75s.35-.5.51-.75c.32-.47.61-.94.9-1.41.13-.21.28-.43.41-.65.3-.51.59-1,.87-1.52.08-.16.18-.32.27-.48q.49-.93.93-1.83l.06-.12c.63-1.31,1.15-2.57,1.6-3.78a.56.56,0,0,1,0-.12c.2-.55.38-1.1.55-1.63,0-.12.07-.23.1-.34.14-.45.27-.9.39-1.33,0-.15.07-.29.1-.44.1-.39.2-.77.28-1.14l.09-.47c.07-.35.14-.69.2-1,0-.15,0-.31.07-.46.05-.32.1-.63.14-.93,0-.15,0-.3,0-.46s.07-.57.09-.84,0-.28,0-.42,0-.52,0-.77,0-.26,0-.39,0-.46,0-.68v-.36c0-.21,0-.41,0-.6s0-.21,0-.31,0-.36,0-.52,0-.19,0-.28,0-.28,0-.41a2.29,2.29,0,0,1,0-.25c0-.11,0-.21,0-.31l0-.21a1.24,1.24,0,0,1,0-.18c0-.31-.09-.5-.09-.5,6.75-6.79-1.16-10.73-1.16-10.73l-1.2-17.89c28.21-32.44,18.85-41.8,18.85-41.8-38.46-35.2-101.33-36.45-128.75-35.09a96.5,96.5,0,0,0-18.52,2.73c-26.64,6.61-86.47,26-113.13,70.76,0,0-6.27,11.67,30.1,34.58l4,17.48s-6.44,6.06,2,10.61c0,0,0,.19.06.5l0,.18,0,.2c0,.1,0,.2.06.32s0,.15,0,.23.06.27.09.42,0,.17.06.27.08.32.13.5,0,.19.08.29.1.39.17.6.06.21.1.32.14.44.21.67.08.23.13.35.17.49.27.74l.15.38c.1.26.21.52.33.8l.18.4c.13.28.26.57.4.86l.21.42c.15.31.32.62.49.94l.22.41c.18.33.39.67.59,1l.23.38c.23.38.49.77.75,1.16.07.1.13.2.19.3.32.47.66.95,1,1.43l.06.07c.77,1,1.64,2.09,2.62,3.17l.09.09c.45.5.93,1,1.42,1.48l.4.38c.41.41.83.81,1.27,1.21l.58.5c.41.37.83.73,1.27,1.09.22.19.47.38.71.57l.71.58,5.66,38.33a10.69,10.69,0,0,0-9.37,1.48l-1,.67c-7.4,5.28-9.92,14.28-6.08,21.73l13.83,22.57a7.45,7.45,0,0,0,.77,1.07c3.11,3.63,5.83,5.89,10.31,6.3a106.26,106.26,0,0,0,23.89,44.87l20.8,23.33a62.83,62.83,0,0,0,13.37,11.27c0,15.24-10.83,27.29-25.07,35-22.07,11.94-89.14,46.15-89.14,46.15A89.67,89.67,0,0,0,1264,819.2l1.67,11.36L1725,762.82,1723.26,751A89.66,89.66,0,0,0,1651.72,676Z"/><image width="1000" height="1091" transform="translate(1584.55 2047.64) rotate(-8.39) scale(0.27)" xlink:href="DIMACOE/ESCUDOS%20Y%20LOGOS%20EJERCITO/1.%20Escudos%20y%20Logos/1.%20ESCUDO%20OFICIAL%20EJERCITO/Escudo_liviano.png"/></g></g></svg>