<svg id="Capa_1" data-name="Capa 1" xmlns="http://www.w3.org/2000/svg" xmlns:xlink="http://www.w3.org/1999/xlink" viewBox="0 0 679.7 679.7"><defs><style>.cls-1{fill:#f9fcfe;}.cls-2{fill:#deecf9;}.cls-3{fill:#f4f4f4;}.cls-4{fill:#dfeeef;}.cls-5{fill:#28396d;}.cls-6{fill:#26315f;}.cls-7{fill:#fee5c8;}.cls-8{fill:#fdebda;}.cls-9{fill:#e9e8e8;}.cls-10{fill:#9d9d9e;}.cls-11{fill:#ae7a15;}.cls-12{fill:#ee7655;}.cls-13{fill:#f18969;}</style></defs><circle class="cls-1" cx="339.85" cy="339.85" r="339.85"/><circle class="cls-2" cx="339.85" cy="339.85" r="282.06"/><rect class="cls-3" x="222.25" y="63.32" width="314.19" height="375.59"/><polygon class="cls-4" points="481.55 129.09 536.44 183.98 536.44 438.91 481.55 438.91 481.55 129.09"/><polygon class="cls-5" points="536.44 63.33 536.44 56.96 215.88 56.96 215.89 445.27 542.8 445.27 542.8 56.96 536.44 56.96 536.44 63.33 530.08 63.33 530.08 432.55 228.62 432.55 228.61 69.69 536.44 69.69 536.44 63.33 530.08 63.33 536.44 63.33"/><rect class="cls-3" x="167.36" y="129.09" width="314.18" height="375.59"/><polygon class="cls-4" points="427.18 292.89 481.52 347.22 481.55 504.68 427.18 504.68 427.18 292.89"/><polygon class="cls-6" points="256.53 122.72 161 122.72 161 511.04 487.91 511.04 487.91 122.72 379.34 122.72 379.34 135.45 475.18 135.45 475.18 498.31 173.73 498.31 173.72 135.45 256.53 135.45 256.53 122.72 256.53 122.72"/><polygon class="cls-7" points="331.5 197.21 112.8 197.2 112.8 572.79 427.18 572.79 427.18 292.96 331.5 197.21"/><rect class="cls-8" x="112.8" y="197.2" width="156.99" height="375.59"/><polygon class="cls-8" points="331.5 292.89 427.18 292.89 331.5 197.21 331.5 292.89"/><polygon class="cls-9" points="269.79 384.87 228.93 428.89 172.18 418.04 269.79 515.65 269.79 384.87"/><polygon class="cls-6" points="331.5 197.21 331.5 190.84 106.43 190.84 106.44 579.15 433.55 579.15 433.55 290.32 334.14 190.84 331.5 190.84 331.5 197.21 327 201.7 420.82 295.59 420.82 566.43 119.17 566.43 119.16 203.57 331.5 203.57 331.5 197.21 327 201.7 331.5 197.21"/><polygon class="cls-5" points="331.5 292.89 331.5 299.25 427.18 299.25 431.69 288.39 336 192.7 325.14 197.21 325.14 292.89 331.5 299.25 331.5 292.89 337.87 292.89 337.87 212.57 411.82 286.52 331.5 286.52 331.5 292.89 337.87 292.89 331.5 292.89"/><polyline class="cls-5" points="379.34 122.72 366.62 122.72 366.62 135.45 379.34 135.45"/><path class="cls-6" d="M310.08,122.72H285v12.73h25.12Zm40.83,0H325.79v12.73h25.12Z"/><polyline class="cls-5" points="269.26 122.72 256.53 122.72 256.53 135.45 269.26 135.45"/><image width="1000" height="1091" transform="translate(130.01 217.32) scale(0.06)" xlink:href="DIMACOE/ESCUDOS%20Y%20LOGOS%20EJERCITO/1.%20Escudos%20y%20Logos/1.%20ESCUDO%20OFICIAL%20EJERCITO/Escudo_liviano.png"/><path class="cls-10" d="M374.49,335.68h-209a6.22,6.22,0,0,1-6.2-6.19h0a6.22,6.22,0,0,1,6.2-6.2h209a6.21,6.21,0,0,1,6.19,6.2h0A6.21,6.21,0,0,1,374.49,335.68Z"/><path class="cls-10" d="M374.49,367.23h-209a6.22,6.22,0,0,1-6.2-6.2h0a6.22,6.22,0,0,1,6.2-6.19h209a6.21,6.21,0,0,1,6.19,6.19h0A6.21,6.21,0,0,1,374.49,367.23Z"/><path class="cls-10" d="M374.49,398.78h-209a6.22,6.22,0,0,1-6.2-6.2h0a6.22,6.22,0,0,1,6.2-6.19h209a6.21,6.21,0,0,1,6.19,6.19h0A6.21,6.21,0,0,1,374.49,398.78Z"/><path class="cls-10" d="M374.49,430.33h-209a6.22,6.22,0,0,1-6.2-6.2h0a6.22,6.22,0,0,1,6.2-6.19h209a6.21,6.21,0,0,1,6.19,6.19h0A6.21,6.21,0,0,1,374.49,430.33Z"/><path class="cls-10" d="M374.49,461.88h-209a6.22,6.22,0,0,1-6.2-6.2h0a6.21,6.21,0,0,1,6.2-6.19h209a6.2,6.2,0,0,1,6.19,6.19h0A6.21,6.21,0,0,1,374.49,461.88Z"/><path class="cls-10" d="M374.49,493.43h-209a6.22,6.22,0,0,1-6.2-6.2h0a6.21,6.21,0,0,1,6.2-6.19h209a6.2,6.2,0,0,1,6.19,6.19h0A6.21,6.21,0,0,1,374.49,493.43Z"/><path class="cls-11" d="M387.26,179.63H261.64c-3.38,0-6.15-2.32-6.15-5.15h0c0-2.84,2.77-5.15,6.15-5.15H387.26c3.39,0,6.16,2.31,6.16,5.15h0C393.42,177.31,390.65,179.63,387.26,179.63Z"/><polygon class="cls-12" points="269.99 669.26 136.51 542.97 196.25 542.97 196.25 418.82 343.72 418.82 343.72 542.97 403.47 542.97 269.99 669.26"/><polygon class="cls-13" points="270.85 418.82 196.25 418.82 196.25 542.97 136.51 542.97 269.99 669.26 270.85 668.45 270.85 418.82"/><path class="cls-11" d="M318.3,302H192.68c-3.39,0-6.16-2.27-6.16-5h0c0-2.77,2.77-5,6.16-5H318.3c3.38,0,6.15,2.27,6.15,5h0C324.45,299.73,321.68,302,318.3,302Z"/></svg>