<?xml version="1.0" encoding="utf-8"?>
<!-- Generator: Adobe Illustrator 25.0.0, SVG Export Plug-In . SVG Version: 6.00 Build 0)  -->
<svg version="1.1" id="Capa_1" xmlns="http://www.w3.org/2000/svg" xmlns:xlink="http://www.w3.org/1999/xlink" x="0px" y="0px"
	 viewBox="0 0 425.2 425.2" style="enable-background:new 0 0 425.2 425.2;" xml:space="preserve">
<style type="text/css">
	.st0{fill:#FFFFFF;}
	.st1{fill:#020203;}
	.st2{fill:#E20E17;}
	.st3{opacity:0.1294;}
	.st4{fill:#AD7A16;}
</style>
<g>
	<g>
		<path class="st0" d="M295.7,267.29c0-58.96,0.73-110.3,0-165.65c-87.23,0-174.91,2.4-262.8,1.53c-0.84,56.41,0,109.47,0,164.32
			C120.74,267.49,208.3,267.29,295.7,267.29z"/>
		<path class="st1" d="M32.9,269.09c-0.94,0-1.69-0.72-1.69-1.61c0-18.29-0.09-36.68-0.19-54.46c-0.18-35.53-0.37-72.27,0.19-109.88
			c0.01-0.88,0.76-1.63,1.71-1.58c50.76,0.51,102.24-0.09,152.04-0.67c36.33-0.42,73.9-0.86,110.74-0.86c0.93,0,1.68,0.71,1.69,1.59
			c0.48,36.52,0.33,71.06,0.17,107.64c-0.08,18.66-0.17,37.96-0.17,58.03c0,0.89-0.76,1.61-1.69,1.61
			c-43.64,0-88.09,0.05-131.07,0.1C121.49,269.04,76.88,269.09,32.9,269.09z M34.57,104.79c-0.53,37.03-0.35,73.21-0.16,108.22
			c0.09,17.27,0.18,35.11,0.19,52.87c43.43,0,87.44-0.05,130.03-0.1c42.42-0.05,86.27-0.1,129.38-0.1c0-19.5,0.09-38.28,0.17-56.44
			c0.16-36.03,0.31-70.09-0.15-106c-36.29,0.01-73.26,0.44-109.03,0.86C135.74,104.67,84.82,105.26,34.57,104.79z"/>
	</g>
	<g>
		<g>
			<g>
				<g>
					<path class="st1" d="M33.3,270.99c-0.94,0-1.69-0.76-1.69-1.69c0-19.31-0.09-38.73-0.19-57.51
						c-0.18-37.52-0.37-76.31,0.19-116.03c0.01-0.93,0.77-1.67,1.69-1.67c0.01,0,0.01,0,0.02,0c50.76,0.54,102.24-0.1,152.03-0.71
						c36.33-0.45,73.89-0.91,110.73-0.91c0.93,0,1.68,0.75,1.69,1.67c0.48,38.56,0.33,75.04,0.17,113.66
						c-0.08,19.71-0.17,40.08-0.17,61.28c0,0.94-0.76,1.69-1.69,1.69c-43.64,0-88.08,0.05-131.06,0.1
						C121.88,270.94,77.27,270.99,33.3,270.99z M34.97,97.5c-0.53,39.1-0.35,77.31-0.16,114.28c0.09,18.23,0.18,37.07,0.19,55.83
						c43.42,0,87.44-0.05,130.02-0.1c42.42-0.05,86.27-0.1,129.37-0.1c0-20.6,0.09-40.42,0.17-59.6
						c0.16-38.05,0.31-74.01-0.15-111.93c-36.29,0.01-73.25,0.47-109.02,0.91C136.13,97.38,85.21,98,34.97,97.5z"/>
				</g>
			</g>
		</g>
		<g>
			<g>
				<g>
					<g>
						<path class="st2" d="M122.53,101.3c-30.32,0-60.34-0.03-89.23-0.09l-1.04,0l0.04-1.04c0.17-4.29,0.24-8.2,0.3-11.99
							c0.06-3.58,0.11-6.97,0.26-10.49l0.04-0.96l263.96-1.16v1c0,2.89,0.05,6.6,0.1,10.53c0.06,4.4,0.12,8.94,0.12,12.9v1l-1,0
							C233.64,101.2,176.87,101.3,122.53,101.3z"/>
						<path class="st0" d="M295.85,76.57c0,6.1,0.22,15.92,0.22,23.43c-57.97,0.19-115.7,0.3-173.59,0.3
							c-29.67,0-59.38-0.03-89.18-0.09c0.33-8.32,0.26-15.21,0.55-22.48L295.85,76.57 M297.85,74.56l-2.01,0.01l-262,1.16
							l-1.91,0.01l-0.08,1.91c-0.14,3.53-0.2,6.92-0.26,10.52c-0.06,3.78-0.13,7.68-0.3,11.96l-0.08,2.08l2.08,0
							c28.88,0.06,58.88,0.09,89.19,0.09c54.35,0,111.14-0.1,173.6-0.3l1.99-0.01V100c0-3.96-0.06-8.51-0.12-12.91
							c-0.05-3.93-0.1-7.63-0.1-10.51V74.56L297.85,74.56z"/>
					</g>
				</g>
			</g>
			<g>
				<g>
					<path class="st1" d="M122.25,101.99c-30.52,0-60.09-0.03-88.95-0.09c-0.46,0-0.9-0.19-1.22-0.52
						c-0.32-0.33-0.49-0.78-0.47-1.24c0.17-4.28,0.24-8.19,0.3-11.96c0.06-3.59,0.11-6.99,0.26-10.52c0.04-0.91,0.78-1.62,1.69-1.63
						l262-1.16c0,0,0.01,0,0.01,0c0.45,0,0.88,0.18,1.2,0.49c0.32,0.32,0.5,0.75,0.5,1.2c0,2.89,0.05,6.61,0.1,10.52
						c0.06,4.4,0.12,8.95,0.12,12.91c0,0.93-0.76,1.69-1.69,1.69C234.27,101.89,176.75,101.99,122.25,101.99z M35.06,98.51
						c79.43,0.17,164.3,0.1,259.32-0.2c-0.01-3.52-0.07-7.4-0.12-11.17c-0.04-3.2-0.08-6.27-0.1-8.86L35.49,79.41
						c-0.1,2.92-0.15,5.8-0.19,8.82C35.24,91.5,35.18,94.88,35.06,98.51z"/>
				</g>
			</g>
		</g>
		<g>
			<g>
				<g>
					<path class="st1" d="M217.53,90.46c-0.92,0-1.68-0.74-1.69-1.67c-0.02-0.94,0.73-1.71,1.67-1.72l12.1-0.22
						c0.01,0,0.02,0,0.03,0c0.92,0,1.68,0.74,1.69,1.67c0.02,0.94-0.73,1.71-1.66,1.72l-12.1,0.22
						C217.55,90.46,217.54,90.46,217.53,90.46z"/>
				</g>
			</g>
		</g>
		<g>
			<g>
				<g>
					<path class="st1" d="M244.29,90.67c-0.92,0-1.68-0.74-1.69-1.66c-0.02-0.94,0.73-1.71,1.66-1.72l12.1-0.21
						c0.01,0,0.02,0,0.03,0c0.92,0,1.68,0.74,1.69,1.67c0.02,0.94-0.73,1.71-1.66,1.72l-12.1,0.21
						C244.31,90.67,244.3,90.67,244.29,90.67z"/>
				</g>
			</g>
		</g>
		<g>
			<g>
				<g>
					<path class="st1" d="M270.19,90.24c-0.92,0-1.68-0.74-1.69-1.66c-0.02-0.94,0.73-1.71,1.66-1.72l12.1-0.22
						c0.01,0,0.02,0,0.03,0c0.92,0,1.68,0.74,1.69,1.67c0.02,0.94-0.73,1.71-1.67,1.72l-12.1,0.22
						C270.21,90.24,270.2,90.24,270.19,90.24z"/>
				</g>
			</g>
		</g>
		<g class="st3">
			<g>
				<g>
					<path class="st1" d="M295.57,103.98c1.48-2.48-1.19-6.23-4.47-4.46c-1.25,0.62-1.81,1.61-1.89,2.62
						c-3.21-0.16-9.5-0.55-13.67-0.6c-8.61-0.31-17.21-0.74-25.82-0.44c-7.32,0.26-14.63,0.99-21.97,1.03
						c-18.11-0.97-36.25-0.74-54.37-1.17c-15.16-0.73-30.33,0.08-45.49-0.26c-12.13-0.2-24.26,0.21-36.37-0.54
						c-13.29,0.1-26.58-0.26-39.85-1.01c-3.03-0.08-6.05,0.11-9.08-0.07c-2.54,0.01-5.27-0.34-7.69,0.49
						c-4.52,1.73-3.18,8.81,1.76,8.76c7.83-0.27,15.68,0.47,23.5,0.86c9,0.32,18.01,0.7,27.02,0.71c21.45-0.2,42.89,1.07,64.34,0.82
						c13.62,0.15,27.23,0.94,40.85,0.8c28.77-0.33,57.53-2.05,86.3-0.82c3.97-0.09,7.94-0.56,11.89-0.92
						c-0.34,0.05-0.69,0.09-1.03,0.14c0.32,0.01,0.65-0.01,0.97-0.02c1.24-0.11,2.56-0.15,3.63-0.84
						C295.88,108.09,296.54,105.71,295.57,103.98z"/>
				</g>
			</g>
		</g>
		<g>
			<g>
				<path class="st4" d="M242.28,131.34c0.2,15.77,0.19,31.55,1.2,46.63c21.62,1.27,43.29,1.6,64.67,0.69
					c0.38-15.58,0.77-31.17,1.65-46.78c-12.48-0.4-24.95-0.81-37.43-1.21c-7.14-0.23-14.29-0.46-21.44-0.54
					C247.59,130.08,244.25,130.07,242.28,131.34z"/>
				<path class="st1" d="M283.43,180.51c-12.94,0-26.32-0.4-40.02-1.2c-0.68-0.04-1.22-0.58-1.26-1.25
					c-0.84-12.65-0.98-26.03-1.12-38.97c-0.03-2.57-0.05-5.15-0.09-7.73c-0.01-0.46,0.23-0.9,0.62-1.15
					c2.36-1.51,6.09-1.47,9.39-1.44c7.16,0.08,14.43,0.32,21.47,0.54l37.43,1.21c0.36,0.01,0.7,0.17,0.95,0.44
					c0.24,0.27,0.37,0.62,0.35,0.98c-0.87,15.57-1.27,31.37-1.64,46.66c-0.02,0.71-0.58,1.36-1.29,1.39
					C300.17,180.34,291.89,180.51,283.43,180.51z M244.75,176.69c21.68,1.23,42.56,1.46,62.09,0.67
					c0.36-14.54,0.74-29.45,1.54-44.19L272.32,132c-7.02-0.23-14.27-0.46-21.41-0.54c-2.46-0.03-5.46-0.06-7.27,0.69
					c0.03,2.3,0.05,4.61,0.08,6.91C243.85,151.55,243.98,164.46,244.75,176.69z"/>
			</g>
			<g>
				<path class="st0" d="M380.5,257.96c-1,16.19-1.56,32.42-1.69,48.65c-22.53-0.26-44.66-0.51-66.8-0.28
					c-0.22-16.2-0.26-32.15,0.4-49.25C334.87,256.32,357.35,256.52,380.5,257.96z"/>
				<path class="st1" d="M378.81,307.95c-0.01,0-0.01,0-0.01,0l-0.14,0c-22.91-0.26-44.56-0.51-66.63-0.28c-0.01,0-0.01,0-0.01,0
					c-0.73,0-1.34-0.59-1.35-1.33c-0.2-14.98-0.29-31.32,0.4-49.32c0.03-0.7,0.59-1.27,1.3-1.29c23.58-0.79,45.89-0.5,68.21,0.89
					c0.74,0.05,1.3,0.68,1.26,1.43c-0.99,16.09-1.56,32.43-1.69,48.58c0,0.36-0.15,0.7-0.4,0.95
					C379.5,307.81,379.16,307.95,378.81,307.95z M330.21,304.89c15.54,0,31.09,0.17,47.27,0.36c0.14-15.31,0.68-30.78,1.6-46.03
					c-21.39-1.29-42.8-1.56-65.36-0.84c-0.62,16.91-0.56,32.36-0.37,46.59C318.98,304.91,324.59,304.89,330.21,304.89z"/>
			</g>
			<g>
				<g>
					<path class="st2" d="M235.89,307.61c-16.72-0.19-32.51-0.37-48.6-0.37c-6.41,0-12.32,0.03-18.09,0.09l-1,0.01l-0.01-1
						c-0.2-14.98-0.29-31.32,0.4-49.3l0.04-0.93l0.93-0.03c8.53-0.29,17.04-0.43,25.3-0.43c14.59,0,28.62,0.43,42.87,1.32l1,0.06
						l-0.06,1c-0.99,16.1-1.56,32.45-1.69,48.59l-0.01,1L235.89,307.61z"/>
					<path class="st0" d="M194.87,256.65c14.11,0,28.33,0.42,42.81,1.32c-1,16.19-1.56,32.42-1.69,48.65
						c-16.39-0.19-32.58-0.37-48.71-0.37c-6.04,0-12.06,0.03-18.09,0.09c-0.22-16.2-0.26-32.15,0.4-49.25
						C178,256.79,186.42,256.65,194.87,256.65 M194.87,254.65L194.87,254.65c-8.28,0-16.8,0.15-25.34,0.43l-1.86,0.06L167.6,257
						c-0.7,18.02-0.61,34.37-0.4,49.35l0.03,1.99l1.99-0.02c5.76-0.06,11.67-0.09,18.07-0.09c16.08,0,31.86,0.18,48.57,0.37l0.12,0
						l2.01,0.02l0.02-2.01c0.13-16.12,0.69-32.45,1.69-48.54l0.12-2l-2-0.12C223.72,255.09,209.28,254.65,194.87,254.65
						L194.87,254.65z"/>
				</g>
				<path class="st1" d="M235.99,307.95c-0.01,0-0.01,0-0.01,0l-0.14,0c-22.91-0.26-44.56-0.51-66.63-0.28c-0.01,0-0.01,0-0.01,0
					c-0.73,0-1.34-0.59-1.34-1.33c-0.2-14.98-0.29-31.32,0.4-49.32c0.03-0.7,0.59-1.27,1.3-1.29c23.58-0.79,45.89-0.5,68.21,0.89
					c0.74,0.05,1.3,0.68,1.26,1.43c-0.99,16.1-1.56,32.44-1.69,48.58c0,0.36-0.15,0.7-0.4,0.95
					C236.68,307.81,236.34,307.95,235.99,307.95z M187.39,304.89c15.54,0,31.09,0.17,47.27,0.36c0.14-15.29,0.68-30.76,1.6-46.03
					c-21.39-1.29-42.8-1.56-65.36-0.84c-0.62,16.91-0.56,32.36-0.37,46.59C176.16,304.91,181.77,304.89,187.39,304.89z"/>
			</g>
			<g>
				<path class="st1" d="M349.46,251.03c-0.72,0-1.32-0.58-1.34-1.3l-0.47-15c-0.04-1.12-0.08-2.65-0.63-3.48
					c-0.43-0.66-1.14-0.84-2.39-0.95c-45.26-4.13-91.17-4.62-136.47-1.46c-1.56,0.11-2.51,0.34-3.06,1.26
					c-0.58,0.97-0.64,2.62-0.68,3.83l-0.47,14.14c-0.03,0.74-0.65,1.35-1.39,1.3c-0.74-0.02-1.32-0.65-1.3-1.39l0.47-14.14
					c0.05-1.5,0.12-3.56,1.06-5.13c1.38-2.3,3.85-2.47,5.18-2.56c45.44-3.17,91.5-2.68,136.9,1.46c1.11,0.1,3.17,0.29,4.39,2.17
					c0.89,1.36,1.01,3.08,1.06,4.87l0.47,15c0.02,0.74-0.56,1.36-1.3,1.39C349.49,251.03,349.48,251.03,349.46,251.03z"/>
			</g>
			<g>
				<path class="st1" d="M280.09,219.8C280.09,219.8,280.09,219.8,280.09,219.8c-0.75,0-1.35-0.61-1.34-1.35l0.13-29.53
					c0-0.74,0.61-1.34,1.34-1.34c0,0,0,0,0.01,0c0.74,0,1.34,0.61,1.34,1.35l-0.13,29.53C281.43,219.2,280.83,219.8,280.09,219.8z"
					/>
			</g>
			<g>
				<path class="st1" d="M182.53,302.2c-0.11,0-0.22-0.04-0.31-0.12l-8.21-7.68c-0.18-0.17-0.19-0.45-0.02-0.63
					c0.17-0.18,0.45-0.19,0.63-0.02l8.21,7.68c0.18,0.17,0.19,0.45,0.02,0.63C182.77,302.15,182.65,302.2,182.53,302.2z"/>
			</g>
			<g>
				<path class="st1" d="M195.16,302.31c-0.09,0-0.19-0.03-0.27-0.09c-7.42-5.62-14.5-11.84-21.02-18.49
					c-0.17-0.18-0.17-0.46,0.01-0.63c0.18-0.17,0.46-0.17,0.63,0.01c6.49,6.62,13.53,12.81,20.92,18.4c0.2,0.15,0.24,0.43,0.09,0.63
					C195.43,302.25,195.3,302.31,195.16,302.31z"/>
			</g>
			<g>
				<path class="st1" d="M204.53,300.6c-0.1,0-0.2-0.04-0.29-0.11c-10.38-8.77-20.16-18.42-29.07-28.69
					c-0.16-0.19-0.14-0.47,0.05-0.63c0.19-0.16,0.47-0.14,0.63,0.05c8.87,10.23,18.62,19.85,28.97,28.59
					c0.19,0.16,0.21,0.44,0.05,0.63C204.79,300.54,204.66,300.6,204.53,300.6z"/>
			</g>
			<g>
				<path class="st1" d="M218.55,302.06c-0.11,0-0.23-0.04-0.31-0.13l-38.96-38.28c-0.18-0.17-0.18-0.46-0.01-0.63
					c0.17-0.18,0.46-0.18,0.63-0.01l38.96,38.28c0.18,0.17,0.18,0.46,0.01,0.63C218.78,302.01,218.67,302.06,218.55,302.06z"/>
			</g>
			<g>
				<path class="st1" d="M229.53,300.89c-0.12,0-0.24-0.05-0.33-0.15c-12.15-13.23-24.65-26.46-37.15-39.3
					c-0.17-0.18-0.17-0.46,0.01-0.63c0.18-0.17,0.46-0.17,0.63,0.01c12.51,12.85,25.01,26.08,37.17,39.32
					c0.17,0.18,0.16,0.47-0.03,0.63C229.74,300.85,229.63,300.89,229.53,300.89z"/>
			</g>
			<g>
				<path class="st1" d="M230.02,287.07c-0.11,0-0.23-0.04-0.32-0.13c-7.82-7.74-15.58-15.74-23.07-23.77
					c-0.17-0.18-0.16-0.46,0.02-0.63c0.18-0.17,0.46-0.16,0.63,0.02c7.47,8.03,15.23,16.01,23.04,23.74c0.18,0.17,0.18,0.46,0,0.63
					C230.25,287.03,230.13,287.07,230.02,287.07z"/>
			</g>
			<g>
				<path class="st1" d="M231.53,274.2c-0.12,0-0.24-0.05-0.33-0.15c-3.71-4.1-7.67-8.05-11.79-11.74c-0.18-0.16-0.2-0.45-0.03-0.63
					c0.17-0.18,0.45-0.2,0.63-0.03c4.14,3.7,8.12,7.68,11.85,11.8c0.17,0.18,0.15,0.47-0.03,0.63
					C231.75,274.16,231.64,274.2,231.53,274.2z"/>
			</g>
			<g>
				<path class="st1" d="M325.94,302.73c-0.1,0-0.19-0.03-0.28-0.1l-10.59-8.29c-0.19-0.15-0.23-0.43-0.08-0.63
					c0.15-0.2,0.43-0.23,0.63-0.08l10.59,8.29c0.19,0.15,0.23,0.43,0.08,0.63C326.2,302.67,326.07,302.73,325.94,302.73z"/>
			</g>
			<g>
				<path class="st1" d="M338.72,302.12c-0.1,0-0.2-0.03-0.29-0.1l-23.08-19.06c-0.19-0.16-0.22-0.44-0.06-0.63
					c0.16-0.19,0.44-0.22,0.63-0.06l23.08,19.06c0.19,0.16,0.22,0.44,0.06,0.63C338.98,302.06,338.85,302.12,338.72,302.12z"/>
			</g>
			<g>
				<path class="st1" d="M352.44,302.42c-0.1,0-0.21-0.04-0.29-0.11c-11.49-9.85-23.49-19.39-35.67-28.36
					c-0.2-0.15-0.24-0.43-0.09-0.63c0.15-0.2,0.43-0.24,0.63-0.09c12.2,8.98,24.21,18.54,35.72,28.4c0.19,0.16,0.21,0.44,0.05,0.63
					C352.69,302.36,352.57,302.42,352.44,302.42z"/>
			</g>
			<g>
				<path class="st1" d="M364.29,302.39c-0.1,0-0.2-0.03-0.29-0.1l-45.71-37.87c-0.19-0.16-0.22-0.44-0.06-0.63
					c0.16-0.19,0.44-0.22,0.63-0.06l45.71,37.87c0.19,0.16,0.22,0.44,0.06,0.63C364.55,302.34,364.42,302.39,364.29,302.39z"/>
			</g>
			<g>
				<path class="st1" d="M374.32,300.17c-0.1,0-0.2-0.03-0.29-0.1l-45.01-37.35c-0.19-0.16-0.22-0.44-0.06-0.63
					c0.16-0.19,0.44-0.22,0.63-0.06l45.01,37.35c0.19,0.16,0.22,0.44,0.06,0.63C374.57,300.11,374.44,300.17,374.32,300.17z"/>
			</g>
			<g>
				<path class="st1" d="M374.07,289.62c-0.11,0-0.22-0.04-0.31-0.12c-9.91-9.22-20.4-18.04-31.19-26.21
					c-0.2-0.15-0.24-0.43-0.09-0.63c0.15-0.2,0.43-0.24,0.63-0.09c10.81,8.19,21.33,17.03,31.26,26.27
					c0.18,0.17,0.19,0.45,0.02,0.63C374.31,289.58,374.19,289.62,374.07,289.62z"/>
			</g>
			<g>
				<path class="st1" d="M374.58,278.72c-0.1,0-0.2-0.03-0.28-0.1l-18.64-14.92c-0.19-0.15-0.22-0.44-0.07-0.63
					c0.16-0.19,0.44-0.22,0.63-0.07l18.64,14.92c0.19,0.15,0.22,0.44,0.07,0.63C374.84,278.66,374.71,278.72,374.58,278.72z"/>
			</g>
			<g>
				<path class="st1" d="M373.67,267.65c-0.12,0-0.24-0.05-0.33-0.14c-1.71-1.81-3.67-3.35-5.85-4.56
					c-0.22-0.12-0.29-0.39-0.17-0.61c0.12-0.22,0.39-0.29,0.61-0.17c2.25,1.26,4.29,2.85,6.07,4.73c0.17,0.18,0.16,0.46-0.02,0.63
					C373.89,267.61,373.78,267.65,373.67,267.65z"/>
			</g>
			<g class="st3">
				<path class="st1" d="M308.71,132.3c-1.02-1.87-4.06-1.48-4.56,0.6c-0.87,5.12-1.39,10.31-1.75,15.49
					c-0.16,4.41,0.19,8.82,0.02,13.22c-0.2,3.76,0.18,7.52,0.13,11.28c0.11,1.74-0.62,3.87,0.69,5.27c1.12,1.17,3.19,0.89,3.99-0.51
					c0.43-0.67,0.33-1.46,0.33-2.22c-0.01-1.58,0.21-3.15,0.22-4.73c-0.02-4.23-0.05-8.46,0-12.69c-0.14-4.63-0.35-9.29,0.13-13.91
					c0.15-1.99,0.31-3.98,0.53-5.96c0.18-1.71,0.18-1.61,0.23-2.06C308.77,134.82,309.42,133.47,308.71,132.3z"/>
			</g>
			<g class="st3">
				<path class="st1" d="M379.99,258.69c-1.13-2.96-5.7-2.02-5.66,1.14c-1.82,14.25-1.5,28.64-1.19,42.97
					c-0.01,1.27-0.11,2.71,0.91,3.65c1.12,1.17,3.16,1.16,4.28,0c1.03-0.99,0.89-2.38,0.9-3.68c0.04-1.88,0.08-3.76-0.03-5.64
					c-0.39-9.99-0.64-20.04,0.22-30c0.21-2.02,0.4-4.05,0.68-6.07C380.18,260.27,380.42,259.42,379.99,258.69z"/>
			</g>
			<g class="st3">
				<path class="st1" d="M236.62,257.98c-1.17-2.16-4.69-1.71-5.27,0.69c-0.63,3.67-1.24,7.35-1.54,11.06
					c-0.28,3.86-0.24,7.73-0.58,11.59c-0.35,8.23-0.88,16.5-0.09,24.71c-0.09,2.39,3.1,3.71,4.74,1.96
					c0.76-0.77,0.92-1.81,0.75-2.84c-0.12-1.28-0.14-2.56-0.17-3.85c0.05-6.41,0.54-12.81,0.86-19.2c0.24-4.52,0.18-9.05,0.51-13.57
					c0.38-3.9,0.43-3.9,0.92-7.24C236.91,260.19,237.28,259,236.62,257.98z"/>
			</g>
		</g>
		<g>
			<g>
				<path class="st0" d="M132.9,201.56c0-27.44,0.19-51.33,0-77.09c-22.74,0-45.6,1.12-68.52,0.71c-0.22,26.25,0,50.95,0,76.47
					C87.29,201.65,110.12,201.56,132.9,201.56z"/>
				<path class="st1" d="M64.39,203.39c-0.96,0-1.75-0.78-1.75-1.75c0-8.51-0.02-16.93-0.05-25.34c-0.05-16.54-0.1-33.64,0.05-51.14
					c0-0.47,0.19-0.91,0.53-1.24c0.33-0.33,0.79-0.48,1.25-0.5c13.21,0.24,26.62-0.04,39.59-0.31c9.48-0.2,19.28-0.4,28.9-0.4
					c0.96,0,1.74,0.77,1.75,1.73c0.13,16.99,0.09,33.07,0.04,50.09c-0.02,8.74-0.04,17.67-0.04,27.02c0,0.96-0.78,1.75-1.75,1.75
					c-11.38,0-22.77,0.02-34.17,0.05C87.3,203.37,75.85,203.39,64.39,203.39z M66.12,126.95c-0.13,16.87-0.08,33.37-0.04,49.35
					c0.02,7.84,0.05,15.69,0.05,23.61c10.88,0,21.74-0.02,32.59-0.05c10.82-0.02,21.63-0.04,32.43-0.05
					c0-8.72,0.02-17.09,0.04-25.28c0.04-16.43,0.08-31.98-0.03-48.32c-9.03,0.02-18.2,0.21-27.09,0.4
					C91.65,126.87,78.81,127.13,66.12,126.95z"/>
			</g>
			<g>
				<path class="st1" d="M76.91,194.89c-0.12,0-0.24-0.04-0.35-0.11c-2.11-1.55-4.1-3.3-5.92-5.19c-0.22-0.23-0.22-0.6,0.02-0.82
					c0.23-0.22,0.6-0.22,0.82,0.02c1.77,1.84,3.71,3.54,5.77,5.06c0.26,0.19,0.31,0.55,0.12,0.81
					C77.26,194.81,77.09,194.89,76.91,194.89z"/>
			</g>
			<g>
				<path class="st1" d="M90.72,196.87c-0.14,0-0.28-0.05-0.4-0.16c-6.74-6.28-13.71-12.51-20.7-18.52
					c-0.24-0.21-0.27-0.58-0.06-0.82c0.21-0.24,0.58-0.27,0.82-0.06c7.01,6.02,13.98,12.26,20.74,18.54
					c0.24,0.22,0.25,0.59,0.03,0.82C91.03,196.81,90.87,196.87,90.72,196.87z"/>
			</g>
			<g>
				<path class="st1" d="M104.61,196.82c-0.13,0-0.27-0.05-0.38-0.14l-33.75-28.56c-0.25-0.21-0.28-0.58-0.07-0.82
					c0.21-0.24,0.58-0.27,0.82-0.07l33.75,28.56c0.25,0.21,0.28,0.58,0.07,0.82C104.94,196.75,104.77,196.82,104.61,196.82z"/>
			</g>
			<g>
				<path class="st1" d="M117.45,196.19c-0.14,0-0.28-0.05-0.39-0.15c-14.94-13.38-30.45-26.55-46.09-39.14
					c-0.25-0.2-0.29-0.57-0.09-0.82c0.2-0.25,0.57-0.29,0.82-0.09c15.66,12.6,31.18,25.78,46.14,39.18
					c0.24,0.21,0.26,0.58,0.04,0.82C117.77,196.12,117.61,196.19,117.45,196.19z"/>
			</g>
			<g>
				<path class="st1" d="M127.43,192.02c-0.13,0-0.26-0.04-0.36-0.13c-19.01-15.26-37.96-31.12-56.33-47.15
					c-0.24-0.21-0.27-0.58-0.06-0.82c0.21-0.24,0.58-0.27,0.82-0.06c18.36,16.02,37.3,31.88,56.29,47.12
					c0.25,0.2,0.29,0.57,0.09,0.82C127.77,191.94,127.6,192.02,127.43,192.02z"/>
			</g>
			<g>
				<path class="st1" d="M127.02,179.29c-0.13,0-0.26-0.04-0.37-0.13l-55.78-45.58c-0.25-0.2-0.29-0.57-0.08-0.82
					c0.2-0.25,0.57-0.29,0.82-0.08l55.78,45.58c0.25,0.2,0.29,0.57,0.08,0.82C127.35,179.21,127.18,179.29,127.02,179.29z"/>
			</g>
			<g>
				<path class="st1" d="M127.11,166.23c-0.14,0-0.27-0.05-0.38-0.14c-13.46-11.6-27.34-23.14-41.24-34.29
					c-0.25-0.2-0.29-0.57-0.09-0.82c0.2-0.25,0.57-0.29,0.82-0.09c13.92,11.16,27.81,22.7,41.28,34.31
					c0.24,0.21,0.27,0.58,0.06,0.82C127.44,166.16,127.27,166.23,127.11,166.23z"/>
			</g>
			<g>
				<path class="st1" d="M126.98,151.71c-0.12,0-0.24-0.04-0.34-0.11c-8.23-5.95-16.35-12.25-24.15-18.72
					c-0.25-0.21-0.28-0.57-0.08-0.82c0.21-0.25,0.58-0.28,0.82-0.08c7.77,6.46,15.88,12.74,24.09,18.68
					c0.26,0.19,0.32,0.55,0.13,0.81C127.34,151.62,127.16,151.71,126.98,151.71z"/>
			</g>
			<g>
				<path class="st1" d="M127.44,140.25c-0.13,0-0.27-0.05-0.38-0.14c-2.88-2.45-5.89-4.81-8.96-7c-0.26-0.19-0.32-0.55-0.14-0.81
					c0.19-0.26,0.55-0.32,0.81-0.14c3.1,2.21,6.14,4.59,9.04,7.06c0.24,0.21,0.27,0.58,0.07,0.82
					C127.76,140.18,127.6,140.25,127.44,140.25z"/>
			</g>
		</g>
	</g>
</g>
</svg>
