<?xml version="1.0" encoding="utf-8"?>
<!-- Generator: Adobe Illustrator 25.0.0, SVG Export Plug-In . SVG Version: 6.00 Build 0)  -->
<svg version="1.1" id="Capa_1" xmlns="http://www.w3.org/2000/svg" xmlns:xlink="http://www.w3.org/1999/xlink" x="0px" y="0px"
	 viewBox="0 0 425.2 425.2" style="enable-background:new 0 0 425.2 425.2;" xml:space="preserve">
<style type="text/css">
	.st0{fill:#E20E17;}
	.st1{fill:#020203;}
	.st2{fill:#FFFFFF;}
	.st3{opacity:0.1294;}
	.st4{fill:#282828;}
	.st5{fill:#AD7B16;}
</style>
<g>
	<g>
		<g>
			<g>
				<polygon class="st0" points="79.62,48.09 325.78,48.09 325.78,382.35 78.99,385.21 				"/>
			</g>
		</g>
	</g>
	<g>
		<g>
			<path class="st1" d="M78.99,387.54c-0.67,0-1.32-0.24-1.8-0.67c-0.49-0.44-0.76-1.04-0.76-1.66l0.63-337.12
				c0-1.29,1.15-2.33,2.56-2.33h246.16c1.42,0,2.56,1.05,2.56,2.33l0,334.26c0,1.28-1.13,2.32-2.53,2.33l-246.79,2.86
				C79.01,387.54,79,387.54,78.99,387.54z M82.18,50.43l-0.62,332.42l241.66-2.8l0-329.62H82.18z"/>
		</g>
	</g>
</g>
<g>
	<g>
		<g>
			<polygon class="st2" points="108.08,67.89 297.17,67.89 297.17,352.04 107.38,352.59 			"/>
		</g>
	</g>
	<g>
		<g>
			<path class="st1" d="M107.38,354.93c-0.68,0-1.33-0.25-1.81-0.68c-0.48-0.44-0.75-1.04-0.75-1.66l0.7-284.7
				c0-1.29,1.15-2.33,2.56-2.33h189.09c1.42,0,2.56,1.05,2.56,2.33v284.15c0,1.29-1.14,2.33-2.56,2.33L107.38,354.93
				C107.38,354.93,107.38,354.93,107.38,354.93z M110.64,70.22l-0.69,280.03l184.66-0.53V70.22H110.64z"/>
		</g>
	</g>
</g>
<g>
	<g>
		<g>
			<path class="st1" d="M159.39,114.43c-1.17,0-2.12-0.95-2.12-2.11c0-1.17,0.95-2.12,2.11-2.12l97.57-0.04c0,0,0,0,0,0
				c1.17,0,2.12,0.95,2.12,2.11c0,1.17-0.95,2.12-2.11,2.12L159.39,114.43C159.39,114.43,159.39,114.43,159.39,114.43z"/>
		</g>
	</g>
</g>
<g>
	<g>
		<g>
			<path class="st1" d="M126.7,147.35c-1.17,0-2.12-0.95-2.12-2.11s0.95-2.12,2.11-2.12l73.79-0.04h0c1.17,0,2.12,0.95,2.12,2.11
				c0,1.17-0.95,2.12-2.11,2.12L126.7,147.35L126.7,147.35z"/>
		</g>
	</g>
</g>
<g>
	<g>
		<g>
			<path class="st1" d="M126.16,258.95c-0.87,0-1.58-0.95-1.58-2.11c0-1.17,0.71-2.12,1.58-2.12l52.58-0.04h0
				c0.87,0,1.58,0.95,1.58,2.11c0,1.17-0.71,2.12-1.58,2.12L126.16,258.95L126.16,258.95z"/>
		</g>
	</g>
</g>
<g class="st3">
	<g>
		<g>
			<path class="st1" d="M288.46,68.59c-0.06,0-0.11,0-0.17,0c-4.95-0.07-9.87,0.6-14.81,0.69c-7.57-0.02-15.1-0.89-22.65-1.33
				c-15.95-0.54-31.92,0.11-47.88-0.27c-15.11,0.62-30.23,0.45-45.34-0.13c-8.17-0.29-16.35-0.34-24.49-1.08
				c-4.74-0.33-9.5-0.41-14.25-0.41c-2.26,0.14-4.72-0.43-6.81,0.5c-3.94,1.37-4.76,5.26-3.27,8.13c-0.44,0.98-0.64,2.08-0.49,3.2
				c-0.02,0.91-0.02,1.33,0.01,1.25c-0.02,0.2-0.05,0.41-0.08,0.61c-0.75,7.08-0.09,9.46-0.63,18.41
				c-0.78,16.46-0.16,32.97-1.33,49.43c-0.6,12.38,0.74,24.72,0.55,37.1c-0.6,12.93-0.99,25.86-0.71,38.81
				c0.6,14.9,1.03,29.8,0.46,44.71c-0.49,11.35-0.28,22.69-0.26,34.04c-1.08,9.84-1.05,19.7-1.25,29.58
				c-0.29,4.85-0.41,9.71-0.32,14.57c-0.04,2.64-0.28,5.59,2.05,7.54c4.12,3.97,12.17,1.01,11.97-4.51
				c-0.2-7.24,0.06-14.48,0.05-21.71c-0.4-7.96-0.52-15.91-0.37-23.88c1.15-21.48,2.77-43.02,1.65-64.54
				c-0.57-11.91-1.12-23.83-1.25-35.75c0.01-8.61,1-17.25,0.24-25.85c-0.25-1.94-0.46-3.9-0.66-5.88c0.01-1.76,0.01-3.52,0.04-5.3
				c0.16-12.78,2.32-25.45,2.37-38.23c0.42-12.92-1.17-25.81-0.41-38.73c0.18-3.53,0.34-7.06,0.46-10.59
				c-0.01-0.33,0.01-0.67,0.03-1.01c14.83-0.07,29.64,0.75,44.47,1.13c14.2,0.58,28.4,0.15,42.6,0.3
				c9.86-0.11,19.66,0.87,29.49,1.23c9.15,0,18.3-0.63,27.45-0.85c9.69-0.37,13.7-1.34,23.97-0.42c0.05,0.02,0.12,0.04,0.24,0.07
				c0.48,0.11,0.97,0.19,1.46,0.24c3.29,0.55,6.92-1.28,7.78-4.38C299.88,68.95,292.82,66.31,288.46,68.59z"/>
		</g>
	</g>
</g>
<g>
	<g class="st3">
		<path class="st1" d="M355.12,322.4c-2.95-0.62-6.45-0.35-9.74-0.42c-7.59-0.05-15.17-0.13-22.76-0.23
			c-38.16-0.26-76.32-0.55-114.48-0.84c-4.4,0.04-9.49-0.23-12.81,0.95c-6.03,1.86-1.5,5.48,6.8,5.39
			c37.91,0.06,75.8,0.68,113.72,0.75c8.72,0.11,17.44,0.25,26.16,0.3c3.95-0.09,8.27,0.18,11.97-0.34
			C361.17,327.14,361.71,323.59,355.12,322.4z"/>
	</g>
	<g>
		<path class="st2" d="M353.96,148.9l0.98,169.79c-31.59,10.38-61.18,1.49-61.18,1.49c-5.4-8.49-3.08-168.28-3.08-168.28
			C317.89,138.87,353.96,148.9,353.96,148.9z"/>
		<g>
			<path class="st4" d="M193.65,290.64c1.54,1.61,35.92,7.66,49.28-0.95l-0.67,10.98c0,0-32.57,5.73-47.8,0.01
				C194.45,300.68,192.11,289.03,193.65,290.64z"/>
			<path class="st4" d="M191.75,192.22c9.72-0.26,43.13-2.59,49.05,0.02l-0.58-13.68c0,0-36.46-4.22-48.9,1.63
				C191.32,180.19,190.87,192.25,191.75,192.22z"/>
			<path class="st4" d="M241.65,179.56l0.37,12.46c0,0,37.37-4.4,48-0.55l-0.55-13.01C289.46,178.46,249.89,176.99,241.65,179.56z"
				/>
			<path class="st4" d="M241.83,290.21l0.73,10.99c0,0,32.42,6.6,47.27,0.18L241.83,290.21z"/>
			<g>
				<path class="st4" d="M246.32,322.66c-0.56,0-1.05-0.42-1.12-0.99c-0.74-5.66-0.51-76.53-0.5-79.54c0-0.63,0.51-1.13,1.13-1.13
					c0.63,0,1.14,0.51,1.13,1.14c0,0.74-0.24,73.73,0.48,79.24c0.08,0.62-0.36,1.19-0.98,1.27
					C246.42,322.65,246.37,322.66,246.32,322.66z"/>
			</g>
			<g>
				<path class="st4" d="M301.69,324.03c-0.3,0-0.61-0.12-0.83-0.36c-1.2-1.29-2.57-2.55-3.9-3.77c-2.24-2.06-4.56-4.19-6.3-6.68
					c-0.36-0.51-0.23-1.22,0.28-1.58c0.51-0.36,1.22-0.23,1.58,0.28c1.61,2.29,3.83,4.34,5.98,6.31c1.36,1.25,2.77,2.54,4.03,3.9
					c0.43,0.46,0.4,1.18-0.06,1.6C302.25,323.93,301.97,324.03,301.69,324.03z"/>
			</g>
			<g>
				<path class="st4" d="M300.47,306.66c-0.27,0-0.54-0.1-0.76-0.29c-1.55-1.39-3.06-2.94-4.49-4.59c-0.38-0.43-0.83-0.84-1.3-1.27
					c-1.02-0.92-2.07-1.86-2.61-3.26c-0.23-0.58,0.06-1.24,0.64-1.47c0.58-0.23,1.24,0.06,1.47,0.64c0.35,0.89,1.16,1.62,2.02,2.4
					c0.51,0.46,1.03,0.93,1.5,1.47c1.37,1.58,2.82,3.06,4.3,4.39c0.47,0.42,0.5,1.14,0.08,1.6
					C301.09,306.53,300.78,306.66,300.47,306.66z"/>
			</g>
			<g>
				<path class="st4" d="M306.3,307.58c-0.29,0-0.58-0.11-0.8-0.33l-1.42-1.4c-2.31-2.28-4.7-4.63-6.98-7.02
					c-1.33-1.4-2.72-2.89-4.53-4.83c-0.4-0.42-0.51-0.55-0.68-1.03c-0.02-0.06-0.05-0.14-0.09-0.24c-0.23-0.58,0.06-1.24,0.64-1.47
					c0.58-0.23,1.24,0.06,1.47,0.64c0.05,0.12,0.08,0.22,0.11,0.29c0.01,0.02,0.02,0.04,0.02,0.06c0.04,0.05,0.1,0.11,0.19,0.2
					c1.8,1.94,3.2,3.42,4.52,4.81c2.25,2.37,4.63,4.71,6.93,6.97l1.42,1.4c0.45,0.44,0.45,1.16,0.01,1.6
					C306.88,307.46,306.59,307.58,306.3,307.58z"/>
			</g>
			<g>
				<path class="st4" d="M311.08,308.72c-0.45,0-0.88-0.27-1.06-0.72c-0.12-0.31-0.41-0.6-0.74-0.95c-0.18-0.19-0.38-0.39-0.56-0.61
					c-1.98-2.37-4.22-4.57-6.38-6.69c-0.8-0.79-1.61-1.58-2.41-2.38c-0.19-0.19-0.43-0.4-0.69-0.63c-0.79-0.7-1.78-1.57-2.22-2.68
					c-0.23-0.58,0.06-1.24,0.64-1.47c0.58-0.23,1.24,0.06,1.47,0.64c0.24,0.6,0.96,1.24,1.6,1.8c0.29,0.25,0.55,0.49,0.8,0.73
					c0.79,0.8,1.59,1.58,2.39,2.36c2.21,2.16,4.49,4.4,6.54,6.86c0.13,0.16,0.28,0.31,0.44,0.48c0.44,0.45,0.94,0.96,1.23,1.7
					c0.23,0.58-0.06,1.24-0.64,1.47C311.35,308.69,311.21,308.72,311.08,308.72z"/>
			</g>
			<g>
				<path class="st4" d="M316.09,309.02c-0.32,0-0.65-0.14-0.87-0.41c-2.18-2.61-4.79-4.93-7.32-7.18
					c-2.01-1.78-4.08-3.63-5.96-5.63c-0.43-0.46-0.41-1.17,0.05-1.6c0.46-0.43,1.17-0.41,1.6,0.05c1.81,1.93,3.84,3.74,5.81,5.49
					c2.59,2.3,5.27,4.69,7.56,7.42c0.4,0.48,0.34,1.2-0.14,1.6C316.6,308.93,316.35,309.02,316.09,309.02z"/>
			</g>
			<g>
				<path class="st4" d="M349.65,306.23c-0.03,0-0.07,0-0.1,0c-1.58-0.14-3.02-1.97-4.73-4.35c-0.34-0.47-0.64-0.88-0.85-1.14
					c-0.56-0.67-1.12-1.33-1.69-1.98c-0.6-0.7-1.21-1.4-1.8-2.11c-0.4-0.48-0.5-0.62-0.68-1.08l-0.05-0.14
					c-0.23-0.58,0.06-1.24,0.64-1.47c0.58-0.23,1.24,0.06,1.47,0.64l0.06,0.16c0.02,0.06,0.04,0.11,0.06,0.15
					c0.03,0.04,0.17,0.22,0.25,0.31c0.58,0.7,1.18,1.39,1.77,2.08c0.57,0.67,1.15,1.33,1.71,2.01c0.27,0.32,0.58,0.76,0.95,1.26
					c0.65,0.9,2.39,3.31,3.1,3.42c0.62,0.06,1.08,0.61,1.03,1.23C350.73,305.78,350.23,306.23,349.65,306.23z"/>
			</g>
			<g>
				<path class="st4" d="M352.79,304.62c-0.39,0-0.76-0.2-0.97-0.55c-0.68-1.13-1.6-2.13-2.57-3.18c-0.4-0.43-0.82-0.88-1.21-1.34
					c-0.46-0.53-0.92-1.1-1.36-1.65c-0.85-1.07-1.73-2.17-2.68-3.03c-0.46-0.42-0.5-1.14-0.08-1.6c0.42-0.47,1.14-0.5,1.6-0.08
					c1.09,0.98,2.03,2.16,2.94,3.3c0.44,0.56,0.87,1.09,1.3,1.58c0.37,0.43,0.77,0.86,1.16,1.28c1.01,1.09,2.06,2.22,2.86,3.56
					c0.32,0.54,0.15,1.23-0.39,1.56C353.19,304.57,352.99,304.62,352.79,304.62z"/>
			</g>
			<g>
				<path class="st4" d="M354.96,302.46c-0.45,0-0.88-0.27-1.06-0.72c-0.12-0.31-0.43-0.62-0.75-0.96c-0.18-0.19-0.37-0.38-0.55-0.6
					c-0.85-1.01-1.65-2.05-2.43-3.05c-0.77-0.98-1.56-2-2.38-2.98c-0.4-0.48-0.34-1.2,0.14-1.6c0.48-0.4,1.2-0.34,1.6,0.14
					c0.84,1.01,1.65,2.04,2.43,3.04c0.77,0.98,1.56,2,2.38,2.99c0.13,0.15,0.28,0.31,0.44,0.48c0.44,0.46,0.94,0.98,1.23,1.7
					c0.23,0.58-0.06,1.24-0.64,1.47C355.23,302.43,355.09,302.46,354.96,302.46z"/>
			</g>
			<g>
				<path class="st4" d="M354.82,297.8c-0.22,0-0.45-0.07-0.65-0.2c-1.53-1.07-2.47-2.42-3.37-3.82c-0.34-0.53-0.19-1.23,0.34-1.57
					c0.53-0.34,1.23-0.19,1.57,0.34c0.77,1.21,1.57,2.36,2.76,3.19c0.51,0.36,0.64,1.07,0.28,1.58
					C355.54,297.63,355.18,297.8,354.82,297.8z"/>
			</g>
			<g>
				<path class="st4" d="M280.1,303.89c-0.64-0.01-1.14-0.52-1.13-1.15c0.01-0.61,0.02-1.2,0.03-1.78c0.04-2.26,0.09-4.4-0.05-6.68
					c-0.04-0.63,0.44-1.16,1.07-1.2c0.63-0.04,1.16,0.44,1.2,1.07c0.14,2.36,0.09,4.54,0.05,6.85c-0.01,0.58-0.02,1.16-0.03,1.77
					C281.23,303.39,280.72,303.89,280.1,303.89z"/>
			</g>
			<g>
				<path class="st4" d="M284.04,302.24c-0.48,0-0.92-0.3-1.08-0.78c-0.3-0.91-0.38-1.88-0.43-2.72c-0.06-1.09-0.11-2.17-0.16-3.25
					c-0.02-0.45-0.04-0.9-0.06-1.35c-0.11-0.23-0.13-0.5-0.06-0.77l0.03-0.13c0.27-1.03,1.16-0.96,1.26-0.95
					c0.16,0.02,0.99,0.17,1.01,1.22c0,0.06,0,0.14,0.01,0.25c0.03,0.54,0.05,1.08,0.08,1.62c0.05,1.07,0.1,2.15,0.16,3.22
					c0.04,0.72,0.1,1.48,0.32,2.14c0.2,0.59-0.12,1.24-0.72,1.43C284.28,302.22,284.16,302.24,284.04,302.24z"/>
			</g>
			<g>
				<path class="st4" d="M287.17,301.66c-0.57,0-1.06-0.43-1.12-1c-0.12-1.06-0.18-2.17-0.23-3.25c-0.08-1.56-0.16-3.16-0.45-4.61
					c-0.12-0.61,0.27-1.21,0.89-1.34c0.61-0.12,1.21,0.27,1.34,0.89c0.33,1.61,0.41,3.31,0.49,4.95c0.05,1.08,0.1,2.11,0.22,3.1
					c0.07,0.62-0.37,1.19-1,1.26C287.26,301.66,287.22,301.66,287.17,301.66z"/>
			</g>
			<g>
				<path class="st4" d="M278.16,189.75c-0.59,0-1.09-0.46-1.13-1.06c-0.05-0.82-0.08-1.66-0.1-2.47c-0.03-1.14-0.06-2.31-0.18-3.42
					c-0.04-0.33-0.11-0.68-0.18-1.06c-0.2-0.98-0.43-2.08-0.04-3.24c0.2-0.59,0.84-0.92,1.43-0.72c0.59,0.2,0.92,0.84,0.72,1.43
					c-0.19,0.58-0.05,1.27,0.11,2.07c0.08,0.41,0.17,0.83,0.22,1.27c0.13,1.2,0.16,2.42,0.19,3.6c0.02,0.79,0.04,1.6,0.09,2.38
					c0.04,0.63-0.43,1.16-1.06,1.21C278.21,189.75,278.18,189.75,278.16,189.75z"/>
			</g>
			<g>
				<path class="st4" d="M281.69,189.32c-0.52,0-0.99-0.36-1.11-0.89c-0.59-2.65-0.87-5.78-0.87-9.58c0-0.63,0.51-1.13,1.13-1.13
					c0.63,0,1.13,0.51,1.13,1.13c0,3.63,0.27,6.6,0.82,9.09c0.14,0.61-0.25,1.22-0.86,1.35
					C281.86,189.31,281.78,189.32,281.69,189.32z"/>
			</g>
			<g>
				<path class="st4" d="M284.67,187.48c-0.63,0-1.13-0.51-1.13-1.13c0-1.16-0.04-2.36-0.07-3.51c-0.04-1.17-0.07-2.37-0.07-3.56
					c0-0.63,0.51-1.13,1.13-1.13c0.63,0,1.13,0.51,1.13,1.13c0,1.16,0.04,2.34,0.07,3.49c0.04,1.17,0.07,2.38,0.07,3.58
					C285.8,186.98,285.29,187.48,284.67,187.48z"/>
			</g>
			<g>
				<path class="st4" d="M191.81,181.11c-0.64,0-1.23-0.4-1.44-1.04c-0.26-0.79,0.17-1.65,0.97-1.91
					c4.86-1.59,33.64-3.78,49.04-0.39c0.82,0.18,1.33,0.99,1.15,1.8c-0.18,0.82-0.99,1.33-1.8,1.15
					c-14.65-3.23-42.91-1.18-47.45,0.31C192.12,181.09,191.96,181.11,191.81,181.11z"/>
			</g>
			<g>
				<path class="st4" d="M192.51,193.13c-0.64,0-1.24-0.41-1.44-1.05c-0.25-0.8,0.19-1.65,0.98-1.9c7.75-2.47,39.25-2.81,48.84-0.53
					c0.81,0.19,1.32,1.01,1.12,1.82c-0.19,0.81-1.01,1.32-1.82,1.12c-9.06-2.15-39.96-1.84-47.23,0.47
					C192.81,193.11,192.66,193.13,192.51,193.13z"/>
			</g>
			<g>
				<path class="st4" d="M241.04,181.11c-0.64,0-1.23-0.4-1.44-1.04c-0.26-0.79,0.17-1.65,0.97-1.91
					c4.86-1.59,33.63-3.79,49.04-0.39c0.82,0.18,1.33,0.99,1.15,1.8c-0.18,0.82-0.99,1.33-1.8,1.15
					c-14.66-3.23-42.91-1.18-47.45,0.31C241.35,181.09,241.19,181.11,241.04,181.11z"/>
			</g>
			<g>
				<path class="st4" d="M241.73,193.13c-0.64,0-1.24-0.41-1.44-1.05c-0.25-0.8,0.19-1.65,0.98-1.9c7.75-2.47,39.25-2.81,48.85-0.53
					c0.81,0.19,1.31,1.01,1.12,1.82c-0.19,0.81-1.01,1.32-1.82,1.12c-9.06-2.15-39.96-1.84-47.23,0.47
					C242.04,193.11,241.88,193.13,241.73,193.13z"/>
			</g>
			<g>
				<path class="st4" d="M354.66,178.69c-0.13,0-0.25-0.02-0.38-0.05c-10.86-2.81-57.15-3.11-63.08-1.02
					c-0.79,0.28-1.65-0.14-1.93-0.93c-0.28-0.79,0.14-1.65,0.93-1.93c7.04-2.47,54.3-1.78,64.84,0.95c0.81,0.21,1.29,1.03,1.08,1.84
					C355.95,178.24,355.34,178.69,354.66,178.69z"/>
			</g>
			<g>
				<path class="st5" d="M290.18,156.77l0.73,164.25c-8.88,6.29-45.94,0.52-45.94,0.52c-5.4-8.49-4.29-162.41-4.29-162.41
					C267.08,143,290.18,156.77,290.18,156.77z"/>
				<g>
					<path class="st0" d="M223.95,325.11c-13.29,0-28.89-2.41-29.05-2.43l-0.45-0.07l-0.24-0.38c-5.5-8.64-4.49-156.65-4.44-162.95
						l0-0.56l0.47-0.29c8.67-5.29,17.89-7.98,27.42-7.98c13.53,0,22.73,5.39,23.11,5.62l0.49,0.29L242,321.69l-0.42,0.3
						C238.65,324.06,232.72,325.11,223.95,325.11z"/>
					<path class="st2" d="M217.67,151.45c13.41,0,22.6,5.48,22.6,5.48L241,321.17c-3.13,2.22-9.77,2.94-17.05,2.94
						c-13.36,0-28.89-2.42-28.89-2.42c-5.4-8.49-4.29-162.41-4.29-162.41C200.51,153.33,209.82,151.45,217.67,151.45 M217.67,149.45
						v2V149.45c-9.72,0-19.12,2.73-27.94,8.13l-0.95,0.58l-0.01,1.11c0,0.38-0.27,38.95,0.12,78.05c0.8,79.65,3.47,83.86,4.48,85.44
						l0.49,0.76l0.89,0.14c0.16,0.02,15.84,2.44,29.2,2.44c9.11,0,15.07-1.08,18.2-3.31l0.85-0.6l0-1.04l-0.73-164.25l-0.01-1.13
						l-0.97-0.58C240.9,154.97,231.47,149.45,217.67,149.45L217.67,149.45z"/>
				</g>
				<g>
					<path class="st4" d="M245.83,233.19c-0.61,0-1.12-0.49-1.13-1.1c-0.72-27.43,0.19-69.67,0.49-77.99
						c0.02-0.63,0.53-1.12,1.17-1.09c0.63,0.02,1.12,0.55,1.09,1.17c-0.3,8.3-1.21,50.46-0.49,77.85c0.02,0.63-0.48,1.15-1.1,1.16
						C245.85,233.19,245.84,233.19,245.83,233.19z"/>
				</g>
				<g>
					<path class="st4" d="M295.72,175.93c-0.37,0-0.74-0.18-0.95-0.52l-0.08-0.13c-0.03-0.04-0.05-0.08-0.08-0.12l-0.75-1
						c-1.05-1.41-2.14-2.87-3.23-4.29c-0.07-0.09-0.21-0.26-0.28-0.32c-0.49-0.36-0.53-0.81-0.55-1.07
						c-0.01-0.07-0.01-0.16-0.03-0.29c-0.07-0.62,0.38-1.18,1-1.26c0.62-0.07,1.18,0.38,1.26,1c0,0.03,0.01,0.06,0.01,0.08
						c0.11,0.11,0.24,0.26,0.4,0.46c1.1,1.43,2.2,2.9,3.25,4.32l0.75,1c0.07,0.09,0.13,0.19,0.2,0.29l0.05,0.08
						c0.34,0.53,0.19,1.23-0.34,1.57C296.14,175.88,295.93,175.93,295.72,175.93z"/>
				</g>
				<g>
					<path class="st4" d="M299.41,175.68c-0.25,0-0.5-0.08-0.71-0.25c-3.6-2.86-6.41-6.85-8.46-10c-0.34-0.53-0.19-1.23,0.33-1.57
						c0.53-0.34,1.23-0.19,1.57,0.33c1.96,3.01,4.63,6.81,7.97,9.47c0.49,0.39,0.57,1.1,0.18,1.59
						C300.08,175.54,299.75,175.68,299.41,175.68z"/>
				</g>
				<g>
					<path class="st4" d="M303.02,174.6c-0.37,0-0.73-0.18-0.95-0.52c-0.68-1.04-1.75-2.22-2.7-3.26c-0.4-0.44-0.78-0.86-1.12-1.25
						c-1.21-1.4-2.4-2.86-3.54-4.26c-0.89-1.1-1.82-2.23-2.75-3.33c-0.4-0.48-0.34-1.19,0.14-1.6c0.48-0.4,1.19-0.34,1.6,0.14
						c0.94,1.11,1.87,2.26,2.77,3.36c1.14,1.39,2.31,2.84,3.5,4.22c0.32,0.38,0.69,0.78,1.08,1.21c1.01,1.11,2.15,2.36,2.92,3.55
						c0.34,0.52,0.19,1.23-0.33,1.57C303.44,174.54,303.23,174.6,303.02,174.6z"/>
				</g>
				<g>
					<path class="st4" d="M308.37,175.51c-0.35,0-0.69-0.16-0.92-0.46c-2-2.73-4.09-5.57-6.2-8.44c-0.45-0.61-0.99-1.23-1.56-1.89
						c-0.78-0.91-1.59-1.85-2.22-2.82c-0.34-0.53-0.19-1.23,0.34-1.57c0.53-0.34,1.23-0.19,1.57,0.34c0.55,0.84,1.3,1.72,2.04,2.57
						c0.57,0.66,1.16,1.35,1.66,2.03c2.12,2.87,4.21,5.71,6.21,8.44c0.37,0.51,0.26,1.22-0.25,1.58
						C308.84,175.44,308.6,175.51,308.37,175.51z"/>
				</g>
				<g>
					<path class="st4" d="M312.29,174.22c-0.37,0-0.74-0.18-0.95-0.52c-1.17-1.81-2.66-3.82-4.54-6.16c-1-1.25-2.05-2.49-3.07-3.7
						c-0.48-0.57-0.95-1.13-1.43-1.7c-0.11-0.13-0.18-0.2-0.22-0.24c-0.33-0.34-0.41-0.6-0.45-0.99l-0.02-0.16
						c-0.07-0.62,0.38-1.18,1-1.25c0.62-0.07,1.18,0.38,1.25,1c0.05,0.06,0.11,0.12,0.17,0.2c0.47,0.57,0.95,1.13,1.42,1.69
						c1.03,1.22,2.09,2.47,3.1,3.74c1.93,2.4,3.46,4.47,4.67,6.34c0.34,0.53,0.19,1.23-0.33,1.57
						C312.71,174.16,312.5,174.22,312.29,174.22z"/>
				</g>
				<g>
					<path class="st4" d="M348.41,176.22c-0.38,0-0.76-0.19-0.97-0.55c-1.01-1.66-2.15-3.31-3.26-4.9
						c-2.11-3.03-4.29-6.15-5.73-9.66c-0.24-0.58,0.04-1.24,0.62-1.48c0.58-0.24,1.24,0.04,1.48,0.62c1.35,3.27,3.46,6.3,5.5,9.23
						c1.13,1.62,2.3,3.3,3.34,5.02c0.32,0.54,0.15,1.23-0.38,1.56C348.82,176.17,348.61,176.22,348.41,176.22z"/>
				</g>
				<g>
					<path class="st4" d="M352.11,175.97c-0.32,0-0.64-0.14-0.87-0.4c-1.3-1.54-2.23-3.29-3.13-4.97c-0.57-1.07-1.11-2.09-1.75-3.06
						c-0.3-0.46-0.67-0.96-1.06-1.48c-1-1.35-2.14-2.88-2.61-4.52c-0.17-0.6,0.18-1.23,0.78-1.4c0.6-0.17,1.23,0.18,1.4,0.78
						c0.36,1.25,1.32,2.54,2.25,3.79c0.41,0.55,0.8,1.08,1.14,1.6c0.69,1.06,1.28,2.16,1.85,3.23c0.88,1.65,1.71,3.22,2.86,4.58
						c0.4,0.48,0.34,1.19-0.14,1.6C352.63,175.88,352.37,175.97,352.11,175.97z"/>
				</g>
				<g>
					<path class="st4" d="M353.95,174.24c-0.37,0-0.73-0.18-0.95-0.52c-0.81-1.25-1.51-2.56-2.19-3.83
						c-0.4-0.75-0.81-1.53-1.24-2.27c-0.24-0.41-0.52-0.85-0.81-1.31c-0.68-1.06-1.38-2.16-1.81-3.31
						c-0.22-0.59,0.08-1.24,0.67-1.46c0.59-0.22,1.24,0.08,1.46,0.67c0.34,0.92,0.98,1.92,1.59,2.88c0.31,0.49,0.6,0.95,0.86,1.4
						c0.44,0.77,0.87,1.56,1.27,2.33c0.65,1.23,1.33,2.5,2.09,3.66c0.34,0.52,0.19,1.23-0.33,1.57
						C354.37,174.18,354.16,174.24,353.95,174.24z"/>
				</g>
				<g>
					<path class="st4" d="M354.55,169.09c-0.35,0-0.7-0.16-0.92-0.47c-1.35-1.88-2.55-3.65-3.68-5.38
						c-0.34-0.53-0.19-1.23,0.33-1.57c0.52-0.34,1.23-0.19,1.57,0.33c1.11,1.71,2.3,3.44,3.63,5.3c0.36,0.51,0.25,1.22-0.26,1.58
						C355.01,169.02,354.78,169.09,354.55,169.09z"/>
				</g>
				<g>
					<path class="st4" d="M220.64,325.13c-13.07,0-25.98-2.17-26.86-2.32c-0.67-0.11-1.18-0.66-1.25-1.34
						c-0.96-9.67-3.36-150.41-2.23-162.78c0.73-7.99,20.14-8.38,28.44-8.17c5.57,0.14,11.1,0.68,15.18,1.49
						c5.36,1.06,7.79,2.43,7.87,4.44c0.21,5.01,1.86,157.04,1.93,163.51c0.01,0.56-0.3,1.07-0.79,1.34
						C237.58,324.22,229.07,325.13,220.64,325.13z M195.46,320.01c5.98,0.92,33.34,4.7,45.23-0.97
						c-0.14-12.96-1.68-154.62-1.91-162.28c-0.81-0.77-5.49-2.4-15.91-3.05c-9.36-0.58-18.56,0.03-24.03,1.58
						c-3.44,0.98-5.41,2.28-5.53,3.67C192.3,170.11,194.51,303.81,195.46,320.01z"/>
				</g>
				<g>
					<path class="st4" d="M273.33,324.92c-14.41,0-30.01-3.28-30.98-3.49c-0.82-0.17-1.34-0.98-1.16-1.79
						c0.17-0.82,0.98-1.34,1.79-1.16c0.34,0.07,33.76,7.09,47.08,0.81c-0.14-12.98-1.68-154.73-1.91-162.28
						c-0.92-0.94-6.43-2.58-15.96-3.32c-9.4-0.72-18.61-0.25-24.04,1.24c-3.34,0.92-5.25,2.17-5.37,3.53
						c-0.08,0.83-0.81,1.44-1.64,1.37c-0.83-0.08-1.44-0.81-1.37-1.64c0.7-7.63,18.82-8.01,26.58-7.82
						c5.87,0.15,11.81,0.75,16.3,1.64c5.8,1.16,8.43,2.6,8.52,4.68c0.21,5.01,1.86,157.04,1.93,163.51c0.01,0.56-0.3,1.07-0.79,1.34
						C287.68,324.07,280.66,324.92,273.33,324.92z"/>
				</g>
				<g>
					<path class="st4" d="M326.12,327.2c-4.04,0-8.23-0.14-12.4-0.44c-5.9-0.42-11.07-1.11-14.96-1.99
						c-6.25-1.42-7.61-2.96-8.1-4.15c-0.32-0.77,0.05-1.66,0.82-1.97c0.77-0.32,1.66,0.05,1.97,0.82c0.49,1,6.41,3.38,21.58,4.35
						c12.6,0.81,25.47,0.19,32.77-1.57c4.79-1.16,6.47-2.59,6.45-3.55c-0.2-10.12-0.37-144.19-0.37-159.02
						c0-11.06-3.58-11.51-8.11-12.07l-0.64-0.08c-4.92-0.63-35.5-0.96-46.85,0.48c-3.52,0.45-5.91,1.57-6.91,3.25
						c-1.03,1.74-0.33,3.66-0.32,3.68c0.31,0.78-0.08,1.66-0.85,1.96c-0.78,0.31-1.65-0.08-1.96-0.85c-0.05-0.13-1.26-3.3,0.53-6.33
						c1.51-2.54,4.58-4.13,9.13-4.7c11.52-1.46,42.6-1.13,47.62-0.48l0.63,0.08c4.79,0.59,10.76,1.33,10.76,15.07
						c0,14.83,0.18,148.86,0.37,158.96c0.06,3.18-3.26,5.42-10.16,6.85C341.76,326.61,334.25,327.2,326.12,327.2z"/>
				</g>
				<g>
					<path class="st4" d="M354.41,163.45c-0.14,0-0.29-0.02-0.43-0.06c-4.73-1.41-17.29-2.11-34.43-1.94
						c-14.44,0.15-26.93,0.89-28.3,1.31c-0.79,0.27-1.65-0.16-1.91-0.95c-0.27-0.79,0.16-1.65,0.95-1.92
						c3.81-1.28,52.75-2.91,64.56,0.6c0.8,0.24,1.26,1.08,1.02,1.88C355.67,163.02,355.07,163.45,354.41,163.45z"/>
				</g>
			</g>
			<g>
				<path class="st4" d="M324.12,310.35c-14.19,0-27.8-2.17-32.95-4.55c-0.76-0.35-1.09-1.25-0.74-2.01
					c0.35-0.76,1.25-1.09,2.01-0.74c8.85,4.08,46.09,7.58,62.67-1.19c0.74-0.39,1.65-0.11,2.04,0.63c0.39,0.74,0.11,1.65-0.63,2.04
					C348.45,308.81,336.08,310.35,324.12,310.35z"/>
			</g>
			<g>
				<path class="st4" d="M320.28,296.8c-10.82,0-21.35-0.93-27.79-3.06c-0.79-0.26-1.22-1.12-0.96-1.91
					c0.26-0.79,1.12-1.22,1.91-0.96c13.94,4.6,49.85,3.31,61.03-1.06c0.78-0.3,1.66,0.08,1.96,0.86c0.3,0.78-0.08,1.65-0.86,1.96
					C348.93,295.22,334.36,296.8,320.28,296.8z"/>
			</g>
			<g>
				<path class="st4" d="M218.95,305.2c-11.3,0-22.58-1.37-25.97-3.91c-0.67-0.5-0.8-1.45-0.3-2.12c0.5-0.67,1.45-0.8,2.12-0.3
					c4.72,3.55,35.4,4.71,46.16,0.78c0.78-0.29,1.65,0.12,1.94,0.9c0.29,0.78-0.12,1.65-0.9,1.94
					C236.97,304.33,227.95,305.2,218.95,305.2z"/>
			</g>
			<g>
				<path class="st4" d="M220.83,296.05c-2.53,0-4.87-0.09-6.78-0.2c-8.57-0.5-18.78-2.01-20.8-3.85c-0.62-0.56-0.66-1.52-0.1-2.14
					c0.56-0.61,1.51-0.66,2.13-0.11c2.61,1.98,33.34,6.32,45.07,0.09c0.74-0.39,1.65-0.11,2.04,0.63c0.39,0.74,0.11,1.65-0.63,2.04
					C236.39,295.35,227.85,296.05,220.83,296.05z"/>
			</g>
			<g>
				<path class="st4" d="M268.25,305.05c-11.3,0-22.58-1.37-25.96-3.91c-0.67-0.5-0.8-1.45-0.3-2.12c0.5-0.67,1.45-0.8,2.12-0.3
					c4.72,3.55,35.4,4.71,46.16,0.78c0.78-0.29,1.65,0.12,1.94,0.9c0.29,0.78-0.12,1.65-0.9,1.94
					C286.27,304.18,277.26,305.05,268.25,305.05z"/>
			</g>
			<g>
				<path class="st4" d="M270.13,295.89c-2.53,0-4.87-0.09-6.78-0.2c-8.57-0.5-18.78-2.01-20.8-3.85c-0.62-0.56-0.66-1.52-0.1-2.14
					c0.56-0.62,1.51-0.66,2.13-0.11c2.61,1.98,33.33,6.32,45.07,0.08c0.74-0.39,1.65-0.11,2.04,0.63c0.39,0.74,0.11,1.65-0.63,2.04
					C285.7,295.2,277.15,295.89,270.13,295.89z"/>
			</g>
			<g>
				<path class="st4" d="M332.46,285.44h-17.31c-4.96,0-8.99-4.9-8.99-10.93V207.2c0-6.03,4.03-10.93,8.99-10.93h17.31
					c4.96,0,8.99,4.9,8.99,10.93v67.32C341.45,280.54,337.42,285.44,332.46,285.44z M315.15,199.29c-3.29,0-5.97,3.55-5.97,7.91
					v67.32c0,4.36,2.68,7.91,5.97,7.91h17.31c3.29,0,5.97-3.55,5.97-7.91V207.2c0-4.36-2.68-7.91-5.97-7.91H315.15z"/>
			</g>
			<g>
				<path class="st4" d="M197.76,223.86c-0.61,0-1.12-0.49-1.13-1.11c-0.08-3.57-0.19-7.44-0.29-11.47
					c-0.61-23.08-1.3-49.23,0.39-56.72c0.14-0.61,0.74-1,1.36-0.86c0.61,0.14,0.99,0.75,0.86,1.36c-1.63,7.21-0.91,34.35-0.34,56.16
					c0.11,4.03,0.21,7.9,0.29,11.48c0.01,0.63-0.48,1.15-1.11,1.16C197.77,223.86,197.77,223.86,197.76,223.86z"/>
			</g>
			<g>
				<path class="st4" d="M200.14,321.92c-0.57,0-1.06-0.43-1.13-1.01c-0.62-5.74-2.26-77.67-1.93-84.58
					c0.03-0.63,0.56-1.11,1.19-1.08c0.63,0.03,1.11,0.56,1.08,1.19c-0.33,6.88,1.31,78.52,1.92,84.23c0.07,0.62-0.38,1.18-1.01,1.25
					C200.22,321.92,200.18,321.92,200.14,321.92z"/>
			</g>
		</g>
	</g>
</g>
<g>
	<g>
		<g>
			<path class="st1" d="M126.16,313.55c-0.87,0-1.58-0.95-1.58-2.11s0.71-2.12,1.58-2.12l52.58-0.04h0c0.87,0,1.58,0.95,1.58,2.11
				c0,1.17-0.71,2.12-1.58,2.12L126.16,313.55L126.16,313.55z"/>
		</g>
	</g>
</g>
<g>
	<g>
		<g>
			<path class="st1" d="M126.16,204.35c-0.87,0-1.58-0.95-1.58-2.11s0.71-2.12,1.58-2.12l52.58-0.04h0c0.87,0,1.58,0.95,1.58,2.11
				c0,1.17-0.71,2.12-1.58,2.12L126.16,204.35L126.16,204.35z"/>
		</g>
	</g>
</g>
<g>
	<g>
		<g>
			<path class="st1" d="M181.89,90.36c-0.87,0-1.58-0.95-1.58-2.11c0-1.17,0.71-2.12,1.58-2.12l52.58-0.04h0
				c0.87,0,1.58,0.95,1.58,2.11c0,1.17-0.71,2.12-1.58,2.12L181.89,90.36L181.89,90.36z"/>
		</g>
	</g>
</g>
</svg>
