<svg xmlns="http://www.w3.org/2000/svg" xmlns:xlink="http://www.w3.org/1999/xlink" viewBox="0 0 765.05 795.68"><defs><style>.cls-1{isolation:isolate;}.cls-2{fill:#f9fcfe;}.cls-3{fill:#deecf9;}.cls-4{fill:#feca02;}.cls-5{fill:#fbb90f;}.cls-6{fill:#e79a14;}.cls-7{fill:#efeeee;stroke:#000;stroke-miterlimit:10;stroke-width:3px;}.cls-8{fill:#d2e1ec;mix-blend-mode:multiply;opacity:0.42;}.cls-9{fill:#424e83;}.cls-10{fill:#d1d2d3;}.cls-11{fill:#263971;}.cls-12{fill:#f7eb5f;}.cls-13{fill:#dbb30c;}.cls-14{fill:#fff;}.cls-15{fill:#fff9d4;opacity:0.34;}.cls-16{fill:#832335;}.cls-17{fill:#d70d35;}.cls-18{fill:#d12a52;}.cls-19{fill:#4499d5;opacity:0.12;}</style><image id="image" width="1000" height="1091" xlink:href="../DIMACOE/ESCUDOS%20Y%20LOGOS%20EJERCITO/1.%20Escudos%20y%20Logos/1.%20ESCUDO%20OFICIAL%20EJERCITO/Escudo_liviano.png"/></defs><g class="cls-1"><g id="Capa_1" data-name="Capa 1"><circle class="cls-2" cx="382.52" cy="382.52" r="382.52"/><circle class="cls-3" cx="382.52" cy="382.52" r="317.48"/><path class="cls-4" d="M306.61,254,185,255.42A18.07,18.07,0,0,0,167.35,276l33.11,239.74a18.07,18.07,0,0,0,18.12,15.6l375-4.4a18.07,18.07,0,0,0,17.75-16l22.92-207.25a12.06,12.06,0,0,0-12.13-13.43l-285.79,3.35-10.26-28.35A22,22,0,0,0,306.61,254Z"/><path class="cls-5" d="M306.68,259.79l-121.57,1.43a18.08,18.08,0,0,0-17.7,20.54l26.36,239.82,424.37-5,16.17-207.16A12.07,12.07,0,0,0,622.18,296l-285.79,3.35L326.12,271A22,22,0,0,0,306.68,259.79Z"/><polygon class="cls-6" points="172.34 326.62 193.77 521.58 618.14 516.6 633.39 321.21 172.34 326.62"/><rect class="cls-7" x="196.03" y="152.34" width="221.18" height="277.41" transform="matrix(0.98, -0.19, 0.19, 0.98, -49.34, 62.97)"/><polygon class="cls-8" points="389.1 133.99 385.77 134.63 351.36 405.06 409.77 412.49 441.36 406.43 389.1 133.99"/><rect class="cls-9" x="214.88" y="174.95" width="141.27" height="12.14" transform="translate(-28.99 57.03) rotate(-10.86)"/><rect class="cls-10" x="245.68" y="335.53" width="141.27" height="12.14" transform="translate(-58.69 65.7) rotate(-10.86)"/><rect class="cls-10" x="250.28" y="359.51" width="141.27" height="12.14" transform="translate(-63.12 67) rotate(-10.86)"/><rect class="cls-10" x="254.88" y="383.48" width="141.27" height="12.14" transform="translate(-67.56 68.3) rotate(-10.86)"/><rect class="cls-9" x="253.08" y="192.97" width="70.61" height="6.07" transform="translate(-31.76 57.84) rotate(-10.86)"/><rect class="cls-10" x="211.07" y="231.69" width="78.15" height="6.07" transform="translate(-39.74 51.32) rotate(-10.86)"/><rect class="cls-10" x="214.46" y="249.37" width="78.15" height="6.07" transform="translate(-43.01 52.28) rotate(-10.86)"/><rect class="cls-10" x="217.85" y="267.05" width="78.15" height="6.07" transform="translate(-46.28 53.24) rotate(-10.86)"/><rect class="cls-10" x="221.24" y="284.73" width="78.15" height="6.07" transform="translate(-49.55 54.19) rotate(-10.86)"/><rect class="cls-10" x="224.63" y="302.41" width="78.15" height="6.07" transform="translate(-52.82 55.15) rotate(-10.86)"/><rect class="cls-10" x="228.03" y="320.09" width="78.15" height="6.07" transform="translate(-56.09 56.1) rotate(-10.86)"/><rect class="cls-10" x="303.69" y="213.92" width="78.15" height="6.07" transform="translate(-34.73 68.46) rotate(-10.86)"/><rect class="cls-10" x="307.09" y="231.6" width="78.15" height="6.07" transform="translate(-38 69.41) rotate(-10.86)"/><rect class="cls-10" x="310.48" y="249.28" width="78.15" height="6.07" transform="translate(-41.27 70.37) rotate(-10.86)"/><rect class="cls-10" x="313.87" y="266.96" width="78.15" height="6.07" transform="translate(-44.54 71.32) rotate(-10.86)"/><rect class="cls-10" x="317.26" y="284.64" width="78.15" height="6.07" transform="translate(-47.81 72.28) rotate(-10.86)"/><rect class="cls-10" x="320.65" y="302.32" width="78.15" height="6.07" transform="translate(-51.08 73.23) rotate(-10.86)"/><rect class="cls-7" x="378.84" y="144.14" width="221.18" height="277.41" transform="translate(39.62 -59.52) rotate(7.25)"/><rect class="cls-11" x="432.93" y="165.64" width="141.27" height="12.14" transform="translate(25.7 -62.19) rotate(7.25)"/><rect class="cls-10" x="412.29" y="327.84" width="141.27" height="12.14" transform="matrix(0.99, 0.13, -0.13, 0.99, 46.01, -58.29)"/><rect class="cls-10" x="409.21" y="352.06" width="141.27" height="12.14" transform="translate(49.04 -57.71) rotate(7.25)"/><rect class="cls-10" x="406.13" y="376.27" width="141.27" height="12.14" transform="translate(52.08 -57.12) rotate(7.25)"/><rect class="cls-11" x="466.33" y="183.81" width="70.61" height="6.07" transform="translate(27.6 -61.83) rotate(7.25)"/><rect class="cls-10" x="414.18" y="208.73" width="78.15" height="6.07" transform="translate(30.36 -55.52) rotate(7.25)"/><rect class="cls-10" x="411.91" y="226.59" width="78.15" height="6.07" transform="translate(32.59 -55.09) rotate(7.25)"/><rect class="cls-10" x="409.63" y="244.44" width="78.15" height="6.07" transform="translate(34.83 -54.66) rotate(7.25)"/><rect class="cls-10" x="407.36" y="262.3" width="78.15" height="6.07" transform="translate(37.06 -54.23) rotate(7.25)"/><rect class="cls-10" x="405.09" y="280.16" width="78.15" height="6.07" transform="matrix(0.99, 0.13, -0.13, 0.99, 39.3, -53.8)"/><rect class="cls-10" x="402.82" y="298.02" width="78.15" height="6.07" transform="translate(41.54 -53.37) rotate(7.25)"/><rect class="cls-10" x="507.74" y="220.63" width="78.15" height="6.07" transform="translate(32.61 -67.23) rotate(7.25)"/><rect class="cls-10" x="505.46" y="238.49" width="78.15" height="6.07" transform="translate(34.84 -66.8) rotate(7.25)"/><rect class="cls-10" x="503.19" y="256.35" width="78.15" height="6.07" transform="translate(37.08 -66.37) rotate(7.25)"/><rect class="cls-10" x="500.92" y="274.21" width="78.15" height="6.07" transform="translate(39.31 -65.95) rotate(7.25)"/><rect class="cls-10" x="498.65" y="292.06" width="78.15" height="6.07" transform="translate(41.55 -65.52) rotate(7.25)"/><rect class="cls-10" x="496.38" y="309.92" width="78.15" height="6.07" transform="translate(43.79 -65.09) rotate(7.25)"/><path class="cls-12" d="M611.65,636.88l-409.38,4.8a19.72,19.72,0,0,1-19.78-17L146.34,362.93a19.73,19.73,0,0,1,19.31-22.43l475.53-5.58a19.74,19.74,0,0,1,19.84,22l-30,262.5A19.74,19.74,0,0,1,611.65,636.88Z"/><path class="cls-13" d="M611.71,642.67l-409.38,4.8a19.72,19.72,0,0,1-19.77-17L146.41,368.72a19.73,19.73,0,0,1,19.31-22.43l475.53-5.58a19.73,19.73,0,0,1,19.83,22l-30,262.5A19.73,19.73,0,0,1,611.71,642.67Z"/><path class="cls-14" d="M400.53,539.55c-58.21,0-90.08-50.08-90.4-50.58a2.07,2.07,0,0,1-.12-2c.3-.65,30.6-64.69,95.57-64.78h.14c62.81,0,88.92,62.87,89.18,63.51a2,2,0,0,1,0,1.66c-.26.54-6.43,13.25-21.15,26.11-13.56,11.84-37.23,26-73,26Zm-86.27-51.83c4.64,6.78,34.77,47.7,86.28,47.7h.18c34.37-.06,57.1-13.58,70.12-24.9a90.89,90.89,0,0,0,19.86-24.09c-3.31-7.39-28.92-60.07-85-60.07h-.13C347.67,426.45,318.37,479.65,314.26,487.72Z"/><path class="cls-14" d="M406.63,517.81a35.29,35.29,0,1,1,35.28-35.29A35.32,35.32,0,0,1,406.63,517.81Zm0-66.44a31.16,31.16,0,1,0,31.15,31.15A31.19,31.19,0,0,0,406.63,451.37Z"/><circle class="cls-15" cx="407.34" cy="488.44" r="121.24" transform="translate(-226.07 431.09) rotate(-45)"/><rect class="cls-16" x="505.31" y="589.96" width="68.1" height="29.19" transform="translate(543.83 -205.61) rotate(42.05)"/><rect class="cls-17" x="524.97" y="589.96" width="28.77" height="29.19" transform="translate(543.82 -205.61) rotate(42.05)"/><path class="cls-16" d="M544.42,661a15,15,0,0,1-1.09-21.18l33.72-37.37a15,15,0,0,1,21.18-1.09L721.62,713.62,667,772.55Z"/><path class="cls-16" d="M688.39,791.82,667,772.55l54.59-58.93,20.57,18.56a15,15,0,0,1,1.09,21.18l-33.71,37.37A15,15,0,0,1,688.39,791.82Z"/><path class="cls-18" d="M577.05,602.45l-15.13,16.77L696.21,741.05l25.41-27.43L598.23,601.36A15,15,0,0,0,577.05,602.45Z"/><path class="cls-18" d="M728.2,770.07l15.08-16.71a15,15,0,0,0-1.09-21.18l-20.57-18.56-25.41,27.43Z"/><path class="cls-17" d="M256.34,496.21A151.19,151.19,0,1,0,399.57,337.44,151.2,151.2,0,0,0,256.34,496.21Zm272.08-14A121.25,121.25,0,1,1,401.11,367.36,121.24,121.24,0,0,1,528.42,482.21Z"/><path class="cls-19" d="M472.86,386.45c30.2,91.14-20,178.64-95.58,219.48a121.25,121.25,0,0,0,95.58-219.48Z"/><path class="cls-16" d="M528.42,482.21A121.34,121.34,0,0,1,377.28,605.93a203.58,203.58,0,0,1-40.07,16.45A151.2,151.2,0,1,0,453,344.29a200.27,200.27,0,0,1,19.85,42.16A121.08,121.08,0,0,1,528.42,482.21Z"/><path class="cls-18" d="M276.08,495.07a131.42,131.42,0,1,0,124.5-138A131.42,131.42,0,0,0,276.08,495.07Zm252.33-13A121.24,121.24,0,1,1,401.1,367.23,121.24,121.24,0,0,1,528.41,482.09Z"/><use transform="translate(181.49 183.42) rotate(-10.86) scale(0.03)" xlink:href="#image"/><use transform="matrix(0.03, 0, 0, 0.03, 400.38, 143.61)" xlink:href="#image"/></g></g></svg>