<?xml version="1.0" encoding="utf-8"?>
<!-- Generator: Adobe Illustrator 25.0.0, SVG Export Plug-In . SVG Version: 6.00 Build 0)  -->
<svg version="1.1" id="Capa_1" xmlns="http://www.w3.org/2000/svg" xmlns:xlink="http://www.w3.org/1999/xlink" x="0px" y="0px"
	 viewBox="0 0 425.2 425.2" style="enable-background:new 0 0 425.2 425.2;" xml:space="preserve">
<style type="text/css">
	.st0{opacity:0.24;}
	.st1{fill:#020203;}
	.st2{clip-path:url(#SVGID_2_);fill:#020203;}
	.st3{fill:#FAFAFA;stroke:#231F20;stroke-width:3;stroke-miterlimit:10;}
	.st4{fill:none;stroke:#E30613;stroke-width:2;stroke-miterlimit:10;}
	.st5{fill:#E30613;stroke:#E30613;stroke-width:2;stroke-miterlimit:10;}
	.st6{fill:#231F20;}
	.st7{clip-path:url(#SVGID_4_);fill:#E30613;}
	.st8{fill:#020304;}
</style>
<g>
	<g class="st0">
		<path class="st1" d="M330.66,267.08c-0.95-1.57-2.72-2.15-3.81-3.51c0.19-0.54-0.15-1-0.21-1.5c-0.04-0.16-0.09-0.32-0.16-0.48
			c-0.38-0.89-0.81-1.77-0.49-2.78c-0.28-0.65,0-1.21,0.25-1.78c0.14-0.46,0.03-0.92,0.01-1.38c-0.12-0.8-0.16-1.61-0.41-2.39
			c0.02-0.43-0.03-0.86,0-1.3c-0.03-0.66-0.49-1.26-0.3-1.95c0.1-1.07,0.31-2.15-0.09-3.21c0.44-0.85-0.23-1.63-0.14-2.46
			c0-0.82-0.54-1.54-0.38-2.38c0.13-1.25,1.32-2.28,1.32-3.3c-0.01-1.59,0.92-2.47,1.6-3.58c0.22-0.47,0.36-0.96,0.31-1.49
			c0.73-1.06,1.77-2.03,0.95-3.51c0.14-0.73-0.19-1.34-0.48-1.97c-0.26-0.69-0.32-1.42-0.44-2.14c0.04-0.16,0.08-0.31,0.13-0.46
			c-0.69-0.86-0.05-1.86-0.29-2.77c0.55-1.01-0.14-1.91-0.26-2.86c-0.19-0.66-0.82-0.88-1.26-1.28c-1,0.41-1.38-0.13-1.43-1.01
			c-0.05-0.85,0.19-1.65,0.63-2.37c0.37-0.44,0.79-0.84,1.08-1.35c0.82-0.71,2.06-1.15,1.63-2.76c-0.63,0.16-1.31,0.88-1.96,0.08
			c-0.05-0.47-0.04-0.93,0.41-1.24c1.24-1.01,1.1-1.7-0.64-2.25c-0.63-0.2-1.05-0.29-0.97-1.02c-0.89-0.19-0.62-1.03-0.87-1.57
			c0.14-0.6-0.35-1.11-0.25-1.71c-0.17-0.18-0.33-0.35-0.5-0.53c0.16-0.76-0.22-1.38-0.52-2.02c-0.55-1.36-1.85-2.29-2.09-3.82
			c-0.67-0.06-0.82-0.89-1.47-0.98c-0.7-0.83-1.65-1.18-2.65-1.45c-0.77-0.21-1.46-0.49-1.12-1.52c0.49-0.61,1.53-0.16,1.91-0.98
			c-0.09-0.89-1.67-1.4-0.66-2.57c0.19-0.64-0.19-1.14-0.43-1.67c-0.9-0.88-1.2-2.12-1.88-3.13c-0.46-0.69-0.62-1.47-0.6-2.29
			c0.65-0.11,1.14-0.6,2.01-0.12c0.66,0.36,2.01,0.09,1.56-1.45c-0.2-0.4-0.65-0.55-0.91-0.89c-0.17,0.01-0.35,0.05-0.51,0.03
			c-1.53-0.22-2.99-1.26-4.58,0.23c-0.55,0.51-1.38-0.66-1.8-1.23c-0.52-0.71,0.42-0.64,0.79-0.87c0.96-0.61,1.57-1.58,2.34-2.37
			c0.88-0.9,0.74-1.39-0.31-1.85c-0.86-0.33-1.69-0.39-2.47,0.21c-1.67,0.01-1.86-0.29-1.17-1.86c0.1-0.44,0.1-0.78-0.52-0.58
			c-0.89,0.46-1.45,1.17-1.58,2.18c-0.56,0.5-1.3,0.46-1.96,0.66c-0.51,0.04-1.06-0.13-1.52,0.24c-0.86-1.05-2.6-0.72-3.26-2.07
			c-0.36-0.29-0.44-0.78-0.76-1.09c-0.2,0.1-0.46,0.15-0.6,0.3c-1.23,1.33-1.65,1.27-2.36-0.4c-0.28-0.66-0.87-0.88-1.48-0.97
			c-0.56-0.09-1.14-0.03-1.59-0.46c-0.56,0.12-1.23-0.05-1.59,0.61c-0.03,0.44,0.16,1.08-0.7,0.76c-0.56,0.56-0.26,0.99,0.2,1.4
			c0.59,0.45,0.89,1.29,1.77,1.34c0.53,1.04,0.53,1.05-0.05,1.42c-2.26-0.43-4.14-2.15-6.6-1.92c-0.95-0.29-1.82,0.8-2.79,0.18
			c-0.34,0.03-0.68,0.06-1.01,0.09c-0.4-0.19-0.73-0.11-1,0.24c-0.87,0.78-1.75,1.9-2.54-0.07c0.18-0.46-0.07-0.86-0.19-1.28
			c-0.6-0.43-1.36-0.13-1.98-0.44c-0.64-0.43-0.32-1.31-0.84-1.79c-0.28-0.06-0.66-0.03-0.82-0.2c-2.09-2.18-5.01-2.69-7.62-3.84
			c-0.68-0.3-1.28-0.78-2.08-0.48c-0.67-0.46-1.41,0.01-2.11-0.15c-0.5-0.11-0.99-0.22-1.49-0.33c-0.6-0.27-1.14,0.33-1.74,0.1
			c-0.87,0.17-1.71-0.45-2.58-0.08c-1.66-0.03-3.23,0.29-4.67,1.15c-1.32-0.23-1.9,0.96-2.84,1.47c-0.36,0.2-0.54,0.51-0.55,0.92
			c-0.1,0.12-0.19,0.25-0.29,0.37c-0.22,0.59,0.38,1.14,0.11,1.73c-0.15,1.83,0.22,3.46,2.28,3.88c1.21,0.25,2.26,0.74,3.34,1.25
			c0.32,0.15,0.86-0.06,0.72,0.58c-0.09,0.46-0.39,0.62-0.88,0.59c-0.68-0.05-1.36,0-2.04,0.01c-0.5-0.23-0.96-0.19-1.37,0.19
			c-0.32,0.77,0.44,1.46,0.17,2.23c-0.06,0.67-0.66,0.93-1.03,1.36c-0.44,0.22-0.99,0.04-1.41,0.36c-1.21-0.72-2.44-1.36-3.92-1.18
			c-0.48-0.5-1.07-0.83-1.69-1.1c-0.58-0.09-1.18,0.13-1.76-0.1c-0.39-0.55-0.94-0.46-1.52-0.42c-1.06,0.07-2.11-0.05-3.06-0.6
			c-0.35-0.14-0.65-0.07-0.92,0.18c-0.75,0.21-1.68,0.21-2.21,0.67c-1.04,0.91-1.97,0.68-2.7-0.1c-1.4-1.5-3.17-1.75-5.02-1.91
			c-0.69-0.17-1.38,0.31-2.07,0.02c-0.71,0.28-1.53,0.18-2.19,0.62c-0.95,0.9-1.89,1.82-2.86,2.7c-0.27,0.25-0.54,0.74-1,0.43
			c-0.44-0.3-0.71-0.74-0.45-1.34c0.65-1.51,0.01-2.75-0.86-3.94c-0.46-0.63-0.97-1.24-1.39-1.9c-1.83-2.87-3.77-5.57-6.91-7.25
			c-1.22-0.66-2.74-1.31-3.07-3.01c-0.18-0.7-0.36-1.4-0.86-1.95c-0.67-0.07-1.33-0.13-2-0.2c-0.24-0.03-0.44-0.15-0.53-0.36
			c-0.09-0.21,0.05-0.29,0.25-0.29c1.04-0.6,1.97-1.28,2.11-2.6c0.11-0.76-0.09-1.44-0.5-2.08c-0.24-0.26-0.55-0.24-0.86-0.21
			c-0.65-0.76-1.42,0.2-2.1-0.13c-0.65-0.18-1.15,0.23-1.69,0.44l0.02-0.04c-0.53,0.41,0.79,1.26-0.35,1.53
			c-0.67-0.53-0.12-1.74-1.15-2.07c-0.48-0.54-1.59-0.05-1.79-1.07c-0.03-0.72-0.8-1.25-0.52-2.05c-0.48-0.51-1.38-1.1-0.65-1.76
			c0.61-0.55,1.12,0.26,1.55,0.81c0.38,0.47,0.93,0.82,1.4,1.22c0.72,0.07,1.42,0.35,2.15,0.21c0.64-0.25,1.38-0.17,1.93-0.66
			c1.01-1.39,0.67-2.54-1.1-2.88c-1.23-0.24-2.26-0.73-3.25-1.4c-0.36-0.61-0.58-1.26-0.47-1.98c0.17-0.49,0.62-0.67,0.94-0.4
			c1.75,1.44,4.06,1.41,6,2.36c1.8,0.88,3.33,0.54,4.34-0.88c0.35-0.5,0.58-1.01,0.31-1.59c-0.31-0.65-0.84-0.9-1.56-0.65
			c-0.54-0.37-1.19,0.11-1.72-0.23c-0.82-0.57-1.52-1.24-2.08-2c-2.18-0.05-4.32-0.37-6.21-1.26c-4.78,0.62-9.56,0.84-14.34,0.23
			c-5.12-0.65-6.06-6.93-1.2-8.87c3.12-1.24,6.26-2.46,9.4-3.68c-0.52,0.14-1.04,0.28-1.56,0.41c-5.1,1.28-12.12,3.36-17.27,1.25
			c-2.67-1.09-3.78-3.93-2.9-6.14c-0.07,0.08-0.13,0.15-0.2,0.23c-0.72,0.38-1.42,0.82-2.29,0.61c-0.61-0.25-1.34-0.15-1.88-0.63
			c-0.72,0.03-1.44,0.05-1.99,0.62c-0.99,0.89-2.15,1.49-3.42,1.87c-0.6,0.44-1.28,0.63-2.03,0.55c-0.32-0.29-0.64-0.58-0.96-0.87
			c-0.26-0.22-0.55-0.22-0.86-0.13c-1.42,1.66-0.52,2.62,1.02,3.38c0.99,0.09,1.77-0.56,2.68-0.74c0.44-0.08,0.83-0.25,1.1-0.64
			c0.64-0.09,1.25-0.54,1.92-0.12c0.44-0.14,0.8,0.02,1.12,0.31c0.06,0.65,0.06,1.27-0.7,1.55c-0.8,0.11-1.54,0.61-2.4,0.41
			l0.05,0.01c-0.53-0.12-1.01-0.09-1.35,0.41c-0.27,0.45-1.15,0.59-0.81,1.31c0.21,0.44,0.8,0.39,1.23,0.33
			c1.41-0.19,2.12,0.83,2.99,1.61c0.28,0.25,0.01,1.08,0.81,0.79c0.44-0.7,0.96-0.97,1.68-0.35c0.58,0.47,0.23,0.99,0.07,1.49
			c0.1,0.87,0.91-0.11,1.13,0.43c1.66,0.94,1.67,1.05,0.28,2.54c-0.64,0.28-1.27,0.56-2,0.42c-0.27-0.15-0.54-0.3-0.81-0.45
			c-0.36-0.29-0.69-0.01-1.04,0.03c-0.66,0.1-1.21,0.39-1.58,0.97c-1.22,0.77-2.32,1.61-2.67,3.16c-0.17,0.77-0.91,0.93-1.6,1.12
			c-1.48,0.39-3.12,0.4-3.95,2.17c-0.28,0.6-1.2,0.8-1.47-0.32c-0.14-0.6-0.43-1.13-0.38-1.81c0.11-1.3-0.52-2.26-1.73-2.8
			c-0.52-0.26-0.94-0.13-1.28,0.31c-0.13,0.04-0.27,0.09-0.4,0.13c-0.51,0.48-0.04,0.94,0.03,1.4c0.67,0.91,2.25,1.59,0.75,3.04
			c-0.51,0.45-1.06,0.41-1.63,0.11c-0.57-0.08-1.03-0.35-1.4-0.79c-0.54-0.53-0.36-1.33-0.73-1.93c-0.44-0.22-0.78-0.82-1.39-0.36
			c-0.38,0.07-0.75,0.16-0.83,0.63c-0.25,0.41-0.14,0.86-0.1,1.29c0.49,0.12,0.72,0.55,1.04,0.87c0.23,0.32,0.52,0.63,0.21,1.05
			c-1.24,1.2-1.95,3.19-4.23,2.84c-0.42,0.48,0.21,0.95,0,1.43c-0.17,1.25-1.27,1.87-1.93,2.78c-1.14,1.58-2.32,3.26-3.86,4.39
			c-2.21,1.63-3.7,3.52-4.47,6.15c-0.47,1.62-1.18,3.3-3.11,3.82c-0.71,0.19-0.68,0.67-0.65,1.2c-0.61,0.42-0.01,1.04-0.27,1.52
			c-0.18,0.38-0.43,0.66-0.86,0.78c-2.26,0.6-2.97,2.41-1.75,4.43c-0.23,0.71,0.45,1.34,0.18,2.05c-0.28,0.99-1.61,1.95-0.8,2.92
			c1.21,1.47,0.87,2.68,0.06,4.03c-0.26,0.61,0.33,1.16,0.12,1.76c-0.44,0.68-0.83,1.4-0.18,2.15c0.7,0.8,0.54,1.67,0.32,2.56
			c-0.1,0.38-0.38,0.75,0.21,0.96c0.83,0.22,1.56-0.51,2.39-0.28l0.59,0.91c0.75,0.14,1.42-0.07,2.04-0.49
			c1.15-0.02,1.51,0.49,1.04,1.55c-0.06,0.15-0.05,0.31,0.01,0.46c0.42,0.62,1.28-0.24,1.66,0.49c0.14-0.02,0.27-0.05,0.41-0.07
			c0.19,1.02-0.99,0.43-1.19,1.01c-0.09,0.13-0.17,0.27-0.26,0.4c0.22,0.16,0.4,0.37,0.61,0.54c0.27,0.4,0.52,0.81,0.27,1.32
			c0.09,0.37,0.08,0.8,0.54,0.96c1,0.36,0.76,1.04,0.44,1.73c-0.43,0.43-1.13,0.31-1.56,0.74c-0.11,0.45-0.5,0.49-0.85,0.59
			c-0.23,0.17-0.18,0.42-0.18,0.66c0.59,0.91,0.2,1.42-0.71,1.71c-1.71,0.58-2.93,2.69-1.96,3.5c0.87,0.72,1.23,1.13,0.12,1.88
			c-0.32,0.22-0.21,0.64,0.24,0.77c1.04,0.29,2.06,0.72,3.12,0.82c1.92,0.19,3.04-0.94,3.05-2.85c-0.34-0.92-0.39-1.79,0.44-2.51
			c0.54,0.19,1.07,0.38,1.61,0.57c-0.11,0.64,0.61,1.23,0.1,1.89c0.63,1.18,1.18,0.93,2.18,0.22c1.09-0.78,1.58-2.03,2.62-2.76
			c1.99-1.39,3.57-3.24,5.45-4.75c0.82-0.13,1.59-0.64,2.46-0.28c1.37-0.21,2.61-0.28,3.16,1.46c0.12,0.38,0.65,0.81,1.12,1.15
			c1.67,1.22,2.03,3.27,0.64,4.09c-1.4,0.83-1.86,2.04-2.32,3.37c-0.18,0.53-0.14,1,0.34,1.36c1.27,1.07,1.58,0.05,1.94-0.88
			c0.42-0.48,1.18-0.22,1.59-0.73c0.66,0.08,0.93,0.65,1.32,1.06c0.52,0.25,0.97-0.1,1.45-0.16c0.43-0.22,0.86-0.43,1.34-0.51
			c0.97-0.9,1.92-0.88,3.11-0.27c2.15,1.11,4.51,1.73,6.84,2.38c1.44-0.02,2.77-0.46,4.06-1.04c0.61-0.3,1.13-0.74,1.69-1.12
			c1-1.07,1.67-2.46,2.96-3.27c0.45-0.28,0.81-0.48,1.35-0.01c0.65,0.57,0.1,0.85-0.14,1.21c-0.41,0.62-0.88,1.2-1.28,1.83
			c-0.45,0.7-0.88,1.71-0.09,2.16c1.3,0.74,0.63,1.47,0.35,2.28c-0.44,0.57,0.2,1.28-0.25,1.85c-0.28,1.23-0.89,2.15-1.76,3.15
			c-1.56,1.79-3.87,3.29-3.76,6.16c-0.37,1,0.65,1.83,0.35,2.82c0.03,0.06,0.06,0.13,0.08,0.19c-0.26,0.46-0.74,0.8-0.74,1.4
			c-0.52,1.42-1.95,2.47-1.62,4.25c0.13,0.72-0.08,1.29-0.78,1.87c-0.51,0.42-1.55,1.44-0.29,2.44c0.42,0.34-0.01,0.57-0.34,0.71
			c-0.61-0.11-1.16,0.04-1.65,0.42c-0.21,1.57-1.42,2.54-2.28,3.72c-0.19,0.59,0.27,1.26-0.22,1.81c-1.09,0.76-1.78,1.87-2.55,2.91
			c0.31,1.31-0.05,2-1.53,1.64c-0.23,0.14-0.73,0.14-0.3,0.61c0.66,1.12-0.47,1.21-0.96,1.67c-0.31,0.06-0.2,0.59-0.6,0.55
			c-0.16,0.03-0.32,0.05-0.48,0.08c-0.53-0.17-0.72,0.08-0.71,0.57c0.01,0.7-0.4,0.67-0.89,0.54c-0.09,0.36-0.41,0.77,0.06,1.06
			c0.49,0.31,1.35,0.5,0.81,1.27c-0.59,0.85-1.2,0.01-1.77-0.25c-0.46-0.22-0.87-0.56-1.44-0.4c-0.57,0.16-0.35,0.44-0.15,0.74
			c-0.21,0.74-0.87,0.38-1.32,0.53c-0.63,0.18-1.29,0.29-1.91,0.52c-0.9,1.72-2.72,2.05-3.63,0.45c-0.58-1.02-1.18-0.77-1.92-0.72
			c-0.26-0.34-0.73-0.47-0.91-0.89c-0.88-0.47-1.21-1.36-1.66-2.16c-0.24-0.02-0.44,0.08-0.59,0.26c0.42,0.86-0.28,1.39-0.6,2.03
			c-0.26,0.37-0.12,0.75-0.04,1.13c-0.57,0.44-1.09,0.98-1.72,1.3c-0.96,0.48-0.29,0.78,0.03,1.15c-0.31,0.37-0.71,0.6-1.19,0.67
			c-0.31,0.82-1.48,0.91-1.59,1.9c-0.44,0.33,0.34,1.28-0.68,1.31c-0.64-0.13-1.27-0.21-1.75,0.39c-1.14,0.7-1.98,1.84-3.34,2.2
			c-0.63,0.55-1.63,0.4-2.16,1.14c-0.27,0.48-0.53,0.95-0.8,1.43c-0.5,0.45-1.11,0.41-1.72,0.41c-0.27-0.17-0.54-0.35-0.8-0.52
			c-0.74-0.06-1.42,0.09-2.03,0.53c-0.2-0.09-0.45-0.14-0.6-0.29c-1.46-1.48-1.45-1.49-2.72,0.13c-0.39,0.5-0.71,0.49-1-0.09
			c-0.53-0.28-0.16-1.12-0.83-1.32c-0.36,0.37-0.49,1.09-1.31,0.7c-0.82-0.38-1.69-0.64-2.53-0.99c-0.35-0.15-0.94-0.32-0.79-0.76
			c0.65-1.81-0.72-1.73-1.76-1.99c-0.63-0.24-1.21,0.38-1.85,0.1c-0.66-0.06-1.33-0.12-1.99-0.18c-0.9-0.08-1.71,0.15-2.48,0.61
			c0.07,0.82-0.55,0.81-1.08,0.93c-0.14-0.03-0.27-0.08-0.39-0.15c-1.23-0.25-2.45-0.48-3.52,0.48c-0.29,0.34-0.62,0.67-0.13,1.11
			c0.78,0.51,0.75,1.19,0.43,1.95c-0.57,1.36-1.12,2.73-1.68,4.1c-0.38,0.23-0.56,0.65-0.89,0.93c0.25,0.55,0.5,1.1,0.76,1.64
			c-0.1,0.27-0.13,0.54-0.11,0.83c0.14,0.63,0.22,1.28,0.58,1.84c0.2,0.5,0.28,1.03,0.43,1.54c0.38,0.59,0.48,1.27,0.65,1.92
			c0.2,0.53,0.58,0.76,1.14,0.66c0.36,0.21,0.36,0.21-0.04,0.62c-0.35,1.17-1.17,2.42,0.53,3.26c0.22,0.76,0.63,1.49,0.47,2.33
			c0.01,1.25-1.25,1.97-1.34,3.18c-0.25,0.85,0.53,1.6,0.26,2.45c-0.06,0.22-0.11,0.45-0.17,0.67c-0.53,0.84,0.43,1.72-0.07,2.56
			c0.75,0.85,1.47,1.72,2.26,2.54c1.69,1.76,2.13,3.69-0.36,4.89c-0.3,0.72-0.23,1.42,0.13,2.11c0.55,0.18,0.79-0.15,1.09-0.55
			c0.54-0.71,1.21-1.24,2.19-0.7c0.21,0.84,0.43,1.68,0.64,2.52c0.56,0.42,1.12,0.84,1.68,1.26c0.66-0.37,0.78-0.01,0.67,0.54
			c-0.08,0.39-0.46,0.63-0.59,1.01c-0.2,0.54-1.75,0.87-0.55,1.57c1.05,0.61,1.35,1.63,1.99,2.44c0.75,0.94,1.15,2.14-0.25,3.04
			c-0.38,0.3-0.36,0.67-0.2,1.07c0.31,0.48,0.82,0.61,1.32,0.63c1.18,0.04,1.43,0.66,1.14,1.67c-0.38,0.34,0.14,0.79-0.15,1.14
			c0.2,0.74,0.28,1.51,1.1,1.93c0.62,0.31,0.39,0.68-0.08,0.97c-0.79,0.11-1.44,0.44-1.76,1.23c0.12,0.65,0.3,1.22,1.1,1.33
			c0.52,0.07,0.99,0.28,0.99,0.94c-0.32,0.76,0.33,1.11,0.66,1.59c0.39,1.06,1.31,1.54,2.22,2.04c0.28,0.16,0.87,0.15,0.8,0.52
			c-0.41,2.3,1.67,2.52,2.83,3.51c0.33,0.62,1.02,1.07,0.85,1.92c0.79,1.66,2.96,2.06,3.55,3.96c0.28,0.91,1.29,1.34,1.93,1.98
			c1.09,1.09,2.85,1.71,3.03,3.58c-0.04,0.08-0.1,0.13-0.15,0.19c0.59,0.18,1.09,0.47,1.5,0.84c0.46-0.75,1.04-0.67,1.83,0.34
			c0.17,0.44,0.66,0.57,0.92,0.93c1.73-0.44,3.85,0.22,4.63,1.03c1.42,1.47,2.59,1.52,4.19,1.04c0.5-0.56,1.27-0.72,1.82-1.22
			c1.53-1.85,1.56-1.85,3.5-0.41c0.22,0.17,0.46,0.32,0.72,0.42c1.46,0.57,1.85,1.54,1.17,2.95c-0.33,0.89,0.14,1.7,0.28,2.54
			c0.25,0.02,0.5,0.05,0.75,0.07c0.61,0.36,1.19,0.11,1.77-0.1c0.26-0.45,0.52-0.9,0.77-1.35c0.48-0.12,0.96-0.2,1.41,0.09
			c0.62,0.79,0.64,2.27,2.24,1.94c0.63-0.47,1.34-0.64,2.11-0.52c0.25,0.55,0.49,1.11,0.74,1.66c0.43,0,0.85,0.44,1.28,0.01
			c1.2-0.21,2.36-1.15,3.62-0.49c1.06,0.55,2.12,0.56,3.23,0.47c0.38,0.26,0.92,0.26,1.18,0.72c0.86-0.07,1.72-0.15,2.58-0.22
			c0.54,0.15,1.01,0.49,1.56,0.63c0.04,0.13,0.09,0.26,0.13,0.4c0.71,0.97,0.48,2.26,1.14,3.25c0.51,0.23,1.02,0.45,1.53,0.68
			c0.87,0.43,1.78-0.4,2.66,0.07c0.63,0.29,1.52,0.39,1.15,1.47c-0.3,0.72,0.08,1.32,0.33,1.94c0.68,0.35,0.64,1.4,1.53,1.54
			c0.88,0.24,1.65-0.55,2.53-0.27c0.22,0.06,0.44,0.12,0.66,0.18c1.01-0.75,2.39-0.29,3.4-1.05c0.75-0.14,0.67-0.69,0.62-1.23
			c0.3-0.88,1.03-1.41,1.65-2.03c0.36,0.14,0.76-0.26,1.11,0.08c0.46-0.03,1.02,0.11,1.35-0.12c1.44-0.98,2.09-0.02,2.62,1.03
			c0.23,0.44,0.52,1,0.89,0.88c1.75-0.55,3.12,0.84,4.75,0.78c0.5,0.37,0.94,0.82,1.53,1.06c2.25,0.34,4.31,1.5,6.62,1.52
			c0.61-0.13,1.26-0.06,1.86-0.3c0.54-0.06,1.04-0.45,1.62-0.22c1.94-1.34,3.7-2.85,4.66-5.1c0.34-0.24,0.61-0.78,1.12-0.25
			c1.07,1.72,2.48,0.57,3.77,0.46c0.69,0.3,1.33-0.03,1.98-0.17c0.12-0.03,0.25-0.07,0.37-0.1c0.84-0.51,1.74-0.75,2.72-0.68
			c1.02-0.38,1.83,1.09,2.89,0.34c0.62-0.45,1.3-0.64,2.06-0.51l-0.05-0.01c0.88,0.27,1.66-0.54,2.54-0.26
			c0.32-0.08,0.64-0.16,0.96-0.25c1.07-0.03,2.08-0.24,3.01-0.79l-0.04,0.04c0.33-0.4,0.88-0.38,1.26-0.69
			c0.21-0.18,0.42-0.35,0.63-0.53c0.71-0.45,1.47-0.66,2.31-0.58c0.39-0.42,0.85-0.53,1.39-0.34c0.34,0.73,0.73,1.43,0.91,2.23
			c0.31,0.29,0.62,0.58,0.93,0.87c0.53-0.04,0.39-0.4,0.35-0.71c-0.07-0.59-0.46-1.14-0.27-1.77c-0.03-0.12-0.05-0.25-0.08-0.37
			c0.24-0.45,0.39-0.95,0.76-1.32c0.19-1.76,1.93-2.09,2.9-3.14c0.39-0.04,0.47-0.5,0.81-0.61c0.07-0.15,0.15-0.29,0.22-0.44
			c0.52-0.43,1.16-0.47,1.8-0.53c0.32,0.01,0.64,0.09,0.94-0.05c0.48-0.29,1.07-0.29,1.54-0.59c0.58-0.21,1.13-0.49,1.71-0.69
			c2.37-0.66,2.95-1.48,2.35-3.77c-0.28-1.05,0.11-1.62,0.86-2.09c4.34-2.75,5.18-5.07,3.53-9.85c0.19-0.53,0.48-1.02,0.69-1.55
			c1.94-2.52,3.57-5.25,5.68-7.66c0.81-0.93,1.32-2.44-0.6-3.17c-0.12-0.41-0.23-0.82,0.06-1.21c0.18-0.97,0.66-1.9,0.33-2.92
			c0.4-0.48-0.15-0.96-0.01-1.44c-0.67-0.54-0.88-1.35-1.24-2.07c-0.09-0.42-0.25-0.82-0.48-1.19c-0.12-0.58-0.42-1.14-0.25-1.76
			c0.69-0.86,0.45-1.97,0.82-2.93c0.78-2.08,2.37-2.5,4.06-1.02c0.79,0.33,0.64,1.37,1.34,1.77c0.04,0.13,0.08,0.25,0.12,0.38
			c0.14,0.59,0.71,1.08,0.43,1.77c-0.08,0.59-0.17,1.18-0.25,1.77c-0.24,0.86,0.54,1.61,0.26,2.47c0.26,0.49,0.43,1.07,0.8,1.46
			c0.38,0.4,0.97,0.99,1.36-0.07c-0.19-0.62-1.53-0.75-0.76-1.78c1.31-0.51,2.19,0.27,3.06,1.04c0.37,0.87,1.02,1.7,0.38,2.72
			c-0.42,0.28-1.11-0.36-1.39,0.4c-0.75,0.64,0.06,1.19,0.11,1.78c0.46,0.48,2,0.16,1.52,1.12c-0.82,1.61,0.26,2.26,1.01,3.17
			c-0.04,0.71,0.62,1.35,0.18,2.09c-0.1,1.04,0.71,1.39,1.4,1.82c0.59-0.1,0.91,0.32,1.28,0.65c0.23,0.37,0.29,0.9,0.87,0.97
			c1.3-1.3,2.76-2.39,4.38-3.27c0.34-0.36,0.93-0.28,1.25-0.68c0.42-0.16,0.84-0.32,1.26-0.48c0.48-0.85,1.54-0.56,2.17-1.11
			c0.56-0.4,1.31-0.37,1.85-0.82c1.79-0.53,2.66-2.02,3.62-3.42c0.53-0.5,1.4-0.46,1.81-1.15c0.57,0.12,1.01,0.07,1.55-0.35
			c0.96-0.76,1.93-1.5,2.74-2.42c1.25-0.98,2.93-0.79,4.26-1.55c0.32-0.14,0.65-0.28,0.97-0.41c0.32-0.71,0.95-0.64,1.56-0.62
			c0.83,0.27,0.5,0.89,0.42,1.41c-0.06,0.4-0.2,0.79,0.28,1.04c0.4,0.2,0.79,0.13,1.13-0.1c0.37-0.26,0.68-0.59,1.02-0.89
			c0.43-0.13,0.85-0.22,1.26,0.06c0.86-0.43,1.82-0.12,2.7-0.34c0.45-0.44,1.04-0.68,1.51-1.1c1.91-2.43,3.64-4.95,3.98-8.15
			c0.16-0.65-0.07-1.32,0.06-1.97c-0.23-0.5,0-1.2-0.7-1.48c-0.41-0.76-1.12-1.01-1.92-1.11c-1.18-0.15-1.17-0.58-0.38-1.35
			c0.43-0.42,0.83-0.74,1.42-0.87c1.58-0.35,1.89-1.23,0.99-2.55c-0.5-0.48-0.94-0.31-1.35,0.13c-0.23,0.07-0.46,0.13-0.69,0.2
			c-0.47-0.24-0.38-0.64-0.28-1.04c-0.32-0.92,0.13-1.7,0.57-2.42c0.27-0.45,0.71-0.95,1.39-0.3c0.39,0.37,0.9,0.85,1.45,0.14
			c0.48-0.63,0.92-1.45,0.35-2.05c-1.08-1.13-0.64-2.28-0.38-3.48c0.37-0.69,0.26-1.34-0.21-1.94c0.14-0.77,0.13-1.56,0.72-2.24
			c0.31-0.35,0.7-0.99,0.11-1.54c0.24-0.45,0.16-0.87-0.09-1.29c-0.21-0.58-0.46-1.15-0.38-1.78c0.27-0.23,0.27-0.52,0.21-0.83
			c0.18-0.82-0.41-1.52-0.33-2.32c0.37-0.3,0.05-0.5-0.1-0.72c0.3-0.67,0.08-1.21-0.41-1.69c-0.32-0.32-0.59-0.85-0.96-0.93
			c-1.89-0.39-3.3-1.17-3.36-3.36c0.12-0.52,0.36-0.86,0.96-0.54c0.5,0.23,0.67,0.05,0.44-0.42c-0.4-0.86,0.49-1.19,0.81-1.44
			c0.44-0.33,0.84,0.27,0.98,0.82c0.17,0.66,0.61,0.93,1.28,0.78c0.06-0.62-0.03-1.2-0.46-1.69l0.04,0.04
			c-0.43-0.49-0.57-1.06-0.45-1.7c0.32-0.09,0.64-0.17,0.97-0.26c0.54,0.74,1.16,0.85,1.88,0.26c1.01-1.29,2.49-1.49,3.97-1.63
			c0.51-0.05,1.14,0.17,1.33-0.45C330.99,268.39,331.1,267.8,330.66,267.08z"/>
		<g>
			<path class="st1" d="M247.44,163.36l-5.58,15.95c1.89-5.29,3.77-10.62,5.64-15.95C247.48,163.36,247.46,163.36,247.44,163.36z"/>
		</g>
		<g>
			<path class="st1" d="M152.25,358.84c49.68-49.68,114.42-114.42,164.1-164.1"/>
		</g>
		<g>
			<path class="st1" d="M131.49,351.06c59.4-59.5,118.98-119.08,178.22-178.22"/>
		</g>
		<g>
			<path class="st1" d="M173.94,366.05c46.74-46.74,107.65-107.65,154.39-154.39"/>
		</g>
		<g>
			<path class="st1" d="M120.56,338.35c49.71-49.71,114.48-114.48,164.19-164.19"/>
		</g>
		<g>
			<path class="st1" d="M199.76,369.22c37.8-37.8,87.06-87.06,124.87-124.87"/>
		</g>
		<g>
			<path class="st1" d="M235.1,200.73c11.5-11.5,23-23,34.49-34.49"/>
		</g>
		<g>
			<path class="st1" d="M113.29,322.53c39.16-38.96,77.98-77.78,116.85-116.85"/>
		</g>
		<g>
			<defs>
				<path id="SVGID_1_" d="M211.21,264.28"/>
			</defs>
			<use xlink:href="#SVGID_1_"  style="overflow:visible;fill:#020203;"/>
			<clipPath id="SVGID_2_">
				<use xlink:href="#SVGID_1_"  style="overflow:visible;"/>
			</clipPath>
			<path class="st2" d="M330.66,267.08c-0.95-1.57-2.72-2.15-3.81-3.51c0.19-0.54-0.15-1-0.21-1.5c-0.04-0.16-0.09-0.32-0.16-0.48
				c-0.38-0.89-0.81-1.77-0.49-2.78c-0.28-0.65,0-1.21,0.25-1.78c0.14-0.46,0.03-0.92,0.01-1.38c-0.12-0.8-0.16-1.61-0.41-2.39
				c0.02-0.43-0.03-0.86,0-1.3c-0.03-0.66-0.49-1.26-0.3-1.95c0.1-1.07,0.31-2.15-0.09-3.21c0.44-0.85-0.23-1.63-0.14-2.46
				c0-0.82-0.54-1.54-0.38-2.38c0.13-1.25,1.32-2.28,1.32-3.3c-0.01-1.59,0.92-2.47,1.6-3.58c0.22-0.47,0.36-0.96,0.31-1.49
				c0.73-1.06,1.77-2.03,0.95-3.51c0.14-0.73-0.19-1.34-0.48-1.97c-0.26-0.69-0.32-1.42-0.44-2.14c0.04-0.16,0.08-0.31,0.13-0.46
				c-0.69-0.86-0.05-1.86-0.29-2.77c0.55-1.01-0.14-1.91-0.26-2.86c-0.19-0.66-0.82-0.88-1.26-1.28c-1,0.41-1.38-0.13-1.43-1.01
				c-0.05-0.85,0.19-1.65,0.63-2.37c0.37-0.44,0.79-0.84,1.08-1.35c0.82-0.71,2.06-1.15,1.63-2.76c-0.63,0.16-1.31,0.88-1.96,0.08
				c-0.05-0.47-0.04-0.93,0.41-1.24c1.24-1.01,1.1-1.7-0.64-2.25c-0.63-0.2-1.05-0.29-0.97-1.02c-0.89-0.19-0.62-1.03-0.87-1.57
				c0.14-0.6-0.35-1.11-0.25-1.71c-0.17-0.18-0.33-0.35-0.5-0.53c0.16-0.76-0.22-1.38-0.52-2.02c-0.55-1.36-1.85-2.29-2.09-3.82
				c-0.67-0.06-0.82-0.89-1.47-0.98c-0.7-0.83-1.65-1.18-2.65-1.45c-0.77-0.21-1.46-0.49-1.12-1.52c0.49-0.61,1.53-0.16,1.91-0.98
				c-0.09-0.89-1.67-1.4-0.66-2.57c0.19-0.64-0.19-1.14-0.43-1.67c-0.9-0.88-1.2-2.12-1.88-3.13c-0.46-0.69-0.62-1.47-0.6-2.29
				c0.65-0.11,1.14-0.6,2.01-0.12c0.66,0.36,2.01,0.09,1.56-1.45c-0.2-0.4-0.65-0.55-0.91-0.89c-0.17,0.01-0.35,0.05-0.51,0.03
				c-1.53-0.22-2.99-1.26-4.58,0.23c-0.55,0.51-1.38-0.66-1.8-1.23c-0.52-0.71,0.42-0.64,0.79-0.87c0.96-0.61,1.57-1.58,2.34-2.37
				c0.88-0.9,0.74-1.39-0.31-1.85c-0.86-0.33-1.69-0.39-2.47,0.21c-1.67,0.01-1.86-0.29-1.17-1.86c0.1-0.44,0.1-0.78-0.52-0.58
				c-0.89,0.46-1.45,1.17-1.58,2.18c-0.56,0.5-1.3,0.46-1.96,0.66c-0.51,0.04-1.06-0.13-1.52,0.24c-0.86-1.05-2.6-0.72-3.26-2.07
				c-0.36-0.29-0.44-0.78-0.76-1.09c-0.2,0.1-0.46,0.15-0.6,0.3c-1.23,1.33-1.65,1.27-2.36-0.4c-0.28-0.66-0.87-0.88-1.48-0.97
				c-0.56-0.09-1.14-0.03-1.59-0.46c-0.56,0.12-1.23-0.05-1.59,0.61c-0.03,0.44,0.16,1.08-0.7,0.76c-0.56,0.56-0.26,0.99,0.2,1.4
				c0.59,0.45,0.89,1.29,1.77,1.34c0.53,1.04,0.53,1.05-0.05,1.42c-2.26-0.43-4.14-2.15-6.6-1.92c-0.95-0.29-1.82,0.8-2.79,0.18
				c-0.34,0.03-0.68,0.06-1.01,0.09c-0.4-0.19-0.73-0.11-1,0.24c-0.87,0.78-1.75,1.9-2.54-0.07c0.18-0.46-0.07-0.86-0.19-1.28
				c-0.6-0.43-1.36-0.13-1.98-0.44c-0.64-0.43-0.32-1.31-0.84-1.79c-0.28-0.06-0.66-0.03-0.82-0.2c-2.09-2.18-5.01-2.69-7.62-3.84
				c-0.68-0.3-1.28-0.78-2.08-0.48c-0.67-0.46-1.41,0.01-2.11-0.15c-0.5-0.11-0.99-0.22-1.49-0.33c-0.6-0.27-1.14,0.33-1.74,0.1
				c-0.87,0.17-1.71-0.45-2.58-0.08c-1.66-0.03-3.23,0.29-4.67,1.15c-1.32-0.23-1.9,0.96-2.84,1.47c-0.36,0.2-0.54,0.51-0.55,0.92
				c-0.1,0.12-0.19,0.25-0.29,0.37c-0.22,0.59,0.38,1.14,0.11,1.73c-0.15,1.83,0.22,3.46,2.28,3.88c1.21,0.25,2.26,0.74,3.34,1.25
				c0.32,0.15,0.86-0.06,0.72,0.58c-0.09,0.46-0.39,0.62-0.88,0.59c-0.68-0.05-1.36,0-2.04,0.01c-0.5-0.23-0.96-0.19-1.37,0.19
				c-0.32,0.77,0.44,1.46,0.17,2.23c-0.06,0.67-0.66,0.93-1.03,1.36c-0.44,0.22-0.99,0.04-1.41,0.36c-1.21-0.72-2.44-1.36-3.92-1.18
				c-0.48-0.5-1.07-0.83-1.69-1.1c-0.58-0.09-1.18,0.13-1.76-0.1c-0.39-0.55-0.94-0.46-1.52-0.42c-1.06,0.07-2.11-0.05-3.06-0.6
				c-0.35-0.14-0.65-0.07-0.92,0.18c-0.75,0.21-1.68,0.21-2.21,0.67c-1.04,0.91-1.97,0.68-2.7-0.1c-1.4-1.5-3.17-1.75-5.02-1.91
				c-0.69-0.17-1.38,0.31-2.07,0.02c-0.71,0.28-1.53,0.18-2.19,0.62c-0.95,0.9-1.89,1.82-2.86,2.7c-0.27,0.25-0.54,0.74-1,0.43
				c-0.44-0.3-0.71-0.74-0.45-1.34c0.65-1.51,0.01-2.75-0.86-3.94c-0.46-0.63-0.97-1.24-1.39-1.9c-1.83-2.87-3.77-5.57-6.91-7.25
				c-1.22-0.66-2.74-1.31-3.07-3.01c-0.18-0.7-0.36-1.4-0.86-1.95c-0.67-0.07-1.33-0.13-2-0.2c-0.24-0.03-0.44-0.15-0.53-0.36
				c-0.09-0.21,0.05-0.29,0.25-0.29c1.04-0.6,1.97-1.28,2.11-2.6c0.11-0.76-0.09-1.44-0.5-2.08c-0.24-0.26-0.55-0.24-0.86-0.21
				c-0.65-0.76-1.42,0.2-2.1-0.13c-0.65-0.18-1.15,0.23-1.69,0.44l0.02-0.04c-0.53,0.41,0.79,1.26-0.35,1.53
				c-0.67-0.53-0.12-1.74-1.15-2.07c-0.48-0.54-1.59-0.05-1.79-1.07c-0.03-0.72-0.8-1.25-0.52-2.05c-0.48-0.51-1.38-1.1-0.65-1.76
				c0.61-0.55,1.12,0.26,1.55,0.81c0.38,0.47,0.93,0.82,1.4,1.22c0.72,0.07,1.42,0.35,2.15,0.21c0.64-0.25,1.38-0.17,1.93-0.66
				c1.01-1.39,0.67-2.54-1.1-2.88c-1.23-0.24-2.26-0.73-3.25-1.4c-0.36-0.61-0.58-1.26-0.47-1.98c0.17-0.49,0.62-0.67,0.94-0.4
				c1.75,1.44,4.06,1.41,6,2.36c1.8,0.88,3.33,0.54,4.34-0.88c0.35-0.5,0.58-1.01,0.31-1.59c-0.31-0.65-0.84-0.9-1.56-0.65
				c-0.54-0.37-1.19,0.11-1.72-0.23c-0.82-0.57-1.52-1.24-2.08-2c-2.18-0.05-4.32-0.37-6.21-1.26c-4.78,0.62-9.56,0.84-14.34,0.23
				c-5.12-0.65-6.06-6.93-1.2-8.87c3.12-1.24,6.26-2.46,9.4-3.68c-0.52,0.14-1.04,0.28-1.56,0.41c-5.1,1.28-12.12,3.36-17.27,1.25
				c-2.67-1.09-3.78-3.93-2.9-6.14c-0.07,0.08-0.13,0.15-0.2,0.23c-0.72,0.38-1.42,0.82-2.29,0.61c-0.61-0.25-1.34-0.15-1.88-0.63
				c-0.72,0.03-1.44,0.05-1.99,0.62c-0.99,0.89-2.15,1.49-3.42,1.87c-0.6,0.44-1.28,0.63-2.03,0.55c-0.32-0.29-0.64-0.58-0.96-0.87
				c-0.26-0.22-0.55-0.22-0.86-0.13c-1.42,1.66-0.52,2.62,1.02,3.38c0.99,0.09,1.77-0.56,2.68-0.74c0.44-0.08,0.83-0.25,1.1-0.64
				c0.64-0.09,1.25-0.54,1.92-0.12c0.44-0.14,0.8,0.02,1.12,0.31c0.06,0.65,0.06,1.27-0.7,1.55c-0.8,0.11-1.54,0.61-2.4,0.41
				l0.05,0.01c-0.53-0.12-1.01-0.09-1.35,0.41c-0.27,0.45-1.15,0.59-0.81,1.31c0.21,0.44,0.8,0.39,1.23,0.33
				c1.41-0.19,2.12,0.83,2.99,1.61c0.28,0.25,0.01,1.08,0.81,0.79c0.44-0.7,0.96-0.97,1.68-0.35c0.58,0.47,0.23,0.99,0.07,1.49
				c0.1,0.87,0.91-0.11,1.13,0.43c1.66,0.94,1.67,1.05,0.28,2.54c-0.64,0.28-1.27,0.56-2,0.42c-0.27-0.15-0.54-0.3-0.81-0.45
				c-0.36-0.29-0.69-0.01-1.04,0.03c-0.66,0.1-1.21,0.39-1.58,0.97c-1.22,0.77-2.32,1.61-2.67,3.16c-0.17,0.77-0.91,0.93-1.6,1.12
				c-1.48,0.39-3.12,0.4-3.95,2.17c-0.28,0.6-1.2,0.8-1.47-0.32c-0.14-0.6-0.43-1.13-0.38-1.81c0.11-1.3-0.52-2.26-1.73-2.8
				c-0.52-0.26-0.94-0.13-1.28,0.31c-0.13,0.04-0.27,0.09-0.4,0.13c-0.51,0.48-0.04,0.94,0.03,1.4c0.67,0.91,2.25,1.59,0.75,3.04
				c-0.51,0.45-1.06,0.41-1.63,0.11c-0.57-0.08-1.03-0.35-1.4-0.79c-0.54-0.53-0.36-1.33-0.73-1.93c-0.44-0.22-0.78-0.82-1.39-0.36
				c-0.38,0.07-0.75,0.16-0.83,0.63c-0.25,0.41-0.14,0.86-0.1,1.29c0.49,0.12,0.72,0.55,1.04,0.87c0.23,0.32,0.52,0.63,0.21,1.05
				c-1.24,1.2-1.95,3.19-4.23,2.84c-0.42,0.48,0.21,0.95,0,1.43c-0.17,1.25-1.27,1.87-1.93,2.78c-1.14,1.58-2.32,3.26-3.86,4.39
				c-2.21,1.63-3.7,3.52-4.47,6.15c-0.47,1.62-1.18,3.3-3.11,3.82c-0.71,0.19-0.68,0.67-0.65,1.2c-0.61,0.42-0.01,1.04-0.27,1.52
				c-0.18,0.38-0.43,0.66-0.86,0.78c-2.26,0.6-2.97,2.41-1.75,4.43c-0.23,0.71,0.45,1.34,0.18,2.05c-0.28,0.99-1.61,1.95-0.8,2.92
				c1.21,1.47,0.87,2.68,0.06,4.03c-0.26,0.61,0.33,1.16,0.12,1.76c-0.44,0.68-0.83,1.4-0.18,2.15c0.7,0.8,0.54,1.67,0.32,2.56
				c-0.1,0.38-0.38,0.75,0.21,0.96c0.83,0.22,1.56-0.51,2.39-0.28l0.59,0.91c0.75,0.14,1.42-0.07,2.04-0.49
				c1.15-0.02,1.51,0.49,1.04,1.55c-0.06,0.15-0.05,0.31,0.01,0.46c0.42,0.62,1.28-0.24,1.66,0.49c0.14-0.02,0.27-0.05,0.41-0.07
				c0.19,1.02-0.99,0.43-1.19,1.01c-0.09,0.13-0.17,0.27-0.26,0.4c0.22,0.16,0.4,0.37,0.61,0.54c0.27,0.4,0.52,0.81,0.27,1.32
				c0.09,0.37,0.08,0.8,0.54,0.96c1,0.36,0.76,1.04,0.44,1.73c-0.43,0.43-1.13,0.31-1.56,0.74c-0.11,0.45-0.5,0.49-0.85,0.59
				c-0.23,0.17-0.18,0.42-0.18,0.66c0.59,0.91,0.2,1.42-0.71,1.71c-1.71,0.58-2.93,2.69-1.96,3.5c0.87,0.72,1.23,1.13,0.12,1.88
				c-0.32,0.22-0.21,0.64,0.24,0.77c1.04,0.29,2.06,0.72,3.12,0.82c1.92,0.19,3.04-0.94,3.05-2.85c-0.34-0.92-0.39-1.79,0.44-2.51
				c0.54,0.19,1.07,0.38,1.61,0.57c-0.11,0.64,0.61,1.23,0.1,1.89c0.63,1.18,1.18,0.93,2.18,0.22c1.09-0.78,1.58-2.03,2.62-2.76
				c1.99-1.39,3.57-3.24,5.45-4.75c0.82-0.13,1.59-0.64,2.46-0.28c1.37-0.21,2.61-0.28,3.16,1.46c0.12,0.38,0.65,0.81,1.12,1.15
				c1.67,1.22,2.03,3.27,0.64,4.09c-1.4,0.83-1.86,2.04-2.32,3.37c-0.18,0.53-0.14,1,0.34,1.36c1.27,1.07,1.58,0.05,1.94-0.88
				c0.42-0.48,1.18-0.22,1.59-0.73c0.66,0.08,0.93,0.65,1.32,1.06c0.52,0.25,0.97-0.1,1.45-0.16c0.43-0.22,0.86-0.43,1.34-0.51
				c0.97-0.9,1.92-0.88,3.11-0.27c2.15,1.11,4.51,1.73,6.84,2.38c1.44-0.02,2.77-0.46,4.06-1.04c0.61-0.3,1.13-0.74,1.69-1.12
				c1-1.07,1.67-2.46,2.96-3.27c0.45-0.28,0.81-0.48,1.35-0.01c0.65,0.57,0.1,0.85-0.14,1.21c-0.41,0.62-0.88,1.2-1.28,1.83
				c-0.45,0.7-0.88,1.71-0.09,2.16c1.3,0.74,0.63,1.47,0.35,2.28c-0.44,0.57,0.2,1.28-0.25,1.85c-0.28,1.23-0.89,2.15-1.76,3.15
				c-1.56,1.79-3.87,3.29-3.76,6.16c-0.37,1,0.65,1.83,0.35,2.82c0.03,0.06,0.06,0.13,0.08,0.19c-0.26,0.46-0.74,0.8-0.74,1.4
				c-0.52,1.42-1.95,2.47-1.62,4.25c0.13,0.72-0.08,1.29-0.78,1.87c-0.51,0.42-1.55,1.44-0.29,2.44c0.42,0.34-0.01,0.57-0.34,0.71
				c-0.61-0.11-1.16,0.04-1.65,0.42c-0.21,1.57-1.42,2.54-2.28,3.72c-0.19,0.59,0.27,1.26-0.22,1.81c-1.09,0.76-1.78,1.87-2.55,2.91
				c0.31,1.31-0.05,2-1.53,1.64c-0.23,0.14-0.73,0.14-0.3,0.61c0.66,1.12-0.47,1.21-0.96,1.67c-0.31,0.06-0.2,0.59-0.6,0.55
				c-0.16,0.03-0.32,0.05-0.48,0.08c-0.53-0.17-0.72,0.08-0.71,0.57c0.01,0.7-0.4,0.67-0.89,0.54c-0.09,0.36-0.41,0.77,0.06,1.06
				c0.49,0.31,1.35,0.5,0.81,1.27c-0.59,0.85-1.2,0.01-1.77-0.25c-0.46-0.22-0.87-0.56-1.44-0.4c-0.57,0.16-0.35,0.44-0.15,0.74
				c-0.21,0.74-0.87,0.38-1.32,0.53c-0.63,0.18-1.29,0.29-1.91,0.52c-0.9,1.72-2.72,2.05-3.63,0.45c-0.58-1.02-1.18-0.77-1.92-0.72
				c-0.26-0.34-0.73-0.47-0.91-0.89c-0.88-0.47-1.21-1.36-1.66-2.16c-0.24-0.02-0.44,0.08-0.59,0.26c0.42,0.86-0.28,1.39-0.6,2.03
				c-0.26,0.37-0.12,0.75-0.04,1.13c-0.57,0.44-1.09,0.98-1.72,1.3c-0.96,0.48-0.29,0.78,0.03,1.15c-0.31,0.37-0.71,0.6-1.19,0.67
				c-0.31,0.82-1.48,0.91-1.59,1.9c-0.44,0.33,0.34,1.28-0.68,1.31c-0.64-0.13-1.27-0.21-1.75,0.39c-1.14,0.7-1.98,1.84-3.34,2.2
				c-0.63,0.55-1.63,0.4-2.16,1.14c-0.27,0.48-0.53,0.95-0.8,1.43c-0.5,0.45-1.11,0.41-1.72,0.41c-0.27-0.17-0.54-0.35-0.8-0.52
				c-0.74-0.06-1.42,0.09-2.03,0.53c-0.2-0.09-0.45-0.14-0.6-0.29c-1.46-1.48-1.45-1.49-2.72,0.13c-0.39,0.5-0.71,0.49-1-0.09
				c-0.53-0.28-0.16-1.12-0.83-1.32c-0.36,0.37-0.49,1.09-1.31,0.7c-0.82-0.38-1.69-0.64-2.53-0.99c-0.35-0.15-0.94-0.32-0.79-0.76
				c0.65-1.81-0.72-1.73-1.76-1.99c-0.63-0.24-1.21,0.38-1.85,0.1c-0.66-0.06-1.33-0.12-1.99-0.18c-0.9-0.08-1.71,0.15-2.48,0.61
				c0.07,0.82-0.55,0.81-1.08,0.93c-0.14-0.03-0.27-0.08-0.39-0.15c-1.23-0.25-2.45-0.48-3.52,0.48c-0.29,0.34-0.62,0.67-0.13,1.11
				c0.78,0.51,0.75,1.19,0.43,1.95c-0.57,1.36-1.12,2.73-1.68,4.1c-0.38,0.23-0.56,0.65-0.89,0.93c0.25,0.55,0.5,1.1,0.76,1.64
				c-0.1,0.27-0.13,0.54-0.11,0.83c0.14,0.63,0.22,1.28,0.58,1.84c0.2,0.5,0.28,1.03,0.43,1.54c0.38,0.59,0.48,1.27,0.65,1.92
				c0.2,0.53,0.58,0.76,1.14,0.66c0.36,0.21,0.36,0.21-0.04,0.62c-0.35,1.17-1.17,2.42,0.53,3.26c0.22,0.76,0.63,1.49,0.47,2.33
				c0.01,1.25-1.25,1.97-1.34,3.18c-0.25,0.85,0.53,1.6,0.26,2.45c-0.06,0.22-0.11,0.45-0.17,0.67c-0.53,0.84,0.43,1.72-0.07,2.56
				c0.75,0.85,1.47,1.72,2.26,2.54c1.69,1.76,2.13,3.69-0.36,4.89c-0.3,0.72-0.23,1.42,0.13,2.11c0.55,0.18,0.79-0.15,1.09-0.55
				c0.54-0.71,1.21-1.24,2.19-0.7c0.21,0.84,0.43,1.68,0.64,2.52c0.56,0.42,1.12,0.84,1.68,1.26c0.66-0.37,0.78-0.01,0.67,0.54
				c-0.08,0.39-0.46,0.63-0.59,1.01c-0.2,0.54-1.75,0.87-0.55,1.57c1.05,0.61,1.35,1.63,1.99,2.44c0.75,0.94,1.15,2.14-0.25,3.04
				c-0.38,0.3-0.36,0.67-0.2,1.07c0.31,0.48,0.82,0.61,1.32,0.63c1.18,0.04,1.43,0.66,1.14,1.67c-0.38,0.34,0.14,0.79-0.15,1.14
				c0.2,0.74,0.28,1.51,1.1,1.93c0.62,0.31,0.39,0.68-0.08,0.97c-0.79,0.11-1.44,0.44-1.76,1.23c0.12,0.65,0.3,1.22,1.1,1.33
				c0.52,0.07,0.99,0.28,0.99,0.94c-0.32,0.76,0.33,1.11,0.66,1.59c0.39,1.06,1.31,1.54,2.22,2.04c0.28,0.16,0.87,0.15,0.8,0.52
				c-0.41,2.3,1.67,2.52,2.83,3.51c0.33,0.62,1.02,1.07,0.85,1.92c0.79,1.66,2.96,2.06,3.55,3.96c0.28,0.91,1.29,1.34,1.93,1.98
				c1.09,1.09,2.85,1.71,3.03,3.58c-0.04,0.08-0.1,0.13-0.15,0.19c0.59,0.18,1.09,0.47,1.5,0.84c0.46-0.75,1.04-0.67,1.83,0.34
				c0.17,0.44,0.66,0.57,0.92,0.93c1.73-0.44,3.85,0.22,4.63,1.03c1.42,1.47,2.59,1.52,4.19,1.04c0.5-0.56,1.27-0.72,1.82-1.22
				c1.53-1.85,1.56-1.85,3.5-0.41c0.22,0.17,0.46,0.32,0.72,0.42c1.46,0.57,1.85,1.54,1.17,2.95c-0.33,0.89,0.14,1.7,0.28,2.54
				c0.25,0.02,0.5,0.05,0.75,0.07c0.61,0.36,1.19,0.11,1.77-0.1c0.26-0.45,0.52-0.9,0.77-1.35c0.48-0.12,0.96-0.2,1.41,0.09
				c0.62,0.79,0.64,2.27,2.24,1.94c0.63-0.47,1.34-0.64,2.11-0.52c0.25,0.55,0.49,1.11,0.74,1.66c0.43,0,0.85,0.44,1.28,0.01
				c1.2-0.21,2.36-1.15,3.62-0.49c1.06,0.55,2.12,0.56,3.23,0.47c0.38,0.26,0.92,0.26,1.18,0.72c0.86-0.07,1.72-0.15,2.58-0.22
				c0.54,0.15,1.01,0.49,1.56,0.63c0.04,0.13,0.09,0.26,0.13,0.4c0.71,0.97,0.48,2.26,1.14,3.25c0.51,0.23,1.02,0.45,1.53,0.68
				c0.87,0.43,1.78-0.4,2.66,0.07c0.63,0.29,1.52,0.39,1.15,1.47c-0.3,0.72,0.08,1.32,0.33,1.94c0.68,0.35,0.64,1.4,1.53,1.54
				c0.88,0.24,1.65-0.55,2.53-0.27c0.22,0.06,0.44,0.12,0.66,0.18c1.01-0.75,2.39-0.29,3.4-1.05c0.75-0.14,0.67-0.69,0.62-1.23
				c0.3-0.88,1.03-1.41,1.65-2.03c0.36,0.14,0.76-0.26,1.11,0.08c0.46-0.03,1.02,0.11,1.35-0.12c1.44-0.98,2.09-0.02,2.62,1.03
				c0.23,0.44,0.52,1,0.89,0.88c1.75-0.55,3.12,0.84,4.75,0.78c0.5,0.37,0.94,0.82,1.53,1.06c2.25,0.34,4.31,1.5,6.62,1.52
				c0.61-0.13,1.26-0.06,1.86-0.3c0.54-0.06,1.04-0.45,1.62-0.22c1.94-1.34,3.7-2.85,4.66-5.1c0.34-0.24,0.61-0.78,1.12-0.25
				c1.07,1.72,2.48,0.57,3.77,0.46c0.69,0.3,1.33-0.03,1.98-0.17c0.12-0.03,0.25-0.07,0.37-0.1c0.84-0.51,1.74-0.75,2.72-0.68
				c1.02-0.38,1.83,1.09,2.89,0.34c0.62-0.45,1.3-0.64,2.06-0.51l-0.05-0.01c0.88,0.27,1.66-0.54,2.54-0.26
				c0.32-0.08,0.64-0.16,0.96-0.25c1.07-0.03,2.08-0.24,3.01-0.79l-0.04,0.04c0.33-0.4,0.88-0.38,1.26-0.69
				c0.21-0.18,0.42-0.35,0.63-0.53c0.71-0.45,1.47-0.66,2.31-0.58c0.39-0.42,0.85-0.53,1.39-0.34c0.34,0.73,0.73,1.43,0.91,2.23
				c0.31,0.29,0.62,0.58,0.93,0.87c0.53-0.04,0.39-0.4,0.35-0.71c-0.07-0.59-0.46-1.14-0.27-1.77c-0.03-0.12-0.05-0.25-0.08-0.37
				c0.24-0.45,0.39-0.95,0.76-1.32c0.19-1.76,1.93-2.09,2.9-3.14c0.39-0.04,0.47-0.5,0.81-0.61c0.07-0.15,0.15-0.29,0.22-0.44
				c0.52-0.43,1.16-0.47,1.8-0.53c0.32,0.01,0.64,0.09,0.94-0.05c0.48-0.29,1.07-0.29,1.54-0.59c0.58-0.21,1.13-0.49,1.71-0.69
				c2.37-0.66,2.95-1.48,2.35-3.77c-0.28-1.05,0.11-1.62,0.86-2.09c4.34-2.75,5.18-5.07,3.53-9.85c0.19-0.53,0.48-1.02,0.69-1.55
				c1.94-2.52,3.57-5.25,5.68-7.66c0.81-0.93,1.32-2.44-0.6-3.17c-0.12-0.41-0.23-0.82,0.06-1.21c0.18-0.97,0.66-1.9,0.33-2.92
				c0.4-0.48-0.15-0.96-0.01-1.44c-0.67-0.54-0.88-1.35-1.24-2.07c-0.09-0.42-0.25-0.82-0.48-1.19c-0.12-0.58-0.42-1.14-0.25-1.76
				c0.69-0.86,0.45-1.97,0.82-2.93c0.78-2.08,2.37-2.5,4.06-1.02c0.79,0.33,0.64,1.37,1.34,1.77c0.04,0.13,0.08,0.25,0.12,0.38
				c0.14,0.59,0.71,1.08,0.43,1.77c-0.08,0.59-0.17,1.18-0.25,1.77c-0.24,0.86,0.54,1.61,0.26,2.47c0.26,0.49,0.43,1.07,0.8,1.46
				c0.38,0.4,0.97,0.99,1.36-0.07c-0.19-0.62-1.53-0.75-0.76-1.78c1.31-0.51,2.19,0.27,3.06,1.04c0.37,0.87,1.02,1.7,0.38,2.72
				c-0.42,0.28-1.11-0.36-1.39,0.4c-0.75,0.64,0.06,1.19,0.11,1.78c0.46,0.48,2,0.16,1.52,1.12c-0.82,1.61,0.26,2.26,1.01,3.17
				c-0.04,0.71,0.62,1.35,0.18,2.09c-0.1,1.04,0.71,1.39,1.4,1.82c0.59-0.1,0.91,0.32,1.28,0.65c0.23,0.37,0.29,0.9,0.87,0.97
				c1.3-1.3,2.76-2.39,4.38-3.27c0.34-0.36,0.93-0.28,1.25-0.68c0.42-0.16,0.84-0.32,1.26-0.48c0.48-0.85,1.54-0.56,2.17-1.11
				c0.56-0.4,1.31-0.37,1.85-0.82c1.79-0.53,2.66-2.02,3.62-3.42c0.53-0.5,1.4-0.46,1.81-1.15c0.57,0.12,1.01,0.07,1.55-0.35
				c0.96-0.76,1.93-1.5,2.74-2.42c1.25-0.98,2.93-0.79,4.26-1.55c0.32-0.14,0.65-0.28,0.97-0.41c0.32-0.71,0.95-0.64,1.56-0.62
				c0.83,0.27,0.5,0.89,0.42,1.41c-0.06,0.4-0.2,0.79,0.28,1.04c0.4,0.2,0.79,0.13,1.13-0.1c0.37-0.26,0.68-0.59,1.02-0.89
				c0.43-0.13,0.85-0.22,1.26,0.06c0.86-0.43,1.82-0.12,2.7-0.34c0.45-0.44,1.04-0.68,1.51-1.1c1.91-2.43,3.64-4.95,3.98-8.15
				c0.16-0.65-0.07-1.32,0.06-1.97c-0.23-0.5,0-1.2-0.7-1.48c-0.41-0.76-1.12-1.01-1.92-1.11c-1.18-0.15-1.17-0.58-0.38-1.35
				c0.43-0.42,0.83-0.74,1.42-0.87c1.58-0.35,1.89-1.23,0.99-2.55c-0.5-0.48-0.94-0.31-1.35,0.13c-0.23,0.07-0.46,0.13-0.69,0.2
				c-0.47-0.24-0.38-0.64-0.28-1.04c-0.32-0.92,0.13-1.7,0.57-2.42c0.27-0.45,0.71-0.95,1.39-0.3c0.39,0.37,0.9,0.85,1.45,0.14
				c0.48-0.63,0.92-1.45,0.35-2.05c-1.08-1.13-0.64-2.28-0.38-3.48c0.37-0.69,0.26-1.34-0.21-1.94c0.14-0.77,0.13-1.56,0.72-2.24
				c0.31-0.35,0.7-0.99,0.11-1.54c0.24-0.45,0.16-0.87-0.09-1.29c-0.21-0.58-0.46-1.15-0.38-1.78c0.27-0.23,0.27-0.52,0.21-0.83
				c0.18-0.82-0.41-1.52-0.33-2.32c0.37-0.3,0.05-0.5-0.1-0.72c0.3-0.67,0.08-1.21-0.41-1.69c-0.32-0.32-0.59-0.85-0.96-0.93
				c-1.89-0.39-3.3-1.17-3.36-3.36c0.12-0.52,0.36-0.86,0.96-0.54c0.5,0.23,0.67,0.05,0.44-0.42c-0.4-0.86,0.49-1.19,0.81-1.44
				c0.44-0.33,0.84,0.27,0.98,0.82c0.17,0.66,0.61,0.93,1.28,0.78c0.06-0.62-0.03-1.2-0.46-1.69l0.04,0.04
				c-0.43-0.49-0.57-1.06-0.45-1.7c0.32-0.09,0.64-0.17,0.97-0.26c0.54,0.74,1.16,0.85,1.88,0.26c1.01-1.29,2.49-1.49,3.97-1.63
				c0.51-0.05,1.14,0.17,1.33-0.45C330.99,268.39,331.1,267.8,330.66,267.08z"/>
		</g>
		<g>
			<path class="st1" d="M275.52,321.45c16.86-17.12,34.01-34.27,51.07-51.07"/>
		</g>
		<g>
			<path class="st1" d="M229.97,367c12.69-12.69,25.38-25.38,38.07-38.07"/>
		</g>
		<g>
			<path class="st1" d="M280.52,335.03c12.51-12.51,28.81-28.81,41.32-41.32"/>
		</g>
		<g>
			<path class="st1" d="M311.51,318.69c3.06-3.06,7.04-7.04,10.1-10.1"/>
		</g>
		<g>
			<path class="st1" d="M102.07,308.59c28.4-26.85,65.4-61.84,93.79-88.69"/>
		</g>
		<g>
			<path class="st1" d="M102.01,292.83c6.65-6.65,15.31-15.31,21.96-21.96"/>
		</g>
		<g>
			<path class="st1" d="M99.65,282.51c4.13-4.13,9.51-9.51,13.64-13.64"/>
		</g>
		<g>
			<path class="st1" d="M169.76,230.87c6.65-6.65,15.78-15.78,22.43-22.43"/>
		</g>
		<g>
			<path class="st1" d="M168.41,215.5c6.17-5.83,14.2-13.43,20.37-19.26"/>
		</g>
		<g>
			<path class="st1" d="M159.58,210.36c7.68-7.26,17.68-16.72,25.36-23.98"/>
		</g>
		<g>
			<path class="st1" d="M133.46,207.99c16.31-15.42,33.61-31.78,44.16-41.76"/>
		</g>
		<g>
			<path class="st1" d="M130.17,196.24c13.37-12.64,30.79-29.12,44.16-41.76"/>
		</g>
		<g>
			<path class="st1" d="M122.09,188.21c14.43-13.87,33.24-31.95,47.68-45.82"/>
		</g>
		<g>
			<path class="st1" d="M122.53,173.73c8.47-8.14,19.51-18.75,27.99-26.89"/>
		</g>
	</g>
	<path class="st3" d="M323.96,264.23c-0.95-1.57-2.72-2.15-3.81-3.51c0.19-0.54-0.15-1-0.21-1.5c-0.04-0.16-0.09-0.32-0.16-0.48
		c-0.38-0.89-0.81-1.77-0.49-2.78c-0.28-0.65,0-1.21,0.25-1.78c0.14-0.46,0.03-0.92,0.01-1.38c-0.12-0.8-0.16-1.61-0.41-2.39
		c0.02-0.43-0.03-0.86,0-1.3c-0.03-0.66-0.49-1.26-0.3-1.95c0.1-1.07,0.31-2.15-0.09-3.21c0.44-0.85-0.23-1.63-0.14-2.46
		c0-0.82-0.54-1.54-0.38-2.38c0.13-1.25,1.32-2.28,1.32-3.3c-0.01-1.59,0.92-2.47,1.6-3.58c0.22-0.47,0.36-0.96,0.31-1.49
		c0.73-1.06,1.77-2.03,0.95-3.51c0.14-0.73-0.19-1.34-0.48-1.97c-0.26-0.69-0.32-1.42-0.44-2.14c0.04-0.16,0.08-0.31,0.13-0.46
		c-0.69-0.86-0.05-1.86-0.29-2.77c0.55-1.01-0.14-1.91-0.26-2.86c-0.19-0.66-0.82-0.88-1.26-1.28c-1,0.41-1.38-0.13-1.43-1.01
		c-0.05-0.85,0.19-1.65,0.63-2.37c0.37-0.44,0.79-0.84,1.08-1.35c0.82-0.71,2.06-1.15,1.63-2.76c-0.63,0.16-1.31,0.88-1.96,0.08
		c-0.05-0.47-0.04-0.93,0.41-1.24c1.24-1.01,1.1-1.7-0.64-2.25c-0.63-0.2-1.05-0.29-0.97-1.02c-0.89-0.19-0.62-1.03-0.87-1.57
		c0.14-0.6-0.35-1.11-0.25-1.71c-0.17-0.18-0.33-0.35-0.5-0.53c0.16-0.76-0.22-1.38-0.52-2.02c-0.55-1.36-1.85-2.29-2.09-3.82
		c-0.67-0.06-0.82-0.89-1.47-0.98c-0.7-0.83-1.65-1.18-2.65-1.45c-0.77-0.21-1.46-0.49-1.12-1.52c0.49-0.61,1.53-0.16,1.91-0.98
		c-0.09-0.89-1.67-1.4-0.66-2.57c0.19-0.64-0.19-1.14-0.43-1.67c-0.9-0.88-1.2-2.12-1.88-3.13c-0.46-0.69-0.62-1.47-0.6-2.29
		c0.65-0.11,1.14-0.6,2.01-0.12c0.66,0.36,2.01,0.09,1.56-1.45c-0.2-0.4-0.65-0.55-0.91-0.89c-0.17,0.01-0.35,0.05-0.51,0.03
		c-1.53-0.22-2.99-1.26-4.58,0.23c-0.55,0.51-1.38-0.66-1.8-1.23c-0.52-0.71,0.42-0.64,0.79-0.87c0.96-0.61,1.57-1.58,2.34-2.37
		c0.88-0.9,0.74-1.39-0.31-1.85c-0.86-0.33-1.69-0.39-2.47,0.21c-1.67,0.01-1.86-0.29-1.17-1.86c0.1-0.44,0.1-0.78-0.52-0.58
		c-0.89,0.46-1.45,1.17-1.58,2.18c-0.56,0.5-1.3,0.46-1.96,0.66c-0.51,0.04-1.06-0.13-1.52,0.24c-0.86-1.05-2.6-0.72-3.26-2.07
		c-0.36-0.29-0.44-0.78-0.76-1.09c-0.2,0.1-0.46,0.15-0.6,0.3c-1.23,1.33-1.65,1.27-2.36-0.4c-0.28-0.67-0.87-0.88-1.48-0.97
		c-0.56-0.09-1.14-0.03-1.59-0.46c-0.56,0.12-1.23-0.05-1.59,0.61c-0.03,0.44,0.16,1.08-0.7,0.76c-0.56,0.56-0.26,0.99,0.2,1.4
		c0.59,0.45,0.89,1.29,1.77,1.34c0.53,1.04,0.53,1.05-0.05,1.42c-2.26-0.43-4.14-2.15-6.6-1.92c-0.95-0.29-1.82,0.8-2.79,0.18
		c-0.34,0.03-0.68,0.06-1.01,0.09c-0.4-0.19-0.73-0.11-1,0.24c-0.87,0.78-1.75,1.9-2.54-0.07c0.18-0.46-0.07-0.86-0.19-1.28
		c-0.6-0.43-1.36-0.13-1.98-0.44c-0.64-0.43-0.32-1.31-0.84-1.79c-0.28-0.06-0.66-0.03-0.82-0.2c-2.09-2.18-5.01-2.69-7.62-3.84
		c-0.68-0.3-1.28-0.78-2.08-0.48c-0.67-0.46-1.41,0.01-2.11-0.15c-0.5-0.11-0.99-0.22-1.49-0.33c-0.6-0.27-1.14,0.33-1.74,0.1
		c-0.87,0.17-1.71-0.45-2.58-0.08c-0.54-0.01-1.06,0.03-1.58,0.1c-0.55,0.29-1.21,0.47-1.97,0.5c-0.38,0.15-0.75,0.33-1.11,0.55
		c-1.32-0.23-1.9,0.96-2.84,1.47c-0.36,0.2-0.54,0.51-0.55,0.92c-0.1,0.12-0.19,0.25-0.29,0.37c-0.22,0.59,0.38,1.14,0.11,1.73
		c-0.15,1.83,0.22,3.46,2.28,3.88c1.21,0.25,2.26,0.74,3.34,1.25c0.32,0.15,0.86-0.06,0.72,0.58c-0.09,0.46-0.39,0.62-0.88,0.59
		c-0.68-0.05-1.36,0-2.04,0.01c-0.5-0.23-0.96-0.19-1.37,0.19c-0.32,0.77,0.44,1.46,0.17,2.23c-0.06,0.67-0.66,0.93-1.03,1.36
		c-0.44,0.22-0.99,0.04-1.41,0.36c-1.21-0.72-2.44-1.36-3.92-1.18c-0.48-0.5-1.07-0.83-1.69-1.1c-0.58-0.09-1.18,0.13-1.76-0.1
		c-0.39-0.55-0.94-0.46-1.52-0.42c-1.06,0.07-2.11-0.05-3.06-0.6c-0.35-0.14-0.65-0.07-0.92,0.18c-0.75,0.21-1.68,0.21-2.21,0.67
		c-1.04,0.91-1.97,0.68-2.7-0.1c-1.4-1.5-3.17-1.75-5.02-1.91c-0.69-0.17-1.38,0.31-2.07,0.02c-0.71,0.28-1.53,0.18-2.19,0.62
		c-0.95,0.9-1.89,1.82-2.86,2.7c-0.27,0.25-0.54,0.74-1,0.43c-0.44-0.3-0.71-0.74-0.45-1.34c0.65-1.51,0.01-2.75-0.86-3.94
		c-0.46-0.63-0.97-1.24-1.39-1.9c-1.83-2.87-3.77-5.57-6.91-7.25c-1.22-0.66-2.74-1.31-3.07-3.01c-0.18-0.7-0.36-1.4-0.86-1.95
		c-0.67-0.07-1.33-0.13-2-0.2c-0.24-0.03-0.44-0.15-0.53-0.36c-0.09-0.21,0.05-0.29,0.25-0.29c1.04-0.6,1.97-1.28,2.11-2.6
		c0.11-0.76-0.09-1.44-0.5-2.08c-0.24-0.26-0.55-0.24-0.86-0.21c-0.65-0.76-1.42,0.2-2.1-0.13c-0.65-0.18-1.15,0.23-1.69,0.44
		l0.02-0.04c-0.53,0.41,0.79,1.26-0.35,1.53c-0.67-0.53-0.12-1.74-1.15-2.07c-0.48-0.54-1.59-0.05-1.79-1.07
		c-0.03-0.72-0.8-1.25-0.52-2.05c-0.48-0.51-1.38-1.1-0.65-1.76c0.61-0.55,1.12,0.26,1.55,0.81c0.38,0.47,0.93,0.82,1.4,1.22
		c0.72,0.07,1.42,0.35,2.15,0.21c0.64-0.25,1.38-0.17,1.93-0.66c1.01-1.39,0.67-2.54-1.1-2.88c-1.23-0.24-2.26-0.73-3.25-1.4
		c-0.36-0.61-0.58-1.26-0.47-1.98c0.17-0.49,0.62-0.67,0.94-0.4c1.75,1.44,4.06,1.41,6,2.36c1.8,0.88,3.33,0.54,4.34-0.88
		c0.35-0.5,0.58-1.01,0.31-1.59c-0.31-0.65-0.84-0.9-1.56-0.65c-0.54-0.37-1.19,0.11-1.72-0.23c-1.65-1.14-2.77-2.67-3.39-4.57
		c-0.48-0.33-0.8-0.76-0.87-1.36c-0.07-0.63-0.5-1.21-0.3-1.88c0.27-1.95,1.59-1.71,2.94-1.42c0.15,0.8,0.32,1.6,0.53,2.39
		c0.55,1.09,1.47,1.38,2.65,1.43c1.39,0.06,2.78,0.24,4.12,0.8c1.21,0.5,2.28,0.27,2.42-1.36c0.03-0.37,0.19-0.65,0.46-0.88
		c0.74,0.18,1.37-0.26,2.07-0.35c0.46-0.21,0.91-0.45,1.42-0.53c0.3-0.08,0.6-0.16,0.9-0.23c0.86-0.7,2.09-0.41,2.95-1.11
		l-0.04,0.04c0.45-0.46,1.04-0.64,1.64-0.79c0.56-0.13,1.14-0.24,1.5-0.73c0.47-0.65-0.03-0.62-0.46-0.61
		c-0.36-0.31-0.53-0.65,0.04-0.87c0.54-0.21,0.75-0.62,0.9-1.11c-0.39-0.74-0.47-1.5,0.4-1.9c0.89-0.4,1.01,0.39,1.19,0.98
		c-0.19,0.61,0.05,0.94,0.67,1.02c0.82-1.58,0.44-3.85,2.68-4.61c0.21-0.52-0.59-0.87-0.24-1.41c0.69,0.07,1.47,0.18,1.71-0.68
		c0.16-0.6,0.03-1.3-0.59-1.66c-1.44-0.83-0.67-1.71-0.17-2.72c0.4,0.67,0.68,1.23,1.04,1.74c0.65,0.93,1.21,0.11,1.74-0.17
		c0.52-0.27,1.1-1.14,0.61-1.31c-1.43-0.49-0.71-1.49-0.85-2.29c-0.47-0.44-1.43-0.53-1.11-1.55c1.35,0.22,1.71-0.93,1.73-1.72
		c0.02-1-1.05-0.65-1.72-0.69c-0.1-0.01-0.2-0.08-0.3-0.13c0.03-0.43-1.14-0.37-0.43-1.07c0.5-0.12,1.08,0.15,1.5-0.33
		c0.53,0.23,0.78-0.01,0.87-0.52c0.1-0.18,0.2-0.35,0.3-0.53c-0.16-0.31-0.74-0.19-0.72-0.69c0.34-0.48,1-0.47,1.4-0.87
		c0.56-0.35,0.38-0.77,0.11-1.19c0.2-0.96,0.75-2.07-0.92-2.27c-0.07,0.15-0.15,0.31-0.33,0.11c-0.03-0.04-0.03-0.11-0.06-0.15
		c-0.6-0.71,1.87-1.17,0.16-1.97c-0.33-0.27-0.52-0.58-0.23-1c-0.18-0.64,0.24-1,0.63-1.4c0.35-0.36,0.64-0.79,0.11-1.26
		c0.35-0.47,0.04-1.08,0.33-1.56c0.05-0.13,0.09-0.25,0.14-0.38c0.13-0.08,0.19-0.2,0.17-0.36c-0.22-0.53-0.3-1.13-0.81-1.5
		c-0.27-0.48-0.55-0.96-0.82-1.44c-0.44-0.85-0.73-1.74-0.64-2.71c0.25-0.44-0.05-1.03,0.36-1.43c0.07-0.15,0.08-0.31,0.02-0.47
		c-0.22-0.35-0.53-0.29-0.84-0.16c-0.64,0.26-0.15,1.21-0.86,1.43c-1.43,0.9-1.72-0.52-2.38-1.18c0.17-0.73,0-1.43-0.18-2.12
		c0.11-0.72,0.4-1.39,0.52-2.12c0.44-2.78,2.98-5.38,5.07-5.36c0.47,0.12,0.5-0.25,0.61-0.54c-0.33-0.36-0.72-0.69-0.5-1.26
		c0.51-0.38,0.87-0.89,1.24-1.39c1.3-0.6,1.35-0.61,1.42,0.65c0.03,0.45,0.23,0.73,0.45,1.04c0.18,0.32,0.28,0.78,0.82,0.48
		c0.32-0.13,0.66-0.28,0.41-0.71c-0.64-1.11-0.02-1.53,0.94-1.78c0.45-0.29-0.19-0.81,0.24-1.1c-0.34-1.72,1.98-2.67,1.1-4.62
		c1.41,1.17,2.01,0.33,2.58-0.64c0.57,0.15,1.1,0.06,1.61-0.24c0.33-0.49,0.98-0.47,1.36-0.87c0.11-0.02,0.21-0.05,0.32-0.07
		c0.63-0.58,1.36-0.98,2.22-1.1c1.26-0.47,0.86,0.9,1.39,1.25c0.27,0.25,0.43,0.63,0.84,0.01c0.5-0.76,0.46-1.82,1.33-2.36
		c0.07-0.55,0.93-0.31,0.94-0.93c0.59-0.11,1.15-0.3,1.58-0.76c0.73,0.27,1.38-0.45,2.11-0.18c0.14,0.08,0.28,0.16,0.43,0.24
		c0.2,0.26,0.4,0.47,0.72,0.14c-0.12-2.35-0.12-2.35-2.53-1.85c-0.05,0.01-0.11,0.02-0.17,0.03c-1.32-0.25-2.47,0.39-3.68,0.7
		c-0.64,0.26-1.06,1.09-1.93,0.77l0.05,0.01c-0.73-0.28-1.37,0.44-2.1,0.17c-0.6,0.22-1.4,0.09-1.67,0.91
		c-0.51,0.77-1.57,0.54-2.14,1.19c-0.19,0.12-0.39,0.23-0.58,0.35c-0.43,0.54-1.02,0.6-1.64,0.53l-0.06-0.03
		c-0.15-0.08-0.3-0.17-0.46-0.24c-0.52-0.06-1.04-0.13-1.26,0.54c-0.47,0.39-1.52,0.37-1.03,1.44c-0.79,0.45-1.12-0.33-1.64-0.62
		c-1.03,0.2-1.31,1.16-1.52,1.88c-0.4,1.36-1.2,2.2-2.42,2.76c-0.48,0.4-1.12,0.09-1.64,0.36c-0.99,1.82-3.4,2.53-3.76,4.86
		c-0.03,0.17-0.44,0.38-0.69,0.41c-1.66,0.23-2.11,0.82-2,2.77c-0.14,0.31-0.06,0.54,0.26,0.68c0.41-0.11,0.82-0.21,1.23-0.32
		c0.46,0.43,0.57,0.88,0.05,1.35c-0.06,0.33-0.03,0.71-0.2,0.98c-1.03,1.67-2.05,3.27-2.34,5.35c-0.1,0.76-0.03,0.97,0.42,1.18
		c0.96,0.44,0.6,0.9,0.1,1.38c-0.69,0.66-1.45,1.18-2.44,0.64c-0.66-0.36-1.5,0.04-1.37,0.4c0.45,1.3-0.48,2.5-0.04,3.73
		c0.18,1.27,0.79,2.45,0.82,3.76c-0.02,0.72,0.52,1.37,0.29,2.13c-0.55,1.04-0.52,2.18-0.58,3.31c-0.19,0.64,0.2,1.19,0.27,1.78
		c0.16,0.51,0.11,0.98-0.18,1.43c0.78,2.38-0.85,3.74-2.22,5.2c-0.4,0.54-1.2,0.26-1.62,0.76c-0.09,0.34-0.36,0.45-0.67,0.52
		c-0.68,0.45-1.53,0.25-2.25,0.58c-1.8,0.46-3.61,0.92-5.41,1.38c-0.12-0.12-0.22-0.28-0.42-0.25c-0.26,0.19-0.53,0.37-0.79,0.56
		c-0.61,0.42-1.29-0.34-1.89,0.12c-0.34,0.31-0.69,0.59-1.17,0.65c-0.37,0.1-0.75,0.17-1.1,0.33c-0.44,0.21-0.85,0.61-1.36,0.16
		c-0.09-0.48,0.21-0.83,0.4-1.22c0.19-0.39,0-0.49-0.36-0.42c-0.53-0.43-1.06,0.17-1.59,0.01c-0.18,0.17-0.37,0.33-0.55,0.5
		c-0.39-0.35-1.42,0.74-1.38-0.61c-0.13-0.36-0.08-0.79-0.43-1.05c-0.69-0.72-1.58-1.09-2.49-1.43c-0.99,0.14-0.15,0.74-0.28,1.09
		c0.45,1.03-0.34,0.83-0.87,0.88l-0.03-0.01c-0.5,0.87,0.47,1.65,0.14,2.51c-0.09,0.14-0.17,0.27-0.26,0.41
		c-0.48,0.41-1.03,0.55-1.65,0.42c-0.98-0.06-1.7-1.09-2.79-0.76c-0.59-0.28-1.17-0.41-1.7,0.11c-0.65-0.35-1.83-0.01-1.75-1.33
		c-0.09-0.32,0.06-0.78-0.49-0.84c-0.14-0.08-0.38-0.27-0.42-0.23c-1,0.87-2.03,1.11-3.23,0.39c-0.16-0.1-0.55,0.1-0.79,0.24
		c-1.26,0.75-1.11-0.15-1.12-0.92c-0.02-0.69,0.92-1.48-0.18-2.08c-0.79-0.14-1.22,0.07-1,0.98c0.09,0.37,0.27,0.75,0.09,1.15
		c-0.01,0.09-0.04,0.17-0.08,0.25c-0.28,0.55-0.83,0.75-1.31,1.04c-0.83,0.58-1.34,1.78-2.68,1.36c-0.15-0.08-0.3-0.12-0.47-0.14
		c-0.49,0.05-0.96,0.2-1.43,0.32c-0.39,0.01-0.68,0.44-1.11,0.27c-0.18,0.17-0.37,0.33-0.55,0.5c-0.86,0.68-2.03,0.49-2.94,1.03
		c-0.14,0.16-0.28,0.32-0.42,0.49c-0.72,0.38-1.42,0.82-2.29,0.61c-0.61-0.25-1.34-0.15-1.88-0.63c-0.72,0.03-1.44,0.05-1.99,0.62
		c-0.99,0.89-2.15,1.49-3.42,1.87c-0.6,0.44-1.28,0.63-2.03,0.55c-0.32-0.29-0.64-0.58-0.96-0.87c-0.26-0.22-0.55-0.22-0.86-0.13
		c-1.42,1.66-0.52,2.62,1.02,3.38c0.99,0.09,1.77-0.56,2.68-0.74c0.44-0.08,0.83-0.25,1.1-0.64c0.64-0.09,1.25-0.54,1.92-0.12
		c0.44-0.14,0.8,0.02,1.12,0.31c0.06,0.65,0.06,1.27-0.7,1.55c-0.8,0.11-1.54,0.61-2.4,0.41l0.05,0.01
		c-0.53-0.12-1.01-0.09-1.35,0.41c-0.27,0.45-1.15,0.59-0.81,1.31c0.21,0.44,0.8,0.39,1.23,0.33c1.41-0.19,2.12,0.83,2.99,1.61
		c0.28,0.25,0.01,1.08,0.81,0.79c0.44-0.7,0.96-0.97,1.68-0.35c0.58,0.47,0.23,0.99,0.07,1.49c0.1,0.87,0.91-0.11,1.13,0.43
		c1.66,0.94,1.67,1.05,0.28,2.54c-0.64,0.28-1.27,0.56-2,0.42c-0.27-0.15-0.54-0.3-0.81-0.45c-0.36-0.29-0.69-0.01-1.04,0.03
		c-0.66,0.1-1.21,0.39-1.58,0.97c-1.22,0.77-2.32,1.61-2.67,3.16c-0.17,0.77-0.91,0.93-1.6,1.12c-1.48,0.39-3.12,0.4-3.95,2.17
		c-0.28,0.6-1.2,0.8-1.47-0.32c-0.14-0.6-0.43-1.13-0.38-1.81c0.11-1.3-0.52-2.26-1.73-2.8c-0.52-0.26-0.94-0.13-1.28,0.31
		c-0.13,0.04-0.27,0.09-0.4,0.13c-0.51,0.48-0.04,0.94,0.03,1.4c0.67,0.91,2.25,1.59,0.75,3.04c-0.51,0.45-1.06,0.41-1.63,0.11
		c-0.57-0.08-1.03-0.35-1.4-0.79c-0.54-0.53-0.36-1.33-0.73-1.93c-0.44-0.22-0.78-0.82-1.39-0.36c-0.38,0.07-0.75,0.16-0.83,0.63
		c-0.25,0.41-0.14,0.86-0.1,1.29c0.49,0.12,0.72,0.55,1.04,0.87c0.23,0.32,0.52,0.63,0.21,1.05c-1.24,1.2-1.95,3.19-4.23,2.84
		c-0.42,0.48,0.21,0.95,0,1.43c-0.17,1.25-1.27,1.87-1.93,2.78c-1.14,1.58-2.32,3.26-3.86,4.39c-2.21,1.63-3.7,3.52-4.47,6.15
		c-0.47,1.62-1.18,3.3-3.11,3.82c-0.71,0.19-0.68,0.67-0.65,1.2c-0.61,0.42-0.01,1.04-0.27,1.52c-0.18,0.38-0.43,0.66-0.86,0.78
		c-2.26,0.6-2.97,2.41-1.75,4.43c-0.23,0.71,0.45,1.34,0.18,2.05c-0.28,0.99-1.61,1.95-0.8,2.92c1.21,1.47,0.87,2.68,0.06,4.03
		c-0.26,0.61,0.33,1.16,0.12,1.76c-0.44,0.68-0.83,1.4-0.18,2.15c0.7,0.8,0.54,1.67,0.32,2.56c-0.1,0.38-0.38,0.75,0.21,0.96
		c0.83,0.22,1.56-0.51,2.39-0.28l0.59,0.91c0.75,0.14,1.42-0.07,2.04-0.49c1.15-0.02,1.51,0.49,1.04,1.55
		c-0.06,0.15-0.05,0.31,0.01,0.46c0.42,0.62,1.28-0.24,1.66,0.49c0.14-0.02,0.27-0.05,0.41-0.07c0.19,1.02-0.99,0.43-1.19,1.01
		c-0.09,0.13-0.17,0.27-0.26,0.4c0.22,0.16,0.4,0.37,0.61,0.54c0.27,0.4,0.52,0.81,0.27,1.32c0.09,0.37,0.08,0.8,0.54,0.96
		c1,0.36,0.76,1.04,0.44,1.73c-0.43,0.43-1.13,0.31-1.56,0.74c-0.11,0.45-0.5,0.49-0.85,0.59c-0.23,0.17-0.18,0.42-0.18,0.66
		c0.59,0.91,0.2,1.42-0.71,1.71c-1.71,0.58-2.93,2.69-1.96,3.5c0.87,0.72,1.23,1.13,0.12,1.88c-0.32,0.22-0.21,0.64,0.24,0.77
		c1.04,0.29,2.06,0.72,3.12,0.82c1.92,0.19,3.04-0.94,3.05-2.85c-0.34-0.92-0.39-1.79,0.44-2.51c0.54,0.19,1.07,0.38,1.61,0.57
		c-0.11,0.64,0.61,1.23,0.1,1.89c0.63,1.18,1.18,0.93,2.18,0.22c1.09-0.78,1.58-2.03,2.62-2.76c1.99-1.39,3.57-3.24,5.45-4.75
		c0.82-0.13,1.59-0.64,2.46-0.28c1.37-0.21,2.61-0.28,3.16,1.46c0.12,0.38,0.65,0.81,1.12,1.15c1.67,1.22,2.03,3.27,0.64,4.09
		c-1.4,0.83-1.86,2.04-2.32,3.37c-0.18,0.53-0.14,1,0.34,1.36c1.27,1.07,1.58,0.05,1.94-0.88c0.42-0.48,1.18-0.22,1.59-0.73
		c0.66,0.08,0.93,0.65,1.32,1.06c0.52,0.25,0.97-0.1,1.45-0.16c0.43-0.22,0.86-0.43,1.34-0.51c0.97-0.9,1.92-0.88,3.11-0.27
		c2.15,1.11,4.51,1.73,6.84,2.38c1.44-0.02,2.77-0.46,4.06-1.04c0.61-0.3,1.13-0.74,1.69-1.12c1-1.07,1.67-2.46,2.96-3.27
		c0.45-0.28,0.81-0.48,1.35-0.01c0.65,0.57,0.1,0.85-0.14,1.21c-0.41,0.62-0.88,1.2-1.28,1.83c-0.45,0.7-0.88,1.71-0.09,2.16
		c1.3,0.74,0.63,1.47,0.35,2.28c-0.44,0.57,0.2,1.28-0.25,1.85c-0.28,1.23-0.89,2.15-1.76,3.15c-1.56,1.79-3.87,3.29-3.76,6.16
		c-0.37,1,0.65,1.83,0.35,2.82c0.03,0.06,0.06,0.13,0.08,0.19c-0.26,0.46-0.74,0.8-0.74,1.4c-0.52,1.42-1.95,2.47-1.62,4.25
		c0.13,0.72-0.08,1.29-0.78,1.87c-0.51,0.42-1.55,1.44-0.29,2.44c0.42,0.34-0.01,0.57-0.34,0.71c-0.61-0.11-1.16,0.04-1.65,0.42
		c-0.21,1.57-1.42,2.54-2.28,3.72c-0.19,0.59,0.27,1.26-0.22,1.81c-1.09,0.76-1.78,1.87-2.55,2.91c0.31,1.31-0.05,2-1.53,1.64
		c-0.23,0.14-0.73,0.14-0.3,0.61c0.66,1.12-0.47,1.21-0.96,1.67c-0.31,0.06-0.2,0.59-0.6,0.55c-0.16,0.03-0.32,0.05-0.48,0.08
		c-0.53-0.17-0.72,0.08-0.71,0.57c0.01,0.7-0.4,0.67-0.89,0.54c-0.09,0.36-0.41,0.77,0.06,1.06c0.49,0.31,1.35,0.5,0.81,1.27
		c-0.59,0.85-1.2,0.01-1.77-0.25c-0.46-0.22-0.87-0.56-1.44-0.4c-0.57,0.16-0.35,0.44-0.15,0.74c-0.21,0.74-0.87,0.38-1.32,0.53
		c-0.63,0.18-1.29,0.29-1.91,0.52c-0.9,1.72-2.72,2.05-3.63,0.45c-0.58-1.02-1.18-0.77-1.92-0.72c-0.26-0.34-0.73-0.47-0.91-0.89
		c-0.88-0.47-1.21-1.36-1.66-2.16c-0.24-0.02-0.44,0.08-0.59,0.26c0.42,0.86-0.28,1.39-0.6,2.03c-0.26,0.37-0.12,0.75-0.04,1.13
		c-0.57,0.44-1.09,0.98-1.72,1.3c-0.96,0.48-0.29,0.78,0.03,1.15c-0.31,0.37-0.71,0.6-1.19,0.67c-0.31,0.82-1.48,0.91-1.59,1.9
		c-0.44,0.33,0.34,1.28-0.68,1.31c-0.64-0.13-1.27-0.21-1.75,0.39c-1.14,0.7-1.98,1.84-3.34,2.2c-0.63,0.55-1.63,0.4-2.16,1.14
		c-0.27,0.48-0.53,0.95-0.8,1.43c-0.5,0.45-1.11,0.41-1.72,0.41c-0.27-0.17-0.54-0.35-0.8-0.52c-0.74-0.06-1.42,0.09-2.03,0.53
		c-0.2-0.09-0.45-0.14-0.6-0.29c-1.46-1.48-1.45-1.49-2.72,0.13c-0.39,0.5-0.71,0.49-1-0.09c-0.53-0.28-0.16-1.12-0.83-1.32
		c-0.36,0.37-0.49,1.09-1.31,0.7c-0.82-0.38-1.69-0.64-2.53-0.99c-0.35-0.15-0.94-0.32-0.79-0.76c0.65-1.81-0.72-1.73-1.76-1.99
		c-0.63-0.24-1.21,0.38-1.85,0.1c-0.66-0.06-1.33-0.12-1.99-0.18c-0.9-0.08-1.71,0.15-2.48,0.61c0.07,0.82-0.55,0.81-1.08,0.93
		c-0.14-0.03-0.27-0.08-0.39-0.15c-1.23-0.25-2.45-0.48-3.52,0.48c-0.29,0.34-0.62,0.67-0.13,1.11c0.78,0.51,0.75,1.19,0.43,1.95
		c-0.57,1.36-1.12,2.73-1.68,4.1c-0.38,0.23-0.56,0.65-0.89,0.93c0.25,0.55,0.5,1.1,0.76,1.64c-0.1,0.27-0.13,0.54-0.11,0.83
		c0.14,0.63,0.22,1.28,0.58,1.84c0.2,0.5,0.28,1.03,0.43,1.54c0.38,0.59,0.48,1.27,0.65,1.92c0.2,0.53,0.58,0.76,1.14,0.66
		c0.36,0.21,0.36,0.21-0.04,0.62c-0.35,1.17-1.17,2.42,0.53,3.26c0.22,0.76,0.63,1.49,0.47,2.33c0.01,1.25-1.25,1.97-1.34,3.18
		c-0.25,0.85,0.53,1.6,0.26,2.45c-0.06,0.22-0.11,0.45-0.17,0.67c-0.53,0.84,0.43,1.72-0.07,2.56c0.75,0.85,1.47,1.72,2.26,2.54
		c1.69,1.76,2.13,3.69-0.36,4.89c-0.3,0.72-0.23,1.42,0.13,2.11c0.55,0.18,0.79-0.15,1.09-0.55c0.54-0.71,1.21-1.24,2.19-0.7
		c0.21,0.84,0.43,1.68,0.64,2.52c0.56,0.42,1.12,0.84,1.68,1.26c0.66-0.37,0.78-0.01,0.67,0.54c-0.08,0.39-0.46,0.63-0.59,1.01
		c-0.2,0.54-1.75,0.87-0.55,1.57c1.05,0.61,1.35,1.63,1.99,2.44c0.75,0.94,1.15,2.14-0.25,3.04c-0.38,0.3-0.36,0.67-0.2,1.07
		c0.31,0.48,0.82,0.61,1.32,0.63c1.18,0.04,1.43,0.66,1.14,1.67c-0.38,0.34,0.14,0.79-0.15,1.14c0.2,0.74,0.28,1.51,1.1,1.93
		c0.62,0.31,0.39,0.68-0.08,0.97c-0.79,0.11-1.44,0.44-1.76,1.23c0.12,0.65,0.3,1.22,1.1,1.33c0.52,0.07,0.99,0.28,0.99,0.94
		c-0.32,0.76,0.33,1.11,0.66,1.59c0.39,1.06,1.31,1.54,2.22,2.04c0.28,0.16,0.87,0.15,0.8,0.52c-0.41,2.3,1.67,2.52,2.83,3.51
		c0.33,0.62,1.02,1.07,0.85,1.92c0.79,1.66,2.96,2.06,3.55,3.96c0.28,0.91,1.29,1.34,1.93,1.98c1.09,1.09,2.85,1.71,3.03,3.58
		c-0.32,0.62-1.02,0.76-1.47,1.22c-1.3,0.57-1.06,2.07-1.8,2.98c-0.04,0.73,0.1,1.41,0.53,2.01c1.01,0.9,1.68,0.4,2.14-0.58
		c0.58-1.25,1.16-2.52,1.6-3.82c0.52-1.53,1.17-1.7,2.18-0.43c0.17,0.44,0.66,0.57,0.92,0.93c1.73-0.44,3.85,0.22,4.63,1.03
		c1.42,1.47,2.59,1.52,4.19,1.04c0.5-0.56,1.27-0.72,1.82-1.22c1.53-1.85,1.56-1.85,3.5-0.41c0.22,0.17,0.46,0.32,0.72,0.42
		c1.46,0.57,1.85,1.54,1.17,2.95c-0.33,0.89,0.14,1.7,0.28,2.54c0.25,0.02,0.5,0.05,0.75,0.07c0.61,0.36,1.19,0.11,1.77-0.1
		c0.26-0.45,0.52-0.9,0.77-1.35c0.48-0.12,0.96-0.2,1.41,0.09c0.62,0.79,0.64,2.27,2.24,1.94c0.63-0.47,1.34-0.64,2.11-0.53
		c0.25,0.55,0.49,1.11,0.74,1.66c0.43,0,0.85,0.44,1.28,0.01c1.2-0.21,2.36-1.15,3.62-0.49c1.06,0.55,2.12,0.56,3.23,0.47
		c0.38,0.26,0.92,0.26,1.18,0.72c0.86-0.07,1.72-0.15,2.58-0.22c0.54,0.15,1.01,0.49,1.56,0.63c0.04,0.13,0.09,0.26,0.13,0.4
		c0.71,0.97,0.48,2.26,1.14,3.25c0.51,0.23,1.02,0.45,1.53,0.68c0.87,0.43,1.78-0.4,2.66,0.07c0.63,0.29,1.52,0.39,1.15,1.47
		c-0.3,0.72,0.08,1.32,0.33,1.94c0.68,0.35,0.64,1.4,1.53,1.54c0.88,0.24,1.65-0.55,2.53-0.27c0.22,0.06,0.44,0.12,0.66,0.18
		c1.01-0.75,2.39-0.29,3.4-1.05c0.75-0.14,0.67-0.69,0.62-1.23c0.3-0.88,1.03-1.41,1.65-2.03c0.36,0.14,0.76-0.26,1.11,0.08
		c0.46-0.03,1.02,0.11,1.35-0.12c1.44-0.98,2.09-0.02,2.62,1.03c0.23,0.44,0.52,1,0.89,0.88c1.75-0.55,3.12,0.84,4.75,0.78
		c0.5,0.37,0.94,0.82,1.53,1.06c2.25,0.34,4.31,1.5,6.62,1.52c0.61-0.13,1.26-0.06,1.86-0.3c0.54-0.06,1.04-0.45,1.62-0.22
		c1.94-1.34,3.7-2.85,4.66-5.1c0.34-0.24,0.61-0.78,1.12-0.25c1.07,1.72,2.48,0.57,3.77,0.46c0.69,0.3,1.33-0.03,1.98-0.17
		c0.12-0.03,0.25-0.07,0.37-0.1c0.84-0.51,1.74-0.75,2.72-0.68c1.02-0.38,1.83,1.09,2.89,0.34c0.62-0.45,1.3-0.64,2.06-0.51
		l-0.05-0.01c0.88,0.27,1.66-0.54,2.54-0.26c0.32-0.08,0.64-0.16,0.96-0.25c1.07-0.03,2.08-0.24,3.01-0.79l-0.04,0.04
		c0.33-0.4,0.88-0.38,1.26-0.69c0.21-0.18,0.42-0.35,0.63-0.53c0.71-0.45,1.47-0.66,2.31-0.58c0.39-0.42,0.85-0.53,1.39-0.34
		c0.34,0.73,0.73,1.43,0.91,2.23c0.31,0.29,0.62,0.58,0.93,0.87c0.53-0.04,0.39-0.4,0.35-0.71c-0.07-0.59-0.46-1.14-0.27-1.77
		c-0.03-0.12-0.05-0.25-0.08-0.37c0.24-0.45,0.39-0.95,0.76-1.32c0.19-1.76,1.93-2.09,2.9-3.14c0.39-0.04,0.47-0.5,0.81-0.61
		c0.07-0.15,0.15-0.29,0.22-0.44c0.52-0.43,1.16-0.47,1.8-0.53c0.32,0.01,0.64,0.09,0.94-0.05c0.48-0.29,1.07-0.29,1.54-0.59
		c0.58-0.21,1.13-0.49,1.71-0.69c2.37-0.66,2.95-1.48,2.35-3.77c-0.28-1.05,0.11-1.62,0.86-2.09c4.34-2.75,5.18-5.07,3.53-9.85
		c0.19-0.53,0.48-1.02,0.69-1.55c1.94-2.52,3.57-5.25,5.68-7.66c0.81-0.93,1.32-2.44-0.6-3.17c-0.12-0.41-0.23-0.82,0.06-1.21
		c0.18-0.97,0.66-1.9,0.33-2.92c0.4-0.48-0.15-0.96-0.01-1.44c-0.67-0.54-0.88-1.35-1.24-2.07c-0.09-0.42-0.25-0.82-0.48-1.19
		c-0.12-0.58-0.42-1.14-0.25-1.76c0.69-0.86,0.45-1.97,0.82-2.93c0.78-2.08,2.37-2.5,4.06-1.02c0.79,0.33,0.64,1.37,1.34,1.77
		c0.04,0.13,0.08,0.25,0.12,0.38c0.14,0.59,0.71,1.08,0.43,1.77c-0.08,0.59-0.17,1.18-0.25,1.77c-0.24,0.86,0.54,1.61,0.26,2.47
		c0.26,0.49,0.43,1.07,0.8,1.46c0.38,0.4,0.97,0.99,1.36-0.07c-0.19-0.62-1.53-0.75-0.76-1.78c1.31-0.51,2.19,0.27,3.06,1.04
		c0.37,0.87,1.02,1.7,0.38,2.72c-0.42,0.28-1.11-0.36-1.39,0.4c-0.75,0.64,0.06,1.19,0.11,1.78c0.46,0.48,2,0.16,1.52,1.12
		c-0.82,1.61,0.26,2.26,1.01,3.17c-0.04,0.71,0.62,1.35,0.18,2.09c-0.1,1.04,0.71,1.39,1.4,1.82c0.59-0.1,0.91,0.32,1.28,0.65
		c0.23,0.37,0.29,0.9,0.87,0.97c1.3-1.3,2.76-2.39,4.38-3.27c0.34-0.36,0.93-0.28,1.25-0.68c0.42-0.16,0.84-0.32,1.26-0.48
		c0.48-0.85,1.54-0.56,2.17-1.11c0.56-0.4,1.31-0.37,1.85-0.82c1.79-0.53,2.66-2.02,3.62-3.42c0.53-0.5,1.4-0.46,1.81-1.15
		c0.57,0.12,1.01,0.07,1.55-0.35c0.96-0.76,1.93-1.5,2.74-2.42c1.25-0.98,2.93-0.79,4.26-1.55c0.32-0.14,0.65-0.28,0.97-0.41
		c0.32-0.71,0.95-0.64,1.56-0.62c0.83,0.27,0.5,0.89,0.42,1.41c-0.06,0.4-0.2,0.79,0.28,1.04c0.4,0.2,0.79,0.13,1.13-0.1
		c0.37-0.26,0.68-0.59,1.02-0.89c0.43-0.13,0.85-0.22,1.26,0.06c0.86-0.43,1.82-0.12,2.7-0.34c0.45-0.44,1.04-0.68,1.51-1.1
		c1.91-2.43,3.64-4.95,3.98-8.15c0.16-0.65-0.07-1.32,0.06-1.97c-0.23-0.5,0-1.2-0.7-1.48c-0.41-0.76-1.12-1.01-1.92-1.11
		c-1.18-0.15-1.17-0.58-0.38-1.35c0.43-0.42,0.83-0.74,1.42-0.87c1.58-0.35,1.89-1.23,0.99-2.55c-0.5-0.48-0.94-0.31-1.35,0.13
		c-0.23,0.07-0.46,0.13-0.69,0.2c-0.47-0.24-0.38-0.64-0.28-1.04c-0.32-0.92,0.13-1.7,0.57-2.42c0.27-0.45,0.71-0.95,1.39-0.3
		c0.39,0.37,0.9,0.85,1.45,0.13c0.48-0.63,0.92-1.45,0.35-2.05c-1.08-1.13-0.64-2.28-0.38-3.48c0.37-0.69,0.26-1.34-0.21-1.94
		c0.14-0.77,0.13-1.56,0.72-2.24c0.31-0.35,0.7-0.99,0.11-1.54c0.24-0.45,0.16-0.87-0.09-1.29c-0.21-0.58-0.46-1.15-0.38-1.78
		c0.27-0.23,0.27-0.52,0.21-0.83c0.18-0.82-0.41-1.52-0.33-2.32c0.37-0.3,0.05-0.5-0.1-0.72c0.3-0.67,0.08-1.21-0.41-1.69
		c-0.32-0.32-0.59-0.85-0.96-0.93c-1.89-0.39-3.3-1.17-3.36-3.36c0.12-0.52,0.36-0.86,0.96-0.54c0.5,0.23,0.67,0.05,0.44-0.42
		c-0.4-0.86,0.49-1.19,0.81-1.44c0.44-0.33,0.84,0.27,0.98,0.82c0.17,0.66,0.61,0.93,1.28,0.78c0.06-0.62-0.03-1.2-0.46-1.69
		l0.04,0.04c-0.43-0.49-0.57-1.06-0.45-1.7c0.32-0.09,0.64-0.17,0.97-0.26c0.54,0.74,1.16,0.85,1.88,0.26
		c1.01-1.29,2.49-1.49,3.97-1.63c0.51-0.05,1.14,0.17,1.33-0.45C324.3,265.54,324.4,264.95,323.96,264.23z"/>
	<g>
		<polyline class="st4" points="279.76,48.92 204.51,261.43 137.47,48.92 		"/>
		<line class="st5" x1="160.22" y1="122.46" x2="137.47" y2="48.92"/>
		<path class="st5" d="M245.37,147.3c12.33-32.68,23.16-65.17,34.39-98.38"/>
		<path class="st5" d="M235.17,176.46c3.57-8.58,5.37-17.61,8.89-25.43"/>
	</g>
	<g>
		<g>
			<path class="st6" d="M145.98,356.41c43.09-43.09,86.18-86.18,129.28-129.28c11.61-11.61,23.21-23.21,34.82-34.82
				c0.55-0.55-0.3-1.4-0.85-0.85c-43.09,43.09-86.18,86.18-129.28,129.28c-11.61,11.61-23.21,23.21-34.82,34.82
				C144.59,356.11,145.43,356.96,145.98,356.41L145.98,356.41z"/>
		</g>
	</g>
	<g>
		<g>
			<path class="st6" d="M123.85,350.01c47.11-47.11,94.22-94.22,141.33-141.33c12.75-12.75,25.51-25.51,38.26-38.26
				c0.55-0.55-0.3-1.4-0.85-0.85c-47.11,47.11-94.22,94.22-141.33,141.33c-12.75,12.75-25.51,25.51-38.26,38.26
				C122.45,349.7,123.3,350.55,123.85,350.01L123.85,350.01z"/>
		</g>
	</g>
	<g>
		<g>
			<path class="st6" d="M167.67,363.62c40.44-40.44,80.87-80.87,121.31-121.31c11.03-11.03,22.05-22.05,33.08-33.08
				c0.55-0.55-0.3-1.4-0.85-0.85c-40.44,40.44-80.87,80.87-121.31,121.31c-11.03,11.03-22.05,22.05-33.08,33.08
				C166.27,363.32,167.12,364.17,167.67,363.62L167.67,363.62z"/>
		</g>
	</g>
	<g>
		<g>
			<path class="st6" d="M114.29,335.92c43.11-43.11,86.23-86.23,129.34-129.34c11.61-11.61,23.23-23.23,34.84-34.84
				c0.55-0.55-0.3-1.4-0.85-0.85C234.51,214,191.4,257.12,148.28,300.23c-11.61,11.61-23.23,23.23-34.84,34.84
				C112.89,335.62,113.74,336.47,114.29,335.92L114.29,335.92z"/>
		</g>
	</g>
	<g>
		<g>
			<path class="st6" d="M193.49,366.8c41.62-41.62,83.24-83.24,124.87-124.87c0.55-0.55-0.3-1.4-0.85-0.85
				c-41.62,41.62-83.24,83.24-124.87,124.87C192.1,366.49,192.94,367.34,193.49,366.8L193.49,366.8z"/>
		</g>
	</g>
	<g>
		<g>
			<path class="st6" d="M228.82,198.3c11.5-11.5,23-23,34.49-34.49c0.55-0.55-0.3-1.4-0.85-0.85c-11.5,11.5-23,23-34.49,34.49
				C227.43,198,228.28,198.85,228.82,198.3L228.82,198.3z"/>
		</g>
	</g>
	<g>
		<g>
			<path class="st6" d="M107.02,320.11c39.05-38.85,78-77.8,116.85-116.85c0.55-0.55-0.3-1.4-0.85-0.85
				c-38.85,39.05-77.8,78-116.85,116.85C105.62,319.81,106.47,320.66,107.02,320.11L107.02,320.11z"/>
		</g>
	</g>
	<g>
		<defs>
			<polygon id="SVGID_3_" points="279.76,48.92 204.51,261.43 137.47,48.92 211.91,51.89 			"/>
		</defs>
		<clipPath id="SVGID_4_">
			<use xlink:href="#SVGID_3_"  style="overflow:visible;"/>
		</clipPath>
		<path class="st7" d="M323.96,264.23c-0.95-1.57-2.72-2.15-3.81-3.51c0.19-0.54-0.15-1-0.21-1.5c-0.04-0.16-0.09-0.32-0.16-0.48
			c-0.38-0.89-0.81-1.77-0.49-2.78c-0.28-0.65,0-1.21,0.25-1.78c0.14-0.46,0.03-0.92,0.01-1.38c-0.12-0.8-0.16-1.61-0.41-2.39
			c0.02-0.43-0.03-0.86,0-1.3c-0.03-0.66-0.49-1.26-0.3-1.95c0.1-1.07,0.31-2.15-0.09-3.21c0.44-0.85-0.23-1.63-0.14-2.46
			c0-0.82-0.54-1.54-0.38-2.38c0.13-1.25,1.32-2.28,1.32-3.3c-0.01-1.59,0.92-2.47,1.6-3.58c0.22-0.47,0.36-0.96,0.31-1.49
			c0.73-1.06,1.77-2.03,0.95-3.51c0.14-0.73-0.19-1.34-0.48-1.97c-0.26-0.69-0.32-1.42-0.44-2.14c0.04-0.16,0.08-0.31,0.13-0.46
			c-0.69-0.86-0.05-1.86-0.29-2.77c0.55-1.01-0.14-1.91-0.26-2.86c-0.19-0.66-0.82-0.88-1.26-1.28c-1,0.41-1.38-0.13-1.43-1.01
			c-0.05-0.85,0.19-1.65,0.63-2.37c0.37-0.44,0.79-0.84,1.08-1.35c0.82-0.71,2.06-1.15,1.63-2.76c-0.63,0.16-1.31,0.88-1.96,0.08
			c-0.05-0.47-0.04-0.93,0.41-1.24c1.24-1.01,1.1-1.7-0.64-2.25c-0.63-0.2-1.05-0.29-0.97-1.02c-0.89-0.19-0.62-1.03-0.87-1.57
			c0.14-0.6-0.35-1.11-0.25-1.71c-0.17-0.18-0.33-0.35-0.5-0.53c0.16-0.76-0.22-1.38-0.52-2.02c-0.55-1.36-1.85-2.29-2.09-3.82
			c-0.67-0.06-0.82-0.89-1.47-0.98c-0.7-0.83-1.65-1.18-2.65-1.45c-0.77-0.21-1.46-0.49-1.12-1.52c0.49-0.61,1.53-0.16,1.91-0.98
			c-0.09-0.89-1.67-1.4-0.66-2.57c0.19-0.64-0.19-1.14-0.43-1.67c-0.9-0.88-1.2-2.12-1.88-3.13c-0.46-0.69-0.62-1.47-0.6-2.29
			c0.65-0.11,1.14-0.6,2.01-0.12c0.66,0.36,2.01,0.09,1.56-1.45c-0.2-0.4-0.65-0.55-0.91-0.89c-0.17,0.01-0.35,0.05-0.51,0.03
			c-1.53-0.22-2.99-1.26-4.58,0.23c-0.55,0.51-1.38-0.66-1.8-1.23c-0.52-0.71,0.42-0.64,0.79-0.87c0.96-0.61,1.57-1.58,2.34-2.37
			c0.88-0.9,0.74-1.39-0.31-1.85c-0.86-0.33-1.69-0.39-2.47,0.21c-1.67,0.01-1.86-0.29-1.17-1.86c0.1-0.44,0.1-0.78-0.52-0.58
			c-0.89,0.46-1.45,1.17-1.58,2.18c-0.56,0.5-1.3,0.46-1.96,0.66c-0.51,0.04-1.06-0.13-1.52,0.24c-0.86-1.05-2.6-0.72-3.26-2.07
			c-0.36-0.29-0.44-0.78-0.76-1.09c-0.2,0.1-0.46,0.15-0.6,0.3c-1.23,1.33-1.65,1.27-2.36-0.4c-0.28-0.67-0.87-0.88-1.48-0.97
			c-0.56-0.09-1.14-0.03-1.59-0.46c-0.56,0.12-1.23-0.05-1.59,0.61c-0.03,0.44,0.16,1.08-0.7,0.76c-0.56,0.56-0.26,0.99,0.2,1.4
			c0.59,0.45,0.89,1.29,1.77,1.34c0.53,1.04,0.53,1.05-0.05,1.42c-2.26-0.43-4.14-2.15-6.6-1.92c-0.95-0.29-1.82,0.8-2.79,0.18
			c-0.34,0.03-0.68,0.06-1.01,0.09c-0.4-0.19-0.73-0.11-1,0.24c-0.87,0.78-1.75,1.9-2.54-0.07c0.18-0.46-0.07-0.86-0.19-1.28
			c-0.6-0.43-1.36-0.13-1.98-0.44c-0.64-0.43-0.32-1.31-0.84-1.79c-0.28-0.06-0.66-0.03-0.82-0.2c-2.09-2.18-5.01-2.69-7.62-3.84
			c-0.68-0.3-1.28-0.78-2.08-0.48c-0.67-0.46-1.41,0.01-2.11-0.15c-0.5-0.11-0.99-0.22-1.49-0.33c-0.6-0.27-1.14,0.33-1.74,0.1
			c-0.87,0.17-1.71-0.45-2.58-0.08c-0.54-0.01-1.06,0.03-1.58,0.1c-0.55,0.29-1.21,0.47-1.97,0.5c-0.38,0.15-0.75,0.33-1.11,0.55
			c-1.32-0.23-1.9,0.96-2.84,1.47c-0.36,0.2-0.54,0.51-0.55,0.92c-0.1,0.12-0.19,0.25-0.29,0.37c-0.22,0.59,0.38,1.14,0.11,1.73
			c-0.15,1.83,0.22,3.46,2.28,3.88c1.21,0.25,2.26,0.74,3.34,1.25c0.32,0.15,0.86-0.06,0.72,0.58c-0.09,0.46-0.39,0.62-0.88,0.59
			c-0.68-0.05-1.36,0-2.04,0.01c-0.5-0.23-0.96-0.19-1.37,0.19c-0.32,0.77,0.44,1.46,0.17,2.23c-0.06,0.67-0.66,0.93-1.03,1.36
			c-0.44,0.22-0.99,0.04-1.41,0.36c-1.21-0.72-2.44-1.36-3.92-1.18c-0.48-0.5-1.07-0.83-1.69-1.1c-0.58-0.09-1.18,0.13-1.76-0.1
			c-0.39-0.55-0.94-0.46-1.52-0.42c-1.06,0.07-2.11-0.05-3.06-0.6c-0.35-0.14-0.65-0.07-0.92,0.18c-0.75,0.21-1.68,0.21-2.21,0.67
			c-1.04,0.91-1.97,0.68-2.7-0.1c-1.4-1.5-3.17-1.75-5.02-1.91c-0.69-0.17-1.38,0.31-2.07,0.02c-0.71,0.28-1.53,0.18-2.19,0.62
			c-0.95,0.9-1.89,1.82-2.86,2.7c-0.27,0.25-0.54,0.74-1,0.43c-0.44-0.3-0.71-0.74-0.45-1.34c0.65-1.51,0.01-2.75-0.86-3.94
			c-0.46-0.63-0.97-1.24-1.39-1.9c-1.83-2.87-3.77-5.57-6.91-7.25c-1.22-0.66-2.74-1.31-3.07-3.01c-0.18-0.7-0.36-1.4-0.86-1.95
			c-0.67-0.07-1.33-0.13-2-0.2c-0.24-0.03-0.44-0.15-0.53-0.36c-0.09-0.21,0.05-0.29,0.25-0.29c1.04-0.6,1.97-1.28,2.11-2.6
			c0.11-0.76-0.09-1.44-0.5-2.08c-0.24-0.26-0.55-0.24-0.86-0.21c-0.65-0.76-1.42,0.2-2.1-0.13c-0.65-0.18-1.15,0.23-1.69,0.44
			l0.02-0.04c-0.53,0.41,0.79,1.26-0.35,1.53c-0.67-0.53-0.12-1.74-1.15-2.07c-0.48-0.54-1.59-0.05-1.79-1.07
			c-0.03-0.72-0.8-1.25-0.52-2.05c-0.48-0.51-1.38-1.1-0.65-1.76c0.61-0.55,1.12,0.26,1.55,0.81c0.38,0.47,0.93,0.82,1.4,1.22
			c0.72,0.07,1.42,0.35,2.15,0.21c0.64-0.25,1.38-0.17,1.93-0.66c1.01-1.39,0.67-2.54-1.1-2.88c-1.23-0.24-2.26-0.73-3.25-1.4
			c-0.36-0.61-0.58-1.26-0.47-1.98c0.17-0.49,0.62-0.67,0.94-0.4c1.75,1.44,4.06,1.41,6,2.36c1.8,0.88,3.33,0.54,4.34-0.88
			c0.35-0.5,0.58-1.01,0.31-1.59c-0.31-0.65-0.84-0.9-1.56-0.65c-0.54-0.37-1.19,0.11-1.72-0.23c-1.65-1.14-2.77-2.67-3.39-4.57
			c-0.48-0.33-0.8-0.76-0.87-1.36c-0.07-0.63-0.5-1.21-0.3-1.88c0.27-1.95,1.59-1.71,2.94-1.42c0.15,0.8,0.32,1.6,0.53,2.39
			c0.55,1.09,1.47,1.38,2.65,1.43c1.39,0.06,2.78,0.24,4.12,0.8c1.21,0.5,2.28,0.27,2.42-1.36c0.03-0.37,0.19-0.65,0.46-0.88
			c0.74,0.18,1.37-0.26,2.07-0.35c0.46-0.21,0.91-0.45,1.42-0.53c0.3-0.08,0.6-0.16,0.9-0.23c0.86-0.7,2.09-0.41,2.95-1.11
			l-0.04,0.04c0.45-0.46,1.04-0.64,1.64-0.79c0.56-0.13,1.14-0.24,1.5-0.73c0.47-0.65-0.03-0.62-0.46-0.61
			c-0.36-0.31-0.53-0.65,0.04-0.87c0.54-0.21,0.75-0.62,0.9-1.11c-0.39-0.74-0.47-1.5,0.4-1.9c0.89-0.4,1.01,0.39,1.19,0.98
			c-0.19,0.61,0.05,0.94,0.67,1.02c0.82-1.58,0.44-3.85,2.68-4.61c0.21-0.52-0.59-0.87-0.24-1.41c0.69,0.07,1.47,0.18,1.71-0.68
			c0.16-0.6,0.03-1.3-0.59-1.66c-1.44-0.83-0.67-1.71-0.17-2.72c0.4,0.67,0.68,1.23,1.04,1.74c0.65,0.93,1.21,0.11,1.74-0.17
			c0.52-0.27,1.1-1.14,0.61-1.31c-1.43-0.49-0.71-1.49-0.85-2.29c-0.47-0.44-1.43-0.53-1.11-1.55c1.35,0.22,1.71-0.93,1.73-1.72
			c0.02-1-1.05-0.65-1.72-0.69c-0.1-0.01-0.2-0.08-0.3-0.13c0.03-0.43-1.14-0.37-0.43-1.07c0.5-0.12,1.08,0.15,1.5-0.33
			c0.53,0.23,0.78-0.01,0.87-0.52c0.1-0.18,0.2-0.35,0.3-0.53c-0.16-0.31-0.74-0.19-0.72-0.69c0.34-0.48,1-0.47,1.4-0.87
			c0.56-0.35,0.38-0.77,0.11-1.19c0.2-0.96,0.75-2.07-0.92-2.27c-0.07,0.15-0.15,0.31-0.33,0.11c-0.03-0.04-0.03-0.11-0.06-0.15
			c-0.6-0.71,1.87-1.17,0.16-1.97c-0.33-0.27-0.52-0.58-0.23-1c-0.18-0.64,0.24-1,0.63-1.4c0.35-0.36,0.64-0.79,0.11-1.26
			c0.35-0.47,0.04-1.08,0.33-1.56c0.05-0.13,0.09-0.25,0.14-0.38c0.13-0.08,0.19-0.2,0.17-0.36c-0.22-0.53-0.3-1.13-0.81-1.5
			c-0.27-0.48-0.55-0.96-0.82-1.44c-0.44-0.85-0.73-1.74-0.64-2.71c0.25-0.44-0.05-1.03,0.36-1.43c0.07-0.15,0.08-0.31,0.02-0.47
			c-0.22-0.35-0.53-0.29-0.84-0.16c-0.64,0.26-0.15,1.21-0.86,1.43c-1.43,0.9-1.72-0.52-2.38-1.18c0.17-0.73,0-1.43-0.18-2.12
			c0.11-0.72,0.4-1.39,0.52-2.12c0.44-2.78,2.98-5.38,5.07-5.36c0.47,0.12,0.5-0.25,0.61-0.54c-0.33-0.36-0.72-0.69-0.5-1.26
			c0.51-0.38,0.87-0.89,1.24-1.39c1.3-0.6,1.35-0.61,1.42,0.65c0.03,0.45,0.23,0.73,0.45,1.04c0.18,0.32,0.28,0.78,0.82,0.48
			c0.32-0.13,0.66-0.28,0.41-0.71c-0.64-1.11-0.02-1.53,0.94-1.78c0.45-0.29-0.19-0.81,0.24-1.1c-0.34-1.72,1.98-2.67,1.1-4.62
			c1.41,1.17,2.01,0.33,2.58-0.64c0.57,0.15,1.1,0.06,1.61-0.24c0.33-0.49,0.98-0.47,1.36-0.87c0.11-0.02,0.21-0.05,0.32-0.07
			c0.63-0.58,1.36-0.98,2.22-1.1c1.26-0.47,0.86,0.9,1.39,1.25c0.27,0.25,0.43,0.63,0.84,0.01c0.5-0.76,0.46-1.82,1.33-2.36
			c0.07-0.55,0.93-0.31,0.94-0.93c0.59-0.11,1.15-0.3,1.58-0.76c0.73,0.27,1.38-0.45,2.11-0.18c0.14,0.08,0.28,0.16,0.43,0.24
			c0.2,0.26,0.4,0.47,0.72,0.14c-0.12-2.35-0.12-2.35-2.53-1.85c-0.05,0.01-0.11,0.02-0.17,0.03c-1.32-0.25-2.47,0.39-3.68,0.7
			c-0.64,0.26-1.06,1.09-1.93,0.77l0.05,0.01c-0.73-0.28-1.37,0.44-2.1,0.17c-0.6,0.22-1.4,0.09-1.67,0.91
			c-0.51,0.77-1.57,0.54-2.14,1.19c-0.19,0.12-0.39,0.23-0.58,0.35c-0.43,0.54-1.02,0.6-1.64,0.53l-0.06-0.03
			c-0.15-0.08-0.3-0.17-0.46-0.24c-0.52-0.06-1.04-0.13-1.26,0.54c-0.47,0.39-1.52,0.37-1.03,1.44c-0.79,0.45-1.12-0.33-1.64-0.62
			c-1.03,0.2-1.31,1.16-1.52,1.88c-0.4,1.36-1.2,2.2-2.42,2.76c-0.48,0.4-1.12,0.09-1.64,0.36c-0.99,1.82-3.4,2.53-3.76,4.86
			c-0.03,0.17-0.44,0.38-0.69,0.41c-1.66,0.23-2.11,0.82-2,2.77c-0.14,0.31-0.06,0.54,0.26,0.68c0.41-0.11,0.82-0.21,1.23-0.32
			c0.46,0.43,0.57,0.88,0.05,1.35c-0.06,0.33-0.03,0.71-0.2,0.98c-1.03,1.67-2.05,3.27-2.34,5.35c-0.1,0.76-0.03,0.97,0.42,1.18
			c0.96,0.44,0.6,0.9,0.1,1.38c-0.69,0.66-1.45,1.18-2.44,0.64c-0.66-0.36-1.5,0.04-1.37,0.4c0.45,1.3-0.48,2.5-0.04,3.73
			c0.18,1.27,0.79,2.45,0.82,3.76c-0.02,0.72,0.52,1.37,0.29,2.13c-0.55,1.04-0.52,2.18-0.58,3.31c-0.19,0.64,0.2,1.19,0.27,1.78
			c0.16,0.51,0.11,0.98-0.18,1.43c0.78,2.38-0.85,3.74-2.22,5.2c-0.4,0.54-1.2,0.26-1.62,0.76c-0.09,0.34-0.36,0.45-0.67,0.52
			c-0.68,0.45-1.53,0.25-2.25,0.58c-1.8,0.46-3.61,0.92-5.41,1.38c-0.12-0.12-0.22-0.28-0.42-0.25c-0.26,0.19-0.53,0.37-0.79,0.56
			c-0.61,0.42-1.29-0.34-1.89,0.12c-0.34,0.31-0.69,0.59-1.17,0.65c-0.37,0.1-0.75,0.17-1.1,0.33c-0.44,0.21-0.85,0.61-1.36,0.16
			c-0.09-0.48,0.21-0.83,0.4-1.22c0.19-0.39,0-0.49-0.36-0.42c-0.53-0.43-1.06,0.17-1.59,0.01c-0.18,0.17-0.37,0.33-0.55,0.5
			c-0.39-0.35-1.42,0.74-1.38-0.61c-0.13-0.36-0.08-0.79-0.43-1.05c-0.69-0.72-1.58-1.09-2.49-1.43c-0.99,0.14-0.15,0.74-0.28,1.09
			c0.45,1.03-0.34,0.83-0.87,0.88l-0.03-0.01c-0.5,0.87,0.47,1.65,0.14,2.51c-0.09,0.14-0.17,0.27-0.26,0.41
			c-0.48,0.41-1.03,0.55-1.65,0.42c-0.98-0.06-1.7-1.09-2.79-0.76c-0.59-0.28-1.17-0.41-1.7,0.11c-0.65-0.35-1.83-0.01-1.75-1.33
			c-0.09-0.32,0.06-0.78-0.49-0.84c-0.14-0.08-0.38-0.27-0.42-0.23c-1,0.87-2.03,1.11-3.23,0.39c-0.16-0.1-0.55,0.1-0.79,0.24
			c-1.26,0.75-1.11-0.15-1.12-0.92c-0.02-0.69,0.92-1.48-0.18-2.08c-0.79-0.14-1.22,0.07-1,0.98c0.09,0.37,0.27,0.75,0.09,1.15
			c-0.01,0.09-0.04,0.17-0.08,0.25c-0.28,0.55-0.83,0.75-1.31,1.04c-0.83,0.58-1.34,1.78-2.68,1.36c-0.15-0.08-0.3-0.12-0.47-0.14
			c-0.49,0.05-0.96,0.2-1.43,0.32c-0.39,0.01-0.68,0.44-1.11,0.27c-0.18,0.17-0.37,0.33-0.55,0.5c-0.86,0.68-2.03,0.49-2.94,1.03
			c-0.14,0.16-0.28,0.32-0.42,0.49c-0.72,0.38-1.42,0.82-2.29,0.61c-0.61-0.25-1.34-0.15-1.88-0.63c-0.72,0.03-1.44,0.05-1.99,0.62
			c-0.99,0.89-2.15,1.49-3.42,1.87c-0.6,0.44-1.28,0.63-2.03,0.55c-0.32-0.29-0.64-0.58-0.96-0.87c-0.26-0.22-0.55-0.22-0.86-0.13
			c-1.42,1.66-0.52,2.62,1.02,3.38c0.99,0.09,1.77-0.56,2.68-0.74c0.44-0.08,0.83-0.25,1.1-0.64c0.64-0.09,1.25-0.54,1.92-0.12
			c0.44-0.14,0.8,0.02,1.12,0.31c0.06,0.65,0.06,1.27-0.7,1.55c-0.8,0.11-1.54,0.61-2.4,0.41l0.05,0.01
			c-0.53-0.12-1.01-0.09-1.35,0.41c-0.27,0.45-1.15,0.59-0.81,1.31c0.21,0.44,0.8,0.39,1.23,0.33c1.41-0.19,2.12,0.83,2.99,1.61
			c0.28,0.25,0.01,1.08,0.81,0.79c0.44-0.7,0.96-0.97,1.68-0.35c0.58,0.47,0.23,0.99,0.07,1.49c0.1,0.87,0.91-0.11,1.13,0.43
			c1.66,0.94,1.67,1.05,0.28,2.54c-0.64,0.28-1.27,0.56-2,0.42c-0.27-0.15-0.54-0.3-0.81-0.45c-0.36-0.29-0.69-0.01-1.04,0.03
			c-0.66,0.1-1.21,0.39-1.58,0.97c-1.22,0.77-2.32,1.61-2.67,3.16c-0.17,0.77-0.91,0.93-1.6,1.12c-1.48,0.39-3.12,0.4-3.95,2.17
			c-0.28,0.6-1.2,0.8-1.47-0.32c-0.14-0.6-0.43-1.13-0.38-1.81c0.11-1.3-0.52-2.26-1.73-2.8c-0.52-0.26-0.94-0.13-1.28,0.31
			c-0.13,0.04-0.27,0.09-0.4,0.13c-0.51,0.48-0.04,0.94,0.03,1.4c0.67,0.91,2.25,1.59,0.75,3.04c-0.51,0.45-1.06,0.41-1.63,0.11
			c-0.57-0.08-1.03-0.35-1.4-0.79c-0.54-0.53-0.36-1.33-0.73-1.93c-0.44-0.22-0.78-0.82-1.39-0.36c-0.38,0.07-0.75,0.16-0.83,0.63
			c-0.25,0.41-0.14,0.86-0.1,1.29c0.49,0.12,0.72,0.55,1.04,0.87c0.23,0.32,0.52,0.63,0.21,1.05c-1.24,1.2-1.95,3.19-4.23,2.84
			c-0.42,0.48,0.21,0.95,0,1.43c-0.17,1.25-1.27,1.87-1.93,2.78c-1.14,1.58-2.32,3.26-3.86,4.39c-2.21,1.63-3.7,3.52-4.47,6.15
			c-0.47,1.62-1.18,3.3-3.11,3.82c-0.71,0.19-0.68,0.67-0.65,1.2c-0.61,0.42-0.01,1.04-0.27,1.52c-0.18,0.38-0.43,0.66-0.86,0.78
			c-2.26,0.6-2.97,2.41-1.75,4.43c-0.23,0.71,0.45,1.34,0.18,2.05c-0.28,0.99-1.61,1.95-0.8,2.92c1.21,1.47,0.87,2.68,0.06,4.03
			c-0.26,0.61,0.33,1.16,0.12,1.76c-0.44,0.68-0.83,1.4-0.18,2.15c0.7,0.8,0.54,1.67,0.32,2.56c-0.1,0.38-0.38,0.75,0.21,0.96
			c0.83,0.22,1.56-0.51,2.39-0.28l0.59,0.91c0.75,0.14,1.42-0.07,2.04-0.49c1.15-0.02,1.51,0.49,1.04,1.55
			c-0.06,0.15-0.05,0.31,0.01,0.46c0.42,0.62,1.28-0.24,1.66,0.49c0.14-0.02,0.27-0.05,0.41-0.07c0.19,1.02-0.99,0.43-1.19,1.01
			c-0.09,0.13-0.17,0.27-0.26,0.4c0.22,0.16,0.4,0.37,0.61,0.54c0.27,0.4,0.52,0.81,0.27,1.32c0.09,0.37,0.08,0.8,0.54,0.96
			c1,0.36,0.76,1.04,0.44,1.73c-0.43,0.43-1.13,0.31-1.56,0.74c-0.11,0.45-0.5,0.49-0.85,0.59c-0.23,0.17-0.18,0.42-0.18,0.66
			c0.59,0.91,0.2,1.42-0.71,1.71c-1.71,0.58-2.93,2.69-1.96,3.5c0.87,0.72,1.23,1.13,0.12,1.88c-0.32,0.22-0.21,0.64,0.24,0.77
			c1.04,0.29,2.06,0.72,3.12,0.82c1.92,0.19,3.04-0.94,3.05-2.85c-0.34-0.92-0.39-1.79,0.44-2.51c0.54,0.19,1.07,0.38,1.61,0.57
			c-0.11,0.64,0.61,1.23,0.1,1.89c0.63,1.18,1.18,0.93,2.18,0.22c1.09-0.78,1.58-2.03,2.62-2.76c1.99-1.39,3.57-3.24,5.45-4.75
			c0.82-0.13,1.59-0.64,2.46-0.28c1.37-0.21,2.61-0.28,3.16,1.46c0.12,0.38,0.65,0.81,1.12,1.15c1.67,1.22,2.03,3.27,0.64,4.09
			c-1.4,0.83-1.86,2.04-2.32,3.37c-0.18,0.53-0.14,1,0.34,1.36c1.27,1.07,1.58,0.05,1.94-0.88c0.42-0.48,1.18-0.22,1.59-0.73
			c0.66,0.08,0.93,0.65,1.32,1.06c0.52,0.25,0.97-0.1,1.45-0.16c0.43-0.22,0.86-0.43,1.34-0.51c0.97-0.9,1.92-0.88,3.11-0.27
			c2.15,1.11,4.51,1.73,6.84,2.38c1.44-0.02,2.77-0.46,4.06-1.04c0.61-0.3,1.13-0.74,1.69-1.12c1-1.07,1.67-2.46,2.96-3.27
			c0.45-0.28,0.81-0.48,1.35-0.01c0.65,0.57,0.1,0.85-0.14,1.21c-0.41,0.62-0.88,1.2-1.28,1.83c-0.45,0.7-0.88,1.71-0.09,2.16
			c1.3,0.74,0.63,1.47,0.35,2.28c-0.44,0.57,0.2,1.28-0.25,1.85c-0.28,1.23-0.89,2.15-1.76,3.15c-1.56,1.79-3.87,3.29-3.76,6.16
			c-0.37,1,0.65,1.83,0.35,2.82c0.03,0.06,0.06,0.13,0.08,0.19c-0.26,0.46-0.74,0.8-0.74,1.4c-0.52,1.42-1.95,2.47-1.62,4.25
			c0.13,0.72-0.08,1.29-0.78,1.87c-0.51,0.42-1.55,1.44-0.29,2.44c0.42,0.34-0.01,0.57-0.34,0.71c-0.61-0.11-1.16,0.04-1.65,0.42
			c-0.21,1.57-1.42,2.54-2.28,3.72c-0.19,0.59,0.27,1.26-0.22,1.81c-1.09,0.76-1.78,1.87-2.55,2.91c0.31,1.31-0.05,2-1.53,1.64
			c-0.23,0.14-0.73,0.14-0.3,0.61c0.66,1.12-0.47,1.21-0.96,1.67c-0.31,0.06-0.2,0.59-0.6,0.55c-0.16,0.03-0.32,0.05-0.48,0.08
			c-0.53-0.17-0.72,0.08-0.71,0.57c0.01,0.7-0.4,0.67-0.89,0.54c-0.09,0.36-0.41,0.77,0.06,1.06c0.49,0.31,1.35,0.5,0.81,1.27
			c-0.59,0.85-1.2,0.01-1.77-0.25c-0.46-0.22-0.87-0.56-1.44-0.4c-0.57,0.16-0.35,0.44-0.15,0.74c-0.21,0.74-0.87,0.38-1.32,0.53
			c-0.63,0.18-1.29,0.29-1.91,0.52c-0.9,1.72-2.72,2.05-3.63,0.45c-0.58-1.02-1.18-0.77-1.92-0.72c-0.26-0.34-0.73-0.47-0.91-0.89
			c-0.88-0.47-1.21-1.36-1.66-2.16c-0.24-0.02-0.44,0.08-0.59,0.26c0.42,0.86-0.28,1.39-0.6,2.03c-0.26,0.37-0.12,0.75-0.04,1.13
			c-0.57,0.44-1.09,0.98-1.72,1.3c-0.96,0.48-0.29,0.78,0.03,1.15c-0.31,0.37-0.71,0.6-1.19,0.67c-0.31,0.82-1.48,0.91-1.59,1.9
			c-0.44,0.33,0.34,1.28-0.68,1.31c-0.64-0.13-1.27-0.21-1.75,0.39c-1.14,0.7-1.98,1.84-3.34,2.2c-0.63,0.55-1.63,0.4-2.16,1.14
			c-0.27,0.48-0.53,0.95-0.8,1.43c-0.5,0.45-1.11,0.41-1.72,0.41c-0.27-0.17-0.54-0.35-0.8-0.52c-0.74-0.06-1.42,0.09-2.03,0.53
			c-0.2-0.09-0.45-0.14-0.6-0.29c-1.46-1.48-1.45-1.49-2.72,0.13c-0.39,0.5-0.71,0.49-1-0.09c-0.53-0.28-0.16-1.12-0.83-1.32
			c-0.36,0.37-0.49,1.09-1.31,0.7c-0.82-0.38-1.69-0.64-2.53-0.99c-0.35-0.15-0.94-0.32-0.79-0.76c0.65-1.81-0.72-1.73-1.76-1.99
			c-0.63-0.24-1.21,0.38-1.85,0.1c-0.66-0.06-1.33-0.12-1.99-0.18c-0.9-0.08-1.71,0.15-2.48,0.61c0.07,0.82-0.55,0.81-1.08,0.93
			c-0.14-0.03-0.27-0.08-0.39-0.15c-1.23-0.25-2.45-0.48-3.52,0.48c-0.29,0.34-0.62,0.67-0.13,1.11c0.78,0.51,0.75,1.19,0.43,1.95
			c-0.57,1.36-1.12,2.73-1.68,4.1c-0.38,0.23-0.56,0.65-0.89,0.93c0.25,0.55,0.5,1.1,0.76,1.64c-0.1,0.27-0.13,0.54-0.11,0.83
			c0.14,0.63,0.22,1.28,0.58,1.84c0.2,0.5,0.28,1.03,0.43,1.54c0.38,0.59,0.48,1.27,0.65,1.92c0.2,0.53,0.58,0.76,1.14,0.66
			c0.36,0.21,0.36,0.21-0.04,0.62c-0.35,1.17-1.17,2.42,0.53,3.26c0.22,0.76,0.63,1.49,0.47,2.33c0.01,1.25-1.25,1.97-1.34,3.18
			c-0.25,0.85,0.53,1.6,0.26,2.45c-0.06,0.22-0.11,0.45-0.17,0.67c-0.53,0.84,0.43,1.72-0.07,2.56c0.75,0.85,1.47,1.72,2.26,2.54
			c1.69,1.76,2.13,3.69-0.36,4.89c-0.3,0.72-0.23,1.42,0.13,2.11c0.55,0.18,0.79-0.15,1.09-0.55c0.54-0.71,1.21-1.24,2.19-0.7
			c0.21,0.84,0.43,1.68,0.64,2.52c0.56,0.42,1.12,0.84,1.68,1.26c0.66-0.37,0.78-0.01,0.67,0.54c-0.08,0.39-0.46,0.63-0.59,1.01
			c-0.2,0.54-1.75,0.87-0.55,1.57c1.05,0.61,1.35,1.63,1.99,2.44c0.75,0.94,1.15,2.14-0.25,3.04c-0.38,0.3-0.36,0.67-0.2,1.07
			c0.31,0.48,0.82,0.61,1.32,0.63c1.18,0.04,1.43,0.66,1.14,1.67c-0.38,0.34,0.14,0.79-0.15,1.14c0.2,0.74,0.28,1.51,1.1,1.93
			c0.62,0.31,0.39,0.68-0.08,0.97c-0.79,0.11-1.44,0.44-1.76,1.23c0.12,0.65,0.3,1.22,1.1,1.33c0.52,0.07,0.99,0.28,0.99,0.94
			c-0.32,0.76,0.33,1.11,0.66,1.59c0.39,1.06,1.31,1.54,2.22,2.04c0.28,0.16,0.87,0.15,0.8,0.52c-0.41,2.3,1.67,2.52,2.83,3.51
			c0.33,0.62,1.02,1.07,0.85,1.92c0.79,1.66,2.96,2.06,3.55,3.96c0.28,0.91,1.29,1.34,1.93,1.98c1.09,1.09,2.85,1.71,3.03,3.58
			c-0.32,0.62-1.02,0.76-1.47,1.22c-1.3,0.57-1.06,2.07-1.8,2.98c-0.04,0.73,0.1,1.41,0.53,2.01c1.01,0.9,1.68,0.4,2.14-0.58
			c0.58-1.25,1.16-2.52,1.6-3.82c0.52-1.53,1.17-1.7,2.18-0.43c0.17,0.44,0.66,0.57,0.92,0.93c1.73-0.44,3.85,0.22,4.63,1.03
			c1.42,1.47,2.59,1.52,4.19,1.04c0.5-0.56,1.27-0.72,1.82-1.22c1.53-1.85,1.56-1.85,3.5-0.41c0.22,0.17,0.46,0.32,0.72,0.42
			c1.46,0.57,1.85,1.54,1.17,2.95c-0.33,0.89,0.14,1.7,0.28,2.54c0.25,0.02,0.5,0.05,0.75,0.07c0.61,0.36,1.19,0.11,1.77-0.1
			c0.26-0.45,0.52-0.9,0.77-1.35c0.48-0.12,0.96-0.2,1.41,0.09c0.62,0.79,0.64,2.27,2.24,1.94c0.63-0.47,1.34-0.64,2.11-0.53
			c0.25,0.55,0.49,1.11,0.74,1.66c0.43,0,0.85,0.44,1.28,0.01c1.2-0.21,2.36-1.15,3.62-0.49c1.06,0.55,2.12,0.56,3.23,0.47
			c0.38,0.26,0.92,0.26,1.18,0.72c0.86-0.07,1.72-0.15,2.58-0.22c0.54,0.15,1.01,0.49,1.56,0.63c0.04,0.13,0.09,0.26,0.13,0.4
			c0.71,0.97,0.48,2.26,1.14,3.25c0.51,0.23,1.02,0.45,1.53,0.68c0.87,0.43,1.78-0.4,2.66,0.07c0.63,0.29,1.52,0.39,1.15,1.47
			c-0.3,0.72,0.08,1.32,0.33,1.94c0.68,0.35,0.64,1.4,1.53,1.54c0.88,0.24,1.65-0.55,2.53-0.27c0.22,0.06,0.44,0.12,0.66,0.18
			c1.01-0.75,2.39-0.29,3.4-1.05c0.75-0.14,0.67-0.69,0.62-1.23c0.3-0.88,1.03-1.41,1.65-2.03c0.36,0.14,0.76-0.26,1.11,0.08
			c0.46-0.03,1.02,0.11,1.35-0.12c1.44-0.98,2.09-0.02,2.62,1.03c0.23,0.44,0.52,1,0.89,0.88c1.75-0.55,3.12,0.84,4.75,0.78
			c0.5,0.37,0.94,0.82,1.53,1.06c2.25,0.34,4.31,1.5,6.62,1.52c0.61-0.13,1.26-0.06,1.86-0.3c0.54-0.06,1.04-0.45,1.62-0.22
			c1.94-1.34,3.7-2.85,4.66-5.1c0.34-0.24,0.61-0.78,1.12-0.25c1.07,1.72,2.48,0.57,3.77,0.46c0.69,0.3,1.33-0.03,1.98-0.17
			c0.12-0.03,0.25-0.07,0.37-0.1c0.84-0.51,1.74-0.75,2.72-0.68c1.02-0.38,1.83,1.09,2.89,0.34c0.62-0.45,1.3-0.64,2.06-0.51
			l-0.05-0.01c0.88,0.27,1.66-0.54,2.54-0.26c0.32-0.08,0.64-0.16,0.96-0.25c1.07-0.03,2.08-0.24,3.01-0.79l-0.04,0.04
			c0.33-0.4,0.88-0.38,1.26-0.69c0.21-0.18,0.42-0.35,0.63-0.53c0.71-0.45,1.47-0.66,2.31-0.58c0.39-0.42,0.85-0.53,1.39-0.34
			c0.34,0.73,0.73,1.43,0.91,2.23c0.31,0.29,0.62,0.58,0.93,0.87c0.53-0.04,0.39-0.4,0.35-0.71c-0.07-0.59-0.46-1.14-0.27-1.77
			c-0.03-0.12-0.05-0.25-0.08-0.37c0.24-0.45,0.39-0.95,0.76-1.32c0.19-1.76,1.93-2.09,2.9-3.14c0.39-0.04,0.47-0.5,0.81-0.61
			c0.07-0.15,0.15-0.29,0.22-0.44c0.52-0.43,1.16-0.47,1.8-0.53c0.32,0.01,0.64,0.09,0.94-0.05c0.48-0.29,1.07-0.29,1.54-0.59
			c0.58-0.21,1.13-0.49,1.71-0.69c2.37-0.66,2.95-1.48,2.35-3.77c-0.28-1.05,0.11-1.62,0.86-2.09c4.34-2.75,5.18-5.07,3.53-9.85
			c0.19-0.53,0.48-1.02,0.69-1.55c1.94-2.52,3.57-5.25,5.68-7.66c0.81-0.93,1.32-2.44-0.6-3.17c-0.12-0.41-0.23-0.82,0.06-1.21
			c0.18-0.97,0.66-1.9,0.33-2.92c0.4-0.48-0.15-0.96-0.01-1.44c-0.67-0.54-0.88-1.35-1.24-2.07c-0.09-0.42-0.25-0.82-0.48-1.19
			c-0.12-0.58-0.42-1.14-0.25-1.76c0.69-0.86,0.45-1.97,0.82-2.93c0.78-2.08,2.37-2.5,4.06-1.02c0.79,0.33,0.64,1.37,1.34,1.77
			c0.04,0.13,0.08,0.25,0.12,0.38c0.14,0.59,0.71,1.08,0.43,1.77c-0.08,0.59-0.17,1.18-0.25,1.77c-0.24,0.86,0.54,1.61,0.26,2.47
			c0.26,0.49,0.43,1.07,0.8,1.46c0.38,0.4,0.97,0.99,1.36-0.07c-0.19-0.62-1.53-0.75-0.76-1.78c1.31-0.51,2.19,0.27,3.06,1.04
			c0.37,0.87,1.02,1.7,0.38,2.72c-0.42,0.28-1.11-0.36-1.39,0.4c-0.75,0.64,0.06,1.19,0.11,1.78c0.46,0.48,2,0.16,1.52,1.12
			c-0.82,1.61,0.26,2.26,1.01,3.17c-0.04,0.71,0.62,1.35,0.18,2.09c-0.1,1.04,0.71,1.39,1.4,1.82c0.59-0.1,0.91,0.32,1.28,0.65
			c0.23,0.37,0.29,0.9,0.87,0.97c1.3-1.3,2.76-2.39,4.38-3.27c0.34-0.36,0.93-0.28,1.25-0.68c0.42-0.16,0.84-0.32,1.26-0.48
			c0.48-0.85,1.54-0.56,2.17-1.11c0.56-0.4,1.31-0.37,1.85-0.82c1.79-0.53,2.66-2.02,3.62-3.42c0.53-0.5,1.4-0.46,1.81-1.15
			c0.57,0.12,1.01,0.07,1.55-0.35c0.96-0.76,1.93-1.5,2.74-2.42c1.25-0.98,2.93-0.79,4.26-1.55c0.32-0.14,0.65-0.28,0.97-0.41
			c0.32-0.71,0.95-0.64,1.56-0.62c0.83,0.27,0.5,0.89,0.42,1.41c-0.06,0.4-0.2,0.79,0.28,1.04c0.4,0.2,0.79,0.13,1.13-0.1
			c0.37-0.26,0.68-0.59,1.02-0.89c0.43-0.13,0.85-0.22,1.26,0.06c0.86-0.43,1.82-0.12,2.7-0.34c0.45-0.44,1.04-0.68,1.51-1.1
			c1.91-2.43,3.64-4.95,3.98-8.15c0.16-0.65-0.07-1.32,0.06-1.97c-0.23-0.5,0-1.2-0.7-1.48c-0.41-0.76-1.12-1.01-1.92-1.11
			c-1.18-0.15-1.17-0.58-0.38-1.35c0.43-0.42,0.83-0.74,1.42-0.87c1.58-0.35,1.89-1.23,0.99-2.55c-0.5-0.48-0.94-0.31-1.35,0.13
			c-0.23,0.07-0.46,0.13-0.69,0.2c-0.47-0.24-0.38-0.64-0.28-1.04c-0.32-0.92,0.13-1.7,0.57-2.42c0.27-0.45,0.71-0.95,1.39-0.3
			c0.39,0.37,0.9,0.85,1.45,0.13c0.48-0.63,0.92-1.45,0.35-2.05c-1.08-1.13-0.64-2.28-0.38-3.48c0.37-0.69,0.26-1.34-0.21-1.94
			c0.14-0.77,0.13-1.56,0.72-2.24c0.31-0.35,0.7-0.99,0.11-1.54c0.24-0.45,0.16-0.87-0.09-1.29c-0.21-0.58-0.46-1.15-0.38-1.78
			c0.27-0.23,0.27-0.52,0.21-0.83c0.18-0.82-0.41-1.52-0.33-2.32c0.37-0.3,0.05-0.5-0.1-0.72c0.3-0.67,0.08-1.21-0.41-1.69
			c-0.32-0.32-0.59-0.85-0.96-0.93c-1.89-0.39-3.3-1.17-3.36-3.36c0.12-0.52,0.36-0.86,0.96-0.54c0.5,0.23,0.67,0.05,0.44-0.42
			c-0.4-0.86,0.49-1.19,0.81-1.44c0.44-0.33,0.84,0.27,0.98,0.82c0.17,0.66,0.61,0.93,1.28,0.78c0.06-0.62-0.03-1.2-0.46-1.69
			l0.04,0.04c-0.43-0.49-0.57-1.06-0.45-1.7c0.32-0.09,0.64-0.17,0.97-0.26c0.54,0.74,1.16,0.85,1.88,0.26
			c1.01-1.29,2.49-1.49,3.97-1.63c0.51-0.05,1.14,0.17,1.33-0.45C324.3,265.54,324.4,264.95,323.96,264.23z"/>
	</g>
	<g>
		<g>
			<path class="st6" d="M269.25,319.03c16.9-17.15,33.92-34.17,51.07-51.07c0.55-0.54-0.3-1.39-0.85-0.85
				c-17.15,16.9-34.17,33.92-51.07,51.07C267.86,318.73,268.7,319.58,269.25,319.03L269.25,319.03z"/>
		</g>
	</g>
	<g>
		<g>
			<path class="st6" d="M223.7,364.58c12.69-12.69,25.38-25.38,38.07-38.07c0.55-0.55-0.3-1.4-0.85-0.85
				c-12.69,12.69-25.38,25.38-38.07,38.07C222.3,364.27,223.15,365.12,223.7,364.58L223.7,364.58z"/>
		</g>
	</g>
	<g>
		<g>
			<path class="st6" d="M274.24,332.61c13.77-13.77,27.55-27.55,41.32-41.32c0.55-0.55-0.3-1.4-0.85-0.85
				c-13.77,13.77-27.55,27.55-41.32,41.32C272.85,332.3,273.7,333.15,274.24,332.61L274.24,332.61z"/>
		</g>
	</g>
	<g>
		<g>
			<path class="st6" d="M305.24,316.27c3.37-3.37,6.74-6.74,10.1-10.1c0.55-0.55-0.3-1.4-0.85-0.85c-3.37,3.37-6.74,6.74-10.1,10.1
				C303.84,315.96,304.69,316.81,305.24,316.27L305.24,316.27z"/>
		</g>
	</g>
	<g>
		<g>
			<path class="st6" d="M95.8,306.16c31.26-29.56,62.53-59.13,93.79-88.69c0.56-0.53-0.29-1.38-0.85-0.85
				c-31.26,29.56-62.53,59.13-93.79,88.69C94.39,305.85,95.24,306.69,95.8,306.16L95.8,306.16z"/>
		</g>
	</g>
	<g>
		<g>
			<path class="st6" d="M95.74,290.4c7.32-7.32,14.64-14.64,21.96-21.96c0.55-0.55-0.3-1.4-0.85-0.85
				c-7.32,7.32-14.64,14.64-21.96,21.96C94.35,290.1,95.19,290.95,95.74,290.4L95.74,290.4z"/>
		</g>
	</g>
	<g>
		<g>
			<path class="st6" d="M93.38,280.09c4.55-4.55,9.09-9.09,13.64-13.64c0.55-0.55-0.3-1.4-0.85-0.85
				c-4.55,4.55-9.09,9.09-13.64,13.64C91.99,279.78,92.83,280.63,93.38,280.09L93.38,280.09z"/>
		</g>
	</g>
	<g>
		<g>
			<path class="st6" d="M170.57,209.69c4.66-4.4,9.31-8.81,13.97-13.21c0.56-0.53-0.29-1.38-0.85-0.85
				c-4.66,4.4-9.31,8.81-13.97,13.21C169.16,209.37,170.01,210.22,170.57,209.69L170.57,209.69z"/>
		</g>
	</g>
	<g>
		<g>
			<path class="st6" d="M147.32,210.29c10.31-9.75,20.61-19.49,30.92-29.24c0.56-0.53-0.29-1.38-0.85-0.85
				c-10.31,9.75-20.61,19.49-30.92,29.24C145.91,209.98,146.76,210.82,147.32,210.29L147.32,210.29z"/>
		</g>
	</g>
	<g>
		<g>
			<path class="st6" d="M128.86,206.67c14.72-13.92,29.44-27.84,44.16-41.76c0.56-0.53-0.29-1.38-0.85-0.85
				c-14.72,13.92-29.44,27.84-44.16,41.76C127.45,206.35,128.3,207.2,128.86,206.67L128.86,206.67z"/>
		</g>
	</g>
	<g>
		<g>
			<path class="st6" d="M122.17,192.62c15.17-14.34,30.33-28.68,45.5-43.02c0.56-0.53-0.29-1.38-0.85-0.85
				c-15.17,14.34-30.33,28.68-45.5,43.02C120.76,192.3,121.61,193.15,122.17,192.62L122.17,192.62z"/>
		</g>
	</g>
	<g>
		<g>
			<path class="st6" d="M113.11,183.61c16.65-16,33.3-32,49.95-48c0.56-0.54-0.29-1.38-0.85-0.85c-16.65,16-33.3,32-49.95,48
				C111.71,183.3,112.56,184.15,113.11,183.61L113.11,183.61z"/>
		</g>
	</g>
	
		<rect x="241.64" y="41.9" transform="matrix(-0.9444 -0.3288 0.3288 -0.9444 420.9438 381.1565)" class="st8" width="2.13" height="226.18"/>
	<path class="st8" d="M204.43,263.9l2.1-1.77c0.5,0.18,0,0-0.39-1.23l-67.9-212.86l-2.09,0.68l68.04,215.18
		C204.22,264.01,204.38,264.02,204.43,263.9z"/>
</g>
</svg>
