<?xml version="1.0" encoding="utf-8"?>
<!-- Generator: Adobe Illustrator 25.0.0, SVG Export Plug-In . SVG Version: 6.00 Build 0)  -->
<svg version="1.1" id="Capa_1" xmlns="http://www.w3.org/2000/svg" xmlns:xlink="http://www.w3.org/1999/xlink" x="0px" y="0px"
	 viewBox="0 0 425.2 425.2" style="enable-background:new 0 0 425.2 425.2;" xml:space="preserve">
<style type="text/css">
	.st0{fill:#FFFFFF;}
	.st1{fill:#020203;}
	.st2{fill:#AD7A15;stroke:#231F20;stroke-width:3;stroke-miterlimit:10;}
	.st3{fill:#E30613;stroke:#231F20;stroke-width:0.25;stroke-miterlimit:10;}
	.st4{opacity:0.1294;}
</style>
<g>
	<g>
		<g>
			<polygon class="st0" points="138.94,93.81 138.94,310.63 308.88,307.06 310.86,90.74 			"/>
			<path class="st1" d="M138.94,312.32c-0.44,0-0.86-0.17-1.18-0.48c-0.32-0.32-0.5-0.75-0.5-1.2V93.81c0-0.92,0.73-1.67,1.65-1.68
				l171.91-3.07c0.46-0.03,0.89,0.17,1.21,0.49c0.32,0.32,0.5,0.76,0.5,1.21l-1.98,216.33c-0.01,0.91-0.74,1.65-1.65,1.67
				l-169.93,3.57C138.97,312.32,138.96,312.32,138.94,312.32z M140.63,95.46v213.45l166.58-3.5l1.95-212.97L140.63,95.46z"/>
		</g>
		<g>
			<path class="st2" d="M359.6,83.07c1.35-3.27,2.71-6.53,4.06-9.8c0.65-1.57,1.39-3.25,2.89-4.1c1.4-0.8,3.13-0.68,4.72-0.42
				c1.92,0.31,4.08,1.03,4.75,2.82c0.62,1.66-0.35,3.46-1.29,4.97c-2.2,3.5-4.49,6.96-6.85,10.36c-0.5,0.73-1.03,1.47-1.81,1.92
				c-0.64,0.37-1.39,0.5-2.13,0.5c-1.74,0-3.51-0.77-4.48-2.18C358.48,85.72,358.48,83.67,359.6,83.07z"/>
			<path class="st1" d="M363.94,91c0,0-0.01,0-0.01,0c-2.39,0-4.63-1.12-5.87-2.91c-0.88-1.28-1.21-2.93-0.88-4.31
				c0.18-0.73,0.54-1.34,1.04-1.79l3.88-9.36c0.62-1.49,1.55-3.74,3.61-4.91c1.9-1.08,4.11-0.9,5.83-0.62
				c3.25,0.53,5.28,1.84,6.05,3.89c0.97,2.6-0.66,5.2-1.45,6.45c-2.2,3.5-4.52,7.01-6.89,10.42c-0.52,0.75-1.22,1.77-2.35,2.42
				C366.08,90.76,365.08,91,363.94,91z M360.47,84.5c-0.1,0.24-0.09,1.02,0.36,1.68c0.6,0.88,1.82,1.45,3.1,1.45c0,0,0,0,0.01,0
				c0.53,0,0.98-0.09,1.28-0.27c0.44-0.25,0.82-0.77,1.27-1.42c2.34-3.37,4.63-6.84,6.8-10.3c0.8-1.27,1.49-2.56,1.14-3.48
				c-0.3-0.81-1.53-1.43-3.44-1.75c-1.17-0.19-2.64-0.34-3.62,0.22c-0.98,0.56-1.56,1.81-2.17,3.28l-4.06,9.8
				C361.01,84.04,360.78,84.32,360.47,84.5z M359.6,83.07h0.01H359.6z"/>
		</g>
		<g>
			<path class="st2" d="M174.79,73.28c-2.4,0.56-5.09,1.34-6.18,3.51c-0.54,1.07-0.58,2.31-0.61,3.51
				c-0.14,6.13-0.28,12.28,0.4,18.37c0.24,2.15,0.63,4.42,2.05,6.08c1.42,1.66,4.18,2.41,5.87,1.02c1.41-1.16,1.54-3.19,1.57-4.99
				c0.1-6.18,0.2-12.36,0.3-18.55C178.24,78.97,177.77,74.91,174.79,73.28z"/>
			<path class="st1" d="M174.18,108.19c-1.89,0-3.8-0.93-5-2.35c-1.68-1.98-2.17-4.53-2.44-6.98c-0.69-6.23-0.55-12.52-0.41-18.6
				c0.03-1.24,0.06-2.79,0.79-4.23c1.53-3.05,5.29-3.92,7.3-4.39c0.4-0.09,0.83-0.04,1.19,0.16c2.92,1.6,4.36,5.12,4.27,10.45
				l-0.29,18.55c-0.03,1.58-0.07,4.53-2.19,6.26C176.44,107.85,175.31,108.19,174.18,108.19z M174.48,75.08
				c-1.84,0.46-3.69,1.12-4.36,2.46c-0.38,0.76-0.4,1.79-0.43,2.79c-0.14,5.97-0.28,12.15,0.39,18.15c0.2,1.8,0.51,3.83,1.66,5.18
				c0.84,0.99,2.6,1.57,3.52,0.81c0.84-0.69,0.94-2.28,0.96-3.72l0.29-18.55C176.57,78.61,175.88,76.22,174.48,75.08z"/>
		</g>
		<g>
			<path class="st2" d="M227.89,73.28c-2.4,0.56-5.09,1.34-6.18,3.51c-0.54,1.07-0.58,2.31-0.61,3.51
				c-0.14,6.13-0.28,12.28,0.4,18.37c0.24,2.15,0.63,4.42,2.05,6.08c1.42,1.66,4.18,2.41,5.87,1.02c1.41-1.16,1.54-3.19,1.57-4.99
				c0.1-6.18,0.2-12.36,0.3-18.55C231.34,78.97,230.87,74.91,227.89,73.28z"/>
			<path class="st1" d="M227.28,108.19c-1.89,0-3.8-0.93-5.01-2.35c-1.68-1.98-2.17-4.53-2.44-6.98c-0.69-6.22-0.55-12.51-0.41-18.6
				c0.03-1.24,0.06-2.79,0.78-4.22c1.53-3.05,5.29-3.92,7.3-4.39c0.4-0.09,0.83-0.04,1.19,0.16c2.96,1.62,4.36,5.04,4.27,10.45
				l-0.3,18.55c-0.03,1.58-0.07,4.53-2.19,6.26C229.54,107.85,228.41,108.19,227.28,108.19z M227.58,75.08
				c-1.84,0.46-3.69,1.12-4.37,2.46c-0.38,0.75-0.4,1.79-0.42,2.79c-0.14,5.98-0.28,12.16,0.39,18.15c0.25,2.23,0.62,3.96,1.66,5.18
				c0.84,0.99,2.6,1.57,3.52,0.81c0.84-0.69,0.94-2.28,0.96-3.72l0.3-18.55C229.67,78.61,228.98,76.22,227.58,75.08z"/>
		</g>
		<g>
			<path class="st2" d="M280.99,73.28c-2.4,0.56-5.09,1.34-6.18,3.51c-0.54,1.07-0.58,2.31-0.61,3.51
				c-0.14,6.13-0.28,12.28,0.4,18.37c0.24,2.15,0.63,4.42,2.05,6.08c1.42,1.66,4.18,2.41,5.87,1.02c1.41-1.16,1.54-3.19,1.57-4.99
				c0.1-6.18,0.2-12.36,0.3-18.55C284.44,78.97,283.97,74.91,280.99,73.28z"/>
			<path class="st1" d="M280.38,108.19c-1.89,0-3.8-0.93-5.01-2.35c-1.68-1.98-2.17-4.53-2.44-6.98c-0.69-6.21-0.55-12.51-0.41-18.6
				c0.03-1.24,0.06-2.79,0.79-4.23c1.53-3.05,5.29-3.92,7.3-4.39c0.41-0.09,0.83-0.04,1.19,0.16c2.92,1.6,4.36,5.12,4.28,10.45
				l-0.3,18.55c-0.03,1.58-0.07,4.53-2.19,6.26C282.64,107.85,281.51,108.19,280.38,108.19z M280.68,75.08
				c-1.84,0.46-3.69,1.12-4.36,2.46c-0.38,0.76-0.4,1.79-0.43,2.79c-0.14,5.98-0.28,12.16,0.39,18.15c0.2,1.8,0.51,3.83,1.66,5.18
				c0.84,0.99,2.6,1.57,3.52,0.81c0.84-0.69,0.94-2.28,0.96-3.72l0.3-18.55C282.77,78.61,282.09,76.22,280.68,75.08z"/>
		</g>
		<g>
			<path class="st0" d="M319.45,153.29c-10.05,19.87-17.85,38.07-29.09,60.29c-1.01,2.97-2.3,5.86-2.92,8.93
				c-0.62,3.07-0.5,6.43,1.17,9.09c1.67,2.66,5.19,4.35,8.18,3.28c2.5-0.89,4.01-3.32,5.33-5.59
				c13.05-22.46,24.55-46.33,36.53-69.35L319.45,153.29z"/>
			<path class="st1" d="M294.87,236.89c-2.94,0-5.96-1.64-7.68-4.39c-2.18-3.47-1.96-7.53-1.4-10.32c0.46-2.29,1.27-4.45,2.04-6.55
				c0.32-0.86,0.64-1.72,0.94-2.59c0.03-0.07,0.06-0.15,0.09-0.22c5.77-11.4,10.64-21.78,15.36-31.81
				c4.55-9.67,8.84-18.8,13.73-28.48c0.38-0.75,1.26-1.11,2.05-0.83l19.2,6.65c0.46,0.16,0.83,0.51,1.01,0.97
				c0.18,0.45,0.16,0.96-0.07,1.4c-3.41,6.56-6.85,13.31-10.17,19.84c-8.38,16.47-17.04,33.49-26.4,49.59
				c-1.2,2.06-3.01,5.18-6.22,6.33C296.56,236.76,295.72,236.89,294.87,236.89z M291.91,214.24c-0.29,0.86-0.61,1.71-0.93,2.57
				c-0.77,2.06-1.49,4.01-1.9,6.04c-0.44,2.19-0.64,5.34,0.95,7.87c1.19,1.89,3.89,3.41,6.19,2.59c1.89-0.68,3.18-2.68,4.44-4.85
				c9.31-16.01,17.95-33,26.31-49.42c3.03-5.96,6.16-12.11,9.29-18.14l-15.97-5.53c-4.6,9.15-8.7,17.88-13.03,27.08
				C302.55,192.47,297.68,202.83,291.91,214.24z"/>
		</g>
		<g>
			<path class="st3" d="M339.09,165.25c-3.8-1.6-17.89-8.17-23.87-12.06c7.06-12,9.47-19.56,15.74-32.23
				c2.44-4.93,11.51-22.48,13.4-26.23c7.54-14.94,18.27-11.76,24.13-7.68c10.46,7.28-1.4,21.39-3.54,25.33
				C355.24,130.28,347.34,145.57,339.09,165.25z"/>
			<path class="st1" d="M339.09,166.93c-0.22,0-0.45-0.04-0.65-0.13c-3.7-1.56-17.98-8.2-24.13-12.2c-0.75-0.49-0.99-1.49-0.53-2.26
				c4.39-7.46,6.91-13.07,9.83-19.57c1.73-3.84,3.51-7.82,5.86-12.56c1.53-3.09,5.66-11.13,8.98-17.6c2-3.89,3.72-7.24,4.43-8.64
				c3.24-6.43,7.4-10.32,12.34-11.57c6.1-1.54,11.55,1.39,14.25,3.27c10.28,7.15,1.93,19.88-1.64,25.31
				c-0.59,0.91-1.11,1.69-1.39,2.2c-10.27,18.91-17.79,33.6-25.8,52.72c-0.17,0.41-0.5,0.74-0.92,0.91
				C339.53,166.89,339.31,166.93,339.09,166.93z M317.5,152.62c5.7,3.42,16.08,8.34,20.7,10.4c7.8-18.44,15.49-33.43,25.28-51.45
				c0.35-0.64,0.87-1.43,1.53-2.44c5.26-8.01,9.2-16.06,2.53-20.7c-2.23-1.55-6.7-3.98-11.51-2.77c-3.96,1-7.38,4.31-10.17,9.82
				c-0.71,1.41-2.43,4.76-4.44,8.66c-3.32,6.45-7.44,14.49-8.96,17.55c-2.32,4.68-4.09,8.63-5.8,12.44
				C324.02,140.06,321.5,145.67,317.5,152.62z"/>
		</g>
		<g>
			<path class="st1" d="M352.84,161.62c-1.22,0-2.41-0.34-3.38-1c-2.72-1.86-3.87-5.72-2.78-9.39c0.9-3.06,2.98-5.49,4.81-7.63
				l17.08-19.99c3.4-3.98,6.92-8.1,9.22-12.78c2.48-5.04,3.13-10.15,1.83-14.4c-1.47-4.78-5.76-8.39-10.22-8.57
				c-0.93-0.04-1.65-0.82-1.61-1.75c0.04-0.93,0.78-1.68,1.75-1.61c5.92,0.24,11.39,4.75,13.29,10.95
				c1.55,5.07,0.83,11.06-2.03,16.87c-2.49,5.05-6.15,9.34-9.68,13.48l-17.08,19.99c-1.69,1.98-3.44,4.03-4.14,6.4
				c-0.57,1.93-0.26,4.49,1.45,5.66c0.74,0.5,1.92,0.55,2.88,0.11c0.38-0.18,1.04-0.58,1.12-1.3c0.1-0.92,0.93-1.59,1.85-1.49
				c0.92,0.1,1.59,0.93,1.49,1.85c-0.18,1.73-1.29,3.19-3.05,4C354.76,161.42,353.79,161.62,352.84,161.62z"/>
		</g>
		<g>
			<path class="st1" d="M286.71,246.28c-0.24,0-0.48-0.05-0.71-0.16c-0.84-0.39-1.21-1.39-0.82-2.23l4.64-10.01
				c0.39-0.84,1.39-1.21,2.23-0.82c0.84,0.39,1.21,1.39,0.82,2.23l-4.64,10.01C287.95,245.92,287.34,246.28,286.71,246.28z"/>
		</g>
		<g>
			<path class="st1" d="M279.24,139.6c-0.02,0-0.03,0-0.05,0c-36.05-1.07-72.58-1.17-108.59-0.32c-0.88,0.03-1.7-0.71-1.72-1.64
				c-0.02-0.93,0.71-1.7,1.64-1.72c36.08-0.86,72.67-0.75,108.77,0.32c0.93,0.03,1.66,0.8,1.63,1.73
				C280.9,138.88,280.15,139.6,279.24,139.6z"/>
		</g>
		<g>
			<path class="st1" d="M232.48,174.99c-21.17,0-42.36-0.52-63.38-1.55c-0.93-0.05-1.64-0.83-1.6-1.76c0.05-0.93,0.79-1.62,1.76-1.6
				c35.09,1.73,70.68,2.01,105.8,0.84c0.02,0,0.04,0,0.06,0c0.9,0,1.65,0.72,1.68,1.63c0.03,0.93-0.7,1.71-1.62,1.74
				C261,174.76,246.74,174.99,232.48,174.99z"/>
		</g>
		<g>
			<path class="st1" d="M231.04,210.36c-21.16,0-42.35-0.37-63.37-1.1c-0.93-0.03-1.66-0.81-1.62-1.74
				c0.03-0.93,0.83-1.66,1.74-1.62c34.24,1.19,68.96,1.41,103.2,0.66c0.92-0.02,1.7,0.72,1.72,1.64c0.02,0.93-0.72,1.7-1.64,1.72
				C257.78,210.22,244.42,210.36,231.04,210.36z"/>
		</g>
		<g>
			<path class="st1" d="M202.2,243.18c-11.99,0-23.96-0.19-35.87-0.59c-0.93-0.03-1.66-0.81-1.63-1.74
				c0.03-0.93,0.82-1.65,1.74-1.63c28.29,0.93,56.96,0.75,85.22-0.53c0.92-0.06,1.71,0.68,1.76,1.6c0.04,0.93-0.68,1.71-1.6,1.76
				C235.36,242.81,218.77,243.18,202.2,243.18z"/>
		</g>
		<g>
			<path class="st1" d="M165.14,273.48c-0.93,0-1.68-0.75-1.68-1.67c0-0.93,0.74-1.69,1.67-1.69l108.47-0.55c0,0,0.01,0,0.01,0
				c0.93,0,1.68,0.75,1.68,1.67c0,0.93-0.74,1.69-1.67,1.69L165.14,273.48C165.15,273.48,165.14,273.48,165.14,273.48z"/>
		</g>
		<g class="st4">
			<path class="st1" d="M331.28,161.33c-2.27-1.2-4.41-2.63-6.84-3.51c-0.07-0.03-0.15-0.06-0.22-0.09
				c-0.05-0.02-0.08-0.04-0.14-0.06c-1.37-0.6-2.73-1.21-4.1-1.8c-0.75-0.44-1.68-0.56-2.52-0.33c-2.72,0.65-3.24,4.64-0.78,5.98
				c1.97,0.92,4.05,1.64,5.9,2.8c2.77,2.04,5.68,3.84,8.92,5.05c-0.29-0.12-0.58-0.24-0.87-0.37c2.5,1.46,5.8,0.98,6.28-2.26
				C337.49,163.39,333.59,162.5,331.28,161.33z"/>
		</g>
		<g class="st4">
			<path class="st1" d="M372.28,91.92c-1.05-2.81-5.45-1.91-5.38,1.08c0.17,5.23-4.59,11.81-8.53,19.09
				c-3.49,6.3-6.74,12.72-9.9,19.2c-2.84,5.69-5.93,11.25-8.55,17.05c-1.24,2.95-2.78,5.76-4.1,8.66c-0.81,2-2.17,4.75,0.1,6.31
				c1.22,1.06,3.17,0.86,4.3-0.26c1.26-1.67,1.67-3.85,2.43-5.8c0.03-0.04,0.11-0.21,0.27-0.54c2.33-4.79,4.53-9.65,7-14.37
				c6.76-14.11,15.52-27.27,21.13-41.92c0.72-1.8,1.18-3.68,1.38-5.6C372.47,93.86,372.72,92.8,372.28,91.92z"/>
		</g>
		<g class="st4">
			<path class="st1" d="M311.39,145.78c0.54-12.13-0.93-24.21-1.09-36.33c-0.1-4.55-0.57-9.08-0.88-13.62
				c-0.17-1.61,0.05-3.45-1.24-4.65c-2.18-2.32-6.44-0.58-6.33,2.62c0.92,10.33,1.24,20.69,1.6,31.05
				c0.88,14.84,0.57,29.72,0.31,44.56c0.05,1.29-0.35,2.71,0.23,3.92c0.56,1.63,2.47,2.43,4.08,2c2.78-0.73,2.58-3.68,2.68-5.98
				c0.07-2.61,0.61-5.19,0.67-7.8C311.44,156.3,311.25,151.04,311.39,145.78z"/>
		</g>
		<g class="st4">
			<path class="st1" d="M309.19,263.48c-0.09-8.16,0.09-16.3,0.49-24.45c0.2-3.44-0.28-6.9,0.09-10.34c0.28-1.74,1.14-3.45,0.95-5.2
				c-0.39-3.94-6.23-4.34-7.24-0.49c-0.55,1.75-0.94,3.52-1.23,5.31c-0.92,1.07-1.49,2.37-2.32,3.5c-0.27,0.33-0.67,0.8-0.95,1.08
				c-0.05,0.05-0.1,0.08-0.15,0.13c-0.19-0.02-0.39-0.04-0.59-0.03c-3.96-0.08-7.28,2.76-5.35,6.8c1.75,2.74,5.48,2.87,8.31,1.75
				c-0.23,5.16-0.19,10.33-0.03,15.49c0.01,3.95-0.23,7.89-0.12,11.84c0.03,6.29,1.1,12.49,1.52,18.75
				c0.19,6.45-0.34,7.8-0.74,13.72c-0.12,1.12-0.71,2.22-0.5,3.35c0.14,2.27,3.01,3.6,4.91,2.41c0.57-0.38,1.05-0.87,1.33-1.49
				c0.13-0.28,0.28-0.61,0.38-0.83c-0.04,0.1-0.09,0.22-0.16,0.38c1.01-2,1.27-4.22,1.59-6.41c0.72-2.18,0.61-10.03,0.61-15.37
				C309.88,276.74,309.32,270.12,309.19,263.48z"/>
		</g>
		<g class="st4">
			<path class="st1" d="M176.46,101.87c-1.19-2.02-0.56-0.96-1.51-3.95c-0.11-0.45-0.31-0.84-0.61-1.17
				c-2.17-3.01-7.02-0.55-6.01,2.99c0.37,1.45,0.71,2.92,1.25,4.32c0.38,0.9,0.69,1.93,1.57,2.47
				C174.16,109.02,178.45,105.21,176.46,101.87z"/>
		</g>
		<g class="st4">
			<path class="st1" d="M228.96,97.99c-0.69-1.07-1.07-2.45-2.14-3.2c-2.94-2.42-7.11,1.29-5.17,4.54c1.01,1.45,1.53,3.35,2.91,4.49
				c2.11,1.85,5.65,0.03,5.58-2.73C230.16,99.93,229.47,98.97,228.96,97.99z"/>
		</g>
		<g class="st4">
			<path class="st1" d="M282.48,99.24c-0.59-1.74-0.44-3.85-1.54-5.36c-2.16-2.99-6.98-0.55-5.97,2.98c0.74,2.36,0.54,5.57,2.8,7.08
				C280.98,105.61,283.74,102.42,282.48,99.24z"/>
		</g>
	</g>
	<g>
		<g>
			<path class="st0" d="M102.05,264.17c-18.66,14.13-32.12,34.05-48.62,50.7c-3.83,3.86-8.45,7.8-13.85,7.57
				c-4.76-0.2-9.11-4.15-9.83-8.92c-0.58-3.84,0.99-7.75,3.38-10.79c2.39-3.04,5.53-5.35,8.61-7.66
				c17.68-13.23,34.65-27.43,50.82-42.51C95.83,256.33,99.1,260.11,102.05,264.17z"/>
			<path class="st1" d="M39.53,323.78c-5.4-0.23-10.28-4.65-11.1-10.06c-0.58-3.82,0.75-8.13,3.65-11.82
				c2.43-3.09,5.57-5.44,8.61-7.71l0.25-0.19c17.58-13.15,34.64-27.42,50.71-42.42c0.27-0.25,0.63-0.36,0.99-0.35
				c0.36,0.02,0.71,0.19,0.95,0.47c3.22,3.73,6.56,7.58,9.54,11.68c0.43,0.59,0.31,1.41-0.27,1.85
				c-11.73,8.88-21.61,20.33-31.15,31.4c-5.54,6.42-11.27,13.06-17.33,19.18c-3.93,3.96-8.69,7.98-14.34,7.98
				C39.87,323.79,39.7,323.78,39.53,323.78z M92.46,254.48c-15.85,14.72-32.64,28.73-49.92,41.66l-0.25,0.19
				c-2.9,2.17-5.9,4.41-8.11,7.22c-2.45,3.11-3.58,6.67-3.11,9.77c0.62,4.12,4.47,7.61,8.57,7.78c4.83,0.23,9.21-3.51,12.84-7.18
				c5.99-6.05,11.69-12.65,17.2-19.04c9.36-10.85,19.02-22.05,30.52-30.98C97.76,260.65,95.09,257.53,92.46,254.48z"/>
		</g>
		<g>
			<path class="st2" d="M111.82,262.66c-0.49,3.09-2.3,5.94-4.88,7.71c-0.88,0.6-1.9,1.09-2.96,1.05c-1.05-0.04-2-0.58-2.87-1.16
				c-5.6-3.69-9.74-9.18-13.76-14.55c-1.15-1.54-2.33-3.14-2.76-5.01c-0.33-1.44-0.19-2.96,0.26-4.37c1.22-3.9,5.46-7.04,9.38-5.87
				c2.06,0.62,3.65,2.24,5.1,3.83c3.95,4.34,7.62,8.94,10.97,13.76C111.51,259.82,112.75,261.85,111.82,262.66z"/>
			<path class="st1" d="M103.92,272.75c-1.37-0.05-2.52-0.69-3.56-1.38c-5.86-3.86-10.24-9.71-14.09-14.87
				c-1.17-1.56-2.49-3.33-2.99-5.52c-0.36-1.57-0.26-3.33,0.28-5.06c1.36-4.35,6.23-8.19,11.04-6.75c2.37,0.71,4.12,2.47,5.7,4.21
				c3.98,4.37,7.71,9.04,11.08,13.9c1.05,1.51,2.94,4.23,1.68,5.97c-0.64,3.28-2.63,6.32-5.38,8.21c-1.27,0.87-2.44,1.29-3.59,1.29
				C104.04,272.76,103.98,272.76,103.92,272.75z M109.19,258.82c-3.31-4.76-6.97-9.34-10.86-13.63c-1.39-1.52-2.78-2.94-4.49-3.45
				c-3.22-0.96-6.73,1.84-7.72,4.99c-0.4,1.29-0.48,2.55-0.23,3.67c0.37,1.63,1.47,3.1,2.53,4.51c3.91,5.22,7.95,10.63,13.42,14.23
				c0.72,0.47,1.48,0.91,2.19,0.94c0.58,0.03,1.32-0.24,2.16-0.82c2.27-1.55,3.88-4.1,4.32-6.82c0.04-0.25,0.15-0.48,0.31-0.66
				C110.78,261.5,110.52,260.73,109.19,258.82z"/>
		</g>
		<g>
			<g>
				<path class="st3" d="M79.93,205.43c0.3,15.25,5.85,30.17,14.55,42.71c11.04,15.9,28.04,28.47,47.28,30.6
					c27.54,3.05,48.47-8.42,58.65-21.85c15.51-20.45,19.13-49.3,9.18-72.95c-9.96-23.66-32.96-43.05-58.59-44.42
					C88.02,136.14,79.63,190.18,79.93,205.43z M93.92,194.47c2.22-11.74,8.72-22.62,18-30.15c9.28-7.52,28.2-16.16,53.53-8.02
					c20.9,6.72,30.71,28.39,34.19,39.14c2.09,6.47,3.26,25.14-5.27,44.43c-11.28,25.54-48.05,37.57-76.79,16.85
					C99.07,243.39,89.68,216.88,93.92,194.47z"/>
				<path class="st1" d="M141.61,280.07c-18.3-2.03-35.88-13.39-48.23-31.17c-9.38-13.51-14.49-28.53-14.79-43.44
					c-0.22-11.32,3.78-34.7,20.2-50.58c12.68-12.26,30.27-17.87,52.28-16.69l0,0c24.91,1.34,48.92,19.52,59.75,45.24
					c10.19,24.2,6.52,53.35-9.34,74.28c-8.75,11.54-26.33,22.88-50.76,22.88C147.78,280.58,144.74,280.42,141.61,280.07z
					 M100.65,156.8c-15.76,15.24-19.6,37.72-19.39,48.61c0.28,14.18,5.36,29.08,14.31,41.97c11.91,17.15,28.79,28.1,46.33,30.04
					c28.08,3.11,48.08-8.98,57.44-21.33c15.3-20.18,18.83-48.29,9.01-71.63c-10.44-24.8-33.52-42.32-57.43-43.61l0,0
					C129.69,139.72,112.78,145.08,100.65,156.8z M116.8,257.81L116.8,257.81c-18.47-13.31-28.64-40.06-24.19-63.59
					c2.26-11.98,9-23.26,18.47-30.94c5.36-4.34,25.15-17.78,54.78-8.25c22.28,7.16,31.94,30.36,35.05,40
					c2.41,7.44,3.1,26.34-5.31,45.38c-5.55,12.55-17.47,22.39-31.9,26.31c-4.63,1.26-9.35,1.87-14.07,1.87
					C138.1,268.6,126.63,264.9,116.8,257.81z M112.76,165.36c-8.99,7.29-15.38,17.99-17.53,29.36
					c-4.27,22.57,5.46,48.19,23.13,60.93c13.21,9.52,29.47,12.62,44.63,8.5c13.66-3.71,24.94-12.98,30.16-24.81
					c8.41-19.04,7.15-37.52,5.22-43.48c-2.99-9.25-12.23-31.49-33.33-38.28c-7.17-2.31-13.73-3.21-19.61-3.21
					C128.04,154.37,116.57,162.28,112.76,165.36z M117.57,256.73L117.57,256.73L117.57,256.73z"/>
			</g>
		</g>
		<g>
			<path class="st1" d="M87.95,271.99c0.03,0,0.05,0,0.07-0.01c0.24-0.04,0.41-0.27,0.37-0.51L87,263.25
				c-0.04-0.24-0.28-0.4-0.51-0.37c-0.24,0.04-0.41,0.27-0.37,0.51l1.38,8.22C87.54,271.83,87.73,271.99,87.95,271.99z"/>
		</g>
		<g>
			<path class="st1" d="M82.23,279.25c0.01,0,0.01,0,0.02,0c0.25-0.01,0.44-0.22,0.42-0.47c-0.18-3.82-0.47-7.7-0.84-11.52
				c-0.02-0.25-0.26-0.41-0.49-0.4c-0.25,0.02-0.42,0.24-0.4,0.49c0.37,3.81,0.65,7.68,0.84,11.48
				C81.8,279.06,82,279.25,82.23,279.25z"/>
		</g>
		<g>
			<path class="st1" d="M75.88,286.82c0.24,0,0.44-0.19,0.45-0.43c0.14-4.44-0.1-8.93-0.72-13.34c-0.03-0.24-0.27-0.41-0.5-0.38
				c-0.24,0.03-0.41,0.26-0.38,0.5c0.61,4.36,0.85,8.79,0.71,13.18c-0.01,0.25,0.19,0.45,0.43,0.46
				C75.87,286.82,75.88,286.82,75.88,286.82z"/>
		</g>
		<g>
			<path class="st1" d="M69.24,293.42c0.25,0,0.44-0.2,0.45-0.44c0.01-4.74-0.18-9.53-0.58-14.26c-0.02-0.25-0.24-0.42-0.48-0.41
				c-0.24,0.02-0.43,0.24-0.41,0.48c0.39,4.7,0.59,9.47,0.58,14.18C68.79,293.22,68.99,293.42,69.24,293.42L69.24,293.42z"/>
		</g>
		<g>
			<path class="st1" d="M61.93,302.7c0.24,0,0.44-0.2,0.45-0.44l0.15-18.09c0-0.25-0.2-0.45-0.44-0.45c0,0,0,0,0,0
				c-0.24,0-0.44,0.2-0.45,0.44l-0.15,18.09C61.48,302.49,61.68,302.7,61.93,302.7C61.93,302.7,61.93,302.7,61.93,302.7z"/>
		</g>
		<g>
			<path class="st1" d="M53.75,309.54c0.24,0,0.44-0.19,0.45-0.44l0.37-16.94c0.01-0.25-0.19-0.45-0.44-0.46
				c-0.23,0.01-0.45,0.19-0.46,0.44l-0.37,16.94C53.3,309.33,53.5,309.54,53.75,309.54C53.75,309.54,53.75,309.54,53.75,309.54z"/>
		</g>
		<g>
			<path class="st1" d="M44.88,317.54c0.24,0,0.43-0.18,0.44-0.42l0.99-18.54c0.01-0.25-0.17-0.46-0.42-0.47
				c-0.25-0.02-0.46,0.18-0.47,0.42l-0.99,18.54c-0.01,0.25,0.17,0.46,0.42,0.47C44.86,317.54,44.87,317.54,44.88,317.54z"/>
		</g>
		<g>
			<path class="st1" d="M37.62,315.51c0.24,0,0.44-0.19,0.45-0.43l0.23-9.36c0.01-0.25-0.19-0.45-0.43-0.46c0,0-0.01,0-0.01,0
				c-0.24,0-0.44,0.19-0.45,0.43l-0.23,9.36c-0.01,0.25,0.19,0.45,0.43,0.46C37.61,315.51,37.62,315.51,37.62,315.51z"/>
		</g>
		<g class="st4">
			<path class="st1" d="M135.81,259.25c0.05-0.01,0.11-0.01,0.16-0.02c0.01,0,0.02,0,0.03-0.01c1.11-1.57,3-1.48,4.73-1.02
				c0.72,0.06,0.79,0.14,1.55,0.21c1.87-0.29,4.71-0.69,6.79-0.92c0.92-0.16,6.63-0.65,11.58-2.65c0.17-0.06,0.34-0.13,0.51-0.2
				c0.01,0,0.01-0.01,0.02-0.01c2.23-1.03,4.36-2.27,6.42-3.61c2.73-1.72,9.37-7.56,10.9-10.32c3.31-4.96,4.58-8.24,6.25-12.26
				c1.91-4.52,3.79-9.12,4.57-14c0.05-0.3,0.11-0.68,0.14-0.92c1.09-9,1.5-12.05,2.19-19.86c0.06-1.42,0.15-2.84,0.22-4.27
				c0-0.74,0.3-1.46,0.82-1.98c1.63-1.74,4.84-0.45,4.78,1.95c0.14,0.27,0.23,0.57,0.22,0.92c0.1,0.93,0.2,1.86,0.3,2.79
				c1.19,0.35,2.21,1.42,2.4,2.94c0.47,2.09,0.76,4.22,1,6.34c0.12,1.38,0.24,3.19-0.37,4.5c-0.01,0.2-0.04,0.41-0.1,0.63
				c-0.45,3.15-1.16,6.24-1.96,9.31c-0.09,1.56-0.21,3.11-0.39,4.66c-0.38,2.74-0.67,7.13-2.47,12.13
				c-1.41,3.83-2.81,7.72-4.96,11.22c-1.89,2.88-4.09,5.65-6.67,7.98c-0.21,0.53-0.59,1-1.15,1.31c-0.47,0.23-0.93,0.48-1.38,0.73
				c-0.78,0.56-1.58,1.1-2.42,1.57c-0.19,0.11-0.39,0.21-0.59,0.31c-5.03,3.41-9.61,7.65-15.56,9.3
				c-5.12,1.31-10.45,0.88-15.67,0.67c-0.58-0.07-1.13-0.09-1.65-0.11c-0.15,0.03-0.28,0.05-0.36,0.06
				c0.07-0.01,0.17-0.02,0.33-0.04c-2.82,0.54-5.76,0.35-8.56-0.22c-2.08-0.58-2.62-0.87-3.07-1.14
				C131.58,263.48,132.66,259.69,135.81,259.25z"/>
		</g>
		<g class="st4">
			<path class="st1" d="M87.29,258.26c1.62,0.45,2.29,2.21,3.57,3.17c0.84,0.76,1.66,1.56,2.49,2.33c0.75,0.82,1.85,1.44,2.23,2.53
				c1.5,3.26-2.89,6.18-5.38,3.63c-2.58-2.34-5.43-5.37-6.04-6.4c-0.03-0.03-0.05-0.07-0.08-0.1
				C82.02,261.13,84.25,257.43,87.29,258.26z"/>
		</g>
	</g>
</g>
</svg>
