<?xml version="1.0" encoding="utf-8"?>
<!-- Generator: Adobe Illustrator 25.0.0, SVG Export Plug-In . SVG Version: 6.00 Build 0)  -->
<svg version="1.1" id="Capa_1" xmlns="http://www.w3.org/2000/svg" xmlns:xlink="http://www.w3.org/1999/xlink" x="0px" y="0px"
	 viewBox="0 0 425.2 425.2" style="enable-background:new 0 0 425.2 425.2;" xml:space="preserve">
<style type="text/css">
	.st0{fill:#E20E17;}
	.st1{fill:#FFFFFF;}
	.st2{fill:#020203;}
	.st3{fill:#AD7B16;}
	.st4{opacity:0.1294;}
	.st5{fill:#010202;}
	.st6{fill:none;}
	.st7{font-family:'UniversLightCondensed-Regular';}
	.st8{font-size:39.912px;}
</style>
<g>
	<g>
		<g>
			<path class="st0" d="M70.42,282.84v-1c0-9.32-0.01-18.54-0.02-27.75c-0.02-18.1-0.04-36.82,0.02-55.98l0-1.04l1.04,0.05
				c1.49,0.07,3.03,0.1,4.68,0.1c4.3,0,8.68-0.22,12.91-0.44c4.24-0.22,8.62-0.44,12.93-0.44h1l0,1c0.06,18.6,0.04,36.2,0.02,54.83
				c-0.01,9.57-0.02,19.35-0.02,29.59v1h-1c-5.08,0-10.15,0.02-15.24,0.05c-5.1,0.02-10.21,0.05-15.33,0.05H70.42z"/>
			<path class="st1" d="M101.98,197.33c0.08,28.21,0,54.37,0,84.41c-10.17,0-20.35,0.1-30.57,0.1c0-27.95-0.1-54.99,0-83.74
				c1.58,0.07,3.15,0.1,4.73,0.1C84.78,198.2,93.4,197.33,101.98,197.33 M103.98,195.33h-1.99c-4.33,0-8.73,0.22-12.98,0.44
				c-4.22,0.21-8.59,0.44-12.86,0.44c-1.64,0-3.16-0.03-4.64-0.1l-2.08-0.09l-0.01,2.08c-0.07,19.16-0.04,37.88-0.02,55.99
				c0.01,9.21,0.02,18.43,0.02,27.75v2h2c5.12,0,10.31-0.03,15.33-0.05c5-0.02,10.16-0.05,15.24-0.05h2v-2
				c0-10.23,0.01-20.01,0.02-29.57c0.02-18.64,0.04-36.24-0.02-54.85L103.98,195.33L103.98,195.33z"/>
		</g>
		<path class="st2" d="M71.42,283.4c-0.86,0-1.56-0.7-1.56-1.56c0-9.32-0.01-18.54-0.02-27.75c-0.02-18.1-0.04-36.82,0.02-55.99
			c0-0.42,0.18-0.83,0.48-1.12c0.31-0.29,0.73-0.44,1.14-0.43c5.83,0.26,11.79-0.05,17.54-0.34c4.24-0.22,8.63-0.44,12.96-0.44
			c0.86,0,1.56,0.7,1.56,1.55c0.06,18.6,0.04,36.2,0.02,54.83c-0.01,9.57-0.02,19.35-0.02,29.59c0,0.86-0.7,1.56-1.56,1.56
			c-5.07,0-10.15,0.03-15.24,0.05C81.64,283.37,76.53,283.4,71.42,283.4z M72.97,199.72c-0.06,18.6-0.04,36.77-0.02,54.36
			c0.01,8.7,0.02,17.41,0.02,26.2c4.59,0,9.18-0.03,13.76-0.05c4.57-0.02,9.13-0.04,13.7-0.05c0-9.67,0.01-18.95,0.02-28.04
			c0.02-18.1,0.04-35.23-0.02-53.25c-3.75,0.04-7.55,0.24-11.24,0.43C83.88,199.59,78.42,199.86,72.97,199.72z"/>
	</g>
	<g>
		<path class="st1" d="M163.28,281.65c0-55.79,0.08-104.38,0-156.75c-10.15,0-20.35,2.27-30.57,1.45c-0.1,53.38,0,103.59,0,155.49
			C142.93,281.84,153.12,281.65,163.28,281.65z"/>
		<path class="st2" d="M132.71,283.4c-0.86,0-1.56-0.7-1.56-1.56c0-17.31-0.01-34.43-0.02-51.54c-0.02-33.62-0.04-68.38,0.02-103.96
			c0-0.43,0.18-0.85,0.5-1.14c0.32-0.29,0.75-0.44,1.18-0.41c5.77,0.47,11.69-0.09,17.42-0.63c4.26-0.4,8.67-0.82,13.03-0.82
			c0.86,0,1.56,0.7,1.56,1.56c0.06,34.53,0.04,67.21,0.02,101.81c-0.01,17.77-0.02,35.94-0.02,54.95c0,0.86-0.7,1.56-1.56,1.56
			c-5.07,0-10.24,0.05-15.23,0.09C143.03,283.35,137.84,283.4,132.71,283.4z M134.27,128.01c-0.06,35-0.04,69.2-0.02,102.29
			c0.01,16.6,0.02,33.2,0.02,49.98c4.6-0.01,9.24-0.05,13.75-0.09c4.49-0.04,9.12-0.08,13.7-0.09c0-18.44,0.01-36.11,0.02-53.39
			c0.02-34.07,0.04-66.28-0.02-100.23c-3.72,0.08-7.5,0.44-11.18,0.79C145.24,127.76,139.76,128.28,134.27,128.01z"/>
	</g>
	<g>
		<path class="st3" d="M232.65,281.78c0-16.32,0.08-30.53,0-45.86c-10.15,0-20.35,0.67-30.57,0.42c-0.1,15.62,0,30.3,0,45.49
			C212.3,281.84,222.49,281.78,232.65,281.78z"/>
		<path class="st2" d="M202.09,283.4c-0.86,0-1.56-0.7-1.56-1.56c0-5.06-0.01-10.07-0.02-15.07c-0.02-9.84-0.04-20.01,0.02-30.42
			c0-0.42,0.17-0.82,0.47-1.11c0.3-0.29,0.72-0.42,1.12-0.44c5.87,0.14,11.84-0.03,17.61-0.18c4.24-0.12,8.62-0.24,12.92-0.24
			c0.86,0,1.55,0.69,1.56,1.55c0.06,10.11,0.04,19.67,0.02,29.79c-0.01,5.2-0.02,10.51-0.02,16.07c0,0.86-0.7,1.56-1.56,1.56
			c-5.08,0-10.16,0.01-15.24,0.03C212.31,283.38,207.2,283.4,202.09,283.4z M203.63,237.94c-0.05,9.85-0.03,19.49-0.01,28.82
			c0.01,4.49,0.02,8.99,0.02,13.52c4.59,0,9.18-0.02,13.76-0.03c4.57-0.01,9.13-0.02,13.69-0.03c0-5,0.01-9.81,0.02-14.52
			c0.02-9.6,0.04-18.69-0.01-28.22c-3.77,0.02-7.58,0.13-11.29,0.23C214.52,237.87,209.07,238.02,203.63,237.94z"/>
	</g>
	<g>
		<g>
			<g>
				<path class="st0" d="M354.28,258.34c-4.41,0-8.31-2.58-11.86-5.36c-6.31-4.94-12.18-10.71-17.86-16.3l-33.27-32.73l0.53-0.7
					c4.08-5.4,7.58-10.52,10.96-15.47l0.63-0.93l0.86,0.72c18.76,16.26,37.03,33.74,54.31,51.96c2.47,2.61,5.12,5.73,5.14,9.69
					c0.02,2.27-0.91,4.46-2.61,6.18C359.29,257.24,356.74,258.34,354.28,258.34L354.28,258.34z"/>
				<path class="st1" d="M303.62,188.33c18.81,16.3,36.91,33.62,54.24,51.9c2.34,2.47,4.84,5.38,4.87,9.01
					c0.03,4.64-4.33,8.11-8.44,8.11c0,0,0,0,0,0c-4.11,0-7.87-2.5-11.24-5.15c-6.26-4.9-12.02-10.57-17.77-16.23
					c-10.88-10.7-21.76-21.41-32.64-32.11C296.73,198.43,300.17,193.38,303.62,188.33 M303.23,185.35l-1.27,1.85
					c-3.38,4.95-6.87,10.06-10.94,15.44l-1.06,1.4l1.25,1.23l32.64,32.11c5.69,5.6,11.58,11.39,17.94,16.37
					c3.69,2.89,7.76,5.57,12.48,5.57c2.71,0,5.53-1.21,7.54-3.23c1.89-1.9,2.92-4.35,2.9-6.89c-0.03-4.33-2.81-7.62-5.42-10.37
					c-17.3-18.25-35.6-35.75-54.38-52.03L303.23,185.35L303.23,185.35z"/>
			</g>
			<path class="st2" d="M354.29,258.9C354.29,258.9,354.29,258.9,354.29,258.9c-4.59,0-8.58-2.63-12.21-5.48
				c-6.34-4.96-12.22-10.75-17.9-16.34l-32.64-32.11c-0.56-0.55-0.62-1.43-0.15-2.05c4.07-5.38,7.56-10.49,10.93-15.43
				c0.25-0.37,0.65-0.62,1.1-0.68c0.44-0.06,0.89,0.06,1.23,0.35c18.77,16.27,37.06,33.76,54.35,52c2.55,2.69,5.27,5.9,5.3,10.07
				c0.02,2.42-0.97,4.76-2.78,6.57C359.58,257.74,356.88,258.9,354.29,258.9z M294.69,203.7l31.67,31.16
				c5.62,5.53,11.44,11.25,17.64,16.11c3.19,2.5,6.65,4.81,10.29,4.82c0,0,0,0,0,0c1.78,0,3.65-0.81,5.01-2.18
				c1.22-1.22,1.88-2.77,1.87-4.36c-0.02-3.03-2.21-5.59-4.44-7.94c-16.82-17.74-34.58-34.77-52.81-50.64
				C301.05,194.86,298.07,199.18,294.69,203.7z"/>
		</g>
		<g>
			<g>
				<circle class="st3" cx="250.16" cy="153.33" r="67.86"/>
				
					<ellipse transform="matrix(0.2325 -0.9726 0.9726 0.2325 42.8627 360.9842)" class="st1" cx="250.16" cy="153.33" rx="51.54" ry="51.54"/>
				
					<ellipse transform="matrix(0.2325 -0.9726 0.9726 0.2325 42.8627 360.9842)" class="st1" cx="250.16" cy="153.33" rx="51.54" ry="51.54"/>
				<path class="st2" d="M250.16,222.75c-38.28,0-69.42-31.14-69.42-69.42s31.14-69.42,69.42-69.42s69.42,31.14,69.42,69.42
					S288.44,222.75,250.16,222.75z M250.16,87.03c-36.56,0-66.3,29.74-66.3,66.3s29.74,66.3,66.3,66.3c36.56,0,66.3-29.74,66.3-66.3
					S286.72,87.03,250.16,87.03z M250.16,206.43c-29.28,0-53.1-23.82-53.1-53.1c0-29.28,23.82-53.1,53.1-53.1
					c29.28,0,53.1,23.82,53.1,53.1C303.26,182.61,279.44,206.43,250.16,206.43z M200.18,153.33c0,27.56,22.42,49.98,49.98,49.98
					c27.56,0,49.98-22.42,49.98-49.98s-22.42-49.98-49.98-49.98C222.6,103.35,200.18,125.77,200.18,153.33z"/>
			</g>
		</g>
		<g>
			<path class="st1" d="M218.36,152.63c0-2.94,2.38-5.32,5.32-5.32c2.94,0,5.32,2.38,5.32,5.32c0,2.94-2.38,5.32-5.32,5.32
				C220.75,157.96,218.36,155.57,218.36,152.63z"/>
		</g>
		<g>
			<path class="st1" d="M244.15,152.63c0-2.94,2.38-5.32,5.32-5.32c2.94,0,5.32,2.38,5.32,5.32c0,2.94-2.38,5.32-5.32,5.32
				C246.53,157.96,244.15,155.57,244.15,152.63z"/>
		</g>
		<g>
			<path class="st1" d="M269.93,152.63c0-2.94,2.38-5.32,5.32-5.32c2.94,0,5.32,2.38,5.32,5.32c0,2.94-2.38,5.32-5.32,5.32
				C272.31,157.96,269.93,155.57,269.93,152.63z"/>
		</g>
		<g>
			<path class="st2" d="M301.38,205.8c-0.05,0-0.1-0.01-0.14-0.02c-0.28-0.08-0.44-0.37-0.36-0.64l1.2-4.18
				c0.08-0.28,0.36-0.44,0.64-0.36c0.28,0.08,0.44,0.37,0.36,0.64l-1.2,4.18C301.81,205.65,301.6,205.8,301.38,205.8z"/>
		</g>
		<g>
			<path class="st2" d="M307.09,213.11c-0.02,0-0.05,0-0.07,0c-0.29-0.04-0.48-0.3-0.45-0.58c0.64-4.9,1.41-9.83,2.29-14.66
				c0.05-0.28,0.33-0.46,0.6-0.42c0.28,0.05,0.47,0.32,0.42,0.6c-0.88,4.82-1.64,9.73-2.28,14.61
				C307.57,212.92,307.34,213.11,307.09,213.11z"/>
		</g>
		<g>
			<path class="st2" d="M314.5,220.22c-0.29,0-0.52-0.23-0.52-0.52c0-2.44,0.38-6.54,0.71-10.16c0.2-2.2,0.38-4.11,0.44-5.3
				c0.01-0.29,0.24-0.52,0.54-0.49c0.29,0.01,0.51,0.26,0.49,0.54c-0.06,1.22-0.24,3.13-0.44,5.35c-0.33,3.59-0.7,7.67-0.7,10.07
				C315.02,219.98,314.79,220.22,314.5,220.22z"/>
		</g>
		<g>
			<path class="st2" d="M322.09,227.21c-0.28,0-0.51-0.23-0.52-0.51l-0.39-17.33c-0.01-0.29,0.22-0.53,0.51-0.53
				c0.3,0.03,0.53,0.22,0.53,0.51l0.39,17.33c0.01,0.29-0.22,0.53-0.51,0.53C322.09,227.21,322.09,227.21,322.09,227.21z"/>
		</g>
		<g>
			<path class="st2" d="M329.31,234.88c-0.28,0-0.51-0.22-0.52-0.5l-0.68-18.15c-0.01-0.29,0.21-0.53,0.5-0.54
				c0.28,0.03,0.53,0.21,0.54,0.5l0.68,18.15c0.01,0.29-0.21,0.53-0.5,0.54C329.32,234.88,329.32,234.88,329.31,234.88z"/>
		</g>
		<g>
			<path class="st2" d="M336.66,241.34c-0.28,0-0.5-0.21-0.52-0.49l-0.92-16.95c-0.02-0.29,0.2-0.53,0.49-0.55
				c0.31-0.04,0.53,0.2,0.55,0.49l0.92,16.95c0.02,0.29-0.2,0.53-0.49,0.55C336.68,241.34,336.67,241.34,336.66,241.34z"/>
		</g>
		<g>
			<path class="st2" d="M343.94,247.31c-0.27,0-0.5-0.21-0.52-0.48l-1.27-16.51c-0.02-0.29,0.19-0.54,0.48-0.56
				c0.27-0.03,0.54,0.19,0.56,0.48l1.27,16.51c0.02,0.29-0.19,0.54-0.48,0.56C343.96,247.31,343.95,247.31,343.94,247.31z"/>
		</g>
		<g>
			<path class="st2" d="M350.83,252.68c-0.26,0-0.49-0.2-0.52-0.47l-1.49-14.48c-0.03-0.29,0.18-0.54,0.46-0.57
				c0.27-0.03,0.54,0.18,0.57,0.46l1.49,14.48c0.03,0.29-0.18,0.54-0.46,0.57C350.86,252.68,350.84,252.68,350.83,252.68z"/>
		</g>
		<g>
			<path class="st2" d="M357.57,251.91c-0.25,0-0.47-0.18-0.51-0.44l-1.05-6.47c-0.05-0.28,0.15-0.55,0.43-0.6
				c0.28-0.05,0.55,0.15,0.6,0.43l1.05,6.47c0.05,0.28-0.15,0.55-0.43,0.6C357.63,251.91,357.6,251.91,357.57,251.91z"/>
		</g>
	</g>
	<g>
		<path class="st2" d="M149.56,276.17c-0.09,0-0.19-0.02-0.27-0.08l-11.46-7.01c-0.24-0.15-0.32-0.47-0.17-0.71
			c0.15-0.25,0.47-0.32,0.71-0.17l11.46,7.01c0.24,0.15,0.32,0.47,0.17,0.71C149.9,276.08,149.73,276.17,149.56,276.17z"/>
	</g>
	<g>
		<path class="st2" d="M159.31,271.46c-0.08,0-0.16-0.02-0.23-0.05c-7.42-3.69-14.7-7.86-21.65-12.39
			c-0.24-0.16-0.31-0.48-0.15-0.72c0.16-0.24,0.48-0.31,0.72-0.15c6.91,4.51,14.16,8.66,21.54,12.33c0.26,0.13,0.36,0.44,0.23,0.7
			C159.68,271.36,159.5,271.46,159.31,271.46z"/>
	</g>
	<g>
		<path class="st2" d="M158.43,262.04c-0.09,0-0.19-0.03-0.28-0.08l-20.75-12.99c-0.24-0.15-0.32-0.47-0.16-0.72
			c0.15-0.24,0.47-0.31,0.72-0.16l20.75,12.99c0.24,0.15,0.32,0.47,0.16,0.72C158.77,261.95,158.6,262.04,158.43,262.04z"/>
	</g>
	<g>
		<path class="st2" d="M159.45,252.04c-0.1,0-0.2-0.03-0.29-0.09c-6.87-4.59-14.05-8.85-21.37-12.67c-0.25-0.13-0.35-0.45-0.22-0.7
			c0.13-0.25,0.45-0.35,0.7-0.22c7.34,3.84,14.57,8.12,21.46,12.73c0.24,0.16,0.3,0.48,0.14,0.72
			C159.78,251.96,159.62,252.04,159.45,252.04z"/>
	</g>
	<g>
		<path class="st2" d="M158.68,239.79c-0.09,0-0.18-0.02-0.26-0.07l-20.89-12c-0.25-0.14-0.33-0.46-0.19-0.71
			c0.14-0.25,0.46-0.33,0.71-0.19l20.89,12c0.25,0.14,0.33,0.46,0.19,0.71C159.03,239.69,158.86,239.79,158.68,239.79z"/>
	</g>
	<g>
		<path class="st2" d="M158.98,229.71c-0.09,0-0.18-0.02-0.27-0.07l-21.07-12.67c-0.25-0.15-0.32-0.47-0.18-0.71
			c0.15-0.25,0.47-0.32,0.71-0.18l21.07,12.67c0.25,0.15,0.33,0.47,0.18,0.71C159.32,229.62,159.15,229.71,158.98,229.71z"/>
	</g>
	<g>
		<path class="st2" d="M158.53,218.07c-0.09,0-0.18-0.02-0.26-0.07l-20.29-11.94c-0.25-0.15-0.33-0.46-0.18-0.71
			c0.15-0.25,0.46-0.33,0.71-0.18l20.29,11.94c0.25,0.15,0.33,0.46,0.18,0.71C158.88,217.98,158.71,218.07,158.53,218.07z"/>
	</g>
	<g>
		<path class="st2" d="M158.36,206.56c-0.08,0-0.16-0.02-0.24-0.06c-7.16-3.66-14.13-7.85-20.71-12.47
			c-0.23-0.16-0.29-0.49-0.13-0.72c0.16-0.24,0.49-0.29,0.72-0.13c6.54,4.59,13.47,8.76,20.59,12.39c0.26,0.13,0.36,0.44,0.23,0.7
			C158.73,206.46,158.55,206.56,158.36,206.56z"/>
	</g>
	<g>
		<path class="st2" d="M158.14,194.53c-0.09,0-0.17-0.02-0.25-0.06c-6.76-3.73-13.53-7.64-20.13-11.62
			c-0.25-0.15-0.32-0.47-0.18-0.71c0.15-0.25,0.47-0.32,0.71-0.18c6.59,3.97,13.35,7.88,20.09,11.6c0.25,0.14,0.34,0.45,0.2,0.71
			C158.5,194.43,158.32,194.53,158.14,194.53z"/>
	</g>
	<g>
		<path class="st2" d="M158.45,184.13c-0.08,0-0.16-0.02-0.24-0.06c-6.99-3.62-13.88-7.62-20.47-11.9
			c-0.24-0.16-0.31-0.48-0.15-0.72c0.16-0.24,0.48-0.31,0.72-0.15c6.56,4.26,13.42,8.25,20.38,11.85c0.25,0.13,0.36,0.45,0.22,0.7
			C158.82,184.02,158.63,184.13,158.45,184.13z"/>
	</g>
	<g>
		<path class="st2" d="M158.43,173.7c-0.08,0-0.17-0.02-0.25-0.06c-7.15-3.9-14.11-8.29-20.71-13.07c-0.23-0.17-0.29-0.49-0.12-0.73
			c0.17-0.23,0.5-0.28,0.73-0.12c6.56,4.75,13.49,9.13,20.6,13c0.25,0.14,0.35,0.45,0.21,0.71
			C158.79,173.6,158.61,173.7,158.43,173.7z"/>
	</g>
	<g>
		<path class="st2" d="M158.47,163.43c-0.09,0-0.18-0.02-0.26-0.07c-6.79-3.94-13.51-8.17-19.99-12.59
			c-0.24-0.16-0.3-0.49-0.14-0.72c0.16-0.24,0.48-0.3,0.72-0.14c6.45,4.41,13.15,8.63,19.92,12.55c0.25,0.14,0.33,0.46,0.19,0.71
			C158.82,163.34,158.65,163.43,158.47,163.43z"/>
	</g>
	<g>
		<path class="st2" d="M158.24,152.22c-0.09,0-0.18-0.02-0.26-0.07c-6.9-4.1-13.83-8.38-20.61-12.74c-0.24-0.16-0.31-0.48-0.16-0.72
			c0.16-0.24,0.48-0.31,0.72-0.16c6.77,4.35,13.7,8.63,20.58,12.72c0.25,0.15,0.33,0.46,0.18,0.71
			C158.59,152.13,158.41,152.22,158.24,152.22z"/>
	</g>
	<g>
		<path class="st2" d="M159.05,141.28c-0.08,0-0.15-0.02-0.22-0.05c-6.08-2.88-12.09-6.1-17.86-9.55c-0.25-0.15-0.33-0.47-0.18-0.71
			c0.15-0.25,0.47-0.33,0.71-0.18c5.74,3.44,11.72,6.63,17.77,9.5c0.26,0.12,0.37,0.43,0.25,0.69
			C159.43,141.17,159.24,141.28,159.05,141.28z"/>
	</g>
	<g>
		<path class="st2" d="M158.82,132.87c-0.06,0-0.13-0.01-0.19-0.04c-1.69-0.67-3.31-1.54-4.79-2.6c-0.23-0.17-0.29-0.49-0.12-0.72
			c0.17-0.23,0.49-0.29,0.72-0.12c1.42,1.01,2.95,1.84,4.57,2.48c0.27,0.11,0.4,0.41,0.29,0.67
			C159.22,132.74,159.03,132.87,158.82,132.87z"/>
	</g>
	<g class="st4">
		<path class="st2" d="M292.21,179c-1.98-1.18-3.63,0.36-4.95,1.73c-1.77,1.62-3.51,3.28-5.33,4.84c-0.39,0.28-1.37,0.99-1.73,1.19
			c-4.09,2.52-6.77,3.61-9.45,4.66c-1.06,0.47-7.26,2.79-11.39,3.36c-2.2,0.27-4.42,0.39-6.64,0.48c-2.16,0.1-4.32-0.04-6.46-0.29
			c-0.19-0.03-0.32-0.04-0.41-0.05c-0.18-0.03-0.37-0.05-0.55-0.08c-4.7-0.66-12.81-3.8-16.04-5.64c-2.43-1.39-5.04-2.46-7.33-4.08
			c-3.05-2.64-5.61-5.83-8.8-8.32c0.24,0.19,0.48,0.37,0.73,0.56c-1.64-1.71-1.23-1.26-2.97-4.28c-2.45-4.27-3.01-4.95-4.18-9.23
			c-0.37-1.25-0.65-2.52-0.87-3.8c-0.12-0.98-0.38-2-1.09-2.68c-0.77-4.25-1.03-7.91-1.36-13.38c-0.06-3.76-5.67-3.77-5.74,0
			c0.68,8.24,0.87,12.65,2.62,20.55c0.08,0.7,0.32,1.26,0.64,1.71c1.36,4.85,3.26,8.38,5.96,13.69c1.88,2.78,2.18,2.68,5.04,5.93
			c1.61,1.77,3.16,3.6,4.98,5.15c-0.61,1.39-0.36,3.19,1.24,4.08c3.76,2.13,7.17,4.91,11.25,6.43c7.81,2.97,16.41,4.24,24.68,2.82
			c3.16-0.56,6.38-0.84,9.48-1.68c1.23-0.4,2.74-0.58,3.42-1.83c0.16-0.26,0.27-0.52,0.33-0.79c4.18-1.22,8.21-2.91,11.98-5.14
			c3.99-2.34,7.43-5.42,10.75-8.61c1.1-1.2,2.69-2.11,3.41-3.6C294.09,181.4,293.44,179.73,292.21,179z"/>
	</g>
	<g class="st4">
		<path class="st2" d="M312.06,196.7c0.07-0.47,0.04-0.97-0.11-1.5c-1-3.48-5.44-3.48-6.93-0.88c-1.44,1.7-3.1,3.17-4.86,4.55
			c-1.09,0.91-1.3,1.09-3.94,2.84c-0.84,0.49-1.47,1.31-1.73,2.25c-0.75,2.4,1.29,4.64,3.54,4.76c0.1,2.38,3.35,4.04,5.29,2.03
			c3.41-2.94,6.58-6.15,9.92-9.16C315.01,199.76,313.85,197.37,312.06,196.7z"/>
	</g>
	<g>
		<path class="st0" d="M248.65,191.05v-6.1c-0.61,0.03-1.2,0.05-1.78,0.05c-10.23,0-16.68-3.48-16.95-3.62l-0.52-0.28v-15.2
			l1.55,1.01c4.92,3.21,10.55,4.97,15.86,4.97c6.39,0,11.22-2.57,11.22-5.99c0-4.76-5.44-7.27-11.75-10.18
			c-8.43-3.89-18.93-8.73-18.93-21.32c0-9.6,8.91-17.65,21.31-19.4v-6.39h6.22v6.07c9.41,0.3,15.29,3.46,15.54,3.6l0.52,0.28v15.2
			l-1.55-1.01c-4.92-3.21-10.55-4.97-15.86-4.97c-6.39,0-11.22,2.57-11.22,5.99c0,4.76,5.44,7.27,11.75,10.18
			c8.43,3.89,18.93,8.73,18.93,21.32c0,8.68-7.24,16.15-18.12,18.78v7H248.65z"/>
		<path class="st5" d="M253.87,109.59v6.05l-0.04,0c9.87,0.08,16.1,3.5,16.1,3.5v12.77c-5.61-3.65-11.46-5.13-16.4-5.13
			c-7.03,0-12.22,3-12.22,6.99c0,12.44,30.68,10.38,30.68,31.5c0,8.95-8.03,15.81-18.18,18l0.06-0.01v6.79h-4.22v-6.16l0.08-0.01
			c-0.94,0.08-1.9,0.13-2.86,0.13c-10.09,0-16.47-3.5-16.47-3.5v-12.77c5.61,3.65,11.46,5.13,16.4,5.13c7.03,0,12.22-3,12.22-6.99
			c0-12.44-30.68-10.38-30.68-31.5c0-9.86,9.74-17.19,21.34-18.52l-0.03,0v-6.27H253.87 M255.87,107.59h-2h-4.22h-2v2v4.53
			c-12.45,2.07-21.31,10.38-21.31,20.25c0,13.23,10.82,18.22,19.51,22.23c5.99,2.76,11.17,5.15,11.17,9.27
			c0,2.75-4.58,4.99-10.22,4.99c-5.11,0-10.55-1.71-15.31-4.81l-3.09-2.01v3.69v12.77v1.18l1.04,0.57
			c0.28,0.15,6.95,3.75,17.43,3.75c0.26,0,0.52,0,0.78-0.01v4.06v2h2h4.22h2v-2v-5.22c10.91-2.91,18.12-10.61,18.12-19.56
			c0-13.23-10.82-18.22-19.51-22.23c-5.99-2.76-11.17-5.15-11.17-9.27c0-2.75,4.58-4.99,10.22-4.99c5.11,0,10.55,1.71,15.31,4.81
			l3.09,2.01v-3.69v-12.77v-1.18l-1.04-0.57c-0.25-0.14-5.94-3.2-15.02-3.68v-4.11V107.59L255.87,107.59z"/>
	</g>
</g>
<rect x="46.28" y="363.29" class="st6" width="353.55" height="51.51"/>
<text transform="matrix(1 0 0 1 156.538 390.7489)" class="st7 st8"></text>
</svg>
