<?xml version="1.0" encoding="utf-8"?>
<!-- Generator: Adobe Illustrator 25.0.0, SVG Export Plug-In . SVG Version: 6.00 Build 0)  -->
<svg version="1.1" id="Capa_1" xmlns="http://www.w3.org/2000/svg" xmlns:xlink="http://www.w3.org/1999/xlink" x="0px" y="0px"
	 viewBox="0 0 425.2 425.2" style="enable-background:new 0 0 425.2 425.2;" xml:space="preserve">
<style type="text/css">
	.st0{opacity:0.4;fill:#020203;}
	.st1{fill:#E20E17;}
	.st2{fill:#231F20;}
	.st3{fill:none;stroke:#231F20;stroke-width:3;stroke-miterlimit:10;}
	.st4{fill:#AD7A15;stroke:#231F20;stroke-width:3;stroke-miterlimit:10;}
</style>
<path class="st0" d="M268.19,100.07c-0.08,1.21-0.11,2.49-0.07,3.83l0.33,12.19l-13.65,15.17c-10.97-5.14-17.35-42.71-7.27-51
	c23.96-19.7-0.22-42.53-31.43-63.92c4.63,15.96-14.01,27.65-24.71,38.27c-14.44,14.32-30.8,30.54-25.68,63.04l2.07,13.14l-2.39-3.28
	c-1.65-2.26-3.58-4.27-5.66-6.14c-4.63-4.17-10.9-14.32-13.15-19.36c-3.22,8.88-8.09,31.06-5.97,42.89
	c2.62,14.62,11.71,26.86,27.01,36.47l10.58-1.25c-7.18-7.79-10.56-20.43,0.24-41.03c0,0,3.45,3.44,4.88,10.22
	c9.51-7.59-24.98-37.39,22.72-60.88c-1.86,3.42-2.73,6.24-2.83,8.64c0.11-0.01,0.22-0.02,0.34-0.02c5.17,0,6.52,5.91,4.08,9.02
	c9.07,7.84,29.03,12.43,31.07,38.06c2.88-2.49,3.62-7.22,1.98-16.15c3.93,2.53,22.4,22.11,10.85,43.47l11.12-1.31
	c7.96-6.67,15.61-15.74,17.95-27.33C283.18,129.97,279.01,115.64,268.19,100.07z"/>
<g>
	<g>
		<path class="st1" d="M243.46,178.56l1.66-2.36c10.16-14.43,2.32-29.86-2.43-36.37c-0.07,6.19-1.45,9.82-4.38,11.8l-2.45,1.66
			l0.11-2.96c0.67-17.51-9.3-25.31-17.31-31.58c-7.01-5.48-13.67-10.69-8.84-20.51c-26.38,10.86-23.54,26.79-21.43,38.56
			c1.07,5.99,1.99,11.16-1.92,13.59l-2.07,1.28l-0.22-2.42c-0.3-3.27-1.22-5.75-1.98-7.3c-8.8,13.7-9.95,25.21-3.42,34.22l1.72,2.38
			h-13.39l-0.41-0.33c-13.45-10.85-20.7-23.56-21.55-37.77c-0.73-12.18,3.31-23.08,6.83-30.07l1.67-3.32l1.1,3.55
			c1.84,5.91,4.7,10.2,8.06,12.08l8.91,4.98l-0.37-9.71c-1.21-31.39,16.02-44.86,31.22-56.74c11.08-8.67,22.54-17.63,20.16-32.02
			l-0.49-2.93l2.65,1.35c37.41,19.06,32.87,44.49,29.22,64.92c-2.13,11.94-3.98,22.25,4.74,27.67l7.94,4.94l0.81-8.89
			c0.11-1.23,0.28-2.47,0.5-3.68l0.78-4.21l2.02,3.78c8.51,15.94,10.83,30.09,6.9,42.06c-3.01,9.19-9.81,17.3-20.2,24.1l-0.37,0.25
			H243.46z"/>
		<path class="st2" d="M224.21,28.96c36.42,18.56,32.03,43.12,28.42,63.32c-2.14,11.96-4.15,23.25,5.43,29.21l10.01,6.22l1.03-11.31
			c0.11-1.25,0.28-2.43,0.49-3.54c8.31,15.58,10.6,29.29,6.8,40.89c-3.43,10.46-11.5,18.02-19.59,23.31h-10.43
			c13.02-18.49-1.92-38.62-5.28-41.39c0.54,8.44-0.66,12.74-3.6,14.72c1.39-36.09-40.2-32.38-24.12-55.1
			c-46.7,16.51-18.05,47.85-27.68,53.83c-0.58-6.43-3.4-9.99-3.4-9.99c-12.24,17.87-10.49,29.94-4.71,37.92h-9.92
			c-13.1-10.57-20.17-22.88-21-36.69c-0.67-11.17,2.72-21.45,6.67-29.31c1.81,5.81,4.78,10.72,8.76,12.94l11.24,6.29l-0.48-12.38
			c-1.18-30.62,15.73-43.84,30.65-55.5C214.56,53.75,226.74,44.23,224.21,28.96 M220.28,23.59l0.97,5.86
			c2.24,13.51-8.86,22.19-19.6,30.59c-7.39,5.78-15.77,12.33-21.98,21.3c-7.16,10.34-10.37,22.34-9.82,36.68l0.27,7.03l-6.58-3.68
			c-3.02-1.69-5.63-5.67-7.36-11.22l-2.21-7.09l-3.34,6.64c-5.16,10.27-7.58,20.93-6.99,30.84c0.88,14.65,8.32,27.72,22.11,38.85
			l0.82,0.67h1.06h9.92h5.88L180,175.3c-5.73-7.91-5.09-17.98,1.9-29.98c0.35,1.15,0.64,2.51,0.78,4.08l0.44,4.84l4.13-2.57
			c4.78-2.97,3.72-8.88,2.61-15.13c-1.08-6.07-2.31-12.95,0.28-19.67c2.46-6.37,8.04-11.58,16.96-15.8
			c-2.37,8.7,4.21,13.84,10.63,18.86c8.15,6.37,17.38,13.59,16.74,30.34l-0.23,5.92l4.91-3.32c2.55-1.73,4.08-4.43,4.71-8.55
			c4.16,7.25,8.17,19.46,0.04,31.02l-3.33,4.73h5.78h10.43h0.89l0.75-0.49c10.68-6.99,17.68-15.36,20.8-24.89
			c4.06-12.37,1.7-26.92-7-43.24l-4.04-7.56l-1.56,8.43c-0.23,1.25-0.41,2.53-0.52,3.82l-0.59,6.47l-5.88-3.65
			c-7.33-4.55-6.42-12.91-4.06-26.13c1.84-10.29,3.92-21.95,0.74-33.59c-3.69-13.49-13.75-24.26-30.75-32.93L220.28,23.59
			L220.28,23.59z"/>
	</g>
	<path class="st3" d="M210.57,370.94l-11.06-131.32c-5.01-1.1-9.77-2.82-14.17-5.08l22.24,136.4"/>
	<path class="st3" d="M217.15,370.94l22.24-136.4c-4.4,2.26-9.16,3.98-14.17,5.08l-11.06,131.32"/>
	<path class="st4" d="M204.03,221.14c2.58,1.59,5.36,2.93,8.28,3.97c2.4,0.85,4.89,1.51,7.47,1.94c-2.44,0.41-4.95,0.64-7.52,0.64
		c-4.88,0-9.57-0.79-13.94-2.22c-0.36-0.12-0.73-0.24-1.09-0.37c-13.58-4.84-23.88-16.04-26.85-29.79h-7.08
		c2.25,12.15,9.4,22.72,19.44,29.79c1.72,1.21,3.52,2.31,5.39,3.31c2.45,1.3,5.04,2.41,7.72,3.31c1.01,0.34,2.03,0.65,3.07,0.93
		c4.28,1.14,8.78,1.75,13.44,1.75c4.65,0,9.16-0.61,13.44-1.75c1.04-0.28,2.06-0.59,3.07-0.93c2.69-0.9,5.27-2.01,7.72-3.31
		c1.88-0.99,3.68-2.1,5.39-3.31c10.04-7.07,17.19-17.64,19.44-29.79h-75.99C187.77,206.11,194.62,215.33,204.03,221.14z"/>
	<path class="st4" d="M268.83,183.68H155.9c-1.46,0-2.65,1.13-2.65,2.52c0,1.29,1.04,2.35,2.36,2.49c0.1,0.01,0.19,0.03,0.29,0.03
		h112.93c0.1,0,0.19-0.02,0.29-0.03c1.33-0.14,2.36-1.19,2.36-2.49C271.48,184.8,270.29,183.68,268.83,183.68z"/>
	<g>
		<g>
			<path class="st2" d="M226,248.43c3.63-1.68,7.25-3.36,10.88-5.04c0.7-0.32,0.09-1.36-0.61-1.04c-3.63,1.68-7.25,3.36-10.88,5.04
				C224.7,247.71,225.31,248.75,226,248.43L226,248.43z"/>
		</g>
	</g>
	<g>
		<g>
			<path class="st2" d="M225.19,256.72c3.58-1.78,7.15-3.57,10.73-5.35c0.69-0.34,0.08-1.38-0.61-1.04
				c-3.58,1.78-7.15,3.57-10.73,5.35C223.89,256.03,224.5,257.06,225.19,256.72L225.19,256.72z"/>
		</g>
	</g>
	<g>
		<g>
			<path class="st2" d="M223.74,265.74c3.45-2.03,6.89-4.05,10.34-6.08c0.67-0.39,0.06-1.43-0.61-1.04
				c-3.45,2.03-6.89,4.05-10.34,6.08C222.47,265.09,223.07,266.13,223.74,265.74L223.74,265.74z"/>
		</g>
	</g>
	<g>
		<g>
			<path class="st2" d="M223.3,273.73c3.45-2.03,6.89-4.05,10.34-6.08c0.67-0.39,0.06-1.43-0.61-1.04
				c-3.45,2.03-6.89,4.05-10.34,6.08C222.03,273.08,222.63,274.12,223.3,273.73L223.3,273.73z"/>
		</g>
	</g>
	<g>
		<g>
			<path class="st2" d="M222.41,281.72c3.45-2.03,6.89-4.05,10.34-6.08c0.67-0.39,0.06-1.43-0.61-1.04
				c-3.45,2.03-6.89,4.05-10.34,6.08C221.14,281.07,221.74,282.11,222.41,281.72L222.41,281.72z"/>
		</g>
	</g>
	<g>
		<g>
			<path class="st2" d="M220.84,289.71c3.45-2.03,6.89-4.05,10.34-6.08c0.67-0.39,0.06-1.43-0.61-1.04
				c-3.45,2.03-6.89,4.05-10.34,6.08C219.57,289.06,220.17,290.1,220.84,289.71L220.84,289.71z"/>
		</g>
	</g>
	<g>
		<g>
			<path class="st2" d="M220.02,297.7c3.45-2.03,6.89-4.05,10.34-6.08c0.67-0.39,0.06-1.43-0.61-1.04
				c-3.45,2.03-6.89,4.05-10.34,6.08C218.75,297.05,219.35,298.09,220.02,297.7L220.02,297.7z"/>
		</g>
	</g>
	<g>
		<g>
			<path class="st2" d="M220.02,303.77c2.96-1.74,5.92-3.48,8.89-5.22c0.67-0.39,0.06-1.43-0.61-1.04
				c-2.96,1.74-5.92,3.48-8.89,5.22C218.75,303.13,219.35,304.17,220.02,303.77L220.02,303.77z"/>
		</g>
	</g>
	<g>
		<g>
			<path class="st2" d="M218.86,311.19c2.96-1.74,5.92-3.48,8.89-5.22c0.67-0.39,0.06-1.43-0.61-1.04
				c-2.96,1.74-5.92,3.48-8.89,5.22C217.59,310.55,218.19,311.58,218.86,311.19L218.86,311.19z"/>
		</g>
	</g>
	<g>
		<g>
			<path class="st2" d="M218.69,318.61c2.96-1.74,5.92-3.48,8.89-5.22c0.67-0.39,0.06-1.43-0.61-1.04
				c-2.96,1.74-5.92,3.48-8.89,5.22C217.42,317.96,218.02,319,218.69,318.61L218.69,318.61z"/>
		</g>
	</g>
	<g>
		<g>
			<path class="st2" d="M217.97,326.03c2.63-1.54,5.26-3.09,7.88-4.63c0.67-0.39,0.06-1.43-0.61-1.04
				c-2.63,1.54-5.26,3.09-7.88,4.63C216.7,325.38,217.3,326.42,217.97,326.03L217.97,326.03z"/>
		</g>
	</g>
	<g>
		<g>
			<path class="st2" d="M217.47,333.15c2.2-1.29,4.39-2.58,6.59-3.87c0.67-0.39,0.06-1.43-0.61-1.04c-2.2,1.29-4.39,2.58-6.59,3.87
				C216.2,332.5,216.8,333.54,217.47,333.15L217.47,333.15z"/>
		</g>
	</g>
	<g>
		<g>
			<path class="st2" d="M216.39,340.27c2.22-1.3,4.44-2.61,6.66-3.91c0.67-0.39,0.06-1.43-0.61-1.04c-2.22,1.3-4.44,2.61-6.66,3.91
				C215.12,339.63,215.73,340.67,216.39,340.27L216.39,340.27z"/>
		</g>
	</g>
	<g>
		<g>
			<path class="st2" d="M215.53,347.7c2.22-1.3,4.44-2.61,6.66-3.91c0.67-0.39,0.06-1.43-0.61-1.04c-2.22,1.3-4.44,2.61-6.66,3.91
				C214.26,347.05,214.86,348.09,215.53,347.7L215.53,347.7z"/>
		</g>
	</g>
	<g>
		<g>
			<path class="st2" d="M215.36,354.2c1.78-1.05,3.56-2.09,5.34-3.14c0.67-0.39,0.06-1.43-0.61-1.04c-1.78,1.05-3.56,2.09-5.34,3.14
				C214.09,353.56,214.7,354.59,215.36,354.2L215.36,354.2z"/>
		</g>
	</g>
	<g>
		<g>
			<g>
				<path class="st2" d="M199.27,246.3c-3.63-1.68-7.25-3.36-10.88-5.04c-0.7-0.32-1.31,0.71-0.61,1.04
					c3.63,1.68,7.25,3.36,10.88,5.04C199.36,247.65,199.97,246.62,199.27,246.3L199.27,246.3z"/>
			</g>
		</g>
		<g>
			<g>
				<path class="st2" d="M200.08,254.59c-3.58-1.78-7.15-3.57-10.73-5.35c-0.69-0.34-1.3,0.69-0.61,1.04
					c3.58,1.78,7.15,3.57,10.73,5.35C200.17,255.97,200.77,254.93,200.08,254.59L200.08,254.59z"/>
			</g>
		</g>
		<g>
			<g>
				<path class="st2" d="M201.53,263.61c-3.45-2.03-6.89-4.05-10.34-6.08c-0.67-0.39-1.27,0.64-0.61,1.04
					c3.45,2.03,6.89,4.05,10.34,6.08C201.59,265.04,202.2,264,201.53,263.61L201.53,263.61z"/>
			</g>
		</g>
		<g>
			<g>
				<path class="st2" d="M201.97,271.6c-3.45-2.03-6.89-4.05-10.34-6.08c-0.67-0.39-1.27,0.64-0.61,1.04
					c3.45,2.03,6.89,4.05,10.34,6.08C202.03,273.03,202.64,271.99,201.97,271.6L201.97,271.6z"/>
			</g>
		</g>
		<g>
			<g>
				<path class="st2" d="M202.86,279.59c-3.45-2.03-6.89-4.05-10.34-6.08c-0.67-0.39-1.27,0.64-0.61,1.04
					c3.45,2.03,6.89,4.05,10.34,6.08C202.92,281.02,203.53,279.98,202.86,279.59L202.86,279.59z"/>
			</g>
		</g>
		<g>
			<g>
				<path class="st2" d="M204.44,287.58c-3.45-2.03-6.89-4.05-10.34-6.08c-0.67-0.39-1.27,0.64-0.61,1.04
					c3.45,2.03,6.89,4.05,10.34,6.08C204.5,289.01,205.1,287.97,204.44,287.58L204.44,287.58z"/>
			</g>
		</g>
		<g>
			<g>
				<path class="st2" d="M205.25,295.57c-3.45-2.03-6.89-4.05-10.34-6.08c-0.67-0.39-1.27,0.64-0.61,1.04
					c3.45,2.03,6.89,4.05,10.34,6.08C205.31,297,205.92,295.96,205.25,295.57L205.25,295.57z"/>
			</g>
		</g>
		<g>
			<g>
				<path class="st2" d="M205.25,301.65c-2.96-1.74-5.92-3.48-8.89-5.22c-0.67-0.39-1.27,0.64-0.61,1.04
					c2.96,1.74,5.92,3.48,8.89,5.22C205.31,303.07,205.92,302.04,205.25,301.65L205.25,301.65z"/>
			</g>
		</g>
		<g>
			<g>
				<path class="st2" d="M206.41,309.06c-2.96-1.74-5.92-3.48-8.89-5.22c-0.67-0.39-1.27,0.64-0.61,1.04
					c2.96,1.74,5.92,3.48,8.89,5.22C206.48,310.49,207.08,309.45,206.41,309.06L206.41,309.06z"/>
			</g>
		</g>
		<g>
			<g>
				<path class="st2" d="M206.58,316.48c-2.96-1.74-5.92-3.48-8.89-5.22c-0.67-0.39-1.27,0.64-0.61,1.04
					c2.96,1.74,5.92,3.48,8.89,5.22C206.64,317.91,207.25,316.87,206.58,316.48L206.58,316.48z"/>
			</g>
		</g>
		<g>
			<g>
				<path class="st2" d="M207.3,323.9c-2.63-1.54-5.26-3.09-7.88-4.63c-0.67-0.39-1.27,0.64-0.61,1.04
					c2.63,1.54,5.26,3.09,7.88,4.63C207.37,325.33,207.97,324.29,207.3,323.9L207.3,323.9z"/>
			</g>
		</g>
		<g>
			<g>
				<path class="st2" d="M207.81,331.02c-2.2-1.29-4.39-2.58-6.59-3.87c-0.67-0.39-1.27,0.64-0.61,1.04
					c2.2,1.29,4.39,2.58,6.59,3.87C207.87,332.45,208.47,331.41,207.81,331.02L207.81,331.02z"/>
			</g>
		</g>
		<g>
			<g>
				<path class="st2" d="M208.88,338.14c-2.22-1.3-4.44-2.61-6.66-3.91c-0.67-0.39-1.27,0.64-0.61,1.04
					c2.22,1.3,4.44,2.61,6.66,3.91C208.94,339.57,209.54,338.54,208.88,338.14L208.88,338.14z"/>
			</g>
		</g>
		<g>
			<g>
				<path class="st2" d="M209.74,345.57c-2.22-1.3-4.44-2.61-6.66-3.91c-0.67-0.39-1.27,0.64-0.61,1.04
					c2.22,1.3,4.44,2.61,6.66,3.91C209.8,346.99,210.41,345.96,209.74,345.57L209.74,345.57z"/>
			</g>
		</g>
		<g>
			<g>
				<path class="st2" d="M209.91,352.07c-1.78-1.05-3.56-2.09-5.34-3.14c-0.67-0.39-1.27,0.64-0.61,1.04
					c1.78,1.05,3.56,2.09,5.34,3.14C209.97,353.5,210.57,352.46,209.91,352.07L209.91,352.07z"/>
			</g>
		</g>
	</g>
</g>
</svg>
