<?xml version="1.0" encoding="utf-8"?>
<!-- Generator: Adobe Illustrator 25.0.0, SVG Export Plug-In . SVG Version: 6.00 Build 0)  -->
<svg version="1.1" id="Capa_1" xmlns="http://www.w3.org/2000/svg" xmlns:xlink="http://www.w3.org/1999/xlink" x="0px" y="0px"
	 viewBox="0 0 425.2 425.2" style="enable-background:new 0 0 425.2 425.2;" xml:space="preserve">
<style type="text/css">
	.st0{opacity:0.3;}
	.st1{fill:#020203;}
	.st2{fill:#E52521;stroke:#010202;stroke-width:2;stroke-miterlimit:10;}
	.st3{fill:none;stroke:#020203;stroke-miterlimit:10;}
	.st4{fill:#A91916;}
	.st5{fill:#FFFFFF;}
	.st6{fill:#231F20;}
</style>
<g>
	<g>
		<g class="st0">
			<path class="st1" d="M212.34,94.31c-57.4,0-104.09,46.69-104.09,104.09s46.69,104.09,104.09,104.09s104.09-46.69,104.09-104.09
				S269.73,94.31,212.34,94.31z M212.34,295.71c-53.66,0-97.32-43.66-97.32-97.32s43.66-97.32,97.32-97.32s97.32,43.66,97.32,97.32
				S266,295.71,212.34,295.71z"/>
			<circle class="st1" cx="212.34" cy="198.39" r="97.32"/>
			<rect x="212.08" y="61.27" class="st1" width="0.52" height="277.25"/>
			<rect x="73.71" y="199.63" class="st1" width="277.25" height="0.52"/>
			<path class="st1" d="M220.93,61.27c0,0-5.67,82.94-8.59,82.94c-2.93,0-8.59-82.94-8.59-82.94H220.93z"/>
			<path class="st1" d="M212.34,252.58c2.93,0,8.59,85.94,8.59,85.94h-17.19C203.75,338.52,209.41,252.58,212.34,252.58z"/>
			<path class="st1" d="M158.16,199.89c0,3.45-84.44,8.59-84.44,8.59V191.3C73.71,191.3,158.16,197.49,158.16,199.89z"/>
			<path class="st1" d="M350.97,191.3v17.19c0,0-84.44-5.15-84.44-8.59C266.52,197.49,350.97,191.3,350.97,191.3z"/>
			<g>
				<circle class="st1" cx="212.34" cy="199.89" r="18.23"/>
				<path class="st1" d="M212.34,223.08c-12.78,0-23.18-10.4-23.18-23.18c0-12.78,10.4-23.18,23.18-23.18
					c12.78,0,23.18,10.4,23.18,23.18C235.52,212.68,225.12,223.08,212.34,223.08z M212.34,186.61c-7.33,0-13.29,5.96-13.29,13.29
					c0,7.33,5.96,13.29,13.29,13.29c7.33,0,13.29-5.96,13.29-13.29C225.63,192.57,219.66,186.61,212.34,186.61z"/>
			</g>
			<rect x="205.33" y="149.15" class="st1" width="14.01" height="2.68"/>
			<rect x="205.33" y="152.96" class="st1" width="14.01" height="2.68"/>
			<rect x="205.33" y="241.83" class="st1" width="14.01" height="2.68"/>
			<rect x="205.33" y="245.64" class="st1" width="14.01" height="2.68"/>
			
				<rect x="253.58" y="198.55" transform="matrix(-1.836970e-16 1 -1 -1.836970e-16 460.4749 -60.6887)" class="st1" width="14.01" height="2.68"/>
			
				<rect x="249.77" y="198.55" transform="matrix(-1.836970e-16 1 -1 -1.836970e-16 456.6635 -56.8772)" class="st1" width="14.01" height="2.68"/>
			
				<rect x="160.9" y="198.55" transform="matrix(-1.836970e-16 1 -1 -1.836970e-16 367.7989 31.9879)" class="st1" width="14.01" height="2.68"/>
			
				<rect x="157.09" y="198.55" transform="matrix(-1.836970e-16 1 -1 -1.836970e-16 363.9874 35.7993)" class="st1" width="14.01" height="2.68"/>
			<rect x="205.33" y="149.15" class="st1" width="14.01" height="2.68"/>
			<rect x="205.33" y="152.96" class="st1" width="14.01" height="2.68"/>
			<rect x="205.33" y="245.64" class="st1" width="14.01" height="2.68"/>
			
				<rect x="253.58" y="198.55" transform="matrix(-1.836970e-16 1 -1 -1.836970e-16 460.4749 -60.6887)" class="st1" width="14.01" height="2.68"/>
			
				<rect x="249.77" y="198.55" transform="matrix(-1.836970e-16 1 -1 -1.836970e-16 456.6635 -56.8772)" class="st1" width="14.01" height="2.68"/>
			
				<rect x="160.9" y="198.55" transform="matrix(-1.836970e-16 1 -1 -1.836970e-16 367.7989 31.9879)" class="st1" width="14.01" height="2.68"/>
			
				<rect x="157.09" y="198.55" transform="matrix(-1.836970e-16 1 -1 -1.836970e-16 363.9874 35.7993)" class="st1" width="14.01" height="2.68"/>
			
				<rect x="250.23" y="246.73" transform="matrix(0.7071 -0.7071 0.7071 0.7071 -99.4309 257.6487)" class="st1" width="22.12" height="4.23"/>
			
				<rect x="146.77" y="143.27" transform="matrix(0.7071 -0.7071 0.7071 0.7071 -56.5761 154.1867)" class="st1" width="22.12" height="4.23"/>
			
				<rect x="151.03" y="147.53" transform="matrix(0.7071 -0.7071 0.7071 0.7071 -58.3386 158.442)" class="st1" width="22.12" height="4.23"/>
			
				<rect x="254.49" y="250.99" transform="matrix(0.7071 -0.7071 0.7071 0.7071 -101.1934 261.9036)" class="st1" width="22.12" height="4.23"/>
			
				<rect x="255.79" y="144.57" transform="matrix(0.7071 0.7071 -0.7071 0.7071 181.8771 -145.7251)" class="st1" width="22.12" height="4.23"/>
			
				<rect x="251.53" y="148.82" transform="matrix(0.7071 0.7071 -0.7071 0.7071 183.6396 -141.4701)" class="st1" width="22.12" height="4.23"/>
			
				<rect x="152.32" y="248.03" transform="matrix(0.7071 0.7071 -0.7071 0.7071 224.7326 -42.2637)" class="st1" width="22.12" height="4.23"/>
			
				<rect x="148.07" y="252.29" transform="matrix(0.7071 0.7071 -0.7071 0.7071 226.495 -38.0087)" class="st1" width="22.12" height="4.23"/>
		</g>
		<g>
			<path class="st1" d="M207.12,95.65c-57.4,0-104.09,46.69-104.09,104.09s46.69,104.09,104.09,104.09s104.09-46.69,104.09-104.09
				S264.51,95.65,207.12,95.65z M207.12,297.05c-53.66,0-97.32-43.66-97.32-97.32s43.66-97.32,97.32-97.32s97.32,43.66,97.32,97.32
				S260.78,297.05,207.12,297.05z"/>
			<circle class="st2" cx="207.12" cy="199.73" r="97.32"/>
			<rect x="206.86" y="62.61" class="st1" width="0.52" height="277.25"/>
			<rect x="68.49" y="200.97" class="st1" width="277.25" height="0.52"/>
			<path class="st3" d="M215.71,62.61c0,0-5.67,82.94-8.59,82.94c-2.93,0-8.59-82.94-8.59-82.94H215.71z"/>
			<path class="st3" d="M207.12,253.92c2.93,0,8.59,85.94,8.59,85.94h-17.19C198.53,339.86,204.19,253.92,207.12,253.92z"/>
			<path class="st3" d="M152.94,201.23c0,3.45-84.44,8.59-84.44,8.59v-17.19C68.49,192.64,152.94,198.83,152.94,201.23z"/>
			<path class="st3" d="M345.75,192.64v17.19c0,0-84.44-5.15-84.44-8.59C261.3,198.83,345.75,192.64,345.75,192.64z"/>
			<g>
				<circle class="st4" cx="207.12" cy="201.23" r="18.23"/>
				<path class="st1" d="M207.12,224.42c-12.78,0-23.18-10.4-23.18-23.18c0-12.78,10.4-23.18,23.18-23.18s23.18,10.4,23.18,23.18
					C230.3,214.02,219.9,224.42,207.12,224.42z M207.12,187.95c-7.33,0-13.29,5.96-13.29,13.29c0,7.33,5.96,13.29,13.29,13.29
					s13.29-5.96,13.29-13.29C220.41,193.91,214.44,187.95,207.12,187.95z"/>
			</g>
			<rect x="200.11" y="150.49" class="st1" width="14.01" height="2.68"/>
			<rect x="200.11" y="154.3" class="st1" width="14.01" height="2.68"/>
			<rect x="200.11" y="243.16" class="st1" width="14.01" height="2.68"/>
			<rect x="200.11" y="246.98" class="st1" width="14.01" height="2.68"/>
			
				<rect x="248.36" y="199.89" transform="matrix(-1.836970e-16 1 -1 -1.836970e-16 456.594 -54.1294)" class="st1" width="14.01" height="2.68"/>
			
				<rect x="244.55" y="199.89" transform="matrix(-1.836970e-16 1 -1 -1.836970e-16 452.7825 -50.318)" class="st1" width="14.01" height="2.68"/>
			
				<rect x="155.68" y="199.89" transform="matrix(-1.836970e-16 1 -1 -1.836970e-16 363.9179 38.5472)" class="st1" width="14.01" height="2.68"/>
			
				<rect x="151.87" y="199.89" transform="matrix(-1.836970e-16 1 -1 -1.836970e-16 360.1064 42.3586)" class="st1" width="14.01" height="2.68"/>
			<rect x="200.11" y="150.49" class="st1" width="14.01" height="2.68"/>
			<rect x="200.11" y="154.3" class="st1" width="14.01" height="2.68"/>
			<rect x="200.11" y="246.98" class="st1" width="14.01" height="2.68"/>
			
				<rect x="248.36" y="199.89" transform="matrix(-1.836970e-16 1 -1 -1.836970e-16 456.594 -54.1294)" class="st1" width="14.01" height="2.68"/>
			
				<rect x="244.55" y="199.89" transform="matrix(-1.836970e-16 1 -1 -1.836970e-16 452.7825 -50.318)" class="st1" width="14.01" height="2.68"/>
			
				<rect x="155.68" y="199.89" transform="matrix(-1.836970e-16 1 -1 -1.836970e-16 363.9179 38.5472)" class="st1" width="14.01" height="2.68"/>
			
				<rect x="151.87" y="199.89" transform="matrix(-1.836970e-16 1 -1 -1.836970e-16 360.1064 42.3586)" class="st1" width="14.01" height="2.68"/>
			
				<rect x="245.01" y="248.07" transform="matrix(0.7071 -0.7071 0.7071 0.7071 -101.9068 254.3497)" class="st5" width="22.12" height="4.23"/>
			
				<rect x="141.55" y="144.61" transform="matrix(0.7071 -0.7071 0.7071 0.7071 -59.052 150.8877)" class="st5" width="22.12" height="4.23"/>
			
				<rect x="145.81" y="148.87" transform="matrix(0.7071 -0.7071 0.7071 0.7071 -60.8144 155.143)" class="st5" width="22.12" height="4.23"/>
			
				<rect x="249.27" y="252.33" transform="matrix(0.7071 -0.7071 0.7071 0.7071 -103.6693 258.6046)" class="st5" width="22.12" height="4.23"/>
			
				<rect x="250.57" y="145.91" transform="matrix(0.7071 0.7071 -0.7071 0.7071 181.2951 -141.6416)" class="st5" width="22.12" height="4.23"/>
			
				<rect x="246.31" y="150.16" transform="matrix(0.7071 0.7071 -0.7071 0.7071 183.0576 -137.3867)" class="st5" width="22.12" height="4.23"/>
			
				<rect x="147.1" y="249.37" transform="matrix(0.7071 0.7071 -0.7071 0.7071 224.1506 -38.1803)" class="st5" width="22.12" height="4.23"/>
			
				<rect x="142.85" y="253.62" transform="matrix(0.7071 0.7071 -0.7071 0.7071 225.913 -33.9253)" class="st5" width="22.12" height="4.23"/>
		</g>
	</g>
	<g>
		<g>
			<g>
				<path class="st6" d="M207.8,71.45c2.51-2.51,5.02-5.02,7.53-7.53c0.55-0.55-0.3-1.4-0.85-0.85c-2.51,2.51-5.02,5.02-7.53,7.53
					C206.41,71.14,207.26,71.99,207.8,71.45L207.8,71.45z"/>
			</g>
		</g>
		<g>
			<g>
				<path class="st6" d="M207.28,70.6c-2.51-2.51-5.02-5.02-7.53-7.53c-0.55-0.55-1.4,0.3-0.85,0.85c2.51,2.51,5.02,5.02,7.53,7.53
					C206.98,71.99,207.83,71.14,207.28,70.6L207.28,70.6z"/>
			</g>
		</g>
		<g>
			<g>
				<path class="st6" d="M207.8,81.07c2.51-2.51,5.02-5.02,7.53-7.53c0.55-0.55-0.3-1.4-0.85-0.85c-2.51,2.51-5.02,5.02-7.53,7.53
					C206.41,80.77,207.26,81.62,207.8,81.07L207.8,81.07z"/>
			</g>
		</g>
		<g>
			<g>
				<path class="st6" d="M207.28,80.22c-2.51-2.51-5.02-5.02-7.53-7.53c-0.55-0.55-1.4,0.3-0.85,0.85c2.51,2.51,5.02,5.02,7.53,7.53
					C206.98,81.62,207.83,80.77,207.28,80.22L207.28,80.22z"/>
			</g>
		</g>
		<g>
			<g>
				<path class="st6" d="M207.94,90.69c2.31-2.1,4.63-4.21,6.94-6.31c0.57-0.52-0.28-1.37-0.85-0.85c-2.31,2.1-4.63,4.21-6.94,6.31
					C206.52,90.36,207.37,91.21,207.94,90.69L207.94,90.69z"/>
			</g>
		</g>
		<g>
			<g>
				<path class="st6" d="M207.46,89.84c-2.31-2.1-4.63-4.21-6.94-6.31c-0.57-0.52-1.42,0.33-0.85,0.85c2.31,2.1,4.63,4.21,6.94,6.31
					C207.18,91.21,208.03,90.36,207.46,89.84L207.46,89.84z"/>
			</g>
		</g>
		<g>
			<g>
				<path class="st6" d="M207.98,112.31c1.51-1.37,3.02-2.74,4.53-4.12c0.57-0.52-0.28-1.37-0.85-0.85
					c-1.51,1.37-3.02,2.74-4.53,4.12C206.55,111.98,207.4,112.83,207.98,112.31L207.98,112.31z"/>
			</g>
		</g>
		<g>
			<g>
				<path class="st6" d="M207.63,111.46c-1.66-1.51-3.33-3.03-4.99-4.54c-0.57-0.52-1.42,0.33-0.85,0.85
					c1.66,1.51,3.33,3.03,4.99,4.54C207.35,112.83,208.2,111.98,207.63,111.46L207.63,111.46z"/>
			</g>
		</g>
		<g>
			<g>
				<path class="st6" d="M207.6,122.56c1.41-1.28,2.82-2.57,4.23-3.85c0.57-0.52-0.28-1.37-0.85-0.85
					c-1.41,1.28-2.82,2.57-4.23,3.85C206.18,122.23,207.03,123.08,207.6,122.56L207.6,122.56z"/>
			</g>
		</g>
		<g>
			<g>
				<path class="st6" d="M207.31,121.71c-1.27-1.15-2.53-2.3-3.8-3.45c-0.57-0.52-1.42,0.33-0.85,0.85c1.27,1.15,2.53,2.3,3.8,3.45
					C207.03,123.08,207.88,122.23,207.31,121.71L207.31,121.71z"/>
			</g>
		</g>
		<g>
			<g>
				<path class="st6" d="M207.73,132.21c0.9-0.82,1.79-1.63,2.69-2.45c0.57-0.52-0.28-1.37-0.85-0.85c-0.9,0.82-1.79,1.63-2.69,2.45
					C206.31,131.88,207.16,132.72,207.73,132.21L207.73,132.21z"/>
			</g>
		</g>
		<g>
			<g>
				<path class="st6" d="M207.55,131.36c-0.8-0.73-1.61-1.46-2.41-2.19c-0.57-0.52-1.42,0.33-0.85,0.85
					c0.8,0.73,1.61,1.46,2.41,2.19C207.27,132.72,208.12,131.88,207.55,131.36L207.55,131.36z"/>
			</g>
		</g>
	</g>
	<g>
		<g>
			<g>
				<path class="st6" d="M337.4,201.66c2.51,2.51,5.02,5.02,7.53,7.53c0.55,0.55,1.4-0.3,0.85-0.85c-2.51-2.51-5.02-5.02-7.53-7.53
					C337.7,200.26,336.85,201.11,337.4,201.66L337.4,201.66z"/>
			</g>
		</g>
		<g>
			<g>
				<path class="st6" d="M338.25,201.14c2.51-2.51,5.02-5.02,7.53-7.53c0.55-0.55-0.3-1.4-0.85-0.85c-2.51,2.51-5.02,5.02-7.53,7.53
					C336.85,200.83,337.7,201.68,338.25,201.14L338.25,201.14z"/>
			</g>
		</g>
		<g>
			<g>
				<path class="st6" d="M327.77,201.66c2.51,2.51,5.02,5.02,7.53,7.53c0.55,0.55,1.4-0.3,0.85-0.85c-2.51-2.51-5.02-5.02-7.53-7.53
					C328.08,200.26,327.23,201.11,327.77,201.66L327.77,201.66z"/>
			</g>
		</g>
		<g>
			<g>
				<path class="st6" d="M328.62,201.14c2.51-2.51,5.02-5.02,7.53-7.53c0.55-0.55-0.3-1.4-0.85-0.85c-2.51,2.51-5.02,5.02-7.53,7.53
					C327.23,200.83,328.07,201.68,328.62,201.14L328.62,201.14z"/>
			</g>
		</g>
		<g>
			<g>
				<path class="st6" d="M318.15,201.79c2.1,2.31,4.21,4.63,6.31,6.94c0.52,0.57,1.37-0.28,0.85-0.85c-2.1-2.31-4.21-4.63-6.31-6.94
					C318.48,200.37,317.63,201.22,318.15,201.79L318.15,201.79z"/>
			</g>
		</g>
		<g>
			<g>
				<path class="st6" d="M319,201.31c2.1-2.31,4.21-4.63,6.31-6.94c0.52-0.57-0.33-1.42-0.85-0.85c-2.1,2.31-4.21,4.63-6.31,6.94
					C317.63,201.03,318.48,201.88,319,201.31L319,201.31z"/>
			</g>
		</g>
		<g>
			<g>
				<path class="st6" d="M296.53,201.83c1.37,1.51,2.74,3.02,4.12,4.53c0.52,0.57,1.37-0.28,0.85-0.85
					c-1.37-1.51-2.74-3.02-4.12-4.53C296.86,200.41,296.01,201.26,296.53,201.83L296.53,201.83z"/>
			</g>
		</g>
		<g>
			<g>
				<path class="st6" d="M297.38,201.48c1.51-1.66,3.03-3.33,4.54-4.99c0.52-0.57-0.33-1.42-0.85-0.85
					c-1.51,1.66-3.03,3.33-4.54,4.99C296.02,201.21,296.86,202.06,297.38,201.48L297.38,201.48z"/>
			</g>
		</g>
		<g>
			<g>
				<path class="st6" d="M286.28,201.46c1.28,1.41,2.57,2.82,3.85,4.23c0.52,0.57,1.37-0.28,0.85-0.85
					c-1.28-1.41-2.57-2.82-3.85-4.23C286.61,200.04,285.76,200.89,286.28,201.46L286.28,201.46z"/>
			</g>
		</g>
		<g>
			<g>
				<path class="st6" d="M287.13,201.17c1.15-1.27,2.3-2.53,3.45-3.8c0.52-0.57-0.33-1.42-0.85-0.85c-1.15,1.27-2.3,2.53-3.45,3.8
					C285.76,200.89,286.61,201.74,287.13,201.17L287.13,201.17z"/>
			</g>
		</g>
		<g>
			<g>
				<path class="st6" d="M276.64,201.59c0.82,0.9,1.63,1.79,2.45,2.69c0.52,0.57,1.37-0.28,0.85-0.85c-0.82-0.9-1.63-1.79-2.45-2.69
					C276.96,200.17,276.12,201.02,276.64,201.59L276.64,201.59z"/>
			</g>
		</g>
		<g>
			<g>
				<path class="st6" d="M277.49,201.4c0.73-0.8,1.46-1.61,2.19-2.41c0.52-0.57-0.33-1.42-0.85-0.85c-0.73,0.8-1.46,1.61-2.19,2.41
					C276.12,201.12,276.96,201.98,277.49,201.4L277.49,201.4z"/>
			</g>
		</g>
	</g>
	<g>
		<g>
			<g>
				<path class="st6" d="M206.69,332.13c-2.51,2.51-5.02,5.02-7.53,7.53c-0.55,0.55,0.3,1.4,0.85,0.85
					c2.51-2.51,5.02-5.02,7.53-7.53C208.09,332.43,207.24,331.58,206.69,332.13L206.69,332.13z"/>
			</g>
		</g>
		<g>
			<g>
				<path class="st6" d="M207.21,332.98c2.51,2.51,5.02,5.02,7.53,7.53c0.55,0.55,1.4-0.3,0.85-0.85c-2.51-2.51-5.02-5.02-7.53-7.53
					C207.52,331.58,206.67,332.43,207.21,332.98L207.21,332.98z"/>
			</g>
		</g>
		<g>
			<g>
				<path class="st6" d="M206.69,322.5c-2.51,2.51-5.02,5.02-7.53,7.53c-0.55,0.55,0.3,1.4,0.85,0.85c2.51-2.51,5.02-5.02,7.53-7.53
					C208.09,322.81,207.24,321.96,206.69,322.5L206.69,322.5z"/>
			</g>
		</g>
		<g>
			<g>
				<path class="st6" d="M207.21,323.35c2.51,2.51,5.02,5.02,7.53,7.53c0.55,0.55,1.4-0.3,0.85-0.85c-2.51-2.51-5.02-5.02-7.53-7.53
					C207.52,321.96,206.67,322.81,207.21,323.35L207.21,323.35z"/>
			</g>
		</g>
		<g>
			<g>
				<path class="st6" d="M206.56,312.88c-2.31,2.1-4.63,4.21-6.94,6.31c-0.57,0.52,0.28,1.37,0.85,0.85
					c2.31-2.1,4.63-4.21,6.94-6.31C207.98,313.21,207.13,312.36,206.56,312.88L206.56,312.88z"/>
			</g>
		</g>
		<g>
			<g>
				<path class="st6" d="M207.04,313.73c2.31,2.1,4.63,4.21,6.94,6.31c0.57,0.52,1.42-0.33,0.85-0.85c-2.31-2.1-4.63-4.21-6.94-6.31
					C207.32,312.36,206.47,313.21,207.04,313.73L207.04,313.73z"/>
			</g>
		</g>
		<g>
			<g>
				<path class="st6" d="M206.52,291.26c-1.51,1.37-3.02,2.74-4.53,4.12c-0.57,0.52,0.28,1.37,0.85,0.85
					c1.51-1.37,3.02-2.74,4.53-4.12C207.94,291.59,207.09,290.75,206.52,291.26L206.52,291.26z"/>
			</g>
		</g>
		<g>
			<g>
				<path class="st6" d="M206.87,292.11c1.66,1.51,3.33,3.03,4.99,4.54c0.57,0.52,1.42-0.33,0.85-0.85
					c-1.66-1.51-3.33-3.03-4.99-4.54C207.14,290.75,206.29,291.59,206.87,292.11L206.87,292.11z"/>
			</g>
		</g>
		<g>
			<g>
				<path class="st6" d="M206.89,281.01c-1.41,1.28-2.82,2.57-4.23,3.85c-0.57,0.52,0.28,1.37,0.85,0.85
					c1.41-1.28,2.82-2.57,4.23-3.85C208.31,281.34,207.46,280.49,206.89,281.01L206.89,281.01z"/>
			</g>
		</g>
		<g>
			<g>
				<path class="st6" d="M207.19,281.86c1.27,1.15,2.53,2.3,3.8,3.45c0.57,0.52,1.42-0.33,0.85-0.85c-1.27-1.15-2.53-2.3-3.8-3.45
					C207.46,280.49,206.61,281.34,207.19,281.86L207.19,281.86z"/>
			</g>
		</g>
		<g>
			<g>
				<path class="st6" d="M206.76,271.37c-0.9,0.82-1.79,1.63-2.69,2.45c-0.57,0.52,0.28,1.37,0.85,0.85
					c0.9-0.82,1.79-1.63,2.69-2.45C208.18,271.69,207.33,270.85,206.76,271.37L206.76,271.37z"/>
			</g>
		</g>
		<g>
			<g>
				<path class="st6" d="M206.95,272.22c0.8,0.73,1.61,1.46,2.41,2.19c0.57,0.52,1.42-0.33,0.85-0.85c-0.8-0.73-1.61-1.46-2.41-2.19
					C207.23,270.85,206.37,271.69,206.95,272.22L206.95,272.22z"/>
			</g>
		</g>
	</g>
	<g>
		<g>
			<g>
				<path class="st6" d="M76.84,200.81c-2.51-2.51-5.02-5.02-7.53-7.53c-0.55-0.55-1.4,0.3-0.85,0.85c2.51,2.51,5.02,5.02,7.53,7.53
					C76.54,202.2,77.39,201.36,76.84,200.81L76.84,200.81z"/>
			</g>
		</g>
		<g>
			<g>
				<path class="st6" d="M75.99,201.33c-2.51,2.51-5.02,5.02-7.53,7.53c-0.55,0.55,0.3,1.4,0.85,0.85c2.51-2.51,5.02-5.02,7.53-7.53
					C77.39,201.63,76.54,200.78,75.99,201.33L75.99,201.33z"/>
			</g>
		</g>
		<g>
			<g>
				<path class="st6" d="M86.46,200.81c-2.51-2.51-5.02-5.02-7.53-7.53c-0.55-0.55-1.4,0.3-0.85,0.85c2.51,2.51,5.02,5.02,7.53,7.53
					C86.16,202.2,87.01,201.35,86.46,200.81L86.46,200.81z"/>
			</g>
		</g>
		<g>
			<g>
				<path class="st6" d="M85.61,201.33c-2.51,2.51-5.02,5.02-7.53,7.53c-0.55,0.55,0.3,1.4,0.85,0.85c2.51-2.51,5.02-5.02,7.53-7.53
					C87.01,201.63,86.16,200.78,85.61,201.33L85.61,201.33z"/>
			</g>
		</g>
		<g>
			<g>
				<path class="st6" d="M96.09,200.67c-2.1-2.31-4.21-4.63-6.31-6.94c-0.52-0.57-1.37,0.28-0.85,0.85c2.1,2.31,4.21,4.63,6.31,6.94
					C95.76,202.09,96.61,201.24,96.09,200.67L96.09,200.67z"/>
			</g>
		</g>
		<g>
			<g>
				<path class="st6" d="M95.24,201.15c-2.1,2.31-4.21,4.63-6.31,6.94c-0.52,0.57,0.33,1.42,0.85,0.85c2.1-2.31,4.21-4.63,6.31-6.94
					C96.6,201.43,95.76,200.58,95.24,201.15L95.24,201.15z"/>
			</g>
		</g>
		<g>
			<g>
				<path class="st6" d="M117.7,200.64c-1.37-1.51-2.74-3.02-4.12-4.53c-0.52-0.57-1.37,0.28-0.85,0.85
					c1.37,1.51,2.74,3.02,4.12,4.53C117.37,202.06,118.22,201.21,117.7,200.64L117.7,200.64z"/>
			</g>
		</g>
		<g>
			<g>
				<path class="st6" d="M116.85,200.98c-1.51,1.66-3.03,3.33-4.54,4.99c-0.52,0.57,0.33,1.42,0.85,0.85
					c1.51-1.66,3.03-3.33,4.54-4.99C118.22,201.26,117.37,200.41,116.85,200.98L116.85,200.98z"/>
			</g>
		</g>
		<g>
			<g>
				<path class="st6" d="M127.95,201.01c-1.28-1.41-2.57-2.82-3.85-4.23c-0.52-0.57-1.37,0.28-0.85,0.85
					c1.28,1.41,2.57,2.82,3.85,4.23C127.63,202.43,128.47,201.58,127.95,201.01L127.95,201.01z"/>
			</g>
		</g>
		<g>
			<g>
				<path class="st6" d="M127.11,201.3c-1.15,1.27-2.3,2.53-3.45,3.8c-0.52,0.57,0.33,1.42,0.85,0.85c1.15-1.27,2.3-2.53,3.45-3.8
					C128.47,201.58,127.63,200.73,127.11,201.3L127.11,201.3z"/>
			</g>
		</g>
		<g>
			<g>
				<path class="st6" d="M137.6,200.88c-0.82-0.9-1.63-1.79-2.45-2.69c-0.52-0.57-1.37,0.28-0.85,0.85c0.82,0.9,1.63,1.79,2.45,2.69
					C137.27,202.3,138.12,201.45,137.6,200.88L137.6,200.88z"/>
			</g>
		</g>
		<g>
			<g>
				<path class="st6" d="M136.75,201.06c-0.73,0.8-1.46,1.61-2.19,2.41c-0.52,0.57,0.33,1.42,0.85,0.85
					c0.73-0.8,1.46-1.61,2.19-2.41C138.12,201.34,137.27,200.49,136.75,201.06L136.75,201.06z"/>
			</g>
		</g>
	</g>
</g>
</svg>
