<?xml version="1.0" encoding="utf-8"?>
<!-- Generator: Adobe Illustrator 25.0.0, SVG Export Plug-In . SVG Version: 6.00 Build 0)  -->
<svg version="1.1" id="Capa_1" xmlns="http://www.w3.org/2000/svg" xmlns:xlink="http://www.w3.org/1999/xlink" x="0px" y="0px"
	 viewBox="0 0 425.2 425.2" style="enable-background:new 0 0 425.2 425.2;" xml:space="preserve">
<style type="text/css">
	.st0{opacity:0.33;}
	.st1{fill:#020203;}
	.st2{opacity:0.33;fill:#020203;}
	.st3{fill:#E30613;stroke:#000000;stroke-miterlimit:10;}
	.st4{fill:#FFFFFF;stroke:#020304;stroke-miterlimit:10;}
	.st5{fill:#AD7A15;stroke:#231F20;stroke-miterlimit:10;}
	.st6{fill:#D84544;stroke:#231F20;stroke-miterlimit:10;}
	.st7{fill:#AD7A15;stroke:#231F20;stroke-width:0.25;stroke-miterlimit:10;}
	.st8{opacity:0.2;fill:#9BBAE3;}
	.st9{fill:#E20E17;}
	.st10{fill:#231F20;}
	.st11{fill:#FFFFFF;}
	.st12{fill:#E30613;}
</style>
<g>
	<g class="st0">
		<rect x="52.06" y="107.9" class="st1" width="97.98" height="160.6"/>
		<rect x="57.19" y="111.17" class="st1" width="89.63" height="151.2"/>
		<g>
			<path class="st1" d="M113.64,191.49h-23c-1.47,0-2.67-1.2-2.67-2.67c0-1.47,1.2-2.67,2.67-2.67h23c1.47,0,2.67,1.2,2.67,2.67
				C116.32,190.28,115.11,191.49,113.64,191.49z"/>
			<path class="st1" d="M117.85,199.7H86.44c-1.47,0-2.67-1.2-2.67-2.67c0-1.47,1.2-2.67,2.67-2.67h31.42c1.47,0,2.67,1.2,2.67,2.67
				C120.53,198.5,119.33,199.7,117.85,199.7z"/>
			<path class="st1" d="M140.36,229.25H63.94c-0.85,0-1.55-0.7-1.55-1.55s0.7-1.55,1.55-1.55h76.42c0.85,0,1.55,0.7,1.55,1.55
				S141.21,229.25,140.36,229.25z"/>
			<path class="st1" d="M140.36,236.46H63.94c-0.85,0-1.55-0.7-1.55-1.55c0-0.85,0.7-1.55,1.55-1.55h76.42
				c0.85,0,1.55,0.7,1.55,1.55C141.91,235.76,141.21,236.46,140.36,236.46z"/>
			<path class="st1" d="M140.36,243.67H63.94c-0.85,0-1.55-0.7-1.55-1.55c0-0.85,0.7-1.55,1.55-1.55h76.42
				c0.85,0,1.55,0.7,1.55,1.55C141.91,242.97,141.21,243.67,140.36,243.67z"/>
			<g>
				<path class="st1" d="M129.67,173.59H74.63c-1.53,0-2.77-1.24-2.77-2.77v-50.73c0-1.53,1.24-2.77,2.77-2.77h55.04
					c1.53,0,2.77,1.24,2.77,2.77v50.73C132.44,172.34,131.2,173.59,129.67,173.59z M74.63,119.57c-0.28,0-0.52,0.24-0.52,0.52v50.73
					c0,0.28,0.24,0.52,0.52,0.52h55.04c0.28,0,0.52-0.24,0.52-0.52v-50.73c0-0.28-0.24-0.52-0.52-0.52H74.63z"/>
			</g>
			<g>
				<polygon class="st1" points="82.57,206.68 84.16,209.91 87.72,210.42 85.15,212.94 85.75,216.49 82.57,214.81 79.38,216.49 
					79.99,212.94 77.41,210.42 80.97,209.91 				"/>
				<polygon class="st1" points="95.62,206.68 97.21,209.91 100.78,210.42 98.2,212.94 98.81,216.49 95.62,214.81 92.43,216.49 
					93.04,212.94 90.46,210.42 94.03,209.91 				"/>
				<polygon class="st1" points="108.67,206.68 110.27,209.91 113.83,210.42 111.25,212.94 111.86,216.49 108.67,214.81 
					105.49,216.49 106.09,212.94 103.52,210.42 107.08,209.91 				"/>
				<polygon class="st1" points="121.73,206.68 123.32,209.91 126.88,210.42 124.3,212.94 124.91,216.49 121.73,214.81 
					118.54,216.49 119.15,212.94 116.57,210.42 120.13,209.91 				"/>
			</g>
		</g>
	</g>
	<g class="st0">
		<rect x="270.5" y="107.9" class="st1" width="97.98" height="160.6"/>
		<rect x="275.63" y="111.17" class="st1" width="89.63" height="151.2"/>
		<g>
			<path class="st1" d="M332.08,191.49h-23c-1.47,0-2.67-1.2-2.67-2.67c0-1.47,1.2-2.67,2.67-2.67h23c1.47,0,2.67,1.2,2.67,2.67
				C334.75,190.28,333.55,191.49,332.08,191.49z"/>
			<path class="st1" d="M336.29,199.7h-31.42c-1.47,0-2.67-1.2-2.67-2.67c0-1.47,1.2-2.67,2.67-2.67h31.42
				c1.47,0,2.67,1.2,2.67,2.67C338.97,198.5,337.76,199.7,336.29,199.7z"/>
			<path class="st1" d="M358.79,229.25h-76.42c-0.85,0-1.55-0.7-1.55-1.55s0.7-1.55,1.55-1.55h76.42c0.85,0,1.55,0.7,1.55,1.55
				S359.65,229.25,358.79,229.25z"/>
			<path class="st1" d="M358.79,236.46h-76.42c-0.85,0-1.55-0.7-1.55-1.55c0-0.85,0.7-1.55,1.55-1.55h76.42
				c0.85,0,1.55,0.7,1.55,1.55C360.34,235.76,359.65,236.46,358.79,236.46z"/>
			<path class="st1" d="M358.79,243.67h-76.42c-0.85,0-1.55-0.7-1.55-1.55c0-0.85,0.7-1.55,1.55-1.55h76.42
				c0.85,0,1.55,0.7,1.55,1.55C360.34,242.97,359.65,243.67,358.79,243.67z"/>
			<g>
				<path class="st1" d="M348.1,173.59h-55.04c-1.53,0-2.77-1.24-2.77-2.77v-50.73c0-1.53,1.24-2.77,2.77-2.77h55.04
					c1.53,0,2.77,1.24,2.77,2.77v50.73C350.87,172.34,349.63,173.59,348.1,173.59z M293.06,119.57c-0.28,0-0.52,0.24-0.52,0.52
					v50.73c0,0.28,0.24,0.52,0.52,0.52h55.04c0.28,0,0.52-0.24,0.52-0.52v-50.73c0-0.28-0.24-0.52-0.52-0.52H293.06z"/>
			</g>
			<g>
				<polygon class="st1" points="301,206.68 302.6,209.91 306.16,210.42 303.58,212.94 304.19,216.49 301,214.81 297.82,216.49 
					298.43,212.94 295.85,210.42 299.41,209.91 				"/>
				<polygon class="st1" points="314.06,206.68 315.65,209.91 319.21,210.42 316.64,212.94 317.24,216.49 314.06,214.81 
					310.87,216.49 311.48,212.94 308.9,210.42 312.46,209.91 				"/>
				<polygon class="st1" points="327.11,206.68 328.7,209.91 332.27,210.42 329.69,212.94 330.3,216.49 327.11,214.81 
					323.92,216.49 324.53,212.94 321.95,210.42 325.52,209.91 				"/>
				<polygon class="st1" points="340.16,206.68 341.76,209.91 345.32,210.42 342.74,212.94 343.35,216.49 340.16,214.81 
					336.97,216.49 337.58,212.94 335,210.42 338.57,209.91 				"/>
			</g>
		</g>
	</g>
	<polygon class="st2" points="281.51,266.89 126.88,266.89 137.82,108.5 287.09,108.5 	"/>
	<g class="st0">
		<rect x="143.12" y="78.52" class="st1" width="133.83" height="219.35"/>
		<rect x="150.13" y="82.99" class="st1" width="122.42" height="206.52"/>
		<g>
			<g>
				<path class="st1" d="M217.95,130.5c0,0-2.47,4-5.52,4c-3.05,0-5.52-4-5.52-4H217.95z"/>
			</g>
			<path class="st1" d="M240.1,192.69h-57.13c-2.01,0-3.65-1.64-3.65-3.65c0-2.01,1.64-3.65,3.65-3.65h57.13
				c2.01,0,3.65,1.64,3.65,3.65C243.75,191.05,242.11,192.69,240.1,192.69z"/>
			<path class="st1" d="M232.99,203.91h-42.91c-2.01,0-3.65-1.64-3.65-3.65c0-2.01,1.64-3.65,3.65-3.65h42.91
				c2.01,0,3.65,1.64,3.65,3.65C236.64,202.27,235,203.91,232.99,203.91z"/>
			<path class="st1" d="M263.72,244.27H159.35c-1.17,0-2.12-0.95-2.12-2.12c0-1.17,0.95-2.12,2.12-2.12h104.38
				c1.17,0,2.12,0.95,2.12,2.12C265.84,243.31,264.89,244.27,263.72,244.27z"/>
			<path class="st1" d="M263.72,254.11H159.35c-1.17,0-2.12-0.95-2.12-2.12c0-1.17,0.95-2.12,2.12-2.12h104.38
				c1.17,0,2.12,0.95,2.12,2.12C265.84,253.16,264.89,254.11,263.72,254.11z"/>
			<path class="st1" d="M263.72,263.96H159.35c-1.17,0-2.12-0.95-2.12-2.12s0.95-2.12,2.12-2.12h104.38c1.17,0,2.12,0.95,2.12,2.12
				S264.89,263.96,263.72,263.96z"/>
			<g>
				<path class="st1" d="M249.13,167.83h-75.18c-1.86,0-3.37-1.51-3.37-3.37V95.17c0-1.86,1.51-3.37,3.37-3.37h75.18
					c1.86,0,3.37,1.51,3.37,3.37v69.29C252.5,166.32,250.98,167.83,249.13,167.83z M173.95,94.05c-0.62,0-1.12,0.5-1.12,1.12v69.29
					c0,0.62,0.5,1.12,1.12,1.12h75.18c0.62,0,1.12-0.5,1.12-1.12V95.17c0-0.62-0.5-1.12-1.12-1.12H173.95z"/>
			</g>
			<g>
				<polygon class="st1" points="175.74,213.44 177.91,217.85 182.78,218.56 179.26,221.99 180.09,226.84 175.74,224.55 
					171.39,226.84 172.22,221.99 168.69,218.56 173.56,217.85 				"/>
				<polygon class="st1" points="193.57,213.44 195.74,217.85 200.61,218.56 197.09,221.99 197.92,226.84 193.57,224.55 
					189.21,226.84 190.04,221.99 186.52,218.56 191.39,217.85 				"/>
				<polygon class="st1" points="211.39,213.44 213.57,217.85 218.44,218.56 214.92,221.99 215.75,226.84 211.39,224.55 
					207.04,226.84 207.87,221.99 204.35,218.56 209.22,217.85 				"/>
				<polygon class="st1" points="229.22,213.44 231.4,217.85 236.26,218.56 232.74,221.99 233.57,226.84 229.22,224.55 
					224.87,226.84 225.7,221.99 222.18,218.56 227.04,217.85 				"/>
				<polygon class="st1" points="247.33,213.44 249.51,217.85 254.38,218.56 250.85,221.99 251.69,226.84 247.33,224.55 
					242.98,226.84 243.81,221.99 240.29,218.56 245.16,217.85 				"/>
			</g>
		</g>
	</g>
	<g class="st0">
		<path class="st1" d="M321.95,128.68c-6.67,0-12.09,5.42-12.09,12.09c0,4.2,2.16,7.91,5.42,10.07
			c-7.39,2.73-12.68,9.81-12.68,18.13v1.61h38.69v-1.61c0-8.32-5.29-15.41-12.68-18.13c3.26-2.17,5.42-5.87,5.42-10.07
			C334.04,134.1,328.62,128.68,321.95,128.68"/>
		<circle class="st1" cx="321.95" cy="140.77" r="8.87"/>
		<path class="st1" d="M305.91,167.36c0.81-8.13,7.69-14.51,16.04-14.51c8.34,0,15.23,6.37,16.04,14.51H305.91z"/>
	</g>
	<g class="st0">
		<path class="st1" d="M213.06,113.23c-8.26,0-14.97,6.72-14.97,14.97c0,5.2,2.67,9.79,6.71,12.48c-9.15,3.37-15.7,12.15-15.7,22.46
			v2h47.91v-2c0-10.3-6.55-19.08-15.7-22.46c4.04-2.68,6.71-7.27,6.71-12.48C228.03,119.94,221.32,113.23,213.06,113.23"/>
		<circle class="st1" cx="213.06" cy="128.2" r="10.98"/>
		<path class="st1" d="M193.2,161.14c1-10.07,9.53-17.97,19.86-17.97c10.33,0,18.86,7.89,19.86,17.97H193.2z"/>
	</g>
	<g class="st0">
		<path class="st1" d="M102.15,128.68c-6.67,0-12.09,5.42-12.09,12.09c0,4.2,2.16,7.91,5.42,10.07
			c-7.39,2.73-12.68,9.81-12.68,18.13v1.61h38.69v-1.61c0-8.32-5.29-15.41-12.68-18.13c3.26-2.17,5.42-5.87,5.42-10.07
			C114.24,134.1,108.81,128.68,102.15,128.68"/>
		<circle class="st1" cx="102.15" cy="140.77" r="8.87"/>
		<path class="st1" d="M86.11,167.36c0.81-8.13,7.69-14.51,16.04-14.51c8.34,0,15.23,6.37,16.04,14.51H86.11z"/>
	</g>
</g>
<g>
	<rect x="50.79" y="105.38" class="st3" width="97.98" height="160.6"/>
	<rect x="55.92" y="108.66" class="st4" width="89.63" height="151.2"/>
	<g>
		<path d="M112.38,188.97h-23c-1.47,0-2.67-1.2-2.67-2.67c0-1.47,1.2-2.67,2.67-2.67h23c1.47,0,2.67,1.2,2.67,2.67
			C115.05,187.77,113.85,188.97,112.38,188.97z"/>
		<path d="M116.59,197.19H85.17c-1.47,0-2.67-1.2-2.67-2.67c0-1.47,1.2-2.67,2.67-2.67h31.42c1.47,0,2.67,1.2,2.67,2.67
			C119.26,195.98,118.06,197.19,116.59,197.19z"/>
		<path d="M139.09,226.73H62.67c-0.85,0-1.55-0.7-1.55-1.55s0.7-1.55,1.55-1.55h76.42c0.85,0,1.55,0.7,1.55,1.55
			S139.94,226.73,139.09,226.73z"/>
		<path d="M139.09,233.94H62.67c-0.85,0-1.55-0.7-1.55-1.55c0-0.85,0.7-1.55,1.55-1.55h76.42c0.85,0,1.55,0.7,1.55,1.55
			C140.64,233.24,139.94,233.94,139.09,233.94z"/>
		<path d="M139.09,241.15H62.67c-0.85,0-1.55-0.7-1.55-1.55s0.7-1.55,1.55-1.55h76.42c0.85,0,1.55,0.7,1.55,1.55
			S139.94,241.15,139.09,241.15z"/>
		<g>
			<path class="st5" d="M128.4,171.07H73.36c-1.53,0-2.77-1.24-2.77-2.77v-50.73c0-1.53,1.24-2.77,2.77-2.77h55.04
				c1.53,0,2.77,1.24,2.77,2.77v50.73C131.17,169.83,129.93,171.07,128.4,171.07z M73.36,117.06c-0.28,0-0.52,0.24-0.52,0.52v50.73
				c0,0.28,0.24,0.52,0.52,0.52h55.04c0.28,0,0.52-0.24,0.52-0.52v-50.73c0-0.28-0.24-0.52-0.52-0.52H73.36z"/>
		</g>
		<g>
			<polygon class="st5" points="81.3,204.16 82.89,207.39 86.46,207.91 83.88,210.42 84.49,213.97 81.3,212.3 78.11,213.97 
				78.72,210.42 76.14,207.91 79.71,207.39 			"/>
			<polygon class="st5" points="94.35,204.16 95.95,207.39 99.51,207.91 96.93,210.42 97.54,213.97 94.35,212.3 91.17,213.97 
				91.78,210.42 89.2,207.91 92.76,207.39 			"/>
			<polygon class="st5" points="107.41,204.16 109,207.39 112.56,207.91 109.98,210.42 110.59,213.97 107.41,212.3 104.22,213.97 
				104.83,210.42 102.25,207.91 105.81,207.39 			"/>
			<polygon class="st5" points="120.46,204.16 122.05,207.39 125.62,207.91 123.04,210.42 123.65,213.97 120.46,212.3 
				117.27,213.97 117.88,210.42 115.3,207.91 118.86,207.39 			"/>
		</g>
	</g>
</g>
<g>
	<rect x="269.23" y="105.38" class="st6" width="97.98" height="160.6"/>
	<rect x="274.36" y="108.66" class="st4" width="89.63" height="151.2"/>
	<g>
		<path d="M330.81,188.97h-23c-1.47,0-2.67-1.2-2.67-2.67c0-1.47,1.2-2.67,2.67-2.67h23c1.47,0,2.67,1.2,2.67,2.67
			C333.49,187.77,332.28,188.97,330.81,188.97z"/>
		<path d="M335.02,197.19h-31.42c-1.47,0-2.67-1.2-2.67-2.67c0-1.47,1.2-2.67,2.67-2.67h31.42c1.47,0,2.67,1.2,2.67,2.67
			C337.7,195.98,336.5,197.19,335.02,197.19z"/>
		<path d="M357.53,226.73h-76.42c-0.85,0-1.55-0.7-1.55-1.55s0.7-1.55,1.55-1.55h76.42c0.85,0,1.55,0.7,1.55,1.55
			S358.38,226.73,357.53,226.73z"/>
		<path d="M357.53,233.94h-76.42c-0.85,0-1.55-0.7-1.55-1.55c0-0.85,0.7-1.55,1.55-1.55h76.42c0.85,0,1.55,0.7,1.55,1.55
			C359.08,233.24,358.38,233.94,357.53,233.94z"/>
		<path d="M357.53,241.15h-76.42c-0.85,0-1.55-0.7-1.55-1.55s0.7-1.55,1.55-1.55h76.42c0.85,0,1.55,0.7,1.55,1.55
			S358.38,241.15,357.53,241.15z"/>
		<g>
			<path class="st7" d="M346.84,171.07h-55.04c-1.53,0-2.77-1.24-2.77-2.77v-50.73c0-1.53,1.24-2.77,2.77-2.77h55.04
				c1.53,0,2.77,1.24,2.77,2.77v50.73C349.61,169.83,348.37,171.07,346.84,171.07z M291.79,117.06c-0.28,0-0.52,0.24-0.52,0.52
				v50.73c0,0.28,0.24,0.52,0.52,0.52h55.04c0.28,0,0.52-0.24,0.52-0.52v-50.73c0-0.28-0.24-0.52-0.52-0.52H291.79z"/>
		</g>
		<g>
			<polygon class="st7" points="299.74,204.16 301.33,207.39 304.89,207.91 302.32,210.42 302.92,213.97 299.74,212.3 
				296.55,213.97 297.16,210.42 294.58,207.91 298.14,207.39 			"/>
			<polygon class="st7" points="312.79,204.16 314.38,207.39 317.95,207.91 315.37,210.42 315.98,213.97 312.79,212.3 309.6,213.97 
				310.21,210.42 307.63,207.91 311.2,207.39 			"/>
			<polygon class="st7" points="325.84,204.16 327.44,207.39 331,207.91 328.42,210.42 329.03,213.97 325.84,212.3 322.66,213.97 
				323.26,210.42 320.69,207.91 324.25,207.39 			"/>
			<polygon class="st7" points="338.9,204.16 340.49,207.39 344.05,207.91 341.47,210.42 342.08,213.97 338.9,212.3 335.71,213.97 
				336.32,210.42 333.74,207.91 337.3,207.39 			"/>
		</g>
	</g>
</g>
<polygon class="st8" points="280.24,264.37 125.62,264.37 136.55,105.98 285.82,105.98 "/>
<g>
	<g>
		<rect x="141.36" y="75.51" class="st9" width="134.83" height="220.35"/>
		<path class="st10" d="M275.68,76.01v219.35H141.86V76.01H275.68 M276.68,75.01h-1H141.86h-1v1v219.35v1h1h133.83h1v-1V76.01V75.01
			L276.68,75.01z"/>
	</g>
	<rect x="148.87" y="80.48" class="st4" width="122.42" height="206.52"/>
	<g>
		<g>
			<path class="st11" d="M216.69,127.98c0,0-2.47,4-5.52,4c-3.05,0-5.52-4-5.52-4H216.69z"/>
		</g>
		<path d="M238.83,190.17H181.7c-2.01,0-3.65-1.64-3.65-3.65c0-2.01,1.64-3.65,3.65-3.65h57.13c2.01,0,3.65,1.64,3.65,3.65
			C242.48,188.53,240.84,190.17,238.83,190.17z"/>
		<path d="M231.72,201.4h-42.91c-2.01,0-3.65-1.64-3.65-3.65c0-2.01,1.64-3.65,3.65-3.65h42.91c2.01,0,3.65,1.64,3.65,3.65
			C235.38,199.75,233.73,201.4,231.72,201.4z"/>
		<path d="M262.46,241.75H158.08c-1.17,0-2.12-0.95-2.12-2.12c0-1.17,0.95-2.12,2.12-2.12h104.38c1.17,0,2.12,0.95,2.12,2.12
			C264.58,240.8,263.62,241.75,262.46,241.75z"/>
		<path d="M262.46,251.6H158.08c-1.17,0-2.12-0.95-2.12-2.12c0-1.17,0.95-2.12,2.12-2.12h104.38c1.17,0,2.12,0.95,2.12,2.12
			C264.58,250.65,263.62,251.6,262.46,251.6z"/>
		<path d="M262.46,261.45H158.08c-1.17,0-2.12-0.95-2.12-2.12c0-1.17,0.95-2.12,2.12-2.12h104.38c1.17,0,2.12,0.95,2.12,2.12
			C264.58,260.49,263.62,261.45,262.46,261.45z"/>
		<g>
			<path class="st7" d="M247.86,165.31h-75.18c-1.86,0-3.37-1.51-3.37-3.37V92.65c0-1.86,1.51-3.37,3.37-3.37h75.18
				c1.86,0,3.37,1.51,3.37,3.37v69.29C251.23,163.8,249.72,165.31,247.86,165.31z M172.68,91.54c-0.62,0-1.12,0.5-1.12,1.12v69.29
				c0,0.62,0.5,1.12,1.12,1.12h75.18c0.62,0,1.12-0.5,1.12-1.12V92.65c0-0.62-0.5-1.12-1.12-1.12H172.68z"/>
		</g>
		<g>
			<polygon class="st7" points="174.47,210.92 176.65,215.33 181.52,216.04 177.99,219.47 178.82,224.32 174.47,222.03 
				170.12,224.32 170.95,219.47 167.43,216.04 172.3,215.33 			"/>
			<polygon class="st7" points="192.3,210.92 194.48,215.33 199.34,216.04 195.82,219.47 196.65,224.32 192.3,222.03 187.95,224.32 
				188.78,219.47 185.26,216.04 190.12,215.33 			"/>
			<polygon class="st7" points="210.13,210.92 212.3,215.33 217.17,216.04 213.65,219.47 214.48,224.32 210.13,222.03 
				205.77,224.32 206.61,219.47 203.08,216.04 207.95,215.33 			"/>
			<polygon class="st7" points="227.95,210.92 230.13,215.33 235,216.04 231.48,219.47 232.31,224.32 227.95,222.03 223.6,224.32 
				224.43,219.47 220.91,216.04 225.78,215.33 			"/>
			<polygon class="st7" points="246.07,210.92 248.24,215.33 253.11,216.04 249.59,219.47 250.42,224.32 246.07,222.03 
				241.71,224.32 242.54,219.47 239.02,216.04 243.89,215.33 			"/>
		</g>
	</g>
</g>
<g>
	<path class="st3" d="M320.69,126.16c-6.67,0-12.09,5.42-12.09,12.09c0,4.2,2.16,7.91,5.42,10.07c-7.39,2.73-12.68,9.81-12.68,18.13
		v1.61h38.69v-1.61c0-8.32-5.29-15.41-12.68-18.13c3.26-2.17,5.42-5.87,5.42-10.07C332.78,131.59,327.35,126.16,320.69,126.16"/>
	<circle class="st12" cx="320.69" cy="138.25" r="8.87"/>
	<path class="st12" d="M304.65,164.85c0.81-8.13,7.69-14.51,16.04-14.51c8.34,0,15.23,6.37,16.04,14.51H304.65z"/>
</g>
<g>
	<path class="st3" d="M211.79,110.71c-8.26,0-14.97,6.72-14.97,14.97c0,5.2,2.67,9.79,6.71,12.48c-9.15,3.37-15.7,12.15-15.7,22.46
		v2h47.91v-2c0-10.3-6.55-19.08-15.7-22.46c4.04-2.68,6.71-7.27,6.71-12.48C226.77,117.43,220.05,110.71,211.79,110.71"/>
	<circle class="st12" cx="211.79" cy="125.68" r="10.98"/>
	<path class="st12" d="M191.93,158.62c1-10.07,9.53-17.97,19.86-17.97c10.33,0,18.86,7.89,19.86,17.97H191.93z"/>
</g>
<g>
	<path class="st3" d="M100.88,126.16c-6.67,0-12.09,5.42-12.09,12.09c0,4.2,2.16,7.91,5.42,10.07c-7.39,2.73-12.68,9.81-12.68,18.13
		v1.61h38.69v-1.61c0-8.32-5.29-15.41-12.68-18.13c3.26-2.17,5.42-5.87,5.42-10.07C112.97,131.59,107.55,126.16,100.88,126.16"/>
	<circle class="st12" cx="100.88" cy="138.25" r="8.87"/>
	<path class="st12" d="M84.84,164.85c0.81-8.13,7.69-14.51,16.04-14.51c8.34,0,15.23,6.37,16.04,14.51H84.84z"/>
</g>
</svg>
