<?xml version="1.0" encoding="utf-8"?>
<!-- Generator: Adobe Illustrator 25.0.0, SVG Export Plug-In . SVG Version: 6.00 Build 0)  -->
<svg version="1.1" id="Capa_1" xmlns="http://www.w3.org/2000/svg" xmlns:xlink="http://www.w3.org/1999/xlink" x="0px" y="0px"
	 viewBox="0 0 425.2 425.2" style="enable-background:new 0 0 425.2 425.2;" xml:space="preserve">
<style type="text/css">
	.st0{opacity:0.29;}
	.st1{fill:#020203;}
	.st2{fill:#E52521;stroke:#010202;stroke-width:2;stroke-miterlimit:10;}
</style>
<g class="st0">
	<path class="st1" d="M362.7,147.16v57.81h-85.38c-1.51,0-5.96-5.68-6.76-4.41l-2.27-4.81c-0.73-1.55-2.26-2.55-4.02-2.52
		c-1.72,0.02-6.26-4.6-6.97-3.04l-8.39,21.06l-8.24-33.03c-0.67-1.88-2.75-6.96-4.74-6.78c-1.99,0.17-3.39,5.53-6.92-2.48
		l-9.14,52.5L211.8,130c-0.24-2.18-2.06-3.85-4.25-3.91c-2.18-0.02-4.09,1.52-7.63-0.34l-12.51,76.02l-4.45-34.04
		c-0.41-2.05-2.19-3.52-4.28-3.53c-2.09,0-3.89,1.43-4.32,3.47l-8.03,37.31H66.25v-57.81h98.85V48.31h98.74v98.85H362.7z"/>
	<path class="st1" d="M279.87,213.76h82.83v32.15h-98.85v98.85h-98.74v-98.85H66.25v-32.15h103.64c2.08,0,3.86-1.44,4.3-3.47
		l1.01-21.2l8.14,40.62c0.42,2.06,5.6,4.95,7.68,4.95h0.08c2.12-0.04,3.92-1.58,4.27-3.68l7.7-69.17l11.42,103.84
		c0.24,2.17,5.29,1.26,7.47,1.33h0.14c2.12,0,3.96-1.53,4.32-3.64l7.47-65.7l9.46,32.38c0.55,1.54,6.61-1.63,8.22-1.36
		c2.04,0.35,3.95-0.72,4.76-2.53l4.47-14.12l4.36,9.46c0.45,0.96,5.21-1.47,6.15-1.02c2.17,1.06,4.64,0.18,5.75-1.76L279.87,213.76z
		"/>
</g>
<g>
	<path class="st2" d="M357.96,146.4v57.36h-84.71c-1.49,0-2.88,0.77-3.68,2.03l-5.29-11.18c-0.73-1.54-2.24-2.53-3.98-2.5
		c-1.7,0.02-3.24,1.02-3.94,2.58l-7.44,16.57l-12.04-34.04c-0.66-1.87-2.5-3.07-4.47-2.89c-1.97,0.17-3.59,1.65-3.94,3.6
		l-9.07,52.09l-11.17-100.65c-0.24-2.16-2.04-3.82-4.21-3.88c-2.16-0.02-4.06,1.5-4.42,3.65l-12.41,75.43l-7.57-37.76
		c-0.4-2.03-2.17-3.5-4.24-3.51c-2.08,0-3.86,1.42-4.29,3.44l-7.97,37.02H63.82V146.4h98.08V48.31h97.98v98.08H357.96z"/>
	<path class="st2" d="M275.77,212.47h82.18v31.9h-98.08v98.08H161.9v-98.08H63.82v-31.9h102.83c2.06,0,3.83-1.43,4.26-3.44
		l4.29-19.94l8.14,40.62c0.41,2.04,2.2,3.51,4.27,3.51h0.08c2.11-0.04,3.89-1.57,4.23-3.65l11.14-67.75l11.04,99.59
		c0.24,2.15,2.03,3.81,4.19,3.88h0.14c2.11,0,3.93-1.52,4.29-3.61l11.47-65.86l10.06,28.43c0.55,1.53,1.83,2.76,3.43,3.03
		c2.02,0.34,3.92-0.72,4.72-2.51l8.03-17.86l4.73,10c0.45,0.95,1.17,1.77,2.11,2.22c2.15,1.05,4.61,0.18,5.71-1.74L275.77,212.47z"
		/>
</g>
</svg>
