<?xml version="1.0" encoding="utf-8"?>
<!-- Generator: Adobe Illustrator 25.0.0, SVG Export Plug-In . SVG Version: 6.00 Build 0)  -->
<svg version="1.1" id="Capa_1" xmlns="http://www.w3.org/2000/svg" xmlns:xlink="http://www.w3.org/1999/xlink" x="0px" y="0px"
	 viewBox="0 0 425.2 425.2" style="enable-background:new 0 0 425.2 425.2;" xml:space="preserve">
<style type="text/css">
	.st0{opacity:0.35;}
	.st1{fill:#3F3F3F;}
	.st2{opacity:0.36;}
	.st3{opacity:0.32;}
	.st4{fill:#AD7A15;stroke:#231F20;stroke-width:3;stroke-miterlimit:10;}
	.st5{fill:#010202;}
	.st6{fill:#5A7CBD;}
	.st7{fill:#FFFFFF;}
	.st8{fill:#E30613;stroke:#231F20;stroke-width:0.25;stroke-miterlimit:10;}
	.st9{fill:#AD7A15;stroke:#231F20;stroke-width:0.25;stroke-miterlimit:10;}
	.st10{fill:#35446C;}
	.st11{fill:#657BA1;}
	.st12{fill:#E30613;stroke:#000000;stroke-width:2;stroke-miterlimit:10;}
	.st13{fill:#040506;}
	.st14{fill:#020304;}
	.st15{fill:#E30613;}
	.st16{fill:#231F20;}
</style>
<g>
	<g class="st0">
		<g>
			<g>
				<g>
					<path class="st1" d="M347.33,300.18l-148.57-0.19c-4.28-0.01-7.75-3.52-7.74-7.85l0.25-212.48c0.01-4.33,3.48-7.84,7.76-7.83
						l148.57,0.19c4.28,0.01,7.75,3.52,7.74,7.85l-0.25,212.48C355.08,296.68,351.61,300.19,347.33,300.18z"/>
				</g>
			</g>
		</g>
		<g>
			<g>
				<g>
					<path class="st1" d="M342.07,300.18l-148.57-0.19c-4.28-0.01-7.75-3.52-7.74-7.85L186,79.66c0.01-4.33,3.48-7.84,7.76-7.83
						l148.57,0.19c4.28,0.01,7.75,3.52,7.74,7.85l-0.25,212.48C349.82,296.68,346.35,300.19,342.07,300.18z"/>
				</g>
			</g>
		</g>
		<g>
			<g>
				<g>
					<path class="st1" d="M342.51,300.37l-149.45-0.19c-4.51-0.01-8.17-3.81-8.16-8.49l0.25-211.59c0-2.26,0.85-4.39,2.4-5.99
						c1.54-1.6,3.6-2.48,5.78-2.48c0,0,0.01,0,0.01,0l149.45,0.19c4.51,0.01,8.17,3.81,8.16,8.49l-0.04,36.95l-1.04,0l0.04-36.95
						c0-4.09-3.19-7.43-7.12-7.43l-149.45-0.19c-1.91-0.02-3.69,0.77-5.04,2.16c-1.35,1.4-2.1,3.27-2.1,5.25l-0.25,211.59
						c0,4.09,3.19,7.43,7.12,7.43l149.45,0.19L342.51,300.37z"/>
				</g>
			</g>
		</g>
		<g class="st2">
			<g>
				<g>
					
						<rect x="202.5" y="90.79" transform="matrix(1 1.272460e-03 -1.272460e-03 1 0.2423 -0.3459)" class="st1" width="138.92" height="198.87"/>
				</g>
			</g>
		</g>
		<g>
			<g>
				<g>
					
						<rect x="198.46" y="86.57" transform="matrix(1 1.272460e-03 -1.272460e-03 1 0.2369 -0.3408)" class="st1" width="138.92" height="198.87"/>
				</g>
			</g>
		</g>
		<g>
			<rect x="213.1" y="104.2" class="st1" width="109.63" height="31.78"/>
		</g>
		<g>
			<rect x="212.32" y="147.54" class="st1" width="29.8" height="30.16"/>
		</g>
		<g>
			<rect x="212.32" y="194.39" class="st1" width="29.8" height="30.16"/>
		</g>
		<g>
			<rect x="212.32" y="241.25" class="st1" width="29.8" height="30.16"/>
		</g>
		<g>
			<polygon class="st1" points="242.65,178.22 233.64,178.22 233.64,177.17 241.6,177.17 241.6,147.54 242.65,147.54 			"/>
		</g>
		<g>
			<polygon class="st1" points="242.65,225.08 226.06,225.08 226.06,224.03 241.6,224.03 241.6,194.39 242.65,194.39 			"/>
		</g>
		<g>
			<polygon class="st1" points="242.65,271.94 212.32,271.94 212.32,270.88 241.6,270.88 241.6,241.25 242.65,241.25 			"/>
		</g>
		<g>
			<g>
				<rect x="248.51" y="156.82" class="st1" width="34.33" height="1.05"/>
			</g>
			<g>
				<rect x="248.51" y="167.36" class="st1" width="51.36" height="1.05"/>
			</g>
		</g>
		<g>
			<g>
				<rect x="248.51" y="203.67" class="st1" width="42.18" height="1.05"/>
			</g>
			<g>
				<rect x="248.51" y="214.22" class="st1" width="74.22" height="1.05"/>
			</g>
		</g>
		<g>
			<g>
				<rect x="248.51" y="250.53" class="st1" width="42.18" height="1.05"/>
			</g>
			<g>
				<rect x="248.51" y="261.08" class="st1" width="74.22" height="1.05"/>
			</g>
		</g>
		<g>
			<polygon class="st1" points="225.65,266.4 216.61,254.85 219.47,252.56 225.61,260.4 234.96,248.13 237.85,250.39 			"/>
		</g>
		<g class="st3">
			<g>
				<path class="st1" d="M220.25,191.13c-0.02,0.08-0.04,0.16-0.07,0.25c-8.59,35.49-25.5,75.69-58.7,101.04
					c-3.6,2.75-7.39,5.32-11.38,7.69h-12.32C55.43,251.17,59.1,117.33,59.1,117.33c14.44-1.48,30.58-7.7,47.42-15.89
					c12.16-5.92,25.29-8.82,38.39-8.67c12.43,0.13,24.84,3,36.4,8.6c16.96,8.23,33.23,14.48,47.71,15.96
					C229.02,117.33,229.88,151.22,220.25,191.13z"/>
			</g>
		</g>
		<g>
			<g>
				<g>
					<g>
						<g>
							<path class="st1" d="M216.04,187.44c-0.02,0.09-0.04,0.17-0.06,0.25c-8.7,35.49-25.83,75.69-59.45,101.04
								c-5.47,4.13-11.39,7.86-17.77,11.12c-0.77-0.39-1.53-0.79-2.29-1.2c-87.45-46.98-83.61-185-83.61-185
								c14.63-1.48,30.97-7.7,48.02-15.9c12.32-5.92,25.61-8.81,38.88-8.67c12.59,0.13,25.16,2.99,36.86,8.6
								c17.18,8.23,33.65,14.48,48.32,15.96C224.92,113.64,225.8,147.53,216.04,187.44z"/>
						</g>
					</g>
					<g>
						<g>
							<path class="st1" d="M216.04,187.44c-0.02,0.09-0.04,0.17-0.06,0.25c-8.91,35.38-26.15,75.21-59.45,101.04
								c-5.47,4.13-11.39,7.86-17.77,11.12c-0.77-0.39-1.53-0.79-2.29-1.2c9.72-20.1,68.38-149.16,3.28-209.57
								c12.59,0.13,25.16,2.99,36.86,8.6c17.18,8.23,33.65,14.48,48.32,15.96C224.92,113.64,225.8,147.53,216.04,187.44z"/>
						</g>
					</g>
					<g>
						<g>
							<g>
								<path class="st1" d="M138.78,281.86l-0.59-0.3c-16.91-8.62-31.16-22.06-42.35-39.94c-8.92-14.26-15.92-31.35-20.81-50.82
									c-8.31-33.08-7.61-61.98-7.6-62.27l0.03-1.16l1.14-0.12c10.38-1.05,22.68-5.13,38.72-12.84c19.98-9.6,42.89-9.62,62.86-0.05
									c16.16,7.74,28.54,11.84,38.97,12.9l1.14,0.12l0.03,1.16c0.01,0.29,0.65,29.19-7.71,62.27
									c-4.92,19.46-11.94,36.56-20.88,50.82c-11.21,17.88-25.47,31.32-42.38,39.94L138.78,281.86z M70.03,129.75
									c-0.03,5.65,0.25,31.43,7.55,60.46c7.52,29.92,24.24,69.52,61.2,88.69c36.96-19.17,53.73-58.76,61.3-88.69
									c7.34-29.03,7.68-54.8,7.66-60.46c-10.48-1.26-22.81-5.41-38.66-13.01c-19.26-9.23-41.36-9.21-60.63,0.05
									C92.71,124.36,80.46,128.49,70.03,129.75z"/>
							</g>
						</g>
					</g>
				</g>
				<g>
					<g>
						<g>
							<polygon class="st1" points="180.06,174.3 180.06,195.01 151.25,195.01 151.25,224.16 130.79,224.16 130.79,195.01 
								101.99,195.01 101.99,174.3 130.79,174.3 130.79,145.16 151.25,145.16 151.25,174.3 							"/>
						</g>
					</g>
				</g>
			</g>
			<g>
				<g>
					<path class="st1" d="M138.52,300.32c-0.85-0.43-1.6-0.83-2.3-1.21c-31.56-16.95-54.83-47.47-69.17-90.7
						c-11.48-34.6-14.09-68.16-14.62-85.09l1.04-0.03c0.98,31.06,9.88,135.48,83.24,174.9c0.69,0.38,1.44,0.77,2.28,1.2
						L138.52,300.32z"/>
				</g>
				<g>
					<path class="st1" d="M156.84,289.15l-0.62-0.85c28.13-21.2,48.06-55.1,59.25-100.74c0.03-0.1,0.05-0.17,0.06-0.24
						c6.48-26.5,8.23-50.53,8.7-62.49l1.04,0.04c-0.47,12-2.23,36.11-8.72,62.69c-0.02,0.09-0.04,0.19-0.07,0.28
						c-4.97,20.28-11.84,38.6-20.42,54.42C185.52,261.71,172.32,277.48,156.84,289.15z"/>
				</g>
				<g>
					<path class="st1" d="M217.76,113.11c-11.55-2.21-24.7-6.97-41.38-14.96c-11.56-5.54-23.89-8.42-36.64-8.55
						c-13.24-0.14-26.61,2.83-38.65,8.62c-16.28,7.82-29.14,12.52-40.48,14.77l-0.2-1.03c11.25-2.24,24.03-6.91,40.23-14.69
						c12.18-5.85,25.71-8.87,39.1-8.72c12.91,0.13,25.38,3.05,37.08,8.65c16.59,7.95,29.66,12.68,41.13,14.87L217.76,113.11z"/>
				</g>
			</g>
		</g>
		<g>
			<g>
				<g>
					<g>
						<g>
							<g>
								<path class="st1" d="M280.85,68.12l0-0.13c0.01-7.98-7.26-14.29-15.57-12.64c-6.01,1.19-10.26,6.6-10.27,12.71v0.03
									l-16.95-0.02c-2.12,0-3.84,1.71-3.84,3.82l-0.02,16.97c0,2.11,1.71,3.83,3.83,3.83l59.74,0.08c2.12,0,3.84-1.71,3.84-3.82
									l0.02-16.97c0-2.11-1.71-3.83-3.83-3.83L280.85,68.12z M268.79,69.52c-2.71,0.6-5.08-1.75-4.48-4.45
									c0.3-1.36,1.4-2.46,2.77-2.77c2.71-0.6,5.08,1.76,4.48,4.46C271.25,68.12,270.15,69.21,268.79,69.52z"/>
							</g>
						</g>
					</g>
				</g>
				<g>
					<g>
						<g>
							<g>
								<path class="st1" d="M248.38,93.23l-10.35-0.01c-1.16,0-2.25-0.45-3.08-1.28c-0.82-0.82-1.28-1.92-1.27-3.08l0.02-16.97
									l1.04,0l-0.02,16.97c0,0.88,0.34,1.71,0.96,2.33c0.63,0.63,1.46,0.97,2.34,0.97l10.35,0.01L248.38,93.23z M267.94,70.14
									c-1.14,0-2.23-0.44-3.03-1.27c-1.01-1.03-1.42-2.49-1.1-3.92c0.35-1.57,1.59-2.82,3.17-3.17c1.46-0.33,2.96,0.11,3.99,1.16
									c1.01,1.03,1.43,2.5,1.11,3.93c-0.35,1.57-1.59,2.81-3.17,3.16l0,0C268.58,70.1,268.26,70.14,267.94,70.14z M267.93,62.74
									c-0.24,0-0.49,0.03-0.73,0.08c-1.16,0.26-2.12,1.21-2.37,2.37c-0.24,1.09,0.06,2.16,0.83,2.94c0.78,0.8,1.91,1.12,3.03,0.87
									l0,0c1.16-0.26,2.11-1.2,2.37-2.36c0.24-1.09-0.06-2.17-0.83-2.95C269.61,63.07,268.79,62.74,267.93,62.74z M297.8,68.67
									l-17.47-0.02v-0.66c0-3.68-1.62-7.14-4.44-9.5c-2.89-2.42-6.73-3.37-10.51-2.62c-5.7,1.13-9.84,6.25-9.85,12.19l0,0.53
									l-0.52,0.03l-16.95-0.02l0-1.05l16.44,0.02c0.24-6.24,4.66-11.54,10.68-12.73c4.09-0.81,8.24,0.23,11.37,2.84
									c2.97,2.48,4.71,6.07,4.82,9.92l16.43,0.02L297.8,68.67z"/>
							</g>
						</g>
					</g>
				</g>
			</g>
			<g>
				<rect x="256.25" y="92.23" class="st1" width="26.48" height="1.05"/>
			</g>
		</g>
		<g>
			<rect x="62.62" y="299.59" class="st1" width="320.47" height="1.05"/>
		</g>
		<g>
			<g>
				<path class="st1" d="M327.71,151.95c-0.01,0.77-0.15,1.55-0.38,2.32c-2.12,6.92-12.32,13.62-12.32,13.62s-10.2-6.69-12.32-13.62
					c-0.24-0.77-0.37-1.55-0.38-2.32c0-3.91,3.13-7.09,7-7.09c2.35,0,4.44,1.18,5.71,2.98c1.27-1.8,3.35-2.98,5.7-2.98
					C324.58,144.87,327.71,148.04,327.71,151.95z"/>
			</g>
			<g>
				<path class="st1" d="M309.22,164c-3.76-3.41-6.12-6.63-7.03-9.57c-0.25-0.8-0.38-1.63-0.41-2.46c-0.06-2.13,0.64-3.99,2.02-5.39
					c1.42-1.44,3.55-2.3,5.52-2.24c2.08,0.06,4.32,1.13,5.68,2.66c1.42-1.67,3.51-2.66,5.71-2.66c4.15,0,7.52,3.42,7.52,7.61h-1.04
					c0-3.62-2.91-6.56-6.48-6.56c-2.09,0-4.06,1.03-5.28,2.76l-0.42,0.6l-0.42-0.6c-1.1-1.56-3.28-2.7-5.3-2.76
					c-1.71-0.05-3.53,0.69-4.76,1.93c-1.17,1.19-1.76,2.78-1.71,4.61c0.02,0.73,0.14,1.47,0.36,2.18c0.83,2.72,3.16,5.86,6.73,9.09
					L309.22,164z"/>
			</g>
			<g>
				<path class="st1" d="M322.26,162.61l-0.73-0.75c1.42-1.42,2.6-2.81,3.5-4.14l0.86,0.6
					C324.95,159.71,323.73,161.15,322.26,162.61z"/>
			</g>
		</g>
	</g>
	<g>
		<g>
			<g>
				<path class="st4" d="M346.77,301.66l-150.07-0.19c-4.32-0.01-7.82-3.51-7.82-7.84l0.25-212.08c0.01-4.32,3.51-7.83,7.84-7.82
					l150.07,0.19c4.32,0.01,7.82,3.51,7.82,7.84l-0.25,212.08C354.61,298.16,351.1,301.66,346.77,301.66z"/>
			</g>
		</g>
	</g>
	<g>
		<g>
			<g>
				<path class="st4" d="M341.46,301.66l-150.07-0.19c-4.32-0.01-7.82-3.51-7.82-7.84l0.25-212.08c0.01-4.32,3.51-7.83,7.84-7.82
					l150.07,0.19c4.32,0.01,7.82,3.51,7.82,7.84l-0.25,212.08C349.3,298.16,345.79,301.66,341.46,301.66z"/>
			</g>
		</g>
	</g>
	<g>
		<g>
			<g>
				<path class="st5" d="M341.91,301.85l-150.95-0.19c-4.55-0.01-8.25-3.81-8.25-8.47l0.25-211.19c0-2.26,0.86-4.38,2.42-5.98
					c1.56-1.6,3.63-2.48,5.84-2.48c0,0,0.01,0,0.01,0l150.95,0.19c4.55,0.01,8.25,3.81,8.25,8.47l-0.04,36.88l-1.05,0l0.04-36.88
					c0-4.09-3.22-7.42-7.2-7.42l-150.95-0.19c-1.92-0.02-3.73,0.76-5.09,2.16c-1.37,1.4-2.12,3.26-2.12,5.24l-0.25,211.19
					c0,4.09,3.22,7.42,7.2,7.42l150.95,0.19L341.91,301.85z"/>
			</g>
		</g>
	</g>
	<g class="st2">
		<g>
			<g>
				
					<rect x="200.49" y="92.66" transform="matrix(1 1.257397e-03 -1.257397e-03 1 0.2415 -0.3402)" class="st6" width="140.32" height="198.5"/>
			</g>
		</g>
	</g>
	<g>
		<g>
			<g>
				
					<rect x="196.4" y="88.44" transform="matrix(1 1.257397e-03 -1.257397e-03 1 0.2362 -0.335)" class="st7" width="140.32" height="198.5"/>
			</g>
		</g>
	</g>
	<g>
		<rect x="211.19" y="106.04" class="st8" width="110.74" height="31.72"/>
	</g>
	<g>
		<rect x="210.41" y="149.3" class="st9" width="30.1" height="30.1"/>
	</g>
	<g>
		<rect x="210.41" y="196.07" class="st9" width="30.1" height="30.1"/>
	</g>
	<g>
		<rect x="210.41" y="242.83" class="st9" width="30.1" height="30.1"/>
	</g>
	<g>
		<polygon class="st10" points="241.04,179.93 231.95,179.93 231.95,178.88 239.99,178.88 239.99,149.3 241.04,149.3 		"/>
	</g>
	<g>
		<polygon class="st10" points="241.04,226.7 224.28,226.7 224.28,225.64 239.99,225.64 239.99,196.07 241.04,196.07 		"/>
	</g>
	<g>
		<polygon class="st10" points="241.04,273.46 210.41,273.46 210.41,272.41 239.99,272.41 239.99,242.83 241.04,242.83 		"/>
	</g>
	<g>
		<g>
			<rect x="246.96" y="158.56" class="st10" width="34.68" height="1.05"/>
		</g>
		<g>
			<rect x="246.96" y="169.09" class="st10" width="51.88" height="1.05"/>
		</g>
	</g>
	<g>
		<g>
			<rect x="246.96" y="205.33" class="st10" width="42.6" height="1.05"/>
		</g>
		<g>
			<rect x="246.96" y="215.86" class="st10" width="74.97" height="1.05"/>
		</g>
	</g>
	<g>
		<g>
			<rect x="246.96" y="252.1" class="st10" width="42.6" height="1.05"/>
		</g>
		<g>
			<rect x="246.96" y="262.62" class="st10" width="74.97" height="1.05"/>
		</g>
	</g>
	<g>
		<polygon class="st7" points="223.87,267.93 214.74,256.41 217.63,254.12 223.83,261.95 233.28,249.71 236.19,251.96 		"/>
	</g>
	<g class="st3">
		<g>
			<path class="st11" d="M218.41,192.81c-0.02,0.08-0.04,0.16-0.07,0.25c-8.67,35.42-25.76,75.55-59.29,100.85
				c-3.63,2.74-7.46,5.31-11.49,7.68h-12.45c-83.18-48.85-79.47-182.44-79.47-182.44c14.59-1.47,30.89-7.68,47.9-15.86
				c12.29-5.91,25.54-8.8,38.77-8.65c12.56,0.13,25.09,2.99,36.76,8.58c17.13,8.22,33.56,14.45,48.19,15.93
				C227.27,119.15,228.14,152.98,218.41,192.81z"/>
		</g>
	</g>
	<g>
		<g>
			<g>
				<path class="st12" d="M214.17,189.04c-0.02,0.09-0.04,0.17-0.07,0.25c-8.79,35.42-26.09,75.55-60.05,100.85
					c-5.53,4.12-11.5,7.85-17.95,11.1c-0.78-0.39-1.55-0.79-2.31-1.2c-88.33-46.89-84.45-184.65-84.45-184.65
					c14.77-1.47,31.28-7.69,48.5-15.87c12.45-5.91,25.87-8.8,39.27-8.65c12.72,0.13,25.41,2.99,37.23,8.59
					c17.35,8.21,33.99,14.45,48.8,15.93C223.13,115.38,224.02,149.2,214.17,189.04z"/>
			</g>
		</g>
		<g>
			<g>
				<g>
					<path class="st7" d="M136.12,283.28l-0.59-0.3c-17.08-8.61-31.48-22.02-42.77-39.86c-9.01-14.23-16.08-31.3-21.02-50.72
						c-8.39-33.02-7.69-61.87-7.68-62.15l0.03-1.16l1.15-0.12c10.48-1.05,22.91-5.12,39.11-12.82c20.18-9.58,43.32-9.6,63.5-0.05
						c16.32,7.73,28.83,11.82,39.36,12.87l1.15,0.12l0.03,1.16c0.01,0.29,0.66,29.13-7.79,62.15
						c-4.97,19.43-12.06,36.49-21.09,50.72c-11.32,17.84-25.72,31.26-42.81,39.86L136.12,283.28z M66.68,131.46
						c-0.03,5.64,0.26,31.37,7.63,60.35c7.6,29.87,24.49,69.39,61.81,88.52c37.33-19.13,54.28-58.65,61.92-88.52
						c7.42-28.98,7.76-54.7,7.74-60.35c-10.59-1.26-23.04-5.4-39.05-12.98c-19.46-9.21-41.78-9.19-61.24,0.05
						C89.59,126.07,77.22,130.2,66.68,131.46z"/>
				</g>
			</g>
		</g>
	</g>
	<g>
		<g>
			<g>
				<g>
					<g>
						<g>
							<path class="st4" d="M279.63,70.03l0-0.13c0.01-7.97-7.33-14.26-15.73-12.62c-6.07,1.19-10.36,6.58-10.37,12.68V70
								l-17.12-0.02c-2.14,0-3.88,1.7-3.88,3.81l-0.02,16.94c0,2.11,1.73,3.82,3.87,3.82l60.34,0.08c2.14,0,3.88-1.7,3.88-3.81
								l0.02-16.94c0-2.11-1.73-3.82-3.87-3.82L279.63,70.03z M267.45,71.42c-2.74,0.6-5.13-1.74-4.52-4.44
								c0.3-1.36,1.42-2.46,2.8-2.76c2.74-0.6,5.13,1.75,4.52,4.45C269.94,70.03,268.82,71.12,267.45,71.42z"/>
						</g>
					</g>
				</g>
			</g>
			<g>
				<g>
					<g>
						<g>
							<path class="st13" d="M246.83,95.09l-10.45-0.01c-1.17,0-2.28-0.45-3.11-1.27c-0.83-0.82-1.29-1.91-1.29-3.07L232,73.79
								l1.05,0l-0.02,16.94c0,0.88,0.35,1.7,0.97,2.32c0.63,0.62,1.47,0.97,2.37,0.97l10.45,0.01L246.83,95.09z M266.59,72.04
								c-1.15,0-2.25-0.44-3.06-1.26c-1.02-1.02-1.44-2.48-1.12-3.91c0.35-1.57,1.61-2.81,3.2-3.16c1.48-0.33,2.99,0.11,4.03,1.16
								c1.02,1.03,1.44,2.49,1.12,3.92c-0.35,1.57-1.61,2.8-3.2,3.15l0,0C267.23,72.01,266.91,72.04,266.59,72.04z M266.57,64.66
								c-0.25,0-0.49,0.03-0.74,0.08c-1.17,0.26-2.14,1.21-2.4,2.36c-0.24,1.09,0.06,2.16,0.84,2.94c0.79,0.79,1.93,1.12,3.06,0.87
								l0,0c1.17-0.26,2.14-1.2,2.4-2.35c0.25-1.09-0.06-2.16-0.84-2.95C268.28,64.99,267.44,64.66,266.57,64.66z M296.75,70.58
								l-17.65-0.02V69.9c0-3.67-1.63-7.12-4.49-9.48c-2.92-2.41-6.79-3.37-10.62-2.62c-5.75,1.12-9.94,6.24-9.94,12.17l0,0.53
								l-0.53,0.03l-17.12-0.02l0-1.05l16.6,0.02c0.25-6.23,4.71-11.52,10.79-12.7c4.13-0.81,8.32,0.23,11.49,2.84
								c3,2.47,4.76,6.06,4.87,9.9l16.6,0.02L296.75,70.58z"/>
						</g>
					</g>
				</g>
			</g>
		</g>
		<g>
			<rect x="254.78" y="94.1" class="st5" width="26.74" height="1.05"/>
		</g>
	</g>
	<g>
		<rect x="59.2" y="301.06" class="st14" width="323.7" height="1.05"/>
	</g>
	<g>
		<g>
			<path class="st15" d="M326.96,153.71c-0.01,0.77-0.15,1.54-0.39,2.32c-2.15,6.91-12.45,13.59-12.45,13.59s-10.3-6.68-12.45-13.59
				c-0.24-0.77-0.38-1.55-0.39-2.32c0-3.91,3.17-7.07,7.07-7.07c2.38,0,4.48,1.17,5.76,2.97c1.28-1.8,3.38-2.97,5.76-2.97
				C323.8,146.63,326.96,149.8,326.96,153.71z"/>
		</g>
		<g>
			<path class="st5" d="M308.28,165.73c-3.8-3.4-6.19-6.61-7.1-9.55c-0.25-0.8-0.39-1.63-0.41-2.46c-0.06-2.12,0.64-3.98,2.04-5.38
				c1.44-1.44,3.59-2.29,5.58-2.24c2.1,0.06,4.37,1.12,5.74,2.65c1.44-1.67,3.54-2.65,5.76-2.65c4.19,0,7.6,3.41,7.6,7.6h-1.05
				c0-3.61-2.94-6.55-6.55-6.55c-2.11,0-4.1,1.03-5.33,2.75l-0.43,0.6l-0.43-0.6c-1.11-1.56-3.31-2.69-5.35-2.75
				c-1.73-0.05-3.56,0.69-4.8,1.93c-1.18,1.18-1.78,2.78-1.73,4.6c0.02,0.73,0.14,1.46,0.36,2.17c0.84,2.71,3.19,5.85,6.8,9.08
				L308.28,165.73z"/>
		</g>
		<g>
			<path class="st14" d="M321.46,164.35l-0.74-0.75c1.44-1.41,2.62-2.8,3.53-4.13l0.87,0.59
				C324.17,161.45,322.94,162.89,321.46,164.35z"/>
		</g>
	</g>
	<path class="st7" d="M69.07,134.39c-0.93,0.69,5.16,114.74,67.09,143.2c0,0,65.24-33.04,66.33-143.49c0,0-22.08-2.29-40.25-14.8
		c-0.61-0.42-1.27-0.75-1.98-0.96c-9.14-2.71-32.15-9.6-57.99,3.55C102.26,121.9,71.53,135.56,69.07,134.39z"/>
	<g>
		<g>
			<path class="st16" d="M71.7,153.39c7.38-8.98,14.76-17.95,22.14-26.93c0.49-0.59-0.36-1.45-0.85-0.85
				c-7.38,8.98-14.76,17.95-22.14,26.93C70.37,153.13,71.21,153.99,71.7,153.39L71.7,153.39z"/>
		</g>
	</g>
	<g>
		<g>
			<path class="st16" d="M76.4,171.95c14.93-17.85,29.86-35.7,44.79-53.54c0.49-0.59-0.35-1.44-0.85-0.85
				c-14.93,17.85-29.86,35.7-44.79,53.54C75.06,171.69,75.91,172.54,76.4,171.95L76.4,171.95z"/>
		</g>
	</g>
	<g>
		<g>
			<path class="st16" d="M82.77,192.91c20.57-24.83,41.14-49.67,61.71-74.5c0.49-0.59-0.36-1.44-0.85-0.85
				c-20.57,24.83-41.14,49.67-61.71,74.5C81.44,192.65,82.28,193.51,82.77,192.91L82.77,192.91z"/>
		</g>
	</g>
	<g>
		<g>
			<path class="st16" d="M89.5,217.33c25.5-30.29,51.01-60.58,76.51-90.87c0.49-0.59-0.35-1.44-0.85-0.85
				c-25.5,30.29-51.01,60.58-76.51,90.87C88.16,217.07,89.01,217.92,89.5,217.33L89.5,217.33z"/>
		</g>
	</g>
	<g>
		<g>
			<path class="st16" d="M98.8,236.74c28.11-32.66,56.22-65.32,84.33-97.98c0.5-0.58-0.34-1.44-0.85-0.85
				c-28.11,32.66-56.22,65.32-84.33,97.98C97.45,236.48,98.3,237.33,98.8,236.74L98.8,236.74z"/>
		</g>
	</g>
	<g>
		<g>
			<path class="st16" d="M114.77,256.75c27.37-34.45,54.73-68.91,82.1-103.36c0.48-0.6-0.37-1.45-0.85-0.85
				c-27.37,34.45-54.73,68.91-82.1,103.36C113.44,256.5,114.29,257.36,114.77,256.75L114.77,256.75z"/>
		</g>
	</g>
	<g>
		<g>
			<path class="st16" d="M131.05,268.36c20.84-24.78,41.69-49.56,62.53-74.34c0.49-0.59-0.35-1.44-0.85-0.85
				c-20.84,24.78-41.69,49.56-62.53,74.34C129.71,268.1,130.55,268.95,131.05,268.36L131.05,268.36z"/>
		</g>
	</g>
	<g>
		<g>
			<g>
				<polygon class="st12" points="175.89,183.26 175.89,203.93 146.8,203.93 146.8,233.02 126.13,233.02 126.13,203.93 
					97.04,203.93 97.04,183.26 126.13,183.26 126.13,154.17 146.8,154.17 146.8,183.26 				"/>
			</g>
		</g>
	</g>
</g>
</svg>
