<?xml version="1.0" encoding="utf-8"?>
<!-- Generator: Adobe Illustrator 25.0.0, SVG Export Plug-In . SVG Version: 6.00 Build 0)  -->
<svg version="1.1" id="Capa_1" xmlns="http://www.w3.org/2000/svg" xmlns:xlink="http://www.w3.org/1999/xlink" x="0px" y="0px"
	 viewBox="0 0 425.2 425.2" style="enable-background:new 0 0 425.2 425.2;" xml:space="preserve">
<style type="text/css">
	.st0{opacity:0.34;}
	.st1{fill:#147888;}
	.st2{fill:#E20E17;}
	.st3{fill:#010202;}
	.st4{fill:#FFFFFF;stroke:#020304;stroke-miterlimit:10;}
	.st5{fill:#434141;}
	.st6{fill:#8D8D8B;}
	.st7{fill:#A58036;}
	.st8{fill:#DDDDDD;}
	.st9{fill:#020304;}
	.st10{opacity:0.16;}
	.st11{fill:#9A9999;}
	.st12{fill:#8B8B8C;}
</style>
<g>
	<g class="st0">
		<path class="st1" d="M312.4,72.83l-11.36,0.62l0-0.08l-2.07,0.19l-0.13-3.15l-6.24,0.26l0-0.01l-0.4,0.02l-1.67,0.07l-0.31-5.86
			l-14.34,0.77l-0.56-6.24L103.57,74.86l0,0l-0.37,0.02l0,0.01l-14.42,1.3l22.15,246.39l9.22-0.83l0,0.02l-0.04,0l0.11,2.11l0.06,0
			l0.25,3.84c0.33,5,4.65,8.78,9.65,8.45l180.69-11.97c5-0.33,8.78-4.65,8.45-9.65l-9.76-147.27l9.16-0.55
			c4.96-0.3,8.72-4.58,8.37-9.53l-5.33-76.07C321.44,76.25,317.26,72.57,312.4,72.83z"/>
	</g>
	<g>
		<path class="st2" d="M129.59,336.56c-4.95,0-9.08-3.87-9.41-8.82L104.79,95.46c-0.17-2.52,0.66-4.95,2.32-6.85s3.96-3.03,6.48-3.2
			l180.7-11.97c0.18-0.01,0.36-0.02,0.55-0.02l17.55-0.96c0.17-0.01,0.34-0.01,0.52-0.01c4.86,0,8.93,3.8,9.27,8.65l5.33,76.07
			c0.17,2.5-0.64,4.91-2.29,6.79c-1.65,1.88-3.93,3-6.43,3.15l-8.79,0.52l9.73,146.9c0.17,2.52-0.66,4.95-2.32,6.84
			c-1.66,1.9-3.96,3.03-6.48,3.2l-180.69,11.97C130.02,336.55,129.8,336.56,129.59,336.56z"/>
		<path class="st3" d="M312.89,72.82c4.65,0,8.56,3.6,8.89,8.3l5.33,76.07c0.35,4.95-3.41,9.24-8.37,9.53l-9.16,0.55l9.76,147.27
			c0.33,5-3.45,9.32-8.45,9.65L130.2,336.16c-0.2,0.01-0.41,0.02-0.61,0.02c-4.73,0-8.72-3.68-9.04-8.47L105.16,95.43
			c-0.33-5,3.45-9.32,8.45-9.65l179.82-11.92h0l0.88-0.06c0.18-0.01,0.35-0.02,0.52-0.02l17.57-0.96
			C312.56,72.82,312.73,72.82,312.89,72.82 M312.89,72.07c-0.18,0-0.36,0-0.54,0.01l-17.57,0.96c-0.15,0-0.34,0.01-0.53,0.02
			l-0.88,0.06L113.56,85.04c-2.62,0.17-5.01,1.36-6.74,3.33c-1.73,1.97-2.58,4.5-2.41,7.12l15.39,232.28
			c0.34,5.14,4.64,9.17,9.79,9.17c0.22,0,0.44-0.01,0.66-0.02l180.69-11.97c5.4-0.36,9.5-5.04,9.15-10.45l-9.71-146.52l8.41-0.5
			c2.6-0.16,4.97-1.32,6.69-3.27c1.72-1.96,2.56-4.46,2.38-7.06l-5.33-76.07C322.18,76.02,317.94,72.07,312.89,72.07L312.89,72.07z"
			/>
	</g>
	
		<rect x="116.7" y="74.14" transform="matrix(0.9992 -0.0409 0.0409 0.9992 -7.9147 8.7674)" class="st4" width="187.28" height="247.38"/>
	
		<rect x="109.67" y="69.71" transform="matrix(0.9986 -0.0533 0.0533 0.9986 -10.0224 11.1147)" class="st4" width="187.28" height="247.38"/>
	<path class="st5" d="M274.54,272c-0.04,0.02-0.08,0.04-0.12,0.06c0.05-0.02,0.12-0.04,0.17-0.06C274.57,272,274.56,272,274.54,272z
		"/>
	<g>
		<g>
			<g>
				<g>
					
						<rect x="99.49" y="67.31" transform="matrix(0.996 -0.0895 0.0895 0.996 -16.3266 18.0602)" class="st4" width="187.28" height="247.38"/>
					
						<rect x="126.43" y="85.27" transform="matrix(0.9959 -0.0903 0.0903 0.9959 -7.4035 16.979)" class="st6" width="115.15" height="10.13"/>
				</g>
			</g>
			<g>
				<g>
					
						<rect x="106.69" y="104" transform="matrix(0.9959 -0.0903 0.0903 0.9959 -8.8255 17.173)" class="st6" width="157.49" height="4.3"/>
					
						<rect x="107.71" y="116.39" transform="matrix(0.9959 -0.0903 0.0903 0.9959 -10.0395 15.1096)" class="st6" width="108.61" height="4.3"/>
					
						<rect x="108.53" y="124.37" transform="matrix(0.9959 -0.0903 0.0903 0.9959 -10.6564 17.4228)" class="st6" width="157.49" height="4.3"/>
					
						<rect x="109.46" y="134.55" transform="matrix(0.9959 -0.0903 0.0903 0.9959 -11.5718 17.5477)" class="st6" width="157.49" height="4.3"/>
					
						<rect x="110.43" y="145.82" transform="matrix(0.9959 -0.0903 0.0903 0.9959 -12.6335 16.6005)" class="st6" width="133.55" height="4.3"/>
				</g>
			</g>
			<g>
				<g>
					
						<rect x="111.45" y="162.44" transform="matrix(0.9959 -0.0903 0.0903 0.9959 -14.0814 17.8416)" class="st6" width="157.49" height="4.3"/>
					
						<rect x="112.38" y="172.63" transform="matrix(0.9959 -0.0903 0.0903 0.9959 -14.9969 17.9665)" class="st6" width="157.49" height="4.3"/>
				</g>
			</g>
			<g>
				<g>
					
						<rect x="113.28" y="182.62" transform="matrix(0.9959 -0.0903 0.0903 0.9959 -15.8941 18.0889)" class="st6" width="157.49" height="4.27"/>
					
						<rect x="114.2" y="192.74" transform="matrix(0.9959 -0.0903 0.0903 0.9959 -16.8041 18.213)" class="st6" width="157.49" height="4.27"/>
					
						<rect x="115.12" y="202.86" transform="matrix(0.9959 -0.0903 0.0903 0.9959 -17.7141 18.3372)" class="st6" width="157.49" height="4.27"/>
					
						<rect x="116.14" y="215.27" transform="matrix(0.9959 -0.0903 0.0903 0.9959 -18.934 16.1893)" class="st6" width="106.74" height="4.27"/>
					
						<rect x="116.95" y="223.11" transform="matrix(0.9959 -0.0903 0.0903 0.9959 -19.534 18.5855)" class="st6" width="157.49" height="4.27"/>
				</g>
			</g>
			
				<rect x="228.59" y="241.7" transform="matrix(0.9959 -0.0903 0.0903 0.9959 -21.0129 23.8685)" class="st6" width="49.54" height="5.06"/>
			
				<rect x="118.5" y="250.61" transform="matrix(0.9959 -0.0903 0.0903 0.9959 -22.2177 15.0374)" class="st6" width="73.26" height="5.06"/>
		</g>
		<g>
			<g>
				<g>
					<path class="st7" d="M185.59,279.37c0.37-0.84,0.48-2.13,0.23-3.53c-0.25-1.4-0.8-2.57-1.43-3.23
						c0.14-0.91-0.09-2.18-0.69-3.47c-0.6-1.28-1.44-2.28-2.22-2.75c-0.1-0.91-0.65-2.08-1.57-3.17c-0.91-1.09-1.98-1.83-2.86-2.08
						c-0.33-0.85-1.17-1.84-2.33-2.66c-1.16-0.81-2.38-1.26-3.3-1.27c-0.54-0.74-1.61-1.48-2.94-1.96c-1.33-0.48-2.63-0.6-3.52-0.38
						c-0.71-0.57-1.94-1.01-3.35-1.13c-1.41-0.12-2.69,0.1-3.49,0.55c-0.84-0.37-2.13-0.48-3.53-0.23c-1.4,0.25-2.57,0.8-3.23,1.43
						c-0.91-0.14-2.18,0.09-3.47,0.69c-1.28,0.6-2.28,1.44-2.75,2.22c-0.91,0.1-2.08,0.65-3.17,1.57c-1.09,0.91-1.83,1.98-2.08,2.86
						c-0.85,0.33-1.84,1.17-2.66,2.33c-0.81,1.16-1.26,2.38-1.27,3.3c-0.74,0.54-1.48,1.61-1.96,2.94c-0.48,1.33-0.6,2.63-0.38,3.52
						c-0.57,0.71-1.01,1.94-1.13,3.35c-0.12,1.41,0.1,2.69,0.55,3.49c-0.37,0.84-0.48,2.13-0.23,3.53c0.25,1.4,0.8,2.57,1.43,3.23
						c-0.14,0.91,0.09,2.18,0.69,3.47c0.6,1.28,1.44,2.28,2.22,2.75c0.1,0.91,0.65,2.08,1.57,3.17c0.91,1.09,1.98,1.83,2.86,2.08
						c0.33,0.85,1.17,1.84,2.33,2.66c1.16,0.81,2.38,1.26,3.3,1.27c0.54,0.74,1.61,1.48,2.94,1.96c1.33,0.48,2.63,0.6,3.52,0.38
						c0.71,0.57,1.94,1.01,3.35,1.13c1.41,0.12,2.69-0.1,3.49-0.55c0.84,0.37,2.13,0.48,3.53,0.23c1.4-0.25,2.57-0.8,3.23-1.43
						c0.91,0.14,2.18-0.09,3.47-0.69c1.28-0.6,2.28-1.44,2.75-2.22c0.91-0.1,2.08-0.65,3.17-1.57c1.09-0.91,1.83-1.98,2.08-2.86
						c0.85-0.33,1.84-1.17,2.66-2.33c0.81-1.16,1.26-2.38,1.27-3.3c0.74-0.54,1.48-1.61,1.96-2.94c0.48-1.33,0.6-2.63,0.38-3.52
						c0.57-0.71,1.01-1.94,1.13-3.35C186.26,281.45,186.04,280.18,185.59,279.37z M174.68,298.81c-10.07,8.49-25.12,7.2-33.61-2.88
						c-8.49-10.07-7.2-25.12,2.88-33.61c10.07-8.49,25.12-7.2,33.61,2.88C186.04,275.28,184.76,290.33,174.68,298.81z"/>
					<path class="st7" d="M144.99,263.56c-9.39,7.91-10.59,21.94-2.68,31.33c7.91,9.39,21.94,10.59,31.33,2.68
						c9.39-7.91,10.59-21.94,2.68-31.33C168.41,256.85,154.39,255.65,144.99,263.56z M171.6,295.15c-8.05,6.78-20.08,5.75-26.86-2.3
						c-6.78-8.05-5.75-20.08,2.3-26.86c8.05-6.78,20.08-5.75,26.86,2.3C180.68,276.34,179.65,288.37,171.6,295.15z"/>
				</g>
				
					<rect x="157.73" y="264.8" transform="matrix(0.0289 -0.9996 0.9996 0.0289 -122.3215 428.5704)" class="st7" width="3.38" height="24.87"/>
				
					<rect x="157.58" y="267.53" transform="matrix(0.0289 -0.9996 0.9996 0.0289 -127.6563 433.4613)" class="st7" width="3.38" height="29.81"/>
			</g>
		</g>
		
			<rect x="225.39" y="280.35" transform="matrix(0.9904 -0.1379 0.1379 0.9904 -36.3222 37.4466)" class="st8" width="53.32" height="0.95"/>
		<path class="st9" d="M236.97,287.25c-0.32,0.02-0.67-0.09-0.91-0.29l-0.03-0.02l-0.03-0.02c-0.07-0.04-0.1-0.08-0.11-0.13
			l-0.01-0.04l-0.02-0.03c-0.07-0.11-0.1-0.22-0.11-0.34c-0.06-0.74,0-1.48,0.07-2.11l0-0.02l0-0.02c-0.01-1.68,0-3.78,0.03-6.25
			l0-0.02l0-0.02c-0.04-0.46-0.08-1-0.09-1.54c-0.02-0.99,0.01-2.02,0.04-3.01c0.04-1.28,0.08-2.6,0.02-3.9l-0.07-1.46l-0.65,1.32
			c-0.43,0.87-1.02,1.99-1.8,3.01c-0.77,1-1.62,1.98-2.44,2.92c-0.96,1.1-1.95,2.24-2.84,3.45c-0.19,0.26-0.44,0.41-0.72,0.43
			c-0.02,0-0.05,0-0.07,0c-0.1,0-0.21,0-0.31,0.01c-0.58,0.04-1.19,0.22-1.8,0.51c-0.05,0.02-0.09,0.03-0.13,0.04
			c-0.16,0.01-0.31-0.08-0.37-0.22c-0.09-0.19-0.01-0.42,0.18-0.5c0.19-0.09,0.54-0.32,1.35-1.33l0.02-0.03l0.04-0.07
			c0.02-0.04,0.04-0.07,0.06-0.1c0.27-0.37,0.57-0.73,0.85-1.08l0.02-0.02l0.01-0.01c0.72-0.98,1.56-2.2,2.51-3.64
			c2.96-4.5,6.25-10.06,6.51-11.02c0.08-0.3,0.23-0.32,0.27-0.32c0.07-0.01,0.16,0.01,0.25,0.06c0.19,0.09,0.27,0.3,0.19,0.49
			l-0.01,0.01l0,0.01c-0.01,0.02-0.01,0.03-0.02,0.05l-0.03,0.09l0.01,0.09c0.05,0.48,0.05,1.13,0.04,1.7l0,0.11l0.06,0.09
			c0.05,0.08,0.09,0.15,0.11,0.23c0.87,2.68,0.91,5.32,0.88,8.01l-0.02,1.37l0.72-1.16c0.16-0.26,0.26-0.31,0.28-0.32
			c0.08-0.03,0.16-0.05,0.23-0.06c0.1-0.01,0.4-0.03,0.7,0.66l0.02,0.06l0.04,0.05c0.07,0.08,0.13,0.16,0.17,0.24
			c0.39,0.74,0.54,1.51,0.68,2.3l0.2,1.15l0.51-1.05c0.17-0.34,0.33-0.73,0.48-1.18l0.01-0.02c0,0,0.15-0.59,0.22-0.87
			c0.16-0.65,0.56-2.28,0.65-2.66c0.05-0.22,0.52-0.48,1.2-0.53c0.56-0.04,0.96,0.08,1.09,0.23c0.05,0.05,0.07,0.11,0.06,0.19
			c-0.09,0.7-0.4,2.6-0.51,3.26l0.68,0.28l0.02-0.03c0.22-0.31,0.42-0.61,0.58-0.78c0.57-0.62,1.24-1.01,1.95-1.42
			c0.1-0.06,0.21-0.1,0.32-0.1c0.3-0.02,0.65,0.15,0.92,0.47l0.06,0.07l0.08,0.03c0.06,0.02,0.1,0.06,0.14,0.11l0.22,0.27l0.81-0.57
			l0.04-0.05c0.19-0.26,0.43-0.4,0.72-0.43c0.11-0.01,0.22,0,0.33,0.03l0.12,0.03l0.11-0.04c4.93-1.96,10.52-4.19,16.26-5.19
			c0.63-0.11,1.62-0.26,2.75-0.35c2.73-0.21,6.24-0.06,7.49,1.85c0.23,0.35,0.3,0.85,0.17,1.21c-0.09,0.24-0.25,0.4-0.49,0.48
			c-0.82,0.26-1.51,0.37-2.31,0.5c-0.74,0.12-1.58,0.25-2.67,0.53c-1.94,0.5-3.56,1.06-5.25,1.81c-0.99,0.44-2.03,0.89-3.04,1.32
			c-2.79,1.2-5.67,2.44-8.25,3.9c-2.05,1.16-3.02,1.69-3.66,2.04c-1.08,0.59-1.08,0.59-3.51,2.09c-0.59,0.37-1.34,0.82-2.28,1.4
			c-0.36,0.22-0.71,0.35-1.01,0.37l0,0c-0.67,0.05-0.89-0.41-0.96-0.81l0-0.02l-0.01-0.02c-0.22-0.76,0.04-1.05,0.3-1.26
			c1.62-1.3,1.76-1.38,2.72-1.88c0.43-0.22,1.02-0.53,1.95-1.06c1.59-0.9,3.29-1.8,5.07-2.67c3.74-1.85,11.8-5.31,15.77-6.69
			l0.08-0.01c0.08-0.01,0.08-0.01,0.56-0.21c0.57-0.27,0.72-0.34,0.64-0.65l-0.08-0.31l-0.32,0.02c-0.07,0.01-0.08,0.01-0.52,0.21
			c-0.29,0-0.59,0.02-0.9,0.04c-2.11,0.16-4.27,0.79-6.01,1.29c-3.79,1.1-7.64,2.44-12.12,4.22c-0.08,0.03-0.17,0.06-0.27,0.07
			l-0.22,0.03l-0.08,0.21c-0.23,0.65-1.73,1.29-3.82,1.63l-0.02,0l-0.02,0.01c-0.05,0.01-0.09,0.02-0.15,0.03c0,0-0.01,0-0.01,0
			l-0.04,0c-0.19,0-0.25-0.05-0.28-0.07l-0.3-0.24l-0.32,0.4c-0.82,1.03-1.59,2.01-2.9,2.16c-0.02,0-0.03,0-0.05,0.01
			c-0.31,0.02-0.6-0.07-0.83-0.27l-0.3-0.26l-0.25,0.3c-0.44,0.54-0.95,0.97-1.55,1.33c-0.09,0.05-0.19,0.08-0.3,0.09
			c-0.21,0.02-0.44-0.04-0.65-0.16l-0.47-0.27l-0.09,0.53c-0.08,0.48-0.17,1.01-0.25,1.55c-0.08,0.48-0.13,0.97-0.19,1.43
			c-0.18,1.52-0.35,2.96-1.14,4.31C237.48,287.15,237.19,287.23,236.97,287.25z"/>
	</g>
	<g class="st10">
		<polygon class="st11" points="292.6,70.67 290.62,70.77 303.41,311.92 209.55,316.93 148.78,322.4 305.51,314.03 		"/>
		<polygon class="st11" points="121.25,321.65 120.12,321.77 120.24,323.88 148.78,322.4 209.55,316.93 		"/>
		<polygon class="st11" points="118.38,321.91 121.25,321.65 118.38,321.8 		"/>
		<polygon class="st11" points="103.2,74.88 103.2,74.89 103.57,74.86 		"/>
		<polygon class="st11" points="276.07,67.87 278.81,67.72 278.61,65.51 275.88,65.66 		"/>
		<polygon class="st11" points="278.81,67.72 276.07,67.87 297.47,305.81 121.25,321.65 209.55,316.93 300.48,308.76 		"/>
		<polygon class="st12" points="105.35,77.92 105.3,76.99 131.1,75.61 191.87,70.15 103.57,74.86 103.2,74.89 103.38,78.1 		"/>
		<polygon class="st11" points="105.3,76.99 105.35,77.92 131.1,75.61 		"/>
	</g>
	<g class="st10">
		<polygon class="st11" points="298.97,73.57 308.95,317.59 123.8,325.17 123.88,327.18 311,319.52 301.03,73.38 		"/>
	</g>
</g>
</svg>
