<?xml version="1.0" encoding="utf-8"?>
<!-- Generator: Adobe Illustrator 25.0.0, SVG Export Plug-In . SVG Version: 6.00 Build 0)  -->
<svg version="1.1" id="Capa_1" xmlns="http://www.w3.org/2000/svg" xmlns:xlink="http://www.w3.org/1999/xlink" x="0px" y="0px"
	 viewBox="0 0 425.2 425.2" style="enable-background:new 0 0 425.2 425.2;" xml:space="preserve">
<style type="text/css">
	.st0{opacity:0.99;fill-rule:evenodd;clip-rule:evenodd;fill:none;stroke:#0F0607;stroke-width:0.216;stroke-miterlimit:22.9256;}
	.st1{fill-rule:evenodd;clip-rule:evenodd;fill:#0F0607;}
	.st2{fill-rule:evenodd;clip-rule:evenodd;fill:#0F0607;stroke:#0F0607;stroke-miterlimit:22.9256;}
	.st3{fill-rule:evenodd;clip-rule:evenodd;fill:#A58036;}
	.st4{fill-rule:evenodd;clip-rule:evenodd;fill:#FFFFFF;}
	.st5{fill-rule:evenodd;clip-rule:evenodd;fill:#E30613;stroke:#231F20;stroke-width:0.25;stroke-miterlimit:10;}
	.st6{fill-rule:evenodd;clip-rule:evenodd;fill:#72C9F0;}
	.st7{fill-rule:evenodd;clip-rule:evenodd;fill:#8D8D8B;}
	.st8{fill-rule:evenodd;clip-rule:evenodd;fill:#5A616E;}
	.st9{fill:#515151;}
</style>
<path class="st0" d="M171.64,304.78c-0.13-0.13-0.27-0.25-0.42-0.36c-0.06-0.04-0.12-0.08-0.18-0.12c-0.02,0.16-0.05,0.32-0.09,0.48
	C171.18,304.77,171.41,304.77,171.64,304.78z"/>
<path class="st1" d="M113.31,231.35h201.8c0.98,0,1.78,0.8,1.78,1.78v120.4c0,0.98-0.8,1.78-1.78,1.78h-201.8
	c-0.98,0-1.78-0.8-1.78-1.78v-120.4C111.53,232.15,112.33,231.35,113.31,231.35L113.31,231.35L113.31,231.35z M313.33,234.92H115.09
	v116.84h198.24V234.92z"/>
<path class="st1" d="M126.19,244.98h176.06c0.98,0,1.78,0.8,1.78,1.78v93.14c0,0.98-0.8,1.78-1.78,1.78H126.19
	c-0.98,0-1.78-0.8-1.78-1.78v-93.14C124.4,245.78,125.2,244.98,126.19,244.98L126.19,244.98L126.19,244.98z M300.46,248.55H127.97
	v89.58h172.49V248.55z"/>
<path class="st1" d="M137.54,270.35h56.04c0.98,0,1.78,0.8,1.78,1.78v56.04c0,0.98-0.8,1.78-1.78,1.78h-56.04
	c-0.98,0-1.78-0.8-1.78-1.78v-56.04C135.76,271.15,136.56,270.35,137.54,270.35L137.54,270.35L137.54,270.35z M191.8,273.91h-52.47
	v52.47h52.47V273.91z"/>
<path class="st1" d="M137.54,259.15c-0.98,0-1.78-0.8-1.78-1.78c0-0.98,0.8-1.78,1.78-1.78h151.07c0.98,0,1.78,0.8,1.78,1.78
	c0,0.98-0.8,1.78-1.78,1.78H137.54z"/>
<path class="st1" d="M210.62,273.91c-0.98,0-1.78-0.8-1.78-1.78c0-0.98,0.8-1.78,1.78-1.78h78c0.98,0,1.78,0.8,1.78,1.78
	c0,0.98-0.8,1.78-1.78,1.78H210.62z"/>
<path class="st1" d="M210.62,287.92c-0.98,0-1.78-0.8-1.78-1.78c0-0.98,0.8-1.78,1.78-1.78h78c0.98,0,1.78,0.8,1.78,1.78
	c0,0.98-0.8,1.78-1.78,1.78H210.62z"/>
<path class="st1" d="M210.62,301.93c-0.98,0-1.78-0.8-1.78-1.78c0-0.98,0.8-1.78,1.78-1.78h78c0.98,0,1.78,0.8,1.78,1.78
	c0,0.98-0.8,1.78-1.78,1.78H210.62z"/>
<path class="st1" d="M210.62,315.94c-0.98,0-1.78-0.8-1.78-1.78c0-0.98,0.8-1.78,1.78-1.78h78c0.98,0,1.78,0.8,1.78,1.78
	c0,0.98-0.8,1.78-1.78,1.78H210.62z"/>
<path class="st1" d="M210.62,329.95c-0.98,0-1.78-0.8-1.78-1.78c0-0.98,0.8-1.78,1.78-1.78h78c0.98,0,1.78,0.8,1.78,1.78
	c0,0.98-0.8,1.78-1.78,1.78H210.62z"/>
<path class="st2" d="M184.24,301.28l-10.22-5.25l-0.11-0.7c2.32-2.23,3.49-5.02,3.64-7.81c0.08-1.4-0.11-2.8-0.53-4.12
	c-0.43-1.33-1.1-2.58-2.01-3.68c-1.95-2.37-4.93-4.03-8.8-4.25h0l-0.03,0l-0.01,0l-0.03,0l-0.04,0h-0.02l-0.04,0l-0.03,0l-0.01,0
	l-0.03,0h0c-3.86,0.22-6.85,1.89-8.8,4.25c-0.9,1.1-1.58,2.35-2.01,3.68c-0.43,1.32-0.61,2.72-0.53,4.12
	c0.15,2.78,1.33,5.58,3.64,7.81l-0.11,0.7l-10.22,5.25c-0.75,0.38-1.11,1.23-0.91,2.01l0,0l5.12,20.26
	c0.21,0.85,1.01,1.41,1.86,1.34l9.66-0.02c0.98,0,1.78-0.8,1.78-1.78c0-0.16-0.02-0.31-0.06-0.46l0,0l-0.29-1.09l0.07-0.45
	c-0.55,0.05-1.1,0.11-1.65,0.18c-0.3,0.04-0.53-0.07-0.68-0.26c-0.42,0.01-0.84,0-1.25,0l-0.04,0.24l-0.01,0.07l-6.27,0.01
	l-4.44-17.55l9.72-4.99c0.51-0.24,0.9-0.73,0.99-1.33l0.39-2.51c0.11-0.61-0.11-1.26-0.62-1.69c-2-1.65-3.01-3.81-3.12-5.95
	c-0.05-0.97,0.07-1.93,0.37-2.84c0.29-0.91,0.75-1.76,1.37-2.51c1.34-1.63,3.44-2.78,6.19-2.95c2.75,0.18,4.85,1.33,6.19,2.95
	c0.61,0.75,1.07,1.6,1.37,2.51c0.29,0.91,0.42,1.87,0.37,2.84c-0.12,2.14-1.12,4.3-3.12,5.95c-0.51,0.42-0.73,1.08-0.62,1.69
	l0.39,2.51c0.09,0.6,0.48,1.09,0.99,1.33l9.72,4.99l-4.44,17.55l-3.68-0.01c-0.15,0.2-0.38,0.34-0.72,0.34
	c-0.85,0-1.68-0.03-2.52-0.13c-0.17-0.02-0.32-0.08-0.45-0.17c-0.85-0.11-1.69-0.23-2.55-0.35l0.08,0.53l-0.29,1.09l0,0
	c-0.04,0.15-0.06,0.3-0.06,0.46c0,0.98,0.79,1.78,1.78,1.78l9.66,0.02c0.85,0.06,1.64-0.49,1.86-1.34l5.13-20.26l0,0
	C185.35,302.51,184.99,301.66,184.24,301.28z"/>
<path class="st1" d="M214.21,201.38c4.67,0,8.91,1.89,11.97,4.96c3.06,3.06,4.96,7.3,4.96,11.97c0,4.67-1.89,8.91-4.96,11.97
	c-3.06,3.06-7.29,4.96-11.97,4.96c-4.67,0-8.91-1.9-11.97-4.96c-3.06-3.06-4.96-7.3-4.96-11.97c0-4.67,1.9-8.91,4.96-11.97
	C205.31,203.27,209.54,201.38,214.21,201.38L214.21,201.38L214.21,201.38z M223.66,208.86c-2.42-2.42-5.76-3.92-9.45-3.92
	c-3.69,0-7.03,1.5-9.45,3.92c-2.42,2.42-3.91,5.76-3.91,9.45c0,3.69,1.5,7.03,3.91,9.45c2.42,2.42,5.76,3.91,9.45,3.91
	c3.69,0,7.03-1.5,9.45-3.91c2.42-2.42,3.91-5.76,3.91-9.45C227.58,214.62,226.08,211.28,223.66,208.86z"/>
<path class="st1" d="M214.21,208.76c2.64,0,5.02,1.07,6.75,2.8c1.73,1.73,2.79,4.11,2.79,6.75c0,2.63-1.07,5.02-2.8,6.75
	c-1.73,1.73-4.11,2.8-6.75,2.8c-2.63,0-5.02-1.07-6.75-2.8c-1.73-1.73-2.8-4.11-2.8-6.75c0-2.64,1.07-5.02,2.8-6.75
	C209.19,209.83,211.58,208.76,214.21,208.76L214.21,208.76L214.21,208.76z M218.44,214.08c-1.08-1.08-2.58-1.75-4.23-1.75
	c-1.65,0-3.15,0.67-4.23,1.75c-1.08,1.08-1.75,2.58-1.75,4.23c0,1.65,0.67,3.15,1.75,4.23c1.08,1.08,2.58,1.75,4.23,1.75
	c1.65,0,3.15-0.67,4.23-1.75c1.08-1.08,1.75-2.58,1.75-4.23C220.19,216.65,219.52,215.16,218.44,214.08z"/>
<path class="st3" d="M313.33,234.92H115.09v116.84h198.24V234.92L313.33,234.92z M126.19,244.98h176.06c0.98,0,1.78,0.8,1.78,1.78
	v93.14c0,0.98-0.8,1.78-1.78,1.78H126.19c-0.98,0-1.78-0.8-1.78-1.78v-93.14C124.4,245.78,125.2,244.98,126.19,244.98z"/>
<path class="st4" d="M300.46,248.55H127.97v89.58h172.49V248.55L300.46,248.55z M137.54,255.58h151.07c0.98,0,1.78,0.8,1.78,1.78
	c0,0.98-0.8,1.78-1.78,1.78H137.54c-0.98,0-1.78-0.8-1.78-1.78C135.76,256.38,136.56,255.58,137.54,255.58L137.54,255.58
	L137.54,255.58z M137.54,270.35h56.04c0.98,0,1.78,0.8,1.78,1.78v56.04c0,0.98-0.8,1.78-1.78,1.78h-56.04
	c-0.98,0-1.78-0.8-1.78-1.78v-56.04C135.76,271.15,136.56,270.35,137.54,270.35L137.54,270.35L137.54,270.35z M208.84,328.17
	c0-0.98,0.8-1.78,1.78-1.78h78c0.98,0,1.78,0.8,1.78,1.78c0,0.98-0.8,1.78-1.78,1.78h-78C209.63,329.95,208.84,329.15,208.84,328.17
	L208.84,328.17L208.84,328.17z M208.84,314.16c0-0.98,0.8-1.78,1.78-1.78h78c0.98,0,1.78,0.8,1.78,1.78c0,0.98-0.8,1.78-1.78,1.78
	h-78C209.63,315.94,208.84,315.14,208.84,314.16L208.84,314.16L208.84,314.16z M208.84,300.15c0-0.98,0.8-1.78,1.78-1.78h78
	c0.98,0,1.78,0.8,1.78,1.78c0,0.98-0.8,1.78-1.78,1.78h-78C209.63,301.93,208.84,301.13,208.84,300.15L208.84,300.15L208.84,300.15z
	 M208.84,286.14c0-0.98,0.8-1.78,1.78-1.78h78c0.98,0,1.78,0.8,1.78,1.78c0,0.98-0.8,1.78-1.78,1.78h-78
	C209.63,287.92,208.84,287.12,208.84,286.14L208.84,286.14L208.84,286.14z M210.62,273.91c-0.98,0-1.78-0.8-1.78-1.78
	c0-0.98,0.8-1.78,1.78-1.78h78c0.98,0,1.78,0.8,1.78,1.78c0,0.98-0.8,1.78-1.78,1.78H210.62z"/>
<path class="st4" d="M171.22,304.42c-0.06-0.04-0.12-0.08-0.18-0.12c-0.02,0.16-0.05,0.32-0.09,0.48c0.23,0,0.45,0,0.68,0
	C171.51,304.65,171.37,304.53,171.22,304.42z"/>
<path class="st4" d="M166.7,320.98c-0.02,0-0.05,0-0.07,0c0.05,0.96,0.11,1.58,0.18,1.65c0.02,0.02,0.05-0.61,0.1-1.63
	C166.84,321,166.77,320.99,166.7,320.98z"/>
<path class="st5" d="M139.33,273.91v52.47h52.47v-52.47H139.33z"/>
<path class="st6" d="M165.95,275.47L165.95,275.47L165.95,275.47z"/>
<path class="st6" d="M166.21,275.47L166.21,275.47L166.21,275.47z"/>
<path class="st7" d="M214.21,231.67c3.69,0,7.03-1.5,9.45-3.91c2.42-2.42,3.91-5.76,3.91-9.45c0-3.69-1.5-7.03-3.91-9.45
	c-2.42-2.42-5.76-3.92-9.45-3.92c-3.69,0-7.03,1.5-9.45,3.92c-2.42,2.42-3.91,5.76-3.91,9.45c0,3.69,1.5,7.03,3.91,9.45
	C207.18,230.17,210.53,231.67,214.21,231.67L214.21,231.67L214.21,231.67z M220.96,225.05c-1.73,1.73-4.11,2.8-6.75,2.8
	c-2.63,0-5.02-1.07-6.75-2.8c-1.73-1.73-2.8-4.11-2.8-6.75c0-2.64,1.07-5.02,2.8-6.75c1.73-1.73,4.11-2.8,6.75-2.8
	c2.64,0,5.02,1.07,6.75,2.8c1.73,1.73,2.79,4.11,2.79,6.75C223.76,220.94,222.69,223.33,220.96,225.05z"/>
<path class="st1" d="M208.35,218.31h11.74c0.98,0,1.78,0.8,1.78,1.78v22.53c0,0.98-0.8,1.78-1.78,1.78h-11.74
	c-0.98,0-1.78-0.8-1.78-1.78v-22.53C206.56,219.1,207.36,218.31,208.35,218.31L208.35,218.31L208.35,218.31z M218.3,221.87h-8.17
	v18.96h8.17V221.87z"/>
<rect x="210.13" y="221.87" class="st8" width="8.17" height="18.96"/>
<path class="st1" d="M214.21,162.75h15.34c0.98,0,1.78,0.8,1.78,1.78c0,0.2-0.03,0.4-0.1,0.58l-9.45,39.31
	c-0.23,0.95-1.18,1.54-2.14,1.32c-0.95-0.23-1.54-1.18-1.32-2.14l8.96-37.29h-26.18l8.96,37.29c0.23,0.95-0.36,1.91-1.32,2.14
	c-0.95,0.23-1.91-0.36-2.14-1.32l-9.45-39.31c-0.06-0.18-0.1-0.37-0.1-0.58c0-0.98,0.8-1.78,1.78-1.78H214.21z"/>
<path class="st7" d="M227.3,166.32h-26.18l8.57,35.67c1.44-0.4,2.95-0.61,4.52-0.61c1.56,0,3.08,0.21,4.52,0.61L227.3,166.32z"/>
<path class="st1" d="M200.41,163.64c-0.49,0.85-1.57,1.14-2.42,0.65c-0.85-0.49-1.14-1.57-0.65-2.42L268.15,39.2
	c0.49-0.85,1.57-1.14,2.42-0.65c0.85,0.49,1.14,1.57,0.65,2.42L200.41,163.64z"/>
<path class="st1" d="M231.1,163.64c-0.49,0.85-1.57,1.14-2.42,0.65c-0.85-0.49-1.14-1.57-0.66-2.42L298.84,39.2
	c0.49-0.85,1.57-1.14,2.42-0.65c0.85,0.49,1.14,1.57,0.65,2.42L231.1,163.64z"/>
<path class="st5" d="M270.71,38.31l-69.79,124.44h26.86c0-0.31,0.08-0.62,0.24-0.91L298.84,39.2L270.71,38.31z"/>
<path class="st1" d="M228.29,163.64c0.49,0.85,1.57,1.14,2.42,0.65c0.85-0.49,1.14-1.57,0.65-2.42L160.55,39.2
	c-0.49-0.85-1.57-1.14-2.42-0.65c-0.85,0.49-1.14,1.57-0.65,2.42L228.29,163.64z"/>
<path class="st1" d="M197.61,163.64c0.49,0.85,1.57,1.14,2.42,0.65c0.85-0.49,1.14-1.57,0.65-2.42L129.86,39.2
	c-0.49-0.85-1.57-1.14-2.42-0.65c-0.85,0.49-1.14,1.57-0.65,2.42L197.61,163.64z"/>
<path class="st5" d="M157.99,38.31l69.79,124.44h-26.86c0-0.31-0.08-0.62-0.24-0.91L129.86,39.2L157.99,38.31z"/>
<g>
	<path class="st9" d="M166.21,287.89c-6.2,0-11.24,5.04-11.24,11.24c0,3.91,2.01,7.35,5.04,9.37c-6.87,2.53-11.78,9.12-11.78,16.86
		v1.5h35.97v-1.5c0-7.74-4.92-14.33-11.78-16.86c3.03-2.01,5.04-5.46,5.04-9.37C177.45,292.93,172.41,287.89,166.21,287.89"/>
	<circle class="st9" cx="166.21" cy="299.13" r="8.24"/>
	<path class="st9" d="M151.3,323.86c0.75-7.56,7.15-13.49,14.91-13.49c7.76,0,14.16,5.93,14.91,13.49H151.3z"/>
</g>
</svg>
