<svg id="Capa_1" data-name="Capa 1" xmlns="http://www.w3.org/2000/svg" viewBox="0 0 403.53 314.66"><defs><style>.cls-1{fill:#1d1d1b;}.cls-2{fill:#fff;}.cls-3{fill:#455a64;}.cls-4{fill:#e0e0e0;}.cls-5,.cls-8{fill:#e30613;}.cls-6{fill:#e9505b;}.cls-7{fill:#ebebeb;}.cls-7,.cls-8,.cls-9{fill-rule:evenodd;}.cls-9{fill:#f0f0f0;}.cls-10{fill:#c6c6c6;}.cls-11{fill:#263239;}.cls-12{fill:#fbfbfb;}</style></defs><path class="cls-1" d="M367.22,227.92l-49-.22A10.66,10.66,0,0,1,307.59,217l.52-122.51a10.66,10.66,0,0,1,10.72-10.6l49,.22a10.66,10.66,0,0,1,10.62,10.69l-.52,122.51A10.64,10.64,0,0,1,367.22,227.92Z"/><path class="cls-2" d="M367.77,88.35l-9.5,0A2.35,2.35,0,0,0,356,90.7v1.72a2.36,2.36,0,0,1-2.32,2.4l-18.52-.09a2.35,2.35,0,0,1-2.29-2.41V90.6a2.37,2.37,0,0,0-2.3-2.42h-3.34l-8.32,0a7.46,7.46,0,0,0-7.51,7.42l-.51,119.58a7.48,7.48,0,0,0,7.45,7.49l48.9.22a7.46,7.46,0,0,0,7.51-7.42l.51-119.58A7.47,7.47,0,0,0,367.77,88.35Z"/><rect class="cls-1" x="318.58" y="169.72" width="48.39" height="3.24"/><path class="cls-3" d="M365.24,182.46c0,.12-10.33.21-23.07.21s-23.07-.09-23.07-.21,10.33-.21,23.07-.21S365.24,182.35,365.24,182.46Z"/><path class="cls-3" d="M365.24,105.68c0,.12-10.33.21-23.07.21s-23.07-.09-23.07-.21,10.33-.21,23.07-.21S365.24,105.56,365.24,105.68Z"/><path class="cls-3" d="M365.24,188.36c0,.11-10.33.21-23.07.21s-23.07-.1-23.07-.21,10.33-.22,23.07-.22S365.24,188.24,365.24,188.36Z"/><path class="cls-3" d="M365.24,194.25c0,.12-10.33.21-23.07.21s-23.07-.09-23.07-.21,10.33-.21,23.07-.21S365.24,194.13,365.24,194.25Z"/><path class="cls-3" d="M365.24,200.14c0,.12-10.33.21-23.07.21s-23.07-.09-23.07-.21,10.33-.21,23.07-.21S365.24,200,365.24,200.14Z"/><path class="cls-3" d="M365.24,206c0,.12-10.33.21-23.07.21s-23.07-.09-23.07-.21,10.33-.21,23.07-.21S365.24,205.92,365.24,206Z"/><path class="cls-3" d="M365.9,212.71c0,.12-10.33.22-23.07.22s-23.07-.1-23.07-.22,10.33-.21,23.07-.21S365.9,212.6,365.9,212.71Z"/><rect class="cls-4" x="319.1" y="112.4" width="48.51" height="46.94"/><polygon class="cls-5" points="322.87 155.32 336.29 131.16 347.26 146.6 353.93 138.4 363.86 155.32 322.87 155.32"/><path class="cls-6" d="M351.94,126.47a3.49,3.49,0,1,1-3.49-3.49A3.49,3.49,0,0,1,351.94,126.47Z"/><path class="cls-3" d="M363.86,155.45a.86.86,0,0,1,0-.19c0-.14,0-.32,0-.55,0-.5,0-1.21,0-2.11,0-1.86,0-4.56-.05-8,0-6.86-.06-16.62-.1-28.34l.2.19-41,0c-.06,0,.43-.44.23-.23h0v5.3c0,1.76,0,3.5,0,5.23v10.11c0,6.58,0,12.79,0,18.51l-.21-.2,29.64.1,8.36.05,2.22,0h0l-2.17,0-8.32.06-29.77.1h-.2v-.2c0-5.72,0-11.93,0-18.51V126.83c0-1.73,0-3.47,0-5.23v-5.3h0l.24-.24,41,0h.19v.2c0,11.77-.07,21.58-.1,28.46,0,3.4,0,6.08-.05,7.93,0,.89,0,1.58,0,2.07,0,.22,0,.39,0,.53S363.86,155.45,363.86,155.45Z"/><path class="cls-7" d="M394.48,132.73a14.71,14.71,0,0,1,2.87,2.81l3.67-.67,2.42,5.67-3,2.19a15,15,0,0,1,0,4l3.07,2.11-2.3,5.73-3.68-.6a14.76,14.76,0,0,1-2.81,2.88l.67,3.66L389.74,163l-2.19-3a15.43,15.43,0,0,1-4,0L381.42,163l-5.73-2.3.6-3.68a14.76,14.76,0,0,1-2.88-2.81l-3.66.67-2.42-5.67,3-2.18a15.44,15.44,0,0,1-.05-4l-3.06-2.12,2.3-5.72,3.68.59a14.71,14.71,0,0,1,2.81-2.87l-.67-3.67,5.67-2.42,2.18,3a15,15,0,0,1,4,0l2.12-3.07,5.72,2.3-.59,3.68Zm-6.37,6.13a6.62,6.62,0,1,0,3.67,8.61A6.61,6.61,0,0,0,388.11,138.86Z"/><path class="cls-8" d="M54.44,157.45a27.47,27.47,0,0,1,5.19,5.08l6.63-1.21,4.37,10.26-5.46,3.94a27.2,27.2,0,0,1,.08,7.27l5.54,3.83L66.64,197,60,195.89a27.22,27.22,0,0,1-5.09,5.19l1.21,6.63-10.25,4.37-3.94-5.46a27.2,27.2,0,0,1-7.27.08l-3.83,5.54-10.34-4.15,1.07-6.65a27.22,27.22,0,0,1-5.19-5.09l-6.63,1.21L5.36,187.31l5.46-3.94a27.2,27.2,0,0,1-.08-7.27L5.2,172.27l4.15-10.34L16,163a27.22,27.22,0,0,1,5.09-5.19l-1.21-6.63,10.25-4.37,3.94,5.46a27.2,27.2,0,0,1,7.27-.08l3.83-5.54,10.34,4.15-1.07,6.65ZM42.92,168.54a12,12,0,1,0,6.64,15.55A12,12,0,0,0,42.92,168.54Z"/><path class="cls-9" d="M27.24,105.56a15,15,0,0,1,2.87,2.82l3.67-.67,2.42,5.67-3,2.18a15.44,15.44,0,0,1,0,4l3.06,2.12L34,127.42l-3.68-.59a15,15,0,0,1-2.81,2.87l.67,3.67-5.67,2.42-2.19-3a14.94,14.94,0,0,1-4,0l-2.12,3.07-5.72-2.3.59-3.68a15,15,0,0,1-2.88-2.81l-3.66.67L.09,122.09l3-2.19a15.44,15.44,0,0,1,0-4L0,113.76,2.3,108l3.68.59a15,15,0,0,1,2.81-2.87l-.67-3.66,5.67-2.42,2.19,3a14.54,14.54,0,0,1,4,0l2.12-3.06,5.72,2.3-.59,3.67Zm-6.37,6.14a6.61,6.61,0,1,0,3.67,8.6A6.61,6.61,0,0,0,20.87,111.7Z"/><path class="cls-8" d="M101.84,60.45a37.68,37.68,0,0,1,8.86,4.68l8.29-4.2,9.81,11.82-5.66,7.37a38,38,0,0,1,3,9.57l8.82,2.88-1.42,15.3-9.21,1.2a37.32,37.32,0,0,1-4.68,8.86l4.2,8.29L112,136l-7.37-5.67a37.62,37.62,0,0,1-9.57,3l-2.88,8.82-15.3-1.42-1.2-9.21a37.32,37.32,0,0,1-8.86-4.68L58.52,131l-9.81-11.82,5.66-7.37a38,38,0,0,1-3-9.57L42.59,99.4,44,84.1l9.21-1.2A37.32,37.32,0,0,1,57.9,74l-4.21-8.29,11.83-9.81,7.37,5.67a37.62,37.62,0,0,1,9.57-3l2.88-8.82,15.3,1.42,1.2,9.21ZM91,79.64a16.48,16.48,0,1,0,14.88,17.94A16.47,16.47,0,0,0,91,79.64Z"/><rect class="cls-1" x="142.84" y="-28.95" width="133.09" height="190.99" rx="11.55" transform="translate(142.84 275.93) rotate(-90)"/><rect class="cls-2" x="151.84" y="-10.52" width="114.83" height="152.16" transform="translate(143.69 274.82) rotate(-90)"/><path class="cls-10" d="M293.75,62.76a4.87,4.87,0,1,1-4.87,4.87A4.87,4.87,0,0,1,293.75,62.76Z"/><rect class="cls-10" x="107.83" y="66.62" width="38.24" height="2.01" rx="0.51" transform="translate(59.33 194.58) rotate(-90)"/><rect class="cls-1" x="202.57" y="17.09" width="48.39" height="3.24"/><rect class="cls-1" x="139.54" y="72.74" width="48.39" height="3.24"/><path class="cls-3" d="M262.75,29.14c0,.12-13.47.22-30.09.22s-30.09-.1-30.09-.22,13.47-.21,30.09-.21S262.75,29,262.75,29.14Z"/><path class="cls-3" d="M262.75,36.21c0,.12-13.47.21-30.09.21s-30.09-.09-30.09-.21S216,36,232.66,36,262.75,36.1,262.75,36.21Z"/><path class="cls-3" d="M262.75,43.28c0,.12-13.47.21-30.09.21s-30.09-.09-30.09-.21,13.47-.21,30.09-.21S262.75,43.16,262.75,43.28Z"/><path class="cls-3" d="M262.75,50.35c0,.12-13.47.21-30.09.21s-30.09-.09-30.09-.21,13.47-.21,30.09-.21S262.75,50.23,262.75,50.35Z"/><path class="cls-3" d="M262.75,57.42c0,.12-13.47.21-30.09.21s-30.09-.09-30.09-.21,13.47-.21,30.09-.21S262.75,57.3,262.75,57.42Z"/><path class="cls-3" d="M249.55,64.49c0,.11-10.52.21-23.49.21s-23.49-.1-23.49-.21,10.51-.21,23.49-.21S249.55,64.37,249.55,64.49Z"/><path class="cls-3" d="M219,85.49c0,.12-17.67.21-39.47.21s-39.48-.09-39.48-.21,17.67-.21,39.48-.21S219,85.37,219,85.49Z"/><path class="cls-3" d="M219,91.38c0,.12-17.67.21-39.47.21s-39.48-.09-39.48-.21,17.67-.21,39.48-.21S219,91.26,219,91.38Z"/><path class="cls-3" d="M219,97.27c0,.12-17.67.22-39.47.22s-39.48-.1-39.48-.22,17.67-.21,39.48-.21S219,97.16,219,97.27Z"/><path class="cls-3" d="M219,103.17c0,.11-17.67.21-39.47.21s-39.48-.1-39.48-.21,17.67-.21,39.48-.21S219,103.05,219,103.17Z"/><path class="cls-3" d="M219,109.06c0,.12-17.67.21-39.47.21s-39.48-.09-39.48-.21,17.67-.21,39.48-.21S219,108.94,219,109.06Z"/><rect class="cls-5" x="140.06" y="15.43" width="48.51" height="46.94"/><polygon class="cls-4" points="143.83 58.34 157.25 34.19 168.22 49.63 174.89 41.43 184.82 58.34 143.83 58.34"/><path class="cls-4" d="M172.9,29.49A3.49,3.49,0,1,1,169.41,26,3.49,3.49,0,0,1,172.9,29.49Z"/><path class="cls-3" d="M184.82,58.47s0-.06,0-.19,0-.32,0-.54c0-.5,0-1.21,0-2.12,0-1.86,0-4.55-.05-8,0-6.85-.06-16.62-.1-28.34l.2.2-41,0c-.06.05.43-.43.23-.22h0v5.3c0,1.76,0,3.5,0,5.23V40c0,6.57,0,12.79,0,18.5l-.2-.2,29.63.11,8.36,0,2.22,0h.78l-.18,0h-.56l-2.17,0-8.32,0-29.76.11h-.21v-.21c0-5.71,0-11.93,0-18.5V24.63c0-.88,0-1.76,0-2.65V19.33h0l.24-.24,41,0h.2v.2c0,11.78-.07,21.58-.1,28.47,0,3.4,0,6.07,0,7.92,0,.9,0,1.59,0,2.08,0,.22,0,.39,0,.52S184.82,58.48,184.82,58.47Z"/><rect class="cls-5" x="229.9" y="78.97" width="34.33" height="33.22"/><polygon class="cls-4" points="232.56 109.34 242.06 92.25 249.83 103.18 254.55 97.38 261.57 109.34 232.56 109.34"/><path class="cls-4" d="M253.14,88.93a2.47,2.47,0,1,1-2.47-2.47A2.48,2.48,0,0,1,253.14,88.93Z"/><path class="cls-3" d="M261.57,109.44s0,0,0-.14v-.39c0-.35,0-.85,0-1.49,0-1.32,0-3.22,0-5.64,0-4.85,0-11.76-.07-20.06l.14.14-29,0s.31-.31.17-.16h0v1.88c0,.63,0,1.25,0,1.88V96.34c0,4.65,0,9,0,13.1l-.14-.14,21,.07,5.91,0h1.6l-1.54,0-5.88,0-21.07.07h-.14v-.14c0-4,0-8.45,0-13.1V81.73h0c-.15.14.2-.21.16-.17l29,0h.14v.14c0,8.33,0,15.27-.07,20.15,0,2.4,0,4.3,0,5.61,0,.63,0,1.12,0,1.47,0,.15,0,.27,0,.37A.55.55,0,0,1,261.57,109.44Z"/><rect class="cls-1" x="42.59" y="141.63" width="258.2" height="170.74" rx="14.57"/><path class="cls-11" d="M35.44,299.92H311.38a0,0,0,0,1,0,0v7.28a7.45,7.45,0,0,1-7.45,7.45h-261a7.45,7.45,0,0,1-7.45-7.45v-7.28a0,0,0,0,1,0,0Z"/><polygon class="cls-4" points="288.88 292.87 53.05 292.87 55.51 150.8 289.28 153.5 288.88 292.87"/><polygon class="cls-3" points="148.33 299.92 151.75 305.37 199.93 305.37 203.11 299.92 148.33 299.92"/><rect class="cls-12" x="58.78" y="160.11" width="221.25" height="132.71"/><path class="cls-5" d="M70.38,166.66a1.86,1.86,0,1,1-1.85-1.86A1.85,1.85,0,0,1,70.38,166.66Z"/><path class="cls-5" d="M78,166.66a1.86,1.86,0,1,1-1.86-1.86A1.85,1.85,0,0,1,78,166.66Z"/><path class="cls-5" d="M85.53,166.66a1.86,1.86,0,1,1-1.85-1.86A1.85,1.85,0,0,1,85.53,166.66Z"/><path class="cls-3" d="M282.19,174.78c0,.12-49.53.21-110.62.21s-110.63-.09-110.63-.21,49.52-.21,110.63-.21S282.19,174.66,282.19,174.78Z"/><rect class="cls-3" x="46.09" y="300.03" width="254.7" height="0.81"/><rect class="cls-1" x="79.08" y="239.25" width="48.39" height="3.24"/><rect class="cls-1" x="141.58" y="194.31" width="48.39" height="3.24"/><path class="cls-3" d="M262,206.37c0,.11-26.95.21-60.18.21s-60.19-.1-60.19-.21,26.94-.22,60.19-.22S262,206.25,262,206.37Z"/><path class="cls-3" d="M262,213.44c0,.11-26.95.21-60.18.21s-60.19-.1-60.19-.21,26.94-.22,60.19-.22S262,213.32,262,213.44Z"/><path class="cls-3" d="M262,220.5c0,.12-26.95.22-60.18.22s-60.19-.1-60.19-.22,26.94-.21,60.19-.21S262,220.39,262,220.5Z"/><path class="cls-3" d="M262,227.57c0,.12-26.95.21-60.18.21s-60.19-.09-60.19-.21,26.94-.21,60.19-.21S262,227.46,262,227.57Z"/><path class="cls-3" d="M262,234.64c0,.12-26.95.21-60.18.21s-60.19-.09-60.19-.21,26.94-.21,60.19-.21S262,234.52,262,234.64Z"/><path class="cls-3" d="M188.57,241.71c0,.12-10.52.21-23.49.21s-23.5-.09-23.5-.21,10.52-.21,23.5-.21S188.57,241.59,188.57,241.71Z"/><path class="cls-3" d="M261.07,255.43c0,.12-17.72.21-39.56.21s-39.56-.09-39.56-.21,17.71-.21,39.56-.21S261.07,255.31,261.07,255.43Z"/><path class="cls-3" d="M261.07,262.93c0,.12-17.72.21-39.56.21s-39.56-.09-39.56-.21,17.71-.21,39.56-.21S261.07,262.82,261.07,262.93Z"/><path class="cls-3" d="M261.07,270.44c0,.11-17.72.21-39.56.21s-39.56-.1-39.56-.21,17.71-.22,39.56-.22S261.07,270.32,261.07,270.44Z"/><path class="cls-3" d="M261.07,277.94c0,.12-17.72.21-39.56.21s-39.56-.09-39.56-.21,17.71-.21,39.56-.21S261.07,277.82,261.07,277.94Z"/><path class="cls-3" d="M127.59,254.71c0,.12-10.56.21-23.58.21s-23.58-.09-23.58-.21S91,254.5,104,254.5,127.59,254.59,127.59,254.71Z"/><path class="cls-3" d="M127.59,260.6c0,.12-10.56.21-23.58.21s-23.58-.09-23.58-.21,10.56-.21,23.58-.21S127.59,260.49,127.59,260.6Z"/><path class="cls-3" d="M127.59,266.5c0,.11-10.56.21-23.58.21s-23.58-.1-23.58-.21,10.56-.22,23.58-.22S127.59,266.38,127.59,266.5Z"/><path class="cls-3" d="M127.59,272.39c0,.12-10.56.21-23.58.21s-23.58-.09-23.58-.21,10.56-.21,23.58-.21S127.59,272.27,127.59,272.39Z"/><path class="cls-3" d="M127.59,278.28c0,.12-10.56.21-23.58.21s-23.58-.09-23.58-.21,10.56-.21,23.58-.21S127.59,278.16,127.59,278.28Z"/><rect class="cls-4" x="79.08" y="183.73" width="48.51" height="46.94"/><polygon class="cls-5" points="82.84 226.65 96.26 202.5 107.24 217.94 113.91 209.74 123.83 226.65 82.84 226.65"/><path class="cls-6" d="M111.91,197.8a3.49,3.49,0,1,1-3.49-3.49A3.49,3.49,0,0,1,111.91,197.8Z"/><path class="cls-3" d="M123.83,226.78a1.49,1.49,0,0,1,0-.19c0-.14,0-.32,0-.55,0-.5,0-1.2,0-2.11,0-1.86,0-4.55-.06-8,0-6.86-.06-16.62-.1-28.34l.2.2-41,0,.23-.22h0v10.52c0,3.45,0,6.83,0,10.12,0,6.57,0,12.79,0,18.5l-.2-.2,29.64.1,8.36.06,2.21,0h.78s-.06,0-.18,0l-.55,0-2.18,0-8.31,0-29.77.1h-.2v-.2c0-5.71,0-11.93,0-18.5,0-3.29,0-6.67,0-10.12V187.64h0c-.21.2.28-.29.23-.24l41,0h.2v.2c0,11.77-.08,21.58-.1,28.47,0,3.4,0,6.07-.05,7.92,0,.89,0,1.59,0,2.08,0,.22,0,.39,0,.52S123.84,226.79,123.83,226.78Z"/><rect class="cls-4" x="141.55" y="251.85" width="34.33" height="33.22"/><polygon class="cls-5" points="144.22 282.22 153.71 265.13 161.48 276.06 166.2 270.25 173.22 282.22 144.22 282.22"/><path class="cls-6" d="M164.79,261.8a2.47,2.47,0,1,1-2.47-2.47A2.48,2.48,0,0,1,164.79,261.8Z"/><path class="cls-3" d="M173.22,282.32v-.14c0-.1,0-.23,0-.39,0-.35,0-.85,0-1.49,0-1.32,0-3.23,0-5.64,0-4.86,0-11.77-.08-20.06l.14.14-29,0s.31-.3.16-.16h0v7.45c0,2.44,0,4.83,0,7.16,0,4.65,0,9,0,13.1l-.14-.15,21,.08,5.92,0,1.57,0h0l-1.54,0-5.89,0-21.06.07h-.15v-.14c0-4.05,0-8.45,0-13.1,0-2.33,0-4.72,0-7.16v-7.45h0c-.14.15.2-.2.17-.16l29,0h.15v.14c0,8.33-.06,15.27-.08,20.15,0,2.4,0,4.29,0,5.6,0,.64,0,1.13,0,1.47,0,.16,0,.28,0,.37S173.23,282.32,173.22,282.32Z"/></svg>