<?xml version="1.0" encoding="utf-8"?>
<!-- Generator: Adobe Illustrator 25.0.0, SVG Export Plug-In . SVG Version: 6.00 Build 0)  -->
<svg version="1.1" id="Capa_1" xmlns="http://www.w3.org/2000/svg" xmlns:xlink="http://www.w3.org/1999/xlink" x="0px" y="0px"
	 viewBox="0 0 425.2 425.2" style="enable-background:new 0 0 425.2 425.2;" xml:space="preserve">
<style type="text/css">
	.st0{fill:#C6C6C6;}
	.st1{fill:none;}
	.st2{fill:#E30613;}
	.st3{fill:#FFFFFF;}
	.st4{fill:none;stroke:#E30613;stroke-width:2.8641;stroke-miterlimit:10;stroke-dasharray:4.9283,4.9277;}
	.st5{fill:none;stroke:#000000;stroke-width:1.2525;stroke-miterlimit:10;}
	.st6{fill-rule:evenodd;clip-rule:evenodd;fill:#EBEBEB;}
	.st7{fill-rule:evenodd;clip-rule:evenodd;fill:#E30613;}
	.st8{fill-rule:evenodd;clip-rule:evenodd;fill:#F0F0F0;}
	.st9{fill:#455A64;}
	.st10{fill:#E0E0E0;}
	.st11{fill:#E9505B;}
	.st12{fill:#263239;}
	.st13{fill:#FBFBFB;}
</style>
<g>
	<g>
		<g>
			<path class="st0" d="M206.37,342.82c-67.64,0-122.47-54.83-122.47-122.47S138.73,97.88,206.37,97.88
				c67.64,0,122.47,54.83,122.47,122.47S274.01,342.82,206.37,342.82z"/>
		</g>
		<g>
			<path class="st1" d="M206.37,92.68c-70.77,0-128.15,57.37-128.15,128.15c0,28.7,9.47,55.16,25.41,76.51H309.1
				c15.94-21.35,25.41-47.81,25.41-76.51C334.51,150.06,277.14,92.68,206.37,92.68z"/>
			<path class="st2" d="M78.22,220.83c0-70.77,57.37-128.15,128.15-128.15c70.77,0,128.14,57.37,128.14,128.15
				c0,28.7-9.47,55.16-25.41,76.51h66.81c10.55-23.34,16.45-49.23,16.45-76.51c0-102.72-83.27-185.99-185.99-185.99
				S20.37,118.11,20.37,220.83c0,27.28,5.89,53.17,16.45,76.51h66.81C87.69,275.99,78.22,249.53,78.22,220.83z"/>
		</g>
		<g>
			<path class="st3" d="M47.31,172.14l1.63-5.03c0.36-1.1,0.83-1.99,1.42-2.65c0.59-0.67,1.25-1.16,1.97-1.47
				c0.72-0.31,1.49-0.46,2.29-0.43c0.8,0.02,1.59,0.16,2.38,0.42l0.88,0.28c0.65,0.21,1.19,0.44,1.6,0.69
				c0.42,0.25,0.76,0.53,1.03,0.84c0.27,0.31,0.49,0.66,0.65,1.03c0.16,0.38,0.3,0.79,0.4,1.25c0.65-0.69,1.41-1.1,2.28-1.24
				c0.88-0.14,1.95,0,3.21,0.41l1.35,0.44c2.12,0.69,3.57,1.72,4.36,3.11c0.79,1.39,0.83,3.21,0.1,5.46l-1.52,4.69L47.31,172.14z
				 M58.29,171.9l0.5-1.55c0.37-1.15,0.33-2.01-0.11-2.59c-0.45-0.58-1.22-1.05-2.32-1.41c-1.08-0.35-1.96-0.39-2.64-0.13
				c-0.68,0.26-1.21,0.97-1.58,2.12l-0.46,1.42L58.29,171.9z M69.02,175.38l0.48-1.49c0.23-0.7,0.3-1.28,0.23-1.74
				c-0.08-0.46-0.26-0.85-0.55-1.17c-0.29-0.32-0.68-0.58-1.16-0.79c-0.48-0.21-1.01-0.4-1.6-0.59c-0.61-0.2-1.15-0.33-1.62-0.41
				c-0.47-0.08-0.89-0.06-1.27,0.06c-0.37,0.12-0.7,0.34-0.98,0.67c-0.28,0.33-0.52,0.81-0.73,1.44l-0.49,1.52L69.02,175.38z"/>
			<path class="st3" d="M52.8,156.35l1.38-3.35l23.36,9.63l-1.38,3.35L52.8,156.35z"/>
			<path class="st3" d="M56.12,148.4l2.39-4.72c0.52-1.03,1.13-1.84,1.81-2.4c0.69-0.57,1.41-0.95,2.17-1.15s1.54-0.22,2.33-0.08
				s1.55,0.41,2.29,0.78l0.82,0.42c0.61,0.31,1.11,0.62,1.48,0.93s0.67,0.64,0.89,0.99s0.38,0.72,0.49,1.12
				c0.1,0.4,0.17,0.83,0.2,1.29c0.74-0.58,1.56-0.87,2.45-0.87c0.89,0,1.92,0.3,3.11,0.9l1.27,0.64c1.98,1,3.26,2.25,3.83,3.75
				c0.57,1.49,0.32,3.3-0.75,5.41l-2.23,4.4L56.12,148.4z M67,149.85l0.74-1.46c0.54-1.08,0.64-1.94,0.29-2.58
				c-0.35-0.64-1.04-1.22-2.08-1.75c-1.01-0.51-1.88-0.69-2.59-0.54s-1.34,0.77-1.89,1.85l-0.67,1.33L67,149.85z M77.07,154.94
				l0.71-1.39c0.33-0.65,0.49-1.21,0.49-1.68c0-0.46-0.12-0.88-0.37-1.24c-0.24-0.36-0.58-0.68-1.03-0.96
				c-0.44-0.28-0.94-0.55-1.49-0.83c-0.57-0.29-1.08-0.51-1.54-0.66s-0.88-0.2-1.26-0.14c-0.39,0.06-0.75,0.23-1.07,0.51
				c-0.33,0.28-0.64,0.72-0.94,1.31l-0.72,1.42L77.07,154.94z"/>
			<path class="st3" d="M64.07,133.36l1.94-3.06l18.27,11.61l3.84-6.05l3.05,1.94l-5.78,9.1L64.07,133.36z"/>
			<path class="st3" d="M72.13,121.21l2.15-2.91l20.33,15l-2.15,2.91L72.13,121.21z"/>
			<path class="st3" d="M81.63,118.36c-0.77-0.66-1.33-1.39-1.69-2.17c-0.36-0.78-0.54-1.55-0.55-2.32
				c-0.01-0.77,0.13-1.51,0.4-2.23c0.28-0.72,0.65-1.35,1.13-1.91c0.48-0.55,1.05-1.02,1.72-1.4c0.67-0.38,1.38-0.62,2.15-0.72
				c0.76-0.11,1.56-0.04,2.38,0.2c0.82,0.24,1.62,0.7,2.39,1.36l10.09,8.72c0.79,0.68,1.36,1.41,1.71,2.18
				c0.35,0.77,0.53,1.54,0.53,2.31c0.01,0.77-0.13,1.51-0.4,2.23c-0.28,0.72-0.65,1.35-1.13,1.91c-0.48,0.56-1.05,1.02-1.72,1.4
				c-0.67,0.38-1.38,0.62-2.15,0.72c-0.76,0.11-1.55,0.04-2.37-0.19c-0.81-0.23-1.61-0.69-2.4-1.37L81.63,118.36z M94.1,124.35
				c0.66,0.57,1.31,0.81,1.94,0.71c0.63-0.1,1.16-0.4,1.59-0.9s0.65-1.07,0.66-1.71c0-0.64-0.33-1.24-0.99-1.81l-10.1-8.72
				c-0.66-0.57-1.31-0.81-1.94-0.71c-0.63,0.1-1.16,0.4-1.59,0.9s-0.65,1.07-0.66,1.71c0,0.64,0.33,1.24,0.99,1.81L94.1,124.35z"/>
			<path class="st3" d="M92.29,102.86l-3.01,2.91l-2.37-2.45l8.62-8.34l2.37,2.45l-3.01,2.91l15.2,15.71l-2.6,2.52L92.29,102.86z"/>
			<path class="st3" d="M97.97,92.88l8.36-6.81l2.15,2.64l-5.56,4.53l4.69,5.75l4.84-3.95l2.15,2.64l-4.84,3.95l4.69,5.75l5.56-4.53
				l2.29,2.81l-8.36,6.81L97.97,92.88z"/>
			<path class="st3" d="M130.17,93.52c0.43,0.65,0.72,1.35,0.87,2.1c0.15,0.75,0.15,1.5,0.02,2.23c-0.14,0.73-0.41,1.42-0.81,2.08
				c-0.4,0.65-0.94,1.2-1.61,1.65c-0.57,0.38-1.2,0.69-1.9,0.93c-0.69,0.24-1.41,0.32-2.13,0.25c-0.73-0.07-1.46-0.31-2.18-0.74
				c-0.73-0.43-1.41-1.12-2.05-2.08l-7.73-11.56c-0.46-0.69-0.77-1.41-0.93-2.15c-0.16-0.75-0.17-1.48-0.02-2.2
				c0.14-0.72,0.43-1.41,0.87-2.05c0.43-0.65,1.02-1.21,1.74-1.7c0.69-0.46,1.41-0.76,2.16-0.91c0.75-0.15,1.5-0.15,2.22,0.01
				c0.73,0.15,1.42,0.46,2.08,0.91c0.66,0.46,1.23,1.05,1.72,1.77l0.79,1.18l-3.01,2.01l-0.67-1c-0.39-0.59-0.9-0.99-1.53-1.2
				c-0.62-0.21-1.22-0.12-1.79,0.26c-0.75,0.5-1.09,1.06-1.03,1.69c0.06,0.63,0.33,1.29,0.8,2l7.18,10.74
				c0.41,0.61,0.88,1.03,1.42,1.27c0.54,0.24,1.16,0.12,1.84-0.34c0.2-0.13,0.39-0.31,0.57-0.53c0.18-0.22,0.31-0.47,0.39-0.75
				c0.08-0.28,0.09-0.6,0.02-0.95c-0.07-0.35-0.24-0.74-0.51-1.15l-0.69-1.03l3.01-2.01L130.17,93.52z"/>
			<path class="st3" d="M126.98,72.85l2.66-1.42l16.86,19.64l-3.19,1.7l-3.49-4.29l-4.35,2.32l1.61,5.29l-3.19,1.7L126.98,72.85z
				 M131.75,78.55l-0.06,0.03l2.74,8.91l3.19-1.7L131.75,78.55z"/>
			<path class="st3" d="M160.12,85.74l-3.01,1.08l-13.36-22.05l3.61-1.29l8.65,15.63l0.07-0.02l-3.21-17.58l3.61-1.29L160.12,85.74z
				"/>
			<path class="st3" d="M160.09,59.26l3.49-0.96l6.7,24.36l-3.49,0.96L160.09,59.26z"/>
			<path class="st3" d="M168.4,57.01l5.71-1.11c4.18-0.81,6.74,1.21,7.68,6.07c0.28,1.44,0.29,2.72,0.04,3.84
				c-0.25,1.12-0.89,2.11-1.9,2.95l6.02,10.58l-3.76,0.73l-5.36-9.95l-2.12,0.41l2.05,10.59l-3.55,0.69L168.4,57.01z M174.09,67.4
				l2.02-0.39c0.63-0.12,1.11-0.31,1.45-0.55s0.57-0.55,0.71-0.91c0.13-0.36,0.19-0.79,0.17-1.28c-0.02-0.49-0.09-1.05-0.22-1.68
				c-0.12-0.63-0.26-1.17-0.42-1.63c-0.16-0.46-0.39-0.84-0.67-1.13c-0.29-0.29-0.64-0.48-1.07-0.57c-0.43-0.09-0.96-0.07-1.61,0.06
				l-1.85,0.36L174.09,67.4z"/>
			<path class="st3" d="M187.06,57.35l-4.17,0.43l-0.35-3.39l11.93-1.23l0.35,3.39l-4.17,0.43l2.24,21.74l-3.6,0.37L187.06,57.35z"
				/>
			<path class="st3" d="M209.77,72.4c0.01,0.83-0.13,1.6-0.42,2.31c-0.3,0.71-0.71,1.34-1.23,1.88c-0.52,0.54-1.14,0.97-1.84,1.29
				c-0.7,0.32-1.46,0.48-2.26,0.5c-0.8,0.01-1.56-0.13-2.28-0.42c-0.71-0.3-1.34-0.71-1.88-1.23c-0.54-0.52-0.97-1.14-1.29-1.84
				c-0.32-0.7-0.49-1.47-0.5-2.3l-0.32-19.58l3.62-0.06l0.31,19.23c0.01,0.9,0.24,1.56,0.67,1.98s0.97,0.62,1.61,0.61
				s1.17-0.23,1.59-0.66s0.62-1.1,0.61-2l-0.31-19.23l3.62-0.06L209.77,72.4z"/>
			<path class="st3" d="M218.4,53.39l3.01,0.26l3.44,25.66l-3.61-0.31l-0.59-5.5l-4.91-0.43l-1.53,5.32l-3.61-0.31L218.4,53.39z
				 M219.29,60.77l-0.07-0.01l-2.56,8.97l3.61,0.31L219.29,60.77z"/>
			<path class="st3" d="M230.61,54.73l3.56,0.65l-3.91,21.29l7.05,1.29l-0.65,3.56l-10.61-1.95L230.61,54.73z"/>
			<path class="st3" d="M252.56,59.61l5.08,1.71c1.95,0.66,3.26,1.7,3.92,3.14c0.66,1.44,0.67,3.13,0.01,5.08l-3.78,11.2
				c-0.76,2.24-1.86,3.71-3.3,4.41c-1.45,0.7-3.19,0.7-5.23,0.02l-4.77-1.61L252.56,59.61z M249.01,81.48l1.58,0.53
				c0.96,0.33,1.73,0.31,2.29-0.03c0.56-0.35,1.02-1.03,1.37-2.07l3.89-11.53c0.32-0.94,0.37-1.73,0.16-2.38s-0.81-1.14-1.82-1.48
				L254.9,64L249.01,81.48z"/>
			<path class="st3" d="M268.58,65.34l9.84,4.43l-1.4,3.11l-6.54-2.94l-3.04,6.76l5.7,2.56l-1.4,3.11l-5.7-2.56l-3.04,6.76
				l6.54,2.94l-1.49,3.3l-9.84-4.43L268.58,65.34z"/>
			<path class="st3" d="M282.03,71.65l3.15,1.78l-10.64,18.85l6.24,3.52l-1.78,3.15l-9.39-5.3L282.03,71.65z"/>
			<path class="st3" d="M301.04,83.36l8.59,6.52l-2.06,2.71l-5.71-4.33l-4.49,5.91l4.97,3.78l-2.06,2.71l-4.97-3.78l-4.48,5.91
				l5.71,4.33l-2.19,2.88l-8.59-6.52L301.04,83.36z"/>
			<path class="st3" d="M305.95,112.45c-0.55,0.61-1.19,1.1-1.9,1.46c-0.71,0.36-1.45,0.58-2.23,0.64s-1.55-0.03-2.34-0.3
				c-0.79-0.26-1.54-0.72-2.26-1.37c-0.86-0.78-1.4-1.61-1.63-2.5c-0.23-0.89-0.34-1.67-0.35-2.34l3.63,0.22
				c0.02,0.37,0.1,0.73,0.23,1.09c0.14,0.36,0.34,0.67,0.62,0.92c0.16,0.14,0.37,0.28,0.64,0.41c0.27,0.13,0.57,0.19,0.9,0.19
				c0.34,0,0.7-0.09,1.09-0.26c0.39-0.17,0.8-0.49,1.23-0.97l12.61-13.95l2.69,2.43L305.95,112.45z"/>
			<path class="st3" d="M322.53,101.67l7.36,7.89l-2.49,2.32l-4.89-5.24l-5.42,5.06l4.26,4.57l-2.49,2.32l-4.26-4.57l-5.42,5.06
				l4.89,5.24l-2.65,2.47l-7.36-7.89L322.53,101.67z M331.18,101.95l2.61,2.8l-6.85-0.01l-1.6-1.71L331.18,101.95z"/>
			<path class="st3" d="M332.59,112.76l3.54,4.62c2.59,3.38,1.92,6.57-2,9.58c-1.17,0.89-2.3,1.48-3.42,1.75
				c-1.12,0.27-2.28,0.14-3.49-0.39l-6.78,10.11l-2.33-3.04l6.51-9.24l-1.32-1.72l-8.56,6.56l-2.2-2.87L332.59,112.76z
				 M325.83,122.49l1.25,1.63c0.39,0.51,0.77,0.86,1.14,1.05c0.37,0.19,0.75,0.27,1.13,0.23c0.38-0.04,0.79-0.18,1.22-0.42
				c0.43-0.24,0.9-0.55,1.4-0.94c0.51-0.39,0.93-0.76,1.27-1.11c0.34-0.35,0.58-0.72,0.71-1.11c0.13-0.39,0.15-0.79,0.03-1.21
				s-0.37-0.89-0.77-1.42l-1.14-1.49L325.83,122.49z"/>
			<path class="st3" d="M332.07,146.58c-0.66,0.41-1.38,0.67-2.14,0.79s-1.5,0.1-2.23-0.07c-0.72-0.16-1.41-0.46-2.04-0.89
				c-0.64-0.43-1.17-0.98-1.59-1.67c-0.36-0.58-0.64-1.23-0.86-1.93c-0.21-0.7-0.27-1.42-0.17-2.14c0.09-0.73,0.37-1.44,0.82-2.15
				c0.45-0.71,1.17-1.37,2.16-1.98l11.84-7.29c0.71-0.43,1.43-0.72,2.19-0.85c0.75-0.13,1.49-0.11,2.2,0.06
				c0.71,0.17,1.39,0.48,2.02,0.94c0.63,0.46,1.17,1.06,1.63,1.81c0.44,0.7,0.71,1.44,0.83,2.2c0.12,0.76,0.09,1.5-0.09,2.22
				c-0.18,0.72-0.51,1.4-0.99,2.05c-0.48,0.64-1.09,1.19-1.84,1.65l-1.21,0.74l-1.9-3.08l1.03-0.63c0.6-0.37,1.02-0.87,1.25-1.48
				c0.23-0.62,0.17-1.22-0.19-1.8c-0.47-0.77-1.02-1.13-1.65-1.09c-0.63,0.04-1.3,0.28-2.03,0.73l-11,6.77
				c-0.62,0.38-1.06,0.84-1.32,1.38c-0.26,0.53-0.17,1.15,0.27,1.86c0.12,0.2,0.29,0.4,0.51,0.58c0.21,0.19,0.46,0.33,0.74,0.42
				c0.28,0.09,0.6,0.11,0.95,0.06c0.36-0.05,0.75-0.21,1.17-0.47l1.06-0.65l1.9,3.08L332.07,146.58z"/>
			<path class="st3" d="M350.87,140.29l1.66,3.22l-22.44,11.6l-1.66-3.21L350.87,140.29z"/>
			<path class="st3" d="M352.48,151.32l-1.67-3.84l3.12-1.36l4.79,10.99l-3.12,1.36l-1.68-3.84l-20.03,8.74l-1.45-3.32
				L352.48,151.32z"/>
			<path class="st3" d="M354.03,161.5c0.96-0.32,1.87-0.44,2.73-0.35s1.61,0.33,2.28,0.72c0.67,0.39,1.24,0.88,1.71,1.49
				s0.83,1.25,1.06,1.95c0.23,0.7,0.34,1.43,0.32,2.19c-0.02,0.77-0.18,1.51-0.48,2.22c-0.3,0.71-0.76,1.36-1.39,1.94
				c-0.63,0.58-1.43,1.04-2.39,1.36l-12.66,4.21c-0.99,0.33-1.9,0.45-2.74,0.35c-0.84-0.09-1.6-0.34-2.26-0.72
				c-0.67-0.39-1.23-0.89-1.71-1.49s-0.83-1.25-1.06-1.95c-0.23-0.7-0.34-1.43-0.32-2.19c0.02-0.77,0.18-1.51,0.48-2.22
				c0.3-0.71,0.76-1.36,1.38-1.93c0.62-0.58,1.42-1.03,2.41-1.36L354.03,161.5z M342.51,169.15c-0.83,0.28-1.37,0.71-1.61,1.3
				c-0.24,0.59-0.26,1.2-0.05,1.83c0.21,0.63,0.59,1.11,1.13,1.44c0.55,0.33,1.23,0.36,2.06,0.08l12.66-4.21
				c0.83-0.28,1.37-0.71,1.61-1.3c0.24-0.59,0.25-1.2,0.04-1.83c-0.21-0.63-0.59-1.11-1.13-1.44c-0.54-0.33-1.23-0.36-2.06-0.08
				L342.51,169.15z"/>
		</g>
		<g>
			<circle class="st2" cx="323.34" cy="398.12" r="7.52"/>
			<g>
				<path class="st4" d="M322.52,398.12c57.09-38.04,94.72-102.98,94.72-176.72c0-117.22-95.02-212.24-212.24-212.24
					c-64.02,0-121.37,28.38-160.28,73.2"/>
			</g>
		</g>
		<g>
			<path d="M206.22,406.25c75.29,0,140.08-44.68,169.36-108.91H36.86C66.13,361.57,130.93,406.25,206.22,406.25z"/>
		</g>
		<g>
			<path class="st3" d="M101.36,312.64h9.45c2.98,0,5.25,0.3,6.78,0.9c1.54,0.6,2.78,1.82,3.72,3.65s1.42,4.79,1.42,8.86
				c0,2.75-0.33,4.67-1,5.76c-0.67,1.09-1.98,1.92-3.95,2.5c2.19,0.64,3.67,1.71,4.46,3.19c0.78,1.49,1.17,3.76,1.17,6.83v4.37
				c0,3.19-0.28,5.54-0.84,7.08s-1.46,2.58-2.69,3.15c-1.23,0.56-3.75,0.84-7.56,0.84h-10.96V312.64z M110.83,320.71v10.48
				c0.4-0.02,0.72-0.03,0.94-0.03c0.93,0,1.52-0.3,1.78-0.89c0.25-0.59,0.38-2.29,0.38-5.08c0-1.47-0.1-2.51-0.31-3.1
				c-0.21-0.59-0.48-0.97-0.82-1.12C112.47,320.81,111.81,320.73,110.83,320.71z M110.83,338.53v13.19
				c1.33-0.06,2.19-0.33,2.55-0.82c0.37-0.48,0.55-1.68,0.55-3.58v-4.4c0-2.02-0.17-3.24-0.5-3.67
				C113.11,338.83,112.24,338.58,110.83,338.53z"/>
			<path class="st3" d="M136.83,312.64v47.14h-9.47v-47.14H136.83z"/>
			<path class="st3" d="M141.19,312.64h9.45c2.98,0,5.25,0.3,6.78,0.9c1.54,0.6,2.78,1.82,3.72,3.65s1.42,4.79,1.42,8.86
				c0,2.75-0.33,4.67-1,5.76c-0.67,1.09-1.98,1.92-3.95,2.5c2.19,0.64,3.67,1.71,4.46,3.19c0.78,1.49,1.17,3.76,1.17,6.83v4.37
				c0,3.19-0.28,5.54-0.84,7.08s-1.46,2.58-2.69,3.15c-1.23,0.56-3.75,0.84-7.56,0.84h-10.96V312.64z M150.66,320.71v10.48
				c0.4-0.02,0.72-0.03,0.94-0.03c0.93,0,1.52-0.3,1.78-0.89c0.25-0.59,0.38-2.29,0.38-5.08c0-1.47-0.1-2.51-0.31-3.1
				c-0.21-0.59-0.48-0.97-0.82-1.12C152.29,320.81,151.64,320.73,150.66,320.71z M150.66,338.53v13.19
				c1.33-0.06,2.19-0.33,2.55-0.82c0.37-0.48,0.55-1.68,0.55-3.58v-4.4c0-2.02-0.17-3.24-0.5-3.67
				C152.94,338.83,152.07,338.58,150.66,338.53z"/>
			<path class="st3" d="M176.66,312.64v37.71h5.76v9.43h-15.23v-47.14H176.66z"/>
			<path class="st3" d="M194.74,312.64v47.14h-9.47v-47.14H194.74z"/>
			<path class="st3" d="M220.74,340.24c0,4.74-0.09,8.09-0.26,10.06c-0.17,1.97-0.71,3.77-1.62,5.4c-0.91,1.63-2.13,2.88-3.68,3.76
				c-1.55,0.87-3.35,1.31-5.4,1.31c-1.95,0-3.7-0.41-5.25-1.24c-1.55-0.83-2.8-2.06-3.75-3.71c-0.94-1.65-1.51-3.45-1.69-5.39
				c-0.18-1.94-0.27-5.34-0.27-10.19v-8.07c0-4.74,0.09-8.09,0.26-10.06c0.17-1.97,0.71-3.77,1.62-5.4
				c0.91-1.63,2.13-2.88,3.68-3.76c1.54-0.87,3.34-1.31,5.4-1.31c1.95,0,3.7,0.41,5.25,1.24c1.55,0.83,2.8,2.06,3.75,3.71
				c0.95,1.65,1.51,3.45,1.69,5.39s0.27,5.34,0.27,10.19V340.24z M211.27,324.75c0-2.19-0.09-3.6-0.28-4.21s-0.57-0.92-1.16-0.92
				c-0.5,0-0.87,0.25-1.14,0.74c-0.26,0.5-0.39,1.96-0.39,4.38v22.01c0,2.74,0.09,4.42,0.26,5.07s0.57,0.96,1.2,0.96
				c0.64,0,1.06-0.37,1.24-1.11c0.18-0.74,0.27-2.49,0.27-5.27V324.75z"/>
			<path class="st3" d="M243.9,312.64v9.43h-5.62v37.71h-9.47v-37.71h-5.6v-9.43H243.9z"/>
			<path class="st3" d="M246.62,312.64h15.79v9.43h-6.32v8.94h5.92v8.97h-5.92v10.37h6.95v9.43h-16.43V312.64z"/>
			<path class="st3" d="M288.43,333.17h-9.47v-8.19c0-2.38-0.1-3.87-0.3-4.46c-0.2-0.59-0.65-0.89-1.34-0.89
				c-0.78,0-1.28,0.36-1.48,1.08c-0.21,0.72-0.32,2.27-0.32,4.66v21.9c0,2.29,0.11,3.79,0.32,4.48c0.21,0.7,0.68,1.05,1.42,1.05
				c0.71,0,1.17-0.35,1.38-1.05c0.22-0.7,0.33-2.34,0.33-4.93v-5.92h9.47v1.84c0,4.88-0.27,8.34-0.8,10.38
				c-0.53,2.04-1.71,3.83-3.53,5.37c-1.82,1.54-4.07,2.3-6.74,2.3c-2.78,0-5.06-0.65-6.86-1.95c-1.8-1.3-2.99-3.1-3.58-5.4
				c-0.59-2.3-0.88-5.76-0.88-10.38v-13.77c0-3.4,0.09-5.94,0.27-7.64c0.18-1.7,0.72-3.33,1.61-4.91c0.89-1.57,2.13-2.81,3.71-3.71
				c1.58-0.9,3.4-1.35,5.46-1.35c2.79,0,5.09,0.7,6.91,2.09s3.01,3.14,3.58,5.22s0.86,5.33,0.86,9.73V333.17z"/>
			<path class="st3" d="M308.76,312.64l5.42,47.14h-9.68l-0.51-8.47h-3.39l-0.57,8.47h-9.79l4.83-47.14H308.76z M303.74,342.95
				c-0.48-5.34-0.96-11.94-1.44-19.8c-0.96,9.03-1.57,15.63-1.82,19.8H303.74z"/>
		</g>
		<g>
			<g>
				<path class="st5" d="M205.46,417.42C96.8,417.42,8.71,329.33,8.71,220.67S96.8,23.92,205.46,23.92
					c108.66,0,196.75,88.09,196.75,196.75S314.12,417.42,205.46,417.42z"/>
			</g>
			<g>
				<path class="st2" d="M204.69,413.13c-96.79,0-177.03-72.01-190.08-165.25H5c13.12,98.52,97.64,174.78,199.68,174.78
					c0.42,0,0.83-0.03,1.24-0.03v-9.52C205.51,413.1,205.1,413.13,204.69,413.13z"/>
			</g>
		</g>
	</g>
</g>
<path class="st1" d="M143.21,152.55"/>
<path class="st1" d="M143.21,159.84"/>
<g>
	<g>
		<path class="st6" d="M308.88,191.8c0.55,0.41,1.04,0.89,1.45,1.42l1.85-0.34l1.22,2.87l-1.53,1.1c0.1,0.67,0.11,1.35,0.02,2.03
			l1.55,1.07l-1.16,2.89l-1.86-0.3c-0.41,0.55-0.89,1.04-1.42,1.45l0.34,1.85l-2.87,1.22l-1.1-1.53c-0.67,0.1-1.35,0.11-2.03,0.02
			l-1.07,1.55l-2.89-1.16l0.3-1.86c-0.55-0.41-1.04-0.89-1.45-1.42l-1.85,0.34l-1.22-2.87l1.53-1.1c-0.1-0.67-0.11-1.35-0.02-2.03
			l-1.55-1.07l1.16-2.89l1.86,0.3c0.41-0.55,0.89-1.04,1.42-1.45l-0.34-1.85l2.87-1.22l1.1,1.53c0.67-0.1,1.35-0.11,2.03-0.02
			l1.07-1.55l2.89,1.16L308.88,191.8L308.88,191.8z M305.66,194.9c-1.71-0.69-3.66,0.14-4.35,1.86c-0.69,1.71,0.14,3.66,1.86,4.35
			c1.71,0.69,3.66-0.14,4.35-1.86C308.21,197.54,307.37,195.59,305.66,194.9z"/>
		<path class="st7" d="M136.92,204.3c1,0.74,1.88,1.61,2.62,2.57l3.35-0.61l2.21,5.18l-2.76,2c0.17,1.2,0.19,2.44,0.04,3.67
			l2.8,1.94l-2.1,5.23l-3.36-0.54c-0.75,1-1.61,1.88-2.57,2.62l0.61,3.35l-5.18,2.21l-2-2.76c-1.2,0.17-2.44,0.19-3.67,0.04
			l-1.94,2.8l-5.23-2.1l0.54-3.36c-1-0.75-1.88-1.61-2.62-2.57l-3.35,0.61l-2.21-5.18l2.76-2c-0.17-1.2-0.19-2.44-0.04-3.67
			l-2.8-1.94l2.1-5.23l3.36,0.54c0.75-1,1.61-1.88,2.57-2.63l-0.61-3.35l5.18-2.21l2,2.76c1.2-0.17,2.44-0.19,3.67-0.04l1.94-2.8
			l5.23,2.1L136.92,204.3L136.92,204.3z M131.09,209.91c-3.1-1.25-6.62,0.26-7.86,3.36c-1.24,3.1,0.26,6.62,3.36,7.86
			c3.1,1.24,6.62-0.26,7.86-3.36C135.69,214.68,134.19,211.15,131.09,209.91z"/>
		<path class="st8" d="M123.16,178.06c0.55,0.41,1.04,0.89,1.45,1.42l1.85-0.34l1.22,2.87l-1.53,1.1c0.1,0.67,0.11,1.35,0.02,2.03
			l1.55,1.07l-1.16,2.89l-1.86-0.3c-0.41,0.55-0.89,1.04-1.42,1.45l0.34,1.85l-2.87,1.22l-1.1-1.53c-0.67,0.1-1.35,0.11-2.03,0.02
			l-1.07,1.55l-2.89-1.16l0.3-1.86c-0.55-0.41-1.04-0.89-1.45-1.42l-1.85,0.34l-1.22-2.87l1.53-1.1c-0.1-0.67-0.11-1.35-0.02-2.03
			l-1.55-1.07l1.16-2.89l1.86,0.3c0.41-0.55,0.89-1.04,1.42-1.45l-0.34-1.85l2.87-1.22l1.1,1.53c0.67-0.1,1.35-0.11,2.03-0.02
			l1.07-1.55l2.89,1.16L123.16,178.06L123.16,178.06z M119.94,181.16c-1.71-0.69-3.66,0.14-4.35,1.86
			c-0.69,1.71,0.14,3.66,1.86,4.35c1.71,0.69,3.66-0.14,4.35-1.86C122.49,183.8,121.65,181.85,119.94,181.16z"/>
		<path class="st7" d="M160.89,155.25c1.61,0.59,3.11,1.39,4.48,2.37l4.19-2.13l4.96,5.98l-2.86,3.72c0.7,1.52,1.21,3.15,1.5,4.84
			l4.46,1.46l-0.72,7.74l-4.66,0.61c-0.59,1.61-1.39,3.11-2.37,4.48l2.13,4.19l-5.98,4.96l-3.72-2.86c-1.52,0.7-3.15,1.21-4.84,1.5
			l-1.46,4.46l-7.74-0.72l-0.61-4.66c-1.61-0.59-3.11-1.39-4.48-2.37l-4.19,2.13l-4.96-5.98l2.86-3.72c-0.7-1.52-1.21-3.15-1.5-4.84
			l-4.46-1.46l0.72-7.74l4.66-0.61c0.59-1.61,1.39-3.11,2.37-4.48l-2.13-4.19l5.98-4.96l3.72,2.86c1.52-0.7,3.15-1.21,4.84-1.5
			l1.46-4.46l7.74,0.72L160.89,155.25L160.89,155.25z M155.4,164.95c-4.58-0.43-8.65,2.94-9.07,7.53c-0.43,4.58,2.94,8.65,7.53,9.07
			c4.58,0.43,8.65-2.94,9.07-7.53C163.35,169.44,159.98,165.38,155.4,164.95z"/>
	</g>
	<g>
		<g>
			<g>
				<g>
					<g>
						<path d="M295.1,239.94l-24.78-0.11c-2.98-0.01-5.39-2.43-5.37-5.41l0.26-61.96c0.01-2.97,2.44-5.37,5.42-5.36l24.78,0.11
							c2.98,0.01,5.39,2.43,5.37,5.41l-0.26,61.96C300.51,237.56,298.08,239.96,295.1,239.94z"/>
					</g>
				</g>
				<g>
					<g>
						<path class="st3" d="M295.37,169.36l-4.81-0.02c-0.64,0-1.17,0.54-1.17,1.21l0,0.87c0,0.67-0.53,1.21-1.17,1.21l-9.37-0.04
							c-0.64,0-1.16-0.55-1.16-1.22l0-0.87c0-0.67-0.52-1.22-1.16-1.22l-1.69-0.01l-4.21-0.02c-2.09-0.01-3.79,1.67-3.8,3.75
							l-0.26,60.47c-0.01,2.08,1.68,3.78,3.76,3.79l24.73,0.11c2.09,0.01,3.79-1.67,3.8-3.75l0.26-60.47
							C299.14,171.06,297.46,169.37,295.37,169.36z"/>
					</g>
				</g>
			</g>
		</g>
		<g>
			<rect x="270.5" y="210.51" width="24.47" height="1.64"/>
		</g>
		<g>
			<g>
				<path class="st9" d="M294.1,216.95c0,0.06-5.22,0.11-11.67,0.11c-6.44,0-11.67-0.05-11.67-0.11c0-0.06,5.22-0.11,11.67-0.11
					C288.87,216.84,294.1,216.89,294.1,216.95z"/>
			</g>
		</g>
		<g>
			<g>
				<path class="st9" d="M294.1,178.12c0,0.06-5.22,0.11-11.67,0.11c-6.44,0-11.67-0.05-11.67-0.11c0-0.06,5.22-0.11,11.67-0.11
					C288.87,178.01,294.1,178.06,294.1,178.12z"/>
			</g>
		</g>
		<g>
			<g>
				<path class="st9" d="M294.1,219.93c0,0.06-5.22,0.11-11.67,0.11c-6.44,0-11.67-0.05-11.67-0.11c0-0.06,5.22-0.11,11.67-0.11
					C288.87,219.82,294.1,219.87,294.1,219.93z"/>
			</g>
		</g>
		<g>
			<g>
				<path class="st9" d="M294.1,222.91c0,0.06-5.22,0.11-11.67,0.11c-6.44,0-11.67-0.05-11.67-0.11c0-0.06,5.22-0.11,11.67-0.11
					C288.87,222.8,294.1,222.85,294.1,222.91z"/>
			</g>
		</g>
		<g>
			<g>
				<path class="st9" d="M294.1,225.89c0,0.06-5.22,0.11-11.67,0.11c-6.44,0-11.67-0.05-11.67-0.11c0-0.06,5.22-0.11,11.67-0.11
					C288.87,225.78,294.1,225.83,294.1,225.89z"/>
			</g>
		</g>
		<g>
			<g>
				<path class="st9" d="M294.1,228.87c0,0.06-5.22,0.11-11.67,0.11c-6.44,0-11.67-0.05-11.67-0.11c0-0.06,5.22-0.11,11.67-0.11
					C288.87,228.76,294.1,228.81,294.1,228.87z"/>
			</g>
		</g>
		<g>
			<g>
				<path class="st9" d="M294.43,232.25c0,0.06-5.22,0.11-11.67,0.11c-6.44,0-11.67-0.05-11.67-0.11c0-0.06,5.22-0.11,11.67-0.11
					C289.21,232.14,294.43,232.19,294.43,232.25z"/>
			</g>
		</g>
		<g>
			<g>
				<g>
					<g>
						<rect x="270.76" y="181.52" class="st10" width="24.53" height="23.74"/>
					</g>
				</g>
			</g>
			<g>
				<g>
					<g>
						<polygon class="st2" points="272.66,203.22 279.45,191.01 285,198.82 288.38,194.67 293.39,203.22 						"/>
					</g>
				</g>
			</g>
			<g>
				<g>
					<g>
						<path class="st11" d="M287.37,188.63c0,0.98-0.79,1.77-1.77,1.77c-0.98,0-1.77-0.79-1.77-1.77s0.79-1.77,1.77-1.77
							C286.58,186.87,287.37,187.66,287.37,188.63z"/>
					</g>
				</g>
			</g>
			<g>
				<g>
					<g>
						<g>
							<path class="st9" d="M293.39,203.29c0,0,0-0.03-0.01-0.1c0-0.07,0-0.16-0.01-0.28c0-0.25-0.01-0.61-0.01-1.07
								c-0.01-0.94-0.01-2.3-0.03-4.03c-0.01-3.47-0.03-8.4-0.05-14.33l0.1,0.1c-6,0-13.12,0.01-20.73,0.02
								c-0.03,0.02,0.22-0.22,0.11-0.11v0.01v0.01v0.02v0.04v0.08v0.17v0.34v0.67c0,0.45,0,0.9,0,1.34c0,0.89,0,1.77,0,2.64
								c0,1.74,0,3.45,0,5.11c0,3.32-0.01,6.47-0.01,9.36l-0.1-0.1c6.19,0.02,11.35,0.04,14.99,0.05c1.81,0.01,3.24,0.02,4.23,0.03
								c0.48,0.01,0.86,0.01,1.12,0.01c0.12,0,0.22,0,0.29,0.01C293.36,203.29,293.39,203.29,293.39,203.29c0,0-0.03,0-0.09,0.01
								c-0.07,0-0.16,0-0.28,0.01c-0.26,0-0.63,0.01-1.1,0.01c-0.98,0.01-2.4,0.02-4.2,0.03c-3.65,0.01-8.84,0.03-15.05,0.05l-0.1,0
								v-0.1c0-2.89-0.01-6.03-0.01-9.36c0-1.66,0-3.37,0-5.11c0-0.87,0-1.75,0-2.64c0-0.44,0-0.89,0-1.34v-0.67l0-0.34v-0.17v-0.08
								v-0.04v-0.02v-0.01v-0.01c-0.1,0.1,0.14-0.15,0.12-0.12c7.61,0.01,14.72,0.01,20.73,0.02l0.1,0l0,0.1
								c-0.02,5.95-0.04,10.91-0.05,14.4c-0.01,1.72-0.02,3.07-0.03,4.01c0,0.45-0.01,0.8-0.01,1.05c0,0.11,0,0.2-0.01,0.27
								C293.4,203.26,293.4,203.29,293.39,203.29z"/>
						</g>
					</g>
				</g>
			</g>
		</g>
	</g>
	<g>
		<g>
			<g>
				<path d="M263.57,136.23v44.21c0,6.38-5.17,11.55-11.55,11.55h-73.49c-6.38,0-11.55-5.17-11.55-11.55v-44.21
					c0-6.38,5.17-11.55,11.55-11.55h73.49C258.4,124.68,263.57,129.85,263.57,136.23z"/>
			</g>
			<g>
				
					<rect x="186.17" y="119.36" transform="matrix(6.123234e-17 -1 1 6.123234e-17 57.3771 373.0414)" class="st3" width="58.07" height="76.95"/>
			</g>
			<g>
				<path class="st0" d="M257.94,156.41c1.36,0,2.46,1.1,2.46,2.46c0,1.36-1.1,2.46-2.46,2.46s-2.46-1.1-2.46-2.46
					C255.48,157.52,256.58,156.41,257.94,156.41z"/>
			</g>
			<g>
				<path class="st0" d="M174.1,149.72v18.32c0,0.28-0.23,0.51-0.51,0.51l0,0c-0.28,0-0.51-0.23-0.51-0.51v-18.32
					c0-0.28,0.23-0.51,0.51-0.51l0,0C173.87,149.21,174.1,149.44,174.1,149.72z"/>
			</g>
		</g>
		<g>
			<g>
				<rect x="211.83" y="133.32" width="24.47" height="1.64"/>
			</g>
			<g>
				<rect x="179.95" y="161.46" width="24.47" height="1.64"/>
			</g>
			<g>
				<g>
					<path class="st9" d="M242.26,139.41c0,0.06-6.81,0.11-15.22,0.11c-8.41,0-15.22-0.05-15.22-0.11c0-0.06,6.81-0.11,15.22-0.11
						C235.45,139.31,242.26,139.36,242.26,139.41z"/>
				</g>
			</g>
			<g>
				<g>
					<path class="st9" d="M242.26,142.99c0,0.06-6.81,0.11-15.22,0.11c-8.41,0-15.22-0.05-15.22-0.11c0-0.06,6.81-0.11,15.22-0.11
						C235.45,142.88,242.26,142.93,242.26,142.99z"/>
				</g>
			</g>
			<g>
				<g>
					<path class="st9" d="M242.26,146.56c0,0.06-6.81,0.11-15.22,0.11c-8.41,0-15.22-0.05-15.22-0.11c0-0.06,6.81-0.11,15.22-0.11
						C235.45,146.46,242.26,146.5,242.26,146.56z"/>
				</g>
			</g>
			<g>
				<g>
					<path class="st9" d="M242.26,150.14c0,0.06-6.81,0.11-15.22,0.11c-8.41,0-15.22-0.05-15.22-0.11c0-0.06,6.81-0.11,15.22-0.11
						C235.45,150.03,242.26,150.08,242.26,150.14z"/>
				</g>
			</g>
			<g>
				<g>
					<path class="st9" d="M242.26,153.71c0,0.06-6.81,0.11-15.22,0.11c-8.41,0-15.22-0.05-15.22-0.11c0-0.06,6.81-0.11,15.22-0.11
						C235.45,153.61,242.26,153.65,242.26,153.71z"/>
				</g>
			</g>
			<g>
				<g>
					<path class="st9" d="M235.59,157.29c0,0.06-5.32,0.11-11.88,0.11c-6.56,0-11.88-0.05-11.88-0.11c0-0.06,5.32-0.11,11.88-0.11
						C230.27,157.18,235.59,157.23,235.59,157.29z"/>
				</g>
			</g>
			<g>
				<g>
					<path class="st9" d="M220.14,167.91c0,0.06-8.94,0.11-19.96,0.11c-11.03,0-19.96-0.05-19.96-0.11c0-0.06,8.94-0.11,19.96-0.11
						C211.21,167.8,220.14,167.85,220.14,167.91z"/>
				</g>
			</g>
			<g>
				<g>
					<path class="st9" d="M220.14,170.89c0,0.06-8.94,0.11-19.96,0.11c-11.03,0-19.96-0.05-19.96-0.11c0-0.06,8.94-0.11,19.96-0.11
						C211.21,170.78,220.14,170.83,220.14,170.89z"/>
				</g>
			</g>
			<g>
				<g>
					<path class="st9" d="M220.14,173.87c0,0.06-8.94,0.11-19.96,0.11c-11.03,0-19.96-0.05-19.96-0.11c0-0.06,8.94-0.11,19.96-0.11
						C211.21,173.76,220.14,173.81,220.14,173.87z"/>
				</g>
			</g>
			<g>
				<g>
					<path class="st9" d="M220.14,176.85c0,0.06-8.94,0.11-19.96,0.11c-11.03,0-19.96-0.05-19.96-0.11c0-0.06,8.94-0.11,19.96-0.11
						C211.21,176.74,220.14,176.79,220.14,176.85z"/>
				</g>
			</g>
			<g>
				<g>
					<path class="st9" d="M220.14,179.83c0,0.06-8.94,0.11-19.96,0.11c-11.03,0-19.96-0.05-19.96-0.11c0-0.06,8.94-0.11,19.96-0.11
						C211.21,179.72,220.14,179.77,220.14,179.83z"/>
				</g>
			</g>
			<g>
				<g>
					<g>
						<g>
							<rect x="180.22" y="132.48" class="st2" width="24.53" height="23.74"/>
						</g>
					</g>
				</g>
				<g>
					<g>
						<g>
							<polygon class="st10" points="182.12,154.18 188.91,141.97 194.46,149.77 197.83,145.63 202.85,154.18 							"/>
						</g>
					</g>
				</g>
				<g>
					<g>
						<g>
							<path class="st10" d="M196.82,139.59c0,0.98-0.79,1.77-1.77,1.77c-0.98,0-1.77-0.79-1.77-1.77c0-0.98,0.79-1.77,1.77-1.77
								C196.03,137.83,196.82,138.62,196.82,139.59z"/>
						</g>
					</g>
				</g>
				<g>
					<g>
						<g>
							<g>
								<path class="st9" d="M202.85,154.25c0,0,0-0.03-0.01-0.1c0-0.07,0-0.16-0.01-0.28c0-0.25-0.01-0.61-0.01-1.07
									c-0.01-0.94-0.01-2.3-0.03-4.03c-0.01-3.47-0.03-8.4-0.05-14.33l0.1,0.1c-6,0.01-13.12,0.01-20.73,0.02
									c-0.03,0.02,0.22-0.22,0.11-0.11v0.01v0.01v0.02v0.04v0.08v0.17v0.34v0.67c0,0.45,0,0.9,0,1.34c0,0.89,0,1.77,0,2.64
									c0,1.74,0,3.45,0,5.11c0,3.32-0.01,6.47-0.01,9.36l-0.1-0.1c6.19,0.02,11.35,0.04,14.99,0.05c1.81,0.01,3.24,0.02,4.23,0.03
									c0.48,0.01,0.86,0.01,1.12,0.01c0.12,0,0.22,0,0.29,0.01C202.81,154.24,202.85,154.25,202.85,154.25c0,0-0.03,0-0.09,0.01
									c-0.07,0-0.16,0-0.28,0.01c-0.26,0-0.63,0.01-1.1,0.01c-0.98,0.01-2.4,0.02-4.2,0.03c-3.65,0.01-8.84,0.03-15.05,0.05
									l-0.1,0v-0.1c0-2.89-0.01-6.03-0.01-9.36c0-1.66,0-3.37,0-5.11c0-0.87,0-1.75,0-2.64c0-0.44,0-0.89,0-1.34v-0.67l0-0.34
									v-0.17v-0.08v-0.04v-0.02v-0.01v-0.01c-0.1,0.1,0.14-0.15,0.12-0.12c7.61,0.01,14.72,0.01,20.73,0.02l0.1,0l0,0.1
									c-0.02,5.95-0.04,10.91-0.05,14.4c-0.01,1.72-0.02,3.07-0.03,4.01c-0.01,0.45-0.01,0.8-0.01,1.05c0,0.11,0,0.2-0.01,0.27
									C202.85,154.22,202.85,154.25,202.85,154.25z"/>
							</g>
						</g>
					</g>
				</g>
			</g>
			<g>
				<g>
					<g>
						<g>
							<rect x="225.65" y="164.61" class="st2" width="17.36" height="16.8"/>
						</g>
					</g>
				</g>
				<g>
					<g>
						<g>
							<polygon class="st10" points="227,179.97 231.8,171.33 235.73,176.85 238.12,173.92 241.67,179.97 							"/>
						</g>
					</g>
				</g>
				<g>
					<g>
						<g>
							<path class="st10" d="M237.4,169.65c0,0.69-0.56,1.25-1.25,1.25c-0.69,0-1.25-0.56-1.25-1.25c0-0.69,0.56-1.25,1.25-1.25
								C236.84,168.4,237.4,168.96,237.4,169.65z"/>
						</g>
					</g>
				</g>
				<g>
					<g>
						<g>
							<g>
								<path class="st9" d="M241.67,180.02c0,0,0-0.02,0-0.07c0-0.05,0-0.11,0-0.2c0-0.18,0-0.43-0.01-0.76
									c0-0.67-0.01-1.63-0.02-2.85c-0.01-2.45-0.02-5.95-0.04-10.14l0.07,0.07c-4.25,0-9.29,0.01-14.67,0.01
									c-0.02,0.02,0.16-0.16,0.08-0.08v0v0.01v0.02v0.03v0.06v0.12v0.24v0.48c0,0.32,0,0.63,0,0.95c0,0.63,0,1.25,0,1.87
									c0,1.23,0,2.44,0,3.62c0,2.35-0.01,4.58-0.01,6.62l-0.07-0.07c4.38,0.02,8.04,0.03,10.61,0.04
									c1.28,0.01,2.29,0.01,2.99,0.02c0.34,0,0.61,0.01,0.79,0.01c0.09,0,0.15,0,0.21,0
									C241.64,180.02,241.67,180.02,241.67,180.02c0,0-0.02,0-0.06,0c-0.05,0-0.12,0-0.2,0c-0.18,0-0.44,0-0.78,0.01
									c-0.69,0-1.7,0.01-2.98,0.02c-2.58,0.01-6.26,0.02-10.65,0.04l-0.07,0v-0.07c0-2.05-0.01-4.27-0.01-6.62
									c0-1.18,0-2.39,0-3.62c0-0.62,0-1.24,0-1.87c0-0.31,0-0.63,0-0.95v-0.48l0-0.24v-0.12v-0.06v-0.03v-0.02v-0.01v0
									c-0.07,0.07,0.1-0.1,0.08-0.09c5.38,0,10.42,0.01,14.67,0.01h0.07l0,0.07c-0.01,4.21-0.03,7.72-0.04,10.19
									c-0.01,1.22-0.01,2.17-0.02,2.84c0,0.32-0.01,0.57-0.01,0.74c0,0.08,0,0.14,0,0.19C241.67,180,241.67,180.02,241.67,180.02z
									"/>
							</g>
						</g>
					</g>
				</g>
			</g>
		</g>
	</g>
	<g>
		<g>
			<g>
				<g>
					<path d="M246.93,282.65H145.49c-8.05,0-14.57-6.52-14.57-14.57v-57.21c0-8.05,6.52-14.57,14.57-14.57h101.44
						c8.05,0,14.57,6.52,14.57,14.57v57.21C261.5,276.13,254.98,282.65,246.93,282.65z"/>
				</g>
				<g>
					<path class="st12" d="M259.4,283.8H134.76c-4.12,0-7.45-3.34-7.45-7.45l0,0h139.55l0,0C266.86,280.47,263.52,283.8,259.4,283.8
						z"/>
				</g>
				<g>
					<polygon class="st10" points="255.48,272.79 136.22,272.79 137.46,200.94 255.68,202.3 					"/>
				</g>
				<g>
					<polygon class="st9" points="184.4,276.35 186.13,279.11 210.5,279.11 212.1,276.35 					"/>
				</g>
			</g>
			<g>
				<rect x="139.11" y="205.65" class="st13" width="111.89" height="67.11"/>
			</g>
			<g>
				<path class="st2" d="M144.98,208.96c0,0.52-0.42,0.94-0.94,0.94c-0.52,0-0.94-0.42-0.94-0.94c0-0.52,0.42-0.94,0.94-0.94
					C144.56,208.02,144.98,208.44,144.98,208.96z"/>
			</g>
			<g>
				<path class="st2" d="M148.81,208.96c0,0.52-0.42,0.94-0.94,0.94s-0.94-0.42-0.94-0.94c0-0.52,0.42-0.94,0.94-0.94
					S148.81,208.44,148.81,208.96z"/>
			</g>
			<g>
				<path class="st2" d="M152.64,208.96c0,0.52-0.42,0.94-0.94,0.94c-0.52,0-0.94-0.42-0.94-0.94c0-0.52,0.42-0.94,0.94-0.94
					C152.22,208.02,152.64,208.44,152.64,208.96z"/>
			</g>
			<g>
				<g>
					<path class="st9" d="M252.09,213.07c0,0.06-25.05,0.11-55.94,0.11c-30.9,0-55.95-0.05-55.95-0.11c0-0.06,25.04-0.11,55.95-0.11
						C227.04,212.96,252.09,213.01,252.09,213.07z"/>
				</g>
			</g>
			<g>
				<rect x="132.69" y="276.41" class="st9" width="128.81" height="0.41"/>
			</g>
		</g>
		<g>
			<g>
				<rect x="149.38" y="245.67" width="24.47" height="1.64"/>
			</g>
			<g>
				<rect x="180.99" y="222.94" width="24.47" height="1.64"/>
			</g>
			<g>
				<g>
					<path class="st9" d="M241.86,229.04c0,0.06-13.63,0.11-30.43,0.11c-16.81,0-30.44-0.05-30.44-0.11
						c0-0.06,13.62-0.11,30.44-0.11C228.23,228.93,241.86,228.98,241.86,229.04z"/>
				</g>
			</g>
			<g>
				<g>
					<path class="st9" d="M241.86,232.61c0,0.06-13.63,0.11-30.43,0.11c-16.81,0-30.44-0.05-30.44-0.11
						c0-0.06,13.62-0.11,30.44-0.11C228.23,232.51,241.86,232.56,241.86,232.61z"/>
				</g>
			</g>
			<g>
				<g>
					<path class="st9" d="M241.86,236.19c0,0.06-13.63,0.11-30.43,0.11c-16.81,0-30.44-0.05-30.44-0.11
						c0-0.06,13.62-0.11,30.44-0.11C228.23,236.08,241.86,236.13,241.86,236.19z"/>
				</g>
			</g>
			<g>
				<g>
					<path class="st9" d="M241.86,239.76c0,0.06-13.63,0.11-30.43,0.11c-16.81,0-30.44-0.05-30.44-0.11
						c0-0.06,13.62-0.11,30.44-0.11C228.23,239.66,241.86,239.71,241.86,239.76z"/>
				</g>
			</g>
			<g>
				<g>
					<path class="st9" d="M241.86,243.34c0,0.06-13.63,0.11-30.43,0.11c-16.81,0-30.44-0.05-30.44-0.11
						c0-0.06,13.62-0.11,30.44-0.11C228.23,243.23,241.86,243.28,241.86,243.34z"/>
				</g>
			</g>
			<g>
				<g>
					<path class="st9" d="M204.75,246.91c0,0.06-5.32,0.11-11.88,0.11c-6.56,0-11.88-0.05-11.88-0.11c0-0.06,5.32-0.11,11.88-0.11
						C199.43,246.81,204.75,246.85,204.75,246.91z"/>
				</g>
			</g>
			<g>
				<g>
					<path class="st9" d="M241.41,253.85c0,0.06-8.96,0.11-20,0.11c-11.05,0-20.01-0.05-20.01-0.11c0-0.06,8.96-0.11,20.01-0.11
						C232.45,253.74,241.41,253.79,241.41,253.85z"/>
				</g>
			</g>
			<g>
				<g>
					<path class="st9" d="M241.41,257.65c0,0.06-8.96,0.11-20,0.11c-11.05,0-20.01-0.05-20.01-0.11c0-0.06,8.96-0.11,20.01-0.11
						C232.45,257.54,241.41,257.59,241.41,257.65z"/>
				</g>
			</g>
			<g>
				<g>
					<path class="st9" d="M241.41,261.44c0,0.06-8.96,0.11-20,0.11c-11.05,0-20.01-0.05-20.01-0.11c0-0.06,8.96-0.11,20.01-0.11
						C232.45,261.33,241.41,261.38,241.41,261.44z"/>
				</g>
			</g>
			<g>
				<g>
					<path class="st9" d="M241.41,265.24c0,0.06-8.96,0.11-20,0.11c-11.05,0-20.01-0.05-20.01-0.11c0-0.06,8.96-0.11,20.01-0.11
						C232.45,265.13,241.41,265.18,241.41,265.24z"/>
				</g>
			</g>
			<g>
				<g>
					<path class="st9" d="M173.91,253.49c0,0.06-5.34,0.11-11.92,0.11c-6.59,0-11.93-0.05-11.93-0.11c0-0.06,5.34-0.11,11.93-0.11
						C168.57,253.38,173.91,253.43,173.91,253.49z"/>
				</g>
			</g>
			<g>
				<g>
					<path class="st9" d="M173.91,256.47c0,0.06-5.34,0.11-11.92,0.11c-6.59,0-11.93-0.05-11.93-0.11c0-0.06,5.34-0.11,11.93-0.11
						C168.57,256.36,173.91,256.41,173.91,256.47z"/>
				</g>
			</g>
			<g>
				<g>
					<path class="st9" d="M173.91,259.45c0,0.06-5.34,0.11-11.92,0.11c-6.59,0-11.93-0.05-11.93-0.11c0-0.06,5.34-0.11,11.93-0.11
						C168.57,259.34,173.91,259.39,173.91,259.45z"/>
				</g>
			</g>
			<g>
				<g>
					<path class="st9" d="M173.91,262.43c0,0.06-5.34,0.11-11.92,0.11c-6.59,0-11.93-0.05-11.93-0.11c0-0.06,5.34-0.11,11.93-0.11
						C168.57,262.32,173.91,262.37,173.91,262.43z"/>
				</g>
			</g>
			<g>
				<g>
					<path class="st9" d="M173.91,265.41c0,0.06-5.34,0.11-11.92,0.11c-6.59,0-11.93-0.05-11.93-0.11c0-0.06,5.34-0.11,11.93-0.11
						C168.57,265.3,173.91,265.35,173.91,265.41z"/>
				</g>
			</g>
			<g>
				<g>
					<g>
						<g>
							<rect x="149.38" y="217.59" class="st10" width="24.53" height="23.74"/>
						</g>
					</g>
				</g>
				<g>
					<g>
						<g>
							<polygon class="st2" points="151.28,239.3 158.07,227.08 163.62,234.89 166.99,230.75 172.01,239.3 							"/>
						</g>
					</g>
				</g>
				<g>
					<g>
						<g>
							<path class="st11" d="M165.98,224.71c0,0.98-0.79,1.77-1.77,1.77s-1.77-0.79-1.77-1.77c0-0.98,0.79-1.77,1.77-1.77
								S165.98,223.73,165.98,224.71z"/>
						</g>
					</g>
				</g>
				<g>
					<g>
						<g>
							<g>
								<path class="st9" d="M172.01,239.36c0,0,0-0.03-0.01-0.1c0-0.07,0-0.16-0.01-0.28c0-0.25-0.01-0.61-0.01-1.07
									c-0.01-0.94-0.01-2.3-0.03-4.03c-0.01-3.47-0.03-8.4-0.05-14.33l0.1,0.1c-6,0-13.12,0.01-20.73,0.02
									c-0.03,0.02,0.22-0.22,0.11-0.11v0.01v0.01v0.02v0.04v0.08v0.17v0.34v0.67c0,0.45,0,0.89,0,1.34c0,0.89,0,1.77,0,2.64
									c0,1.74,0,3.45,0,5.11c0,3.32-0.01,6.47-0.01,9.36l-0.1-0.1c6.19,0.02,11.35,0.04,14.99,0.05c1.81,0.01,3.24,0.02,4.23,0.03
									c0.48,0.01,0.86,0.01,1.12,0.01c0.12,0,0.22,0,0.29,0.01C171.97,239.36,172.01,239.36,172.01,239.36c0,0-0.03,0-0.09,0.01
									c-0.07,0-0.16,0-0.28,0.01c-0.26,0-0.63,0.01-1.1,0.01c-0.98,0.01-2.4,0.02-4.2,0.03c-3.65,0.01-8.84,0.03-15.05,0.05
									l-0.1,0v-0.1c0-2.89-0.01-6.03-0.01-9.36c0-1.66,0-3.37,0-5.11c0-0.87,0-1.75,0-2.64c0-0.44,0-0.89,0-1.34v-0.67l0-0.34
									v-0.17v-0.08v-0.04v-0.02v-0.01v-0.01c-0.1,0.1,0.14-0.15,0.12-0.12c7.61,0.01,14.72,0.01,20.73,0.02h0.1l0,0.1
									c-0.02,5.95-0.04,10.91-0.05,14.4c-0.01,1.72-0.02,3.07-0.03,4.01c-0.01,0.45-0.01,0.8-0.01,1.05c0,0.11,0,0.2-0.01,0.27
									C172.01,239.34,172.01,239.37,172.01,239.36z"/>
							</g>
						</g>
					</g>
				</g>
			</g>
			<g>
				<g>
					<g>
						<g>
							<rect x="180.97" y="252.04" class="st10" width="17.36" height="16.8"/>
						</g>
					</g>
				</g>
				<g>
					<g>
						<g>
							<polygon class="st2" points="182.32,267.4 187.12,258.76 191.05,264.28 193.44,261.35 196.99,267.4 							"/>
						</g>
					</g>
				</g>
				<g>
					<g>
						<g>
							<path class="st11" d="M192.72,257.08c0,0.69-0.56,1.25-1.25,1.25c-0.69,0-1.25-0.56-1.25-1.25c0-0.69,0.56-1.25,1.25-1.25
								C192.16,255.83,192.72,256.39,192.72,257.08z"/>
						</g>
					</g>
				</g>
				<g>
					<g>
						<g>
							<g>
								<path class="st9" d="M196.99,267.45c0,0,0-0.02,0-0.07c0-0.05,0-0.11,0-0.2c0-0.18,0-0.43-0.01-0.76
									c0-0.67-0.01-1.63-0.02-2.85c-0.01-2.45-0.02-5.95-0.04-10.14l0.07,0.07c-4.25,0-9.29,0.01-14.67,0.01
									c-0.02,0.02,0.16-0.16,0.08-0.08v0v0.01v0.02v0.03v0.06v0.12v0.24v0.48c0,0.32,0,0.63,0,0.95c0,0.63,0,1.25,0,1.87
									c0,1.23,0,2.44,0,3.62c0,2.35-0.01,4.58-0.01,6.62l-0.07-0.07c4.38,0.02,8.04,0.03,10.61,0.04
									c1.28,0.01,2.29,0.01,2.99,0.02c0.34,0,0.61,0.01,0.79,0.01c0.09,0,0.15,0,0.21,0
									C196.96,267.45,196.99,267.45,196.99,267.45c0,0-0.02,0-0.06,0c-0.05,0-0.12,0-0.2,0c-0.18,0-0.44,0-0.78,0.01
									c-0.7,0-1.7,0.01-2.98,0.02c-2.58,0.01-6.26,0.02-10.65,0.04h-0.07v-0.07c0-2.05-0.01-4.27-0.01-6.62c0-1.18,0-2.39,0-3.62
									c0-0.62,0-1.24,0-1.87c0-0.31,0-0.63,0-0.95v-0.48l0-0.24v-0.12v-0.06v-0.03v-0.02v-0.01v0c-0.07,0.07,0.1-0.1,0.08-0.09
									c5.38,0,10.42,0.01,14.67,0.01l0.07,0l0,0.07c-0.02,4.21-0.03,7.72-0.04,10.19c-0.01,1.22-0.01,2.17-0.02,2.84
									c0,0.32-0.01,0.57-0.01,0.74c0,0.08,0,0.14,0,0.19C196.99,267.43,196.99,267.45,196.99,267.45z"/>
							</g>
						</g>
					</g>
				</g>
			</g>
		</g>
	</g>
</g>
</svg>
