<svg id="Capa_1" data-name="Capa 1" xmlns="http://www.w3.org/2000/svg" viewBox="0 0 425.2 425.2"><defs><style>.cls-1{fill:#c6c6c6;}.cls-2,.cls-5,.cls-6,.cls-7{fill:none;}.cls-3{fill:#e30613;}.cls-4{fill:#fff;}.cls-5,.cls-7{stroke:#e30613;}.cls-5,.cls-6,.cls-7{stroke-miterlimit:10;}.cls-5{stroke-width:2.86px;stroke-dasharray:4.93 4.93;}.cls-6{stroke:#1d1d1b;stroke-width:1.25px;}.cls-7{stroke-width:5.15px;}.cls-8{fill:#1d1d1b;}</style></defs><title>LOGOS SISTEMAS FINALES</title><path class="cls-1" d="M207.78,341.37A124.26,124.26,0,1,1,332,217.11,124.26,124.26,0,0,1,207.78,341.37Z"/><path class="cls-2" d="M207.78,87.58A130,130,0,0,0,103.54,295.22H312A130,130,0,0,0,207.78,87.58Z"/><path class="cls-3" d="M77.76,217.6A130,130,0,1,1,312,295.22H379.8a187.82,187.82,0,0,0,16.68-77.62c0-104.22-84.48-188.71-188.7-188.71S19.07,113.38,19.07,217.6a187.83,187.83,0,0,0,16.69,77.62h67.78A129.3,129.3,0,0,1,77.76,217.6Z"/><path class="cls-4" d="M78.15,155.86l-21.38-10.7L59,140.68a7,7,0,0,1,1.71-2.28,5.24,5.24,0,0,1,2.05-1.09,4.94,4.94,0,0,1,2.2-.08,7.91,7.91,0,0,1,2.17.72l.78.4a7.42,7.42,0,0,1,1.4.87,3.86,3.86,0,0,1,.85.93,4.71,4.71,0,0,1,.66,2.28,3.7,3.7,0,0,1,2.3-.84,6.54,6.54,0,0,1,3,.85l1.21.6a6.91,6.91,0,0,1,3.63,3.53q.83,2.12-.68,5.12Zm-17-12.32,5.88,2.94.69-1.38a2.64,2.64,0,0,0,.27-2.44,4.5,4.5,0,0,0-2-1.64,3.78,3.78,0,0,0-2.45-.5c-.68.15-1.27.74-1.78,1.76Zm8.58,4.3,6.85,3.43.66-1.33a3.68,3.68,0,0,0,.46-1.59,2,2,0,0,0-.35-1.17,3.18,3.18,0,0,0-1-.9q-.63-.39-1.41-.78a10.38,10.38,0,0,0-1.46-.62,2.87,2.87,0,0,0-1.2-.15,2,2,0,0,0-1,.5,4.43,4.43,0,0,0-.87,1.26Z"/><path class="cls-4" d="M84.63,143.46,64.08,131.25l1.75-2.95,20.55,12.22Z"/><path class="cls-4" d="M87.84,138,68.22,124.34l2.86-4.1a6.89,6.89,0,0,1,2-2,5.43,5.43,0,0,1,2.19-.79,5.11,5.11,0,0,1,2.19.24,8,8,0,0,1,2,1l.72.5a7.59,7.59,0,0,1,1.26,1.07,3.73,3.73,0,0,1,.7,1,4.66,4.66,0,0,1,.33,2.35,3.72,3.72,0,0,1,2.39-.5,6.66,6.66,0,0,1,2.81,1.26l1.1.77a7,7,0,0,1,3.1,4q.49,2.22-1.42,5Zm-15-14.63,5.4,3.76.88-1.26a2.61,2.61,0,0,0,.61-2.38A4.32,4.32,0,0,0,78,121.58a3.76,3.76,0,0,0-2.36-.85,3,3,0,0,0-2,1.49Zm7.88,5.49L87,133.24l.85-1.22a3.69,3.69,0,0,0,.68-1.51,2.07,2.07,0,0,0-.18-1.21,3.18,3.18,0,0,0-.84-1,14.69,14.69,0,0,0-1.28-1,10.85,10.85,0,0,0-1.35-.82,2.86,2.86,0,0,0-1.17-.32,1.85,1.85,0,0,0-1.08.35,4.36,4.36,0,0,0-1,1.11Z"/><path class="cls-4" d="M95.84,126.8l-18.3-15.38,2.2-2.63L95.42,122l4.37-5.19,2.62,2.2Z"/><path class="cls-4" d="M103.8,117.62,86.54,101.08l2.37-2.48,17.26,16.54Z"/><path class="cls-4" d="M95.76,99.6a6.06,6.06,0,0,1-1.33-2.23,5.41,5.41,0,0,1-.25-2.27,5.82,5.82,0,0,1,.64-2,6,6,0,0,1,1.28-1.66,5.94,5.94,0,0,1,1.78-1.11,6,6,0,0,1,2.11-.46,5.82,5.82,0,0,1,2.21.49,6.25,6.25,0,0,1,2.08,1.56l8.47,9.36a6,6,0,0,1,1.36,2.26,5.24,5.24,0,0,1,.22,2.2,5.67,5.67,0,0,1-.63,2.07,6,6,0,0,1-3.07,2.77,5.37,5.37,0,0,1-2.1.4,5.16,5.16,0,0,1-2.19-.41,6.24,6.24,0,0,1-2.11-1.58Zm11,7.07a2.29,2.29,0,0,0,1.74.89,2.38,2.38,0,0,0,1.6-.65,2.42,2.42,0,0,0,.82-1.53,2.29,2.29,0,0,0-.72-1.82l-8.47-9.36a2.24,2.24,0,0,0-1.74-.9,2.46,2.46,0,0,0-1.6.66,2.41,2.41,0,0,0-.81,1.53,2.27,2.27,0,0,0,.71,1.81Z"/><path class="cls-4" d="M120,102.77,107.47,86.33l-3.15,2.4-2-2.56,9-6.89,2,2.57-3.15,2.4,12.55,16.44Z"/><path class="cls-4" d="M126.76,97.73,113.82,77.62l8.59-5.52,1.74,2.71-5.7,3.67,3.8,5.9,5-3.2L129,83.89l-5,3.2,3.8,5.9,5.7-3.67,1.86,2.88Z"/><path class="cls-4" d="M143.31,80.26l.69,1.31a5.38,5.38,0,0,1,.6,2.05,5.94,5.94,0,0,1-.2,2.1,5.66,5.66,0,0,1-1,1.89A5,5,0,0,1,161.76,89a7.79,7.79,0,0,1-1.88.68,4.58,4.58,0,0,1-2,0,5.24,5.24,0,0,1-2-.91,6.09,6.09,0,0,1-1.72-2.16L128,75a5.67,5.67,0,0,1-.66-2.12,5.19,5.19,0,0,1,.2-2.08,5.4,5.4,0,0,1,1-1.84,6,6,0,0,1,1.82-1.43,5.2,5.2,0,0,1,4.21-.43,5.56,5.56,0,0,1,1.87,1.09A6,6,0,0,1,137.93,70l.63,1.19-3,1.59-.53-1a2.75,2.75,0,0,0-1.31-1.28,1.85,1.85,0,0,0-1.71.06c-.76.4-1.14.89-1.14,1.49a4.2,4.2,0,0,0,.56,2l5.67,10.83a3.24,3.24,0,0,0,1.22,1.33,1.79,1.79,0,0,0,1.77-.13,2.47,2.47,0,0,0,.58-.44,2,2,0,0,0,.46-.68,1.94,1.94,0,0,0,.1-.89,3,3,0,0,0-.36-1.13l-.55-1Z"/><path class="cls-4" d="M147.1,86,143,61.8l2.64-1.08,14,20.09-3.17,1.3-2.88-4.37-4.32,1.77,1,5.14Zm4.65-11-4.84-7.38-.06,0,1.74,8.65Z"/><path class="cls-4" d="M166.41,78.64l-5.94-23.15,4.91-1.26a5.91,5.91,0,0,1,4.74.44,6.38,6.38,0,0,1,2.62,4l2.78,10.83c.55,2.17.44,3.9-.35,5.2A6.45,6.45,0,0,1,171,77.46Zm-1.82-20.88,4.34,16.91,1.52-.39a2.53,2.53,0,0,0,1.81-1.21,3.49,3.49,0,0,0,0-2.35l-2.86-11.15a3.61,3.61,0,0,0-1.09-2,2.43,2.43,0,0,0-2.21-.24Z"/><path class="cls-4" d="M179.79,75.38,176,51.78l10.08-1.62.51,3.18-6.7,1.08L181,61.35l5.83-.94.52,3.18-5.84.94,1.12,6.93,6.69-1.08.55,3.38Z"/><path class="cls-4" d="M197.55,73.06l-.69-23.9L202,49a7.78,7.78,0,0,1,2.5.29,4.81,4.81,0,0,1,2,1.25,5.2,5.2,0,0,1,1.28,2.17,14,14,0,0,1,.43,3.39,16.1,16.1,0,0,1-.11,2.73,5.7,5.7,0,0,1-.72,2.1,5,5,0,0,1-1.83,1.89,6.34,6.34,0,0,1-3.07.74l-1.74.05L201,73Zm2.82-20.77.24,8.12,1.65,0a3.42,3.42,0,0,0,1.6-.35,1.92,1.92,0,0,0,.81-.86A3.07,3.07,0,0,0,205,57.9q0-.74,0-1.65c0-.56-.05-1.09-.08-1.59a3.56,3.56,0,0,0-.34-1.32,2,2,0,0,0-.83-.85,3.24,3.24,0,0,0-1.56-.25Z"/><path class="cls-4" d="M210.69,72.79l1.55-23.86,5.49.36q6,.39,5.58,7.39a8.86,8.86,0,0,1-.89,3.55A5.11,5.11,0,0,1,220,62.46l3,11.12-3.62-.23L216.81,63l-2-.13L214.11,73Zm4.76-20.42L215,59.81l1.95.13a3.7,3.7,0,0,0,1.46-.16,2,2,0,0,0,.88-.67,3.14,3.14,0,0,0,.44-1.13,10.62,10.62,0,0,0,.21-1.59,10.5,10.5,0,0,0,0-1.59,3.22,3.22,0,0,0-.33-1.22,2.7,2.7,0,0,0-2.35-1.09Z"/><path class="cls-4" d="M227.13,55.74a6,6,0,0,1,.9-2.43,5.32,5.32,0,0,1,1.63-1.61,5.68,5.68,0,0,1,2-.77,6.12,6.12,0,0,1,2.09,0,6,6,0,0,1,2,.7A5.91,5.91,0,0,1,237.38,53a5.58,5.58,0,0,1,1,2,5.92,5.92,0,0,1,.09,2.6l-2,12.46a5.93,5.93,0,0,1-.92,2.47,5.26,5.26,0,0,1-1.57,1.55,5.91,5.91,0,0,1-2,.79,5.72,5.72,0,0,1-2.1,0,6.16,6.16,0,0,1-2-.69,5.58,5.58,0,0,1-1.63-1.39,5.24,5.24,0,0,1-1-2,6.21,6.21,0,0,1-.08-2.64Zm1.34,13a2.28,2.28,0,0,0,.39,1.91,2.41,2.41,0,0,0,1.51.84,2.38,2.38,0,0,0,1.7-.31,2.31,2.31,0,0,0,1-1.7l2-12.46a2.29,2.29,0,0,0-.39-1.92,2.41,2.41,0,0,0-1.51-.84,2.45,2.45,0,0,0-1.7.32,2.25,2.25,0,0,0-1,1.69Z"/><path class="cls-4" d="M250.19,72.33l-.38,1.43a5.34,5.34,0,0,1-.94,1.93,6,6,0,0,1-1.57,1.41,5.51,5.51,0,0,1-2,.74,5,5,0,0,1-2.18-.1,7.73,7.73,0,0,1-1.85-.77,4.6,4.6,0,0,1-1.51-1.37,5,5,0,0,1-.84-2,6,6,0,0,1,.18-2.74l3.35-12.73a5.82,5.82,0,0,1,.94-2,5.28,5.28,0,0,1,1.55-1.4,5.38,5.38,0,0,1,2-.67,5.88,5.88,0,0,1,2.3.17,5.19,5.19,0,0,1,3.4,2.53,5.65,5.65,0,0,1,.65,2.06,5.83,5.83,0,0,1-.18,2.33l-.34,1.3-3.31-.87.29-1.11a2.72,2.72,0,0,0-.11-1.83,1.85,1.85,0,0,0-1.3-1.11,1.75,1.75,0,0,0-1.84.34,4.16,4.16,0,0,0-.92,1.82l-3.11,11.82a3.14,3.14,0,0,0,0,1.8,1.76,1.76,0,0,0,1.39,1.1,2.42,2.42,0,0,0,.73.07,2.12,2.12,0,0,0,.8-.19,2.1,2.1,0,0,0,.67-.58,3.07,3.07,0,0,0,.5-1.09l.29-1.14Z"/><path class="cls-4" d="M250.62,79.65l8.12-22.49,9.6,3.47-1.09,3-6.38-2.31L258.48,68,264,70,263,73l-5.56-2L255,77.59l6.38,2.31-1.16,3.22Z"/><path class="cls-4" d="M261.77,83.77l10.15-21.65,4.59,2.15a5.84,5.84,0,0,1,3.37,3.36,6.38,6.38,0,0,1-.55,4.78l-4.75,10.13A6.62,6.62,0,0,1,271,86.33a6.45,6.45,0,0,1-4.92-.54Zm11.88-17.28L266.24,82.3l1.43.67a2.51,2.51,0,0,0,2.16.21,3.48,3.48,0,0,0,1.51-1.79L276.23,71a3.66,3.66,0,0,0,.41-2.22c-.13-.63-.65-1.15-1.56-1.58Z"/><path class="cls-4" d="M274.35,89.93,286,69.07l3,1.67L277.34,91.6Z"/><path class="cls-4" d="M279.86,92.86l13.45-19.77L296,74.94l-3.48,12.94.05,0,10.73-8,2.75,1.86-13.44,19.77-2.84-1.92,8.18-12-.06,0-8.58,6.59-1.41-1,3-10.38-.06,0-8.17,12Z"/><path class="cls-4" d="M294.74,103.44l15.1-18.54,2.66,2.17L297.4,105.6Z"/><path class="cls-4" d="M299.69,107.47,316,90l7.48,7-2.2,2.36-5-4.62-4.78,5.14,4.33,4-2.19,2.36-4.33-4-4.78,5.14,5,4.62-2.33,2.51Z"/><path class="cls-4" d="M308.27,115.52l17.82-15.94,2.19,2.46L321,115.49l.05.05,10.73-9.6,2.29,2.55-17.83,15.94-2.15-2.4,7.23-13.49-.05-.05-10.71,9.58Z"/><path class="cls-4" d="M319.14,128.28l16.57-12.38-2.37-3.17,2.58-1.93,6.79,9.09-2.58,1.93-2.37-3.17L321.19,131Z"/><path class="cls-4" d="M339.3,124.88a6.35,6.35,0,0,1,2.43-.92,5.56,5.56,0,0,1,2.28.16,5.66,5.66,0,0,1,1.88,1,6.26,6.26,0,0,1,1.41,1.55,6.14,6.14,0,0,1,.85,4.1,5.55,5.55,0,0,1-.87,2.09,6.05,6.05,0,0,1-1.9,1.78l-10.71,6.68a6.09,6.09,0,0,1-2.46.94,5.23,5.23,0,0,1-2.21-.17,5.66,5.66,0,0,1-1.92-1,6.13,6.13,0,0,1-1.41-1.56,6,6,0,0,1-.78-1.95,5.5,5.5,0,0,1,0-2.14,5.29,5.29,0,0,1,.8-2.08,6.11,6.11,0,0,1,1.93-1.79Zm-8.9,9.59a2.3,2.3,0,0,0-1.19,1.56,2.44,2.44,0,0,0,.37,1.69,2.4,2.4,0,0,0,1.36,1.07,2.3,2.3,0,0,0,1.92-.39l10.71-6.68a2.28,2.28,0,0,0,1.19-1.55,2.56,2.56,0,0,0-1.73-2.76,2.23,2.23,0,0,0-1.91.38Z"/><path class="cls-4" d="M351.26,148.81l-1.53-3.06.69-.35A3.6,3.6,0,0,0,352,144a2,2,0,0,0-.06-2.05,2.15,2.15,0,0,0-.75-.9,2.27,2.27,0,0,0-.92-.33,2.73,2.73,0,0,0-1.05.11,6.07,6.07,0,0,0-1.08.43,9.88,9.88,0,0,0-1,.57,2.28,2.28,0,0,0-.64.59,2,2,0,0,0-.31.82,6.42,6.42,0,0,0,0,1.18l.24,2.81a6.51,6.51,0,0,1-.09,2.11,4.4,4.4,0,0,1-.72,1.6,6.49,6.49,0,0,1-1.42,1.26,16.62,16.62,0,0,1-2,1.17,12.55,12.55,0,0,1-2.64,1,6,6,0,0,1-2.4.11,4.87,4.87,0,0,1-2.15-1,6.5,6.5,0,0,1-1.72-2.25,6.12,6.12,0,0,1-.65-2.27,5.51,5.51,0,0,1,.26-2.19,5.94,5.94,0,0,1,1.06-1.9,5.46,5.46,0,0,1,1.8-1.4l1.14-.57,1.53,3.06-1,.48a2.79,2.79,0,0,0-1.27,1.25,2.15,2.15,0,0,0,.15,2,3,3,0,0,0,.83,1.1,1.81,1.81,0,0,0,1,.36,2.6,2.6,0,0,0,1.15-.22c.4-.16.84-.36,1.33-.6a14.46,14.46,0,0,0,1.35-.75,2.66,2.66,0,0,0,.75-.68,1.8,1.8,0,0,0,.26-.82,7.27,7.27,0,0,0,0-1.15l-.19-2.64a5.41,5.41,0,0,1,.82-3.73,8.36,8.36,0,0,1,3-2.35,9,9,0,0,1,2.45-.8,5.82,5.82,0,0,1,2.36.06,5.07,5.07,0,0,1,2.05,1,5.86,5.86,0,0,1,1.62,2.09,5.61,5.61,0,0,1,.62,2.3,5.9,5.9,0,0,1-.29,2.19,5.17,5.17,0,0,1-2.62,3Z"/><circle class="cls-3" cx="326.46" cy="397.47" r="7.63"/><path class="cls-5" d="M325.62,397.47a215.11,215.11,0,0,0,96.1-179.3c0-118.93-96.41-215.34-215.34-215.34A214.77,214.77,0,0,0,43.77,77.1"/><path d="M207.63,405.72a188.74,188.74,0,0,0,171.82-110.5H35.8A188.75,188.75,0,0,0,207.63,405.72Z"/><path class="cls-4" d="M92.42,312H99.3a12.62,12.62,0,0,1,4.3.57,4.77,4.77,0,0,1,2.26,1.64,6.4,6.4,0,0,1,1,2.59,29.77,29.77,0,0,1,.27,4.72v3a15.82,15.82,0,0,1-.52,4.74,4.11,4.11,0,0,1-1.91,2.29,7.18,7.18,0,0,1-3.63.8H99.26V346H92.42Zm6.84,5.82v8.66a4.62,4.62,0,0,0,.5,0,1.41,1.41,0,0,0,1.31-.6,5.58,5.58,0,0,0,.36-2.49v-2.79a4,4,0,0,0-.42-2.27A2.21,2.21,0,0,0,99.26,317.81Z"/><path class="cls-4" d="M109.51,312h4.84a28.7,28.7,0,0,1,6.55.49,4.65,4.65,0,0,1,2.79,2.47q1.08,2,1.08,6.33,0,4-.76,5.34a3.68,3.68,0,0,1-3,1.64,4.87,4.87,0,0,1,2.73,1.74,5.81,5.81,0,0,1,.86,2,39.64,39.64,0,0,1,.17,5v9h-6.34v-11.3a9.85,9.85,0,0,0-.34-3.38q-.33-.66-1.74-.66V346h-6.84Zm6.84,5.82v7.57A2.46,2.46,0,0,0,118,325c.31-.27.47-1.16.47-2.66v-1.87a3.41,3.41,0,0,0-.45-2.12A2.1,2.1,0,0,0,116.35,317.81Z"/><path class="cls-4" d="M143.44,331.91q0,5.13-.19,7.26a9.44,9.44,0,0,1-1.17,3.9,6.85,6.85,0,0,1-2.65,2.71,8.46,8.46,0,0,1-7.69.05,6.67,6.67,0,0,1-2.7-2.67,9.39,9.39,0,0,1-1.22-3.89q-.19-2.1-.2-7.36v-5.82c0-3.41.07-5.83.19-7.26a9.75,9.75,0,0,1,1.17-3.89,6.94,6.94,0,0,1,2.65-2.72,7.82,7.82,0,0,1,3.9-.94,8,8,0,0,1,3.79.89,6.84,6.84,0,0,1,2.71,2.68,9.53,9.53,0,0,1,1.21,3.89q.19,2.1.2,7.35Zm-6.84-11.17a13.3,13.3,0,0,0-.2-3,.82.82,0,0,0-.84-.66.9.9,0,0,0-.82.53,9.74,9.74,0,0,0-.28,3.17v15.88a19.53,19.53,0,0,0,.19,3.66.83.83,0,0,0,.87.69.89.89,0,0,0,.89-.8,21.82,21.82,0,0,0,.19-3.8Z"/><path class="cls-4" d="M162.35,326.81h-6.84V320.9a13.32,13.32,0,0,0-.22-3.22.9.9,0,0,0-1-.64,1,1,0,0,0-1.07.77,14.66,14.66,0,0,0-.23,3.37V337a13.54,13.54,0,0,0,.23,3.23,1.05,1.05,0,0,0,2,0,16.42,16.42,0,0,0,.23-3.56v-4.27h6.84v1.32a33.11,33.11,0,0,1-.58,7.49,7.45,7.45,0,0,1-2.55,3.88,7.31,7.31,0,0,1-4.86,1.66,8.24,8.24,0,0,1-5-1.41,6.65,6.65,0,0,1-2.58-3.9,32.2,32.2,0,0,1-.64-7.49V324c0-2.45.07-4.29.2-5.51a9.06,9.06,0,0,1,1.16-3.54,7,7,0,0,1,2.68-2.68,7.81,7.81,0,0,1,3.94-1,7.92,7.92,0,0,1,5,1.51,7,7,0,0,1,2.58,3.77,29,29,0,0,1,.62,7Z"/><path class="cls-4" d="M165.2,312h11.4v6.81H172v6.45h4.27v6.47H172v7.48h5V346H165.2Z"/><path class="cls-4" d="M179.42,312h5.11a24.86,24.86,0,0,1,6.7.59,5,5,0,0,1,2.65,1.94,6.86,6.86,0,0,1,1.14,3,58.58,58.58,0,0,1,.23,6.48v11.92a35.9,35.9,0,0,1-.33,6.12,5,5,0,0,1-1.17,2.42,4.42,4.42,0,0,1-2,1.22A14.53,14.53,0,0,1,188,346h-8.62Zm6.83,5.82v22.38c1,0,1.59-.25,1.82-.76a14.38,14.38,0,0,0,.34-4.18V322a24.27,24.27,0,0,0-.11-3,1.46,1.46,0,0,0-.52-1A2.73,2.73,0,0,0,186.25,317.81Z"/><path class="cls-4" d="M205,312v34H198.2V312Z"/><path class="cls-4" d="M229.27,312v34h-6v-23l-2.38,23h-4.24l-2.51-22.44V346h-6V312H217q.39,3.08.81,7.24l1,8.65L220.37,312Z"/><path class="cls-4" d="M239.25,312v34h-6.84V312Z"/><path class="cls-4" d="M242.39,312h11.4v6.81h-4.56v6.45h4.27v6.47h-4.27v7.48h5V346H242.39Z"/><path class="cls-4" d="M271.87,312v34h-6l-3.56-15.46V346h-5.71V312h5.71l3.84,15.32V312Z"/><path class="cls-4" d="M288.78,312v6.81h-4.06V346h-6.83V318.8h-4V312Z"/><path class="cls-4" d="M306.36,331.91q0,5.13-.18,7.26a9.75,9.75,0,0,1-1.17,3.9,6.87,6.87,0,0,1-2.66,2.71,7.77,7.77,0,0,1-3.9,1,7.92,7.92,0,0,1-3.79-.9,6.67,6.67,0,0,1-2.7-2.67,9.54,9.54,0,0,1-1.22-3.89q-.19-2.1-.19-7.36v-5.82q0-5.11.18-7.26a9.75,9.75,0,0,1,1.17-3.89,7,7,0,0,1,2.66-2.72,7.75,7.75,0,0,1,3.89-.94,8,8,0,0,1,3.8.89,6.75,6.75,0,0,1,2.7,2.68,9.54,9.54,0,0,1,1.22,3.89q.19,2.1.19,7.35Zm-6.83-11.17a13.08,13.08,0,0,0-.21-3,.81.81,0,0,0-.83-.66.89.89,0,0,0-.82.53,9.61,9.61,0,0,0-.29,3.17v15.88a20.51,20.51,0,0,0,.19,3.66.83.83,0,0,0,.87.69.89.89,0,0,0,.89-.8,21.42,21.42,0,0,0,.2-3.8Z"/><path class="cls-4" d="M323.79,322.29h-6.34v-2.52a6.26,6.26,0,0,0-.25-2.25.84.84,0,0,0-.81-.48,1,1,0,0,0-.93.65,4.69,4.69,0,0,0-.32,2,7,7,0,0,0,.36,2.57,5.71,5.71,0,0,0,1.93,2.08q4.56,3.51,5.75,5.75t1.18,7.25a16,16,0,0,1-.66,5.36,5.83,5.83,0,0,1-2.54,2.89,8.8,8.8,0,0,1-9.07-.18,6.19,6.19,0,0,1-2.54-3.42,22.48,22.48,0,0,1-.6-5.91v-2.22h6.35V338a6.8,6.8,0,0,0,.27,2.45,1,1,0,0,0,.95.55,1.07,1.07,0,0,0,1-.69,4.83,4.83,0,0,0,.34-2.06c0-2-.21-3.31-.64-3.93A21.5,21.5,0,0,0,314,331.2a33.5,33.5,0,0,1-3.38-3.17,7.87,7.87,0,0,1-1.37-2.74,14.93,14.93,0,0,1-.55-4.45,15.71,15.71,0,0,1,.77-5.72,6,6,0,0,1,2.5-2.82,8,8,0,0,1,4.15-1,8.75,8.75,0,0,1,4.54,1.11,5.42,5.42,0,0,1,2.48,2.81,18.76,18.76,0,0,1,.61,5.75Z"/><path class="cls-6" d="M206.86,417.05C96.61,417.05,7.24,327.68,7.24,217.43S96.61,17.82,206.86,17.82s199.62,89.37,199.62,199.61S317.1,417.05,206.86,417.05Z"/><path class="cls-3" d="M206.07,412.7C107.88,412.7,26.46,339.64,13.22,245H3.48c13.31,100,99.06,177.33,202.59,177.33.43,0,.84,0,1.26,0v-9.66C206.91,412.67,206.5,412.7,206.07,412.7Z"/><path class="cls-7" d="M128.67,188.4h23.54c0-27,26.49-54,53-54v19.76"/><path class="cls-4" d="M129.23,198.28a9.88,9.88,0,1,1,9.88-9.88A9.88,9.88,0,0,1,129.23,198.28Z"/><path class="cls-3" d="M129.23,199.59A11.2,11.2,0,1,0,118,188.4a11.2,11.2,0,0,0,11.2,11.19Zm0-19.76a8.57,8.57,0,1,1-8.57,8.57,8.57,8.57,0,0,1,8.57-8.57Z"/><polygon class="cls-3" points="214.48 152.76 205.19 158.62 195.91 152.76 195.91 152.7 214.48 152.7 214.48 152.76"/><path class="cls-7" d="M288.2,201.55H269.59c.23,26.22-29.1,49.9-55.51,49.9V228.91"/><path class="cls-4" d="M287.64,191.67a9.88,9.88,0,1,1-9.88,9.88A9.88,9.88,0,0,1,287.64,191.67Z"/><path class="cls-3" d="M287.64,190.36a11.19,11.19,0,1,0,11.2,11.19,11.2,11.2,0,0,0-11.2-11.19Zm0,19.76a8.57,8.57,0,1,1,8.57-8.57,8.58,8.58,0,0,1-8.57,8.57Z"/><polygon class="cls-3" points="204.79 230.28 214.08 224.41 223.37 230.28 223.37 230.34 204.79 230.34 204.79 230.28"/><path class="cls-7" d="M205.19,278V251.45c-29.26,0-53-27-53-54h34.08"/><path class="cls-4" d="M215.07,277.48a9.88,9.88,0,1,1-9.88-9.88A9.88,9.88,0,0,1,215.07,277.48Z"/><path class="cls-3" d="M216.39,277.48a11.2,11.2,0,1,0-11.2,11.19,11.21,11.21,0,0,0,11.2-11.19Zm-19.76,0a8.57,8.57,0,1,1,8.56,8.56,8.57,8.57,0,0,1-8.56-8.56Z"/><polygon class="cls-3" points="184.92 188.14 190.79 197.43 184.92 206.72 184.86 206.72 184.86 188.14 184.92 188.14"/><path class="cls-7" d="M215.79,114.51v20.38c27-.52,54,26.49,54,53h-28"/><path class="cls-4" d="M205.91,115.07a9.88,9.88,0,1,1,9.88,9.88A9.89,9.89,0,0,1,205.91,115.07Z"/><path class="cls-3" d="M204.6,115.07a11.2,11.2,0,1,0,11.19-11.19,11.2,11.2,0,0,0-11.19,11.19Zm19.76,0a8.57,8.57,0,1,1-8.57-8.56,8.57,8.57,0,0,1,8.57,8.56Z"/><polygon class="cls-3" points="243.23 197.16 237.37 187.88 243.23 178.59 243.29 178.59 243.29 197.16 243.23 197.16"/><path class="cls-8" d="M128,185.42h0l-1.4.76-.21-.83,1.76-.94H129v8H128Z"/><path class="cls-8" d="M213.06,118.14v-.67l.85-.82c2.05-2,3-3,3-4.21a1.43,1.43,0,0,0-1.59-1.57,2.8,2.8,0,0,0-1.71.68l-.34-.76a3.49,3.49,0,0,1,2.27-.82,2.26,2.26,0,0,1,2.46,2.34c0,1.48-1.08,2.68-2.77,4.31l-.64.59v0h3.61v.9Z"/><path class="cls-8" d="M285.21,203.74a3.64,3.64,0,0,0,1.79.51c1.39,0,1.82-.89,1.81-1.56,0-1.12-1-1.6-2.07-1.6h-.61v-.82h.61c.79,0,1.79-.41,1.79-1.36,0-.64-.41-1.21-1.41-1.21a3,3,0,0,0-1.61.53l-.28-.79a3.79,3.79,0,0,1,2.1-.62c1.58,0,2.3.94,2.3,1.92a2,2,0,0,1-1.49,1.89v0a2.1,2.1,0,0,1,1.8,2.07c0,1.28-1,2.41-2.93,2.41a4.07,4.07,0,0,1-2.09-.55Z"/><path class="cls-8" d="M206.23,280.55v-2.19h-3.74v-.71l3.59-5.13h1.17v5h1.13v.85h-1.13v2.19Zm0-3v-2.68q0-.63,0-1.26h0c-.25.47-.45.81-.67,1.18l-2,2.74v0Z"/><path class="cls-2" d="M202.58,186a7.44,7.44,0,0,0-2.53,9.85,7.35,7.35,0,1,0,2.53-9.85Z"/><path class="cls-8" d="M200.14,191.35a12,12,0,1,0,12.28-11.79A12,12,0,0,0,200.14,191.35Zm18.37-3.69A7.35,7.35,0,1,1,205.79,195a7.43,7.43,0,0,1,2.54-9.85A7.34,7.34,0,0,1,218.51,187.66Z"/><path class="cls-8" d="M231.51,193.51a19.31,19.31,0,0,0,0-4.23l-3.27-.78a19.38,19.38,0,0,0-.72-2.55l2.39-2.37a17.6,17.6,0,0,0-1-1.88,19.13,19.13,0,0,0-1.18-1.75l-3.23,1a16.57,16.57,0,0,0-1.89-1.86l.89-3.25a19.61,19.61,0,0,0-3.68-2.07l-2.32,2.45a16,16,0,0,0-2.56-.66l-.86-3.26a19.13,19.13,0,0,0-4.21.05l-.79,3.27a16.72,16.72,0,0,0-2.55.72l-2.37-2.4a18.7,18.7,0,0,0-1.88,1,19,19,0,0,0-1.75,1.17l1,3.23a15.87,15.87,0,0,0-1.86,1.9l-3.25-.9A19.37,19.37,0,0,0,194.3,184l2.45,2.32a16.28,16.28,0,0,0-.65,2.56l-3.27.86a19.85,19.85,0,0,0,0,4.22l3.28.78a17.17,17.17,0,0,0,.72,2.56l-2.4,2.36a19.65,19.65,0,0,0,1,1.88c.37.61.76,1.2,1.18,1.76l3.23-1a16.65,16.65,0,0,0,1.9,1.86l-.89,3.25a19,19,0,0,0,3.67,2.07l2.32-2.45a16.15,16.15,0,0,0,2.57.66l.85,3.26a19.22,19.22,0,0,0,4.22,0l.78-3.28a15.65,15.65,0,0,0,2.55-.72l2.38,2.4a18.45,18.45,0,0,0,1.87-1,18,18,0,0,0,1.76-1.18l-1-3.23a16.5,16.5,0,0,0,1.85-1.89l3.25.89a19.06,19.06,0,0,0,2.07-3.68l-2.45-2.32a16,16,0,0,0,.66-2.56Zm-19.6,10.64a12.56,12.56,0,1,1,12.82-12.29A12.56,12.56,0,0,1,211.91,204.15Z"/></svg>