<?xml version="1.0" encoding="UTF-8" standalone="no"?>
<!-- Created with Inkscape (http://www.inkscape.org/) -->
<svg
   xmlns:dc="http://purl.org/dc/elements/1.1/"
   xmlns:cc="http://web.resource.org/cc/"
   xmlns:rdf="http://www.w3.org/1999/02/22-rdf-syntax-ns#"
   xmlns:svg="http://www.w3.org/2000/svg"
   xmlns="http://www.w3.org/2000/svg"
   xmlns:sodipodi="http://sodipodi.sourceforge.net/DTD/sodipodi-0.dtd"
   xmlns:inkscape="http://www.inkscape.org/namespaces/inkscape"
   width="300"
   height="400"
   id="svg2"
   sodipodi:version="0.32"
   inkscape:version="0.44"
   version="1.0"
   sodipodi:docbase="C:\Documents and Settings\Fam. Ventocilla\Mis documentos\[70443084]"
   sodipodi:docname="Sin_foto.svg">
  <defs
     id="defs4" />
  <sodipodi:namedview
     id="base"
     pagecolor="#ffffff"
     bordercolor="#666666"
     borderopacity="1.0"
     inkscape:pageopacity="0.0"
     inkscape:pageshadow="2"
     inkscape:zoom="0.7"
     inkscape:cx="264.63982"
     inkscape:cy="215.93862"
     inkscape:document-units="px"
     inkscape:current-layer="layer1"
     width="300px"
     height="400px"
     inkscape:window-width="942"
     inkscape:window-height="575"
     inkscape:window-x="44"
     inkscape:window-y="58" />
  <metadata
     id="metadata7">
    <rdf:RDF>
      <cc:Work
         rdf:about="">
        <dc:format>image/svg+xml</dc:format>
        <dc:type
           rdf:resource="http://purl.org/dc/dcmitype/StillImage" />
      </cc:Work>
    </rdf:RDF>
  </metadata>
  <g
     inkscape:label="Capa 1"
     inkscape:groupmode="layer"
     id="layer1">
    <rect
       style="opacity:1;fill:#d4d4d4;fill-opacity:1;stroke:none;stroke-width:2.5;stroke-linecap:round;stroke-linejoin:miter;stroke-miterlimit:4;stroke-dasharray:none;stroke-dashoffset:0;stroke-opacity:1"
       id="rect1872"
       width="280"
       height="380"
       x="10"
       y="10" />
    <path
       sodipodi:type="arc"
       style="opacity:1;fill:#e3e3e3;fill-opacity:1;stroke:none;stroke-width:2.5;stroke-linecap:round;stroke-linejoin:miter;stroke-miterlimit:4;stroke-dasharray:none;stroke-dashoffset:0;stroke-opacity:1"
       id="path4606"
       sodipodi:cx="145"
       sodipodi:cy="214.28572"
       sodipodi:rx="92.14286"
       sodipodi:ry="184.28572"
       d="M 237.14286 214.28572 A 92.14286 184.28572 0 1 1  52.85714,214.28572 A 92.14286 184.28572 0 1 1  237.14286 214.28572 z"
       transform="matrix(1.356589,0,0,0.949612,-46.70541,-3.488224)" />
    <path
       id="path5023"
       style="fill:white;fill-opacity:1;fill-rule:nonzero;stroke:none;stroke-width:3.5;stroke-linecap:round;stroke-linejoin:miter;stroke-miterlimit:4;stroke-dashoffset:0;stroke-opacity:1"
       d="M 165.74,278.28 C 165.74,290.26 155.54,300 142.96,300 C 130.4,300 120.18,290.26 120.18,278.28 C 120.18,266.3 130.4,256.56 142.96,256.56 C 155.54,256.56 165.74,266.3 165.74,278.28 z M 144.5,100 L 147.18,100 C 162.22,100 174.78,104 184.8,111.94 C 194.92,119.88 200,130.42 200,143.56 C 200,152.56 198.14,160.18 194.44,166.44 C 190.82,172.62 184.34,179.92 175.06,188.32 C 165.86,196.7 159.9,203.62 157.12,209.18 C 154.34,214.74 152.94,220.82 152.94,227.44 C 152.94,228.84 153.58,232.56 154.88,238.56 L 128.24,238.56 L 125.62,231.82 C 124.14,227.92 123.38,224.54 123.38,221.62 C 123.38,216.06 124.18,210.74 125.74,205.62 C 127.42,200.5 129.84,195.72 133,191.32 C 136.16,186.82 142.4,179.66 151.68,169.88 C 161.06,160.08 165.74,152.04 165.74,145.68 C 165.74,133.34 157.24,127.12 140.24,127.12 C 131.98,127.12 123.38,131.08 114.38,138.94 L 100,113.38 C 111.42,104.88 126.26,100.4 144.5,100 z " />
    <rect
       style="opacity:1;fill:#bbb;fill-opacity:1;stroke:none;stroke-width:2.5;stroke-linecap:round;stroke-linejoin:miter;stroke-miterlimit:4;stroke-dasharray:none;stroke-dashoffset:0;stroke-opacity:1"
       id="rect4716"
       width="25"
       height="50"
       x="0"
       y="0" />
    <rect
       y="-50"
       x="0"
       height="50"
       width="25"
       id="rect4718"
       style="opacity:1;fill:#bbb;fill-opacity:1;stroke:none;stroke-width:2.5;stroke-linecap:round;stroke-linejoin:miter;stroke-miterlimit:4;stroke-dasharray:none;stroke-dashoffset:0;stroke-opacity:1"
       transform="matrix(0,1,-1,0,0,0)" />
    <rect
       y="0"
       x="-300"
       height="50"
       width="25"
       id="rect4720"
       style="opacity:1;fill:#bbb;fill-opacity:1;stroke:none;stroke-width:2.5;stroke-linecap:round;stroke-linejoin:miter;stroke-miterlimit:4;stroke-dasharray:none;stroke-dashoffset:0;stroke-opacity:1"
       transform="scale(-1,1)" />
    <rect
       transform="matrix(0,1,1,0,0,0)"
       style="opacity:1;fill:#bbb;fill-opacity:1;stroke:none;stroke-width:2.5;stroke-linecap:round;stroke-linejoin:miter;stroke-miterlimit:4;stroke-dasharray:none;stroke-dashoffset:0;stroke-opacity:1"
       id="rect4722"
       width="25"
       height="50"
       x="0"
       y="250" />
    <rect
       y="-400"
       x="0"
       height="50"
       width="25"
       id="rect4724"
       style="opacity:1;fill:#bbb;fill-opacity:1;stroke:none;stroke-width:2.5;stroke-linecap:round;stroke-linejoin:miter;stroke-miterlimit:4;stroke-dasharray:none;stroke-dashoffset:0;stroke-opacity:1"
       transform="scale(1,-1)" />
    <rect
       transform="matrix(0,-1,-1,0,0,0)"
       style="opacity:1;fill:#bbb;fill-opacity:1;stroke:none;stroke-width:2.5;stroke-linecap:round;stroke-linejoin:miter;stroke-miterlimit:4;stroke-dasharray:none;stroke-dashoffset:0;stroke-opacity:1"
       id="rect4726"
       width="25"
       height="50"
       x="-400"
       y="-50" />
    <rect
       transform="scale(-1,-1)"
       style="opacity:1;fill:#bbb;fill-opacity:1;stroke:none;stroke-width:2.5;stroke-linecap:round;stroke-linejoin:miter;stroke-miterlimit:4;stroke-dasharray:none;stroke-dashoffset:0;stroke-opacity:1"
       id="rect4728"
       width="25"
       height="50"
       x="-300"
       y="-400" />
    <rect
       y="250"
       x="-400"
       height="50"
       width="25"
       id="rect4730"
       style="opacity:1;fill:#bbb;fill-opacity:1;stroke:none;stroke-width:2.5;stroke-linecap:round;stroke-linejoin:miter;stroke-miterlimit:4;stroke-dasharray:none;stroke-dashoffset:0;stroke-opacity:1"
       transform="matrix(0,-1,1,0,0,0)" />
  </g>
</svg>
